<?xml version="1.0" encoding="UTF-8" standalone="no"?>
<!DOCTYPE svg PUBLIC "-//W3C//DTD SVG 1.1//EN"
 "http://www.w3.org/Graphics/SVG/1.1/DTD/svg11.dtd">
<!-- Generated by graphviz version 3.0.0 (20221109.1736)
 -->
<!-- Title: dspal_biquad_design_lowpass Pages: 1 -->
<svg width="427pt" height="39pt"
 viewBox="0.00 0.00 427.00 39.00" xmlns="http://www.w3.org/2000/svg" xmlns:xlink="http://www.w3.org/1999/xlink">
<g id="graph0" class="graph" transform="scale(1 1) rotate(0) translate(4 35)">
<title>dspal_biquad_design_lowpass</title>
<!-- Node1 -->
<g id="node1" class="node">
<title>Node1</title>
<g id="a_node1"><a xlink:title=" ">
<polygon fill="#bfbfbf" stroke="black" points="312,-0.5 312,-30.5 419,-30.5 419,-0.5 312,-0.5"/>
<text text-anchor="start" x="320" y="-18.5" font-family="Helvetica,sans-Serif" font-size="10.00">dspal_biquad_design</text>
<text text-anchor="middle" x="365.5" y="-7.5" font-family="Helvetica,sans-Serif" font-size="10.00">_lowpass</text>
</a>
</g>
</g>
<!-- Node2 -->
<g id="node2" class="node">
<title>Node2</title>
<g id="a_node2"><a xlink:href="noise__gate_8cpp.html#a2691256497a1cec4e14434f48eccfb56" target="_top" xlink:title="Set the sample rate in Hz.">
<polygon fill="none" stroke="black" points="163,-6 163,-25 276,-25 276,-6 163,-6"/>
<text text-anchor="middle" x="219.5" y="-13" font-family="Helvetica,sans-Serif" font-size="10.00">gate_set_sample_rate</text>
</a>
</g>
</g>
<!-- Node1&#45;&gt;Node2 -->
<g id="edge1" class="edge">
<title>Node1&#45;&gt;Node2</title>
<path fill="none" stroke="midnightblue" d="M301.53,-15.5C293.1,-15.5 284.5,-15.5 276.2,-15.5"/>
<polygon fill="midnightblue" stroke="midnightblue" points="301.7,-19 311.7,-15.5 301.7,-12 301.7,-19"/>
</g>
<!-- Node3 -->
<g id="node3" class="node">
<title>Node3</title>
<g id="a_node3"><a xlink:href="classshrapnel_1_1AudioProcessor.html#a4d401fb001e1dac6d5bdd9e52a6ed2e6" target="_top" xlink:title=" ">
<polygon fill="none" stroke="black" points="0,-0.5 0,-30.5 127,-30.5 127,-0.5 0,-0.5"/>
<text text-anchor="start" x="8" y="-18.5" font-family="Helvetica,sans-Serif" font-size="10.00">shrapnel::AudioProcessor</text>
<text text-anchor="middle" x="63.5" y="-7.5" font-family="Helvetica,sans-Serif" font-size="10.00">::prepare</text>
</a>
</g>
</g>
<!-- Node2&#45;&gt;Node3 -->
<g id="edge2" class="edge">
<title>Node2&#45;&gt;Node3</title>
<path fill="none" stroke="midnightblue" d="M152.67,-15.5C144.18,-15.5 135.5,-15.5 127.07,-15.5"/>
<polygon fill="midnightblue" stroke="midnightblue" points="152.9,-19 162.9,-15.5 152.9,-12 152.9,-19"/>
</g>
</g>
</svg>
