<?xml version="1.0" encoding="UTF-8" standalone="no"?>
<!DOCTYPE svg PUBLIC "-//W3C//DTD SVG 1.1//EN"
 "http://www.w3.org/Graphics/SVG/1.1/DTD/svg11.dtd">
<!-- Generated by graphviz version 3.0.0 (20221109.1736)
 -->
<!-- Title: audio_event_task Pages: 1 -->
<svg width="441pt" height="28pt"
 viewBox="0.00 0.00 441.00 28.00" xmlns="http://www.w3.org/2000/svg" xmlns:xlink="http://www.w3.org/1999/xlink">
<g id="graph0" class="graph" transform="scale(1 1) rotate(0) translate(4 24)">
<title>audio_event_task</title>
<!-- Node1 -->
<g id="node1" class="node">
<title>Node1</title>
<g id="a_node1"><a xlink:title=" ">
<polygon fill="#bfbfbf" stroke="black" points="0,-0.5 0,-19.5 93,-19.5 93,-0.5 0,-0.5"/>
<text text-anchor="middle" x="46.5" y="-7.5" font-family="Helvetica,sans-Serif" font-size="10.00">audio_event_task</text>
</a>
</g>
</g>
<!-- Node2 -->
<g id="node2" class="node">
<title>Node2</title>
<g id="a_node2"><a xlink:href="main_8cpp.html#a956bb48f7ee4a35a535c8858a66596d5" target="_top" xlink:title="Called when an event is triggered.">
<polygon fill="none" stroke="black" points="129,-0.5 129,-19.5 266,-19.5 266,-0.5 129,-0.5"/>
<text text-anchor="middle" x="197.5" y="-7.5" font-family="Helvetica,sans-Serif" font-size="10.00">audio_event_send_callback</text>
</a>
</g>
</g>
<!-- Node1&#45;&gt;Node2 -->
<g id="edge1" class="edge">
<title>Node1&#45;&gt;Node2</title>
<path fill="none" stroke="midnightblue" d="M93.01,-10C101.13,-10 109.8,-10 118.53,-10"/>
<polygon fill="midnightblue" stroke="midnightblue" points="118.77,-13.5 128.77,-10 118.77,-6.5 118.77,-13.5"/>
</g>
<!-- Node3 -->
<g id="node3" class="node">
<title>Node3</title>
<g id="a_node3"><a xlink:href="namespaceshrapnel.html#a9df539517dd9158cb2b42a9d9e948a73" target="_top" xlink:title=" ">
<polygon fill="none" stroke="black" points="302,-0.5 302,-19.5 433,-19.5 433,-0.5 302,-0.5"/>
<text text-anchor="middle" x="367.5" y="-7.5" font-family="Helvetica,sans-Serif" font-size="10.00">shrapnel::websocket_send</text>
</a>
</g>
</g>
<!-- Node2&#45;&gt;Node3 -->
<g id="edge2" class="edge">
<title>Node2&#45;&gt;Node3</title>
<path fill="none" stroke="midnightblue" d="M266.35,-10C274.7,-10 283.27,-10 291.72,-10"/>
<polygon fill="midnightblue" stroke="midnightblue" points="291.94,-13.5 301.94,-10 291.94,-6.5 291.94,-13.5"/>
</g>
</g>
</svg>
