<?xml version="1.0" encoding="UTF-8" standalone="no"?>
<!DOCTYPE svg PUBLIC "-//W3C//DTD SVG 1.1//EN"
 "http://www.w3.org/Graphics/SVG/1.1/DTD/svg11.dtd">
<!-- Generated by graphviz version 3.0.0 (20221109.1736)
 -->
<!-- Title: shrapnel::effect::valvestate::Valvestate::reset Pages: 1 -->
<svg width="450pt" height="176pt"
 viewBox="0.00 0.00 450.00 175.50" xmlns="http://www.w3.org/2000/svg" xmlns:xlink="http://www.w3.org/1999/xlink">
<g id="graph0" class="graph" transform="scale(1 1) rotate(0) translate(4 171.5)">
<title>shrapnel::effect::valvestate::Valvestate::reset</title>
<!-- Node1 -->
<g id="node1" class="node">
<title>Node1</title>
<g id="a_node1"><a xlink:title=" ">
<polygon fill="#bfbfbf" stroke="black" points="0,-73.5 0,-103.5 131,-103.5 131,-73.5 0,-73.5"/>
<text text-anchor="start" x="8" y="-91.5" font-family="Helvetica,sans-Serif" font-size="10.00">shrapnel::effect::valvestate</text>
<text text-anchor="middle" x="65.5" y="-80.5" font-family="Helvetica,sans-Serif" font-size="10.00">::Valvestate::reset</text>
</a>
</g>
</g>
<!-- Node2 -->
<g id="node2" class="node">
<title>Node2</title>
<g id="a_node2"><a xlink:href="classContourFilter.html#a7b6a52867eb20a552fb8f66abe35881e" target="_top" xlink:title=" ">
<polygon fill="none" stroke="black" points="183.5,-148 183.5,-167 281.5,-167 281.5,-148 183.5,-148"/>
<text text-anchor="middle" x="232.5" y="-155" font-family="Helvetica,sans-Serif" font-size="10.00">ContourFilter::reset</text>
</a>
</g>
</g>
<!-- Node1&#45;&gt;Node2 -->
<g id="edge1" class="edge">
<title>Node1&#45;&gt;Node2</title>
<path fill="none" stroke="midnightblue" d="M93.64,-103.63C113.53,-114.31 141.42,-128.46 167,-138.5 172.85,-140.8 179.09,-142.97 185.29,-144.96"/>
<polygon fill="midnightblue" stroke="midnightblue" points="184.38,-148.34 194.96,-147.95 186.44,-141.65 184.38,-148.34"/>
</g>
<!-- Node4 -->
<g id="node4" class="node">
<title>Node4</title>
<g id="a_node4"><a xlink:href="classshrapnel_1_1effect_1_1valvestate_1_1FMVFilter.html#a825b1d349a4bcb1e4250174b4de9a7a4" target="_top" xlink:title=" ">
<polygon fill="none" stroke="black" points="167,-98.5 167,-128.5 298,-128.5 298,-98.5 167,-98.5"/>
<text text-anchor="start" x="175" y="-116.5" font-family="Helvetica,sans-Serif" font-size="10.00">shrapnel::effect::valvestate</text>
<text text-anchor="middle" x="232.5" y="-105.5" font-family="Helvetica,sans-Serif" font-size="10.00">::FMVFilter::reset</text>
</a>
</g>
</g>
<!-- Node1&#45;&gt;Node4 -->
<g id="edge3" class="edge">
<title>Node1&#45;&gt;Node4</title>
<path fill="none" stroke="midnightblue" d="M131.24,-98.31C139.67,-99.59 148.37,-100.9 156.95,-102.2"/>
<polygon fill="midnightblue" stroke="midnightblue" points="156.54,-105.68 166.95,-103.72 157.59,-98.76 156.54,-105.68"/>
</g>
<!-- Node5 -->
<g id="node5" class="node">
<title>Node5</title>
<g id="a_node5"><a xlink:href="classshrapnel_1_1effect_1_1valvestate_1_1GainControl.html#ac97c745cedd949319f4064d2b20c5d17" target="_top" xlink:title=" ">
<polygon fill="none" stroke="black" points="167,-49.5 167,-79.5 298,-79.5 298,-49.5 167,-49.5"/>
<text text-anchor="start" x="175" y="-67.5" font-family="Helvetica,sans-Serif" font-size="10.00">shrapnel::effect::valvestate</text>
<text text-anchor="middle" x="232.5" y="-56.5" font-family="Helvetica,sans-Serif" font-size="10.00">::GainControl::reset</text>
</a>
</g>
</g>
<!-- Node1&#45;&gt;Node5 -->
<g id="edge5" class="edge">
<title>Node1&#45;&gt;Node5</title>
<path fill="none" stroke="midnightblue" d="M131.24,-79.08C139.67,-77.86 148.37,-76.59 156.95,-75.34"/>
<polygon fill="midnightblue" stroke="midnightblue" points="157.56,-78.79 166.95,-73.89 156.55,-71.87 157.56,-78.79"/>
</g>
<!-- Node6 -->
<g id="node6" class="node">
<title>Node6</title>
<g id="a_node6"><a xlink:href="classshrapnel_1_1effect_1_1valvestate_1_1InputFilter.html#a2b8b63ac88d63972aac7d67121e9f97c" target="_top" xlink:title=" ">
<polygon fill="none" stroke="black" points="167,-0.5 167,-30.5 298,-30.5 298,-0.5 167,-0.5"/>
<text text-anchor="start" x="175" y="-18.5" font-family="Helvetica,sans-Serif" font-size="10.00">shrapnel::effect::valvestate</text>
<text text-anchor="middle" x="232.5" y="-7.5" font-family="Helvetica,sans-Serif" font-size="10.00">::InputFilter::reset</text>
</a>
</g>
</g>
<!-- Node1&#45;&gt;Node6 -->
<g id="edge7" class="edge">
<title>Node1&#45;&gt;Node6</title>
<path fill="none" stroke="midnightblue" d="M96.57,-73.4C116.4,-63.63 143.04,-50.85 167,-40.5 171.77,-38.44 176.77,-36.36 181.79,-34.33"/>
<polygon fill="midnightblue" stroke="midnightblue" points="183.4,-37.45 191.4,-30.5 180.81,-30.95 183.4,-37.45"/>
</g>
<!-- Node3 -->
<g id="node3" class="node">
<title>Node3</title>
<g id="a_node3"><a xlink:href="classshrapnel_1_1dsp_1_1IirFilter.html#a0849f4c727beedd3b29f6b8ff50f6b02" target="_top" xlink:title=" ">
<polygon fill="none" stroke="black" points="334,-73.5 334,-103.5 442,-103.5 442,-73.5 334,-73.5"/>
<text text-anchor="start" x="342" y="-91.5" font-family="Helvetica,sans-Serif" font-size="10.00">shrapnel::dsp::IirFilter</text>
<text text-anchor="middle" x="388" y="-80.5" font-family="Helvetica,sans-Serif" font-size="10.00">::reset</text>
</a>
</g>
</g>
<!-- Node2&#45;&gt;Node3 -->
<g id="edge2" class="edge">
<title>Node2&#45;&gt;Node3</title>
<path fill="none" stroke="midnightblue" d="M271.18,-147.95C280.11,-145.27 289.5,-142.08 298,-138.5 317.56,-130.25 338.31,-118.77 354.85,-108.89"/>
<polygon fill="midnightblue" stroke="midnightblue" points="356.83,-111.78 363.57,-103.6 353.2,-105.79 356.83,-111.78"/>
</g>
<!-- Node4&#45;&gt;Node3 -->
<g id="edge4" class="edge">
<title>Node4&#45;&gt;Node3</title>
<path fill="none" stroke="midnightblue" d="M298.15,-102.97C306.54,-101.6 315.13,-100.21 323.5,-98.84"/>
<polygon fill="midnightblue" stroke="midnightblue" points="324.26,-102.26 333.57,-97.2 323.14,-95.36 324.26,-102.26"/>
</g>
<!-- Node5&#45;&gt;Node3 -->
<g id="edge6" class="edge">
<title>Node5&#45;&gt;Node3</title>
<path fill="none" stroke="midnightblue" d="M298.15,-74.61C306.54,-75.92 315.13,-77.26 323.5,-78.57"/>
<polygon fill="midnightblue" stroke="midnightblue" points="323.15,-82.06 333.57,-80.15 324.23,-75.14 323.15,-82.06"/>
</g>
<!-- Node6&#45;&gt;Node3 -->
<g id="edge8" class="edge">
<title>Node6&#45;&gt;Node3</title>
<path fill="none" stroke="midnightblue" d="M274.77,-30.61C282.56,-33.71 290.58,-37.08 298,-40.5 316.12,-48.86 335.7,-59.26 351.87,-68.24"/>
<polygon fill="midnightblue" stroke="midnightblue" points="350.52,-71.5 360.96,-73.34 353.95,-65.39 350.52,-71.5"/>
</g>
</g>
</svg>
