<?xml version="1.0" encoding="UTF-8" standalone="no"?>
<!DOCTYPE svg PUBLIC "-//W3C//DTD SVG 1.1//EN"
 "http://www.w3.org/Graphics/SVG/1.1/DTD/svg11.dtd">
<!-- Generated by graphviz version 3.0.0 (20221109.1736)
 -->
<!-- Title: ContourFilter::set_parameter Pages: 1 -->
<svg width="266pt" height="78pt"
 viewBox="0.00 0.00 266.00 77.50" xmlns="http://www.w3.org/2000/svg" xmlns:xlink="http://www.w3.org/1999/xlink">
<g id="graph0" class="graph" transform="scale(1 1) rotate(0) translate(4 73.5)">
<title>ContourFilter::set_parameter</title>
<!-- Node1 -->
<g id="node1" class="node">
<title>Node1</title>
<g id="a_node1"><a xlink:title=" ">
<polygon fill="#bfbfbf" stroke="black" points="168,-22.5 168,-52.5 258,-52.5 258,-22.5 168,-22.5"/>
<text text-anchor="start" x="176" y="-40.5" font-family="Helvetica,sans-Serif" font-size="10.00">ContourFilter::set</text>
<text text-anchor="middle" x="213" y="-29.5" font-family="Helvetica,sans-Serif" font-size="10.00">_parameter</text>
</a>
</g>
</g>
<!-- Node2 -->
<g id="node2" class="node">
<title>Node2</title>
<g id="a_node2"><a xlink:href="classContourFilter.html#af4486d2fb4e9beb086f2b11b5f48d111" target="_top" xlink:title=" ">
<polygon fill="none" stroke="black" points="0,-50 0,-69 132,-69 132,-50 0,-50"/>
<text text-anchor="middle" x="66" y="-57" font-family="Helvetica,sans-Serif" font-size="10.00">ContourFilter::ContourFilter</text>
</a>
</g>
</g>
<!-- Node1&#45;&gt;Node2 -->
<g id="edge1" class="edge">
<title>Node1&#45;&gt;Node2</title>
<path fill="none" stroke="midnightblue" d="M157.63,-45.75C148.52,-47.13 139,-48.58 129.7,-49.99"/>
<polygon fill="midnightblue" stroke="midnightblue" points="158.35,-49.18 167.71,-44.22 157.3,-42.26 158.35,-49.18"/>
</g>
<!-- Node3 -->
<g id="node3" class="node">
<title>Node3</title>
<g id="a_node3"><a xlink:href="classshrapnel_1_1effect_1_1valvestate_1_1Valvestate.html#a000102bdfca76953f1c7f6e2f6a11d8e" target="_top" xlink:title=" ">
<polygon fill="none" stroke="black" points="0.5,-0.5 0.5,-30.5 131.5,-30.5 131.5,-0.5 0.5,-0.5"/>
<text text-anchor="start" x="8.5" y="-18.5" font-family="Helvetica,sans-Serif" font-size="10.00">shrapnel::effect::valvestate</text>
<text text-anchor="middle" x="66" y="-7.5" font-family="Helvetica,sans-Serif" font-size="10.00">::Valvestate::set_contour</text>
</a>
</g>
</g>
<!-- Node1&#45;&gt;Node3 -->
<g id="edge2" class="edge">
<title>Node1&#45;&gt;Node3</title>
<path fill="none" stroke="midnightblue" d="M157.57,-29.24C149.09,-27.95 140.25,-26.61 131.57,-25.3"/>
<polygon fill="midnightblue" stroke="midnightblue" points="157.3,-32.74 167.71,-30.78 158.35,-25.82 157.3,-32.74"/>
</g>
</g>
</svg>
