<?xml version="1.0" encoding="UTF-8" standalone="no"?>
<!DOCTYPE svg PUBLIC "-//W3C//DTD SVG 1.1//EN"
 "http://www.w3.org/Graphics/SVG/1.1/DTD/svg11.dtd">
<!-- Generated by graphviz version 3.0.0 (20221109.1736)
 -->
<!-- Title: shrapnel::effect::valvestate::Valvestate::reset Pages: 1 -->
<svg width="450pt" height="176pt"
 viewBox="0.00 0.00 450.00 176.00" xmlns="http://www.w3.org/2000/svg" xmlns:xlink="http://www.w3.org/1999/xlink">
<g id="graph0" class="graph" transform="scale(1 1) rotate(0) translate(4 172)">
<title>shrapnel::effect::valvestate::Valvestate::reset</title>
<!-- Node1 -->
<g id="node1" class="node">
<title>Node1</title>
<g id="a_node1"><a xlink:title=" ">
<polygon fill="#bfbfbf" stroke="black" points="0,-66.5 0,-96.5 131,-96.5 131,-66.5 0,-66.5"/>
<text text-anchor="start" x="8" y="-84.5" font-family="Helvetica,sans-Serif" font-size="10.00">shrapnel::effect::valvestate</text>
<text text-anchor="middle" x="65.5" y="-73.5" font-family="Helvetica,sans-Serif" font-size="10.00">::Valvestate::reset</text>
</a>
</g>
</g>
<!-- Node2 -->
<g id="node2" class="node">
<title>Node2</title>
<g id="a_node2"><a xlink:href="classshrapnel_1_1effect_1_1valvestate_1_1FMVFilter.html#a825b1d349a4bcb1e4250174b4de9a7a4" target="_top" xlink:title=" ">
<polygon fill="none" stroke="black" points="167,-137.5 167,-167.5 298,-167.5 298,-137.5 167,-137.5"/>
<text text-anchor="start" x="175" y="-155.5" font-family="Helvetica,sans-Serif" font-size="10.00">shrapnel::effect::valvestate</text>
<text text-anchor="middle" x="232.5" y="-144.5" font-family="Helvetica,sans-Serif" font-size="10.00">::FMVFilter::reset</text>
</a>
</g>
</g>
<!-- Node1&#45;&gt;Node2 -->
<g id="edge1" class="edge">
<title>Node1&#45;&gt;Node2</title>
<path fill="none" stroke="midnightblue" d="M97,-96.55C116.78,-106.11 143.2,-118.52 167,-128.5 171.2,-130.26 175.59,-132.03 180.01,-133.77"/>
<polygon fill="midnightblue" stroke="midnightblue" points="179.08,-137.16 189.67,-137.5 181.6,-130.63 179.08,-137.16"/>
</g>
<!-- Node4 -->
<g id="node4" class="node">
<title>Node4</title>
<g id="a_node4"><a xlink:href="classshrapnel_1_1effect_1_1valvestate_1_1InputFilter.html#a2b8b63ac88d63972aac7d67121e9f97c" target="_top" xlink:title=" ">
<polygon fill="none" stroke="black" points="167,-88.5 167,-118.5 298,-118.5 298,-88.5 167,-88.5"/>
<text text-anchor="start" x="175" y="-106.5" font-family="Helvetica,sans-Serif" font-size="10.00">shrapnel::effect::valvestate</text>
<text text-anchor="middle" x="232.5" y="-95.5" font-family="Helvetica,sans-Serif" font-size="10.00">::InputFilter::reset</text>
</a>
</g>
</g>
<!-- Node1&#45;&gt;Node4 -->
<g id="edge3" class="edge">
<title>Node1&#45;&gt;Node4</title>
<path fill="none" stroke="midnightblue" d="M131.24,-90.13C139.67,-91.26 148.37,-92.42 156.95,-93.56"/>
<polygon fill="midnightblue" stroke="midnightblue" points="156.57,-97.04 166.95,-94.89 157.5,-90.1 156.57,-97.04"/>
</g>
<!-- Node5 -->
<g id="node5" class="node">
<title>Node5</title>
<g id="a_node5"><a xlink:href="classContourFilter.html#ac12574e070f454adde05a20b80407d16" target="_top" xlink:title=" ">
<polygon fill="none" stroke="black" points="183.5,-50 183.5,-69 281.5,-69 281.5,-50 183.5,-50"/>
<text text-anchor="middle" x="232.5" y="-57" font-family="Helvetica,sans-Serif" font-size="10.00">ContourFilter::reset</text>
</a>
</g>
</g>
<!-- Node1&#45;&gt;Node5 -->
<g id="edge5" class="edge">
<title>Node1&#45;&gt;Node5</title>
<path fill="none" stroke="midnightblue" d="M131.24,-72.87C145.05,-71.03 159.56,-69.09 173.12,-67.28"/>
<polygon fill="midnightblue" stroke="midnightblue" points="173.83,-70.72 183.28,-65.93 172.9,-63.78 173.83,-70.72"/>
</g>
<!-- Node6 -->
<g id="node6" class="node">
<title>Node6</title>
<g id="a_node6"><a xlink:href="classshrapnel_1_1effect_1_1valvestate_1_1GainControl.html#aeff6e479058004d15d749a5c5a504461" target="_top" xlink:title=" ">
<polygon fill="none" stroke="black" points="167,-0.5 167,-30.5 298,-30.5 298,-0.5 167,-0.5"/>
<text text-anchor="start" x="175" y="-18.5" font-family="Helvetica,sans-Serif" font-size="10.00">shrapnel::effect::valvestate</text>
<text text-anchor="middle" x="232.5" y="-7.5" font-family="Helvetica,sans-Serif" font-size="10.00">::GainControl::reset</text>
</a>
</g>
</g>
<!-- Node1&#45;&gt;Node6 -->
<g id="edge7" class="edge">
<title>Node1&#45;&gt;Node6</title>
<path fill="none" stroke="midnightblue" d="M103.19,-66.35C122.2,-58.55 145.81,-48.93 167,-40.5 172.09,-38.47 177.42,-36.38 182.73,-34.3"/>
<polygon fill="midnightblue" stroke="midnightblue" points="184.19,-37.49 192.23,-30.59 181.64,-30.97 184.19,-37.49"/>
</g>
<!-- Node3 -->
<g id="node3" class="node">
<title>Node3</title>
<g id="a_node3"><a xlink:href="classshrapnel_1_1dsp_1_1IirFilter.html#a0849f4c727beedd3b29f6b8ff50f6b02" target="_top" xlink:title=" ">
<polygon fill="none" stroke="black" points="334,-66.5 334,-96.5 442,-96.5 442,-66.5 334,-66.5"/>
<text text-anchor="start" x="342" y="-84.5" font-family="Helvetica,sans-Serif" font-size="10.00">shrapnel::dsp::IirFilter</text>
<text text-anchor="middle" x="388" y="-73.5" font-family="Helvetica,sans-Serif" font-size="10.00">::reset</text>
</a>
</g>
</g>
<!-- Node2&#45;&gt;Node3 -->
<g id="edge2" class="edge">
<title>Node2&#45;&gt;Node3</title>
<path fill="none" stroke="midnightblue" d="M276.49,-137.39C283.74,-134.59 291.13,-131.58 298,-128.5 316,-120.44 335.42,-110.35 351.52,-101.59"/>
<polygon fill="midnightblue" stroke="midnightblue" points="353.5,-104.5 360.58,-96.61 350.13,-98.36 353.5,-104.5"/>
</g>
<!-- Node4&#45;&gt;Node3 -->
<g id="edge4" class="edge">
<title>Node4&#45;&gt;Node3</title>
<path fill="none" stroke="midnightblue" d="M298.15,-94.23C306.54,-93.03 315.13,-91.8 323.5,-90.6"/>
<polygon fill="midnightblue" stroke="midnightblue" points="324.17,-94.04 333.57,-89.16 323.17,-87.11 324.17,-94.04"/>
</g>
<!-- Node5&#45;&gt;Node3 -->
<g id="edge6" class="edge">
<title>Node5&#45;&gt;Node3</title>
<path fill="none" stroke="midnightblue" d="M281.65,-66.4C295.02,-68.32 309.74,-70.43 323.83,-72.45"/>
<polygon fill="midnightblue" stroke="midnightblue" points="323.56,-75.94 333.96,-73.9 324.55,-69.01 323.56,-75.94"/>
</g>
<!-- Node6&#45;&gt;Node3 -->
<g id="edge8" class="edge">
<title>Node6&#45;&gt;Node3</title>
<path fill="none" stroke="midnightblue" d="M273.57,-30.59C281.69,-33.77 290.15,-37.17 298,-40.5 313.96,-47.26 331.3,-55.13 346.41,-62.16"/>
<polygon fill="midnightblue" stroke="midnightblue" points="344.95,-65.34 355.5,-66.41 347.92,-59 344.95,-65.34"/>
</g>
</g>
</svg>
