<?xml version="1.0" encoding="UTF-8" standalone="no"?>
<!DOCTYPE svg PUBLIC "-//W3C//DTD SVG 1.1//EN"
 "http://www.w3.org/Graphics/SVG/1.1/DTD/svg11.dtd">
<!-- Generated by graphviz version 3.0.0 (20221109.1736)
 -->
<!-- Title: shrapnel::ParameterUpdateNotifier::update Pages: 1 -->
<svg width="630pt" height="39pt"
 viewBox="0.00 0.00 630.00 39.00" xmlns="http://www.w3.org/2000/svg" xmlns:xlink="http://www.w3.org/1999/xlink">
<g id="graph0" class="graph" transform="scale(1 1) rotate(0) translate(4 35)">
<title>shrapnel::ParameterUpdateNotifier::update</title>
<!-- Node1 -->
<g id="node1" class="node">
<title>Node1</title>
<g id="a_node1"><a xlink:title=" ">
<polygon fill="#bfbfbf" stroke="black" points="0,-0.5 0,-30.5 134,-30.5 134,-0.5 0,-0.5"/>
<text text-anchor="start" x="8" y="-18.5" font-family="Helvetica,sans-Serif" font-size="10.00">shrapnel::ParameterUpdate</text>
<text text-anchor="middle" x="67" y="-7.5" font-family="Helvetica,sans-Serif" font-size="10.00">Notifier::update</text>
</a>
</g>
</g>
<!-- Node2 -->
<g id="node2" class="node">
<title>Node2</title>
<g id="a_node2"><a xlink:href="main_8cpp.html#a1a66099a9e1054494d0704363a5c8666" target="_top" xlink:title=" ">
<polygon fill="none" stroke="black" points="170,-6 170,-25 307,-25 307,-6 170,-6"/>
<text text-anchor="middle" x="238.5" y="-13" font-family="Helvetica,sans-Serif" font-size="10.00">audio_event_send_callback</text>
</a>
</g>
</g>
<!-- Node1&#45;&gt;Node2 -->
<g id="edge1" class="edge">
<title>Node1&#45;&gt;Node2</title>
<path fill="none" stroke="midnightblue" d="M134.02,-15.5C142.5,-15.5 151.25,-15.5 159.9,-15.5"/>
<polygon fill="midnightblue" stroke="midnightblue" points="159.99,-19 169.99,-15.5 159.99,-12 159.99,-19"/>
</g>
<!-- Node3 -->
<g id="node3" class="node">
<title>Node3</title>
<g id="a_node3"><a xlink:href="namespaceshrapnel.html#a9df539517dd9158cb2b42a9d9e948a73" target="_top" xlink:title=" ">
<polygon fill="none" stroke="black" points="343,-6 343,-25 474,-25 474,-6 343,-6"/>
<text text-anchor="middle" x="408.5" y="-13" font-family="Helvetica,sans-Serif" font-size="10.00">shrapnel::websocket_send</text>
</a>
</g>
</g>
<!-- Node2&#45;&gt;Node3 -->
<g id="edge2" class="edge">
<title>Node2&#45;&gt;Node3</title>
<path fill="none" stroke="midnightblue" d="M307.35,-15.5C315.7,-15.5 324.27,-15.5 332.72,-15.5"/>
<polygon fill="midnightblue" stroke="midnightblue" points="332.94,-19 342.94,-15.5 332.94,-12 332.94,-19"/>
</g>
<!-- Node4 -->
<g id="node4" class="node">
<title>Node4</title>
<g id="a_node4"><a xlink:href="namespaceshrapnel_1_1midi.html#a3ce92c675faa537c28f3f68743f0bf16" target="_top" xlink:title=" ">
<polygon fill="none" stroke="black" points="510,-6 510,-25 622,-25 622,-6 510,-6"/>
<text text-anchor="middle" x="566" y="-13" font-family="Helvetica,sans-Serif" font-size="10.00">shrapnel::midi::to_json</text>
</a>
</g>
</g>
<!-- Node3&#45;&gt;Node4 -->
<g id="edge3" class="edge">
<title>Node3&#45;&gt;Node4</title>
<path fill="none" stroke="midnightblue" d="M474.1,-15.5C482.52,-15.5 491.16,-15.5 499.59,-15.5"/>
<polygon fill="midnightblue" stroke="midnightblue" points="499.76,-19 509.76,-15.5 499.76,-12 499.76,-19"/>
</g>
</g>
</svg>
