<?xml version="1.0" encoding="UTF-8" standalone="no"?>
<!DOCTYPE svg PUBLIC "-//W3C//DTD SVG 1.1//EN"
 "http://www.w3.org/Graphics/SVG/1.1/DTD/svg11.dtd">
<!-- Generated by graphviz version 3.0.0 (20221109.1736)
 -->
<!-- Title: shrapnel::effect::valvestate::Valvestate::process Pages: 1 -->
<svg width="450pt" height="225pt"
 viewBox="0.00 0.00 450.00 225.00" xmlns="http://www.w3.org/2000/svg" xmlns:xlink="http://www.w3.org/1999/xlink">
<g id="graph0" class="graph" transform="scale(1 1) rotate(0) translate(4 221)">
<title>shrapnel::effect::valvestate::Valvestate::process</title>
<!-- Node1 -->
<g id="node1" class="node">
<title>Node1</title>
<g id="a_node1"><a xlink:title=" ">
<polygon fill="#bfbfbf" stroke="black" points="0,-98.5 0,-128.5 131,-128.5 131,-98.5 0,-98.5"/>
<text text-anchor="start" x="8" y="-116.5" font-family="Helvetica,sans-Serif" font-size="10.00">shrapnel::effect::valvestate</text>
<text text-anchor="middle" x="65.5" y="-105.5" font-family="Helvetica,sans-Serif" font-size="10.00">::Valvestate::process</text>
</a>
</g>
</g>
<!-- Node2 -->
<g id="node2" class="node">
<title>Node2</title>
<g id="a_node2"><a xlink:href="classshrapnel_1_1effect_1_1valvestate_1_1Clipping.html#acaff86b907d11504a3a3f7acba658674" target="_top" xlink:title=" ">
<polygon fill="none" stroke="black" points="167,-186.5 167,-216.5 298,-216.5 298,-186.5 167,-186.5"/>
<text text-anchor="start" x="175" y="-204.5" font-family="Helvetica,sans-Serif" font-size="10.00">shrapnel::effect::valvestate</text>
<text text-anchor="middle" x="232.5" y="-193.5" font-family="Helvetica,sans-Serif" font-size="10.00">::Clipping::process</text>
</a>
</g>
</g>
<!-- Node1&#45;&gt;Node2 -->
<g id="edge1" class="edge">
<title>Node1&#45;&gt;Node2</title>
<path fill="none" stroke="midnightblue" d="M88.15,-128.76C108.04,-142.37 138.65,-162.28 167,-176.5 171.03,-178.52 175.27,-180.49 179.57,-182.38"/>
<polygon fill="midnightblue" stroke="midnightblue" points="178.44,-185.7 189.02,-186.36 181.16,-179.25 178.44,-185.7"/>
</g>
<!-- Node4 -->
<g id="node4" class="node">
<title>Node4</title>
<g id="a_node4"><a xlink:href="classContourFilter.html#af730f92633ec29b43ebf57b724383d3d" target="_top" xlink:title=" ">
<polygon fill="none" stroke="black" points="177,-148 177,-167 288,-167 288,-148 177,-148"/>
<text text-anchor="middle" x="232.5" y="-155" font-family="Helvetica,sans-Serif" font-size="10.00">ContourFilter::process</text>
</a>
</g>
</g>
<!-- Node1&#45;&gt;Node4 -->
<g id="edge3" class="edge">
<title>Node1&#45;&gt;Node4</title>
<path fill="none" stroke="midnightblue" d="M122.82,-128.52C143.33,-133.99 166.25,-140.1 185.74,-145.3"/>
<polygon fill="midnightblue" stroke="midnightblue" points="185.02,-148.73 195.58,-147.92 186.82,-141.96 185.02,-148.73"/>
</g>
<!-- Node6 -->
<g id="node6" class="node">
<title>Node6</title>
<g id="a_node6"><a xlink:href="classshrapnel_1_1effect_1_1valvestate_1_1FMVFilter.html#aa8dd5942773e2395ab26943bdab43a8b" target="_top" xlink:title=" ">
<polygon fill="none" stroke="black" points="167,-98.5 167,-128.5 298,-128.5 298,-98.5 167,-98.5"/>
<text text-anchor="start" x="175" y="-116.5" font-family="Helvetica,sans-Serif" font-size="10.00">shrapnel::effect::valvestate</text>
<text text-anchor="middle" x="232.5" y="-105.5" font-family="Helvetica,sans-Serif" font-size="10.00">::FMVFilter::process</text>
</a>
</g>
</g>
<!-- Node1&#45;&gt;Node6 -->
<g id="edge5" class="edge">
<title>Node1&#45;&gt;Node6</title>
<path fill="none" stroke="midnightblue" d="M131.24,-113.5C139.58,-113.5 148.18,-113.5 156.67,-113.5"/>
<polygon fill="midnightblue" stroke="midnightblue" points="156.95,-117 166.95,-113.5 156.95,-110 156.95,-117"/>
</g>
<!-- Node7 -->
<g id="node7" class="node">
<title>Node7</title>
<g id="a_node7"><a xlink:href="classshrapnel_1_1effect_1_1valvestate_1_1GainControl.html#afda20aeb86df7b9154107f5c94e08096" target="_top" xlink:title=" ">
<polygon fill="none" stroke="black" points="167,-49.5 167,-79.5 298,-79.5 298,-49.5 167,-49.5"/>
<text text-anchor="start" x="175" y="-67.5" font-family="Helvetica,sans-Serif" font-size="10.00">shrapnel::effect::valvestate</text>
<text text-anchor="middle" x="232.5" y="-56.5" font-family="Helvetica,sans-Serif" font-size="10.00">::GainControl::process</text>
</a>
</g>
</g>
<!-- Node1&#45;&gt;Node7 -->
<g id="edge7" class="edge">
<title>Node1&#45;&gt;Node7</title>
<path fill="none" stroke="midnightblue" d="M117.35,-98.4C134.37,-93.34 153.5,-87.66 171.17,-82.42"/>
<polygon fill="midnightblue" stroke="midnightblue" points="172.23,-85.75 180.82,-79.55 170.23,-79.04 172.23,-85.75"/>
</g>
<!-- Node8 -->
<g id="node8" class="node">
<title>Node8</title>
<g id="a_node8"><a xlink:href="classshrapnel_1_1effect_1_1valvestate_1_1InputFilter.html#a7a43ef10c105e8ff5fc6294ebf8a0a71" target="_top" xlink:title=" ">
<polygon fill="none" stroke="black" points="167,-0.5 167,-30.5 298,-30.5 298,-0.5 167,-0.5"/>
<text text-anchor="start" x="175" y="-18.5" font-family="Helvetica,sans-Serif" font-size="10.00">shrapnel::effect::valvestate</text>
<text text-anchor="middle" x="232.5" y="-7.5" font-family="Helvetica,sans-Serif" font-size="10.00">::InputFilter::process</text>
</a>
</g>
</g>
<!-- Node1&#45;&gt;Node8 -->
<g id="edge9" class="edge">
<title>Node1&#45;&gt;Node8</title>
<path fill="none" stroke="midnightblue" d="M84,-98.24C103.29,-82.01 135.74,-56.39 167,-39.5 170.09,-37.83 173.32,-36.23 176.62,-34.7"/>
<polygon fill="midnightblue" stroke="midnightblue" points="178.27,-37.8 186.03,-30.59 175.47,-31.38 178.27,-37.8"/>
</g>
<!-- Node3 -->
<g id="node3" class="node">
<title>Node3</title>
<g id="a_node3"><a xlink:href="wave__shape_8cpp.html#a737ee48b7321d3c9c5fb0c49bc6f14af" target="_top" xlink:title=" ">
<polygon fill="none" stroke="black" points="355,-192 355,-211 421,-211 421,-192 355,-192"/>
<text text-anchor="middle" x="388" y="-199" font-family="Helvetica,sans-Serif" font-size="10.00">waveshape</text>
</a>
</g>
</g>
<!-- Node2&#45;&gt;Node3 -->
<g id="edge2" class="edge">
<title>Node2&#45;&gt;Node3</title>
<path fill="none" stroke="midnightblue" d="M298.15,-201.5C313.84,-201.5 330.23,-201.5 344.59,-201.5"/>
<polygon fill="midnightblue" stroke="midnightblue" points="344.65,-205 354.65,-201.5 344.65,-198 344.65,-205"/>
</g>
<!-- Node5 -->
<g id="node5" class="node">
<title>Node5</title>
<g id="a_node5"><a xlink:href="classshrapnel_1_1dsp_1_1IirFilter.html#a53cb5a72d2a310cd4b35d4329af682f0" target="_top" xlink:title=" ">
<polygon fill="none" stroke="black" points="334,-74.5 334,-104.5 442,-104.5 442,-74.5 334,-74.5"/>
<text text-anchor="start" x="342" y="-92.5" font-family="Helvetica,sans-Serif" font-size="10.00">shrapnel::dsp::IirFilter</text>
<text text-anchor="middle" x="388" y="-81.5" font-family="Helvetica,sans-Serif" font-size="10.00">::process</text>
</a>
</g>
</g>
<!-- Node4&#45;&gt;Node5 -->
<g id="edge4" class="edge">
<title>Node4&#45;&gt;Node5</title>
<path fill="none" stroke="midnightblue" d="M271.16,-147.9C280.09,-145.22 289.49,-142.05 298,-138.5 317.23,-130.48 337.67,-119.43 354.1,-109.85"/>
<polygon fill="midnightblue" stroke="midnightblue" points="355.96,-112.82 362.78,-104.71 352.39,-106.8 355.96,-112.82"/>
</g>
<!-- Node6&#45;&gt;Node5 -->
<g id="edge6" class="edge">
<title>Node6&#45;&gt;Node5</title>
<path fill="none" stroke="midnightblue" d="M298.15,-103.39C306.54,-102.08 315.13,-100.74 323.5,-99.43"/>
<polygon fill="midnightblue" stroke="midnightblue" points="324.23,-102.86 333.57,-97.85 323.15,-95.94 324.23,-102.86"/>
</g>
<!-- Node7&#45;&gt;Node5 -->
<g id="edge8" class="edge">
<title>Node7&#45;&gt;Node5</title>
<path fill="none" stroke="midnightblue" d="M298.15,-75.03C306.54,-76.4 315.13,-77.79 323.5,-79.16"/>
<polygon fill="midnightblue" stroke="midnightblue" points="323.14,-82.64 333.57,-80.8 324.26,-75.74 323.14,-82.64"/>
</g>
<!-- Node8&#45;&gt;Node5 -->
<g id="edge10" class="edge">
<title>Node8&#45;&gt;Node5</title>
<path fill="none" stroke="midnightblue" d="M276.9,-30.59C284.03,-33.37 291.28,-36.38 298,-39.5 316.99,-48.3 337.41,-59.63 353.89,-69.27"/>
<polygon fill="midnightblue" stroke="midnightblue" points="352.22,-72.35 362.61,-74.43 355.78,-66.33 352.22,-72.35"/>
</g>
</g>
</svg>
