<?xml version="1.0" encoding="UTF-8" standalone="no"?>
<!DOCTYPE svg PUBLIC "-//W3C//DTD SVG 1.1//EN"
 "http://www.w3.org/Graphics/SVG/1.1/DTD/svg11.dtd">
<!-- Generated by graphviz version 3.0.0 (20221109.1736)
 -->
<!-- Title: shrapnel::effect::Chorus::prepare Pages: 1 -->
<svg width="433pt" height="78pt"
 viewBox="0.00 0.00 433.00 77.50" xmlns="http://www.w3.org/2000/svg" xmlns:xlink="http://www.w3.org/1999/xlink">
<g id="graph0" class="graph" transform="scale(1 1) rotate(0) translate(4 73.5)">
<title>shrapnel::effect::Chorus::prepare</title>
<!-- Node1 -->
<g id="node1" class="node">
<title>Node1</title>
<g id="a_node1"><a xlink:title=" ">
<polygon fill="#bfbfbf" stroke="black" points="0,-22.5 0,-52.5 117,-52.5 117,-22.5 0,-22.5"/>
<text text-anchor="start" x="8" y="-40.5" font-family="Helvetica,sans-Serif" font-size="10.00">shrapnel::effect::Chorus</text>
<text text-anchor="middle" x="58.5" y="-29.5" font-family="Helvetica,sans-Serif" font-size="10.00">::prepare</text>
</a>
</g>
</g>
<!-- Node2 -->
<g id="node2" class="node">
<title>Node2</title>
<g id="a_node2"><a xlink:href="delayline__c_8cpp.html#aa3ea43e1dcd855cb482ee8d7e4c6b950" target="_top" xlink:title=" ">
<polygon fill="none" stroke="black" points="154,-50 154,-69 269,-69 269,-50 154,-50"/>
<text text-anchor="middle" x="211.5" y="-57" font-family="Helvetica,sans-Serif" font-size="10.00">dspal_delayline_create</text>
</a>
</g>
</g>
<!-- Node1&#45;&gt;Node2 -->
<g id="edge1" class="edge">
<title>Node1&#45;&gt;Node2</title>
<path fill="none" stroke="midnightblue" d="M117.02,-45.88C125.74,-47.15 134.8,-48.47 143.69,-49.77"/>
<polygon fill="midnightblue" stroke="midnightblue" points="143.24,-53.24 153.64,-51.22 144.25,-46.31 143.24,-53.24"/>
</g>
<!-- Node3 -->
<g id="node3" class="node">
<title>Node3</title>
<g id="a_node3"><a xlink:href="classshrapnel_1_1effect_1_1Chorus.html#ae7bd524a7510e0236cdbfc4eda860fd7" target="_top" xlink:title=" ">
<polygon fill="none" stroke="black" points="153,-0.5 153,-30.5 270,-30.5 270,-0.5 153,-0.5"/>
<text text-anchor="start" x="161" y="-18.5" font-family="Helvetica,sans-Serif" font-size="10.00">shrapnel::effect::Chorus</text>
<text text-anchor="middle" x="211.5" y="-7.5" font-family="Helvetica,sans-Serif" font-size="10.00">::reset</text>
</a>
</g>
</g>
<!-- Node1&#45;&gt;Node3 -->
<g id="edge2" class="edge">
<title>Node1&#45;&gt;Node3</title>
<path fill="none" stroke="midnightblue" d="M117.02,-29.12C125.46,-27.89 134.23,-26.61 142.86,-25.36"/>
<polygon fill="midnightblue" stroke="midnightblue" points="143.5,-28.8 152.89,-23.89 142.49,-21.87 143.5,-28.8"/>
</g>
<!-- Node4 -->
<g id="node4" class="node">
<title>Node4</title>
<g id="a_node4"><a xlink:href="delayline__c_8cpp.html#a91d55c2a92525ad8f7614885e9d9fb54" target="_top" xlink:title=" ">
<polygon fill="none" stroke="black" points="306,-6 306,-25 425,-25 425,-6 306,-6"/>
<text text-anchor="middle" x="365.5" y="-13" font-family="Helvetica,sans-Serif" font-size="10.00">dspal_delayline_destroy</text>
</a>
</g>
</g>
<!-- Node3&#45;&gt;Node4 -->
<g id="edge3" class="edge">
<title>Node3&#45;&gt;Node4</title>
<path fill="none" stroke="midnightblue" d="M270.4,-15.5C278.63,-15.5 287.16,-15.5 295.58,-15.5"/>
<polygon fill="midnightblue" stroke="midnightblue" points="295.75,-19 305.75,-15.5 295.75,-12 295.75,-19"/>
</g>
</g>
</svg>
