<?xml version="1.0" encoding="UTF-8" standalone="no"?>
<!DOCTYPE svg PUBLIC "-//W3C//DTD SVG 1.1//EN"
 "http://www.w3.org/Graphics/SVG/1.1/DTD/svg11.dtd">
<!-- Generated by graphviz version 3.0.0 (20221109.1736)
 -->
<!-- Title: shrapnel::dsp::IirFilter::process Pages: 1 -->
<svg width="450pt" height="268pt"
 viewBox="0.00 0.00 450.00 268.00" xmlns="http://www.w3.org/2000/svg" xmlns:xlink="http://www.w3.org/1999/xlink">
<g id="graph0" class="graph" transform="scale(1 1) rotate(0) translate(4 264)">
<title>shrapnel::dsp::IirFilter::process</title>
<!-- Node1 -->
<g id="node1" class="node">
<title>Node1</title>
<g id="a_node1"><a xlink:title=" ">
<polygon fill="#bfbfbf" stroke="black" points="334,-122.5 334,-152.5 442,-152.5 442,-122.5 334,-122.5"/>
<text text-anchor="start" x="342" y="-140.5" font-family="Helvetica,sans-Serif" font-size="10.00">shrapnel::dsp::IirFilter</text>
<text text-anchor="middle" x="388" y="-129.5" font-family="Helvetica,sans-Serif" font-size="10.00">::process</text>
</a>
</g>
</g>
<!-- Node2 -->
<g id="node2" class="node">
<title>Node2</title>
<g id="a_node2"><a xlink:href="noise__gate_8cpp.html#a129b18f80393706faa5a453417153a51" target="_top" xlink:title="Analyse the audio.">
<polygon fill="none" stroke="black" points="195.5,-235 195.5,-254 269.5,-254 269.5,-235 195.5,-235"/>
<text text-anchor="middle" x="232.5" y="-242" font-family="Helvetica,sans-Serif" font-size="10.00">gate_analyse</text>
</a>
</g>
</g>
<!-- Node1&#45;&gt;Node2 -->
<g id="edge1" class="edge">
<title>Node1&#45;&gt;Node2</title>
<path fill="none" stroke="midnightblue" d="M369.32,-160.52C352.87,-180.43 326.66,-208.59 298,-225.5 289.35,-230.6 279.24,-234.42 269.62,-237.24"/>
<polygon fill="midnightblue" stroke="midnightblue" points="372.19,-162.53 375.74,-152.55 366.74,-158.14 372.19,-162.53"/>
</g>
<!-- Node4 -->
<g id="node4" class="node">
<title>Node4</title>
<g id="a_node4"><a xlink:href="classContourFilter.html#af730f92633ec29b43ebf57b724383d3d" target="_top" xlink:title=" ">
<polygon fill="none" stroke="black" points="177,-197 177,-216 288,-216 288,-197 177,-197"/>
<text text-anchor="middle" x="232.5" y="-204" font-family="Helvetica,sans-Serif" font-size="10.00">ContourFilter::process</text>
</a>
</g>
</g>
<!-- Node1&#45;&gt;Node4 -->
<g id="edge3" class="edge">
<title>Node1&#45;&gt;Node4</title>
<path fill="none" stroke="midnightblue" d="M354.85,-157.89C338.31,-167.77 317.56,-179.25 298,-187.5 289.5,-191.08 280.11,-194.27 271.18,-196.95"/>
<polygon fill="midnightblue" stroke="midnightblue" points="356.83,-160.78 363.57,-152.6 353.2,-154.79 356.83,-160.78"/>
</g>
<!-- Node6 -->
<g id="node6" class="node">
<title>Node6</title>
<g id="a_node6"><a xlink:href="classshrapnel_1_1effect_1_1valvestate_1_1FMVFilter.html#aa8dd5942773e2395ab26943bdab43a8b" target="_top" xlink:title=" ">
<polygon fill="none" stroke="black" points="167,-147.5 167,-177.5 298,-177.5 298,-147.5 167,-147.5"/>
<text text-anchor="start" x="175" y="-165.5" font-family="Helvetica,sans-Serif" font-size="10.00">shrapnel::effect::valvestate</text>
<text text-anchor="middle" x="232.5" y="-154.5" font-family="Helvetica,sans-Serif" font-size="10.00">::FMVFilter::process</text>
</a>
</g>
</g>
<!-- Node1&#45;&gt;Node6 -->
<g id="edge5" class="edge">
<title>Node1&#45;&gt;Node6</title>
<path fill="none" stroke="midnightblue" d="M323.87,-147.78C315.34,-149.17 306.58,-150.6 298.03,-151.99"/>
<polygon fill="midnightblue" stroke="midnightblue" points="324.44,-151.24 333.74,-146.17 323.31,-144.33 324.44,-151.24"/>
</g>
<!-- Node7 -->
<g id="node7" class="node">
<title>Node7</title>
<g id="a_node7"><a xlink:href="classshrapnel_1_1effect_1_1valvestate_1_1GainControl.html#afda20aeb86df7b9154107f5c94e08096" target="_top" xlink:title=" ">
<polygon fill="none" stroke="black" points="167,-98.5 167,-128.5 298,-128.5 298,-98.5 167,-98.5"/>
<text text-anchor="start" x="175" y="-116.5" font-family="Helvetica,sans-Serif" font-size="10.00">shrapnel::effect::valvestate</text>
<text text-anchor="middle" x="232.5" y="-105.5" font-family="Helvetica,sans-Serif" font-size="10.00">::GainControl::process</text>
</a>
</g>
</g>
<!-- Node1&#45;&gt;Node7 -->
<g id="edge7" class="edge">
<title>Node1&#45;&gt;Node7</title>
<path fill="none" stroke="midnightblue" d="M323.59,-127.59C315.15,-126.27 306.49,-124.91 298.03,-123.59"/>
<polygon fill="midnightblue" stroke="midnightblue" points="323.32,-131.09 333.74,-129.17 324.4,-124.17 323.32,-131.09"/>
</g>
<!-- Node8 -->
<g id="node8" class="node">
<title>Node8</title>
<g id="a_node8"><a xlink:href="classshrapnel_1_1effect_1_1valvestate_1_1InputFilter.html#a7a43ef10c105e8ff5fc6294ebf8a0a71" target="_top" xlink:title=" ">
<polygon fill="none" stroke="black" points="167,-49.5 167,-79.5 298,-79.5 298,-49.5 167,-49.5"/>
<text text-anchor="start" x="175" y="-67.5" font-family="Helvetica,sans-Serif" font-size="10.00">shrapnel::effect::valvestate</text>
<text text-anchor="middle" x="232.5" y="-56.5" font-family="Helvetica,sans-Serif" font-size="10.00">::InputFilter::process</text>
</a>
</g>
</g>
<!-- Node1&#45;&gt;Node8 -->
<g id="edge9" class="edge">
<title>Node1&#45;&gt;Node8</title>
<path fill="none" stroke="midnightblue" d="M353.13,-117.32C336.77,-107.97 316.67,-97.06 298,-88.5 291.16,-85.36 283.78,-82.32 276.54,-79.51"/>
<polygon fill="midnightblue" stroke="midnightblue" points="351.4,-120.36 361.81,-122.33 354.9,-114.3 351.4,-120.36"/>
</g>
<!-- Node9 -->
<g id="node9" class="node">
<title>Node9</title>
<g id="a_node9"><a xlink:href="classshrapnel_1_1effect_1_1Wah.html#a57bf89e9aeb8cc03b6a02a0b7190a609" target="_top" xlink:title=" ">
<polygon fill="none" stroke="black" points="179.5,-0.5 179.5,-30.5 285.5,-30.5 285.5,-0.5 179.5,-0.5"/>
<text text-anchor="start" x="187.5" y="-18.5" font-family="Helvetica,sans-Serif" font-size="10.00">shrapnel::effect::Wah</text>
<text text-anchor="middle" x="232.5" y="-7.5" font-family="Helvetica,sans-Serif" font-size="10.00">::process</text>
</a>
</g>
</g>
<!-- Node1&#45;&gt;Node9 -->
<g id="edge11" class="edge">
<title>Node1&#45;&gt;Node9</title>
<path fill="none" stroke="midnightblue" d="M371.09,-114.37C354.94,-92.42 328.08,-59.85 298,-39.5 293.05,-36.15 287.58,-33.2 281.97,-30.61"/>
<polygon fill="midnightblue" stroke="midnightblue" points="368.25,-116.42 376.94,-122.49 373.93,-112.33 368.25,-116.42"/>
</g>
<!-- Node3 -->
<g id="node3" class="node">
<title>Node3</title>
<g id="a_node3"><a xlink:href="classshrapnel_1_1AudioProcessor.html#a58ee6267bed11fd14aaf9a44627554e7" target="_top" xlink:title=" ">
<polygon fill="none" stroke="black" points="2,-229.5 2,-259.5 129,-259.5 129,-229.5 2,-229.5"/>
<text text-anchor="start" x="10" y="-247.5" font-family="Helvetica,sans-Serif" font-size="10.00">shrapnel::AudioProcessor</text>
<text text-anchor="middle" x="65.5" y="-236.5" font-family="Helvetica,sans-Serif" font-size="10.00">::process</text>
</a>
</g>
</g>
<!-- Node2&#45;&gt;Node3 -->
<g id="edge2" class="edge">
<title>Node2&#45;&gt;Node3</title>
<path fill="none" stroke="midnightblue" d="M184.9,-244.5C167.62,-244.5 147.72,-244.5 129.24,-244.5"/>
<polygon fill="midnightblue" stroke="midnightblue" points="185.29,-248 195.29,-244.5 185.29,-241 185.29,-248"/>
</g>
<!-- Node5 -->
<g id="node5" class="node">
<title>Node5</title>
<g id="a_node5"><a xlink:href="classshrapnel_1_1effect_1_1valvestate_1_1Valvestate.html#a1fcf300d34e8e93ecbfa3df9a5d4e60b" target="_top" xlink:title=" ">
<polygon fill="none" stroke="black" points="0,-123.5 0,-153.5 131,-153.5 131,-123.5 0,-123.5"/>
<text text-anchor="start" x="8" y="-141.5" font-family="Helvetica,sans-Serif" font-size="10.00">shrapnel::effect::valvestate</text>
<text text-anchor="middle" x="65.5" y="-130.5" font-family="Helvetica,sans-Serif" font-size="10.00">::Valvestate::process</text>
</a>
</g>
</g>
<!-- Node4&#45;&gt;Node5 -->
<g id="edge4" class="edge">
<title>Node4&#45;&gt;Node5</title>
<path fill="none" stroke="midnightblue" d="M185.54,-193.99C179.25,-191.98 172.93,-189.8 167,-187.5 141.66,-177.67 113.98,-163.94 94.1,-153.51"/>
<polygon fill="midnightblue" stroke="midnightblue" points="184.73,-197.4 195.32,-197 186.79,-190.71 184.73,-197.4"/>
</g>
<!-- Node6&#45;&gt;Node5 -->
<g id="edge6" class="edge">
<title>Node6&#45;&gt;Node5</title>
<path fill="none" stroke="midnightblue" d="M156.76,-151.63C148.18,-150.38 139.48,-149.12 131.05,-147.89"/>
<polygon fill="midnightblue" stroke="midnightblue" points="156.36,-155.11 166.76,-153.08 157.37,-148.18 156.36,-155.11"/>
</g>
<!-- Node7&#45;&gt;Node5 -->
<g id="edge8" class="edge">
<title>Node7&#45;&gt;Node5</title>
<path fill="none" stroke="midnightblue" d="M156.76,-124.82C148.18,-126.12 139.48,-127.44 131.05,-128.72"/>
<polygon fill="midnightblue" stroke="midnightblue" points="157.4,-128.27 166.76,-123.31 156.35,-121.35 157.4,-128.27"/>
</g>
<!-- Node8&#45;&gt;Node5 -->
<g id="edge10" class="edge">
<title>Node8&#45;&gt;Node5</title>
<path fill="none" stroke="midnightblue" d="M179.56,-83.28C175.29,-84.99 171.06,-86.74 167,-88.5 142.15,-99.27 114.65,-113.09 94.71,-123.46"/>
<polygon fill="midnightblue" stroke="midnightblue" points="180.88,-86.52 188.92,-79.62 178.33,-80 180.88,-86.52"/>
</g>
</g>
</svg>
