<?xml version="1.0" encoding="UTF-8" standalone="no"?>
<!DOCTYPE svg PUBLIC "-//W3C//DTD SVG 1.1//EN"
 "http://www.w3.org/Graphics/SVG/1.1/DTD/svg11.dtd">
<!-- Generated by graphviz version 3.0.0 (20221109.1736)
 -->
<!-- Title: shrapnel::parameters::AudioParameters&lt; MAX_PARAMETERS, MAX_OBSERVERS &gt; Pages: 1 -->
<svg width="390pt" height="88pt"
 viewBox="0.00 0.00 390.00 88.00" xmlns="http://www.w3.org/2000/svg" xmlns:xlink="http://www.w3.org/1999/xlink">
<g id="graph0" class="graph" transform="scale(1 1) rotate(0) translate(4 84)">
<title>shrapnel::parameters::AudioParameters&lt; MAX_PARAMETERS, MAX_OBSERVERS &gt;</title>
<!-- Node1 -->
<g id="node1" class="node">
<title>Node1</title>
<g id="a_node1"><a xlink:title=" ">
<polygon fill="#bfbfbf" stroke="black" points="193,-19 193,-60 382,-60 382,-19 193,-19"/>
<text text-anchor="start" x="201" y="-48" font-family="Helvetica,sans-Serif" font-size="10.00">shrapnel::parameters</text>
<text text-anchor="start" x="201" y="-37" font-family="Helvetica,sans-Serif" font-size="10.00">::AudioParameters&lt; MAX</text>
<text text-anchor="middle" x="287.5" y="-26" font-family="Helvetica,sans-Serif" font-size="10.00">_PARAMETERS, MAX_OBSERVERS &gt;</text>
</a>
</g>
</g>
<!-- Node2 -->
<g id="node2" class="node">
<title>Node2</title>
<g id="a_node2"><a xlink:title=" ">
<polygon fill="none" stroke="black" points="0,-49.5 0,-79.5 157,-79.5 157,-49.5 0,-49.5"/>
<text text-anchor="start" x="8" y="-67.5" font-family="Helvetica,sans-Serif" font-size="10.00">etl::observable&lt; Parameter</text>
<text text-anchor="middle" x="78.5" y="-56.5" font-family="Helvetica,sans-Serif" font-size="10.00">Observer, MAX_OBSERVERS &gt;</text>
</a>
</g>
</g>
<!-- Node2&#45;&gt;Node1 -->
<g id="edge1" class="edge">
<title>Node2&#45;&gt;Node1</title>
<path fill="none" stroke="midnightblue" d="M167.32,-53.89C175.71,-52.88 184.24,-51.85 192.68,-50.83"/>
<polygon fill="midnightblue" stroke="midnightblue" points="166.68,-50.45 157.17,-55.12 167.52,-57.4 166.68,-50.45"/>
</g>
<!-- Node3 -->
<g id="node3" class="node">
<title>Node3</title>
<g id="a_node3"><a xlink:href="classshrapnel_1_1parameters_1_1AudioParametersBase.html" target="_top" xlink:title=" ">
<polygon fill="none" stroke="black" points="19,-0.5 19,-30.5 138,-30.5 138,-0.5 19,-0.5"/>
<text text-anchor="start" x="27" y="-18.5" font-family="Helvetica,sans-Serif" font-size="10.00">shrapnel::parameters</text>
<text text-anchor="middle" x="78.5" y="-7.5" font-family="Helvetica,sans-Serif" font-size="10.00">::AudioParametersBase</text>
</a>
</g>
</g>
<!-- Node3&#45;&gt;Node1 -->
<g id="edge2" class="edge">
<title>Node3&#45;&gt;Node1</title>
<path fill="none" stroke="midnightblue" d="M148.42,-23.49C162.63,-25.14 177.82,-26.9 192.74,-28.63"/>
<polygon fill="midnightblue" stroke="midnightblue" points="148.6,-19.99 138.26,-22.31 147.79,-26.94 148.6,-19.99"/>
</g>
</g>
</svg>
