<?xml version="1.0" encoding="UTF-8" standalone="no"?>
<!DOCTYPE svg PUBLIC "-//W3C//DTD SVG 1.1//EN"
 "http://www.w3.org/Graphics/SVG/1.1/DTD/svg11.dtd">
<!-- Generated by graphviz version 3.0.0 (20221109.1736)
 -->
<!-- Title: shrapnel::effect::Chorus::process Pages: 1 -->
<svg width="270pt" height="137pt"
 viewBox="0.00 0.00 270.00 137.00" xmlns="http://www.w3.org/2000/svg" xmlns:xlink="http://www.w3.org/1999/xlink">
<g id="graph0" class="graph" transform="scale(1 1) rotate(0) translate(4 133)">
<title>shrapnel::effect::Chorus::process</title>
<!-- Node1 -->
<g id="node1" class="node">
<title>Node1</title>
<g id="a_node1"><a xlink:title=" ">
<polygon fill="#bfbfbf" stroke="black" points="0,-49.5 0,-79.5 117,-79.5 117,-49.5 0,-49.5"/>
<text text-anchor="start" x="8" y="-67.5" font-family="Helvetica,sans-Serif" font-size="10.00">shrapnel::effect::Chorus</text>
<text text-anchor="middle" x="58.5" y="-56.5" font-family="Helvetica,sans-Serif" font-size="10.00">::process</text>
</a>
</g>
</g>
<!-- Node2 -->
<g id="node2" class="node">
<title>Node2</title>
<g id="a_node2"><a xlink:href="delayline__c_8cpp.html#af68889c2abe22b30af482aaa5b41c621" target="_top" xlink:title=" ">
<polygon fill="none" stroke="black" points="155.5,-98.5 155.5,-128.5 259.5,-128.5 259.5,-98.5 155.5,-98.5"/>
<text text-anchor="start" x="163.5" y="-116.5" font-family="Helvetica,sans-Serif" font-size="10.00">dspal_delayline_pop</text>
<text text-anchor="middle" x="207.5" y="-105.5" font-family="Helvetica,sans-Serif" font-size="10.00">_sample</text>
</a>
</g>
</g>
<!-- Node1&#45;&gt;Node2 -->
<g id="edge1" class="edge">
<title>Node1&#45;&gt;Node2</title>
<path fill="none" stroke="midnightblue" d="M104.8,-79.6C119.54,-84.51 136.07,-90.02 151.44,-95.15"/>
<polygon fill="midnightblue" stroke="midnightblue" points="150.75,-98.61 161.35,-98.45 152.97,-91.97 150.75,-98.61"/>
</g>
<!-- Node3 -->
<g id="node3" class="node">
<title>Node3</title>
<g id="a_node3"><a xlink:href="delayline__c_8cpp.html#aa53306eedd2d18301f9295a7fb801c2e" target="_top" xlink:title=" ">
<polygon fill="none" stroke="black" points="153,-49.5 153,-79.5 262,-79.5 262,-49.5 153,-49.5"/>
<text text-anchor="start" x="161" y="-67.5" font-family="Helvetica,sans-Serif" font-size="10.00">dspal_delayline_push</text>
<text text-anchor="middle" x="207.5" y="-56.5" font-family="Helvetica,sans-Serif" font-size="10.00">_sample</text>
</a>
</g>
</g>
<!-- Node1&#45;&gt;Node3 -->
<g id="edge2" class="edge">
<title>Node1&#45;&gt;Node3</title>
<path fill="none" stroke="midnightblue" d="M117.18,-64.5C125.53,-64.5 134.16,-64.5 142.62,-64.5"/>
<polygon fill="midnightblue" stroke="midnightblue" points="142.83,-68 152.83,-64.5 142.83,-61 142.83,-68"/>
</g>
<!-- Node4 -->
<g id="node4" class="node">
<title>Node4</title>
<g id="a_node4"><a xlink:href="delayline__c_8cpp.html#a58e848033be861a7db4b0e00ce45e6d9" target="_top" xlink:title=" ">
<polygon fill="none" stroke="black" points="157,-0.5 157,-30.5 258,-30.5 258,-0.5 157,-0.5"/>
<text text-anchor="start" x="165" y="-18.5" font-family="Helvetica,sans-Serif" font-size="10.00">dspal_delayline_set</text>
<text text-anchor="middle" x="207.5" y="-7.5" font-family="Helvetica,sans-Serif" font-size="10.00">_delay</text>
</a>
</g>
</g>
<!-- Node1&#45;&gt;Node4 -->
<g id="edge3" class="edge">
<title>Node1&#45;&gt;Node4</title>
<path fill="none" stroke="midnightblue" d="M104.8,-49.4C119.54,-44.49 136.07,-38.98 151.44,-33.85"/>
<polygon fill="midnightblue" stroke="midnightblue" points="152.97,-37.03 161.35,-30.55 150.75,-30.39 152.97,-37.03"/>
</g>
</g>
</svg>
