<?xml version="1.0" encoding="UTF-8" standalone="no"?>
<!DOCTYPE svg PUBLIC "-//W3C//DTD SVG 1.1//EN"
 "http://www.w3.org/Graphics/SVG/1.1/DTD/svg11.dtd">
<!-- Generated by graphviz version 3.0.0 (20221109.1736)
 -->
<!-- Title: shrapnel::dsp::IirFilter::set_coefficients Pages: 1 -->
<svg width="837pt" height="264pt"
 viewBox="0.00 0.00 837.00 263.50" xmlns="http://www.w3.org/2000/svg" xmlns:xlink="http://www.w3.org/1999/xlink">
<g id="graph0" class="graph" transform="scale(1 1) rotate(0) translate(4 259.5)">
<title>shrapnel::dsp::IirFilter::set_coefficients</title>
<!-- Node1 -->
<g id="node1" class="node">
<title>Node1</title>
<g id="a_node1"><a xlink:title=" ">
<polygon fill="#bfbfbf" stroke="black" points="721,-119.5 721,-149.5 829,-149.5 829,-119.5 721,-119.5"/>
<text text-anchor="start" x="729" y="-137.5" font-family="Helvetica,sans-Serif" font-size="10.00">shrapnel::dsp::IirFilter</text>
<text text-anchor="middle" x="775" y="-126.5" font-family="Helvetica,sans-Serif" font-size="10.00">::set_coefficients</text>
</a>
</g>
</g>
<!-- Node2 -->
<g id="node2" class="node">
<title>Node2</title>
<g id="a_node2"><a xlink:href="noise__gate_8cpp.html#a2691256497a1cec4e14434f48eccfb56" target="_top" xlink:title="Set the sample rate in Hz.">
<polygon fill="none" stroke="black" points="556.5,-233 556.5,-252 669.5,-252 669.5,-233 556.5,-233"/>
<text text-anchor="middle" x="613" y="-240" font-family="Helvetica,sans-Serif" font-size="10.00">gate_set_sample_rate</text>
</a>
</g>
</g>
<!-- Node1&#45;&gt;Node2 -->
<g id="edge1" class="edge">
<title>Node1&#45;&gt;Node2</title>
<path fill="none" stroke="midnightblue" d="M755.08,-157.15C738.35,-175.89 712.41,-202.03 685,-218.5 674.96,-224.53 663.21,-229.29 652.18,-232.92"/>
<polygon fill="midnightblue" stroke="midnightblue" points="757.71,-159.45 761.66,-149.62 752.44,-154.84 757.71,-159.45"/>
</g>
<!-- Node7 -->
<g id="node7" class="node">
<title>Node7</title>
<g id="a_node7"><a xlink:href="classshrapnel_1_1effect_1_1valvestate_1_1InputFilter.html#ad5d84e0e19e8a3f4ec3058b217d69c6e" target="_top" xlink:title=" ">
<polygon fill="none" stroke="black" points="547.5,-178.5 547.5,-208.5 678.5,-208.5 678.5,-178.5 547.5,-178.5"/>
<text text-anchor="start" x="555.5" y="-196.5" font-family="Helvetica,sans-Serif" font-size="10.00">shrapnel::effect::valvestate</text>
<text text-anchor="middle" x="613" y="-185.5" font-family="Helvetica,sans-Serif" font-size="10.00">::InputFilter::prepare</text>
</a>
</g>
</g>
<!-- Node1&#45;&gt;Node7 -->
<g id="edge6" class="edge">
<title>Node1&#45;&gt;Node7</title>
<path fill="none" stroke="midnightblue" d="M723.62,-153.08C701.42,-161.27 675.67,-170.76 654.71,-178.49"/>
<polygon fill="midnightblue" stroke="midnightblue" points="725.04,-156.28 733.21,-149.54 722.62,-149.72 725.04,-156.28"/>
</g>
<!-- Node9 -->
<g id="node9" class="node">
<title>Node9</title>
<g id="a_node9"><a xlink:href="classContourFilter.html#a882a98cba62c5082d3afa3ebc828fe65" target="_top" xlink:title=" ">
<polygon fill="none" stroke="black" points="568,-119.5 568,-149.5 658,-149.5 658,-119.5 568,-119.5"/>
<text text-anchor="start" x="576" y="-137.5" font-family="Helvetica,sans-Serif" font-size="10.00">ContourFilter::set</text>
<text text-anchor="middle" x="613" y="-126.5" font-family="Helvetica,sans-Serif" font-size="10.00">_parameter</text>
</a>
</g>
</g>
<!-- Node1&#45;&gt;Node9 -->
<g id="edge8" class="edge">
<title>Node1&#45;&gt;Node9</title>
<path fill="none" stroke="midnightblue" d="M710.56,-134.5C693.04,-134.5 674.42,-134.5 658.25,-134.5"/>
<polygon fill="midnightblue" stroke="midnightblue" points="710.72,-138 720.72,-134.5 710.72,-131 710.72,-138"/>
</g>
<!-- Node12 -->
<g id="node12" class="node">
<title>Node12</title>
<g id="a_node12"><a xlink:href="classshrapnel_1_1effect_1_1valvestate_1_1GainControl.html#a21755e85c7ea233796c12d6c485f4b75" target="_top" xlink:title=" ">
<polygon fill="none" stroke="black" points="541,-51.5 541,-81.5 685,-81.5 685,-51.5 541,-51.5"/>
<text text-anchor="start" x="549" y="-69.5" font-family="Helvetica,sans-Serif" font-size="10.00">shrapnel::effect::valvestate</text>
<text text-anchor="middle" x="613" y="-58.5" font-family="Helvetica,sans-Serif" font-size="10.00">::GainControl::set_parameters</text>
</a>
</g>
</g>
<!-- Node1&#45;&gt;Node12 -->
<g id="edge11" class="edge">
<title>Node1&#45;&gt;Node12</title>
<path fill="none" stroke="midnightblue" d="M729.14,-115.43C703.93,-104.72 672.9,-91.53 649.41,-81.55"/>
<polygon fill="midnightblue" stroke="midnightblue" points="727.92,-118.72 738.49,-119.41 730.66,-112.28 727.92,-118.72"/>
</g>
<!-- Node14 -->
<g id="node14" class="node">
<title>Node14</title>
<g id="a_node14"><a xlink:href="classshrapnel_1_1effect_1_1valvestate_1_1FMVFilter.html#a98ef2d50b4b3529f4154b2f46900c3cf" target="_top" xlink:title=" ">
<polygon fill="none" stroke="black" points="545,-2.5 545,-32.5 681,-32.5 681,-2.5 545,-2.5"/>
<text text-anchor="start" x="553" y="-20.5" font-family="Helvetica,sans-Serif" font-size="10.00">shrapnel::effect::valvestate</text>
<text text-anchor="middle" x="613" y="-9.5" font-family="Helvetica,sans-Serif" font-size="10.00">::FMVFilter::set_parameters</text>
</a>
</g>
</g>
<!-- Node1&#45;&gt;Node14 -->
<g id="edge13" class="edge">
<title>Node1&#45;&gt;Node14</title>
<path fill="none" stroke="midnightblue" d="M757.2,-111.41C740.88,-90.49 714.33,-60.16 685,-41.5 679.73,-38.15 673.94,-35.21 668.01,-32.65"/>
<polygon fill="midnightblue" stroke="midnightblue" points="754.49,-113.63 763.34,-119.46 760.06,-109.39 754.49,-113.63"/>
</g>
<!-- Node3 -->
<g id="node3" class="node">
<title>Node3</title>
<g id="a_node3"><a xlink:href="process_8cpp.html#a159f752dbd8aa42d765e604910814129" target="_top" xlink:title=" ">
<polygon fill="none" stroke="black" points="404.5,-236 404.5,-255 473.5,-255 473.5,-236 404.5,-236"/>
<text text-anchor="middle" x="439" y="-243" font-family="Helvetica,sans-Serif" font-size="10.00">process_init</text>
</a>
</g>
</g>
<!-- Node2&#45;&gt;Node3 -->
<g id="edge2" class="edge">
<title>Node2&#45;&gt;Node3</title>
<path fill="none" stroke="midnightblue" d="M546.07,-243.65C521.28,-244.08 494.14,-244.56 473.52,-244.92"/>
<polygon fill="midnightblue" stroke="midnightblue" points="546.22,-247.15 556.16,-243.47 546.1,-240.15 546.22,-247.15"/>
</g>
<!-- Node4 -->
<g id="node4" class="node">
<title>Node4</title>
<g id="a_node4"><a xlink:href="i2s_8cpp.html#a4e37f563a34c1a559515cc40782caf07" target="_top" xlink:title=" ">
<polygon fill="none" stroke="black" points="231,-236 231,-255 337,-255 337,-236 231,-236"/>
<text text-anchor="middle" x="284" y="-243" font-family="Helvetica,sans-Serif" font-size="10.00">i2s_processing_task</text>
</a>
</g>
</g>
<!-- Node3&#45;&gt;Node4 -->
<g id="edge3" class="edge">
<title>Node3&#45;&gt;Node4</title>
<path fill="none" stroke="midnightblue" d="M394.31,-245.5C376.49,-245.5 355.75,-245.5 337.15,-245.5"/>
<polygon fill="midnightblue" stroke="midnightblue" points="394.42,-249 404.42,-245.5 394.42,-242 394.42,-249"/>
</g>
<!-- Node5 -->
<g id="node5" class="node">
<title>Node5</title>
<g id="a_node5"><a xlink:href="i2s_8cpp.html#a445c7079217d08d4767549802dade8a0" target="_top" xlink:title=" ">
<polygon fill="none" stroke="black" points="136,-236 136,-255 195,-255 195,-236 136,-236"/>
<text text-anchor="middle" x="165.5" y="-243" font-family="Helvetica,sans-Serif" font-size="10.00">i2s_setup</text>
</a>
</g>
</g>
<!-- Node4&#45;&gt;Node5 -->
<g id="edge4" class="edge">
<title>Node4&#45;&gt;Node5</title>
<path fill="none" stroke="midnightblue" d="M220.81,-245.5C211.89,-245.5 203.1,-245.5 195.27,-245.5"/>
<polygon fill="midnightblue" stroke="midnightblue" points="220.88,-249 230.88,-245.5 220.88,-242 220.88,-249"/>
</g>
<!-- Node6 -->
<g id="node6" class="node">
<title>Node6</title>
<g id="a_node6"><a xlink:href="namespaceshrapnel.html#a9f09f4ea750643310af9143a53735b7d" target="_top" xlink:title=" ">
<polygon fill="none" stroke="black" points="0,-236 0,-255 100,-255 100,-236 0,-236"/>
<text text-anchor="middle" x="50" y="-243" font-family="Helvetica,sans-Serif" font-size="10.00">shrapnel::app_main</text>
</a>
</g>
</g>
<!-- Node5&#45;&gt;Node6 -->
<g id="edge5" class="edge">
<title>Node5&#45;&gt;Node6</title>
<path fill="none" stroke="midnightblue" d="M125.85,-245.5C117.66,-245.5 108.91,-245.5 100.39,-245.5"/>
<polygon fill="midnightblue" stroke="midnightblue" points="125.86,-249 135.86,-245.5 125.86,-242 125.86,-249"/>
</g>
<!-- Node8 -->
<g id="node8" class="node">
<title>Node8</title>
<g id="a_node8"><a xlink:href="classshrapnel_1_1effect_1_1valvestate_1_1Valvestate.html#a42f2f6749648daf577cb40bf85564494" target="_top" xlink:title=" ">
<polygon fill="none" stroke="black" points="373.5,-186.5 373.5,-216.5 504.5,-216.5 504.5,-186.5 373.5,-186.5"/>
<text text-anchor="start" x="381.5" y="-204.5" font-family="Helvetica,sans-Serif" font-size="10.00">shrapnel::effect::valvestate</text>
<text text-anchor="middle" x="439" y="-193.5" font-family="Helvetica,sans-Serif" font-size="10.00">::Valvestate::prepare</text>
</a>
</g>
</g>
<!-- Node7&#45;&gt;Node8 -->
<g id="edge7" class="edge">
<title>Node7&#45;&gt;Node8</title>
<path fill="none" stroke="midnightblue" d="M537.16,-196.98C526.32,-197.49 515.23,-198 504.61,-198.49"/>
<polygon fill="midnightblue" stroke="midnightblue" points="537.64,-200.46 547.46,-196.5 537.31,-193.47 537.64,-200.46"/>
</g>
<!-- Node10 -->
<g id="node10" class="node">
<title>Node10</title>
<g id="a_node10"><a xlink:href="classContourFilter.html#af4486d2fb4e9beb086f2b11b5f48d111" target="_top" xlink:title=" ">
<polygon fill="none" stroke="black" points="373,-148 373,-167 505,-167 505,-148 373,-148"/>
<text text-anchor="middle" x="439" y="-155" font-family="Helvetica,sans-Serif" font-size="10.00">ContourFilter::ContourFilter</text>
</a>
</g>
</g>
<!-- Node9&#45;&gt;Node10 -->
<g id="edge9" class="edge">
<title>Node9&#45;&gt;Node10</title>
<path fill="none" stroke="midnightblue" d="M557.61,-141.77C540.98,-144 522.51,-146.47 505.23,-148.78"/>
<polygon fill="midnightblue" stroke="midnightblue" points="558.26,-145.22 567.71,-140.42 557.33,-138.28 558.26,-145.22"/>
</g>
<!-- Node11 -->
<g id="node11" class="node">
<title>Node11</title>
<g id="a_node11"><a xlink:href="classshrapnel_1_1effect_1_1valvestate_1_1Valvestate.html#a000102bdfca76953f1c7f6e2f6a11d8e" target="_top" xlink:title=" ">
<polygon fill="none" stroke="black" points="373.5,-98.5 373.5,-128.5 504.5,-128.5 504.5,-98.5 373.5,-98.5"/>
<text text-anchor="start" x="381.5" y="-116.5" font-family="Helvetica,sans-Serif" font-size="10.00">shrapnel::effect::valvestate</text>
<text text-anchor="middle" x="439" y="-105.5" font-family="Helvetica,sans-Serif" font-size="10.00">::Valvestate::set_contour</text>
</a>
</g>
</g>
<!-- Node9&#45;&gt;Node11 -->
<g id="edge10" class="edge">
<title>Node9&#45;&gt;Node11</title>
<path fill="none" stroke="midnightblue" d="M557.5,-127.85C540.69,-125.79 522,-123.51 504.58,-121.38"/>
<polygon fill="midnightblue" stroke="midnightblue" points="557.36,-131.35 567.71,-129.09 558.2,-124.41 557.36,-131.35"/>
</g>
<!-- Node13 -->
<g id="node13" class="node">
<title>Node13</title>
<g id="a_node13"><a xlink:href="classshrapnel_1_1effect_1_1valvestate_1_1Valvestate.html#a813c3b0d5212e73dd829859c0ada1073" target="_top" xlink:title=" ">
<polygon fill="none" stroke="black" points="373.5,-49.5 373.5,-79.5 504.5,-79.5 504.5,-49.5 373.5,-49.5"/>
<text text-anchor="start" x="381.5" y="-67.5" font-family="Helvetica,sans-Serif" font-size="10.00">shrapnel::effect::valvestate</text>
<text text-anchor="middle" x="439" y="-56.5" font-family="Helvetica,sans-Serif" font-size="10.00">::Valvestate::set_gain</text>
</a>
</g>
</g>
<!-- Node12&#45;&gt;Node13 -->
<g id="edge12" class="edge">
<title>Node12&#45;&gt;Node13</title>
<path fill="none" stroke="midnightblue" d="M530.43,-65.55C521.78,-65.45 513.06,-65.35 504.63,-65.25"/>
<polygon fill="midnightblue" stroke="midnightblue" points="530.51,-69.05 540.55,-65.67 530.59,-62.05 530.51,-69.05"/>
</g>
<!-- Node15 -->
<g id="node15" class="node">
<title>Node15</title>
<g id="a_node15"><a xlink:href="classshrapnel_1_1effect_1_1valvestate_1_1Valvestate.html#a3dc9593f8e440e58d3ddefc6bfe8f37e" target="_top" xlink:title=" ">
<polygon fill="none" stroke="black" points="373.5,-0.5 373.5,-30.5 504.5,-30.5 504.5,-0.5 373.5,-0.5"/>
<text text-anchor="start" x="381.5" y="-18.5" font-family="Helvetica,sans-Serif" font-size="10.00">shrapnel::effect::valvestate</text>
<text text-anchor="middle" x="439" y="-7.5" font-family="Helvetica,sans-Serif" font-size="10.00">::Valvestate::set_fmv</text>
</a>
</g>
</g>
<!-- Node14&#45;&gt;Node15 -->
<g id="edge14" class="edge">
<title>Node14&#45;&gt;Node15</title>
<path fill="none" stroke="midnightblue" d="M534.3,-16.6C524.42,-16.48 514.4,-16.37 504.76,-16.25"/>
<polygon fill="midnightblue" stroke="midnightblue" points="534.47,-20.1 544.51,-16.72 534.56,-13.1 534.47,-20.1"/>
</g>
</g>
</svg>
