<?xml version="1.0" encoding="UTF-8" standalone="no"?>
<!DOCTYPE svg PUBLIC "-//W3C//DTD SVG 1.1//EN"
 "http://www.w3.org/Graphics/SVG/1.1/DTD/svg11.dtd">
<!-- Generated by graphviz version 3.0.0 (20221109.1736)
 -->
<!-- Title: shrapnel::dsp::IirFilter::process Pages: 1 -->
<svg width="823pt" height="263pt"
 viewBox="0.00 0.00 823.00 262.50" xmlns="http://www.w3.org/2000/svg" xmlns:xlink="http://www.w3.org/1999/xlink">
<g id="graph0" class="graph" transform="scale(1 1) rotate(0) translate(4 258.5)">
<title>shrapnel::dsp::IirFilter::process</title>
<!-- Node1 -->
<g id="node1" class="node">
<title>Node1</title>
<g id="a_node1"><a xlink:title=" ">
<polygon fill="#bfbfbf" stroke="black" points="707,-122.5 707,-152.5 815,-152.5 815,-122.5 707,-122.5"/>
<text text-anchor="start" x="715" y="-140.5" font-family="Helvetica,sans-Serif" font-size="10.00">shrapnel::dsp::IirFilter</text>
<text text-anchor="middle" x="761" y="-129.5" font-family="Helvetica,sans-Serif" font-size="10.00">::process</text>
</a>
</g>
</g>
<!-- Node2 -->
<g id="node2" class="node">
<title>Node2</title>
<g id="a_node2"><a xlink:href="noise__gate_8cpp.html#a129b18f80393706faa5a453417153a51" target="_top" xlink:title="Analyse the audio.">
<polygon fill="none" stroke="black" points="568.5,-235 568.5,-254 642.5,-254 642.5,-235 568.5,-235"/>
<text text-anchor="middle" x="605.5" y="-242" font-family="Helvetica,sans-Serif" font-size="10.00">gate_analyse</text>
</a>
</g>
</g>
<!-- Node1&#45;&gt;Node2 -->
<g id="edge1" class="edge">
<title>Node1&#45;&gt;Node2</title>
<path fill="none" stroke="midnightblue" d="M742.32,-160.52C725.87,-180.43 699.66,-208.59 671,-225.5 662.35,-230.6 652.24,-234.42 642.62,-237.24"/>
<polygon fill="midnightblue" stroke="midnightblue" points="745.19,-162.53 748.74,-152.55 739.74,-158.14 745.19,-162.53"/>
</g>
<!-- Node7 -->
<g id="node7" class="node">
<title>Node7</title>
<g id="a_node7"><a xlink:href="classContourFilter.html#a2baf26150cbf88c8261ba2b42ae83703" target="_top" xlink:title=" ">
<polygon fill="none" stroke="black" points="550,-197 550,-216 661,-216 661,-197 550,-197"/>
<text text-anchor="middle" x="605.5" y="-204" font-family="Helvetica,sans-Serif" font-size="10.00">ContourFilter::process</text>
</a>
</g>
</g>
<!-- Node1&#45;&gt;Node7 -->
<g id="edge6" class="edge">
<title>Node1&#45;&gt;Node7</title>
<path fill="none" stroke="midnightblue" d="M727.85,-157.89C711.31,-167.77 690.56,-179.25 671,-187.5 662.5,-191.08 653.11,-194.27 644.18,-196.95"/>
<polygon fill="midnightblue" stroke="midnightblue" points="729.83,-160.78 736.57,-152.6 726.2,-154.79 729.83,-160.78"/>
</g>
<!-- Node9 -->
<g id="node9" class="node">
<title>Node9</title>
<g id="a_node9"><a xlink:href="classshrapnel_1_1effect_1_1valvestate_1_1FMVFilter.html#a1054a330bdb72fa1d10e8fcc6bc51edb" target="_top" xlink:title=" ">
<polygon fill="none" stroke="black" points="540,-147.5 540,-177.5 671,-177.5 671,-147.5 540,-147.5"/>
<text text-anchor="start" x="548" y="-165.5" font-family="Helvetica,sans-Serif" font-size="10.00">shrapnel::effect::valvestate</text>
<text text-anchor="middle" x="605.5" y="-154.5" font-family="Helvetica,sans-Serif" font-size="10.00">::FMVFilter::process</text>
</a>
</g>
</g>
<!-- Node1&#45;&gt;Node9 -->
<g id="edge8" class="edge">
<title>Node1&#45;&gt;Node9</title>
<path fill="none" stroke="midnightblue" d="M696.87,-147.78C688.34,-149.17 679.58,-150.6 671.03,-151.99"/>
<polygon fill="midnightblue" stroke="midnightblue" points="697.44,-151.24 706.74,-146.17 696.31,-144.33 697.44,-151.24"/>
</g>
<!-- Node10 -->
<g id="node10" class="node">
<title>Node10</title>
<g id="a_node10"><a xlink:href="classshrapnel_1_1effect_1_1valvestate_1_1GainControl.html#a8f5ff9dee05742cd426f78eab0e42edb" target="_top" xlink:title=" ">
<polygon fill="none" stroke="black" points="540,-98.5 540,-128.5 671,-128.5 671,-98.5 540,-98.5"/>
<text text-anchor="start" x="548" y="-116.5" font-family="Helvetica,sans-Serif" font-size="10.00">shrapnel::effect::valvestate</text>
<text text-anchor="middle" x="605.5" y="-105.5" font-family="Helvetica,sans-Serif" font-size="10.00">::GainControl::process</text>
</a>
</g>
</g>
<!-- Node1&#45;&gt;Node10 -->
<g id="edge10" class="edge">
<title>Node1&#45;&gt;Node10</title>
<path fill="none" stroke="midnightblue" d="M696.59,-127.59C688.15,-126.27 679.49,-124.91 671.03,-123.59"/>
<polygon fill="midnightblue" stroke="midnightblue" points="696.32,-131.09 706.74,-129.17 697.4,-124.17 696.32,-131.09"/>
</g>
<!-- Node11 -->
<g id="node11" class="node">
<title>Node11</title>
<g id="a_node11"><a xlink:href="classshrapnel_1_1effect_1_1valvestate_1_1InputFilter.html#a1452168fb958f39f748f76bae75b907f" target="_top" xlink:title=" ">
<polygon fill="none" stroke="black" points="540,-49.5 540,-79.5 671,-79.5 671,-49.5 540,-49.5"/>
<text text-anchor="start" x="548" y="-67.5" font-family="Helvetica,sans-Serif" font-size="10.00">shrapnel::effect::valvestate</text>
<text text-anchor="middle" x="605.5" y="-56.5" font-family="Helvetica,sans-Serif" font-size="10.00">::InputFilter::process</text>
</a>
</g>
</g>
<!-- Node1&#45;&gt;Node11 -->
<g id="edge12" class="edge">
<title>Node1&#45;&gt;Node11</title>
<path fill="none" stroke="midnightblue" d="M726.13,-117.32C709.77,-107.97 689.67,-97.06 671,-88.5 664.16,-85.36 656.78,-82.32 649.54,-79.51"/>
<polygon fill="midnightblue" stroke="midnightblue" points="724.4,-120.36 734.81,-122.33 727.9,-114.3 724.4,-120.36"/>
</g>
<!-- Node12 -->
<g id="node12" class="node">
<title>Node12</title>
<g id="a_node12"><a xlink:href="classshrapnel_1_1effect_1_1Wah.html#a74e9a5e72d1dce44364be3e6a3787cd2" target="_top" xlink:title=" ">
<polygon fill="none" stroke="black" points="552.5,-0.5 552.5,-30.5 658.5,-30.5 658.5,-0.5 552.5,-0.5"/>
<text text-anchor="start" x="560.5" y="-18.5" font-family="Helvetica,sans-Serif" font-size="10.00">shrapnel::effect::Wah</text>
<text text-anchor="middle" x="605.5" y="-7.5" font-family="Helvetica,sans-Serif" font-size="10.00">::process</text>
</a>
</g>
</g>
<!-- Node1&#45;&gt;Node12 -->
<g id="edge14" class="edge">
<title>Node1&#45;&gt;Node12</title>
<path fill="none" stroke="midnightblue" d="M744.09,-114.37C727.94,-92.42 701.08,-59.85 671,-39.5 666.05,-36.15 660.58,-33.2 654.97,-30.61"/>
<polygon fill="midnightblue" stroke="midnightblue" points="741.25,-116.42 749.94,-122.49 746.93,-112.33 741.25,-116.42"/>
</g>
<!-- Node3 -->
<g id="node3" class="node">
<title>Node3</title>
<g id="a_node3"><a xlink:href="process_8cpp.html#a450bec865b55b9890f4050f1ab0dba5c" target="_top" xlink:title=" ">
<polygon fill="none" stroke="black" points="392,-235 392,-254 485,-254 485,-235 392,-235"/>
<text text-anchor="middle" x="438.5" y="-242" font-family="Helvetica,sans-Serif" font-size="10.00">process_samples</text>
</a>
</g>
</g>
<!-- Node2&#45;&gt;Node3 -->
<g id="edge2" class="edge">
<title>Node2&#45;&gt;Node3</title>
<path fill="none" stroke="midnightblue" d="M558.15,-244.5C535.29,-244.5 507.82,-244.5 485.07,-244.5"/>
<polygon fill="midnightblue" stroke="midnightblue" points="558.29,-248 568.29,-244.5 558.29,-241 558.29,-248"/>
</g>
<!-- Node4 -->
<g id="node4" class="node">
<title>Node4</title>
<g id="a_node4"><a xlink:href="i2s_8cpp.html#a4e37f563a34c1a559515cc40782caf07" target="_top" xlink:title=" ">
<polygon fill="none" stroke="black" points="231,-235 231,-254 337,-254 337,-235 231,-235"/>
<text text-anchor="middle" x="284" y="-242" font-family="Helvetica,sans-Serif" font-size="10.00">i2s_processing_task</text>
</a>
</g>
</g>
<!-- Node3&#45;&gt;Node4 -->
<g id="edge3" class="edge">
<title>Node3&#45;&gt;Node4</title>
<path fill="none" stroke="midnightblue" d="M381.42,-244.5C366.94,-244.5 351.41,-244.5 337.14,-244.5"/>
<polygon fill="midnightblue" stroke="midnightblue" points="381.75,-248 391.74,-244.5 381.74,-241 381.75,-248"/>
</g>
<!-- Node5 -->
<g id="node5" class="node">
<title>Node5</title>
<g id="a_node5"><a xlink:href="i2s_8cpp.html#ab949ae727fd1608d465238ba29ab2dab" target="_top" xlink:title=" ">
<polygon fill="none" stroke="black" points="136,-235 136,-254 195,-254 195,-235 136,-235"/>
<text text-anchor="middle" x="165.5" y="-242" font-family="Helvetica,sans-Serif" font-size="10.00">i2s_setup</text>
</a>
</g>
</g>
<!-- Node4&#45;&gt;Node5 -->
<g id="edge4" class="edge">
<title>Node4&#45;&gt;Node5</title>
<path fill="none" stroke="midnightblue" d="M220.81,-244.5C211.89,-244.5 203.1,-244.5 195.27,-244.5"/>
<polygon fill="midnightblue" stroke="midnightblue" points="220.88,-248 230.88,-244.5 220.88,-241 220.88,-248"/>
</g>
<!-- Node6 -->
<g id="node6" class="node">
<title>Node6</title>
<g id="a_node6"><a xlink:href="namespaceshrapnel.html#a9f09f4ea750643310af9143a53735b7d" target="_top" xlink:title=" ">
<polygon fill="none" stroke="black" points="0,-235 0,-254 100,-254 100,-235 0,-235"/>
<text text-anchor="middle" x="50" y="-242" font-family="Helvetica,sans-Serif" font-size="10.00">shrapnel::app_main</text>
</a>
</g>
</g>
<!-- Node5&#45;&gt;Node6 -->
<g id="edge5" class="edge">
<title>Node5&#45;&gt;Node6</title>
<path fill="none" stroke="midnightblue" d="M125.85,-244.5C117.66,-244.5 108.91,-244.5 100.39,-244.5"/>
<polygon fill="midnightblue" stroke="midnightblue" points="125.86,-248 135.86,-244.5 125.86,-241 125.86,-248"/>
</g>
<!-- Node8 -->
<g id="node8" class="node">
<title>Node8</title>
<g id="a_node8"><a xlink:href="classshrapnel_1_1effect_1_1valvestate_1_1Valvestate.html#a9636b34accae16b0e8681d701816eca5" target="_top" xlink:title=" ">
<polygon fill="none" stroke="black" points="373,-123.5 373,-153.5 504,-153.5 504,-123.5 373,-123.5"/>
<text text-anchor="start" x="381" y="-141.5" font-family="Helvetica,sans-Serif" font-size="10.00">shrapnel::effect::valvestate</text>
<text text-anchor="middle" x="438.5" y="-130.5" font-family="Helvetica,sans-Serif" font-size="10.00">::Valvestate::process</text>
</a>
</g>
</g>
<!-- Node7&#45;&gt;Node8 -->
<g id="edge7" class="edge">
<title>Node7&#45;&gt;Node8</title>
<path fill="none" stroke="midnightblue" d="M558.54,-193.99C552.25,-191.98 545.93,-189.8 540,-187.5 514.66,-177.67 486.98,-163.94 467.1,-153.51"/>
<polygon fill="midnightblue" stroke="midnightblue" points="557.73,-197.4 568.32,-197 559.79,-190.71 557.73,-197.4"/>
</g>
<!-- Node9&#45;&gt;Node8 -->
<g id="edge9" class="edge">
<title>Node9&#45;&gt;Node8</title>
<path fill="none" stroke="midnightblue" d="M529.76,-151.63C521.18,-150.38 512.48,-149.12 504.05,-147.89"/>
<polygon fill="midnightblue" stroke="midnightblue" points="529.36,-155.11 539.76,-153.08 530.37,-148.18 529.36,-155.11"/>
</g>
<!-- Node10&#45;&gt;Node8 -->
<g id="edge11" class="edge">
<title>Node10&#45;&gt;Node8</title>
<path fill="none" stroke="midnightblue" d="M529.76,-124.82C521.18,-126.12 512.48,-127.44 504.05,-128.72"/>
<polygon fill="midnightblue" stroke="midnightblue" points="530.4,-128.27 539.76,-123.31 529.35,-121.35 530.4,-128.27"/>
</g>
<!-- Node11&#45;&gt;Node8 -->
<g id="edge13" class="edge">
<title>Node11&#45;&gt;Node8</title>
<path fill="none" stroke="midnightblue" d="M552.56,-83.28C548.29,-84.99 544.06,-86.74 540,-88.5 515.15,-99.27 487.65,-113.09 467.71,-123.46"/>
<polygon fill="midnightblue" stroke="midnightblue" points="553.88,-86.52 561.92,-79.62 551.33,-80 553.88,-86.52"/>
</g>
</g>
</svg>
