<?xml version="1.0" encoding="UTF-8" standalone="no"?>
<!DOCTYPE svg PUBLIC "-//W3C//DTD SVG 1.1//EN"
 "http://www.w3.org/Graphics/SVG/1.1/DTD/svg11.dtd">
<!-- Generated by graphviz version 3.0.0 (20221109.1736)
 -->
<!-- Title: shrapnel::presets::PresetsManager::update Pages: 1 -->
<svg width="424pt" height="142pt"
 viewBox="0.00 0.00 424.00 142.00" xmlns="http://www.w3.org/2000/svg" xmlns:xlink="http://www.w3.org/1999/xlink">
<g id="graph0" class="graph" transform="scale(1 1) rotate(0) translate(4 138)">
<title>shrapnel::presets::PresetsManager::update</title>
<!-- Node1 -->
<g id="node1" class="node">
<title>Node1</title>
<g id="a_node1"><a xlink:title=" ">
<polygon fill="#bfbfbf" stroke="black" points="0,-52 0,-82 122,-82 122,-52 0,-52"/>
<text text-anchor="start" x="8" y="-70" font-family="Helvetica,sans-Serif" font-size="10.00">shrapnel::presets::</text>
<text text-anchor="middle" x="61" y="-59" font-family="Helvetica,sans-Serif" font-size="10.00">PresetsManager::update</text>
</a>
</g>
</g>
<!-- Node2 -->
<g id="node2" class="node">
<title>Node2</title>
<g id="a_node2"><a xlink:href="namespaceshrapnel_1_1presets.html#a73471fb6ac9316c4a5030700ce39bc54" target="_top" xlink:title=" ">
<polygon fill="none" stroke="black" points="158,-52 158,-82 253,-82 253,-52 158,-52"/>
<text text-anchor="start" x="166" y="-70" font-family="Helvetica,sans-Serif" font-size="10.00">shrapnel::presets::</text>
<text text-anchor="middle" x="205.5" y="-59" font-family="Helvetica,sans-Serif" font-size="10.00">serialise_preset</text>
</a>
</g>
</g>
<!-- Node1&#45;&gt;Node2 -->
<g id="edge1" class="edge">
<title>Node1&#45;&gt;Node2</title>
<path fill="none" stroke="midnightblue" d="M122.02,-67C130.56,-67 139.33,-67 147.81,-67"/>
<polygon fill="midnightblue" stroke="midnightblue" points="147.97,-70.5 157.97,-67 147.97,-63.5 147.97,-70.5"/>
</g>
<!-- Node3 -->
<g id="node3" class="node">
<title>Node3</title>
<g id="a_node3"><a xlink:href="presets_8pb-c_8c.html#a2d9875e8583d3fa295fa213d8129db32" target="_top" xlink:title=" ">
<polygon fill="none" stroke="black" points="289,-114.5 289,-133.5 416,-133.5 416,-114.5 289,-114.5"/>
<text text-anchor="middle" x="352.5" y="-121.5" font-family="Helvetica,sans-Serif" font-size="10.00">preset__get_packed_size</text>
</a>
</g>
</g>
<!-- Node2&#45;&gt;Node3 -->
<g id="edge2" class="edge">
<title>Node2&#45;&gt;Node3</title>
<path fill="none" stroke="midnightblue" d="M236.64,-82.08C252.08,-89.5 271.31,-98.27 289,-105 294.91,-107.25 301.22,-109.42 307.46,-111.44"/>
<polygon fill="midnightblue" stroke="midnightblue" points="306.57,-114.83 317.16,-114.48 308.66,-108.15 306.57,-114.83"/>
</g>
<!-- Node4 -->
<g id="node4" class="node">
<title>Node4</title>
<g id="a_node4"><a xlink:href="presets_8pb-c_8c.html#aca350cbb416198c2101b705696cffc96" target="_top" xlink:title=" ">
<polygon fill="none" stroke="black" points="319,-76.5 319,-95.5 386,-95.5 386,-76.5 319,-76.5"/>
<text text-anchor="middle" x="352.5" y="-83.5" font-family="Helvetica,sans-Serif" font-size="10.00">preset__init</text>
</a>
</g>
</g>
<!-- Node2&#45;&gt;Node4 -->
<g id="edge3" class="edge">
<title>Node2&#45;&gt;Node4</title>
<path fill="none" stroke="midnightblue" d="M253.18,-73.12C271.03,-75.46 291.29,-78.11 308.76,-80.4"/>
<polygon fill="midnightblue" stroke="midnightblue" points="308.32,-83.87 318.69,-81.7 309.22,-76.93 308.32,-83.87"/>
</g>
<!-- Node5 -->
<g id="node5" class="node">
<title>Node5</title>
<g id="a_node5"><a xlink:href="presets_8pb-c_8c.html#a81eccd11d94b993eaf549e7147bdac8b" target="_top" xlink:title=" ">
<polygon fill="none" stroke="black" points="315,-38.5 315,-57.5 390,-57.5 390,-38.5 315,-38.5"/>
<text text-anchor="middle" x="352.5" y="-45.5" font-family="Helvetica,sans-Serif" font-size="10.00">preset__pack</text>
</a>
</g>
</g>
<!-- Node2&#45;&gt;Node5 -->
<g id="edge4" class="edge">
<title>Node2&#45;&gt;Node5</title>
<path fill="none" stroke="midnightblue" d="M253.18,-60.88C269.63,-58.73 288.13,-56.3 304.6,-54.15"/>
<polygon fill="midnightblue" stroke="midnightblue" points="305.1,-57.61 314.56,-52.84 304.19,-50.67 305.1,-57.61"/>
</g>
<!-- Node6 -->
<g id="node6" class="node">
<title>Node6</title>
<g id="a_node6"><a xlink:href="presets_8pb-c_8c.html#a75256e2eec13936afbe06336df46ed00" target="_top" xlink:title=" ">
<polygon fill="none" stroke="black" points="292,-0.5 292,-19.5 413,-19.5 413,-0.5 292,-0.5"/>
<text text-anchor="middle" x="352.5" y="-7.5" font-family="Helvetica,sans-Serif" font-size="10.00">preset_parameters__init</text>
</a>
</g>
</g>
<!-- Node2&#45;&gt;Node6 -->
<g id="edge5" class="edge">
<title>Node2&#45;&gt;Node6</title>
<path fill="none" stroke="midnightblue" d="M236.64,-51.92C252.08,-44.5 271.31,-35.73 289,-29 294.91,-26.75 301.22,-24.58 307.46,-22.56"/>
<polygon fill="midnightblue" stroke="midnightblue" points="308.66,-25.85 317.16,-19.52 306.57,-19.17 308.66,-25.85"/>
</g>
</g>
</svg>
