<?xml version="1.0" encoding="UTF-8" standalone="no"?>
<!DOCTYPE svg PUBLIC "-//W3C//DTD SVG 1.1//EN"
 "http://www.w3.org/Graphics/SVG/1.1/DTD/svg11.dtd">
<!-- Generated by graphviz version 3.0.0 (20221109.1736)
 -->
<!-- Title: shrapnel::wifi_provisioning::WiFiProvisioning::wait_for_provisioning Pages: 1 -->
<svg width="302pt" height="78pt"
 viewBox="0.00 0.00 302.00 77.50" xmlns="http://www.w3.org/2000/svg" xmlns:xlink="http://www.w3.org/1999/xlink">
<g id="graph0" class="graph" transform="scale(1 1) rotate(0) translate(4 73.5)">
<title>shrapnel::wifi_provisioning::WiFiProvisioning::wait_for_provisioning</title>
<!-- Node1 -->
<g id="node1" class="node">
<title>Node1</title>
<g id="a_node1"><a xlink:title=" ">
<polygon fill="#bfbfbf" stroke="black" points="0,-17 0,-58 129,-58 129,-17 0,-17"/>
<text text-anchor="start" x="8" y="-46" font-family="Helvetica,sans-Serif" font-size="10.00">shrapnel::wifi_provisioning</text>
<text text-anchor="start" x="8" y="-35" font-family="Helvetica,sans-Serif" font-size="10.00">::WiFiProvisioning::wait</text>
<text text-anchor="middle" x="64.5" y="-24" font-family="Helvetica,sans-Serif" font-size="10.00">_for_provisioning</text>
</a>
</g>
</g>
<!-- Node2 -->
<g id="node2" class="node">
<title>Node2</title>
<g id="a_node2"><a xlink:href="classshrapnel_1_1Queue.html#a951eca6ac1f13273f49d6629d29a3609" target="_top" xlink:title=" ">
<polygon fill="none" stroke="black" points="168.5,-50 168.5,-69 290.5,-69 290.5,-50 168.5,-50"/>
<text text-anchor="middle" x="229.5" y="-57" font-family="Helvetica,sans-Serif" font-size="10.00">shrapnel::Queue::receive</text>
</a>
</g>
</g>
<!-- Node1&#45;&gt;Node2 -->
<g id="edge1" class="edge">
<title>Node1&#45;&gt;Node2</title>
<path fill="none" stroke="midnightblue" d="M129.45,-46.13C138.99,-47.42 148.85,-48.75 158.5,-50.05"/>
<polygon fill="midnightblue" stroke="midnightblue" points="158.08,-53.53 168.46,-51.4 159.01,-46.59 158.08,-53.53"/>
</g>
<!-- Node3 -->
<g id="node3" class="node">
<title>Node3</title>
<g id="a_node3"><a xlink:href="classshrapnel_1_1wifi__provisioning_1_1WiFiProvisioning.html#a52ad94d584e862d50c9c045b9332e6ab" target="_top" xlink:title=" ">
<polygon fill="none" stroke="black" points="165,-0.5 165,-30.5 294,-30.5 294,-0.5 165,-0.5"/>
<text text-anchor="start" x="173" y="-18.5" font-family="Helvetica,sans-Serif" font-size="10.00">shrapnel::wifi_provisioning</text>
<text text-anchor="middle" x="229.5" y="-7.5" font-family="Helvetica,sans-Serif" font-size="10.00">::WiFiProvisioning::start</text>
</a>
</g>
</g>
<!-- Node1&#45;&gt;Node3 -->
<g id="edge2" class="edge">
<title>Node1&#45;&gt;Node3</title>
<path fill="none" stroke="midnightblue" d="M129.45,-28.87C137.85,-27.73 146.51,-26.57 155.05,-25.41"/>
<polygon fill="midnightblue" stroke="midnightblue" points="155.56,-28.88 165,-24.07 154.62,-21.94 155.56,-28.88"/>
</g>
</g>
</svg>
