<?xml version="1.0" encoding="UTF-8" standalone="no"?>
<!DOCTYPE svg PUBLIC "-//W3C//DTD SVG 1.1//EN"
 "http://www.w3.org/Graphics/SVG/1.1/DTD/svg11.dtd">
<!-- Generated by graphviz version 3.0.0 (20221109.1736)
 -->
<!-- Title: shrapnel::ParameterObserver::persist_parameters Pages: 1 -->
<svg width="299pt" height="78pt"
 viewBox="0.00 0.00 299.00 77.50" xmlns="http://www.w3.org/2000/svg" xmlns:xlink="http://www.w3.org/1999/xlink">
<g id="graph0" class="graph" transform="scale(1 1) rotate(0) translate(4 73.5)">
<title>shrapnel::ParameterObserver::persist_parameters</title>
<!-- Node1 -->
<g id="node1" class="node">
<title>Node1</title>
<g id="a_node1"><a xlink:title=" ">
<polygon fill="#bfbfbf" stroke="black" points="0,-17 0,-47 143,-47 143,-17 0,-17"/>
<text text-anchor="start" x="8" y="-35" font-family="Helvetica,sans-Serif" font-size="10.00">shrapnel::ParameterObserver</text>
<text text-anchor="middle" x="71.5" y="-24" font-family="Helvetica,sans-Serif" font-size="10.00">::persist_parameters</text>
</a>
</g>
</g>
<!-- Node2 -->
<g id="node2" class="node">
<title>Node2</title>
<g id="a_node2"><a xlink:href="classshrapnel_1_1persistence_1_1Storage.html#a6fcbb724924e65cc514c55d0a5286e34" target="_top" xlink:title=" ">
<polygon fill="none" stroke="black" points="181,-39 181,-69 289,-69 289,-39 181,-39"/>
<text text-anchor="start" x="189" y="-57" font-family="Helvetica,sans-Serif" font-size="10.00">shrapnel::persistence</text>
<text text-anchor="middle" x="235" y="-46" font-family="Helvetica,sans-Serif" font-size="10.00">::Storage::save</text>
</a>
</g>
</g>
<!-- Node1&#45;&gt;Node2 -->
<g id="edge1" class="edge">
<title>Node1&#45;&gt;Node2</title>
<path fill="none" stroke="midnightblue" d="M143.34,-41.65C152.45,-42.89 161.73,-44.16 170.72,-45.38"/>
<polygon fill="midnightblue" stroke="midnightblue" points="170.32,-48.86 180.7,-46.74 171.27,-41.92 170.32,-48.86"/>
</g>
<!-- Node3 -->
<g id="node3" class="node">
<title>Node3</title>
<g id="a_node3"><a xlink:href="namespaceshrapnel_1_1midi.html#a745f9f03858045cdfabbd014152fbc15" target="_top" xlink:title="Convert object to a JSON value.">
<polygon fill="none" stroke="black" points="179,-0.5 179,-19.5 291,-19.5 291,-0.5 179,-0.5"/>
<text text-anchor="middle" x="235" y="-7.5" font-family="Helvetica,sans-Serif" font-size="10.00">shrapnel::midi::to_json</text>
</a>
</g>
</g>
<!-- Node1&#45;&gt;Node3 -->
<g id="edge2" class="edge">
<title>Node1&#45;&gt;Node3</title>
<path fill="none" stroke="midnightblue" d="M143.34,-22.35C151.77,-21.2 160.35,-20.03 168.71,-18.89"/>
<polygon fill="midnightblue" stroke="midnightblue" points="169.32,-22.34 178.76,-17.53 168.38,-15.41 169.32,-22.34"/>
</g>
</g>
</svg>
