<?xml version="1.0" encoding="UTF-8" standalone="no"?>
<!DOCTYPE svg PUBLIC "-//W3C//DTD SVG 1.1//EN"
 "http://www.w3.org/Graphics/SVG/1.1/DTD/svg11.dtd">
<!-- Generated by graphviz version 3.0.0 (20221109.1736)
 -->
<!-- Title: shrapnel::AudioProcessor::process Pages: 1 -->
<svg width="421pt" height="266pt"
 viewBox="0.00 0.00 421.00 265.50" xmlns="http://www.w3.org/2000/svg" xmlns:xlink="http://www.w3.org/1999/xlink">
<g id="graph0" class="graph" transform="scale(1 1) rotate(0) translate(4 261.5)">
<title>shrapnel::AudioProcessor::process</title>
<!-- Node1 -->
<g id="node1" class="node">
<title>Node1</title>
<g id="a_node1"><a xlink:title=" ">
<polygon fill="#bfbfbf" stroke="black" points="0,-109 0,-139 127,-139 127,-109 0,-109"/>
<text text-anchor="start" x="8" y="-127" font-family="Helvetica,sans-Serif" font-size="10.00">shrapnel::AudioProcessor</text>
<text text-anchor="middle" x="63.5" y="-116" font-family="Helvetica,sans-Serif" font-size="10.00">::process</text>
</a>
</g>
</g>
<!-- Node2 -->
<g id="node2" class="node">
<title>Node2</title>
<g id="a_node2"><a xlink:href="noise__gate_8cpp.html#a129b18f80393706faa5a453417153a51" target="_top" xlink:title="Analyse the audio.">
<polygon fill="none" stroke="black" points="179,-231.5 179,-250.5 253,-250.5 253,-231.5 179,-231.5"/>
<text text-anchor="middle" x="216" y="-238.5" font-family="Helvetica,sans-Serif" font-size="10.00">gate_analyse</text>
</a>
</g>
</g>
<!-- Node1&#45;&gt;Node2 -->
<g id="edge1" class="edge">
<title>Node1&#45;&gt;Node2</title>
<path fill="none" stroke="midnightblue" d="M77.12,-139.28C94.64,-159.69 128.11,-195.95 163,-219 167.65,-222.07 172.8,-224.87 178,-227.35"/>
<polygon fill="midnightblue" stroke="midnightblue" points="176.76,-230.63 187.32,-231.49 179.6,-224.23 176.76,-230.63"/>
</g>
<!-- Node4 -->
<g id="node4" class="node">
<title>Node4</title>
<g id="a_node4"><a xlink:href="noise__gate_8cpp.html#a3a59d391339a038f91650058680b00d6" target="_top" xlink:title="Apply the precalculated gain to the audio.">
<polygon fill="none" stroke="black" points="178.5,-190.5 178.5,-209.5 253.5,-209.5 253.5,-190.5 178.5,-190.5"/>
<text text-anchor="middle" x="216" y="-197.5" font-family="Helvetica,sans-Serif" font-size="10.00">gate_process</text>
</a>
</g>
</g>
<!-- Node1&#45;&gt;Node4 -->
<g id="edge3" class="edge">
<title>Node1&#45;&gt;Node4</title>
<path fill="none" stroke="midnightblue" d="M87.76,-139.01C107.34,-151.27 136.33,-168.53 163,-181 167.34,-183.03 171.97,-184.99 176.6,-186.83"/>
<polygon fill="midnightblue" stroke="midnightblue" points="175.44,-190.13 186.03,-190.43 177.93,-183.59 175.44,-190.13"/>
</g>
<!-- Node6 -->
<g id="node6" class="node">
<title>Node6</title>
<g id="a_node6"><a xlink:href="noise__gate_8cpp.html#a4868a6f017c846668c1b09d32b833099" target="_top" xlink:title="Set the attack time in milliseconds.">
<polygon fill="none" stroke="black" points="173,-152.5 173,-171.5 259,-171.5 259,-152.5 173,-152.5"/>
<text text-anchor="middle" x="216" y="-159.5" font-family="Helvetica,sans-Serif" font-size="10.00">gate_set_attack</text>
</a>
</g>
</g>
<!-- Node1&#45;&gt;Node6 -->
<g id="edge5" class="edge">
<title>Node1&#45;&gt;Node6</title>
<path fill="none" stroke="midnightblue" d="M123.98,-139.02C138.39,-142.66 153.62,-146.5 167.4,-149.98"/>
<polygon fill="midnightblue" stroke="midnightblue" points="166.6,-153.39 177.15,-152.44 168.31,-146.6 166.6,-153.39"/>
</g>
<!-- Node7 -->
<g id="node7" class="node">
<title>Node7</title>
<g id="a_node7"><a xlink:href="noise__gate_8cpp.html#a4fccad713cee272e388c9c45fc97037e" target="_top" xlink:title="Set the hold time in milliseconds.">
<polygon fill="none" stroke="black" points="177.5,-114.5 177.5,-133.5 254.5,-133.5 254.5,-114.5 177.5,-114.5"/>
<text text-anchor="middle" x="216" y="-121.5" font-family="Helvetica,sans-Serif" font-size="10.00">gate_set_hold</text>
</a>
</g>
</g>
<!-- Node1&#45;&gt;Node7 -->
<g id="edge6" class="edge">
<title>Node1&#45;&gt;Node7</title>
<path fill="none" stroke="midnightblue" d="M127.02,-124C140.39,-124 154.32,-124 167.05,-124"/>
<polygon fill="midnightblue" stroke="midnightblue" points="167.41,-127.5 177.41,-124 167.41,-120.5 167.41,-127.5"/>
</g>
<!-- Node8 -->
<g id="node8" class="node">
<title>Node8</title>
<g id="a_node8"><a xlink:href="noise__gate_8cpp.html#abe525a07b8cb6f0557740cc4100428a9" target="_top" xlink:title="Set the release time in milliseconds.">
<polygon fill="none" stroke="black" points="170.5,-76.5 170.5,-95.5 261.5,-95.5 261.5,-76.5 170.5,-76.5"/>
<text text-anchor="middle" x="216" y="-83.5" font-family="Helvetica,sans-Serif" font-size="10.00">gate_set_release</text>
</a>
</g>
</g>
<!-- Node1&#45;&gt;Node8 -->
<g id="edge7" class="edge">
<title>Node1&#45;&gt;Node8</title>
<path fill="none" stroke="midnightblue" d="M123.98,-108.98C138.39,-105.34 153.62,-101.5 167.4,-98.02"/>
<polygon fill="midnightblue" stroke="midnightblue" points="168.31,-101.4 177.15,-95.56 166.6,-94.61 168.31,-101.4"/>
</g>
<!-- Node9 -->
<g id="node9" class="node">
<title>Node9</title>
<g id="a_node9"><a xlink:href="noise__gate_8cpp.html#a82e62ed410acc03c8179d8245de13e12" target="_top" xlink:title="Set the threshold and hysteresis value in dBFS.">
<polygon fill="none" stroke="black" points="166.5,-38.5 166.5,-57.5 265.5,-57.5 265.5,-38.5 166.5,-38.5"/>
<text text-anchor="middle" x="216" y="-45.5" font-family="Helvetica,sans-Serif" font-size="10.00">gate_set_threshold</text>
</a>
</g>
</g>
<!-- Node1&#45;&gt;Node9 -->
<g id="edge8" class="edge">
<title>Node1&#45;&gt;Node9</title>
<path fill="none" stroke="midnightblue" d="M87.76,-108.99C107.34,-96.73 136.33,-79.47 163,-67 167.34,-64.97 171.97,-63.01 176.6,-61.17"/>
<polygon fill="midnightblue" stroke="midnightblue" points="177.93,-64.41 186.03,-57.57 175.44,-57.87 177.93,-64.41"/>
</g>
<!-- Node11 -->
<g id="node11" class="node">
<title>Node11</title>
<g id="a_node11"><a xlink:href="desktop_2profiling_8c.html#a28c8072350ec5a481c4de96a942e606f" target="_top" xlink:title=" ">
<polygon fill="none" stroke="black" points="163,-0.5 163,-19.5 269,-19.5 269,-0.5 163,-0.5"/>
<text text-anchor="middle" x="216" y="-7.5" font-family="Helvetica,sans-Serif" font-size="10.00">profiling_mark_stage</text>
</a>
</g>
</g>
<!-- Node1&#45;&gt;Node11 -->
<g id="edge10" class="edge">
<title>Node1&#45;&gt;Node11</title>
<path fill="none" stroke="midnightblue" d="M76.66,-108.81C93.91,-88.17 127.34,-51.3 163,-29 166.16,-27.02 169.56,-25.21 173.04,-23.56"/>
<polygon fill="midnightblue" stroke="midnightblue" points="174.58,-26.7 182.39,-19.54 171.82,-20.27 174.58,-26.7"/>
</g>
<!-- Node3 -->
<g id="node3" class="node">
<title>Node3</title>
<g id="a_node3"><a xlink:href="classshrapnel_1_1dsp_1_1IirFilter.html#a53cb5a72d2a310cd4b35d4329af682f0" target="_top" xlink:title=" ">
<polygon fill="none" stroke="black" points="305,-227 305,-257 413,-257 413,-227 305,-227"/>
<text text-anchor="start" x="313" y="-245" font-family="Helvetica,sans-Serif" font-size="10.00">shrapnel::dsp::IirFilter</text>
<text text-anchor="middle" x="359" y="-234" font-family="Helvetica,sans-Serif" font-size="10.00">::process</text>
</a>
</g>
</g>
<!-- Node2&#45;&gt;Node3 -->
<g id="edge2" class="edge">
<title>Node2&#45;&gt;Node3</title>
<path fill="none" stroke="midnightblue" d="M253.31,-241.26C265.92,-241.35 280.45,-241.45 294.59,-241.55"/>
<polygon fill="midnightblue" stroke="midnightblue" points="294.77,-245.05 304.79,-241.62 294.82,-238.05 294.77,-245.05"/>
</g>
<!-- Node5 -->
<g id="node5" class="node">
<title>Node5</title>
<g id="a_node5"><a xlink:href="abstract__dsp__juce_8cpp.html#a52d208742d325a0cdb7225bd9fe0e902" target="_top" xlink:title=" ">
<polygon fill="none" stroke="black" points="320,-188.5 320,-207.5 398,-207.5 398,-188.5 320,-188.5"/>
<text text-anchor="middle" x="359" y="-195.5" font-family="Helvetica,sans-Serif" font-size="10.00">dspal_multiply</text>
</a>
</g>
</g>
<!-- Node4&#45;&gt;Node5 -->
<g id="edge4" class="edge">
<title>Node4&#45;&gt;Node5</title>
<path fill="none" stroke="midnightblue" d="M253.68,-199.48C270.67,-199.24 291.1,-198.95 309.36,-198.69"/>
<polygon fill="midnightblue" stroke="midnightblue" points="309.59,-202.19 319.54,-198.55 309.49,-195.19 309.59,-202.19"/>
</g>
<!-- Node10 -->
<g id="node10" class="node">
<title>Node10</title>
<g id="a_node10"><a xlink:href="noise__gate_8cpp.html#afb2354391bb81545d92334434552ab4b" target="_top" xlink:title=" ">
<polygon fill="none" stroke="black" points="326.5,-38.5 326.5,-57.5 391.5,-57.5 391.5,-38.5 326.5,-38.5"/>
<text text-anchor="middle" x="359" y="-45.5" font-family="Helvetica,sans-Serif" font-size="10.00">db_to_ratio</text>
</a>
</g>
</g>
<!-- Node9&#45;&gt;Node10 -->
<g id="edge9" class="edge">
<title>Node9&#45;&gt;Node10</title>
<path fill="none" stroke="midnightblue" d="M265.52,-48C281.99,-48 300.24,-48 316.14,-48"/>
<polygon fill="midnightblue" stroke="midnightblue" points="316.21,-51.5 326.21,-48 316.21,-44.5 316.21,-51.5"/>
</g>
</g>
</svg>
