<?xml version="1.0" encoding="UTF-8" standalone="no"?>
<!DOCTYPE svg PUBLIC "-//W3C//DTD SVG 1.1//EN"
 "http://www.w3.org/Graphics/SVG/1.1/DTD/svg11.dtd">
<!-- Generated by graphviz version 3.0.0 (20221109.1736)
 -->
<!-- Title: shrapnel::dsp::IirFilter::reset Pages: 1 -->
<svg width="450pt" height="460pt"
 viewBox="0.00 0.00 450.00 460.00" xmlns="http://www.w3.org/2000/svg" xmlns:xlink="http://www.w3.org/1999/xlink">
<g id="graph0" class="graph" transform="scale(1 1) rotate(0) translate(4 456)">
<title>shrapnel::dsp::IirFilter::reset</title>
<!-- Node1 -->
<g id="node1" class="node">
<title>Node1</title>
<g id="a_node1"><a xlink:title=" ">
<polygon fill="#bfbfbf" stroke="black" points="334,-213.5 334,-243.5 442,-243.5 442,-213.5 334,-213.5"/>
<text text-anchor="start" x="342" y="-231.5" font-family="Helvetica,sans-Serif" font-size="10.00">shrapnel::dsp::IirFilter</text>
<text text-anchor="middle" x="388" y="-220.5" font-family="Helvetica,sans-Serif" font-size="10.00">::reset</text>
</a>
</g>
</g>
<!-- Node2 -->
<g id="node2" class="node">
<title>Node2</title>
<g id="a_node2"><a xlink:href="classshrapnel_1_1dsp_1_1IirFilter.html#a115233b4c64c2e99a41e50dae95a3f57" target="_top" xlink:title=" ">
<polygon fill="none" stroke="black" points="178.5,-421.5 178.5,-451.5 286.5,-451.5 286.5,-421.5 178.5,-421.5"/>
<text text-anchor="start" x="186.5" y="-439.5" font-family="Helvetica,sans-Serif" font-size="10.00">shrapnel::dsp::IirFilter</text>
<text text-anchor="middle" x="232.5" y="-428.5" font-family="Helvetica,sans-Serif" font-size="10.00">::IirFilter</text>
</a>
</g>
</g>
<!-- Node1&#45;&gt;Node2 -->
<g id="edge1" class="edge">
<title>Node1&#45;&gt;Node2</title>
<path fill="none" stroke="midnightblue" d="M381.14,-253.51C370.81,-292.42 345.76,-367.54 298,-411.5 293.85,-415.32 289.04,-418.58 283.97,-421.36"/>
<polygon fill="midnightblue" stroke="midnightblue" points="384.6,-254.11 383.68,-243.55 377.82,-252.38 384.6,-254.11"/>
</g>
<!-- Node3 -->
<g id="node3" class="node">
<title>Node3</title>
<g id="a_node3"><a xlink:href="classContourFilter.html#a5789ed6d2da0b980a2dc1469925a0509" target="_top" xlink:title=" ">
<polygon fill="none" stroke="black" points="178,-383 178,-402 287,-402 287,-383 178,-383"/>
<text text-anchor="middle" x="232.5" y="-390" font-family="Helvetica,sans-Serif" font-size="10.00">ContourFilter::prepare</text>
</a>
</g>
</g>
<!-- Node1&#45;&gt;Node3 -->
<g id="edge2" class="edge">
<title>Node1&#45;&gt;Node3</title>
<path fill="none" stroke="midnightblue" d="M378.25,-253.4C365.58,-285.82 339.06,-342.07 298,-373.5 292.9,-377.4 287.02,-380.51 280.92,-382.97"/>
<polygon fill="midnightblue" stroke="midnightblue" points="381.62,-254.36 381.87,-243.77 375.07,-251.89 381.62,-254.36"/>
</g>
<!-- Node5 -->
<g id="node5" class="node">
<title>Node5</title>
<g id="a_node5"><a xlink:href="classshrapnel_1_1effect_1_1valvestate_1_1FMVFilter.html#a6a9cccdc8327967719bb5c07f4942ed9" target="_top" xlink:title=" ">
<polygon fill="none" stroke="black" points="167,-333.5 167,-363.5 298,-363.5 298,-333.5 167,-333.5"/>
<text text-anchor="start" x="175" y="-351.5" font-family="Helvetica,sans-Serif" font-size="10.00">shrapnel::effect::valvestate</text>
<text text-anchor="middle" x="232.5" y="-340.5" font-family="Helvetica,sans-Serif" font-size="10.00">::FMVFilter::prepare</text>
</a>
</g>
</g>
<!-- Node1&#45;&gt;Node5 -->
<g id="edge4" class="edge">
<title>Node1&#45;&gt;Node5</title>
<path fill="none" stroke="midnightblue" d="M370.5,-251.79C354.22,-273.27 327.55,-304.73 298,-324.5 292.94,-327.89 287.33,-330.88 281.6,-333.5"/>
<polygon fill="midnightblue" stroke="midnightblue" points="373.47,-253.66 376.61,-243.54 367.85,-249.49 373.47,-253.66"/>
</g>
<!-- Node6 -->
<g id="node6" class="node">
<title>Node6</title>
<g id="a_node6"><a xlink:href="classshrapnel_1_1effect_1_1valvestate_1_1GainControl.html#a256c703d233942e1880c6ff4d24da943" target="_top" xlink:title=" ">
<polygon fill="none" stroke="black" points="167,-284.5 167,-314.5 298,-314.5 298,-284.5 167,-284.5"/>
<text text-anchor="start" x="175" y="-302.5" font-family="Helvetica,sans-Serif" font-size="10.00">shrapnel::effect::valvestate</text>
<text text-anchor="middle" x="232.5" y="-291.5" font-family="Helvetica,sans-Serif" font-size="10.00">::GainControl::prepare</text>
</a>
</g>
</g>
<!-- Node1&#45;&gt;Node6 -->
<g id="edge6" class="edge">
<title>Node1&#45;&gt;Node6</title>
<path fill="none" stroke="midnightblue" d="M351.52,-248.59C335.42,-257.35 316,-267.44 298,-275.5 291.13,-278.58 283.74,-281.59 276.49,-284.39"/>
<polygon fill="midnightblue" stroke="midnightblue" points="353.5,-251.5 360.58,-243.61 350.13,-245.36 353.5,-251.5"/>
</g>
<!-- Node7 -->
<g id="node7" class="node">
<title>Node7</title>
<g id="a_node7"><a xlink:href="classshrapnel_1_1effect_1_1valvestate_1_1InputFilter.html#a10ed8d325168463a2d2d9934bd38496c" target="_top" xlink:title=" ">
<polygon fill="none" stroke="black" points="167,-235.5 167,-265.5 298,-265.5 298,-235.5 167,-235.5"/>
<text text-anchor="start" x="175" y="-253.5" font-family="Helvetica,sans-Serif" font-size="10.00">shrapnel::effect::valvestate</text>
<text text-anchor="middle" x="232.5" y="-242.5" font-family="Helvetica,sans-Serif" font-size="10.00">::InputFilter::prepare</text>
</a>
</g>
</g>
<!-- Node1&#45;&gt;Node7 -->
<g id="edge8" class="edge">
<title>Node1&#45;&gt;Node7</title>
<path fill="none" stroke="midnightblue" d="M323.59,-237.59C315.15,-238.8 306.49,-240.04 298.03,-241.25"/>
<polygon fill="midnightblue" stroke="midnightblue" points="324.34,-241.02 333.74,-236.13 323.35,-234.09 324.34,-241.02"/>
</g>
<!-- Node8 -->
<g id="node8" class="node">
<title>Node8</title>
<g id="a_node8"><a xlink:href="classContourFilter.html#a7b6a52867eb20a552fb8f66abe35881e" target="_top" xlink:title=" ">
<polygon fill="none" stroke="black" points="183.5,-197 183.5,-216 281.5,-216 281.5,-197 183.5,-197"/>
<text text-anchor="middle" x="232.5" y="-204" font-family="Helvetica,sans-Serif" font-size="10.00">ContourFilter::reset</text>
</a>
</g>
</g>
<!-- Node1&#45;&gt;Node8 -->
<g id="edge10" class="edge">
<title>Node1&#45;&gt;Node8</title>
<path fill="none" stroke="midnightblue" d="M323.63,-219.42C309.56,-217.4 294.87,-215.3 281.53,-213.38"/>
<polygon fill="midnightblue" stroke="midnightblue" points="323.35,-222.91 333.74,-220.87 324.34,-215.98 323.35,-222.91"/>
</g>
<!-- Node10 -->
<g id="node10" class="node">
<title>Node10</title>
<g id="a_node10"><a xlink:href="classshrapnel_1_1effect_1_1valvestate_1_1FMVFilter.html#a825b1d349a4bcb1e4250174b4de9a7a4" target="_top" xlink:title=" ">
<polygon fill="none" stroke="black" points="167,-147.5 167,-177.5 298,-177.5 298,-147.5 167,-147.5"/>
<text text-anchor="start" x="175" y="-165.5" font-family="Helvetica,sans-Serif" font-size="10.00">shrapnel::effect::valvestate</text>
<text text-anchor="middle" x="232.5" y="-154.5" font-family="Helvetica,sans-Serif" font-size="10.00">::FMVFilter::reset</text>
</a>
</g>
</g>
<!-- Node1&#45;&gt;Node10 -->
<g id="edge12" class="edge">
<title>Node1&#45;&gt;Node10</title>
<path fill="none" stroke="midnightblue" d="M346.41,-209.16C331.3,-202.13 313.96,-194.26 298,-187.5 290.15,-184.17 281.69,-180.77 273.57,-177.59"/>
<polygon fill="midnightblue" stroke="midnightblue" points="344.95,-212.34 355.5,-213.41 347.92,-206 344.95,-212.34"/>
</g>
<!-- Node11 -->
<g id="node11" class="node">
<title>Node11</title>
<g id="a_node11"><a xlink:href="classshrapnel_1_1effect_1_1valvestate_1_1GainControl.html#ac97c745cedd949319f4064d2b20c5d17" target="_top" xlink:title=" ">
<polygon fill="none" stroke="black" points="167,-98.5 167,-128.5 298,-128.5 298,-98.5 167,-98.5"/>
<text text-anchor="start" x="175" y="-116.5" font-family="Helvetica,sans-Serif" font-size="10.00">shrapnel::effect::valvestate</text>
<text text-anchor="middle" x="232.5" y="-105.5" font-family="Helvetica,sans-Serif" font-size="10.00">::GainControl::reset</text>
</a>
</g>
</g>
<!-- Node1&#45;&gt;Node11 -->
<g id="edge14" class="edge">
<title>Node1&#45;&gt;Node11</title>
<path fill="none" stroke="midnightblue" d="M368.78,-205.17C352.16,-185.2 325.98,-156.85 298,-138.5 292.28,-134.75 285.9,-131.42 279.45,-128.53"/>
<polygon fill="midnightblue" stroke="midnightblue" points="366.27,-207.63 375.3,-213.17 371.69,-203.2 366.27,-207.63"/>
</g>
<!-- Node12 -->
<g id="node12" class="node">
<title>Node12</title>
<g id="a_node12"><a xlink:href="classshrapnel_1_1effect_1_1valvestate_1_1InputFilter.html#a2b8b63ac88d63972aac7d67121e9f97c" target="_top" xlink:title=" ">
<polygon fill="none" stroke="black" points="167,-49.5 167,-79.5 298,-79.5 298,-49.5 167,-49.5"/>
<text text-anchor="start" x="175" y="-67.5" font-family="Helvetica,sans-Serif" font-size="10.00">shrapnel::effect::valvestate</text>
<text text-anchor="middle" x="232.5" y="-56.5" font-family="Helvetica,sans-Serif" font-size="10.00">::InputFilter::reset</text>
</a>
</g>
</g>
<!-- Node1&#45;&gt;Node12 -->
<g id="edge16" class="edge">
<title>Node1&#45;&gt;Node12</title>
<path fill="none" stroke="midnightblue" d="M377.27,-203.91C363.84,-172.91 336.79,-119.89 298,-88.5 293.82,-85.12 289.12,-82.18 284.2,-79.64"/>
<polygon fill="midnightblue" stroke="midnightblue" points="374.05,-205.28 381.15,-213.15 380.51,-202.57 374.05,-205.28"/>
</g>
<!-- Node13 -->
<g id="node13" class="node">
<title>Node13</title>
<g id="a_node13"><a xlink:href="classshrapnel_1_1effect_1_1Wah.html#a4fff3cd22246b2a05d6742555c0ce1c6" target="_top" xlink:title=" ">
<polygon fill="none" stroke="black" points="179.5,-0.5 179.5,-30.5 285.5,-30.5 285.5,-0.5 179.5,-0.5"/>
<text text-anchor="start" x="187.5" y="-18.5" font-family="Helvetica,sans-Serif" font-size="10.00">shrapnel::effect::Wah</text>
<text text-anchor="middle" x="232.5" y="-7.5" font-family="Helvetica,sans-Serif" font-size="10.00">::reset</text>
</a>
</g>
</g>
<!-- Node1&#45;&gt;Node13 -->
<g id="edge18" class="edge">
<title>Node1&#45;&gt;Node13</title>
<path fill="none" stroke="midnightblue" d="M381.66,-203.45C371.89,-163.42 347.4,-84.92 298,-39.5 294.31,-36.1 290.09,-33.18 285.62,-30.65"/>
<polygon fill="midnightblue" stroke="midnightblue" points="378.31,-204.49 383.99,-213.44 385.13,-202.9 378.31,-204.49"/>
</g>
<!-- Node4 -->
<g id="node4" class="node">
<title>Node4</title>
<g id="a_node4"><a xlink:href="classshrapnel_1_1effect_1_1valvestate_1_1Valvestate.html#abf44a0b2ea0b9e071e522b027c3b8fd0" target="_top" xlink:title=" ">
<polygon fill="none" stroke="black" points="0,-308.5 0,-338.5 131,-338.5 131,-308.5 0,-308.5"/>
<text text-anchor="start" x="8" y="-326.5" font-family="Helvetica,sans-Serif" font-size="10.00">shrapnel::effect::valvestate</text>
<text text-anchor="middle" x="65.5" y="-315.5" font-family="Helvetica,sans-Serif" font-size="10.00">::Valvestate::prepare</text>
</a>
</g>
</g>
<!-- Node3&#45;&gt;Node4 -->
<g id="edge3" class="edge">
<title>Node3&#45;&gt;Node4</title>
<path fill="none" stroke="midnightblue" d="M185.29,-379.96C179.09,-377.97 172.85,-375.8 167,-373.5 141.42,-363.46 113.53,-349.31 93.64,-338.63"/>
<polygon fill="midnightblue" stroke="midnightblue" points="184.38,-383.34 194.96,-382.95 186.44,-376.65 184.38,-383.34"/>
</g>
<!-- Node5&#45;&gt;Node4 -->
<g id="edge5" class="edge">
<title>Node5&#45;&gt;Node4</title>
<path fill="none" stroke="midnightblue" d="M156.76,-337.18C148.18,-335.88 139.48,-334.56 131.05,-333.28"/>
<polygon fill="midnightblue" stroke="midnightblue" points="156.35,-340.65 166.76,-338.69 157.4,-333.73 156.35,-340.65"/>
</g>
<!-- Node6&#45;&gt;Node4 -->
<g id="edge7" class="edge">
<title>Node6&#45;&gt;Node4</title>
<path fill="none" stroke="midnightblue" d="M156.76,-310.37C148.18,-311.62 139.48,-312.88 131.05,-314.11"/>
<polygon fill="midnightblue" stroke="midnightblue" points="157.37,-313.82 166.76,-308.92 156.36,-306.89 157.37,-313.82"/>
</g>
<!-- Node7&#45;&gt;Node4 -->
<g id="edge9" class="edge">
<title>Node7&#45;&gt;Node4</title>
<path fill="none" stroke="midnightblue" d="M181.79,-269.33C176.77,-271.36 171.77,-273.44 167,-275.5 143.04,-285.85 116.4,-298.63 96.57,-308.4"/>
<polygon fill="midnightblue" stroke="midnightblue" points="183.4,-272.45 191.4,-265.5 180.81,-265.95 183.4,-272.45"/>
</g>
<!-- Node9 -->
<g id="node9" class="node">
<title>Node9</title>
<g id="a_node9"><a xlink:href="classshrapnel_1_1effect_1_1valvestate_1_1Valvestate.html#a3bd582d4ea0b1b4672fca513d4caac01" target="_top" xlink:title=" ">
<polygon fill="none" stroke="black" points="0,-123.5 0,-153.5 131,-153.5 131,-123.5 0,-123.5"/>
<text text-anchor="start" x="8" y="-141.5" font-family="Helvetica,sans-Serif" font-size="10.00">shrapnel::effect::valvestate</text>
<text text-anchor="middle" x="65.5" y="-130.5" font-family="Helvetica,sans-Serif" font-size="10.00">::Valvestate::reset</text>
</a>
</g>
</g>
<!-- Node8&#45;&gt;Node9 -->
<g id="edge11" class="edge">
<title>Node8&#45;&gt;Node9</title>
<path fill="none" stroke="midnightblue" d="M185.54,-193.99C179.25,-191.98 172.93,-189.8 167,-187.5 141.66,-177.67 113.98,-163.94 94.1,-153.51"/>
<polygon fill="midnightblue" stroke="midnightblue" points="184.73,-197.4 195.32,-197 186.79,-190.71 184.73,-197.4"/>
</g>
<!-- Node10&#45;&gt;Node9 -->
<g id="edge13" class="edge">
<title>Node10&#45;&gt;Node9</title>
<path fill="none" stroke="midnightblue" d="M156.76,-151.63C148.18,-150.38 139.48,-149.12 131.05,-147.89"/>
<polygon fill="midnightblue" stroke="midnightblue" points="156.36,-155.11 166.76,-153.08 157.37,-148.18 156.36,-155.11"/>
</g>
<!-- Node11&#45;&gt;Node9 -->
<g id="edge15" class="edge">
<title>Node11&#45;&gt;Node9</title>
<path fill="none" stroke="midnightblue" d="M156.76,-124.82C148.18,-126.12 139.48,-127.44 131.05,-128.72"/>
<polygon fill="midnightblue" stroke="midnightblue" points="157.4,-128.27 166.76,-123.31 156.35,-121.35 157.4,-128.27"/>
</g>
<!-- Node12&#45;&gt;Node9 -->
<g id="edge17" class="edge">
<title>Node12&#45;&gt;Node9</title>
<path fill="none" stroke="midnightblue" d="M179.56,-83.28C175.29,-84.99 171.06,-86.74 167,-88.5 142.15,-99.27 114.65,-113.09 94.71,-123.46"/>
<polygon fill="midnightblue" stroke="midnightblue" points="180.88,-86.52 188.92,-79.62 178.33,-80 180.88,-86.52"/>
</g>
</g>
</svg>
