<?xml version="1.0" encoding="UTF-8" standalone="no"?>
<!DOCTYPE svg PUBLIC "-//W3C//DTD SVG 1.1//EN"
 "http://www.w3.org/Graphics/SVG/1.1/DTD/svg11.dtd">
<!-- Generated by graphviz version 3.0.0 (20221109.1736)
 -->
<!-- Title: shrapnel::presets::PresetsManager::read Pages: 1 -->
<svg width="404pt" height="66pt"
 viewBox="0.00 0.00 404.00 66.00" xmlns="http://www.w3.org/2000/svg" xmlns:xlink="http://www.w3.org/1999/xlink">
<g id="graph0" class="graph" transform="scale(1 1) rotate(0) translate(4 62)">
<title>shrapnel::presets::PresetsManager::read</title>
<!-- Node1 -->
<g id="node1" class="node">
<title>Node1</title>
<g id="a_node1"><a xlink:title=" ">
<polygon fill="#bfbfbf" stroke="black" points="0,-14 0,-44 111,-44 111,-14 0,-14"/>
<text text-anchor="start" x="8" y="-32" font-family="Helvetica,sans-Serif" font-size="10.00">shrapnel::presets::</text>
<text text-anchor="middle" x="55.5" y="-21" font-family="Helvetica,sans-Serif" font-size="10.00">PresetsManager::read</text>
</a>
</g>
</g>
<!-- Node2 -->
<g id="node2" class="node">
<title>Node2</title>
<g id="a_node2"><a xlink:href="namespaceshrapnel_1_1presets.html#aa35a346d4965d22500c2f29e78b8b27f" target="_top" xlink:title=" ">
<polygon fill="none" stroke="black" points="147,-14 147,-44 242,-44 242,-14 147,-14"/>
<text text-anchor="start" x="155" y="-32" font-family="Helvetica,sans-Serif" font-size="10.00">shrapnel::presets::</text>
<text text-anchor="middle" x="194.5" y="-21" font-family="Helvetica,sans-Serif" font-size="10.00">deserialise_preset</text>
</a>
</g>
</g>
<!-- Node1&#45;&gt;Node2 -->
<g id="edge1" class="edge">
<title>Node1&#45;&gt;Node2</title>
<path fill="none" stroke="midnightblue" d="M111.04,-29C119.42,-29 128.09,-29 136.53,-29"/>
<polygon fill="midnightblue" stroke="midnightblue" points="136.66,-32.5 146.66,-29 136.66,-25.5 136.66,-32.5"/>
</g>
<!-- Node3 -->
<g id="node3" class="node">
<title>Node3</title>
<g id="a_node3"><a xlink:href="presets_8pb-c_8c.html#a0eeddbe8391292d777b7bff96628c65b" target="_top" xlink:title=" ">
<polygon fill="none" stroke="black" points="278,-38.5 278,-57.5 396,-57.5 396,-38.5 278,-38.5"/>
<text text-anchor="middle" x="337" y="-45.5" font-family="Helvetica,sans-Serif" font-size="10.00">preset__free_unpacked</text>
</a>
</g>
</g>
<!-- Node2&#45;&gt;Node3 -->
<g id="edge2" class="edge">
<title>Node2&#45;&gt;Node3</title>
<path fill="none" stroke="midnightblue" d="M242.28,-35.33C250.43,-36.43 259.05,-37.59 267.64,-38.76"/>
<polygon fill="midnightblue" stroke="midnightblue" points="267.29,-42.24 277.67,-40.11 268.23,-35.3 267.29,-42.24"/>
</g>
<!-- Node4 -->
<g id="node4" class="node">
<title>Node4</title>
<g id="a_node4"><a xlink:href="presets_8pb-c_8c.html#afd9fb9b75e63f658e3fa41069bbbead3" target="_top" xlink:title=" ">
<polygon fill="none" stroke="black" points="294,-0.5 294,-19.5 380,-19.5 380,-0.5 294,-0.5"/>
<text text-anchor="middle" x="337" y="-7.5" font-family="Helvetica,sans-Serif" font-size="10.00">preset__unpack</text>
</a>
</g>
</g>
<!-- Node2&#45;&gt;Node4 -->
<g id="edge3" class="edge">
<title>Node2&#45;&gt;Node4</title>
<path fill="none" stroke="midnightblue" d="M242.28,-22.67C255.52,-20.88 270,-18.93 283.54,-17.09"/>
<polygon fill="midnightblue" stroke="midnightblue" points="284.24,-20.53 293.68,-15.72 283.3,-13.59 284.24,-20.53"/>
</g>
</g>
</svg>
