<?xml version="1.0" encoding="UTF-8" standalone="no"?>
<!DOCTYPE svg PUBLIC "-//W3C//DTD SVG 1.1//EN"
 "http://www.w3.org/Graphics/SVG/1.1/DTD/svg11.dtd">
<!-- Generated by graphviz version 3.0.0 (20221109.1736)
 -->
<!-- Title: shrapnel::dsp::IirFilter::set_coefficients Pages: 1 -->
<svg width="837pt" height="323pt"
 viewBox="0.00 0.00 837.00 322.50" xmlns="http://www.w3.org/2000/svg" xmlns:xlink="http://www.w3.org/1999/xlink">
<g id="graph0" class="graph" transform="scale(1 1) rotate(0) translate(4 318.5)">
<title>shrapnel::dsp::IirFilter::set_coefficients</title>
<!-- Node1 -->
<g id="node1" class="node">
<title>Node1</title>
<g id="a_node1"><a xlink:title=" ">
<polygon fill="#bfbfbf" stroke="black" points="721,-147.5 721,-177.5 829,-177.5 829,-147.5 721,-147.5"/>
<text text-anchor="start" x="729" y="-165.5" font-family="Helvetica,sans-Serif" font-size="10.00">shrapnel::dsp::IirFilter</text>
<text text-anchor="middle" x="775" y="-154.5" font-family="Helvetica,sans-Serif" font-size="10.00">::set_coefficients</text>
</a>
</g>
</g>
<!-- Node2 -->
<g id="node2" class="node">
<title>Node2</title>
<g id="a_node2"><a xlink:href="noise__gate_8cpp.html#a2691256497a1cec4e14434f48eccfb56" target="_top" xlink:title="Set the sample rate in Hz.">
<polygon fill="none" stroke="black" points="556.5,-295 556.5,-314 669.5,-314 669.5,-295 556.5,-295"/>
<text text-anchor="middle" x="613" y="-302" font-family="Helvetica,sans-Serif" font-size="10.00">gate_set_sample_rate</text>
</a>
</g>
</g>
<!-- Node1&#45;&gt;Node2 -->
<g id="edge1" class="edge">
<title>Node1&#45;&gt;Node2</title>
<path fill="none" stroke="midnightblue" d="M762.88,-186.68C748.75,-214.69 721.7,-260.23 685,-285.5 679.32,-289.41 672.88,-292.51 666.25,-294.98"/>
<polygon fill="midnightblue" stroke="midnightblue" points="766.09,-188.08 767.33,-177.56 759.8,-185.01 766.09,-188.08"/>
</g>
<!-- Node7 -->
<g id="node7" class="node">
<title>Node7</title>
<g id="a_node7"><a xlink:href="classshrapnel_1_1effect_1_1valvestate_1_1InputFilter.html#ad5d84e0e19e8a3f4ec3058b217d69c6e" target="_top" xlink:title=" ">
<polygon fill="none" stroke="black" points="547.5,-245.5 547.5,-275.5 678.5,-275.5 678.5,-245.5 547.5,-245.5"/>
<text text-anchor="start" x="555.5" y="-263.5" font-family="Helvetica,sans-Serif" font-size="10.00">shrapnel::effect::valvestate</text>
<text text-anchor="middle" x="613" y="-252.5" font-family="Helvetica,sans-Serif" font-size="10.00">::InputFilter::prepare</text>
</a>
</g>
</g>
<!-- Node1&#45;&gt;Node7 -->
<g id="edge6" class="edge">
<title>Node1&#45;&gt;Node7</title>
<path fill="none" stroke="midnightblue" d="M751.98,-184.8C734.94,-201 710.1,-222.47 685,-236.5 679.09,-239.8 672.66,-242.75 666.15,-245.36"/>
<polygon fill="midnightblue" stroke="midnightblue" points="754.48,-187.24 759.23,-177.77 749.61,-182.22 754.48,-187.24"/>
</g>
<!-- Node9 -->
<g id="node9" class="node">
<title>Node9</title>
<g id="a_node9"><a xlink:href="classshrapnel_1_1effect_1_1Wah.html#a74e9a5e72d1dce44364be3e6a3787cd2" target="_top" xlink:title=" ">
<polygon fill="none" stroke="black" points="560,-196.5 560,-226.5 666,-226.5 666,-196.5 560,-196.5"/>
<text text-anchor="start" x="568" y="-214.5" font-family="Helvetica,sans-Serif" font-size="10.00">shrapnel::effect::Wah</text>
<text text-anchor="middle" x="613" y="-203.5" font-family="Helvetica,sans-Serif" font-size="10.00">::process</text>
</a>
</g>
</g>
<!-- Node1&#45;&gt;Node9 -->
<g id="edge8" class="edge">
<title>Node1&#45;&gt;Node9</title>
<path fill="none" stroke="midnightblue" d="M714.86,-180.61C697.85,-185.82 679.48,-191.45 663.15,-196.45"/>
<polygon fill="midnightblue" stroke="midnightblue" points="716.15,-183.88 724.69,-177.6 714.1,-177.18 716.15,-183.88"/>
</g>
<!-- Node10 -->
<g id="node10" class="node">
<title>Node10</title>
<g id="a_node10"><a xlink:href="classContourFilter.html#a882a98cba62c5082d3afa3ebc828fe65" target="_top" xlink:title=" ">
<polygon fill="none" stroke="black" points="568,-147.5 568,-177.5 658,-177.5 658,-147.5 568,-147.5"/>
<text text-anchor="start" x="576" y="-165.5" font-family="Helvetica,sans-Serif" font-size="10.00">ContourFilter::set</text>
<text text-anchor="middle" x="613" y="-154.5" font-family="Helvetica,sans-Serif" font-size="10.00">_parameter</text>
</a>
</g>
</g>
<!-- Node1&#45;&gt;Node10 -->
<g id="edge9" class="edge">
<title>Node1&#45;&gt;Node10</title>
<path fill="none" stroke="midnightblue" d="M710.56,-162.5C693.04,-162.5 674.42,-162.5 658.25,-162.5"/>
<polygon fill="midnightblue" stroke="midnightblue" points="710.72,-166 720.72,-162.5 710.72,-159 710.72,-166"/>
</g>
<!-- Node13 -->
<g id="node13" class="node">
<title>Node13</title>
<g id="a_node13"><a xlink:href="classshrapnel_1_1effect_1_1valvestate_1_1GainControl.html#a21755e85c7ea233796c12d6c485f4b75" target="_top" xlink:title=" ">
<polygon fill="none" stroke="black" points="541,-98.5 541,-128.5 685,-128.5 685,-98.5 541,-98.5"/>
<text text-anchor="start" x="549" y="-116.5" font-family="Helvetica,sans-Serif" font-size="10.00">shrapnel::effect::valvestate</text>
<text text-anchor="middle" x="613" y="-105.5" font-family="Helvetica,sans-Serif" font-size="10.00">::GainControl::set_parameters</text>
</a>
</g>
</g>
<!-- Node1&#45;&gt;Node13 -->
<g id="edge12" class="edge">
<title>Node1&#45;&gt;Node13</title>
<path fill="none" stroke="midnightblue" d="M714.86,-144.39C697.85,-139.18 679.48,-133.55 663.15,-128.55"/>
<polygon fill="midnightblue" stroke="midnightblue" points="714.1,-147.82 724.69,-147.4 716.15,-141.12 714.1,-147.82"/>
</g>
<!-- Node15 -->
<g id="node15" class="node">
<title>Node15</title>
<g id="a_node15"><a xlink:href="classshrapnel_1_1effect_1_1valvestate_1_1FMVFilter.html#a98ef2d50b4b3529f4154b2f46900c3cf" target="_top" xlink:title=" ">
<polygon fill="none" stroke="black" points="545,-49.5 545,-79.5 681,-79.5 681,-49.5 545,-49.5"/>
<text text-anchor="start" x="553" y="-67.5" font-family="Helvetica,sans-Serif" font-size="10.00">shrapnel::effect::valvestate</text>
<text text-anchor="middle" x="613" y="-56.5" font-family="Helvetica,sans-Serif" font-size="10.00">::FMVFilter::set_parameters</text>
</a>
</g>
</g>
<!-- Node1&#45;&gt;Node15 -->
<g id="edge14" class="edge">
<title>Node1&#45;&gt;Node15</title>
<path fill="none" stroke="midnightblue" d="M751.98,-140.2C734.94,-124 710.1,-102.53 685,-88.5 679.09,-85.2 672.66,-82.25 666.15,-79.64"/>
<polygon fill="midnightblue" stroke="midnightblue" points="749.61,-142.78 759.23,-147.23 754.48,-137.76 749.61,-142.78"/>
</g>
<!-- Node17 -->
<g id="node17" class="node">
<title>Node17</title>
<g id="a_node17"><a xlink:href="classshrapnel_1_1effect_1_1Wah.html#a991ec437539df23580180840b2ee17d0" target="_top" xlink:title=" ">
<polygon fill="none" stroke="black" points="560,-0.5 560,-30.5 666,-30.5 666,-0.5 560,-0.5"/>
<text text-anchor="start" x="568" y="-18.5" font-family="Helvetica,sans-Serif" font-size="10.00">shrapnel::effect::Wah</text>
<text text-anchor="middle" x="613" y="-7.5" font-family="Helvetica,sans-Serif" font-size="10.00">::set_sample_rate</text>
</a>
</g>
</g>
<!-- Node1&#45;&gt;Node17 -->
<g id="edge16" class="edge">
<title>Node1&#45;&gt;Node17</title>
<path fill="none" stroke="midnightblue" d="M762.36,-138.29C747.89,-110.63 720.68,-65.8 685,-39.5 679.34,-35.33 672.92,-31.85 666.29,-28.96"/>
<polygon fill="midnightblue" stroke="midnightblue" points="759.29,-139.97 766.94,-147.3 765.53,-136.8 759.29,-139.97"/>
</g>
<!-- Node3 -->
<g id="node3" class="node">
<title>Node3</title>
<g id="a_node3"><a xlink:href="process_8cpp.html#a98369bdde76db63c92e6173d29c6dc78" target="_top" xlink:title=" ">
<polygon fill="none" stroke="black" points="404.5,-295 404.5,-314 473.5,-314 473.5,-295 404.5,-295"/>
<text text-anchor="middle" x="439" y="-302" font-family="Helvetica,sans-Serif" font-size="10.00">process_init</text>
</a>
</g>
</g>
<!-- Node2&#45;&gt;Node3 -->
<g id="edge2" class="edge">
<title>Node2&#45;&gt;Node3</title>
<path fill="none" stroke="midnightblue" d="M546.07,-304.5C521.28,-304.5 494.14,-304.5 473.52,-304.5"/>
<polygon fill="midnightblue" stroke="midnightblue" points="546.16,-308 556.16,-304.5 546.16,-301 546.16,-308"/>
</g>
<!-- Node4 -->
<g id="node4" class="node">
<title>Node4</title>
<g id="a_node4"><a xlink:href="i2s_8cpp.html#a4e37f563a34c1a559515cc40782caf07" target="_top" xlink:title=" ">
<polygon fill="none" stroke="black" points="231,-295 231,-314 337,-314 337,-295 231,-295"/>
<text text-anchor="middle" x="284" y="-302" font-family="Helvetica,sans-Serif" font-size="10.00">i2s_processing_task</text>
</a>
</g>
</g>
<!-- Node3&#45;&gt;Node4 -->
<g id="edge3" class="edge">
<title>Node3&#45;&gt;Node4</title>
<path fill="none" stroke="midnightblue" d="M394.31,-304.5C376.49,-304.5 355.75,-304.5 337.15,-304.5"/>
<polygon fill="midnightblue" stroke="midnightblue" points="394.42,-308 404.42,-304.5 394.42,-301 394.42,-308"/>
</g>
<!-- Node5 -->
<g id="node5" class="node">
<title>Node5</title>
<g id="a_node5"><a xlink:href="i2s_8cpp.html#ab949ae727fd1608d465238ba29ab2dab" target="_top" xlink:title=" ">
<polygon fill="none" stroke="black" points="136,-295 136,-314 195,-314 195,-295 136,-295"/>
<text text-anchor="middle" x="165.5" y="-302" font-family="Helvetica,sans-Serif" font-size="10.00">i2s_setup</text>
</a>
</g>
</g>
<!-- Node4&#45;&gt;Node5 -->
<g id="edge4" class="edge">
<title>Node4&#45;&gt;Node5</title>
<path fill="none" stroke="midnightblue" d="M220.81,-304.5C211.89,-304.5 203.1,-304.5 195.27,-304.5"/>
<polygon fill="midnightblue" stroke="midnightblue" points="220.88,-308 230.88,-304.5 220.88,-301 220.88,-308"/>
</g>
<!-- Node6 -->
<g id="node6" class="node">
<title>Node6</title>
<g id="a_node6"><a xlink:href="namespaceshrapnel.html#a9f09f4ea750643310af9143a53735b7d" target="_top" xlink:title=" ">
<polygon fill="none" stroke="black" points="0,-295 0,-314 100,-314 100,-295 0,-295"/>
<text text-anchor="middle" x="50" y="-302" font-family="Helvetica,sans-Serif" font-size="10.00">shrapnel::app_main</text>
</a>
</g>
</g>
<!-- Node5&#45;&gt;Node6 -->
<g id="edge5" class="edge">
<title>Node5&#45;&gt;Node6</title>
<path fill="none" stroke="midnightblue" d="M125.85,-304.5C117.66,-304.5 108.91,-304.5 100.39,-304.5"/>
<polygon fill="midnightblue" stroke="midnightblue" points="125.86,-308 135.86,-304.5 125.86,-301 125.86,-308"/>
</g>
<!-- Node8 -->
<g id="node8" class="node">
<title>Node8</title>
<g id="a_node8"><a xlink:href="classshrapnel_1_1effect_1_1valvestate_1_1Valvestate.html#a42f2f6749648daf577cb40bf85564494" target="_top" xlink:title=" ">
<polygon fill="none" stroke="black" points="373.5,-245.5 373.5,-275.5 504.5,-275.5 504.5,-245.5 373.5,-245.5"/>
<text text-anchor="start" x="381.5" y="-263.5" font-family="Helvetica,sans-Serif" font-size="10.00">shrapnel::effect::valvestate</text>
<text text-anchor="middle" x="439" y="-252.5" font-family="Helvetica,sans-Serif" font-size="10.00">::Valvestate::prepare</text>
</a>
</g>
</g>
<!-- Node7&#45;&gt;Node8 -->
<g id="edge7" class="edge">
<title>Node7&#45;&gt;Node8</title>
<path fill="none" stroke="midnightblue" d="M537.16,-260.5C526.32,-260.5 515.23,-260.5 504.61,-260.5"/>
<polygon fill="midnightblue" stroke="midnightblue" points="537.46,-264 547.46,-260.5 537.46,-257 537.46,-264"/>
</g>
<!-- Node11 -->
<g id="node11" class="node">
<title>Node11</title>
<g id="a_node11"><a xlink:href="classContourFilter.html#af4486d2fb4e9beb086f2b11b5f48d111" target="_top" xlink:title=" ">
<polygon fill="none" stroke="black" points="373,-197 373,-216 505,-216 505,-197 373,-197"/>
<text text-anchor="middle" x="439" y="-204" font-family="Helvetica,sans-Serif" font-size="10.00">ContourFilter::ContourFilter</text>
</a>
</g>
</g>
<!-- Node10&#45;&gt;Node11 -->
<g id="edge10" class="edge">
<title>Node10&#45;&gt;Node11</title>
<path fill="none" stroke="midnightblue" d="M557.89,-176.34C531.62,-183.06 500.74,-190.96 477.17,-196.99"/>
<polygon fill="midnightblue" stroke="midnightblue" points="558.89,-179.7 567.71,-173.83 557.15,-172.92 558.89,-179.7"/>
</g>
<!-- Node12 -->
<g id="node12" class="node">
<title>Node12</title>
<g id="a_node12"><a xlink:href="classshrapnel_1_1effect_1_1valvestate_1_1Valvestate.html#a000102bdfca76953f1c7f6e2f6a11d8e" target="_top" xlink:title=" ">
<polygon fill="none" stroke="black" points="373.5,-147.5 373.5,-177.5 504.5,-177.5 504.5,-147.5 373.5,-147.5"/>
<text text-anchor="start" x="381.5" y="-165.5" font-family="Helvetica,sans-Serif" font-size="10.00">shrapnel::effect::valvestate</text>
<text text-anchor="middle" x="439" y="-154.5" font-family="Helvetica,sans-Serif" font-size="10.00">::Valvestate::set_contour</text>
</a>
</g>
</g>
<!-- Node10&#45;&gt;Node12 -->
<g id="edge11" class="edge">
<title>Node10&#45;&gt;Node12</title>
<path fill="none" stroke="midnightblue" d="M557.5,-162.5C540.69,-162.5 522,-162.5 504.58,-162.5"/>
<polygon fill="midnightblue" stroke="midnightblue" points="557.71,-166 567.71,-162.5 557.71,-159 557.71,-166"/>
</g>
<!-- Node14 -->
<g id="node14" class="node">
<title>Node14</title>
<g id="a_node14"><a xlink:href="classshrapnel_1_1effect_1_1valvestate_1_1Valvestate.html#a813c3b0d5212e73dd829859c0ada1073" target="_top" xlink:title=" ">
<polygon fill="none" stroke="black" points="373.5,-98.5 373.5,-128.5 504.5,-128.5 504.5,-98.5 373.5,-98.5"/>
<text text-anchor="start" x="381.5" y="-116.5" font-family="Helvetica,sans-Serif" font-size="10.00">shrapnel::effect::valvestate</text>
<text text-anchor="middle" x="439" y="-105.5" font-family="Helvetica,sans-Serif" font-size="10.00">::Valvestate::set_gain</text>
</a>
</g>
</g>
<!-- Node13&#45;&gt;Node14 -->
<g id="edge13" class="edge">
<title>Node13&#45;&gt;Node14</title>
<path fill="none" stroke="midnightblue" d="M530.43,-113.5C521.78,-113.5 513.06,-113.5 504.63,-113.5"/>
<polygon fill="midnightblue" stroke="midnightblue" points="530.55,-117 540.55,-113.5 530.55,-110 530.55,-117"/>
</g>
<!-- Node16 -->
<g id="node16" class="node">
<title>Node16</title>
<g id="a_node16"><a xlink:href="classshrapnel_1_1effect_1_1valvestate_1_1Valvestate.html#a3dc9593f8e440e58d3ddefc6bfe8f37e" target="_top" xlink:title=" ">
<polygon fill="none" stroke="black" points="373.5,-49.5 373.5,-79.5 504.5,-79.5 504.5,-49.5 373.5,-49.5"/>
<text text-anchor="start" x="381.5" y="-67.5" font-family="Helvetica,sans-Serif" font-size="10.00">shrapnel::effect::valvestate</text>
<text text-anchor="middle" x="439" y="-56.5" font-family="Helvetica,sans-Serif" font-size="10.00">::Valvestate::set_fmv</text>
</a>
</g>
</g>
<!-- Node15&#45;&gt;Node16 -->
<g id="edge15" class="edge">
<title>Node15&#45;&gt;Node16</title>
<path fill="none" stroke="midnightblue" d="M534.3,-64.5C524.42,-64.5 514.4,-64.5 504.76,-64.5"/>
<polygon fill="midnightblue" stroke="midnightblue" points="534.51,-68 544.51,-64.5 534.51,-61 534.51,-68"/>
</g>
</g>
</svg>
