<?xml version="1.0" encoding="UTF-8" standalone="no"?>
<!DOCTYPE svg PUBLIC "-//W3C//DTD SVG 1.1//EN"
 "http://www.w3.org/Graphics/SVG/1.1/DTD/svg11.dtd">
<!-- Generated by graphviz version 3.0.0 (20221109.1736)
 -->
<!-- Title: EspHeapTracing::instance Pages: 1 -->
<svg width="284pt" height="88pt"
 viewBox="0.00 0.00 284.00 88.00" xmlns="http://www.w3.org/2000/svg" xmlns:xlink="http://www.w3.org/1999/xlink">
<g id="graph0" class="graph" transform="scale(1 1) rotate(0) translate(4 84)">
<title>EspHeapTracing::instance</title>
<!-- Node1 -->
<g id="node1" class="node">
<title>Node1</title>
<g id="a_node1"><a xlink:title=" ">
<polygon fill="#bfbfbf" stroke="black" points="146,-30 146,-49 276,-49 276,-30 146,-30"/>
<text text-anchor="middle" x="211" y="-37" font-family="Helvetica,sans-Serif" font-size="10.00">EspHeapTracing::instance</text>
</a>
</g>
</g>
<!-- Node1&#45;&gt;Node1 -->
<g id="edge1" class="edge">
<title>Node1&#45;&gt;Node1</title>
<path fill="none" stroke="midnightblue" d="M240.12,-58.15C238.9,-63.44 229.2,-67.5 211,-67.5 183.27,-67.5 175.26,-58.07 186.96,-49.26"/>
<polygon fill="midnightblue" stroke="midnightblue" points="243.04,-56.21 235.04,-49.26 236.96,-59.68 243.04,-56.21"/>
</g>
<!-- Node2 -->
<g id="node2" class="node">
<title>Node2</title>
<g id="a_node2"><a xlink:href="classScopedHeapTracing.html#a918ff2ada4cef9fbefe68210f8efaf6c" target="_top" xlink:title=" ">
<polygon fill="none" stroke="black" points="0,-49.5 0,-79.5 110,-79.5 110,-49.5 0,-49.5"/>
<text text-anchor="start" x="8" y="-67.5" font-family="Helvetica,sans-Serif" font-size="10.00">ScopedHeapTracing::</text>
<text text-anchor="middle" x="55" y="-56.5" font-family="Helvetica,sans-Serif" font-size="10.00">ScopedHeapTracing</text>
</a>
</g>
</g>
<!-- Node1&#45;&gt;Node2 -->
<g id="edge2" class="edge">
<title>Node1&#45;&gt;Node2</title>
<path fill="none" stroke="midnightblue" d="M141.41,-50.64C130.95,-52.33 120.28,-54.06 110.19,-55.7"/>
<polygon fill="midnightblue" stroke="midnightblue" points="142.03,-54.08 151.34,-49.02 140.91,-47.17 142.03,-54.08"/>
</g>
<!-- Node3 -->
<g id="node3" class="node">
<title>Node3</title>
<g id="a_node3"><a xlink:href="classScopedHeapTracing.html#a1ff6c1df63e3c78583fab6e5fd444fcf" target="_top" xlink:title=" ">
<polygon fill="none" stroke="black" points="0,-0.5 0,-30.5 110,-30.5 110,-0.5 0,-0.5"/>
<text text-anchor="start" x="8" y="-18.5" font-family="Helvetica,sans-Serif" font-size="10.00">ScopedHeapTracing::</text>
<text text-anchor="middle" x="55" y="-7.5" font-family="Helvetica,sans-Serif" font-size="10.00">~ScopedHeapTracing</text>
</a>
</g>
</g>
<!-- Node1&#45;&gt;Node3 -->
<g id="edge3" class="edge">
<title>Node1&#45;&gt;Node3</title>
<path fill="none" stroke="midnightblue" d="M138.74,-28.39C129.12,-26.9 119.38,-25.38 110.13,-23.94"/>
<polygon fill="midnightblue" stroke="midnightblue" points="138.27,-31.86 148.69,-29.95 139.35,-24.95 138.27,-31.86"/>
</g>
</g>
</svg>
