<?xml version="1.0" encoding="UTF-8" standalone="no"?>
<!DOCTYPE svg PUBLIC "-//W3C//DTD SVG 1.1//EN"
 "http://www.w3.org/Graphics/SVG/1.1/DTD/svg11.dtd">
<!-- Generated by graphviz version 3.0.0 (20221109.1736)
 -->
<!-- Title: shrapnel::os::Timer::is_active Pages: 1 -->
<svg width="285pt" height="88pt"
 viewBox="0.00 0.00 285.00 88.00" xmlns="http://www.w3.org/2000/svg" xmlns:xlink="http://www.w3.org/1999/xlink">
<g id="graph0" class="graph" transform="scale(1 1) rotate(0) translate(4 84)">
<title>shrapnel::os::Timer::is_active</title>
<!-- Node1 -->
<g id="node1" class="node">
<title>Node1</title>
<g id="a_node1"><a xlink:title=" ">
<polygon fill="#bfbfbf" stroke="black" points="179,-24.5 179,-54.5 277,-54.5 277,-24.5 179,-24.5"/>
<text text-anchor="start" x="187" y="-42.5" font-family="Helvetica,sans-Serif" font-size="10.00">shrapnel::os::Timer</text>
<text text-anchor="middle" x="228" y="-31.5" font-family="Helvetica,sans-Serif" font-size="10.00">::is_active</text>
</a>
</g>
</g>
<!-- Node2 -->
<g id="node2" class="node">
<title>Node2</title>
<g id="a_node2"><a xlink:href="classshrapnel_1_1MainThread.html#a3fbd4e3d302b729138881a88c7aafd76" target="_top" xlink:title=" ">
<polygon fill="none" stroke="black" points="17,-49.5 17,-79.5 126,-79.5 126,-49.5 17,-49.5"/>
<text text-anchor="start" x="25" y="-67.5" font-family="Helvetica,sans-Serif" font-size="10.00">shrapnel::MainThread</text>
<text text-anchor="middle" x="71.5" y="-56.5" font-family="Helvetica,sans-Serif" font-size="10.00">::loop</text>
</a>
</g>
</g>
<!-- Node1&#45;&gt;Node2 -->
<g id="edge1" class="edge">
<title>Node1&#45;&gt;Node2</title>
<path fill="none" stroke="midnightblue" d="M168.94,-48.9C154.91,-51.17 139.98,-53.58 126.16,-55.82"/>
<polygon fill="midnightblue" stroke="midnightblue" points="169.65,-52.33 178.96,-47.27 168.53,-45.42 169.65,-52.33"/>
</g>
<!-- Node3 -->
<g id="node3" class="node">
<title>Node3</title>
<g id="a_node3"><a xlink:href="classshrapnel_1_1ParameterObserver.html#ae4271bba0d4f15608ac2cb048044251f" target="_top" xlink:title=" ">
<polygon fill="none" stroke="black" points="0,-0.5 0,-30.5 143,-30.5 143,-0.5 0,-0.5"/>
<text text-anchor="start" x="8" y="-18.5" font-family="Helvetica,sans-Serif" font-size="10.00">shrapnel::ParameterObserver</text>
<text text-anchor="middle" x="71.5" y="-7.5" font-family="Helvetica,sans-Serif" font-size="10.00">::notification</text>
</a>
</g>
</g>
<!-- Node1&#45;&gt;Node3 -->
<g id="edge2" class="edge">
<title>Node1&#45;&gt;Node3</title>
<path fill="none" stroke="midnightblue" d="M168.91,-30.48C160.52,-29.17 151.8,-27.82 143.19,-26.48"/>
<polygon fill="midnightblue" stroke="midnightblue" points="168.54,-33.96 178.96,-32.04 169.62,-27.04 168.54,-33.96"/>
</g>
</g>
</svg>
