<?xml version="1.0" encoding="UTF-8" standalone="no"?>
<!DOCTYPE svg PUBLIC "-//W3C//DTD SVG 1.1//EN"
 "http://www.w3.org/Graphics/SVG/1.1/DTD/svg11.dtd">
<!-- Generated by graphviz version 3.0.0 (20221109.1736)
 -->
<!-- Title: shrapnel::effect::valvestate::Valvestate::set_gain Pages: 1 -->
<svg width="463pt" height="39pt"
 viewBox="0.00 0.00 463.00 39.00" xmlns="http://www.w3.org/2000/svg" xmlns:xlink="http://www.w3.org/1999/xlink">
<g id="graph0" class="graph" transform="scale(1 1) rotate(0) translate(4 35)">
<title>shrapnel::effect::valvestate::Valvestate::set_gain</title>
<!-- Node1 -->
<g id="node1" class="node">
<title>Node1</title>
<g id="a_node1"><a xlink:title=" ">
<polygon fill="#bfbfbf" stroke="black" points="0,-0.5 0,-30.5 131,-30.5 131,-0.5 0,-0.5"/>
<text text-anchor="start" x="8" y="-18.5" font-family="Helvetica,sans-Serif" font-size="10.00">shrapnel::effect::valvestate</text>
<text text-anchor="middle" x="65.5" y="-7.5" font-family="Helvetica,sans-Serif" font-size="10.00">::Valvestate::set_gain</text>
</a>
</g>
</g>
<!-- Node2 -->
<g id="node2" class="node">
<title>Node2</title>
<g id="a_node2"><a xlink:href="classshrapnel_1_1effect_1_1valvestate_1_1GainControl.html#a21755e85c7ea233796c12d6c485f4b75" target="_top" xlink:title=" ">
<polygon fill="none" stroke="black" points="167,-0.5 167,-30.5 311,-30.5 311,-0.5 167,-0.5"/>
<text text-anchor="start" x="175" y="-18.5" font-family="Helvetica,sans-Serif" font-size="10.00">shrapnel::effect::valvestate</text>
<text text-anchor="middle" x="239" y="-7.5" font-family="Helvetica,sans-Serif" font-size="10.00">::GainControl::set_parameters</text>
</a>
</g>
</g>
<!-- Node1&#45;&gt;Node2 -->
<g id="edge1" class="edge">
<title>Node1&#45;&gt;Node2</title>
<path fill="none" stroke="midnightblue" d="M131.34,-15.5C139.56,-15.5 148.06,-15.5 156.51,-15.5"/>
<polygon fill="midnightblue" stroke="midnightblue" points="156.76,-19 166.76,-15.5 156.76,-12 156.76,-19"/>
</g>
<!-- Node3 -->
<g id="node3" class="node">
<title>Node3</title>
<g id="a_node3"><a xlink:href="classshrapnel_1_1dsp_1_1IirFilter.html#aa09e7c1ab99d85c0fdd1c98c80636550" target="_top" xlink:title=" ">
<polygon fill="none" stroke="black" points="347,-0.5 347,-30.5 455,-30.5 455,-0.5 347,-0.5"/>
<text text-anchor="start" x="355" y="-18.5" font-family="Helvetica,sans-Serif" font-size="10.00">shrapnel::dsp::IirFilter</text>
<text text-anchor="middle" x="401" y="-7.5" font-family="Helvetica,sans-Serif" font-size="10.00">::set_coefficients</text>
</a>
</g>
</g>
<!-- Node2&#45;&gt;Node3 -->
<g id="edge2" class="edge">
<title>Node2&#45;&gt;Node3</title>
<path fill="none" stroke="midnightblue" d="M311.11,-15.5C319.65,-15.5 328.34,-15.5 336.76,-15.5"/>
<polygon fill="midnightblue" stroke="midnightblue" points="336.88,-19 346.88,-15.5 336.88,-12 336.88,-19"/>
</g>
</g>
</svg>
