<?xml version="1.0" encoding="UTF-8" standalone="no"?>
<!DOCTYPE svg PUBLIC "-//W3C//DTD SVG 1.1//EN"
 "http://www.w3.org/Graphics/SVG/1.1/DTD/svg11.dtd">
<!-- Generated by graphviz version 3.0.0 (20221109.1736)
 -->
<!-- Title: shrapnel::dsp::IirFilter::set_coefficients Pages: 1 -->
<svg width="464pt" height="328pt"
 viewBox="0.00 0.00 464.00 328.00" xmlns="http://www.w3.org/2000/svg" xmlns:xlink="http://www.w3.org/1999/xlink">
<g id="graph0" class="graph" transform="scale(1 1) rotate(0) translate(4 324)">
<title>shrapnel::dsp::IirFilter::set_coefficients</title>
<!-- Node1 -->
<g id="node1" class="node">
<title>Node1</title>
<g id="a_node1"><a xlink:title=" ">
<polygon fill="#bfbfbf" stroke="black" points="348,-147.5 348,-177.5 456,-177.5 456,-147.5 348,-147.5"/>
<text text-anchor="start" x="356" y="-165.5" font-family="Helvetica,sans-Serif" font-size="10.00">shrapnel::dsp::IirFilter</text>
<text text-anchor="middle" x="402" y="-154.5" font-family="Helvetica,sans-Serif" font-size="10.00">::set_coefficients</text>
</a>
</g>
</g>
<!-- Node2 -->
<g id="node2" class="node">
<title>Node2</title>
<g id="a_node2"><a xlink:href="noise__gate_8cpp.html#a2691256497a1cec4e14434f48eccfb56" target="_top" xlink:title="Set the sample rate in Hz.">
<polygon fill="none" stroke="black" points="183.5,-295 183.5,-314 296.5,-314 296.5,-295 183.5,-295"/>
<text text-anchor="middle" x="240" y="-302" font-family="Helvetica,sans-Serif" font-size="10.00">gate_set_sample_rate</text>
</a>
</g>
</g>
<!-- Node1&#45;&gt;Node2 -->
<g id="edge1" class="edge">
<title>Node1&#45;&gt;Node2</title>
<path fill="none" stroke="midnightblue" d="M389.88,-186.68C375.75,-214.69 348.7,-260.23 312,-285.5 306.32,-289.41 299.88,-292.51 293.25,-294.98"/>
<polygon fill="midnightblue" stroke="midnightblue" points="393.09,-188.08 394.33,-177.56 386.8,-185.01 393.09,-188.08"/>
</g>
<!-- Node4 -->
<g id="node4" class="node">
<title>Node4</title>
<g id="a_node4"><a xlink:href="classshrapnel_1_1effect_1_1Wah.html#a4b8c2846e60e95f20173224d0d88dee6" target="_top" xlink:title=" ">
<polygon fill="none" stroke="black" points="187,-245.5 187,-275.5 293,-275.5 293,-245.5 187,-245.5"/>
<text text-anchor="start" x="195" y="-263.5" font-family="Helvetica,sans-Serif" font-size="10.00">shrapnel::effect::Wah</text>
<text text-anchor="middle" x="240" y="-252.5" font-family="Helvetica,sans-Serif" font-size="10.00">::prepare</text>
</a>
</g>
</g>
<!-- Node1&#45;&gt;Node4 -->
<g id="edge3" class="edge">
<title>Node1&#45;&gt;Node4</title>
<path fill="none" stroke="midnightblue" d="M378.98,-184.8C361.94,-201 337.1,-222.47 312,-236.5 306.09,-239.8 299.66,-242.75 293.15,-245.36"/>
<polygon fill="midnightblue" stroke="midnightblue" points="381.48,-187.24 386.23,-177.77 376.61,-182.22 381.48,-187.24"/>
</g>
<!-- Node5 -->
<g id="node5" class="node">
<title>Node5</title>
<g id="a_node5"><a xlink:href="classshrapnel_1_1effect_1_1valvestate_1_1InputFilter.html#a10ed8d325168463a2d2d9934bd38496c" target="_top" xlink:title=" ">
<polygon fill="none" stroke="black" points="174.5,-196.5 174.5,-226.5 305.5,-226.5 305.5,-196.5 174.5,-196.5"/>
<text text-anchor="start" x="182.5" y="-214.5" font-family="Helvetica,sans-Serif" font-size="10.00">shrapnel::effect::valvestate</text>
<text text-anchor="middle" x="240" y="-203.5" font-family="Helvetica,sans-Serif" font-size="10.00">::InputFilter::prepare</text>
</a>
</g>
</g>
<!-- Node1&#45;&gt;Node5 -->
<g id="edge4" class="edge">
<title>Node1&#45;&gt;Node5</title>
<path fill="none" stroke="midnightblue" d="M341.86,-180.61C324.85,-185.82 306.48,-191.45 290.15,-196.45"/>
<polygon fill="midnightblue" stroke="midnightblue" points="343.15,-183.88 351.69,-177.6 341.1,-177.18 343.15,-183.88"/>
</g>
<!-- Node7 -->
<g id="node7" class="node">
<title>Node7</title>
<g id="a_node7"><a xlink:href="classshrapnel_1_1effect_1_1Wah.html#a57bf89e9aeb8cc03b6a02a0b7190a609" target="_top" xlink:title=" ">
<polygon fill="none" stroke="black" points="187,-147.5 187,-177.5 293,-177.5 293,-147.5 187,-147.5"/>
<text text-anchor="start" x="195" y="-165.5" font-family="Helvetica,sans-Serif" font-size="10.00">shrapnel::effect::Wah</text>
<text text-anchor="middle" x="240" y="-154.5" font-family="Helvetica,sans-Serif" font-size="10.00">::process</text>
</a>
</g>
</g>
<!-- Node1&#45;&gt;Node7 -->
<g id="edge6" class="edge">
<title>Node1&#45;&gt;Node7</title>
<path fill="none" stroke="midnightblue" d="M337.68,-162.5C322.94,-162.5 307.42,-162.5 293.23,-162.5"/>
<polygon fill="midnightblue" stroke="midnightblue" points="337.72,-166 347.72,-162.5 337.72,-159 337.72,-166"/>
</g>
<!-- Node8 -->
<g id="node8" class="node">
<title>Node8</title>
<g id="a_node8"><a xlink:href="classContourFilter.html#a882a98cba62c5082d3afa3ebc828fe65" target="_top" xlink:title=" ">
<polygon fill="none" stroke="black" points="195,-98.5 195,-128.5 285,-128.5 285,-98.5 195,-98.5"/>
<text text-anchor="start" x="203" y="-116.5" font-family="Helvetica,sans-Serif" font-size="10.00">ContourFilter::set</text>
<text text-anchor="middle" x="240" y="-105.5" font-family="Helvetica,sans-Serif" font-size="10.00">_parameter</text>
</a>
</g>
</g>
<!-- Node1&#45;&gt;Node8 -->
<g id="edge7" class="edge">
<title>Node1&#45;&gt;Node8</title>
<path fill="none" stroke="midnightblue" d="M342.04,-144.44C323.26,-138.69 302.82,-132.43 285.26,-127.05"/>
<polygon fill="midnightblue" stroke="midnightblue" points="341.1,-147.82 351.69,-147.4 343.15,-141.12 341.1,-147.82"/>
</g>
<!-- Node11 -->
<g id="node11" class="node">
<title>Node11</title>
<g id="a_node11"><a xlink:href="classshrapnel_1_1effect_1_1valvestate_1_1GainControl.html#a21755e85c7ea233796c12d6c485f4b75" target="_top" xlink:title=" ">
<polygon fill="none" stroke="black" points="168,-49.5 168,-79.5 312,-79.5 312,-49.5 168,-49.5"/>
<text text-anchor="start" x="176" y="-67.5" font-family="Helvetica,sans-Serif" font-size="10.00">shrapnel::effect::valvestate</text>
<text text-anchor="middle" x="240" y="-56.5" font-family="Helvetica,sans-Serif" font-size="10.00">::GainControl::set_parameters</text>
</a>
</g>
</g>
<!-- Node1&#45;&gt;Node11 -->
<g id="edge10" class="edge">
<title>Node1&#45;&gt;Node11</title>
<path fill="none" stroke="midnightblue" d="M378.56,-140.32C361.48,-124.42 336.77,-103.44 312,-89.5 305.4,-85.78 298.14,-82.46 290.86,-79.56"/>
<polygon fill="midnightblue" stroke="midnightblue" points="376.18,-142.88 385.84,-147.22 380.99,-137.8 376.18,-142.88"/>
</g>
<!-- Node13 -->
<g id="node13" class="node">
<title>Node13</title>
<g id="a_node13"><a xlink:href="classshrapnel_1_1effect_1_1valvestate_1_1FMVFilter.html#a98ef2d50b4b3529f4154b2f46900c3cf" target="_top" xlink:title=" ">
<polygon fill="none" stroke="black" points="172,-0.5 172,-30.5 308,-30.5 308,-0.5 172,-0.5"/>
<text text-anchor="start" x="180" y="-18.5" font-family="Helvetica,sans-Serif" font-size="10.00">shrapnel::effect::valvestate</text>
<text text-anchor="middle" x="240" y="-7.5" font-family="Helvetica,sans-Serif" font-size="10.00">::FMVFilter::set_parameters</text>
</a>
</g>
</g>
<!-- Node1&#45;&gt;Node13 -->
<g id="edge12" class="edge">
<title>Node1&#45;&gt;Node13</title>
<path fill="none" stroke="midnightblue" d="M389.36,-138.29C374.89,-110.63 347.68,-65.8 312,-39.5 307.39,-36.1 302.27,-33.16 296.95,-30.63"/>
<polygon fill="midnightblue" stroke="midnightblue" points="386.29,-139.97 393.94,-147.3 392.53,-136.8 386.29,-139.97"/>
</g>
<!-- Node3 -->
<g id="node3" class="node">
<title>Node3</title>
<g id="a_node3"><a xlink:href="classshrapnel_1_1AudioProcessor.html#a4d401fb001e1dac6d5bdd9e52a6ed2e6" target="_top" xlink:title=" ">
<polygon fill="none" stroke="black" points="2.5,-289.5 2.5,-319.5 129.5,-319.5 129.5,-289.5 2.5,-289.5"/>
<text text-anchor="start" x="10.5" y="-307.5" font-family="Helvetica,sans-Serif" font-size="10.00">shrapnel::AudioProcessor</text>
<text text-anchor="middle" x="66" y="-296.5" font-family="Helvetica,sans-Serif" font-size="10.00">::prepare</text>
</a>
</g>
</g>
<!-- Node2&#45;&gt;Node3 -->
<g id="edge2" class="edge">
<title>Node2&#45;&gt;Node3</title>
<path fill="none" stroke="midnightblue" d="M172.97,-304.5C158.77,-304.5 143.79,-304.5 129.71,-304.5"/>
<polygon fill="midnightblue" stroke="midnightblue" points="173.16,-308 183.16,-304.5 173.16,-301 173.16,-308"/>
</g>
<!-- Node6 -->
<g id="node6" class="node">
<title>Node6</title>
<g id="a_node6"><a xlink:href="classshrapnel_1_1effect_1_1valvestate_1_1Valvestate.html#abf44a0b2ea0b9e071e522b027c3b8fd0" target="_top" xlink:title=" ">
<polygon fill="none" stroke="black" points="0.5,-196.5 0.5,-226.5 131.5,-226.5 131.5,-196.5 0.5,-196.5"/>
<text text-anchor="start" x="8.5" y="-214.5" font-family="Helvetica,sans-Serif" font-size="10.00">shrapnel::effect::valvestate</text>
<text text-anchor="middle" x="66" y="-203.5" font-family="Helvetica,sans-Serif" font-size="10.00">::Valvestate::prepare</text>
</a>
</g>
</g>
<!-- Node5&#45;&gt;Node6 -->
<g id="edge5" class="edge">
<title>Node5&#45;&gt;Node6</title>
<path fill="none" stroke="midnightblue" d="M164.16,-211.5C153.32,-211.5 142.23,-211.5 131.61,-211.5"/>
<polygon fill="midnightblue" stroke="midnightblue" points="164.46,-215 174.46,-211.5 164.46,-208 164.46,-215"/>
</g>
<!-- Node9 -->
<g id="node9" class="node">
<title>Node9</title>
<g id="a_node9"><a xlink:href="classContourFilter.html#af4486d2fb4e9beb086f2b11b5f48d111" target="_top" xlink:title=" ">
<polygon fill="none" stroke="black" points="0,-148 0,-167 132,-167 132,-148 0,-148"/>
<text text-anchor="middle" x="66" y="-155" font-family="Helvetica,sans-Serif" font-size="10.00">ContourFilter::ContourFilter</text>
</a>
</g>
</g>
<!-- Node8&#45;&gt;Node9 -->
<g id="edge8" class="edge">
<title>Node8&#45;&gt;Node9</title>
<path fill="none" stroke="midnightblue" d="M184.89,-127.34C158.62,-134.06 127.74,-141.96 104.17,-147.99"/>
<polygon fill="midnightblue" stroke="midnightblue" points="185.89,-130.7 194.71,-124.83 184.15,-123.92 185.89,-130.7"/>
</g>
<!-- Node10 -->
<g id="node10" class="node">
<title>Node10</title>
<g id="a_node10"><a xlink:href="classshrapnel_1_1effect_1_1valvestate_1_1Valvestate.html#a000102bdfca76953f1c7f6e2f6a11d8e" target="_top" xlink:title=" ">
<polygon fill="none" stroke="black" points="0.5,-98.5 0.5,-128.5 131.5,-128.5 131.5,-98.5 0.5,-98.5"/>
<text text-anchor="start" x="8.5" y="-116.5" font-family="Helvetica,sans-Serif" font-size="10.00">shrapnel::effect::valvestate</text>
<text text-anchor="middle" x="66" y="-105.5" font-family="Helvetica,sans-Serif" font-size="10.00">::Valvestate::set_contour</text>
</a>
</g>
</g>
<!-- Node8&#45;&gt;Node10 -->
<g id="edge9" class="edge">
<title>Node8&#45;&gt;Node10</title>
<path fill="none" stroke="midnightblue" d="M184.5,-113.5C167.69,-113.5 149,-113.5 131.58,-113.5"/>
<polygon fill="midnightblue" stroke="midnightblue" points="184.71,-117 194.71,-113.5 184.71,-110 184.71,-117"/>
</g>
<!-- Node12 -->
<g id="node12" class="node">
<title>Node12</title>
<g id="a_node12"><a xlink:href="classshrapnel_1_1effect_1_1valvestate_1_1Valvestate.html#a813c3b0d5212e73dd829859c0ada1073" target="_top" xlink:title=" ">
<polygon fill="none" stroke="black" points="0.5,-49.5 0.5,-79.5 131.5,-79.5 131.5,-49.5 0.5,-49.5"/>
<text text-anchor="start" x="8.5" y="-67.5" font-family="Helvetica,sans-Serif" font-size="10.00">shrapnel::effect::valvestate</text>
<text text-anchor="middle" x="66" y="-56.5" font-family="Helvetica,sans-Serif" font-size="10.00">::Valvestate::set_gain</text>
</a>
</g>
</g>
<!-- Node11&#45;&gt;Node12 -->
<g id="edge11" class="edge">
<title>Node11&#45;&gt;Node12</title>
<path fill="none" stroke="midnightblue" d="M157.43,-64.5C148.78,-64.5 140.06,-64.5 131.63,-64.5"/>
<polygon fill="midnightblue" stroke="midnightblue" points="157.55,-68 167.55,-64.5 157.55,-61 157.55,-68"/>
</g>
<!-- Node14 -->
<g id="node14" class="node">
<title>Node14</title>
<g id="a_node14"><a xlink:href="classshrapnel_1_1effect_1_1valvestate_1_1Valvestate.html#a3dc9593f8e440e58d3ddefc6bfe8f37e" target="_top" xlink:title=" ">
<polygon fill="none" stroke="black" points="0.5,-0.5 0.5,-30.5 131.5,-30.5 131.5,-0.5 0.5,-0.5"/>
<text text-anchor="start" x="8.5" y="-18.5" font-family="Helvetica,sans-Serif" font-size="10.00">shrapnel::effect::valvestate</text>
<text text-anchor="middle" x="66" y="-7.5" font-family="Helvetica,sans-Serif" font-size="10.00">::Valvestate::set_fmv</text>
</a>
</g>
</g>
<!-- Node13&#45;&gt;Node14 -->
<g id="edge13" class="edge">
<title>Node13&#45;&gt;Node14</title>
<path fill="none" stroke="midnightblue" d="M161.3,-15.5C151.42,-15.5 141.4,-15.5 131.76,-15.5"/>
<polygon fill="midnightblue" stroke="midnightblue" points="161.51,-19 171.51,-15.5 161.51,-12 161.51,-19"/>
</g>
</g>
</svg>
