<?xml version="1.0" encoding="UTF-8" standalone="no"?>
<!DOCTYPE svg PUBLIC "-//W3C//DTD SVG 1.1//EN"
 "http://www.w3.org/Graphics/SVG/1.1/DTD/svg11.dtd">
<!-- Generated by graphviz version 3.0.0 (20221109.1736)
 -->
<!-- Title: shrapnel::MainThread::loop Pages: 1 -->
<svg width="275pt" height="176pt"
 viewBox="0.00 0.00 275.00 176.00" xmlns="http://www.w3.org/2000/svg" xmlns:xlink="http://www.w3.org/1999/xlink">
<g id="graph0" class="graph" transform="scale(1 1) rotate(0) translate(4 172)">
<title>shrapnel::MainThread::loop</title>
<!-- Node1 -->
<g id="node1" class="node">
<title>Node1</title>
<g id="a_node1"><a xlink:title=" ">
<polygon fill="#bfbfbf" stroke="black" points="0,-66.5 0,-96.5 109,-96.5 109,-66.5 0,-66.5"/>
<text text-anchor="start" x="8" y="-84.5" font-family="Helvetica,sans-Serif" font-size="10.00">shrapnel::MainThread</text>
<text text-anchor="middle" x="54.5" y="-73.5" font-family="Helvetica,sans-Serif" font-size="10.00">::loop</text>
</a>
</g>
</g>
<!-- Node2 -->
<g id="node2" class="node">
<title>Node2</title>
<g id="a_node2"><a xlink:href="classshrapnel_1_1midi_1_1MidiUartBase.html#a62f4c08b5af0b4e486d8e6f4109f6bd1" target="_top" xlink:title=" ">
<polygon fill="none" stroke="black" points="147.5,-137.5 147.5,-167.5 264.5,-167.5 264.5,-137.5 147.5,-137.5"/>
<text text-anchor="start" x="155.5" y="-155.5" font-family="Helvetica,sans-Serif" font-size="10.00">shrapnel::midi::MidiUart</text>
<text text-anchor="middle" x="206" y="-144.5" font-family="Helvetica,sans-Serif" font-size="10.00">Base::get_byte</text>
</a>
</g>
</g>
<!-- Node1&#45;&gt;Node2 -->
<g id="edge1" class="edge">
<title>Node1&#45;&gt;Node2</title>
<path fill="none" stroke="midnightblue" d="M82.55,-96.64C100.12,-106.24 123.64,-118.65 145,-128.5 148.62,-130.17 152.39,-131.84 156.21,-133.47"/>
<polygon fill="midnightblue" stroke="midnightblue" points="155.12,-136.82 165.7,-137.46 157.83,-130.36 155.12,-136.82"/>
</g>
<!-- Node3 -->
<g id="node3" class="node">
<title>Node3</title>
<g id="a_node3"><a xlink:href="classshrapnel_1_1os_1_1Timer.html#a700eee72ff07045cfdebbef6d397668e" target="_top" xlink:title=" ">
<polygon fill="none" stroke="black" points="157,-88.5 157,-118.5 255,-118.5 255,-88.5 157,-88.5"/>
<text text-anchor="start" x="165" y="-106.5" font-family="Helvetica,sans-Serif" font-size="10.00">shrapnel::os::Timer</text>
<text text-anchor="middle" x="206" y="-95.5" font-family="Helvetica,sans-Serif" font-size="10.00">::is_active</text>
</a>
</g>
</g>
<!-- Node1&#45;&gt;Node3 -->
<g id="edge2" class="edge">
<title>Node1&#45;&gt;Node3</title>
<path fill="none" stroke="midnightblue" d="M109.05,-89.38C121.23,-91.17 134.22,-93.08 146.58,-94.9"/>
<polygon fill="midnightblue" stroke="midnightblue" points="146.39,-98.41 156.79,-96.41 147.41,-91.49 146.39,-98.41"/>
</g>
<!-- Node4 -->
<g id="node4" class="node">
<title>Node4</title>
<g id="a_node4"><a xlink:href="classshrapnel_1_1Queue.html#aea7063f7ef99b8b46f6ba1250012332c" target="_top" xlink:title=" ">
<polygon fill="none" stroke="black" points="145,-50 145,-69 267,-69 267,-50 145,-50"/>
<text text-anchor="middle" x="206" y="-57" font-family="Helvetica,sans-Serif" font-size="10.00">shrapnel::Queue::receive</text>
</a>
</g>
</g>
<!-- Node1&#45;&gt;Node4 -->
<g id="edge3" class="edge">
<title>Node1&#45;&gt;Node4</title>
<path fill="none" stroke="midnightblue" d="M109.05,-73.62C117.42,-72.39 126.18,-71.1 134.85,-69.82"/>
<polygon fill="midnightblue" stroke="midnightblue" points="135.59,-73.25 144.97,-68.33 134.57,-66.33 135.59,-73.25"/>
</g>
<!-- Node5 -->
<g id="node5" class="node">
<title>Node5</title>
<g id="a_node5"><a xlink:href="classshrapnel_1_1os_1_1Timer.html#a5ff1b2e05dc1558fb40ef551fc00d6a9" target="_top" xlink:title=" ">
<polygon fill="none" stroke="black" points="157,-0.5 157,-30.5 255,-30.5 255,-0.5 157,-0.5"/>
<text text-anchor="start" x="165" y="-18.5" font-family="Helvetica,sans-Serif" font-size="10.00">shrapnel::os::Timer</text>
<text text-anchor="middle" x="206" y="-7.5" font-family="Helvetica,sans-Serif" font-size="10.00">::start</text>
</a>
</g>
</g>
<!-- Node1&#45;&gt;Node5 -->
<g id="edge4" class="edge">
<title>Node1&#45;&gt;Node5</title>
<path fill="none" stroke="midnightblue" d="M87.69,-66.43C104.67,-58.56 125.9,-48.85 145,-40.5 149.48,-38.54 154.17,-36.53 158.85,-34.54"/>
<polygon fill="midnightblue" stroke="midnightblue" points="160.57,-37.61 168.43,-30.5 157.85,-31.16 160.57,-37.61"/>
</g>
</g>
</svg>
