<?xml version="1.0" encoding="UTF-8" standalone="no"?>
<!DOCTYPE svg PUBLIC "-//W3C//DTD SVG 1.1//EN"
 "http://www.w3.org/Graphics/SVG/1.1/DTD/svg11.dtd">
<!-- Generated by graphviz version 3.0.0 (20221109.1736)
 -->
<!-- Title: shrapnel::dsp::IirFilter::reset Pages: 1 -->
<svg width="450pt" height="411pt"
 viewBox="0.00 0.00 450.00 411.00" xmlns="http://www.w3.org/2000/svg" xmlns:xlink="http://www.w3.org/1999/xlink">
<g id="graph0" class="graph" transform="scale(1 1) rotate(0) translate(4 407)">
<title>shrapnel::dsp::IirFilter::reset</title>
<!-- Node1 -->
<g id="node1" class="node">
<title>Node1</title>
<g id="a_node1"><a xlink:title=" ">
<polygon fill="#bfbfbf" stroke="black" points="334,-186.5 334,-216.5 442,-216.5 442,-186.5 334,-186.5"/>
<text text-anchor="start" x="342" y="-204.5" font-family="Helvetica,sans-Serif" font-size="10.00">shrapnel::dsp::IirFilter</text>
<text text-anchor="middle" x="388" y="-193.5" font-family="Helvetica,sans-Serif" font-size="10.00">::reset</text>
</a>
</g>
</g>
<!-- Node2 -->
<g id="node2" class="node">
<title>Node2</title>
<g id="a_node2"><a xlink:href="classshrapnel_1_1dsp_1_1IirFilter.html#a115233b4c64c2e99a41e50dae95a3f57" target="_top" xlink:title=" ">
<polygon fill="none" stroke="black" points="178.5,-372.5 178.5,-402.5 286.5,-402.5 286.5,-372.5 178.5,-372.5"/>
<text text-anchor="start" x="186.5" y="-390.5" font-family="Helvetica,sans-Serif" font-size="10.00">shrapnel::dsp::IirFilter</text>
<text text-anchor="middle" x="232.5" y="-379.5" font-family="Helvetica,sans-Serif" font-size="10.00">::IirFilter</text>
</a>
</g>
</g>
<!-- Node1&#45;&gt;Node2 -->
<g id="edge1" class="edge">
<title>Node1&#45;&gt;Node2</title>
<path fill="none" stroke="midnightblue" d="M379.28,-226.5C367.28,-261.5 340.95,-325 298,-362.5 293.57,-366.37 288.47,-369.68 283.12,-372.49"/>
<polygon fill="midnightblue" stroke="midnightblue" points="382.73,-227.21 382.55,-216.62 376.09,-225.02 382.73,-227.21"/>
</g>
<!-- Node3 -->
<g id="node3" class="node">
<title>Node3</title>
<g id="a_node3"><a xlink:href="classContourFilter.html#a934f8c64010e0434fb88f96a01865738" target="_top" xlink:title=" ">
<polygon fill="none" stroke="black" points="178,-334 178,-353 287,-353 287,-334 178,-334"/>
<text text-anchor="middle" x="232.5" y="-341" font-family="Helvetica,sans-Serif" font-size="10.00">ContourFilter::prepare</text>
</a>
</g>
</g>
<!-- Node1&#45;&gt;Node3 -->
<g id="edge2" class="edge">
<title>Node1&#45;&gt;Node3</title>
<path fill="none" stroke="midnightblue" d="M375.54,-225.96C361.24,-253.86 334.19,-298.91 298,-324.5 292.47,-328.41 286.14,-331.52 279.65,-334"/>
<polygon fill="midnightblue" stroke="midnightblue" points="378.74,-227.38 380.06,-216.87 372.48,-224.27 378.74,-227.38"/>
</g>
<!-- Node5 -->
<g id="node5" class="node">
<title>Node5</title>
<g id="a_node5"><a xlink:href="classshrapnel_1_1effect_1_1valvestate_1_1FMVFilter.html#a1a63e9981469f1ae6eca95d4cf76bcbb" target="_top" xlink:title=" ">
<polygon fill="none" stroke="black" points="167,-284.5 167,-314.5 298,-314.5 298,-284.5 167,-284.5"/>
<text text-anchor="start" x="175" y="-302.5" font-family="Helvetica,sans-Serif" font-size="10.00">shrapnel::effect::valvestate</text>
<text text-anchor="middle" x="232.5" y="-291.5" font-family="Helvetica,sans-Serif" font-size="10.00">::FMVFilter::prepare</text>
</a>
</g>
</g>
<!-- Node1&#45;&gt;Node5 -->
<g id="edge4" class="edge">
<title>Node1&#45;&gt;Node5</title>
<path fill="none" stroke="midnightblue" d="M364.85,-223.58C347.75,-239.67 322.88,-261.09 298,-275.5 292.31,-278.79 286.09,-281.78 279.83,-284.44"/>
<polygon fill="midnightblue" stroke="midnightblue" points="367.33,-226.05 372.13,-216.61 362.49,-220.99 367.33,-226.05"/>
</g>
<!-- Node6 -->
<g id="node6" class="node">
<title>Node6</title>
<g id="a_node6"><a xlink:href="classshrapnel_1_1effect_1_1valvestate_1_1GainControl.html#ac5c7d32b1b4a40768d1bc20130dad75f" target="_top" xlink:title=" ">
<polygon fill="none" stroke="black" points="167,-235.5 167,-265.5 298,-265.5 298,-235.5 167,-235.5"/>
<text text-anchor="start" x="175" y="-253.5" font-family="Helvetica,sans-Serif" font-size="10.00">shrapnel::effect::valvestate</text>
<text text-anchor="middle" x="232.5" y="-242.5" font-family="Helvetica,sans-Serif" font-size="10.00">::GainControl::prepare</text>
</a>
</g>
</g>
<!-- Node1&#45;&gt;Node6 -->
<g id="edge6" class="edge">
<title>Node1&#45;&gt;Node6</title>
<path fill="none" stroke="midnightblue" d="M329.8,-219.76C313.61,-224.93 296.18,-230.49 280.65,-235.45"/>
<polygon fill="midnightblue" stroke="midnightblue" points="331.23,-222.98 339.69,-216.6 329.1,-216.31 331.23,-222.98"/>
</g>
<!-- Node7 -->
<g id="node7" class="node">
<title>Node7</title>
<g id="a_node7"><a xlink:href="classshrapnel_1_1effect_1_1valvestate_1_1InputFilter.html#ad5d84e0e19e8a3f4ec3058b217d69c6e" target="_top" xlink:title=" ">
<polygon fill="none" stroke="black" points="167,-186.5 167,-216.5 298,-216.5 298,-186.5 167,-186.5"/>
<text text-anchor="start" x="175" y="-204.5" font-family="Helvetica,sans-Serif" font-size="10.00">shrapnel::effect::valvestate</text>
<text text-anchor="middle" x="232.5" y="-193.5" font-family="Helvetica,sans-Serif" font-size="10.00">::InputFilter::prepare</text>
</a>
</g>
</g>
<!-- Node1&#45;&gt;Node7 -->
<g id="edge8" class="edge">
<title>Node1&#45;&gt;Node7</title>
<path fill="none" stroke="midnightblue" d="M323.59,-201.5C315.15,-201.5 306.49,-201.5 298.03,-201.5"/>
<polygon fill="midnightblue" stroke="midnightblue" points="323.74,-205 333.74,-201.5 323.74,-198 323.74,-205"/>
</g>
<!-- Node8 -->
<g id="node8" class="node">
<title>Node8</title>
<g id="a_node8"><a xlink:href="classshrapnel_1_1effect_1_1valvestate_1_1FMVFilter.html#a825b1d349a4bcb1e4250174b4de9a7a4" target="_top" xlink:title=" ">
<polygon fill="none" stroke="black" points="167,-137.5 167,-167.5 298,-167.5 298,-137.5 167,-137.5"/>
<text text-anchor="start" x="175" y="-155.5" font-family="Helvetica,sans-Serif" font-size="10.00">shrapnel::effect::valvestate</text>
<text text-anchor="middle" x="232.5" y="-144.5" font-family="Helvetica,sans-Serif" font-size="10.00">::FMVFilter::reset</text>
</a>
</g>
</g>
<!-- Node1&#45;&gt;Node8 -->
<g id="edge10" class="edge">
<title>Node1&#45;&gt;Node8</title>
<path fill="none" stroke="midnightblue" d="M329.8,-183.24C313.61,-178.07 296.18,-172.51 280.65,-167.55"/>
<polygon fill="midnightblue" stroke="midnightblue" points="329.1,-186.69 339.69,-186.4 331.23,-180.02 329.1,-186.69"/>
</g>
<!-- Node10 -->
<g id="node10" class="node">
<title>Node10</title>
<g id="a_node10"><a xlink:href="classshrapnel_1_1effect_1_1valvestate_1_1InputFilter.html#a2b8b63ac88d63972aac7d67121e9f97c" target="_top" xlink:title=" ">
<polygon fill="none" stroke="black" points="167,-88.5 167,-118.5 298,-118.5 298,-88.5 167,-88.5"/>
<text text-anchor="start" x="175" y="-106.5" font-family="Helvetica,sans-Serif" font-size="10.00">shrapnel::effect::valvestate</text>
<text text-anchor="middle" x="232.5" y="-95.5" font-family="Helvetica,sans-Serif" font-size="10.00">::InputFilter::reset</text>
</a>
</g>
</g>
<!-- Node1&#45;&gt;Node10 -->
<g id="edge12" class="edge">
<title>Node1&#45;&gt;Node10</title>
<path fill="none" stroke="midnightblue" d="M364.43,-179.55C347.29,-163.77 322.55,-142.83 298,-128.5 291.78,-124.87 284.93,-121.56 278.09,-118.64"/>
<polygon fill="midnightblue" stroke="midnightblue" points="362.05,-182.12 371.75,-186.39 366.84,-177.01 362.05,-182.12"/>
</g>
<!-- Node11 -->
<g id="node11" class="node">
<title>Node11</title>
<g id="a_node11"><a xlink:href="classContourFilter.html#ac12574e070f454adde05a20b80407d16" target="_top" xlink:title=" ">
<polygon fill="none" stroke="black" points="183.5,-50 183.5,-69 281.5,-69 281.5,-50 183.5,-50"/>
<text text-anchor="middle" x="232.5" y="-57" font-family="Helvetica,sans-Serif" font-size="10.00">ContourFilter::reset</text>
</a>
</g>
</g>
<!-- Node1&#45;&gt;Node11 -->
<g id="edge14" class="edge">
<title>Node1&#45;&gt;Node11</title>
<path fill="none" stroke="midnightblue" d="M375.43,-177.33C361.02,-149.74 333.87,-105.14 298,-79.5 291.9,-75.14 284.81,-71.7 277.62,-69.01"/>
<polygon fill="midnightblue" stroke="midnightblue" points="372.34,-178.98 379.98,-186.32 378.58,-175.81 372.34,-178.98"/>
</g>
<!-- Node12 -->
<g id="node12" class="node">
<title>Node12</title>
<g id="a_node12"><a xlink:href="classshrapnel_1_1effect_1_1valvestate_1_1GainControl.html#aeff6e479058004d15d749a5c5a504461" target="_top" xlink:title=" ">
<polygon fill="none" stroke="black" points="167,-0.5 167,-30.5 298,-30.5 298,-0.5 167,-0.5"/>
<text text-anchor="start" x="175" y="-18.5" font-family="Helvetica,sans-Serif" font-size="10.00">shrapnel::effect::valvestate</text>
<text text-anchor="middle" x="232.5" y="-7.5" font-family="Helvetica,sans-Serif" font-size="10.00">::GainControl::reset</text>
</a>
</g>
</g>
<!-- Node1&#45;&gt;Node12 -->
<g id="edge16" class="edge">
<title>Node1&#45;&gt;Node12</title>
<path fill="none" stroke="midnightblue" d="M379.28,-176.5C367.28,-141.5 340.95,-78 298,-40.5 293.57,-36.63 288.47,-33.32 283.12,-30.51"/>
<polygon fill="midnightblue" stroke="midnightblue" points="376.09,-177.98 382.55,-186.38 382.73,-175.79 376.09,-177.98"/>
</g>
<!-- Node4 -->
<g id="node4" class="node">
<title>Node4</title>
<g id="a_node4"><a xlink:href="classshrapnel_1_1effect_1_1valvestate_1_1Valvestate.html#a42f2f6749648daf577cb40bf85564494" target="_top" xlink:title=" ">
<polygon fill="none" stroke="black" points="0,-259.5 0,-289.5 131,-289.5 131,-259.5 0,-259.5"/>
<text text-anchor="start" x="8" y="-277.5" font-family="Helvetica,sans-Serif" font-size="10.00">shrapnel::effect::valvestate</text>
<text text-anchor="middle" x="65.5" y="-266.5" font-family="Helvetica,sans-Serif" font-size="10.00">::Valvestate::prepare</text>
</a>
</g>
</g>
<!-- Node3&#45;&gt;Node4 -->
<g id="edge3" class="edge">
<title>Node3&#45;&gt;Node4</title>
<path fill="none" stroke="midnightblue" d="M185.29,-330.96C179.09,-328.97 172.85,-326.8 167,-324.5 141.42,-314.46 113.53,-300.31 93.64,-289.63"/>
<polygon fill="midnightblue" stroke="midnightblue" points="184.38,-334.34 194.96,-333.95 186.44,-327.65 184.38,-334.34"/>
</g>
<!-- Node5&#45;&gt;Node4 -->
<g id="edge5" class="edge">
<title>Node5&#45;&gt;Node4</title>
<path fill="none" stroke="midnightblue" d="M156.76,-288.18C148.18,-286.88 139.48,-285.56 131.05,-284.28"/>
<polygon fill="midnightblue" stroke="midnightblue" points="156.35,-291.65 166.76,-289.69 157.4,-284.73 156.35,-291.65"/>
</g>
<!-- Node6&#45;&gt;Node4 -->
<g id="edge7" class="edge">
<title>Node6&#45;&gt;Node4</title>
<path fill="none" stroke="midnightblue" d="M156.76,-261.37C148.18,-262.62 139.48,-263.88 131.05,-265.11"/>
<polygon fill="midnightblue" stroke="midnightblue" points="157.37,-264.82 166.76,-259.92 156.36,-257.89 157.37,-264.82"/>
</g>
<!-- Node7&#45;&gt;Node4 -->
<g id="edge9" class="edge">
<title>Node7&#45;&gt;Node4</title>
<path fill="none" stroke="midnightblue" d="M181.79,-220.33C176.77,-222.36 171.77,-224.44 167,-226.5 143.04,-236.85 116.4,-249.63 96.57,-259.4"/>
<polygon fill="midnightblue" stroke="midnightblue" points="183.4,-223.45 191.4,-216.5 180.81,-216.95 183.4,-223.45"/>
</g>
<!-- Node9 -->
<g id="node9" class="node">
<title>Node9</title>
<g id="a_node9"><a xlink:href="classshrapnel_1_1effect_1_1valvestate_1_1Valvestate.html#a97e42d4d01d1120464aceb8c3c2dcb86" target="_top" xlink:title=" ">
<polygon fill="none" stroke="black" points="0,-66.5 0,-96.5 131,-96.5 131,-66.5 0,-66.5"/>
<text text-anchor="start" x="8" y="-84.5" font-family="Helvetica,sans-Serif" font-size="10.00">shrapnel::effect::valvestate</text>
<text text-anchor="middle" x="65.5" y="-73.5" font-family="Helvetica,sans-Serif" font-size="10.00">::Valvestate::reset</text>
</a>
</g>
</g>
<!-- Node8&#45;&gt;Node9 -->
<g id="edge11" class="edge">
<title>Node8&#45;&gt;Node9</title>
<path fill="none" stroke="midnightblue" d="M180.01,-133.77C175.59,-132.03 171.2,-130.26 167,-128.5 143.2,-118.52 116.78,-106.11 97,-96.55"/>
<polygon fill="midnightblue" stroke="midnightblue" points="179.08,-137.16 189.67,-137.5 181.6,-130.63 179.08,-137.16"/>
</g>
<!-- Node10&#45;&gt;Node9 -->
<g id="edge13" class="edge">
<title>Node10&#45;&gt;Node9</title>
<path fill="none" stroke="midnightblue" d="M156.76,-93.53C148.18,-92.39 139.48,-91.23 131.05,-90.11"/>
<polygon fill="midnightblue" stroke="midnightblue" points="156.39,-97.02 166.76,-94.87 157.31,-90.08 156.39,-97.02"/>
</g>
<!-- Node11&#45;&gt;Node9 -->
<g id="edge15" class="edge">
<title>Node11&#45;&gt;Node9</title>
<path fill="none" stroke="midnightblue" d="M173.18,-67.28C159.62,-69.08 145.11,-71.02 131.3,-72.86"/>
<polygon fill="midnightblue" stroke="midnightblue" points="173.88,-70.71 183.33,-65.92 172.96,-63.77 173.88,-70.71"/>
</g>
<!-- Node12&#45;&gt;Node9 -->
<g id="edge17" class="edge">
<title>Node12&#45;&gt;Node9</title>
<path fill="none" stroke="midnightblue" d="M182.73,-34.3C177.42,-36.38 172.09,-38.47 167,-40.5 145.81,-48.93 122.2,-58.55 103.19,-66.35"/>
<polygon fill="midnightblue" stroke="midnightblue" points="184.19,-37.49 192.23,-30.59 181.64,-30.97 184.19,-37.49"/>
</g>
</g>
</svg>
