<?xml version="1.0" encoding="UTF-8" standalone="no"?>
<!DOCTYPE svg PUBLIC "-//W3C//DTD SVG 1.1//EN"
 "http://www.w3.org/Graphics/SVG/1.1/DTD/svg11.dtd">
<!-- Generated by graphviz version 3.0.0 (20221109.1736)
 -->
<!-- Title: shrapnel::os::Timer::start Pages: 1 -->
<svg width="285pt" height="137pt"
 viewBox="0.00 0.00 285.00 137.00" xmlns="http://www.w3.org/2000/svg" xmlns:xlink="http://www.w3.org/1999/xlink">
<g id="graph0" class="graph" transform="scale(1 1) rotate(0) translate(4 133)">
<title>shrapnel::os::Timer::start</title>
<!-- Node1 -->
<g id="node1" class="node">
<title>Node1</title>
<g id="a_node1"><a xlink:title=" ">
<polygon fill="#bfbfbf" stroke="black" points="179,-49.5 179,-79.5 277,-79.5 277,-49.5 179,-49.5"/>
<text text-anchor="start" x="187" y="-67.5" font-family="Helvetica,sans-Serif" font-size="10.00">shrapnel::os::Timer</text>
<text text-anchor="middle" x="228" y="-56.5" font-family="Helvetica,sans-Serif" font-size="10.00">::start</text>
</a>
</g>
</g>
<!-- Node2 -->
<g id="node2" class="node">
<title>Node2</title>
<g id="a_node2"><a xlink:href="classshrapnel_1_1MainThread.html#a3fbd4e3d302b729138881a88c7aafd76" target="_top" xlink:title=" ">
<polygon fill="none" stroke="black" points="17,-98.5 17,-128.5 126,-128.5 126,-98.5 17,-98.5"/>
<text text-anchor="start" x="25" y="-116.5" font-family="Helvetica,sans-Serif" font-size="10.00">shrapnel::MainThread</text>
<text text-anchor="middle" x="71.5" y="-105.5" font-family="Helvetica,sans-Serif" font-size="10.00">::loop</text>
</a>
</g>
</g>
<!-- Node1&#45;&gt;Node2 -->
<g id="edge1" class="edge">
<title>Node1&#45;&gt;Node2</title>
<path fill="none" stroke="midnightblue" d="M169.43,-82.76C153.13,-87.93 135.59,-93.49 119.96,-98.45"/>
<polygon fill="midnightblue" stroke="midnightblue" points="170.91,-85.96 179.38,-79.6 168.79,-79.29 170.91,-85.96"/>
</g>
<!-- Node3 -->
<g id="node3" class="node">
<title>Node3</title>
<g id="a_node3"><a xlink:href="classshrapnel_1_1MainThread.html#ae8fb0ffec700057fcd8c52751dd01081" target="_top" xlink:title=" ">
<polygon fill="none" stroke="black" points="17,-49.5 17,-79.5 126,-79.5 126,-49.5 17,-49.5"/>
<text text-anchor="start" x="25" y="-67.5" font-family="Helvetica,sans-Serif" font-size="10.00">shrapnel::MainThread</text>
<text text-anchor="middle" x="71.5" y="-56.5" font-family="Helvetica,sans-Serif" font-size="10.00">::MainThread</text>
</a>
</g>
</g>
<!-- Node1&#45;&gt;Node3 -->
<g id="edge2" class="edge">
<title>Node1&#45;&gt;Node3</title>
<path fill="none" stroke="midnightblue" d="M168.94,-64.5C154.91,-64.5 139.98,-64.5 126.16,-64.5"/>
<polygon fill="midnightblue" stroke="midnightblue" points="168.96,-68 178.96,-64.5 168.96,-61 168.96,-68"/>
</g>
<!-- Node4 -->
<g id="node4" class="node">
<title>Node4</title>
<g id="a_node4"><a xlink:href="classshrapnel_1_1ParameterObserver.html#ae4271bba0d4f15608ac2cb048044251f" target="_top" xlink:title=" ">
<polygon fill="none" stroke="black" points="0,-0.5 0,-30.5 143,-30.5 143,-0.5 0,-0.5"/>
<text text-anchor="start" x="8" y="-18.5" font-family="Helvetica,sans-Serif" font-size="10.00">shrapnel::ParameterObserver</text>
<text text-anchor="middle" x="71.5" y="-7.5" font-family="Helvetica,sans-Serif" font-size="10.00">::notification</text>
</a>
</g>
</g>
<!-- Node1&#45;&gt;Node4 -->
<g id="edge3" class="edge">
<title>Node1&#45;&gt;Node4</title>
<path fill="none" stroke="midnightblue" d="M169.43,-46.24C153.13,-41.07 135.59,-35.51 119.96,-30.55"/>
<polygon fill="midnightblue" stroke="midnightblue" points="168.79,-49.71 179.38,-49.4 170.91,-43.04 168.79,-49.71"/>
</g>
</g>
</svg>
