<?xml version="1.0" encoding="UTF-8" standalone="no"?>
<!DOCTYPE svg PUBLIC "-//W3C//DTD SVG 1.1//EN"
 "http://www.w3.org/Graphics/SVG/1.1/DTD/svg11.dtd">
<!-- Generated by graphviz version 3.0.0 (20221109.1736)
 -->
<!-- Title: shrapnel::midi::MappingManager&lt; AudioParametersT, MAX_MAPPINGS, MAX_OBSERVERS &gt; Pages: 1 -->
<svg width="395pt" height="88pt"
 viewBox="0.00 0.00 395.00 88.00" xmlns="http://www.w3.org/2000/svg" xmlns:xlink="http://www.w3.org/1999/xlink">
<g id="graph0" class="graph" transform="scale(1 1) rotate(0) translate(4 84)">
<title>shrapnel::midi::MappingManager&lt; AudioParametersT, MAX_MAPPINGS, MAX_OBSERVERS &gt;</title>
<!-- Node1 -->
<g id="node1" class="node">
<title>Node1</title>
<g id="a_node1"><a xlink:title=" ">
<polygon fill="#bfbfbf" stroke="black" points="193,-19 193,-60 387,-60 387,-19 193,-19"/>
<text text-anchor="start" x="201" y="-48" font-family="Helvetica,sans-Serif" font-size="10.00">shrapnel::midi::MappingManager</text>
<text text-anchor="start" x="201" y="-37" font-family="Helvetica,sans-Serif" font-size="10.00">&lt; AudioParametersT, MAX_MAPPINGS,</text>
<text text-anchor="middle" x="290" y="-26" font-family="Helvetica,sans-Serif" font-size="10.00"> MAX_OBSERVERS &gt;</text>
</a>
</g>
</g>
<!-- Node2 -->
<g id="node2" class="node">
<title>Node2</title>
<g id="a_node2"><a xlink:title=" ">
<polygon fill="none" stroke="black" points="0,-49.5 0,-79.5 157,-79.5 157,-49.5 0,-49.5"/>
<text text-anchor="start" x="8" y="-67.5" font-family="Helvetica,sans-Serif" font-size="10.00">etl::observable&lt; Mapping</text>
<text text-anchor="middle" x="78.5" y="-56.5" font-family="Helvetica,sans-Serif" font-size="10.00">Observer, MAX_OBSERVERS &gt;</text>
</a>
</g>
</g>
<!-- Node2&#45;&gt;Node1 -->
<g id="edge1" class="edge">
<title>Node2&#45;&gt;Node1</title>
<path fill="none" stroke="midnightblue" d="M167.42,-54.01C175.85,-53 184.44,-51.98 192.95,-50.96"/>
<polygon fill="midnightblue" stroke="midnightblue" points="166.73,-50.57 157.21,-55.23 167.56,-57.52 166.73,-50.57"/>
</g>
<!-- Node3 -->
<g id="node3" class="node">
<title>Node3</title>
<g id="a_node3"><a xlink:href="classshrapnel_1_1persistence_1_1Crud.html" target="_top" xlink:title=" ">
<polygon fill="none" stroke="black" points="24.5,-0.5 24.5,-30.5 132.5,-30.5 132.5,-0.5 24.5,-0.5"/>
<text text-anchor="start" x="32.5" y="-18.5" font-family="Helvetica,sans-Serif" font-size="10.00">shrapnel::persistence</text>
<text text-anchor="middle" x="78.5" y="-7.5" font-family="Helvetica,sans-Serif" font-size="10.00">::Crud&lt; Mapping &gt;</text>
</a>
</g>
</g>
<!-- Node3&#45;&gt;Node1 -->
<g id="edge2" class="edge">
<title>Node3&#45;&gt;Node1</title>
<path fill="none" stroke="midnightblue" d="M142.76,-22.75C158.51,-24.55 175.76,-26.53 192.72,-28.47"/>
<polygon fill="midnightblue" stroke="midnightblue" points="142.97,-19.25 132.64,-21.59 142.17,-26.2 142.97,-19.25"/>
</g>
</g>
</svg>
