<?xml version="1.0" encoding="UTF-8" standalone="no"?>
<!DOCTYPE svg PUBLIC "-//W3C//DTD SVG 1.1//EN"
 "http://www.w3.org/Graphics/SVG/1.1/DTD/svg11.dtd">
<!-- Generated by graphviz version 3.0.0 (20221109.1736)
 -->
<!-- Title: shrapnel::presets::PresetsManager::for_each Pages: 1 -->
<svg width="570pt" height="66pt"
 viewBox="0.00 0.00 570.00 66.00" xmlns="http://www.w3.org/2000/svg" xmlns:xlink="http://www.w3.org/1999/xlink">
<g id="graph0" class="graph" transform="scale(1 1) rotate(0) translate(4 62)">
<title>shrapnel::presets::PresetsManager::for_each</title>
<!-- Node1 -->
<g id="node1" class="node">
<title>Node1</title>
<g id="a_node1"><a xlink:title=" ">
<polygon fill="#bfbfbf" stroke="black" points="0,-14 0,-44 130,-44 130,-14 0,-14"/>
<text text-anchor="start" x="8" y="-32" font-family="Helvetica,sans-Serif" font-size="10.00">shrapnel::presets::</text>
<text text-anchor="middle" x="65" y="-21" font-family="Helvetica,sans-Serif" font-size="10.00">PresetsManager::for_each</text>
</a>
</g>
</g>
<!-- Node2 -->
<g id="node2" class="node">
<title>Node2</title>
<g id="a_node2"><a xlink:href="classshrapnel_1_1presets_1_1PresetsManager.html#a4b8b000ea2510a8c50cb12bd25512961" target="_top" xlink:title=" ">
<polygon fill="none" stroke="black" points="166,-14 166,-44 277,-44 277,-14 166,-14"/>
<text text-anchor="start" x="174" y="-32" font-family="Helvetica,sans-Serif" font-size="10.00">shrapnel::presets::</text>
<text text-anchor="middle" x="221.5" y="-21" font-family="Helvetica,sans-Serif" font-size="10.00">PresetsManager::read</text>
</a>
</g>
</g>
<!-- Node1&#45;&gt;Node2 -->
<g id="edge1" class="edge">
<title>Node1&#45;&gt;Node2</title>
<path fill="none" stroke="midnightblue" d="M130.18,-29C138.55,-29 147.13,-29 155.51,-29"/>
<polygon fill="midnightblue" stroke="midnightblue" points="155.61,-32.5 165.61,-29 155.61,-25.5 155.61,-32.5"/>
</g>
<!-- Node3 -->
<g id="node3" class="node">
<title>Node3</title>
<g id="a_node3"><a xlink:href="namespaceshrapnel_1_1presets.html#aa35a346d4965d22500c2f29e78b8b27f" target="_top" xlink:title=" ">
<polygon fill="none" stroke="black" points="313,-14 313,-44 408,-44 408,-14 313,-14"/>
<text text-anchor="start" x="321" y="-32" font-family="Helvetica,sans-Serif" font-size="10.00">shrapnel::presets::</text>
<text text-anchor="middle" x="360.5" y="-21" font-family="Helvetica,sans-Serif" font-size="10.00">deserialise_preset</text>
</a>
</g>
</g>
<!-- Node2&#45;&gt;Node3 -->
<g id="edge2" class="edge">
<title>Node2&#45;&gt;Node3</title>
<path fill="none" stroke="midnightblue" d="M277.04,-29C285.42,-29 294.09,-29 302.53,-29"/>
<polygon fill="midnightblue" stroke="midnightblue" points="302.66,-32.5 312.66,-29 302.66,-25.5 302.66,-32.5"/>
</g>
<!-- Node4 -->
<g id="node4" class="node">
<title>Node4</title>
<g id="a_node4"><a xlink:href="presets_8pb-c_8c.html#a0eeddbe8391292d777b7bff96628c65b" target="_top" xlink:title=" ">
<polygon fill="none" stroke="black" points="444,-38.5 444,-57.5 562,-57.5 562,-38.5 444,-38.5"/>
<text text-anchor="middle" x="503" y="-45.5" font-family="Helvetica,sans-Serif" font-size="10.00">preset__free_unpacked</text>
</a>
</g>
</g>
<!-- Node3&#45;&gt;Node4 -->
<g id="edge3" class="edge">
<title>Node3&#45;&gt;Node4</title>
<path fill="none" stroke="midnightblue" d="M408.28,-35.33C416.43,-36.43 425.05,-37.59 433.64,-38.76"/>
<polygon fill="midnightblue" stroke="midnightblue" points="433.29,-42.24 443.67,-40.11 434.23,-35.3 433.29,-42.24"/>
</g>
<!-- Node5 -->
<g id="node5" class="node">
<title>Node5</title>
<g id="a_node5"><a xlink:href="presets_8pb-c_8c.html#afd9fb9b75e63f658e3fa41069bbbead3" target="_top" xlink:title=" ">
<polygon fill="none" stroke="black" points="460,-0.5 460,-19.5 546,-19.5 546,-0.5 460,-0.5"/>
<text text-anchor="middle" x="503" y="-7.5" font-family="Helvetica,sans-Serif" font-size="10.00">preset__unpack</text>
</a>
</g>
</g>
<!-- Node3&#45;&gt;Node5 -->
<g id="edge4" class="edge">
<title>Node3&#45;&gt;Node5</title>
<path fill="none" stroke="midnightblue" d="M408.28,-22.67C421.52,-20.88 436,-18.93 449.54,-17.09"/>
<polygon fill="midnightblue" stroke="midnightblue" points="450.24,-20.53 459.68,-15.72 449.3,-13.59 450.24,-20.53"/>
</g>
</g>
</svg>
