<?xml version="1.0" encoding="UTF-8" standalone="no"?>
<!DOCTYPE svg PUBLIC "-//W3C//DTD SVG 1.1//EN"
 "http://www.w3.org/Graphics/SVG/1.1/DTD/svg11.dtd">
<!-- Generated by graphviz version 3.0.0 (20221109.1736)
 -->
<!-- Title: shrapnel::MainThread::MainThread Pages: 1 -->
<svg width="276pt" height="127pt"
 viewBox="0.00 0.00 276.00 126.50" xmlns="http://www.w3.org/2000/svg" xmlns:xlink="http://www.w3.org/1999/xlink">
<g id="graph0" class="graph" transform="scale(1 1) rotate(0) translate(4 122.5)">
<title>shrapnel::MainThread::MainThread</title>
<!-- Node1 -->
<g id="node1" class="node">
<title>Node1</title>
<g id="a_node1"><a xlink:title=" ">
<polygon fill="#bfbfbf" stroke="black" points="0,-49.5 0,-79.5 109,-79.5 109,-49.5 0,-49.5"/>
<text text-anchor="start" x="8" y="-67.5" font-family="Helvetica,sans-Serif" font-size="10.00">shrapnel::MainThread</text>
<text text-anchor="middle" x="54.5" y="-56.5" font-family="Helvetica,sans-Serif" font-size="10.00">::MainThread</text>
</a>
</g>
</g>
<!-- Node2 -->
<g id="node2" class="node">
<title>Node2</title>
<g id="a_node2"><a xlink:href="namespaceshrapnel_1_1midi.html#afd9cfe553455ee74095653576a11d835" target="_top" xlink:title=" ">
<polygon fill="none" stroke="black" points="145,-99 145,-118 268,-118 268,-99 145,-99"/>
<text text-anchor="middle" x="206.5" y="-106" font-family="Helvetica,sans-Serif" font-size="10.00">shrapnel::midi::from_json</text>
</a>
</g>
</g>
<!-- Node1&#45;&gt;Node2 -->
<g id="edge1" class="edge">
<title>Node1&#45;&gt;Node2</title>
<path fill="none" stroke="midnightblue" d="M106.7,-79.52C125.01,-84.89 145.42,-90.88 162.92,-96.01"/>
<polygon fill="midnightblue" stroke="midnightblue" points="162.27,-99.47 172.85,-98.92 164.24,-92.75 162.27,-99.47"/>
</g>
<!-- Node3 -->
<g id="node3" class="node">
<title>Node3</title>
<g id="a_node3"><a xlink:href="classshrapnel_1_1persistence_1_1Storage.html#a236cc0ae092063d4f83de52f88123756" target="_top" xlink:title=" ">
<polygon fill="none" stroke="black" points="152.5,-49.5 152.5,-79.5 260.5,-79.5 260.5,-49.5 152.5,-49.5"/>
<text text-anchor="start" x="160.5" y="-67.5" font-family="Helvetica,sans-Serif" font-size="10.00">shrapnel::persistence</text>
<text text-anchor="middle" x="206.5" y="-56.5" font-family="Helvetica,sans-Serif" font-size="10.00">::Storage::load</text>
</a>
</g>
</g>
<!-- Node1&#45;&gt;Node3 -->
<g id="edge2" class="edge">
<title>Node1&#45;&gt;Node3</title>
<path fill="none" stroke="midnightblue" d="M109.23,-64.5C119.98,-64.5 131.36,-64.5 142.39,-64.5"/>
<polygon fill="midnightblue" stroke="midnightblue" points="142.4,-68 152.4,-64.5 142.4,-61 142.4,-68"/>
</g>
<!-- Node4 -->
<g id="node4" class="node">
<title>Node4</title>
<g id="a_node4"><a xlink:href="classshrapnel_1_1os_1_1Timer.html#a5ff1b2e05dc1558fb40ef551fc00d6a9" target="_top" xlink:title=" ">
<polygon fill="none" stroke="black" points="157.5,-0.5 157.5,-30.5 255.5,-30.5 255.5,-0.5 157.5,-0.5"/>
<text text-anchor="start" x="165.5" y="-18.5" font-family="Helvetica,sans-Serif" font-size="10.00">shrapnel::os::Timer</text>
<text text-anchor="middle" x="206.5" y="-7.5" font-family="Helvetica,sans-Serif" font-size="10.00">::start</text>
</a>
</g>
</g>
<!-- Node1&#45;&gt;Node4 -->
<g id="edge3" class="edge">
<title>Node1&#45;&gt;Node4</title>
<path fill="none" stroke="midnightblue" d="M101.73,-49.4C116.91,-44.44 133.95,-38.87 149.76,-33.71"/>
<polygon fill="midnightblue" stroke="midnightblue" points="151,-36.98 159.42,-30.55 148.83,-30.33 151,-36.98"/>
</g>
</g>
</svg>
