<?xml version="1.0" encoding="UTF-8" standalone="no"?>
<!DOCTYPE svg PUBLIC "-//W3C//DTD SVG 1.1//EN"
 "http://www.w3.org/Graphics/SVG/1.1/DTD/svg11.dtd">
<!-- Generated by graphviz version 3.0.0 (20221109.1736)
 -->
<!-- Title: ScopedHeapTracing::ScopedHeapTracing Pages: 1 -->
<svg width="284pt" height="52pt"
 viewBox="0.00 0.00 284.00 51.50" xmlns="http://www.w3.org/2000/svg" xmlns:xlink="http://www.w3.org/1999/xlink">
<g id="graph0" class="graph" transform="scale(1 1) rotate(0) translate(4 47.5)">
<title>ScopedHeapTracing::ScopedHeapTracing</title>
<!-- Node1 -->
<g id="node1" class="node">
<title>Node1</title>
<g id="a_node1"><a xlink:title=" ">
<polygon fill="#bfbfbf" stroke="black" points="0,-0.5 0,-30.5 110,-30.5 110,-0.5 0,-0.5"/>
<text text-anchor="start" x="8" y="-18.5" font-family="Helvetica,sans-Serif" font-size="10.00">ScopedHeapTracing::</text>
<text text-anchor="middle" x="55" y="-7.5" font-family="Helvetica,sans-Serif" font-size="10.00">ScopedHeapTracing</text>
</a>
</g>
</g>
<!-- Node2 -->
<g id="node2" class="node">
<title>Node2</title>
<g id="a_node2"><a xlink:href="classEspHeapTracing.html#af49dc8f718e254d2aa165b56a0cf640e" target="_top" xlink:title=" ">
<polygon fill="none" stroke="black" points="146,-6 146,-25 276,-25 276,-6 146,-6"/>
<text text-anchor="middle" x="211" y="-13" font-family="Helvetica,sans-Serif" font-size="10.00">EspHeapTracing::instance</text>
</a>
</g>
</g>
<!-- Node1&#45;&gt;Node2 -->
<g id="edge1" class="edge">
<title>Node1&#45;&gt;Node2</title>
<path fill="none" stroke="midnightblue" d="M110.29,-15.5C118.57,-15.5 127.24,-15.5 135.85,-15.5"/>
<polygon fill="midnightblue" stroke="midnightblue" points="135.92,-19 145.92,-15.5 135.92,-12 135.92,-19"/>
</g>
<!-- Node2&#45;&gt;Node2 -->
<g id="edge2" class="edge">
<title>Node2&#45;&gt;Node2</title>
<path fill="none" stroke="midnightblue" d="M186.96,-25.26C175.26,-34.07 183.27,-43.5 211,-43.5 229.2,-43.5 238.9,-39.44 240.12,-34.15"/>
<polygon fill="midnightblue" stroke="midnightblue" points="243.04,-32.21 235.04,-25.26 236.96,-35.68 243.04,-32.21"/>
</g>
</g>
</svg>
