<?xml version="1.0" encoding="UTF-8" standalone="no"?>
<!DOCTYPE svg PUBLIC "-//W3C//DTD SVG 1.1//EN"
 "http://www.w3.org/Graphics/SVG/1.1/DTD/svg11.dtd">
<!-- Generated by graphviz version 3.0.0 (20221109.1736)
 -->
<!-- Title: dspal_delayline_destroy Pages: 1 -->
<svg width="433pt" height="39pt"
 viewBox="0.00 0.00 433.00 39.00" xmlns="http://www.w3.org/2000/svg" xmlns:xlink="http://www.w3.org/1999/xlink">
<g id="graph0" class="graph" transform="scale(1 1) rotate(0) translate(4 35)">
<title>dspal_delayline_destroy</title>
<!-- Node1 -->
<g id="node1" class="node">
<title>Node1</title>
<g id="a_node1"><a xlink:title=" ">
<polygon fill="#bfbfbf" stroke="black" points="306,-6 306,-25 425,-25 425,-6 306,-6"/>
<text text-anchor="middle" x="365.5" y="-13" font-family="Helvetica,sans-Serif" font-size="10.00">dspal_delayline_destroy</text>
</a>
</g>
</g>
<!-- Node2 -->
<g id="node2" class="node">
<title>Node2</title>
<g id="a_node2"><a xlink:href="classshrapnel_1_1effect_1_1Chorus.html#ae7bd524a7510e0236cdbfc4eda860fd7" target="_top" xlink:title=" ">
<polygon fill="none" stroke="black" points="153,-0.5 153,-30.5 270,-30.5 270,-0.5 153,-0.5"/>
<text text-anchor="start" x="161" y="-18.5" font-family="Helvetica,sans-Serif" font-size="10.00">shrapnel::effect::Chorus</text>
<text text-anchor="middle" x="211.5" y="-7.5" font-family="Helvetica,sans-Serif" font-size="10.00">::reset</text>
</a>
</g>
</g>
<!-- Node1&#45;&gt;Node2 -->
<g id="edge1" class="edge">
<title>Node1&#45;&gt;Node2</title>
<path fill="none" stroke="midnightblue" d="M295.48,-15.5C286.99,-15.5 278.4,-15.5 270.11,-15.5"/>
<polygon fill="midnightblue" stroke="midnightblue" points="295.73,-19 305.73,-15.5 295.73,-12 295.73,-19"/>
</g>
<!-- Node3 -->
<g id="node3" class="node">
<title>Node3</title>
<g id="a_node3"><a xlink:href="classshrapnel_1_1effect_1_1Chorus.html#ab721c376bd1680c901101a6f366fc6a2" target="_top" xlink:title=" ">
<polygon fill="none" stroke="black" points="0,-0.5 0,-30.5 117,-30.5 117,-0.5 0,-0.5"/>
<text text-anchor="start" x="8" y="-18.5" font-family="Helvetica,sans-Serif" font-size="10.00">shrapnel::effect::Chorus</text>
<text text-anchor="middle" x="58.5" y="-7.5" font-family="Helvetica,sans-Serif" font-size="10.00">::prepare</text>
</a>
</g>
</g>
<!-- Node2&#45;&gt;Node3 -->
<g id="edge2" class="edge">
<title>Node2&#45;&gt;Node3</title>
<path fill="none" stroke="midnightblue" d="M142.95,-15.5C134.32,-15.5 125.56,-15.5 117.11,-15.5"/>
<polygon fill="midnightblue" stroke="midnightblue" points="142.98,-19 152.98,-15.5 142.98,-12 142.98,-19"/>
</g>
</g>
</svg>
