<?xml version="1.0" encoding="UTF-8" standalone="no"?>
<!DOCTYPE svg PUBLIC "-//W3C//DTD SVG 1.1//EN"
 "http://www.w3.org/Graphics/SVG/1.1/DTD/svg11.dtd">
<!-- Generated by graphviz version 3.0.0 (20221109.1736)
 -->
<!-- Title: firmware/components Pages: 1 -->
<svg width="1972pt" height="111pt"
 viewBox="0.00 0.00 1972.00 111.00" xmlns="http://www.w3.org/2000/svg" xmlns:xlink="http://www.w3.org/1999/xlink">
<g id="graph0" class="graph" transform="scale(1 1) rotate(0) translate(4 107)">
<title>firmware/components</title>
<g id="clust1" class="cluster">
<title>clusterdir_d9edf6c004b4a7ff14fe9ae7a92214ee</title>
<g id="a_clust1"><a xlink:href="dir_d9edf6c004b4a7ff14fe9ae7a92214ee.html" target="_top" xlink:title="firmware">
<polygon fill="#edf0f7" stroke="#404040" stroke-dasharray="5,2" points="8,-8 8,-95 1956,-95 1956,-8 8,-8"/>
<text text-anchor="middle" x="982" y="-83" font-family="Helvetica,sans-Serif" font-size="10.00">firmware</text>
</a>
</g>
</g>
<g id="clust2" class="cluster">
<title>clusterdir_a7f1045ea2c2de513e4829d3edd7d5b7</title>
<g id="a_clust2"><a xlink:href="dir_a7f1045ea2c2de513e4829d3edd7d5b7.html" target="_top">
<polygon fill="#edf0f7" stroke="#404040" stroke-width="2" points="16,-16 16,-68 1948,-68 1948,-16 16,-16"/>
</a>
</g>
</g>
<!-- dir_a7f1045ea2c2de513e4829d3edd7d5b7 -->
<g id="node1" class="node">
<title>dir_a7f1045ea2c2de513e4829d3edd7d5b7</title>
<text text-anchor="middle" x="1905" y="-39.5" font-family="Helvetica,sans-Serif" font-size="10.00">components</text>
</g>
<!-- dir_0ff49e62e6551ca73513d7eae10d90cb -->
<g id="node2" class="node">
<title>dir_0ff49e62e6551ca73513d7eae10d90cb</title>
<g id="a_node2"><a xlink:href="dir_0ff49e62e6551ca73513d7eae10d90cb.html" target="_top" xlink:title="api">
<polygon fill="#a2b4d6" stroke="#404040" points="1852,-60 1798,-60 1798,-24 1852,-24 1852,-60"/>
<text text-anchor="middle" x="1825" y="-39.5" font-family="Helvetica,sans-Serif" font-size="10.00">api</text>
</a>
</g>
</g>
<!-- dir_424cdafd5d765eea3026b4b854547d8e -->
<g id="node3" class="node">
<title>dir_424cdafd5d765eea3026b4b854547d8e</title>
<g id="a_node3"><a xlink:href="dir_424cdafd5d765eea3026b4b854547d8e.html" target="_top" xlink:title="audio">
<polygon fill="#a2b4d6" stroke="#404040" points="1780,-60 1726,-60 1726,-24 1780,-24 1780,-60"/>
<text text-anchor="middle" x="1753" y="-39.5" font-family="Helvetica,sans-Serif" font-size="10.00">audio</text>
</a>
</g>
</g>
<!-- dir_c3db771be96174670a337ebcc323b757 -->
<g id="node4" class="node">
<title>dir_c3db771be96174670a337ebcc323b757</title>
<g id="a_node4"><a xlink:href="dir_c3db771be96174670a337ebcc323b757.html" target="_top" xlink:title="audio_events">
<polygon fill="#a2b4d6" stroke="#404040" points="1708,-60 1634,-60 1634,-24 1708,-24 1708,-60"/>
<text text-anchor="middle" x="1671" y="-39.5" font-family="Helvetica,sans-Serif" font-size="10.00">audio_events</text>
</a>
</g>
</g>
<!-- dir_05562540d2892fca37f05669ca30d544 -->
<g id="node5" class="node">
<title>dir_05562540d2892fca37f05669ca30d544</title>
<g id="a_node5"><a xlink:href="dir_05562540d2892fca37f05669ca30d544.html" target="_top" xlink:title="audio_param">
<polygon fill="#a2b4d6" stroke="#404040" points="1616,-60 1544,-60 1544,-24 1616,-24 1616,-60"/>
<text text-anchor="middle" x="1580" y="-39.5" font-family="Helvetica,sans-Serif" font-size="10.00">audio_param</text>
</a>
</g>
</g>
<!-- dir_03e004b673c23ff9ce09a55d0e628522 -->
<g id="node6" class="node">
<title>dir_03e004b673c23ff9ce09a55d0e628522</title>
<g id="a_node6"><a xlink:href="dir_03e004b673c23ff9ce09a55d0e628522.html" target="_top" xlink:title="cmd_handling">
<polygon fill="#a2b4d6" stroke="#404040" points="1525.5,-60 1448.5,-60 1448.5,-24 1525.5,-24 1525.5,-60"/>
<text text-anchor="middle" x="1487" y="-39.5" font-family="Helvetica,sans-Serif" font-size="10.00">cmd_handling</text>
</a>
</g>
</g>
<!-- dir_be4f9e58fd08b4490e134a8e2530936d -->
<g id="node7" class="node">
<title>dir_be4f9e58fd08b4490e134a8e2530936d</title>
<g id="a_node7"><a xlink:href="dir_be4f9e58fd08b4490e134a8e2530936d.html" target="_top" xlink:title="esp_persistence">
<polygon fill="#a2b4d6" stroke="#404040" points="1430,-60 1342,-60 1342,-24 1430,-24 1430,-60"/>
<text text-anchor="middle" x="1386" y="-39.5" font-family="Helvetica,sans-Serif" font-size="10.00">esp_persistence</text>
</a>
</g>
</g>
<!-- dir_e8b2ca53582b14248dfc5a2141122516 -->
<g id="node8" class="node">
<title>dir_e8b2ca53582b14248dfc5a2141122516</title>
<g id="a_node8"><a xlink:href="dir_e8b2ca53582b14248dfc5a2141122516.html" target="_top" xlink:title="float_convert">
<polygon fill="#a2b4d6" stroke="#404040" points="1324,-60 1252,-60 1252,-24 1324,-24 1324,-60"/>
<text text-anchor="middle" x="1288" y="-39.5" font-family="Helvetica,sans-Serif" font-size="10.00">float_convert</text>
</a>
</g>
</g>
<!-- dir_81e38b40840d97dfaf1fe96c51f16872 -->
<g id="node9" class="node">
<title>dir_81e38b40840d97dfaf1fe96c51f16872</title>
<g id="a_node9"><a xlink:href="dir_81e38b40840d97dfaf1fe96c51f16872.html" target="_top" xlink:title="hardware">
<polygon fill="#a2b4d6" stroke="#404040" points="1234,-60 1178,-60 1178,-24 1234,-24 1234,-60"/>
<text text-anchor="middle" x="1206" y="-39.5" font-family="Helvetica,sans-Serif" font-size="10.00">hardware</text>
</a>
</g>
</g>
<!-- dir_7503d4416d4e604ccc41730aaa450760 -->
<g id="node10" class="node">
<title>dir_7503d4416d4e604ccc41730aaa450760</title>
<g id="a_node10"><a xlink:href="dir_7503d4416d4e604ccc41730aaa450760.html" target="_top" xlink:title="heap_tracing">
<polygon fill="#a2b4d6" stroke="#404040" points="1160,-60 1088,-60 1088,-24 1160,-24 1160,-60"/>
<text text-anchor="middle" x="1124" y="-39.5" font-family="Helvetica,sans-Serif" font-size="10.00">heap_tracing</text>
</a>
</g>
</g>
<!-- dir_7f31785812d98c71fae5ba573a2ad89d -->
<g id="node11" class="node">
<title>dir_7f31785812d98c71fae5ba573a2ad89d</title>
<g id="a_node11"><a xlink:href="dir_7f31785812d98c71fae5ba573a2ad89d.html" target="_top" xlink:title="i2c">
<polygon fill="#a2b4d6" stroke="#404040" points="1070,-60 1016,-60 1016,-24 1070,-24 1070,-60"/>
<text text-anchor="middle" x="1043" y="-39.5" font-family="Helvetica,sans-Serif" font-size="10.00">i2c</text>
</a>
</g>
</g>
<!-- dir_7092270a206f379af139e0c789bb92ec -->
<g id="node12" class="node">
<title>dir_7092270a206f379af139e0c789bb92ec</title>
<g id="a_node12"><a xlink:href="dir_7092270a206f379af139e0c789bb92ec.html" target="_top" xlink:title="i2s">
<polygon fill="#a2b4d6" stroke="#404040" points="998,-60 944,-60 944,-24 998,-24 998,-60"/>
<text text-anchor="middle" x="971" y="-39.5" font-family="Helvetica,sans-Serif" font-size="10.00">i2s</text>
</a>
</g>
</g>
<!-- dir_005243991190519b595a4691befb2641 -->
<g id="node13" class="node">
<title>dir_005243991190519b595a4691befb2641</title>
<g id="a_node13"><a xlink:href="dir_005243991190519b595a4691befb2641.html" target="_top" xlink:title="messages">
<polygon fill="#a2b4d6" stroke="#404040" points="926,-60 864,-60 864,-24 926,-24 926,-60"/>
<text text-anchor="middle" x="895" y="-39.5" font-family="Helvetica,sans-Serif" font-size="10.00">messages</text>
</a>
</g>
</g>
<!-- dir_04f80bd1cd07ee712dceecafec49d639 -->
<g id="node14" class="node">
<title>dir_04f80bd1cd07ee712dceecafec49d639</title>
<g id="a_node14"><a xlink:href="dir_04f80bd1cd07ee712dceecafec49d639.html" target="_top" xlink:title="midi_handling">
<polygon fill="#a2b4d6" stroke="#404040" points="846,-60 770,-60 770,-24 846,-24 846,-60"/>
<text text-anchor="middle" x="808" y="-39.5" font-family="Helvetica,sans-Serif" font-size="10.00">midi_handling</text>
</a>
</g>
</g>
<!-- dir_4a0cde8174421f79b24d0a2ec9fdbc15 -->
<g id="node15" class="node">
<title>dir_4a0cde8174421f79b24d0a2ec9fdbc15</title>
<g id="a_node15"><a xlink:href="dir_4a0cde8174421f79b24d0a2ec9fdbc15.html" target="_top" xlink:title="midi_mapping">
<polygon fill="#a2b4d6" stroke="#404040" points="751.5,-60 674.5,-60 674.5,-24 751.5,-24 751.5,-60"/>
<text text-anchor="middle" x="713" y="-39.5" font-family="Helvetica,sans-Serif" font-size="10.00">midi_mapping</text>
</a>
</g>
</g>
<!-- dir_6bb30634ea0a017998ca767619e0130b -->
<g id="node16" class="node">
<title>dir_6bb30634ea0a017998ca767619e0130b</title>
<g id="a_node16"><a xlink:href="dir_6bb30634ea0a017998ca767619e0130b.html" target="_top" xlink:title="midi_protocol">
<polygon fill="#a2b4d6" stroke="#404040" points="656,-60 582,-60 582,-24 656,-24 656,-60"/>
<text text-anchor="middle" x="619" y="-39.5" font-family="Helvetica,sans-Serif" font-size="10.00">midi_protocol</text>
</a>
</g>
</g>
<!-- dir_a87011361cfcfda094e536367881e980 -->
<g id="node17" class="node">
<title>dir_a87011361cfcfda094e536367881e980</title>
<g id="a_node17"><a xlink:href="dir_a87011361cfcfda094e536367881e980.html" target="_top" xlink:title="os">
<polygon fill="#a2b4d6" stroke="#404040" points="564,-60 510,-60 510,-24 564,-24 564,-60"/>
<text text-anchor="middle" x="537" y="-39.5" font-family="Helvetica,sans-Serif" font-size="10.00">os</text>
</a>
</g>
</g>
<!-- dir_c1c5afbf6fd0e83fe1f64646bc68e58a -->
<g id="node18" class="node">
<title>dir_c1c5afbf6fd0e83fe1f64646bc68e58a</title>
<g id="a_node18"><a xlink:href="dir_c1c5afbf6fd0e83fe1f64646bc68e58a.html" target="_top" xlink:title="pcm3060">
<polygon fill="#a2b4d6" stroke="#404040" points="492,-60 436,-60 436,-24 492,-24 492,-60"/>
<text text-anchor="middle" x="464" y="-39.5" font-family="Helvetica,sans-Serif" font-size="10.00">pcm3060</text>
</a>
</g>
</g>
<!-- dir_52df58315dc5bb3976de569ae1e31514 -->
<g id="node19" class="node">
<title>dir_52df58315dc5bb3976de569ae1e31514</title>
<g id="a_node19"><a xlink:href="dir_52df58315dc5bb3976de569ae1e31514.html" target="_top" xlink:title="persistence">
<polygon fill="#a2b4d6" stroke="#404040" points="417.5,-60 350.5,-60 350.5,-24 417.5,-24 417.5,-60"/>
<text text-anchor="middle" x="384" y="-39.5" font-family="Helvetica,sans-Serif" font-size="10.00">persistence</text>
</a>
</g>
</g>
<!-- dir_d11a0030e9674cd32427c8a99eca17a2 -->
<g id="node20" class="node">
<title>dir_d11a0030e9674cd32427c8a99eca17a2</title>
<g id="a_node20"><a xlink:href="dir_d11a0030e9674cd32427c8a99eca17a2.html" target="_top" xlink:title="presets">
<polygon fill="#a2b4d6" stroke="#404040" points="332,-60 278,-60 278,-24 332,-24 332,-60"/>
<text text-anchor="middle" x="305" y="-39.5" font-family="Helvetica,sans-Serif" font-size="10.00">presets</text>
</a>
</g>
</g>
<!-- dir_8b7068667f68f3032df270856c1c7ecf -->
<g id="node21" class="node">
<title>dir_8b7068667f68f3032df270856c1c7ecf</title>
<g id="a_node21"><a xlink:href="dir_8b7068667f68f3032df270856c1c7ecf.html" target="_top" xlink:title="server">
<polygon fill="#a2b4d6" stroke="#404040" points="260,-60 206,-60 206,-24 260,-24 260,-60"/>
<text text-anchor="middle" x="233" y="-39.5" font-family="Helvetica,sans-Serif" font-size="10.00">server</text>
</a>
</g>
</g>
<!-- dir_ebc5bc13b51675e75fe9063284c24a10 -->
<g id="node22" class="node">
<title>dir_ebc5bc13b51675e75fe9063284c24a10</title>
<g id="a_node22"><a xlink:href="dir_ebc5bc13b51675e75fe9063284c24a10.html" target="_top" xlink:title="shrapnel_console">
<polygon fill="#a2b4d6" stroke="#404040" points="188,-60 96,-60 96,-24 188,-24 188,-60"/>
<text text-anchor="middle" x="142" y="-39.5" font-family="Helvetica,sans-Serif" font-size="10.00">shrapnel_console</text>
</a>
</g>
</g>
<!-- dir_3346a8df6e368028a871d14a77a10ee3 -->
<g id="node23" class="node">
<title>dir_3346a8df6e368028a871d14a77a10ee3</title>
<g id="a_node23"><a xlink:href="dir_3346a8df6e368028a871d14a77a10ee3.html" target="_top" xlink:title="wifi">
<polygon fill="#a2b4d6" stroke="#404040" points="78,-60 24,-60 24,-24 78,-24 78,-60"/>
<text text-anchor="middle" x="51" y="-39.5" font-family="Helvetica,sans-Serif" font-size="10.00">wifi</text>
</a>
</g>
</g>
</g>
</svg>
