<?xml version="1.0" encoding="UTF-8" standalone="no"?>
<!DOCTYPE svg PUBLIC "-//W3C//DTD SVG 1.1//EN"
 "http://www.w3.org/Graphics/SVG/1.1/DTD/svg11.dtd">
<!-- Generated by graphviz version 3.0.0 (20221109.1736)
 -->
<!-- Title: profiling_task Pages: 1 -->
<svg width="213pt" height="66pt"
 viewBox="0.00 0.00 213.00 66.00" xmlns="http://www.w3.org/2000/svg" xmlns:xlink="http://www.w3.org/1999/xlink">
<g id="graph0" class="graph" transform="scale(1 1) rotate(0) translate(4 62)">
<title>profiling_task</title>
<!-- Node1 -->
<g id="node1" class="node">
<title>Node1</title>
<g id="a_node1"><a xlink:title=" ">
<polygon fill="#bfbfbf" stroke="black" points="0,-19.5 0,-38.5 74,-38.5 74,-19.5 0,-19.5"/>
<text text-anchor="middle" x="37" y="-26.5" font-family="Helvetica,sans-Serif" font-size="10.00">profiling_task</text>
</a>
</g>
</g>
<!-- Node2 -->
<g id="node2" class="node">
<title>Node2</title>
<g id="a_node2"><a xlink:href="esp32_2profiling_8c.html#a96b462c18367729bd8d5e19d7d98a619" target="_top" xlink:title=" ">
<polygon fill="none" stroke="black" points="110,-38.5 110,-57.5 205,-57.5 205,-38.5 110,-38.5"/>
<text text-anchor="middle" x="157.5" y="-45.5" font-family="Helvetica,sans-Serif" font-size="10.00">cycles_to_percent</text>
</a>
</g>
</g>
<!-- Node1&#45;&gt;Node2 -->
<g id="edge1" class="edge">
<title>Node1&#45;&gt;Node2</title>
<path fill="none" stroke="midnightblue" d="M74.2,-34.8C82.22,-36.09 90.91,-37.48 99.54,-38.87"/>
<polygon fill="midnightblue" stroke="midnightblue" points="99.16,-42.35 109.59,-40.48 100.27,-35.44 99.16,-42.35"/>
</g>
<!-- Node3 -->
<g id="node3" class="node">
<title>Node3</title>
<g id="a_node3"><a xlink:href="esp32_2profiling_8c.html#ab43df9ddabf19beb65958fe84cac89b5" target="_top" xlink:title=" ">
<polygon fill="none" stroke="black" points="120.5,-0.5 120.5,-19.5 194.5,-19.5 194.5,-0.5 120.5,-0.5"/>
<text text-anchor="middle" x="157.5" y="-7.5" font-family="Helvetica,sans-Serif" font-size="10.00">cycles_to_us</text>
</a>
</g>
</g>
<!-- Node1&#45;&gt;Node3 -->
<g id="edge2" class="edge">
<title>Node1&#45;&gt;Node3</title>
<path fill="none" stroke="midnightblue" d="M74.2,-23.2C85.46,-21.39 98.05,-19.37 109.92,-17.47"/>
<polygon fill="midnightblue" stroke="midnightblue" points="110.8,-20.87 120.12,-15.83 109.69,-13.96 110.8,-20.87"/>
</g>
</g>
</svg>
