<?xml version="1.0" encoding="UTF-8" standalone="no"?>
<!DOCTYPE svg PUBLIC "-//W3C//DTD SVG 1.1//EN"
 "http://www.w3.org/Graphics/SVG/1.1/DTD/svg11.dtd">
<!-- Generated by graphviz version 3.0.0 (20221109.1736)
 -->
<!-- Title: float_to_int32 Pages: 1 -->
<svg width="584pt" height="47pt"
 viewBox="0.00 0.00 584.00 47.00" xmlns="http://www.w3.org/2000/svg" xmlns:xlink="http://www.w3.org/1999/xlink">
<g id="graph0" class="graph" transform="scale(1 1) rotate(0) translate(4 43)">
<title>float_to_int32</title>
<!-- Node1 -->
<g id="node1" class="node">
<title>Node1</title>
<g id="a_node1"><a xlink:title=" ">
<polygon fill="#bfbfbf" stroke="black" points="502,-19.5 502,-38.5 576,-38.5 576,-19.5 502,-19.5"/>
<text text-anchor="middle" x="539" y="-26.5" font-family="Helvetica,sans-Serif" font-size="10.00">float_to_int32</text>
</a>
</g>
</g>
<!-- Node2 -->
<g id="node2" class="node">
<title>Node2</title>
<g id="a_node2"><a xlink:href="i2s_8cpp.html#a4e37f563a34c1a559515cc40782caf07" target="_top" xlink:title=" ">
<polygon fill="none" stroke="black" points="231,-19.5 231,-38.5 337,-38.5 337,-19.5 231,-19.5"/>
<text text-anchor="middle" x="284" y="-26.5" font-family="Helvetica,sans-Serif" font-size="10.00">i2s_processing_task</text>
</a>
</g>
</g>
<!-- Node1&#45;&gt;Node2 -->
<g id="edge1" class="edge">
<title>Node1&#45;&gt;Node2</title>
<path fill="none" stroke="midnightblue" d="M491.71,-29C448.13,-29 382.94,-29 337.46,-29"/>
<polygon fill="midnightblue" stroke="midnightblue" points="491.75,-32.5 501.75,-29 491.75,-25.5 491.75,-32.5"/>
</g>
<!-- Node5 -->
<g id="node5" class="node">
<title>Node5</title>
<g id="a_node5"><a xlink:href="process_8cpp.html#a450bec865b55b9890f4050f1ab0dba5c" target="_top" xlink:title=" ">
<polygon fill="none" stroke="black" points="373,-0.5 373,-19.5 466,-19.5 466,-0.5 373,-0.5"/>
<text text-anchor="middle" x="419.5" y="-7.5" font-family="Helvetica,sans-Serif" font-size="10.00">process_samples</text>
</a>
</g>
</g>
<!-- Node1&#45;&gt;Node5 -->
<g id="edge4" class="edge">
<title>Node1&#45;&gt;Node5</title>
<path fill="none" stroke="midnightblue" d="M491.81,-21.53C483.44,-20.18 474.72,-18.77 466.36,-17.42"/>
<polygon fill="midnightblue" stroke="midnightblue" points="491.36,-25 501.79,-23.14 492.47,-18.09 491.36,-25"/>
</g>
<!-- Node3 -->
<g id="node3" class="node">
<title>Node3</title>
<g id="a_node3"><a xlink:href="i2s_8cpp.html#a445c7079217d08d4767549802dade8a0" target="_top" xlink:title=" ">
<polygon fill="none" stroke="black" points="136,-19.5 136,-38.5 195,-38.5 195,-19.5 136,-19.5"/>
<text text-anchor="middle" x="165.5" y="-26.5" font-family="Helvetica,sans-Serif" font-size="10.00">i2s_setup</text>
</a>
</g>
</g>
<!-- Node2&#45;&gt;Node3 -->
<g id="edge2" class="edge">
<title>Node2&#45;&gt;Node3</title>
<path fill="none" stroke="midnightblue" d="M220.81,-29C211.89,-29 203.1,-29 195.27,-29"/>
<polygon fill="midnightblue" stroke="midnightblue" points="220.88,-32.5 230.88,-29 220.88,-25.5 220.88,-32.5"/>
</g>
<!-- Node4 -->
<g id="node4" class="node">
<title>Node4</title>
<g id="a_node4"><a xlink:href="namespaceshrapnel.html#a9f09f4ea750643310af9143a53735b7d" target="_top" xlink:title=" ">
<polygon fill="none" stroke="black" points="0,-19.5 0,-38.5 100,-38.5 100,-19.5 0,-19.5"/>
<text text-anchor="middle" x="50" y="-26.5" font-family="Helvetica,sans-Serif" font-size="10.00">shrapnel::app_main</text>
</a>
</g>
</g>
<!-- Node3&#45;&gt;Node4 -->
<g id="edge3" class="edge">
<title>Node3&#45;&gt;Node4</title>
<path fill="none" stroke="midnightblue" d="M125.85,-29C117.66,-29 108.91,-29 100.39,-29"/>
<polygon fill="midnightblue" stroke="midnightblue" points="125.86,-32.5 135.86,-29 125.86,-25.5 125.86,-32.5"/>
</g>
<!-- Node5&#45;&gt;Node2 -->
<g id="edge5" class="edge">
<title>Node5&#45;&gt;Node2</title>
<path fill="none" stroke="midnightblue" d="M362.78,-17.93C354.32,-19.13 345.63,-20.37 337.25,-21.56"/>
<polygon fill="midnightblue" stroke="midnightblue" points="363.52,-21.36 372.93,-16.49 362.54,-14.43 363.52,-21.36"/>
</g>
</g>
</svg>
