<?xml version="1.0" encoding="UTF-8" standalone="no"?>
<!DOCTYPE svg PUBLIC "-//W3C//DTD SVG 1.1//EN"
 "http://www.w3.org/Graphics/SVG/1.1/DTD/svg11.dtd">
<!-- Generated by graphviz version 3.0.0 (20221109.1736)
 -->
<!-- Title: i2c_write_byte Pages: 1 -->
<svg width="472pt" height="66pt"
 viewBox="0.00 0.00 472.00 66.00" xmlns="http://www.w3.org/2000/svg" xmlns:xlink="http://www.w3.org/1999/xlink">
<g id="graph0" class="graph" transform="scale(1 1) rotate(0) translate(4 62)">
<title>i2c_write_byte</title>
<!-- Node1 -->
<g id="node1" class="node">
<title>Node1</title>
<g id="a_node1"><a xlink:title=" ">
<polygon fill="#bfbfbf" stroke="black" points="385,-19.5 385,-38.5 464,-38.5 464,-19.5 385,-19.5"/>
<text text-anchor="middle" x="424.5" y="-26.5" font-family="Helvetica,sans-Serif" font-size="10.00">i2c_write_byte</text>
</a>
</g>
</g>
<!-- Node2 -->
<g id="node2" class="node">
<title>Node2</title>
<g id="a_node2"><a xlink:href="pcm3060_8c.html#aea1e9d4122342b16a072fc515ed9c4a2" target="_top" xlink:title=" ">
<polygon fill="none" stroke="black" points="288,-19.5 288,-38.5 349,-38.5 349,-19.5 288,-19.5"/>
<text text-anchor="middle" x="318.5" y="-26.5" font-family="Helvetica,sans-Serif" font-size="10.00">_i2c_write</text>
</a>
</g>
</g>
<!-- Node1&#45;&gt;Node2 -->
<g id="edge1" class="edge">
<title>Node1&#45;&gt;Node2</title>
<path fill="none" stroke="midnightblue" d="M374.66,-29C365.95,-29 357.12,-29 349.15,-29"/>
<polygon fill="midnightblue" stroke="midnightblue" points="374.77,-32.5 384.77,-29 374.77,-25.5 374.77,-32.5"/>
</g>
<!-- Node3 -->
<g id="node3" class="node">
<title>Node3</title>
<g id="a_node3"><a xlink:href="pcm3060_8c.html#aeb6fe9adda371fdebd72a04b21ed5eb3" target="_top" xlink:title="perform power down sequence">
<polygon fill="none" stroke="black" points="136,-38.5 136,-57.5 252,-57.5 252,-38.5 136,-38.5"/>
<text text-anchor="middle" x="194" y="-45.5" font-family="Helvetica,sans-Serif" font-size="10.00">pcm3060_power_down</text>
</a>
</g>
</g>
<!-- Node2&#45;&gt;Node3 -->
<g id="edge2" class="edge">
<title>Node2&#45;&gt;Node3</title>
<path fill="none" stroke="midnightblue" d="M277.84,-35.15C269.65,-36.42 260.87,-37.78 252.19,-39.13"/>
<polygon fill="midnightblue" stroke="midnightblue" points="278.5,-38.59 287.85,-33.6 277.43,-31.67 278.5,-38.59"/>
</g>
<!-- Node4 -->
<g id="node4" class="node">
<title>Node4</title>
<g id="a_node4"><a xlink:href="pcm3060_8c.html#a4b08ec86eb0407470554c4e5c5759521" target="_top" xlink:title="perform power up sequence">
<polygon fill="none" stroke="black" points="142,-0.5 142,-19.5 246,-19.5 246,-0.5 142,-0.5"/>
<text text-anchor="middle" x="194" y="-7.5" font-family="Helvetica,sans-Serif" font-size="10.00">pcm3060_power_up</text>
</a>
</g>
</g>
<!-- Node2&#45;&gt;Node4 -->
<g id="edge3" class="edge">
<title>Node2&#45;&gt;Node4</title>
<path fill="none" stroke="midnightblue" d="M277.78,-22.84C267.77,-21.29 256.87,-19.6 246.37,-17.97"/>
<polygon fill="midnightblue" stroke="midnightblue" points="277.43,-26.33 287.85,-24.4 278.5,-19.41 277.43,-26.33"/>
</g>
<!-- Node5 -->
<g id="node5" class="node">
<title>Node5</title>
<g id="a_node5"><a xlink:href="namespaceshrapnel.html#a9f09f4ea750643310af9143a53735b7d" target="_top" xlink:title=" ">
<polygon fill="none" stroke="black" points="0,-0.5 0,-19.5 100,-19.5 100,-0.5 0,-0.5"/>
<text text-anchor="middle" x="50" y="-7.5" font-family="Helvetica,sans-Serif" font-size="10.00">shrapnel::app_main</text>
</a>
</g>
</g>
<!-- Node4&#45;&gt;Node5 -->
<g id="edge4" class="edge">
<title>Node4&#45;&gt;Node5</title>
<path fill="none" stroke="midnightblue" d="M131.45,-10C121.03,-10 110.34,-10 100.29,-10"/>
<polygon fill="midnightblue" stroke="midnightblue" points="131.73,-13.5 141.73,-10 131.73,-6.5 131.73,-13.5"/>
</g>
</g>
</svg>
