<?xml version="1.0" encoding="UTF-8" standalone="no"?>
<!DOCTYPE svg PUBLIC "-//W3C//DTD SVG 1.1//EN"
 "http://www.w3.org/Graphics/SVG/1.1/DTD/svg11.dtd">
<!-- Generated by graphviz version 3.0.0 (20221109.1736)
 -->
<!-- Title: i2s_processing_task Pages: 1 -->
<svg width="636pt" height="522pt"
 viewBox="0.00 0.00 636.00 522.00" xmlns="http://www.w3.org/2000/svg" xmlns:xlink="http://www.w3.org/1999/xlink">
<g id="graph0" class="graph" transform="scale(1 1) rotate(0) translate(4 518)">
<title>i2s_processing_task</title>
<!-- Node1 -->
<g id="node1" class="node">
<title>Node1</title>
<g id="a_node1"><a xlink:title=" ">
<polygon fill="#bfbfbf" stroke="black" points="0,-342.5 0,-361.5 106,-361.5 106,-342.5 0,-342.5"/>
<text text-anchor="middle" x="53" y="-349.5" font-family="Helvetica,sans-Serif" font-size="10.00">i2s_processing_task</text>
</a>
</g>
</g>
<!-- Node2 -->
<g id="node2" class="node">
<title>Node2</title>
<g id="a_node2"><a xlink:href="float__convert_8h.html#ae9b18f6b920e3401ec41278b57e6817b" target="_top" xlink:title=" ">
<polygon fill="none" stroke="black" points="290.5,-494.5 290.5,-513.5 364.5,-513.5 364.5,-494.5 290.5,-494.5"/>
<text text-anchor="middle" x="327.5" y="-501.5" font-family="Helvetica,sans-Serif" font-size="10.00">float_to_int32</text>
</a>
</g>
</g>
<!-- Node1&#45;&gt;Node2 -->
<g id="edge1" class="edge">
<title>Node1&#45;&gt;Node2</title>
<path fill="none" stroke="midnightblue" d="M67.62,-361.83C100.94,-385.56 189.84,-446.81 271,-485 275.43,-487.09 280.16,-489.06 284.91,-490.89"/>
<polygon fill="midnightblue" stroke="midnightblue" points="284.02,-494.29 294.62,-494.43 286.42,-487.71 284.02,-494.29"/>
</g>
<!-- Node3 -->
<g id="node3" class="node">
<title>Node3</title>
<g id="a_node3"><a xlink:href="process_8cpp.html#a159f752dbd8aa42d765e604910814129" target="_top" xlink:title=" ">
<polygon fill="none" stroke="black" points="154,-342.5 154,-361.5 223,-361.5 223,-342.5 154,-342.5"/>
<text text-anchor="middle" x="188.5" y="-349.5" font-family="Helvetica,sans-Serif" font-size="10.00">process_init</text>
</a>
</g>
</g>
<!-- Node1&#45;&gt;Node3 -->
<g id="edge2" class="edge">
<title>Node1&#45;&gt;Node3</title>
<path fill="none" stroke="midnightblue" d="M106.38,-352C118.7,-352 131.7,-352 143.6,-352"/>
<polygon fill="midnightblue" stroke="midnightblue" points="143.73,-355.5 153.73,-352 143.73,-348.5 143.73,-355.5"/>
</g>
<!-- Node15 -->
<g id="node15" class="node">
<title>Node15</title>
<g id="a_node15"><a xlink:href="process_8cpp.html#a450bec865b55b9890f4050f1ab0dba5c" target="_top" xlink:title=" ">
<polygon fill="none" stroke="black" points="142,-209.5 142,-228.5 235,-228.5 235,-209.5 142,-209.5"/>
<text text-anchor="middle" x="188.5" y="-216.5" font-family="Helvetica,sans-Serif" font-size="10.00">process_samples</text>
</a>
</g>
</g>
<!-- Node1&#45;&gt;Node15 -->
<g id="edge14" class="edge">
<title>Node1&#45;&gt;Node15</title>
<path fill="none" stroke="midnightblue" d="M63.6,-342.43C86.01,-320.11 141.99,-264.34 170.4,-236.04"/>
<polygon fill="midnightblue" stroke="midnightblue" points="173.01,-238.37 177.63,-228.84 168.07,-233.42 173.01,-238.37"/>
</g>
<!-- Node4 -->
<g id="node4" class="node">
<title>Node4</title>
<g id="a_node4"><a xlink:href="noise__gate_8cpp.html#a949bfebe851dee44040d83bbd068dad1" target="_top" xlink:title="Initialise the effect.">
<polygon fill="none" stroke="black" points="301,-456.5 301,-475.5 354,-475.5 354,-456.5 301,-456.5"/>
<text text-anchor="middle" x="327.5" y="-463.5" font-family="Helvetica,sans-Serif" font-size="10.00">gate_init</text>
</a>
</g>
</g>
<!-- Node3&#45;&gt;Node4 -->
<g id="edge3" class="edge">
<title>Node3&#45;&gt;Node4</title>
<path fill="none" stroke="midnightblue" d="M195.2,-361.56C207,-380.55 235.93,-423.22 271,-447 277.14,-451.16 284.29,-454.5 291.36,-457.14"/>
<polygon fill="midnightblue" stroke="midnightblue" points="290.28,-460.46 300.87,-460.31 292.5,-453.82 290.28,-460.46"/>
</g>
<!-- Node6 -->
<g id="node6" class="node">
<title>Node6</title>
<g id="a_node6"><a xlink:href="noise__gate_8cpp.html#a4868a6f017c846668c1b09d32b833099" target="_top" xlink:title="Set the attack time in milliseconds.">
<polygon fill="none" stroke="black" points="284.5,-342.5 284.5,-361.5 370.5,-361.5 370.5,-342.5 284.5,-342.5"/>
<text text-anchor="middle" x="327.5" y="-349.5" font-family="Helvetica,sans-Serif" font-size="10.00">gate_set_attack</text>
</a>
</g>
</g>
<!-- Node3&#45;&gt;Node6 -->
<g id="edge5" class="edge">
<title>Node3&#45;&gt;Node6</title>
<path fill="none" stroke="midnightblue" d="M223.01,-352C238.36,-352 256.92,-352 274.05,-352"/>
<polygon fill="midnightblue" stroke="midnightblue" points="274.5,-355.5 284.5,-352 274.5,-348.5 274.5,-355.5"/>
</g>
<!-- Node7 -->
<g id="node7" class="node">
<title>Node7</title>
<g id="a_node7"><a xlink:href="noise__gate_8cpp.html#a184d915d5eb18d4743c6e3008bb47e62" target="_top" xlink:title="Set the buffer size in number of samples.">
<polygon fill="none" stroke="black" points="274.5,-418.5 274.5,-437.5 380.5,-437.5 380.5,-418.5 274.5,-418.5"/>
<text text-anchor="middle" x="327.5" y="-425.5" font-family="Helvetica,sans-Serif" font-size="10.00">gate_set_buffer_size</text>
</a>
</g>
</g>
<!-- Node3&#45;&gt;Node7 -->
<g id="edge6" class="edge">
<title>Node3&#45;&gt;Node7</title>
<path fill="none" stroke="midnightblue" d="M200.98,-361.61C216.19,-373.95 244.22,-395.39 271,-409 275.09,-411.08 279.47,-413.02 283.9,-414.8"/>
<polygon fill="midnightblue" stroke="midnightblue" points="283,-418.2 293.59,-418.44 285.46,-411.64 283,-418.2"/>
</g>
<!-- Node8 -->
<g id="node8" class="node">
<title>Node8</title>
<g id="a_node8"><a xlink:href="noise__gate_8cpp.html#a4fccad713cee272e388c9c45fc97037e" target="_top" xlink:title="Set the hold time in milliseconds.">
<polygon fill="none" stroke="black" points="289,-304.5 289,-323.5 366,-323.5 366,-304.5 289,-304.5"/>
<text text-anchor="middle" x="327.5" y="-311.5" font-family="Helvetica,sans-Serif" font-size="10.00">gate_set_hold</text>
</a>
</g>
</g>
<!-- Node3&#45;&gt;Node8 -->
<g id="edge7" class="edge">
<title>Node3&#45;&gt;Node8</title>
<path fill="none" stroke="midnightblue" d="M223.01,-342.7C240.82,-337.76 262.94,-331.63 282.16,-326.3"/>
<polygon fill="midnightblue" stroke="midnightblue" points="283.2,-329.64 291.9,-323.6 281.33,-322.9 283.2,-329.64"/>
</g>
<!-- Node9 -->
<g id="node9" class="node">
<title>Node9</title>
<g id="a_node9"><a xlink:href="noise__gate_8cpp.html#abe525a07b8cb6f0557740cc4100428a9" target="_top" xlink:title="Set the release time in milliseconds.">
<polygon fill="none" stroke="black" points="282,-266.5 282,-285.5 373,-285.5 373,-266.5 282,-266.5"/>
<text text-anchor="middle" x="327.5" y="-273.5" font-family="Helvetica,sans-Serif" font-size="10.00">gate_set_release</text>
</a>
</g>
</g>
<!-- Node3&#45;&gt;Node9 -->
<g id="edge8" class="edge">
<title>Node3&#45;&gt;Node9</title>
<path fill="none" stroke="midnightblue" d="M200.98,-342.39C216.19,-330.05 244.22,-308.61 271,-295 275.09,-292.92 279.47,-290.98 283.9,-289.2"/>
<polygon fill="midnightblue" stroke="midnightblue" points="285.46,-292.36 293.59,-285.56 283,-285.8 285.46,-292.36"/>
</g>
<!-- Node10 -->
<g id="node10" class="node">
<title>Node10</title>
<g id="a_node10"><a xlink:href="noise__gate_8cpp.html#a2691256497a1cec4e14434f48eccfb56" target="_top" xlink:title="Set the sample rate in Hz.">
<polygon fill="none" stroke="black" points="271,-380.5 271,-399.5 384,-399.5 384,-380.5 271,-380.5"/>
<text text-anchor="middle" x="327.5" y="-387.5" font-family="Helvetica,sans-Serif" font-size="10.00">gate_set_sample_rate</text>
</a>
</g>
</g>
<!-- Node3&#45;&gt;Node10 -->
<g id="edge9" class="edge">
<title>Node3&#45;&gt;Node10</title>
<path fill="none" stroke="midnightblue" d="M223.01,-361.3C240.82,-366.24 262.94,-372.37 282.16,-377.7"/>
<polygon fill="midnightblue" stroke="midnightblue" points="281.33,-381.1 291.9,-380.4 283.2,-374.36 281.33,-381.1"/>
</g>
<!-- Node13 -->
<g id="node13" class="node">
<title>Node13</title>
<g id="a_node13"><a xlink:href="noise__gate_8cpp.html#a82e62ed410acc03c8179d8245de13e12" target="_top" xlink:title="Set the threshold and hysteresis value in dBFS.">
<polygon fill="none" stroke="black" points="278,-228.5 278,-247.5 377,-247.5 377,-228.5 278,-228.5"/>
<text text-anchor="middle" x="327.5" y="-235.5" font-family="Helvetica,sans-Serif" font-size="10.00">gate_set_threshold</text>
</a>
</g>
</g>
<!-- Node3&#45;&gt;Node13 -->
<g id="edge12" class="edge">
<title>Node3&#45;&gt;Node13</title>
<path fill="none" stroke="midnightblue" d="M195.2,-342.44C207,-323.45 235.93,-280.78 271,-257 273.91,-255.03 277.05,-253.24 280.3,-251.62"/>
<polygon fill="midnightblue" stroke="midnightblue" points="281.9,-254.74 289.65,-247.52 279.09,-248.33 281.9,-254.74"/>
</g>
<!-- Node5 -->
<g id="node5" class="node">
<title>Node5</title>
<g id="a_node5"><a xlink:href="noise__gate_8cpp.html#a5d3ba76b4666ac1820b498aaf04ea22e" target="_top" xlink:title="Reset the state.">
<polygon fill="none" stroke="black" points="443,-456.5 443,-475.5 505,-475.5 505,-456.5 443,-456.5"/>
<text text-anchor="middle" x="474" y="-463.5" font-family="Helvetica,sans-Serif" font-size="10.00">gate_reset</text>
</a>
</g>
</g>
<!-- Node4&#45;&gt;Node5 -->
<g id="edge4" class="edge">
<title>Node4&#45;&gt;Node5</title>
<path fill="none" stroke="midnightblue" d="M354,-466C375.79,-466 407.52,-466 432.74,-466"/>
<polygon fill="midnightblue" stroke="midnightblue" points="432.75,-469.5 442.75,-466 432.75,-462.5 432.75,-469.5"/>
</g>
<!-- Node11 -->
<g id="node11" class="node">
<title>Node11</title>
<g id="a_node11"><a xlink:href="abstract__dsp__esp32_8c.html#ab721c839889c1267077f4cb3304b655d" target="_top" xlink:title=" ">
<polygon fill="none" stroke="black" points="420.5,-342 420.5,-372 527.5,-372 527.5,-342 420.5,-342"/>
<text text-anchor="start" x="428.5" y="-360" font-family="Helvetica,sans-Serif" font-size="10.00">dspal_biquad_design</text>
<text text-anchor="middle" x="474" y="-349" font-family="Helvetica,sans-Serif" font-size="10.00">_lowpass</text>
</a>
</g>
</g>
<!-- Node10&#45;&gt;Node11 -->
<g id="edge10" class="edge">
<title>Node10&#45;&gt;Node11</title>
<path fill="none" stroke="midnightblue" d="M370.3,-380.46C382.91,-377.58 397.03,-374.35 410.67,-371.23"/>
<polygon fill="midnightblue" stroke="midnightblue" points="411.52,-374.63 420.49,-368.99 409.97,-367.81 411.52,-374.63"/>
</g>
<!-- Node12 -->
<g id="node12" class="node">
<title>Node12</title>
<g id="a_node12"><a xlink:href="classshrapnel_1_1dsp_1_1IirFilter.html#aa09e7c1ab99d85c0fdd1c98c80636550" target="_top" xlink:title=" ">
<polygon fill="none" stroke="black" points="420,-391 420,-421 528,-421 528,-391 420,-391"/>
<text text-anchor="start" x="428" y="-409" font-family="Helvetica,sans-Serif" font-size="10.00">shrapnel::dsp::IirFilter</text>
<text text-anchor="middle" x="474" y="-398" font-family="Helvetica,sans-Serif" font-size="10.00">::set_coefficients</text>
</a>
</g>
</g>
<!-- Node10&#45;&gt;Node12 -->
<g id="edge11" class="edge">
<title>Node10&#45;&gt;Node12</title>
<path fill="none" stroke="midnightblue" d="M384.37,-396.19C392.61,-397.1 401.15,-398.04 409.54,-398.97"/>
<polygon fill="midnightblue" stroke="midnightblue" points="409.33,-402.47 419.65,-400.09 410.1,-395.51 409.33,-402.47"/>
</g>
<!-- Node14 -->
<g id="node14" class="node">
<title>Node14</title>
<g id="a_node14"><a xlink:href="noise__gate_8cpp.html#afb2354391bb81545d92334434552ab4b" target="_top" xlink:title=" ">
<polygon fill="none" stroke="black" points="441.5,-228.5 441.5,-247.5 506.5,-247.5 506.5,-228.5 441.5,-228.5"/>
<text text-anchor="middle" x="474" y="-235.5" font-family="Helvetica,sans-Serif" font-size="10.00">db_to_ratio</text>
</a>
</g>
</g>
<!-- Node13&#45;&gt;Node14 -->
<g id="edge13" class="edge">
<title>Node13&#45;&gt;Node14</title>
<path fill="none" stroke="midnightblue" d="M377.02,-238C394.54,-238 414.15,-238 431.05,-238"/>
<polygon fill="midnightblue" stroke="midnightblue" points="431.19,-241.5 441.19,-238 431.19,-234.5 431.19,-241.5"/>
</g>
<!-- Node15&#45;&gt;Node2 -->
<g id="edge16" class="edge">
<title>Node15&#45;&gt;Node2</title>
<path fill="none" stroke="midnightblue" d="M193.89,-228.58C202.63,-247.97 222.48,-293.38 235,-333 255.92,-399.2 224.35,-433.58 271,-485 273.93,-488.22 277.42,-490.9 281.22,-493.13"/>
<polygon fill="midnightblue" stroke="midnightblue" points="279.95,-496.4 290.48,-497.53 282.96,-490.08 279.95,-496.4"/>
</g>
<!-- Node15&#45;&gt;Node6 -->
<g id="edge22" class="edge">
<title>Node15&#45;&gt;Node6</title>
<path fill="none" stroke="midnightblue" d="M193.89,-228.81C204.18,-250.71 231.97,-303.94 271,-333 273.49,-334.86 276.18,-336.54 278.98,-338.07"/>
<polygon fill="midnightblue" stroke="midnightblue" points="277.67,-341.32 288.2,-342.42 280.66,-334.99 277.67,-341.32"/>
</g>
<!-- Node15&#45;&gt;Node8 -->
<g id="edge23" class="edge">
<title>Node15&#45;&gt;Node8</title>
<path fill="none" stroke="midnightblue" d="M197.31,-228.53C210.79,-244.42 239.97,-276.39 271,-295 274.39,-297.03 278.03,-298.89 281.76,-300.57"/>
<polygon fill="midnightblue" stroke="midnightblue" points="280.57,-303.86 291.15,-304.4 283.22,-297.38 280.57,-303.86"/>
</g>
<!-- Node15&#45;&gt;Node9 -->
<g id="edge24" class="edge">
<title>Node15&#45;&gt;Node9</title>
<path fill="none" stroke="midnightblue" d="M208.68,-228.65C225.03,-236.71 249.28,-248.25 271,-257 276.14,-259.07 281.59,-261.12 287.01,-263.06"/>
<polygon fill="midnightblue" stroke="midnightblue" points="286.02,-266.42 296.62,-266.42 288.33,-259.82 286.02,-266.42"/>
</g>
<!-- Node15&#45;&gt;Node13 -->
<g id="edge25" class="edge">
<title>Node15&#45;&gt;Node13</title>
<path fill="none" stroke="midnightblue" d="M235.12,-225.33C245.61,-226.78 256.91,-228.35 267.86,-229.87"/>
<polygon fill="midnightblue" stroke="midnightblue" points="267.4,-233.34 277.79,-231.24 268.36,-226.4 267.4,-233.34"/>
</g>
<!-- Node16 -->
<g id="node16" class="node">
<title>Node16</title>
<g id="a_node16"><a xlink:href="process_8cpp.html#a9785ac35cd7c86538882d5311fd66bf1" target="_top" xlink:title=" ">
<polygon fill="none" stroke="black" points="285,-190.5 285,-209.5 370,-209.5 370,-190.5 285,-190.5"/>
<text text-anchor="middle" x="327.5" y="-197.5" font-family="Helvetica,sans-Serif" font-size="10.00">decibel_to_ratio</text>
</a>
</g>
</g>
<!-- Node15&#45;&gt;Node16 -->
<g id="edge15" class="edge">
<title>Node15&#45;&gt;Node16</title>
<path fill="none" stroke="midnightblue" d="M235.12,-212.67C247.77,-210.92 261.6,-209 274.58,-207.2"/>
<polygon fill="midnightblue" stroke="midnightblue" points="275.35,-210.63 284.78,-205.79 274.39,-203.69 275.35,-210.63"/>
</g>
<!-- Node17 -->
<g id="node17" class="node">
<title>Node17</title>
<g id="a_node17"><a xlink:href="noise__gate_8cpp.html#a129b18f80393706faa5a453417153a51" target="_top" xlink:title="Analyse the audio.">
<polygon fill="none" stroke="black" points="290.5,-152.5 290.5,-171.5 364.5,-171.5 364.5,-152.5 290.5,-152.5"/>
<text text-anchor="middle" x="327.5" y="-159.5" font-family="Helvetica,sans-Serif" font-size="10.00">gate_analyse</text>
</a>
</g>
</g>
<!-- Node15&#45;&gt;Node17 -->
<g id="edge17" class="edge">
<title>Node15&#45;&gt;Node17</title>
<path fill="none" stroke="midnightblue" d="M208.68,-209.35C225.03,-201.29 249.28,-189.75 271,-181 276.14,-178.93 281.59,-176.88 287.01,-174.94"/>
<polygon fill="midnightblue" stroke="midnightblue" points="288.33,-178.18 296.62,-171.58 286.02,-171.58 288.33,-178.18"/>
</g>
<!-- Node20 -->
<g id="node20" class="node">
<title>Node20</title>
<g id="a_node20"><a xlink:href="noise__gate_8cpp.html#a3a59d391339a038f91650058680b00d6" target="_top" xlink:title="Apply the precalculated gain to the audio.">
<polygon fill="none" stroke="black" points="290,-114.5 290,-133.5 365,-133.5 365,-114.5 290,-114.5"/>
<text text-anchor="middle" x="327.5" y="-121.5" font-family="Helvetica,sans-Serif" font-size="10.00">gate_process</text>
</a>
</g>
</g>
<!-- Node15&#45;&gt;Node20 -->
<g id="edge20" class="edge">
<title>Node15&#45;&gt;Node20</title>
<path fill="none" stroke="midnightblue" d="M197.31,-209.47C210.79,-193.58 239.97,-161.61 271,-143 274.39,-140.97 278.03,-139.11 281.76,-137.43"/>
<polygon fill="midnightblue" stroke="midnightblue" points="283.22,-140.62 291.15,-133.6 280.57,-134.14 283.22,-140.62"/>
</g>
<!-- Node22 -->
<g id="node22" class="node">
<title>Node22</title>
<g id="a_node22"><a xlink:href="profiling_8cpp.html#a3171d2be3fbf00e49982243e9869735a" target="_top" xlink:title=" ">
<polygon fill="none" stroke="black" points="274.5,-76.5 274.5,-95.5 380.5,-95.5 380.5,-76.5 274.5,-76.5"/>
<text text-anchor="middle" x="327.5" y="-83.5" font-family="Helvetica,sans-Serif" font-size="10.00">profiling_mark_stage</text>
</a>
</g>
</g>
<!-- Node15&#45;&gt;Node22 -->
<g id="edge26" class="edge">
<title>Node15&#45;&gt;Node22</title>
<path fill="none" stroke="midnightblue" d="M193.89,-209.19C204.18,-187.29 231.97,-134.06 271,-105 273.49,-103.14 276.18,-101.46 278.98,-99.93"/>
<polygon fill="midnightblue" stroke="midnightblue" points="280.66,-103.01 288.2,-95.58 277.67,-96.68 280.66,-103.01"/>
</g>
<!-- Node23 -->
<g id="node23" class="node">
<title>Node23</title>
<g id="a_node23"><a xlink:href="profiling_8cpp.html#ac05fdc10ded37340f2ab202bbc184d20" target="_top" xlink:title=" ">
<polygon fill="none" stroke="black" points="290.5,-38.5 290.5,-57.5 364.5,-57.5 364.5,-38.5 290.5,-38.5"/>
<text text-anchor="middle" x="327.5" y="-45.5" font-family="Helvetica,sans-Serif" font-size="10.00">profiling_start</text>
</a>
</g>
</g>
<!-- Node15&#45;&gt;Node23 -->
<g id="edge27" class="edge">
<title>Node15&#45;&gt;Node23</title>
<path fill="none" stroke="midnightblue" d="M192.02,-209.23C199.4,-182.47 223.53,-107.32 271,-67 274.06,-64.4 277.49,-62.16 281.1,-60.21"/>
<polygon fill="midnightblue" stroke="midnightblue" points="282.72,-63.32 290.36,-55.98 279.81,-56.95 282.72,-63.32"/>
</g>
<!-- Node24 -->
<g id="node24" class="node">
<title>Node24</title>
<g id="a_node24"><a xlink:href="profiling_8cpp.html#a9f4516d77db32a65ee99933c6c9d3802" target="_top" xlink:title=" ">
<polygon fill="none" stroke="black" points="290.5,-0.5 290.5,-19.5 364.5,-19.5 364.5,-0.5 290.5,-0.5"/>
<text text-anchor="middle" x="327.5" y="-7.5" font-family="Helvetica,sans-Serif" font-size="10.00">profiling_stop</text>
</a>
</g>
</g>
<!-- Node15&#45;&gt;Node24 -->
<g id="edge28" class="edge">
<title>Node15&#45;&gt;Node24</title>
<path fill="none" stroke="midnightblue" d="M190.88,-209.12C195.75,-178 214.94,-80.98 271,-29 273.98,-26.24 277.38,-23.87 281,-21.85"/>
<polygon fill="midnightblue" stroke="midnightblue" points="282.74,-24.9 290.32,-17.5 279.78,-18.56 282.74,-24.9"/>
</g>
<!-- Node18 -->
<g id="node18" class="node">
<title>Node18</title>
<g id="a_node18"><a xlink:href="classshrapnel_1_1dsp_1_1IirFilter.html#a53cb5a72d2a310cd4b35d4329af682f0" target="_top" xlink:title=" ">
<polygon fill="none" stroke="black" points="420,-150 420,-180 528,-180 528,-150 420,-150"/>
<text text-anchor="start" x="428" y="-168" font-family="Helvetica,sans-Serif" font-size="10.00">shrapnel::dsp::IirFilter</text>
<text text-anchor="middle" x="474" y="-157" font-family="Helvetica,sans-Serif" font-size="10.00">::process</text>
</a>
</g>
</g>
<!-- Node17&#45;&gt;Node18 -->
<g id="edge18" class="edge">
<title>Node17&#45;&gt;Node18</title>
<path fill="none" stroke="midnightblue" d="M364.59,-162.75C378.31,-163.03 394.36,-163.37 409.85,-163.69"/>
<polygon fill="midnightblue" stroke="midnightblue" points="409.85,-167.19 419.92,-163.9 409.99,-160.19 409.85,-167.19"/>
</g>
<!-- Node19 -->
<g id="node19" class="node">
<title>Node19</title>
<g id="a_node19"><a xlink:href="iir__universal_8c.html#a738b77e8a79f0c754dba3af19fbd4e30" target="_top" xlink:title=" ">
<polygon fill="none" stroke="black" points="564,-155.5 564,-174.5 628,-174.5 628,-155.5 564,-155.5"/>
<text text-anchor="middle" x="596" y="-162.5" font-family="Helvetica,sans-Serif" font-size="10.00">iir_process</text>
</a>
</g>
</g>
<!-- Node18&#45;&gt;Node19 -->
<g id="edge19" class="edge">
<title>Node18&#45;&gt;Node19</title>
<path fill="none" stroke="midnightblue" d="M528.33,-165C536.87,-165 545.59,-165 553.79,-165"/>
<polygon fill="midnightblue" stroke="midnightblue" points="553.85,-168.5 563.85,-165 553.85,-161.5 553.85,-168.5"/>
</g>
<!-- Node21 -->
<g id="node21" class="node">
<title>Node21</title>
<g id="a_node21"><a xlink:href="abstract__dsp__esp32_8c.html#a52d208742d325a0cdb7225bd9fe0e902" target="_top" xlink:title=" ">
<polygon fill="none" stroke="black" points="435,-111.5 435,-130.5 513,-130.5 513,-111.5 435,-111.5"/>
<text text-anchor="middle" x="474" y="-118.5" font-family="Helvetica,sans-Serif" font-size="10.00">dspal_multiply</text>
</a>
</g>
</g>
<!-- Node20&#45;&gt;Node21 -->
<g id="edge21" class="edge">
<title>Node20&#45;&gt;Node21</title>
<path fill="none" stroke="midnightblue" d="M365.34,-123.24C383.41,-122.86 405.41,-122.4 424.81,-122"/>
<polygon fill="midnightblue" stroke="midnightblue" points="425.04,-125.5 434.97,-121.79 424.9,-118.5 425.04,-125.5"/>
</g>
</g>
</svg>
