<?xml version="1.0" encoding="UTF-8" standalone="no"?>
<!DOCTYPE svg PUBLIC "-//W3C//DTD SVG 1.1//EN"
 "http://www.w3.org/Graphics/SVG/1.1/DTD/svg11.dtd">
<!-- Generated by graphviz version 3.0.0 (20221109.1736)
 -->
<!-- Title: i2s_processing_task Pages: 1 -->
<svg width="637pt" height="616pt"
 viewBox="0.00 0.00 637.00 615.50" xmlns="http://www.w3.org/2000/svg" xmlns:xlink="http://www.w3.org/1999/xlink">
<g id="graph0" class="graph" transform="scale(1 1) rotate(0) translate(4 611.5)">
<title>i2s_processing_task</title>
<!-- Node1 -->
<g id="node1" class="node">
<title>Node1</title>
<g id="a_node1"><a xlink:title=" ">
<polygon fill="#bfbfbf" stroke="black" points="0,-232.5 0,-251.5 106,-251.5 106,-232.5 0,-232.5"/>
<text text-anchor="middle" x="53" y="-239.5" font-family="Helvetica,sans-Serif" font-size="10.00">i2s_processing_task</text>
</a>
</g>
</g>
<!-- Node2 -->
<g id="node2" class="node">
<title>Node2</title>
<g id="a_node2"><a xlink:href="float__convert_8h.html#ae9b18f6b920e3401ec41278b57e6817b" target="_top" xlink:title=" ">
<polygon fill="none" stroke="black" points="291,-232.5 291,-251.5 365,-251.5 365,-232.5 291,-232.5"/>
<text text-anchor="middle" x="328" y="-239.5" font-family="Helvetica,sans-Serif" font-size="10.00">float_to_int32</text>
</a>
</g>
</g>
<!-- Node1&#45;&gt;Node2 -->
<g id="edge1" class="edge">
<title>Node1&#45;&gt;Node2</title>
<path fill="none" stroke="midnightblue" d="M106.31,-242C156.8,-242 232.49,-242 280.8,-242"/>
<polygon fill="midnightblue" stroke="midnightblue" points="280.98,-245.5 290.98,-242 280.98,-238.5 280.98,-245.5"/>
</g>
<!-- Node3 -->
<g id="node3" class="node">
<title>Node3</title>
<g id="a_node3"><a xlink:href="process_8cpp.html#a159f752dbd8aa42d765e604910814129" target="_top" xlink:title=" ">
<polygon fill="none" stroke="black" points="154,-384.5 154,-403.5 223,-403.5 223,-384.5 154,-384.5"/>
<text text-anchor="middle" x="188.5" y="-391.5" font-family="Helvetica,sans-Serif" font-size="10.00">process_init</text>
</a>
</g>
</g>
<!-- Node1&#45;&gt;Node3 -->
<g id="edge2" class="edge">
<title>Node1&#45;&gt;Node3</title>
<path fill="none" stroke="midnightblue" d="M62.35,-251.51C84.36,-276.57 144.19,-344.68 172.4,-376.8"/>
<polygon fill="midnightblue" stroke="midnightblue" points="169.92,-379.29 179.15,-384.5 175.18,-374.67 169.92,-379.29"/>
</g>
<!-- Node16 -->
<g id="node16" class="node">
<title>Node16</title>
<g id="a_node16"><a xlink:href="process_8cpp.html#a450bec865b55b9890f4050f1ab0dba5c" target="_top" xlink:title=" ">
<polygon fill="none" stroke="black" points="142,-194.5 142,-213.5 235,-213.5 235,-194.5 142,-194.5"/>
<text text-anchor="middle" x="188.5" y="-201.5" font-family="Helvetica,sans-Serif" font-size="10.00">process_samples</text>
</a>
</g>
</g>
<!-- Node1&#45;&gt;Node16 -->
<g id="edge15" class="edge">
<title>Node1&#45;&gt;Node16</title>
<path fill="none" stroke="midnightblue" d="M87.69,-232.41C104.76,-227.55 125.7,-221.59 143.98,-216.39"/>
<polygon fill="midnightblue" stroke="midnightblue" points="145.16,-219.69 153.82,-213.59 143.25,-212.96 145.16,-219.69"/>
</g>
<!-- Node4 -->
<g id="node4" class="node">
<title>Node4</title>
<g id="a_node4"><a xlink:href="noise__gate_8cpp.html#a949bfebe851dee44040d83bbd068dad1" target="_top" xlink:title="Initialise the effect.">
<polygon fill="none" stroke="black" points="301.5,-460.5 301.5,-479.5 354.5,-479.5 354.5,-460.5 301.5,-460.5"/>
<text text-anchor="middle" x="328" y="-467.5" font-family="Helvetica,sans-Serif" font-size="10.00">gate_init</text>
</a>
</g>
</g>
<!-- Node3&#45;&gt;Node4 -->
<g id="edge3" class="edge">
<title>Node3&#45;&gt;Node4</title>
<path fill="none" stroke="midnightblue" d="M200.98,-403.62C216.18,-415.97 244.2,-437.43 271,-451 277.4,-454.24 284.48,-457.13 291.39,-459.61"/>
<polygon fill="midnightblue" stroke="midnightblue" points="290.7,-463.07 301.29,-462.96 292.94,-456.44 290.7,-463.07"/>
</g>
<!-- Node6 -->
<g id="node6" class="node">
<title>Node6</title>
<g id="a_node6"><a xlink:href="noise__gate_8cpp.html#a4868a6f017c846668c1b09d32b833099" target="_top" xlink:title="Set the attack time in milliseconds.">
<polygon fill="none" stroke="black" points="285,-270.5 285,-289.5 371,-289.5 371,-270.5 285,-270.5"/>
<text text-anchor="middle" x="328" y="-277.5" font-family="Helvetica,sans-Serif" font-size="10.00">gate_set_attack</text>
</a>
</g>
</g>
<!-- Node3&#45;&gt;Node6 -->
<g id="edge5" class="edge">
<title>Node3&#45;&gt;Node6</title>
<path fill="none" stroke="midnightblue" d="M195.2,-384.43C206.98,-365.43 235.89,-322.73 271,-299 273.89,-297.04 277.01,-295.27 280.23,-293.67"/>
<polygon fill="midnightblue" stroke="midnightblue" points="281.77,-296.82 289.52,-289.59 278.96,-290.41 281.77,-296.82"/>
</g>
<!-- Node7 -->
<g id="node7" class="node">
<title>Node7</title>
<g id="a_node7"><a xlink:href="noise__gate_8cpp.html#a184d915d5eb18d4743c6e3008bb47e62" target="_top" xlink:title="Set the buffer size in number of samples.">
<polygon fill="none" stroke="black" points="275,-422.5 275,-441.5 381,-441.5 381,-422.5 275,-422.5"/>
<text text-anchor="middle" x="328" y="-429.5" font-family="Helvetica,sans-Serif" font-size="10.00">gate_set_buffer_size</text>
</a>
</g>
</g>
<!-- Node3&#45;&gt;Node7 -->
<g id="edge6" class="edge">
<title>Node3&#45;&gt;Node7</title>
<path fill="none" stroke="midnightblue" d="M223.14,-403.3C241.01,-408.24 263.21,-414.37 282.5,-419.7"/>
<polygon fill="midnightblue" stroke="midnightblue" points="281.7,-423.11 292.28,-422.4 283.57,-416.37 281.7,-423.11"/>
</g>
<!-- Node8 -->
<g id="node8" class="node">
<title>Node8</title>
<g id="a_node8"><a xlink:href="noise__gate_8cpp.html#a4fccad713cee272e388c9c45fc97037e" target="_top" xlink:title="Set the hold time in milliseconds.">
<polygon fill="none" stroke="black" points="289.5,-384.5 289.5,-403.5 366.5,-403.5 366.5,-384.5 289.5,-384.5"/>
<text text-anchor="middle" x="328" y="-391.5" font-family="Helvetica,sans-Serif" font-size="10.00">gate_set_hold</text>
</a>
</g>
</g>
<!-- Node3&#45;&gt;Node8 -->
<g id="edge7" class="edge">
<title>Node3&#45;&gt;Node8</title>
<path fill="none" stroke="midnightblue" d="M223.14,-394C240.04,-394 260.82,-394 279.33,-394"/>
<polygon fill="midnightblue" stroke="midnightblue" points="279.35,-397.5 289.35,-394 279.35,-390.5 279.35,-397.5"/>
</g>
<!-- Node9 -->
<g id="node9" class="node">
<title>Node9</title>
<g id="a_node9"><a xlink:href="noise__gate_8cpp.html#abe525a07b8cb6f0557740cc4100428a9" target="_top" xlink:title="Set the release time in milliseconds.">
<polygon fill="none" stroke="black" points="282.5,-346.5 282.5,-365.5 373.5,-365.5 373.5,-346.5 282.5,-346.5"/>
<text text-anchor="middle" x="328" y="-353.5" font-family="Helvetica,sans-Serif" font-size="10.00">gate_set_release</text>
</a>
</g>
</g>
<!-- Node3&#45;&gt;Node9 -->
<g id="edge8" class="edge">
<title>Node3&#45;&gt;Node9</title>
<path fill="none" stroke="midnightblue" d="M223.14,-384.7C241.01,-379.76 263.21,-373.63 282.5,-368.3"/>
<polygon fill="midnightblue" stroke="midnightblue" points="283.57,-371.63 292.28,-365.6 281.7,-364.89 283.57,-371.63"/>
</g>
<!-- Node10 -->
<g id="node10" class="node">
<title>Node10</title>
<g id="a_node10"><a xlink:href="noise__gate_8cpp.html#a2691256497a1cec4e14434f48eccfb56" target="_top" xlink:title="Set the sample rate in Hz.">
<polygon fill="none" stroke="black" points="271.5,-558.5 271.5,-577.5 384.5,-577.5 384.5,-558.5 271.5,-558.5"/>
<text text-anchor="middle" x="328" y="-565.5" font-family="Helvetica,sans-Serif" font-size="10.00">gate_set_sample_rate</text>
</a>
</g>
</g>
<!-- Node3&#45;&gt;Node10 -->
<g id="edge9" class="edge">
<title>Node3&#45;&gt;Node10</title>
<path fill="none" stroke="midnightblue" d="M191.85,-403.58C198.94,-430.54 222.68,-507.73 271,-549 272.98,-550.69 275.12,-552.24 277.36,-553.64"/>
<polygon fill="midnightblue" stroke="midnightblue" points="275.97,-556.86 286.45,-558.42 279.23,-550.67 275.97,-556.86"/>
</g>
<!-- Node13 -->
<g id="node13" class="node">
<title>Node13</title>
<g id="a_node13"><a xlink:href="noise__gate_8cpp.html#a82e62ed410acc03c8179d8245de13e12" target="_top" xlink:title="Set the threshold and hysteresis value in dBFS.">
<polygon fill="none" stroke="black" points="278.5,-308.5 278.5,-327.5 377.5,-327.5 377.5,-308.5 278.5,-308.5"/>
<text text-anchor="middle" x="328" y="-315.5" font-family="Helvetica,sans-Serif" font-size="10.00">gate_set_threshold</text>
</a>
</g>
</g>
<!-- Node3&#45;&gt;Node13 -->
<g id="edge12" class="edge">
<title>Node3&#45;&gt;Node13</title>
<path fill="none" stroke="midnightblue" d="M200.98,-384.38C216.18,-372.03 244.2,-350.57 271,-337 275.24,-334.85 279.78,-332.86 284.37,-331.04"/>
<polygon fill="midnightblue" stroke="midnightblue" points="285.64,-334.3 293.79,-327.54 283.2,-327.74 285.64,-334.3"/>
</g>
<!-- Node15 -->
<g id="node15" class="node">
<title>Node15</title>
<g id="a_node15"><a xlink:href="classshrapnel_1_1parameters_1_1AudioParameters.html#a6350b5ab5bf4fe890bdab1e8a103d100" target="_top" xlink:title="Get denormalised value of parameter.">
<polygon fill="none" stroke="black" points="271,-498.5 271,-539.5 385,-539.5 385,-498.5 271,-498.5"/>
<text text-anchor="start" x="279" y="-527.5" font-family="Helvetica,sans-Serif" font-size="10.00">shrapnel::parameters</text>
<text text-anchor="start" x="279" y="-516.5" font-family="Helvetica,sans-Serif" font-size="10.00">::AudioParameters::get</text>
<text text-anchor="middle" x="328" y="-505.5" font-family="Helvetica,sans-Serif" font-size="10.00">_raw_parameter</text>
</a>
</g>
</g>
<!-- Node3&#45;&gt;Node15 -->
<g id="edge14" class="edge">
<title>Node3&#45;&gt;Node15</title>
<path fill="none" stroke="midnightblue" d="M195.94,-403.66C208.58,-422.08 238.3,-462.73 271,-489 272.55,-490.24 274.15,-491.46 275.8,-492.65"/>
<polygon fill="midnightblue" stroke="midnightblue" points="274.08,-495.7 284.34,-498.34 277.96,-489.88 274.08,-495.7"/>
</g>
<!-- Node5 -->
<g id="node5" class="node">
<title>Node5</title>
<g id="a_node5"><a xlink:href="noise__gate_8cpp.html#a5d3ba76b4666ac1820b498aaf04ea22e" target="_top" xlink:title="Reset the state.">
<polygon fill="none" stroke="black" points="444,-460.5 444,-479.5 506,-479.5 506,-460.5 444,-460.5"/>
<text text-anchor="middle" x="475" y="-467.5" font-family="Helvetica,sans-Serif" font-size="10.00">gate_reset</text>
</a>
</g>
</g>
<!-- Node4&#45;&gt;Node5 -->
<g id="edge4" class="edge">
<title>Node4&#45;&gt;Node5</title>
<path fill="none" stroke="midnightblue" d="M354.59,-470C376.53,-470 408.51,-470 433.85,-470"/>
<polygon fill="midnightblue" stroke="midnightblue" points="433.9,-473.5 443.9,-470 433.9,-466.5 433.9,-473.5"/>
</g>
<!-- Node11 -->
<g id="node11" class="node">
<title>Node11</title>
<g id="a_node11"><a xlink:href="abstract__dsp__esp32_8c.html#ab721c839889c1267077f4cb3304b655d" target="_top" xlink:title=" ">
<polygon fill="none" stroke="black" points="421.5,-577 421.5,-607 528.5,-607 528.5,-577 421.5,-577"/>
<text text-anchor="start" x="429.5" y="-595" font-family="Helvetica,sans-Serif" font-size="10.00">dspal_biquad_design</text>
<text text-anchor="middle" x="475" y="-584" font-family="Helvetica,sans-Serif" font-size="10.00">_lowpass</text>
</a>
</g>
</g>
<!-- Node10&#45;&gt;Node11 -->
<g id="edge10" class="edge">
<title>Node10&#45;&gt;Node11</title>
<path fill="none" stroke="midnightblue" d="M384.65,-577.21C393.35,-578.65 402.4,-580.15 411.25,-581.61"/>
<polygon fill="midnightblue" stroke="midnightblue" points="410.69,-585.07 421.13,-583.25 411.83,-578.16 410.69,-585.07"/>
</g>
<!-- Node12 -->
<g id="node12" class="node">
<title>Node12</title>
<g id="a_node12"><a xlink:href="classshrapnel_1_1dsp_1_1IirFilter.html#aa09e7c1ab99d85c0fdd1c98c80636550" target="_top" xlink:title=" ">
<polygon fill="none" stroke="black" points="421,-528 421,-558 529,-558 529,-528 421,-528"/>
<text text-anchor="start" x="429" y="-546" font-family="Helvetica,sans-Serif" font-size="10.00">shrapnel::dsp::IirFilter</text>
<text text-anchor="middle" x="475" y="-535" font-family="Helvetica,sans-Serif" font-size="10.00">::set_coefficients</text>
</a>
</g>
</g>
<!-- Node10&#45;&gt;Node12 -->
<g id="edge11" class="edge">
<title>Node10&#45;&gt;Node12</title>
<path fill="none" stroke="midnightblue" d="M384.23,-558.48C392.95,-556.97 402.03,-555.41 410.92,-553.88"/>
<polygon fill="midnightblue" stroke="midnightblue" points="411.58,-557.31 420.84,-552.17 410.39,-550.42 411.58,-557.31"/>
</g>
<!-- Node14 -->
<g id="node14" class="node">
<title>Node14</title>
<g id="a_node14"><a xlink:href="noise__gate_8cpp.html#afb2354391bb81545d92334434552ab4b" target="_top" xlink:title=" ">
<polygon fill="none" stroke="black" points="442.5,-308.5 442.5,-327.5 507.5,-327.5 507.5,-308.5 442.5,-308.5"/>
<text text-anchor="middle" x="475" y="-315.5" font-family="Helvetica,sans-Serif" font-size="10.00">db_to_ratio</text>
</a>
</g>
</g>
<!-- Node13&#45;&gt;Node14 -->
<g id="edge13" class="edge">
<title>Node13&#45;&gt;Node14</title>
<path fill="none" stroke="midnightblue" d="M377.69,-318C395.26,-318 414.94,-318 431.91,-318"/>
<polygon fill="midnightblue" stroke="midnightblue" points="432.08,-321.5 442.08,-318 432.08,-314.5 432.08,-321.5"/>
</g>
<!-- Node16&#45;&gt;Node2 -->
<g id="edge17" class="edge">
<title>Node16&#45;&gt;Node2</title>
<path fill="none" stroke="midnightblue" d="M224.2,-213.59C241.87,-218.47 263.55,-224.46 282.44,-229.68"/>
<polygon fill="midnightblue" stroke="midnightblue" points="281.74,-233.12 292.31,-232.41 283.61,-226.38 281.74,-233.12"/>
</g>
<!-- Node16&#45;&gt;Node6 -->
<g id="edge23" class="edge">
<title>Node16&#45;&gt;Node6</title>
<path fill="none" stroke="midnightblue" d="M200.98,-213.62C216.18,-225.97 244.2,-247.43 271,-261 275.24,-263.15 279.78,-265.14 284.37,-266.96"/>
<polygon fill="midnightblue" stroke="midnightblue" points="283.2,-270.26 293.79,-270.46 285.64,-263.7 283.2,-270.26"/>
</g>
<!-- Node16&#45;&gt;Node8 -->
<g id="edge24" class="edge">
<title>Node16&#45;&gt;Node8</title>
<path fill="none" stroke="midnightblue" d="M191.36,-213.72C197.4,-242.63 219.13,-328.9 271,-375 273.81,-377.5 276.97,-379.67 280.31,-381.56"/>
<polygon fill="midnightblue" stroke="midnightblue" points="278.95,-384.79 289.49,-385.93 281.96,-378.47 278.95,-384.79"/>
</g>
<!-- Node16&#45;&gt;Node9 -->
<g id="edge25" class="edge">
<title>Node16&#45;&gt;Node9</title>
<path fill="none" stroke="midnightblue" d="M192.75,-213.61C201.46,-237.91 227.63,-302.35 271,-337 273.26,-338.8 275.69,-340.44 278.24,-341.92"/>
<polygon fill="midnightblue" stroke="midnightblue" points="276.74,-345.08 287.25,-346.4 279.86,-338.82 276.74,-345.08"/>
</g>
<!-- Node16&#45;&gt;Node13 -->
<g id="edge26" class="edge">
<title>Node16&#45;&gt;Node13</title>
<path fill="none" stroke="midnightblue" d="M195.2,-213.57C206.98,-232.57 235.89,-275.27 271,-299 273.89,-300.96 277.01,-302.73 280.23,-304.33"/>
<polygon fill="midnightblue" stroke="midnightblue" points="278.96,-307.59 289.52,-308.41 281.77,-301.18 278.96,-307.59"/>
</g>
<!-- Node17 -->
<g id="node17" class="node">
<title>Node17</title>
<g id="a_node17"><a xlink:href="process_8cpp.html#a9785ac35cd7c86538882d5311fd66bf1" target="_top" xlink:title=" ">
<polygon fill="none" stroke="black" points="285.5,-80.5 285.5,-99.5 370.5,-99.5 370.5,-80.5 285.5,-80.5"/>
<text text-anchor="middle" x="328" y="-87.5" font-family="Helvetica,sans-Serif" font-size="10.00">decibel_to_ratio</text>
</a>
</g>
</g>
<!-- Node16&#45;&gt;Node17 -->
<g id="edge16" class="edge">
<title>Node16&#45;&gt;Node17</title>
<path fill="none" stroke="midnightblue" d="M195.2,-194.43C206.98,-175.43 235.89,-132.73 271,-109 273.89,-107.04 277.01,-105.27 280.23,-103.67"/>
<polygon fill="midnightblue" stroke="midnightblue" points="281.77,-106.82 289.52,-99.59 278.96,-100.41 281.77,-106.82"/>
</g>
<!-- Node18 -->
<g id="node18" class="node">
<title>Node18</title>
<g id="a_node18"><a xlink:href="noise__gate_8cpp.html#a129b18f80393706faa5a453417153a51" target="_top" xlink:title="Analyse the audio.">
<polygon fill="none" stroke="black" points="291,-42.5 291,-61.5 365,-61.5 365,-42.5 291,-42.5"/>
<text text-anchor="middle" x="328" y="-49.5" font-family="Helvetica,sans-Serif" font-size="10.00">gate_analyse</text>
</a>
</g>
</g>
<!-- Node16&#45;&gt;Node18 -->
<g id="edge18" class="edge">
<title>Node16&#45;&gt;Node18</title>
<path fill="none" stroke="midnightblue" d="M192.75,-194.39C201.46,-170.09 227.63,-105.65 271,-71 274.16,-68.48 277.67,-66.28 281.35,-64.37"/>
<polygon fill="midnightblue" stroke="midnightblue" points="283.04,-67.45 290.75,-60.19 280.19,-61.06 283.04,-67.45"/>
</g>
<!-- Node21 -->
<g id="node21" class="node">
<title>Node21</title>
<g id="a_node21"><a xlink:href="noise__gate_8cpp.html#a3a59d391339a038f91650058680b00d6" target="_top" xlink:title="Apply the precalculated gain to the audio.">
<polygon fill="none" stroke="black" points="290.5,-3.5 290.5,-22.5 365.5,-22.5 365.5,-3.5 290.5,-3.5"/>
<text text-anchor="middle" x="328" y="-10.5" font-family="Helvetica,sans-Serif" font-size="10.00">gate_process</text>
</a>
</g>
</g>
<!-- Node16&#45;&gt;Node21 -->
<g id="edge21" class="edge">
<title>Node16&#45;&gt;Node21</title>
<path fill="none" stroke="midnightblue" d="M191.4,-194.32C197.53,-165.52 219.5,-79.51 271,-33 274.02,-30.28 277.43,-27.92 281.05,-25.87"/>
<polygon fill="midnightblue" stroke="midnightblue" points="282.84,-28.9 290.35,-21.42 279.82,-22.58 282.84,-28.9"/>
</g>
<!-- Node23 -->
<g id="node23" class="node">
<title>Node23</title>
<g id="a_node23"><a xlink:href="profiling_8cpp.html#a3171d2be3fbf00e49982243e9869735a" target="_top" xlink:title=" ">
<polygon fill="none" stroke="black" points="275,-194.5 275,-213.5 381,-213.5 381,-194.5 275,-194.5"/>
<text text-anchor="middle" x="328" y="-201.5" font-family="Helvetica,sans-Serif" font-size="10.00">profiling_mark_stage</text>
</a>
</g>
</g>
<!-- Node16&#45;&gt;Node23 -->
<g id="edge27" class="edge">
<title>Node16&#45;&gt;Node23</title>
<path fill="none" stroke="midnightblue" d="M235.29,-204C244.68,-204 254.72,-204 264.58,-204"/>
<polygon fill="midnightblue" stroke="midnightblue" points="264.76,-207.5 274.76,-204 264.76,-200.5 264.76,-207.5"/>
</g>
<!-- Node24 -->
<g id="node24" class="node">
<title>Node24</title>
<g id="a_node24"><a xlink:href="profiling_8cpp.html#ac05fdc10ded37340f2ab202bbc184d20" target="_top" xlink:title=" ">
<polygon fill="none" stroke="black" points="291,-156.5 291,-175.5 365,-175.5 365,-156.5 291,-156.5"/>
<text text-anchor="middle" x="328" y="-163.5" font-family="Helvetica,sans-Serif" font-size="10.00">profiling_start</text>
</a>
</g>
</g>
<!-- Node16&#45;&gt;Node24 -->
<g id="edge28" class="edge">
<title>Node16&#45;&gt;Node24</title>
<path fill="none" stroke="midnightblue" d="M224.2,-194.41C241.87,-189.53 263.55,-183.54 282.44,-178.32"/>
<polygon fill="midnightblue" stroke="midnightblue" points="283.61,-181.62 292.31,-175.59 281.74,-174.88 283.61,-181.62"/>
</g>
<!-- Node25 -->
<g id="node25" class="node">
<title>Node25</title>
<g id="a_node25"><a xlink:href="profiling_8cpp.html#a9f4516d77db32a65ee99933c6c9d3802" target="_top" xlink:title=" ">
<polygon fill="none" stroke="black" points="291,-118.5 291,-137.5 365,-137.5 365,-118.5 291,-118.5"/>
<text text-anchor="middle" x="328" y="-125.5" font-family="Helvetica,sans-Serif" font-size="10.00">profiling_stop</text>
</a>
</g>
</g>
<!-- Node16&#45;&gt;Node25 -->
<g id="edge29" class="edge">
<title>Node16&#45;&gt;Node25</title>
<path fill="none" stroke="midnightblue" d="M200.98,-194.38C216.18,-182.03 244.2,-160.57 271,-147 275.24,-144.85 279.78,-142.86 284.37,-141.04"/>
<polygon fill="midnightblue" stroke="midnightblue" points="285.64,-144.3 293.79,-137.54 283.2,-137.74 285.64,-144.3"/>
</g>
<!-- Node19 -->
<g id="node19" class="node">
<title>Node19</title>
<g id="a_node19"><a xlink:href="classshrapnel_1_1dsp_1_1IirFilter.html#a53cb5a72d2a310cd4b35d4329af682f0" target="_top" xlink:title=" ">
<polygon fill="none" stroke="black" points="421,-39 421,-69 529,-69 529,-39 421,-39"/>
<text text-anchor="start" x="429" y="-57" font-family="Helvetica,sans-Serif" font-size="10.00">shrapnel::dsp::IirFilter</text>
<text text-anchor="middle" x="475" y="-46" font-family="Helvetica,sans-Serif" font-size="10.00">::process</text>
</a>
</g>
</g>
<!-- Node18&#45;&gt;Node19 -->
<g id="edge19" class="edge">
<title>Node18&#45;&gt;Node19</title>
<path fill="none" stroke="midnightblue" d="M365.22,-52.5C378.98,-52.69 395.09,-52.91 410.63,-53.13"/>
<polygon fill="midnightblue" stroke="midnightblue" points="410.69,-56.63 420.73,-53.27 410.78,-49.63 410.69,-56.63"/>
</g>
<!-- Node20 -->
<g id="node20" class="node">
<title>Node20</title>
<g id="a_node20"><a xlink:href="iir__universal_8c.html#a738b77e8a79f0c754dba3af19fbd4e30" target="_top" xlink:title=" ">
<polygon fill="none" stroke="black" points="565,-44.5 565,-63.5 629,-63.5 629,-44.5 565,-44.5"/>
<text text-anchor="middle" x="597" y="-51.5" font-family="Helvetica,sans-Serif" font-size="10.00">iir_process</text>
</a>
</g>
</g>
<!-- Node19&#45;&gt;Node20 -->
<g id="edge20" class="edge">
<title>Node19&#45;&gt;Node20</title>
<path fill="none" stroke="midnightblue" d="M529.33,-54C537.87,-54 546.59,-54 554.79,-54"/>
<polygon fill="midnightblue" stroke="midnightblue" points="554.85,-57.5 564.85,-54 554.85,-50.5 554.85,-57.5"/>
</g>
<!-- Node22 -->
<g id="node22" class="node">
<title>Node22</title>
<g id="a_node22"><a xlink:href="abstract__dsp__esp32_8c.html#a52d208742d325a0cdb7225bd9fe0e902" target="_top" xlink:title=" ">
<polygon fill="none" stroke="black" points="436,-0.5 436,-19.5 514,-19.5 514,-0.5 436,-0.5"/>
<text text-anchor="middle" x="475" y="-7.5" font-family="Helvetica,sans-Serif" font-size="10.00">dspal_multiply</text>
</a>
</g>
</g>
<!-- Node21&#45;&gt;Node22 -->
<g id="edge22" class="edge">
<title>Node21&#45;&gt;Node22</title>
<path fill="none" stroke="midnightblue" d="M365.59,-12.24C383.8,-11.87 406.04,-11.41 425.64,-11"/>
<polygon fill="midnightblue" stroke="midnightblue" points="425.98,-14.49 435.9,-10.79 425.83,-7.5 425.98,-14.49"/>
</g>
</g>
</svg>
