<?xml version="1.0" encoding="UTF-8" standalone="no"?>
<!DOCTYPE svg PUBLIC "-//W3C//DTD SVG 1.1//EN"
 "http://www.w3.org/Graphics/SVG/1.1/DTD/svg11.dtd">
<!-- Generated by graphviz version 3.0.0 (20221109.1736)
 -->
<!-- Title: i2s_setup Pages: 1 -->
<svg width="732pt" height="616pt"
 viewBox="0.00 0.00 732.00 615.50" xmlns="http://www.w3.org/2000/svg" xmlns:xlink="http://www.w3.org/1999/xlink">
<g id="graph0" class="graph" transform="scale(1 1) rotate(0) translate(4 611.5)">
<title>i2s_setup</title>
<!-- Node1 -->
<g id="node1" class="node">
<title>Node1</title>
<g id="a_node1"><a xlink:title=" ">
<polygon fill="#bfbfbf" stroke="black" points="0,-251.5 0,-270.5 59,-270.5 59,-251.5 0,-251.5"/>
<text text-anchor="middle" x="29.5" y="-258.5" font-family="Helvetica,sans-Serif" font-size="10.00">i2s_setup</text>
</a>
</g>
</g>
<!-- Node2 -->
<g id="node2" class="node">
<title>Node2</title>
<g id="a_node2"><a xlink:href="i2s_8cpp.html#a0826d7a742c16e16a62704cc59fd4ba2" target="_top" xlink:title=" ">
<polygon fill="none" stroke="black" points="115.5,-270.5 115.5,-289.5 180.5,-289.5 180.5,-270.5 115.5,-270.5"/>
<text text-anchor="middle" x="148" y="-277.5" font-family="Helvetica,sans-Serif" font-size="10.00">event_task</text>
</a>
</g>
</g>
<!-- Node1&#45;&gt;Node2 -->
<g id="edge1" class="edge">
<title>Node1&#45;&gt;Node2</title>
<path fill="none" stroke="midnightblue" d="M59.3,-265.7C73.09,-267.95 89.88,-270.68 105.06,-273.16"/>
<polygon fill="midnightblue" stroke="midnightblue" points="104.82,-276.67 115.26,-274.82 105.95,-269.76 104.82,-276.67"/>
</g>
<!-- Node3 -->
<g id="node3" class="node">
<title>Node3</title>
<g id="a_node3"><a xlink:href="i2s_8cpp.html#a4e37f563a34c1a559515cc40782caf07" target="_top" xlink:title=" ">
<polygon fill="none" stroke="black" points="95,-232.5 95,-251.5 201,-251.5 201,-232.5 95,-232.5"/>
<text text-anchor="middle" x="148" y="-239.5" font-family="Helvetica,sans-Serif" font-size="10.00">i2s_processing_task</text>
</a>
</g>
</g>
<!-- Node1&#45;&gt;Node3 -->
<g id="edge2" class="edge">
<title>Node1&#45;&gt;Node3</title>
<path fill="none" stroke="midnightblue" d="M59.3,-256.3C67.13,-255.03 75.93,-253.59 84.85,-252.14"/>
<polygon fill="midnightblue" stroke="midnightblue" points="85.62,-255.56 94.93,-250.49 84.49,-248.65 85.62,-255.56"/>
</g>
<!-- Node4 -->
<g id="node4" class="node">
<title>Node4</title>
<g id="a_node4"><a xlink:href="float__convert_8h.html#ae9b18f6b920e3401ec41278b57e6817b" target="_top" xlink:title=" ">
<polygon fill="none" stroke="black" points="386,-232.5 386,-251.5 460,-251.5 460,-232.5 386,-232.5"/>
<text text-anchor="middle" x="423" y="-239.5" font-family="Helvetica,sans-Serif" font-size="10.00">float_to_int32</text>
</a>
</g>
</g>
<!-- Node3&#45;&gt;Node4 -->
<g id="edge3" class="edge">
<title>Node3&#45;&gt;Node4</title>
<path fill="none" stroke="midnightblue" d="M201.31,-242C251.8,-242 327.49,-242 375.8,-242"/>
<polygon fill="midnightblue" stroke="midnightblue" points="375.98,-245.5 385.98,-242 375.98,-238.5 375.98,-245.5"/>
</g>
<!-- Node5 -->
<g id="node5" class="node">
<title>Node5</title>
<g id="a_node5"><a xlink:href="process_8cpp.html#a159f752dbd8aa42d765e604910814129" target="_top" xlink:title=" ">
<polygon fill="none" stroke="black" points="249,-384.5 249,-403.5 318,-403.5 318,-384.5 249,-384.5"/>
<text text-anchor="middle" x="283.5" y="-391.5" font-family="Helvetica,sans-Serif" font-size="10.00">process_init</text>
</a>
</g>
</g>
<!-- Node3&#45;&gt;Node5 -->
<g id="edge4" class="edge">
<title>Node3&#45;&gt;Node5</title>
<path fill="none" stroke="midnightblue" d="M185.11,-251.58C190.78,-254.07 196.31,-257.17 201,-261 239.1,-292.17 264.19,-346.13 275.53,-374.8"/>
<polygon fill="midnightblue" stroke="midnightblue" points="272.37,-376.35 279.2,-384.45 278.91,-373.86 272.37,-376.35"/>
</g>
<!-- Node18 -->
<g id="node18" class="node">
<title>Node18</title>
<g id="a_node18"><a xlink:href="process_8cpp.html#a450bec865b55b9890f4050f1ab0dba5c" target="_top" xlink:title=" ">
<polygon fill="none" stroke="black" points="237,-194.5 237,-213.5 330,-213.5 330,-194.5 237,-194.5"/>
<text text-anchor="middle" x="283.5" y="-201.5" font-family="Helvetica,sans-Serif" font-size="10.00">process_samples</text>
</a>
</g>
</g>
<!-- Node3&#45;&gt;Node18 -->
<g id="edge17" class="edge">
<title>Node3&#45;&gt;Node18</title>
<path fill="none" stroke="midnightblue" d="M182.69,-232.41C199.76,-227.55 220.7,-221.59 238.98,-216.39"/>
<polygon fill="midnightblue" stroke="midnightblue" points="240.16,-219.69 248.82,-213.59 238.25,-212.96 240.16,-219.69"/>
</g>
<!-- Node6 -->
<g id="node6" class="node">
<title>Node6</title>
<g id="a_node6"><a xlink:href="noise__gate_8cpp.html#a949bfebe851dee44040d83bbd068dad1" target="_top" xlink:title="Initialise the effect.">
<polygon fill="none" stroke="black" points="396.5,-460.5 396.5,-479.5 449.5,-479.5 449.5,-460.5 396.5,-460.5"/>
<text text-anchor="middle" x="423" y="-467.5" font-family="Helvetica,sans-Serif" font-size="10.00">gate_init</text>
</a>
</g>
</g>
<!-- Node5&#45;&gt;Node6 -->
<g id="edge5" class="edge">
<title>Node5&#45;&gt;Node6</title>
<path fill="none" stroke="midnightblue" d="M295.98,-403.62C311.18,-415.97 339.2,-437.43 366,-451 372.4,-454.24 379.48,-457.13 386.39,-459.61"/>
<polygon fill="midnightblue" stroke="midnightblue" points="385.7,-463.07 396.29,-462.96 387.94,-456.44 385.7,-463.07"/>
</g>
<!-- Node8 -->
<g id="node8" class="node">
<title>Node8</title>
<g id="a_node8"><a xlink:href="noise__gate_8cpp.html#a4868a6f017c846668c1b09d32b833099" target="_top" xlink:title="Set the attack time in milliseconds.">
<polygon fill="none" stroke="black" points="380,-270.5 380,-289.5 466,-289.5 466,-270.5 380,-270.5"/>
<text text-anchor="middle" x="423" y="-277.5" font-family="Helvetica,sans-Serif" font-size="10.00">gate_set_attack</text>
</a>
</g>
</g>
<!-- Node5&#45;&gt;Node8 -->
<g id="edge7" class="edge">
<title>Node5&#45;&gt;Node8</title>
<path fill="none" stroke="midnightblue" d="M290.2,-384.43C301.98,-365.43 330.89,-322.73 366,-299 368.89,-297.04 372.01,-295.27 375.23,-293.67"/>
<polygon fill="midnightblue" stroke="midnightblue" points="376.77,-296.82 384.52,-289.59 373.96,-290.41 376.77,-296.82"/>
</g>
<!-- Node9 -->
<g id="node9" class="node">
<title>Node9</title>
<g id="a_node9"><a xlink:href="noise__gate_8cpp.html#a184d915d5eb18d4743c6e3008bb47e62" target="_top" xlink:title="Set the buffer size in number of samples.">
<polygon fill="none" stroke="black" points="370,-422.5 370,-441.5 476,-441.5 476,-422.5 370,-422.5"/>
<text text-anchor="middle" x="423" y="-429.5" font-family="Helvetica,sans-Serif" font-size="10.00">gate_set_buffer_size</text>
</a>
</g>
</g>
<!-- Node5&#45;&gt;Node9 -->
<g id="edge8" class="edge">
<title>Node5&#45;&gt;Node9</title>
<path fill="none" stroke="midnightblue" d="M318.14,-403.3C336.01,-408.24 358.21,-414.37 377.5,-419.7"/>
<polygon fill="midnightblue" stroke="midnightblue" points="376.7,-423.11 387.28,-422.4 378.57,-416.37 376.7,-423.11"/>
</g>
<!-- Node10 -->
<g id="node10" class="node">
<title>Node10</title>
<g id="a_node10"><a xlink:href="noise__gate_8cpp.html#a4fccad713cee272e388c9c45fc97037e" target="_top" xlink:title="Set the hold time in milliseconds.">
<polygon fill="none" stroke="black" points="384.5,-384.5 384.5,-403.5 461.5,-403.5 461.5,-384.5 384.5,-384.5"/>
<text text-anchor="middle" x="423" y="-391.5" font-family="Helvetica,sans-Serif" font-size="10.00">gate_set_hold</text>
</a>
</g>
</g>
<!-- Node5&#45;&gt;Node10 -->
<g id="edge9" class="edge">
<title>Node5&#45;&gt;Node10</title>
<path fill="none" stroke="midnightblue" d="M318.14,-394C335.04,-394 355.82,-394 374.33,-394"/>
<polygon fill="midnightblue" stroke="midnightblue" points="374.35,-397.5 384.35,-394 374.35,-390.5 374.35,-397.5"/>
</g>
<!-- Node11 -->
<g id="node11" class="node">
<title>Node11</title>
<g id="a_node11"><a xlink:href="noise__gate_8cpp.html#abe525a07b8cb6f0557740cc4100428a9" target="_top" xlink:title="Set the release time in milliseconds.">
<polygon fill="none" stroke="black" points="377.5,-346.5 377.5,-365.5 468.5,-365.5 468.5,-346.5 377.5,-346.5"/>
<text text-anchor="middle" x="423" y="-353.5" font-family="Helvetica,sans-Serif" font-size="10.00">gate_set_release</text>
</a>
</g>
</g>
<!-- Node5&#45;&gt;Node11 -->
<g id="edge10" class="edge">
<title>Node5&#45;&gt;Node11</title>
<path fill="none" stroke="midnightblue" d="M318.14,-384.7C336.01,-379.76 358.21,-373.63 377.5,-368.3"/>
<polygon fill="midnightblue" stroke="midnightblue" points="378.57,-371.63 387.28,-365.6 376.7,-364.89 378.57,-371.63"/>
</g>
<!-- Node12 -->
<g id="node12" class="node">
<title>Node12</title>
<g id="a_node12"><a xlink:href="noise__gate_8cpp.html#a2691256497a1cec4e14434f48eccfb56" target="_top" xlink:title="Set the sample rate in Hz.">
<polygon fill="none" stroke="black" points="366.5,-558.5 366.5,-577.5 479.5,-577.5 479.5,-558.5 366.5,-558.5"/>
<text text-anchor="middle" x="423" y="-565.5" font-family="Helvetica,sans-Serif" font-size="10.00">gate_set_sample_rate</text>
</a>
</g>
</g>
<!-- Node5&#45;&gt;Node12 -->
<g id="edge11" class="edge">
<title>Node5&#45;&gt;Node12</title>
<path fill="none" stroke="midnightblue" d="M286.85,-403.58C293.94,-430.54 317.68,-507.73 366,-549 367.98,-550.69 370.12,-552.24 372.36,-553.64"/>
<polygon fill="midnightblue" stroke="midnightblue" points="370.97,-556.86 381.45,-558.42 374.23,-550.67 370.97,-556.86"/>
</g>
<!-- Node15 -->
<g id="node15" class="node">
<title>Node15</title>
<g id="a_node15"><a xlink:href="noise__gate_8cpp.html#a82e62ed410acc03c8179d8245de13e12" target="_top" xlink:title="Set the threshold and hysteresis value in dBFS.">
<polygon fill="none" stroke="black" points="373.5,-308.5 373.5,-327.5 472.5,-327.5 472.5,-308.5 373.5,-308.5"/>
<text text-anchor="middle" x="423" y="-315.5" font-family="Helvetica,sans-Serif" font-size="10.00">gate_set_threshold</text>
</a>
</g>
</g>
<!-- Node5&#45;&gt;Node15 -->
<g id="edge14" class="edge">
<title>Node5&#45;&gt;Node15</title>
<path fill="none" stroke="midnightblue" d="M295.98,-384.38C311.18,-372.03 339.2,-350.57 366,-337 370.24,-334.85 374.78,-332.86 379.37,-331.04"/>
<polygon fill="midnightblue" stroke="midnightblue" points="380.64,-334.3 388.79,-327.54 378.2,-327.74 380.64,-334.3"/>
</g>
<!-- Node17 -->
<g id="node17" class="node">
<title>Node17</title>
<g id="a_node17"><a xlink:href="classshrapnel_1_1parameters_1_1AudioParameters.html#a6350b5ab5bf4fe890bdab1e8a103d100" target="_top" xlink:title="Get denormalised value of parameter.">
<polygon fill="none" stroke="black" points="366,-498.5 366,-539.5 480,-539.5 480,-498.5 366,-498.5"/>
<text text-anchor="start" x="374" y="-527.5" font-family="Helvetica,sans-Serif" font-size="10.00">shrapnel::parameters</text>
<text text-anchor="start" x="374" y="-516.5" font-family="Helvetica,sans-Serif" font-size="10.00">::AudioParameters::get</text>
<text text-anchor="middle" x="423" y="-505.5" font-family="Helvetica,sans-Serif" font-size="10.00">_raw_parameter</text>
</a>
</g>
</g>
<!-- Node5&#45;&gt;Node17 -->
<g id="edge16" class="edge">
<title>Node5&#45;&gt;Node17</title>
<path fill="none" stroke="midnightblue" d="M290.94,-403.66C303.58,-422.08 333.3,-462.73 366,-489 367.55,-490.24 369.15,-491.46 370.8,-492.65"/>
<polygon fill="midnightblue" stroke="midnightblue" points="369.08,-495.7 379.34,-498.34 372.96,-489.88 369.08,-495.7"/>
</g>
<!-- Node7 -->
<g id="node7" class="node">
<title>Node7</title>
<g id="a_node7"><a xlink:href="noise__gate_8cpp.html#a5d3ba76b4666ac1820b498aaf04ea22e" target="_top" xlink:title="Reset the state.">
<polygon fill="none" stroke="black" points="539,-460.5 539,-479.5 601,-479.5 601,-460.5 539,-460.5"/>
<text text-anchor="middle" x="570" y="-467.5" font-family="Helvetica,sans-Serif" font-size="10.00">gate_reset</text>
</a>
</g>
</g>
<!-- Node6&#45;&gt;Node7 -->
<g id="edge6" class="edge">
<title>Node6&#45;&gt;Node7</title>
<path fill="none" stroke="midnightblue" d="M449.59,-470C471.53,-470 503.51,-470 528.85,-470"/>
<polygon fill="midnightblue" stroke="midnightblue" points="528.9,-473.5 538.9,-470 528.9,-466.5 528.9,-473.5"/>
</g>
<!-- Node13 -->
<g id="node13" class="node">
<title>Node13</title>
<g id="a_node13"><a xlink:href="abstract__dsp__esp32_8c.html#ab721c839889c1267077f4cb3304b655d" target="_top" xlink:title=" ">
<polygon fill="none" stroke="black" points="516.5,-577 516.5,-607 623.5,-607 623.5,-577 516.5,-577"/>
<text text-anchor="start" x="524.5" y="-595" font-family="Helvetica,sans-Serif" font-size="10.00">dspal_biquad_design</text>
<text text-anchor="middle" x="570" y="-584" font-family="Helvetica,sans-Serif" font-size="10.00">_lowpass</text>
</a>
</g>
</g>
<!-- Node12&#45;&gt;Node13 -->
<g id="edge12" class="edge">
<title>Node12&#45;&gt;Node13</title>
<path fill="none" stroke="midnightblue" d="M479.65,-577.21C488.35,-578.65 497.4,-580.15 506.25,-581.61"/>
<polygon fill="midnightblue" stroke="midnightblue" points="505.69,-585.07 516.13,-583.25 506.83,-578.16 505.69,-585.07"/>
</g>
<!-- Node14 -->
<g id="node14" class="node">
<title>Node14</title>
<g id="a_node14"><a xlink:href="classshrapnel_1_1dsp_1_1IirFilter.html#aa09e7c1ab99d85c0fdd1c98c80636550" target="_top" xlink:title=" ">
<polygon fill="none" stroke="black" points="516,-528 516,-558 624,-558 624,-528 516,-528"/>
<text text-anchor="start" x="524" y="-546" font-family="Helvetica,sans-Serif" font-size="10.00">shrapnel::dsp::IirFilter</text>
<text text-anchor="middle" x="570" y="-535" font-family="Helvetica,sans-Serif" font-size="10.00">::set_coefficients</text>
</a>
</g>
</g>
<!-- Node12&#45;&gt;Node14 -->
<g id="edge13" class="edge">
<title>Node12&#45;&gt;Node14</title>
<path fill="none" stroke="midnightblue" d="M479.23,-558.48C487.95,-556.97 497.03,-555.41 505.92,-553.88"/>
<polygon fill="midnightblue" stroke="midnightblue" points="506.58,-557.31 515.84,-552.17 505.39,-550.42 506.58,-557.31"/>
</g>
<!-- Node16 -->
<g id="node16" class="node">
<title>Node16</title>
<g id="a_node16"><a xlink:href="noise__gate_8cpp.html#afb2354391bb81545d92334434552ab4b" target="_top" xlink:title=" ">
<polygon fill="none" stroke="black" points="537.5,-308.5 537.5,-327.5 602.5,-327.5 602.5,-308.5 537.5,-308.5"/>
<text text-anchor="middle" x="570" y="-315.5" font-family="Helvetica,sans-Serif" font-size="10.00">db_to_ratio</text>
</a>
</g>
</g>
<!-- Node15&#45;&gt;Node16 -->
<g id="edge15" class="edge">
<title>Node15&#45;&gt;Node16</title>
<path fill="none" stroke="midnightblue" d="M472.69,-318C490.26,-318 509.94,-318 526.91,-318"/>
<polygon fill="midnightblue" stroke="midnightblue" points="527.08,-321.5 537.08,-318 527.08,-314.5 527.08,-321.5"/>
</g>
<!-- Node18&#45;&gt;Node4 -->
<g id="edge19" class="edge">
<title>Node18&#45;&gt;Node4</title>
<path fill="none" stroke="midnightblue" d="M319.2,-213.59C336.87,-218.47 358.55,-224.46 377.44,-229.68"/>
<polygon fill="midnightblue" stroke="midnightblue" points="376.74,-233.12 387.31,-232.41 378.61,-226.38 376.74,-233.12"/>
</g>
<!-- Node18&#45;&gt;Node8 -->
<g id="edge25" class="edge">
<title>Node18&#45;&gt;Node8</title>
<path fill="none" stroke="midnightblue" d="M295.98,-213.62C311.18,-225.97 339.2,-247.43 366,-261 370.24,-263.15 374.78,-265.14 379.37,-266.96"/>
<polygon fill="midnightblue" stroke="midnightblue" points="378.2,-270.26 388.79,-270.46 380.64,-263.7 378.2,-270.26"/>
</g>
<!-- Node18&#45;&gt;Node10 -->
<g id="edge26" class="edge">
<title>Node18&#45;&gt;Node10</title>
<path fill="none" stroke="midnightblue" d="M286.36,-213.72C292.4,-242.63 314.13,-328.9 366,-375 368.81,-377.5 371.97,-379.67 375.31,-381.56"/>
<polygon fill="midnightblue" stroke="midnightblue" points="373.95,-384.79 384.49,-385.93 376.96,-378.47 373.95,-384.79"/>
</g>
<!-- Node18&#45;&gt;Node11 -->
<g id="edge27" class="edge">
<title>Node18&#45;&gt;Node11</title>
<path fill="none" stroke="midnightblue" d="M287.75,-213.61C296.46,-237.91 322.63,-302.35 366,-337 368.26,-338.8 370.69,-340.44 373.24,-341.92"/>
<polygon fill="midnightblue" stroke="midnightblue" points="371.74,-345.08 382.25,-346.4 374.86,-338.82 371.74,-345.08"/>
</g>
<!-- Node18&#45;&gt;Node15 -->
<g id="edge28" class="edge">
<title>Node18&#45;&gt;Node15</title>
<path fill="none" stroke="midnightblue" d="M290.2,-213.57C301.98,-232.57 330.89,-275.27 366,-299 368.89,-300.96 372.01,-302.73 375.23,-304.33"/>
<polygon fill="midnightblue" stroke="midnightblue" points="373.96,-307.59 384.52,-308.41 376.77,-301.18 373.96,-307.59"/>
</g>
<!-- Node19 -->
<g id="node19" class="node">
<title>Node19</title>
<g id="a_node19"><a xlink:href="process_8cpp.html#a9785ac35cd7c86538882d5311fd66bf1" target="_top" xlink:title=" ">
<polygon fill="none" stroke="black" points="380.5,-80.5 380.5,-99.5 465.5,-99.5 465.5,-80.5 380.5,-80.5"/>
<text text-anchor="middle" x="423" y="-87.5" font-family="Helvetica,sans-Serif" font-size="10.00">decibel_to_ratio</text>
</a>
</g>
</g>
<!-- Node18&#45;&gt;Node19 -->
<g id="edge18" class="edge">
<title>Node18&#45;&gt;Node19</title>
<path fill="none" stroke="midnightblue" d="M290.2,-194.43C301.98,-175.43 330.89,-132.73 366,-109 368.89,-107.04 372.01,-105.27 375.23,-103.67"/>
<polygon fill="midnightblue" stroke="midnightblue" points="376.77,-106.82 384.52,-99.59 373.96,-100.41 376.77,-106.82"/>
</g>
<!-- Node20 -->
<g id="node20" class="node">
<title>Node20</title>
<g id="a_node20"><a xlink:href="noise__gate_8cpp.html#a129b18f80393706faa5a453417153a51" target="_top" xlink:title="Analyse the audio.">
<polygon fill="none" stroke="black" points="386,-42.5 386,-61.5 460,-61.5 460,-42.5 386,-42.5"/>
<text text-anchor="middle" x="423" y="-49.5" font-family="Helvetica,sans-Serif" font-size="10.00">gate_analyse</text>
</a>
</g>
</g>
<!-- Node18&#45;&gt;Node20 -->
<g id="edge20" class="edge">
<title>Node18&#45;&gt;Node20</title>
<path fill="none" stroke="midnightblue" d="M287.75,-194.39C296.46,-170.09 322.63,-105.65 366,-71 369.16,-68.48 372.67,-66.28 376.35,-64.37"/>
<polygon fill="midnightblue" stroke="midnightblue" points="378.04,-67.45 385.75,-60.19 375.19,-61.06 378.04,-67.45"/>
</g>
<!-- Node23 -->
<g id="node23" class="node">
<title>Node23</title>
<g id="a_node23"><a xlink:href="noise__gate_8cpp.html#a3a59d391339a038f91650058680b00d6" target="_top" xlink:title="Apply the precalculated gain to the audio.">
<polygon fill="none" stroke="black" points="385.5,-3.5 385.5,-22.5 460.5,-22.5 460.5,-3.5 385.5,-3.5"/>
<text text-anchor="middle" x="423" y="-10.5" font-family="Helvetica,sans-Serif" font-size="10.00">gate_process</text>
</a>
</g>
</g>
<!-- Node18&#45;&gt;Node23 -->
<g id="edge23" class="edge">
<title>Node18&#45;&gt;Node23</title>
<path fill="none" stroke="midnightblue" d="M286.4,-194.32C292.53,-165.52 314.5,-79.51 366,-33 369.02,-30.28 372.43,-27.92 376.05,-25.87"/>
<polygon fill="midnightblue" stroke="midnightblue" points="377.84,-28.9 385.35,-21.42 374.82,-22.58 377.84,-28.9"/>
</g>
<!-- Node25 -->
<g id="node25" class="node">
<title>Node25</title>
<g id="a_node25"><a xlink:href="profiling_8cpp.html#a3171d2be3fbf00e49982243e9869735a" target="_top" xlink:title=" ">
<polygon fill="none" stroke="black" points="370,-194.5 370,-213.5 476,-213.5 476,-194.5 370,-194.5"/>
<text text-anchor="middle" x="423" y="-201.5" font-family="Helvetica,sans-Serif" font-size="10.00">profiling_mark_stage</text>
</a>
</g>
</g>
<!-- Node18&#45;&gt;Node25 -->
<g id="edge29" class="edge">
<title>Node18&#45;&gt;Node25</title>
<path fill="none" stroke="midnightblue" d="M330.29,-204C339.68,-204 349.72,-204 359.58,-204"/>
<polygon fill="midnightblue" stroke="midnightblue" points="359.76,-207.5 369.76,-204 359.76,-200.5 359.76,-207.5"/>
</g>
<!-- Node26 -->
<g id="node26" class="node">
<title>Node26</title>
<g id="a_node26"><a xlink:href="profiling_8cpp.html#ac05fdc10ded37340f2ab202bbc184d20" target="_top" xlink:title=" ">
<polygon fill="none" stroke="black" points="386,-156.5 386,-175.5 460,-175.5 460,-156.5 386,-156.5"/>
<text text-anchor="middle" x="423" y="-163.5" font-family="Helvetica,sans-Serif" font-size="10.00">profiling_start</text>
</a>
</g>
</g>
<!-- Node18&#45;&gt;Node26 -->
<g id="edge30" class="edge">
<title>Node18&#45;&gt;Node26</title>
<path fill="none" stroke="midnightblue" d="M319.2,-194.41C336.87,-189.53 358.55,-183.54 377.44,-178.32"/>
<polygon fill="midnightblue" stroke="midnightblue" points="378.61,-181.62 387.31,-175.59 376.74,-174.88 378.61,-181.62"/>
</g>
<!-- Node27 -->
<g id="node27" class="node">
<title>Node27</title>
<g id="a_node27"><a xlink:href="profiling_8cpp.html#a9f4516d77db32a65ee99933c6c9d3802" target="_top" xlink:title=" ">
<polygon fill="none" stroke="black" points="386,-118.5 386,-137.5 460,-137.5 460,-118.5 386,-118.5"/>
<text text-anchor="middle" x="423" y="-125.5" font-family="Helvetica,sans-Serif" font-size="10.00">profiling_stop</text>
</a>
</g>
</g>
<!-- Node18&#45;&gt;Node27 -->
<g id="edge31" class="edge">
<title>Node18&#45;&gt;Node27</title>
<path fill="none" stroke="midnightblue" d="M295.98,-194.38C311.18,-182.03 339.2,-160.57 366,-147 370.24,-144.85 374.78,-142.86 379.37,-141.04"/>
<polygon fill="midnightblue" stroke="midnightblue" points="380.64,-144.3 388.79,-137.54 378.2,-137.74 380.64,-144.3"/>
</g>
<!-- Node21 -->
<g id="node21" class="node">
<title>Node21</title>
<g id="a_node21"><a xlink:href="classshrapnel_1_1dsp_1_1IirFilter.html#a53cb5a72d2a310cd4b35d4329af682f0" target="_top" xlink:title=" ">
<polygon fill="none" stroke="black" points="516,-39 516,-69 624,-69 624,-39 516,-39"/>
<text text-anchor="start" x="524" y="-57" font-family="Helvetica,sans-Serif" font-size="10.00">shrapnel::dsp::IirFilter</text>
<text text-anchor="middle" x="570" y="-46" font-family="Helvetica,sans-Serif" font-size="10.00">::process</text>
</a>
</g>
</g>
<!-- Node20&#45;&gt;Node21 -->
<g id="edge21" class="edge">
<title>Node20&#45;&gt;Node21</title>
<path fill="none" stroke="midnightblue" d="M460.22,-52.5C473.98,-52.69 490.09,-52.91 505.63,-53.13"/>
<polygon fill="midnightblue" stroke="midnightblue" points="505.69,-56.63 515.73,-53.27 505.78,-49.63 505.69,-56.63"/>
</g>
<!-- Node22 -->
<g id="node22" class="node">
<title>Node22</title>
<g id="a_node22"><a xlink:href="iir__universal_8c.html#a738b77e8a79f0c754dba3af19fbd4e30" target="_top" xlink:title=" ">
<polygon fill="none" stroke="black" points="660,-44.5 660,-63.5 724,-63.5 724,-44.5 660,-44.5"/>
<text text-anchor="middle" x="692" y="-51.5" font-family="Helvetica,sans-Serif" font-size="10.00">iir_process</text>
</a>
</g>
</g>
<!-- Node21&#45;&gt;Node22 -->
<g id="edge22" class="edge">
<title>Node21&#45;&gt;Node22</title>
<path fill="none" stroke="midnightblue" d="M624.33,-54C632.87,-54 641.59,-54 649.79,-54"/>
<polygon fill="midnightblue" stroke="midnightblue" points="649.85,-57.5 659.85,-54 649.85,-50.5 649.85,-57.5"/>
</g>
<!-- Node24 -->
<g id="node24" class="node">
<title>Node24</title>
<g id="a_node24"><a xlink:href="abstract__dsp__esp32_8c.html#a52d208742d325a0cdb7225bd9fe0e902" target="_top" xlink:title=" ">
<polygon fill="none" stroke="black" points="531,-0.5 531,-19.5 609,-19.5 609,-0.5 531,-0.5"/>
<text text-anchor="middle" x="570" y="-7.5" font-family="Helvetica,sans-Serif" font-size="10.00">dspal_multiply</text>
</a>
</g>
</g>
<!-- Node23&#45;&gt;Node24 -->
<g id="edge24" class="edge">
<title>Node23&#45;&gt;Node24</title>
<path fill="none" stroke="midnightblue" d="M460.59,-12.24C478.8,-11.87 501.04,-11.41 520.64,-11"/>
<polygon fill="midnightblue" stroke="midnightblue" points="520.98,-14.49 530.9,-10.79 520.83,-7.5 520.98,-14.49"/>
</g>
</g>
</svg>
