<?xml version="1.0" encoding="UTF-8" standalone="no"?>
<!DOCTYPE svg PUBLIC "-//W3C//DTD SVG 1.1//EN"
 "http://www.w3.org/Graphics/SVG/1.1/DTD/svg11.dtd">
<!-- Generated by graphviz version 3.0.0 (20221109.1736)
 -->
<!-- Title: i2s_setup Pages: 1 -->
<svg width="731pt" height="522pt"
 viewBox="0.00 0.00 731.00 522.00" xmlns="http://www.w3.org/2000/svg" xmlns:xlink="http://www.w3.org/1999/xlink">
<g id="graph0" class="graph" transform="scale(1 1) rotate(0) translate(4 518)">
<title>i2s_setup</title>
<!-- Node1 -->
<g id="node1" class="node">
<title>Node1</title>
<g id="a_node1"><a xlink:title=" ">
<polygon fill="#bfbfbf" stroke="black" points="0,-342.5 0,-361.5 59,-361.5 59,-342.5 0,-342.5"/>
<text text-anchor="middle" x="29.5" y="-349.5" font-family="Helvetica,sans-Serif" font-size="10.00">i2s_setup</text>
</a>
</g>
</g>
<!-- Node2 -->
<g id="node2" class="node">
<title>Node2</title>
<g id="a_node2"><a xlink:href="i2s_8cpp.html#a4e37f563a34c1a559515cc40782caf07" target="_top" xlink:title=" ">
<polygon fill="none" stroke="black" points="95,-342.5 95,-361.5 201,-361.5 201,-342.5 95,-342.5"/>
<text text-anchor="middle" x="148" y="-349.5" font-family="Helvetica,sans-Serif" font-size="10.00">i2s_processing_task</text>
</a>
</g>
</g>
<!-- Node1&#45;&gt;Node2 -->
<g id="edge1" class="edge">
<title>Node1&#45;&gt;Node2</title>
<path fill="none" stroke="midnightblue" d="M59.3,-352C67.13,-352 75.93,-352 84.85,-352"/>
<polygon fill="midnightblue" stroke="midnightblue" points="84.93,-355.5 94.93,-352 84.93,-348.5 84.93,-355.5"/>
</g>
<!-- Node3 -->
<g id="node3" class="node">
<title>Node3</title>
<g id="a_node3"><a xlink:href="float__convert_8h.html#ae9b18f6b920e3401ec41278b57e6817b" target="_top" xlink:title=" ">
<polygon fill="none" stroke="black" points="385.5,-494.5 385.5,-513.5 459.5,-513.5 459.5,-494.5 385.5,-494.5"/>
<text text-anchor="middle" x="422.5" y="-501.5" font-family="Helvetica,sans-Serif" font-size="10.00">float_to_int32</text>
</a>
</g>
</g>
<!-- Node2&#45;&gt;Node3 -->
<g id="edge2" class="edge">
<title>Node2&#45;&gt;Node3</title>
<path fill="none" stroke="midnightblue" d="M162.62,-361.83C195.94,-385.56 284.84,-446.81 366,-485 370.43,-487.09 375.16,-489.06 379.91,-490.89"/>
<polygon fill="midnightblue" stroke="midnightblue" points="379.02,-494.29 389.62,-494.43 381.42,-487.71 379.02,-494.29"/>
</g>
<!-- Node4 -->
<g id="node4" class="node">
<title>Node4</title>
<g id="a_node4"><a xlink:href="process_8cpp.html#a159f752dbd8aa42d765e604910814129" target="_top" xlink:title=" ">
<polygon fill="none" stroke="black" points="249,-342.5 249,-361.5 318,-361.5 318,-342.5 249,-342.5"/>
<text text-anchor="middle" x="283.5" y="-349.5" font-family="Helvetica,sans-Serif" font-size="10.00">process_init</text>
</a>
</g>
</g>
<!-- Node2&#45;&gt;Node4 -->
<g id="edge3" class="edge">
<title>Node2&#45;&gt;Node4</title>
<path fill="none" stroke="midnightblue" d="M201.38,-352C213.7,-352 226.7,-352 238.6,-352"/>
<polygon fill="midnightblue" stroke="midnightblue" points="238.73,-355.5 248.73,-352 238.73,-348.5 238.73,-355.5"/>
</g>
<!-- Node16 -->
<g id="node16" class="node">
<title>Node16</title>
<g id="a_node16"><a xlink:href="process_8cpp.html#a450bec865b55b9890f4050f1ab0dba5c" target="_top" xlink:title=" ">
<polygon fill="none" stroke="black" points="237,-209.5 237,-228.5 330,-228.5 330,-209.5 237,-209.5"/>
<text text-anchor="middle" x="283.5" y="-216.5" font-family="Helvetica,sans-Serif" font-size="10.00">process_samples</text>
</a>
</g>
</g>
<!-- Node2&#45;&gt;Node16 -->
<g id="edge15" class="edge">
<title>Node2&#45;&gt;Node16</title>
<path fill="none" stroke="midnightblue" d="M158.6,-342.43C181.01,-320.11 236.99,-264.34 265.4,-236.04"/>
<polygon fill="midnightblue" stroke="midnightblue" points="268.01,-238.37 272.63,-228.84 263.07,-233.42 268.01,-238.37"/>
</g>
<!-- Node5 -->
<g id="node5" class="node">
<title>Node5</title>
<g id="a_node5"><a xlink:href="noise__gate_8cpp.html#a949bfebe851dee44040d83bbd068dad1" target="_top" xlink:title="Initialise the effect.">
<polygon fill="none" stroke="black" points="396,-456.5 396,-475.5 449,-475.5 449,-456.5 396,-456.5"/>
<text text-anchor="middle" x="422.5" y="-463.5" font-family="Helvetica,sans-Serif" font-size="10.00">gate_init</text>
</a>
</g>
</g>
<!-- Node4&#45;&gt;Node5 -->
<g id="edge4" class="edge">
<title>Node4&#45;&gt;Node5</title>
<path fill="none" stroke="midnightblue" d="M290.2,-361.56C302,-380.55 330.93,-423.22 366,-447 372.14,-451.16 379.29,-454.5 386.36,-457.14"/>
<polygon fill="midnightblue" stroke="midnightblue" points="385.28,-460.46 395.87,-460.31 387.5,-453.82 385.28,-460.46"/>
</g>
<!-- Node7 -->
<g id="node7" class="node">
<title>Node7</title>
<g id="a_node7"><a xlink:href="noise__gate_8cpp.html#a4868a6f017c846668c1b09d32b833099" target="_top" xlink:title="Set the attack time in milliseconds.">
<polygon fill="none" stroke="black" points="379.5,-342.5 379.5,-361.5 465.5,-361.5 465.5,-342.5 379.5,-342.5"/>
<text text-anchor="middle" x="422.5" y="-349.5" font-family="Helvetica,sans-Serif" font-size="10.00">gate_set_attack</text>
</a>
</g>
</g>
<!-- Node4&#45;&gt;Node7 -->
<g id="edge6" class="edge">
<title>Node4&#45;&gt;Node7</title>
<path fill="none" stroke="midnightblue" d="M318.01,-352C333.36,-352 351.92,-352 369.05,-352"/>
<polygon fill="midnightblue" stroke="midnightblue" points="369.5,-355.5 379.5,-352 369.5,-348.5 369.5,-355.5"/>
</g>
<!-- Node8 -->
<g id="node8" class="node">
<title>Node8</title>
<g id="a_node8"><a xlink:href="noise__gate_8cpp.html#a184d915d5eb18d4743c6e3008bb47e62" target="_top" xlink:title="Set the buffer size in number of samples.">
<polygon fill="none" stroke="black" points="369.5,-418.5 369.5,-437.5 475.5,-437.5 475.5,-418.5 369.5,-418.5"/>
<text text-anchor="middle" x="422.5" y="-425.5" font-family="Helvetica,sans-Serif" font-size="10.00">gate_set_buffer_size</text>
</a>
</g>
</g>
<!-- Node4&#45;&gt;Node8 -->
<g id="edge7" class="edge">
<title>Node4&#45;&gt;Node8</title>
<path fill="none" stroke="midnightblue" d="M295.98,-361.61C311.19,-373.95 339.22,-395.39 366,-409 370.09,-411.08 374.47,-413.02 378.9,-414.8"/>
<polygon fill="midnightblue" stroke="midnightblue" points="378,-418.2 388.59,-418.44 380.46,-411.64 378,-418.2"/>
</g>
<!-- Node9 -->
<g id="node9" class="node">
<title>Node9</title>
<g id="a_node9"><a xlink:href="noise__gate_8cpp.html#a4fccad713cee272e388c9c45fc97037e" target="_top" xlink:title="Set the hold time in milliseconds.">
<polygon fill="none" stroke="black" points="384,-304.5 384,-323.5 461,-323.5 461,-304.5 384,-304.5"/>
<text text-anchor="middle" x="422.5" y="-311.5" font-family="Helvetica,sans-Serif" font-size="10.00">gate_set_hold</text>
</a>
</g>
</g>
<!-- Node4&#45;&gt;Node9 -->
<g id="edge8" class="edge">
<title>Node4&#45;&gt;Node9</title>
<path fill="none" stroke="midnightblue" d="M318.01,-342.7C335.82,-337.76 357.94,-331.63 377.16,-326.3"/>
<polygon fill="midnightblue" stroke="midnightblue" points="378.2,-329.64 386.9,-323.6 376.33,-322.9 378.2,-329.64"/>
</g>
<!-- Node10 -->
<g id="node10" class="node">
<title>Node10</title>
<g id="a_node10"><a xlink:href="noise__gate_8cpp.html#abe525a07b8cb6f0557740cc4100428a9" target="_top" xlink:title="Set the release time in milliseconds.">
<polygon fill="none" stroke="black" points="377,-266.5 377,-285.5 468,-285.5 468,-266.5 377,-266.5"/>
<text text-anchor="middle" x="422.5" y="-273.5" font-family="Helvetica,sans-Serif" font-size="10.00">gate_set_release</text>
</a>
</g>
</g>
<!-- Node4&#45;&gt;Node10 -->
<g id="edge9" class="edge">
<title>Node4&#45;&gt;Node10</title>
<path fill="none" stroke="midnightblue" d="M295.98,-342.39C311.19,-330.05 339.22,-308.61 366,-295 370.09,-292.92 374.47,-290.98 378.9,-289.2"/>
<polygon fill="midnightblue" stroke="midnightblue" points="380.46,-292.36 388.59,-285.56 378,-285.8 380.46,-292.36"/>
</g>
<!-- Node11 -->
<g id="node11" class="node">
<title>Node11</title>
<g id="a_node11"><a xlink:href="noise__gate_8cpp.html#a2691256497a1cec4e14434f48eccfb56" target="_top" xlink:title="Set the sample rate in Hz.">
<polygon fill="none" stroke="black" points="366,-380.5 366,-399.5 479,-399.5 479,-380.5 366,-380.5"/>
<text text-anchor="middle" x="422.5" y="-387.5" font-family="Helvetica,sans-Serif" font-size="10.00">gate_set_sample_rate</text>
</a>
</g>
</g>
<!-- Node4&#45;&gt;Node11 -->
<g id="edge10" class="edge">
<title>Node4&#45;&gt;Node11</title>
<path fill="none" stroke="midnightblue" d="M318.01,-361.3C335.82,-366.24 357.94,-372.37 377.16,-377.7"/>
<polygon fill="midnightblue" stroke="midnightblue" points="376.33,-381.1 386.9,-380.4 378.2,-374.36 376.33,-381.1"/>
</g>
<!-- Node14 -->
<g id="node14" class="node">
<title>Node14</title>
<g id="a_node14"><a xlink:href="noise__gate_8cpp.html#a82e62ed410acc03c8179d8245de13e12" target="_top" xlink:title="Set the threshold and hysteresis value in dBFS.">
<polygon fill="none" stroke="black" points="373,-228.5 373,-247.5 472,-247.5 472,-228.5 373,-228.5"/>
<text text-anchor="middle" x="422.5" y="-235.5" font-family="Helvetica,sans-Serif" font-size="10.00">gate_set_threshold</text>
</a>
</g>
</g>
<!-- Node4&#45;&gt;Node14 -->
<g id="edge13" class="edge">
<title>Node4&#45;&gt;Node14</title>
<path fill="none" stroke="midnightblue" d="M290.2,-342.44C302,-323.45 330.93,-280.78 366,-257 368.91,-255.03 372.05,-253.24 375.3,-251.62"/>
<polygon fill="midnightblue" stroke="midnightblue" points="376.9,-254.74 384.65,-247.52 374.09,-248.33 376.9,-254.74"/>
</g>
<!-- Node6 -->
<g id="node6" class="node">
<title>Node6</title>
<g id="a_node6"><a xlink:href="noise__gate_8cpp.html#a5d3ba76b4666ac1820b498aaf04ea22e" target="_top" xlink:title="Reset the state.">
<polygon fill="none" stroke="black" points="538,-456.5 538,-475.5 600,-475.5 600,-456.5 538,-456.5"/>
<text text-anchor="middle" x="569" y="-463.5" font-family="Helvetica,sans-Serif" font-size="10.00">gate_reset</text>
</a>
</g>
</g>
<!-- Node5&#45;&gt;Node6 -->
<g id="edge5" class="edge">
<title>Node5&#45;&gt;Node6</title>
<path fill="none" stroke="midnightblue" d="M449,-466C470.79,-466 502.52,-466 527.74,-466"/>
<polygon fill="midnightblue" stroke="midnightblue" points="527.75,-469.5 537.75,-466 527.75,-462.5 527.75,-469.5"/>
</g>
<!-- Node12 -->
<g id="node12" class="node">
<title>Node12</title>
<g id="a_node12"><a xlink:href="abstract__dsp__esp32_8c.html#ab721c839889c1267077f4cb3304b655d" target="_top" xlink:title=" ">
<polygon fill="none" stroke="black" points="515.5,-342 515.5,-372 622.5,-372 622.5,-342 515.5,-342"/>
<text text-anchor="start" x="523.5" y="-360" font-family="Helvetica,sans-Serif" font-size="10.00">dspal_biquad_design</text>
<text text-anchor="middle" x="569" y="-349" font-family="Helvetica,sans-Serif" font-size="10.00">_lowpass</text>
</a>
</g>
</g>
<!-- Node11&#45;&gt;Node12 -->
<g id="edge11" class="edge">
<title>Node11&#45;&gt;Node12</title>
<path fill="none" stroke="midnightblue" d="M465.3,-380.46C477.91,-377.58 492.03,-374.35 505.67,-371.23"/>
<polygon fill="midnightblue" stroke="midnightblue" points="506.52,-374.63 515.49,-368.99 504.97,-367.81 506.52,-374.63"/>
</g>
<!-- Node13 -->
<g id="node13" class="node">
<title>Node13</title>
<g id="a_node13"><a xlink:href="classshrapnel_1_1dsp_1_1IirFilter.html#aa09e7c1ab99d85c0fdd1c98c80636550" target="_top" xlink:title=" ">
<polygon fill="none" stroke="black" points="515,-391 515,-421 623,-421 623,-391 515,-391"/>
<text text-anchor="start" x="523" y="-409" font-family="Helvetica,sans-Serif" font-size="10.00">shrapnel::dsp::IirFilter</text>
<text text-anchor="middle" x="569" y="-398" font-family="Helvetica,sans-Serif" font-size="10.00">::set_coefficients</text>
</a>
</g>
</g>
<!-- Node11&#45;&gt;Node13 -->
<g id="edge12" class="edge">
<title>Node11&#45;&gt;Node13</title>
<path fill="none" stroke="midnightblue" d="M479.37,-396.19C487.61,-397.1 496.15,-398.04 504.54,-398.97"/>
<polygon fill="midnightblue" stroke="midnightblue" points="504.33,-402.47 514.65,-400.09 505.1,-395.51 504.33,-402.47"/>
</g>
<!-- Node15 -->
<g id="node15" class="node">
<title>Node15</title>
<g id="a_node15"><a xlink:href="noise__gate_8cpp.html#afb2354391bb81545d92334434552ab4b" target="_top" xlink:title=" ">
<polygon fill="none" stroke="black" points="536.5,-228.5 536.5,-247.5 601.5,-247.5 601.5,-228.5 536.5,-228.5"/>
<text text-anchor="middle" x="569" y="-235.5" font-family="Helvetica,sans-Serif" font-size="10.00">db_to_ratio</text>
</a>
</g>
</g>
<!-- Node14&#45;&gt;Node15 -->
<g id="edge14" class="edge">
<title>Node14&#45;&gt;Node15</title>
<path fill="none" stroke="midnightblue" d="M472.02,-238C489.54,-238 509.15,-238 526.05,-238"/>
<polygon fill="midnightblue" stroke="midnightblue" points="526.19,-241.5 536.19,-238 526.19,-234.5 526.19,-241.5"/>
</g>
<!-- Node16&#45;&gt;Node3 -->
<g id="edge17" class="edge">
<title>Node16&#45;&gt;Node3</title>
<path fill="none" stroke="midnightblue" d="M288.89,-228.58C297.63,-247.97 317.48,-293.38 330,-333 350.92,-399.2 319.35,-433.58 366,-485 368.93,-488.22 372.42,-490.9 376.22,-493.13"/>
<polygon fill="midnightblue" stroke="midnightblue" points="374.95,-496.4 385.48,-497.53 377.96,-490.08 374.95,-496.4"/>
</g>
<!-- Node16&#45;&gt;Node7 -->
<g id="edge23" class="edge">
<title>Node16&#45;&gt;Node7</title>
<path fill="none" stroke="midnightblue" d="M288.89,-228.81C299.18,-250.71 326.97,-303.94 366,-333 368.49,-334.86 371.18,-336.54 373.98,-338.07"/>
<polygon fill="midnightblue" stroke="midnightblue" points="372.67,-341.32 383.2,-342.42 375.66,-334.99 372.67,-341.32"/>
</g>
<!-- Node16&#45;&gt;Node9 -->
<g id="edge24" class="edge">
<title>Node16&#45;&gt;Node9</title>
<path fill="none" stroke="midnightblue" d="M292.31,-228.53C305.79,-244.42 334.97,-276.39 366,-295 369.39,-297.03 373.03,-298.89 376.76,-300.57"/>
<polygon fill="midnightblue" stroke="midnightblue" points="375.57,-303.86 386.15,-304.4 378.22,-297.38 375.57,-303.86"/>
</g>
<!-- Node16&#45;&gt;Node10 -->
<g id="edge25" class="edge">
<title>Node16&#45;&gt;Node10</title>
<path fill="none" stroke="midnightblue" d="M303.68,-228.65C320.03,-236.71 344.28,-248.25 366,-257 371.14,-259.07 376.59,-261.12 382.01,-263.06"/>
<polygon fill="midnightblue" stroke="midnightblue" points="381.02,-266.42 391.62,-266.42 383.33,-259.82 381.02,-266.42"/>
</g>
<!-- Node16&#45;&gt;Node14 -->
<g id="edge26" class="edge">
<title>Node16&#45;&gt;Node14</title>
<path fill="none" stroke="midnightblue" d="M330.12,-225.33C340.61,-226.78 351.91,-228.35 362.86,-229.87"/>
<polygon fill="midnightblue" stroke="midnightblue" points="362.4,-233.34 372.79,-231.24 363.36,-226.4 362.4,-233.34"/>
</g>
<!-- Node17 -->
<g id="node17" class="node">
<title>Node17</title>
<g id="a_node17"><a xlink:href="process_8cpp.html#a9785ac35cd7c86538882d5311fd66bf1" target="_top" xlink:title=" ">
<polygon fill="none" stroke="black" points="380,-190.5 380,-209.5 465,-209.5 465,-190.5 380,-190.5"/>
<text text-anchor="middle" x="422.5" y="-197.5" font-family="Helvetica,sans-Serif" font-size="10.00">decibel_to_ratio</text>
</a>
</g>
</g>
<!-- Node16&#45;&gt;Node17 -->
<g id="edge16" class="edge">
<title>Node16&#45;&gt;Node17</title>
<path fill="none" stroke="midnightblue" d="M330.12,-212.67C342.77,-210.92 356.6,-209 369.58,-207.2"/>
<polygon fill="midnightblue" stroke="midnightblue" points="370.35,-210.63 379.78,-205.79 369.39,-203.69 370.35,-210.63"/>
</g>
<!-- Node18 -->
<g id="node18" class="node">
<title>Node18</title>
<g id="a_node18"><a xlink:href="noise__gate_8cpp.html#a129b18f80393706faa5a453417153a51" target="_top" xlink:title="Analyse the audio.">
<polygon fill="none" stroke="black" points="385.5,-152.5 385.5,-171.5 459.5,-171.5 459.5,-152.5 385.5,-152.5"/>
<text text-anchor="middle" x="422.5" y="-159.5" font-family="Helvetica,sans-Serif" font-size="10.00">gate_analyse</text>
</a>
</g>
</g>
<!-- Node16&#45;&gt;Node18 -->
<g id="edge18" class="edge">
<title>Node16&#45;&gt;Node18</title>
<path fill="none" stroke="midnightblue" d="M303.68,-209.35C320.03,-201.29 344.28,-189.75 366,-181 371.14,-178.93 376.59,-176.88 382.01,-174.94"/>
<polygon fill="midnightblue" stroke="midnightblue" points="383.33,-178.18 391.62,-171.58 381.02,-171.58 383.33,-178.18"/>
</g>
<!-- Node21 -->
<g id="node21" class="node">
<title>Node21</title>
<g id="a_node21"><a xlink:href="noise__gate_8cpp.html#a3a59d391339a038f91650058680b00d6" target="_top" xlink:title="Apply the precalculated gain to the audio.">
<polygon fill="none" stroke="black" points="385,-114.5 385,-133.5 460,-133.5 460,-114.5 385,-114.5"/>
<text text-anchor="middle" x="422.5" y="-121.5" font-family="Helvetica,sans-Serif" font-size="10.00">gate_process</text>
</a>
</g>
</g>
<!-- Node16&#45;&gt;Node21 -->
<g id="edge21" class="edge">
<title>Node16&#45;&gt;Node21</title>
<path fill="none" stroke="midnightblue" d="M292.31,-209.47C305.79,-193.58 334.97,-161.61 366,-143 369.39,-140.97 373.03,-139.11 376.76,-137.43"/>
<polygon fill="midnightblue" stroke="midnightblue" points="378.22,-140.62 386.15,-133.6 375.57,-134.14 378.22,-140.62"/>
</g>
<!-- Node23 -->
<g id="node23" class="node">
<title>Node23</title>
<g id="a_node23"><a xlink:href="profiling_8cpp.html#a3171d2be3fbf00e49982243e9869735a" target="_top" xlink:title=" ">
<polygon fill="none" stroke="black" points="369.5,-76.5 369.5,-95.5 475.5,-95.5 475.5,-76.5 369.5,-76.5"/>
<text text-anchor="middle" x="422.5" y="-83.5" font-family="Helvetica,sans-Serif" font-size="10.00">profiling_mark_stage</text>
</a>
</g>
</g>
<!-- Node16&#45;&gt;Node23 -->
<g id="edge27" class="edge">
<title>Node16&#45;&gt;Node23</title>
<path fill="none" stroke="midnightblue" d="M288.89,-209.19C299.18,-187.29 326.97,-134.06 366,-105 368.49,-103.14 371.18,-101.46 373.98,-99.93"/>
<polygon fill="midnightblue" stroke="midnightblue" points="375.66,-103.01 383.2,-95.58 372.67,-96.68 375.66,-103.01"/>
</g>
<!-- Node24 -->
<g id="node24" class="node">
<title>Node24</title>
<g id="a_node24"><a xlink:href="profiling_8cpp.html#ac05fdc10ded37340f2ab202bbc184d20" target="_top" xlink:title=" ">
<polygon fill="none" stroke="black" points="385.5,-38.5 385.5,-57.5 459.5,-57.5 459.5,-38.5 385.5,-38.5"/>
<text text-anchor="middle" x="422.5" y="-45.5" font-family="Helvetica,sans-Serif" font-size="10.00">profiling_start</text>
</a>
</g>
</g>
<!-- Node16&#45;&gt;Node24 -->
<g id="edge28" class="edge">
<title>Node16&#45;&gt;Node24</title>
<path fill="none" stroke="midnightblue" d="M287.02,-209.23C294.4,-182.47 318.53,-107.32 366,-67 369.06,-64.4 372.49,-62.16 376.1,-60.21"/>
<polygon fill="midnightblue" stroke="midnightblue" points="377.72,-63.32 385.36,-55.98 374.81,-56.95 377.72,-63.32"/>
</g>
<!-- Node25 -->
<g id="node25" class="node">
<title>Node25</title>
<g id="a_node25"><a xlink:href="profiling_8cpp.html#a9f4516d77db32a65ee99933c6c9d3802" target="_top" xlink:title=" ">
<polygon fill="none" stroke="black" points="385.5,-0.5 385.5,-19.5 459.5,-19.5 459.5,-0.5 385.5,-0.5"/>
<text text-anchor="middle" x="422.5" y="-7.5" font-family="Helvetica,sans-Serif" font-size="10.00">profiling_stop</text>
</a>
</g>
</g>
<!-- Node16&#45;&gt;Node25 -->
<g id="edge29" class="edge">
<title>Node16&#45;&gt;Node25</title>
<path fill="none" stroke="midnightblue" d="M285.88,-209.12C290.75,-178 309.94,-80.98 366,-29 368.98,-26.24 372.38,-23.87 376,-21.85"/>
<polygon fill="midnightblue" stroke="midnightblue" points="377.74,-24.9 385.32,-17.5 374.78,-18.56 377.74,-24.9"/>
</g>
<!-- Node19 -->
<g id="node19" class="node">
<title>Node19</title>
<g id="a_node19"><a xlink:href="classshrapnel_1_1dsp_1_1IirFilter.html#a53cb5a72d2a310cd4b35d4329af682f0" target="_top" xlink:title=" ">
<polygon fill="none" stroke="black" points="515,-150 515,-180 623,-180 623,-150 515,-150"/>
<text text-anchor="start" x="523" y="-168" font-family="Helvetica,sans-Serif" font-size="10.00">shrapnel::dsp::IirFilter</text>
<text text-anchor="middle" x="569" y="-157" font-family="Helvetica,sans-Serif" font-size="10.00">::process</text>
</a>
</g>
</g>
<!-- Node18&#45;&gt;Node19 -->
<g id="edge19" class="edge">
<title>Node18&#45;&gt;Node19</title>
<path fill="none" stroke="midnightblue" d="M459.59,-162.75C473.31,-163.03 489.36,-163.37 504.85,-163.69"/>
<polygon fill="midnightblue" stroke="midnightblue" points="504.85,-167.19 514.92,-163.9 504.99,-160.19 504.85,-167.19"/>
</g>
<!-- Node20 -->
<g id="node20" class="node">
<title>Node20</title>
<g id="a_node20"><a xlink:href="iir__universal_8c.html#a738b77e8a79f0c754dba3af19fbd4e30" target="_top" xlink:title=" ">
<polygon fill="none" stroke="black" points="659,-155.5 659,-174.5 723,-174.5 723,-155.5 659,-155.5"/>
<text text-anchor="middle" x="691" y="-162.5" font-family="Helvetica,sans-Serif" font-size="10.00">iir_process</text>
</a>
</g>
</g>
<!-- Node19&#45;&gt;Node20 -->
<g id="edge20" class="edge">
<title>Node19&#45;&gt;Node20</title>
<path fill="none" stroke="midnightblue" d="M623.33,-165C631.87,-165 640.59,-165 648.79,-165"/>
<polygon fill="midnightblue" stroke="midnightblue" points="648.85,-168.5 658.85,-165 648.85,-161.5 648.85,-168.5"/>
</g>
<!-- Node22 -->
<g id="node22" class="node">
<title>Node22</title>
<g id="a_node22"><a xlink:href="abstract__dsp__esp32_8c.html#a52d208742d325a0cdb7225bd9fe0e902" target="_top" xlink:title=" ">
<polygon fill="none" stroke="black" points="530,-111.5 530,-130.5 608,-130.5 608,-111.5 530,-111.5"/>
<text text-anchor="middle" x="569" y="-118.5" font-family="Helvetica,sans-Serif" font-size="10.00">dspal_multiply</text>
</a>
</g>
</g>
<!-- Node21&#45;&gt;Node22 -->
<g id="edge22" class="edge">
<title>Node21&#45;&gt;Node22</title>
<path fill="none" stroke="midnightblue" d="M460.34,-123.24C478.41,-122.86 500.41,-122.4 519.81,-122"/>
<polygon fill="midnightblue" stroke="midnightblue" points="520.04,-125.5 529.97,-121.79 519.9,-118.5 520.04,-125.5"/>
</g>
</g>
</svg>
