<?xml version="1.0" encoding="UTF-8" standalone="no"?>
<!DOCTYPE svg PUBLIC "-//W3C//DTD SVG 1.1//EN"
 "http://www.w3.org/Graphics/SVG/1.1/DTD/svg11.dtd">
<!-- Generated by graphviz version 3.0.0 (20221109.1736)
 -->
<!-- Title: iir_process Pages: 1 -->
<svg width="923pt" height="214pt"
 viewBox="0.00 0.00 923.00 213.50" xmlns="http://www.w3.org/2000/svg" xmlns:xlink="http://www.w3.org/1999/xlink">
<g id="graph0" class="graph" transform="scale(1 1) rotate(0) translate(4 209.5)">
<title>iir_process</title>
<!-- Node1 -->
<g id="node1" class="node">
<title>Node1</title>
<g id="a_node1"><a xlink:title=" ">
<polygon fill="#bfbfbf" stroke="black" points="851,-104 851,-123 915,-123 915,-104 851,-104"/>
<text text-anchor="middle" x="883" y="-111" font-family="Helvetica,sans-Serif" font-size="10.00">iir_process</text>
</a>
</g>
</g>
<!-- Node2 -->
<g id="node2" class="node">
<title>Node2</title>
<g id="a_node2"><a xlink:href="classshrapnel_1_1dsp_1_1IirFilter.html#a53cb5a72d2a310cd4b35d4329af682f0" target="_top" xlink:title=" ">
<polygon fill="none" stroke="black" points="707,-98.5 707,-128.5 815,-128.5 815,-98.5 707,-98.5"/>
<text text-anchor="start" x="715" y="-116.5" font-family="Helvetica,sans-Serif" font-size="10.00">shrapnel::dsp::IirFilter</text>
<text text-anchor="middle" x="761" y="-105.5" font-family="Helvetica,sans-Serif" font-size="10.00">::process</text>
</a>
</g>
</g>
<!-- Node1&#45;&gt;Node2 -->
<g id="edge1" class="edge">
<title>Node1&#45;&gt;Node2</title>
<path fill="none" stroke="midnightblue" d="M840.75,-113.5C832.58,-113.5 823.88,-113.5 815.37,-113.5"/>
<polygon fill="midnightblue" stroke="midnightblue" points="840.78,-117 850.78,-113.5 840.78,-110 840.78,-117"/>
</g>
<!-- Node3 -->
<g id="node3" class="node">
<title>Node3</title>
<g id="a_node3"><a xlink:href="noise__gate_8cpp.html#a129b18f80393706faa5a453417153a51" target="_top" xlink:title="Analyse the audio.">
<polygon fill="none" stroke="black" points="568.5,-186 568.5,-205 642.5,-205 642.5,-186 568.5,-186"/>
<text text-anchor="middle" x="605.5" y="-193" font-family="Helvetica,sans-Serif" font-size="10.00">gate_analyse</text>
</a>
</g>
</g>
<!-- Node2&#45;&gt;Node3 -->
<g id="edge2" class="edge">
<title>Node2&#45;&gt;Node3</title>
<path fill="none" stroke="midnightblue" d="M734.53,-134.97C717.46,-148.46 693.99,-165.36 671,-176.5 662.18,-180.78 652.2,-184.29 642.77,-187.09"/>
<polygon fill="midnightblue" stroke="midnightblue" points="736.77,-137.66 742.36,-128.66 732.38,-132.21 736.77,-137.66"/>
</g>
<!-- Node8 -->
<g id="node8" class="node">
<title>Node8</title>
<g id="a_node8"><a xlink:href="classContourFilter.html#a2baf26150cbf88c8261ba2b42ae83703" target="_top" xlink:title=" ">
<polygon fill="none" stroke="black" points="550,-148 550,-167 661,-167 661,-148 550,-148"/>
<text text-anchor="middle" x="605.5" y="-155" font-family="Helvetica,sans-Serif" font-size="10.00">ContourFilter::process</text>
</a>
</g>
</g>
<!-- Node2&#45;&gt;Node8 -->
<g id="edge7" class="edge">
<title>Node2&#45;&gt;Node8</title>
<path fill="none" stroke="midnightblue" d="M697.72,-131.35C677.94,-137.02 656.84,-143.07 639.92,-147.92"/>
<polygon fill="midnightblue" stroke="midnightblue" points="698.95,-134.64 707.6,-128.52 697.03,-127.91 698.95,-134.64"/>
</g>
<!-- Node10 -->
<g id="node10" class="node">
<title>Node10</title>
<g id="a_node10"><a xlink:href="classshrapnel_1_1effect_1_1valvestate_1_1FMVFilter.html#a1054a330bdb72fa1d10e8fcc6bc51edb" target="_top" xlink:title=" ">
<polygon fill="none" stroke="black" points="540,-98.5 540,-128.5 671,-128.5 671,-98.5 540,-98.5"/>
<text text-anchor="start" x="548" y="-116.5" font-family="Helvetica,sans-Serif" font-size="10.00">shrapnel::effect::valvestate</text>
<text text-anchor="middle" x="605.5" y="-105.5" font-family="Helvetica,sans-Serif" font-size="10.00">::FMVFilter::process</text>
</a>
</g>
</g>
<!-- Node2&#45;&gt;Node10 -->
<g id="edge9" class="edge">
<title>Node2&#45;&gt;Node10</title>
<path fill="none" stroke="midnightblue" d="M696.59,-113.5C688.15,-113.5 679.49,-113.5 671.03,-113.5"/>
<polygon fill="midnightblue" stroke="midnightblue" points="696.74,-117 706.74,-113.5 696.74,-110 696.74,-117"/>
</g>
<!-- Node11 -->
<g id="node11" class="node">
<title>Node11</title>
<g id="a_node11"><a xlink:href="classshrapnel_1_1effect_1_1valvestate_1_1GainControl.html#a8f5ff9dee05742cd426f78eab0e42edb" target="_top" xlink:title=" ">
<polygon fill="none" stroke="black" points="540,-49.5 540,-79.5 671,-79.5 671,-49.5 540,-49.5"/>
<text text-anchor="start" x="548" y="-67.5" font-family="Helvetica,sans-Serif" font-size="10.00">shrapnel::effect::valvestate</text>
<text text-anchor="middle" x="605.5" y="-56.5" font-family="Helvetica,sans-Serif" font-size="10.00">::GainControl::process</text>
</a>
</g>
</g>
<!-- Node2&#45;&gt;Node11 -->
<g id="edge11" class="edge">
<title>Node2&#45;&gt;Node11</title>
<path fill="none" stroke="midnightblue" d="M702.8,-95.24C686.61,-90.07 669.18,-84.51 653.65,-79.55"/>
<polygon fill="midnightblue" stroke="midnightblue" points="702.1,-98.69 712.69,-98.4 704.23,-92.02 702.1,-98.69"/>
</g>
<!-- Node12 -->
<g id="node12" class="node">
<title>Node12</title>
<g id="a_node12"><a xlink:href="classshrapnel_1_1effect_1_1valvestate_1_1InputFilter.html#a1452168fb958f39f748f76bae75b907f" target="_top" xlink:title=" ">
<polygon fill="none" stroke="black" points="540,-0.5 540,-30.5 671,-30.5 671,-0.5 540,-0.5"/>
<text text-anchor="start" x="548" y="-18.5" font-family="Helvetica,sans-Serif" font-size="10.00">shrapnel::effect::valvestate</text>
<text text-anchor="middle" x="605.5" y="-7.5" font-family="Helvetica,sans-Serif" font-size="10.00">::InputFilter::process</text>
</a>
</g>
</g>
<!-- Node2&#45;&gt;Node12 -->
<g id="edge13" class="edge">
<title>Node2&#45;&gt;Node12</title>
<path fill="none" stroke="midnightblue" d="M737.85,-91.42C720.75,-75.33 695.88,-53.91 671,-39.5 665.31,-36.21 659.09,-33.22 652.83,-30.56"/>
<polygon fill="midnightblue" stroke="midnightblue" points="735.49,-94.01 745.13,-98.39 740.33,-88.95 735.49,-94.01"/>
</g>
<!-- Node4 -->
<g id="node4" class="node">
<title>Node4</title>
<g id="a_node4"><a xlink:href="process_8cpp.html#a450bec865b55b9890f4050f1ab0dba5c" target="_top" xlink:title=" ">
<polygon fill="none" stroke="black" points="392,-186 392,-205 485,-205 485,-186 392,-186"/>
<text text-anchor="middle" x="438.5" y="-193" font-family="Helvetica,sans-Serif" font-size="10.00">process_samples</text>
</a>
</g>
</g>
<!-- Node3&#45;&gt;Node4 -->
<g id="edge3" class="edge">
<title>Node3&#45;&gt;Node4</title>
<path fill="none" stroke="midnightblue" d="M558.15,-195.5C535.29,-195.5 507.82,-195.5 485.07,-195.5"/>
<polygon fill="midnightblue" stroke="midnightblue" points="558.29,-199 568.29,-195.5 558.29,-192 558.29,-199"/>
</g>
<!-- Node5 -->
<g id="node5" class="node">
<title>Node5</title>
<g id="a_node5"><a xlink:href="i2s_8cpp.html#a4e37f563a34c1a559515cc40782caf07" target="_top" xlink:title=" ">
<polygon fill="none" stroke="black" points="231,-186 231,-205 337,-205 337,-186 231,-186"/>
<text text-anchor="middle" x="284" y="-193" font-family="Helvetica,sans-Serif" font-size="10.00">i2s_processing_task</text>
</a>
</g>
</g>
<!-- Node4&#45;&gt;Node5 -->
<g id="edge4" class="edge">
<title>Node4&#45;&gt;Node5</title>
<path fill="none" stroke="midnightblue" d="M381.42,-195.5C366.94,-195.5 351.41,-195.5 337.14,-195.5"/>
<polygon fill="midnightblue" stroke="midnightblue" points="381.75,-199 391.74,-195.5 381.74,-192 381.75,-199"/>
</g>
<!-- Node6 -->
<g id="node6" class="node">
<title>Node6</title>
<g id="a_node6"><a xlink:href="i2s_8cpp.html#a445c7079217d08d4767549802dade8a0" target="_top" xlink:title=" ">
<polygon fill="none" stroke="black" points="136,-186 136,-205 195,-205 195,-186 136,-186"/>
<text text-anchor="middle" x="165.5" y="-193" font-family="Helvetica,sans-Serif" font-size="10.00">i2s_setup</text>
</a>
</g>
</g>
<!-- Node5&#45;&gt;Node6 -->
<g id="edge5" class="edge">
<title>Node5&#45;&gt;Node6</title>
<path fill="none" stroke="midnightblue" d="M220.81,-195.5C211.89,-195.5 203.1,-195.5 195.27,-195.5"/>
<polygon fill="midnightblue" stroke="midnightblue" points="220.88,-199 230.88,-195.5 220.88,-192 220.88,-199"/>
</g>
<!-- Node7 -->
<g id="node7" class="node">
<title>Node7</title>
<g id="a_node7"><a xlink:href="namespaceshrapnel.html#a9f09f4ea750643310af9143a53735b7d" target="_top" xlink:title=" ">
<polygon fill="none" stroke="black" points="0,-186 0,-205 100,-205 100,-186 0,-186"/>
<text text-anchor="middle" x="50" y="-193" font-family="Helvetica,sans-Serif" font-size="10.00">shrapnel::app_main</text>
</a>
</g>
</g>
<!-- Node6&#45;&gt;Node7 -->
<g id="edge6" class="edge">
<title>Node6&#45;&gt;Node7</title>
<path fill="none" stroke="midnightblue" d="M125.85,-195.5C117.66,-195.5 108.91,-195.5 100.39,-195.5"/>
<polygon fill="midnightblue" stroke="midnightblue" points="125.86,-199 135.86,-195.5 125.86,-192 125.86,-199"/>
</g>
<!-- Node9 -->
<g id="node9" class="node">
<title>Node9</title>
<g id="a_node9"><a xlink:href="classshrapnel_1_1effect_1_1valvestate_1_1Valvestate.html#a9636b34accae16b0e8681d701816eca5" target="_top" xlink:title=" ">
<polygon fill="none" stroke="black" points="373,-74.5 373,-104.5 504,-104.5 504,-74.5 373,-74.5"/>
<text text-anchor="start" x="381" y="-92.5" font-family="Helvetica,sans-Serif" font-size="10.00">shrapnel::effect::valvestate</text>
<text text-anchor="middle" x="438.5" y="-81.5" font-family="Helvetica,sans-Serif" font-size="10.00">::Valvestate::process</text>
</a>
</g>
</g>
<!-- Node8&#45;&gt;Node9 -->
<g id="edge8" class="edge">
<title>Node8&#45;&gt;Node9</title>
<path fill="none" stroke="midnightblue" d="M558.54,-144.99C552.25,-142.98 545.93,-140.8 540,-138.5 514.66,-128.67 486.98,-114.94 467.1,-104.51"/>
<polygon fill="midnightblue" stroke="midnightblue" points="557.73,-148.4 568.32,-148 559.79,-141.71 557.73,-148.4"/>
</g>
<!-- Node10&#45;&gt;Node9 -->
<g id="edge10" class="edge">
<title>Node10&#45;&gt;Node9</title>
<path fill="none" stroke="midnightblue" d="M529.76,-102.63C521.18,-101.38 512.48,-100.12 504.05,-98.89"/>
<polygon fill="midnightblue" stroke="midnightblue" points="529.36,-106.11 539.76,-104.08 530.37,-99.18 529.36,-106.11"/>
</g>
<!-- Node11&#45;&gt;Node9 -->
<g id="edge12" class="edge">
<title>Node11&#45;&gt;Node9</title>
<path fill="none" stroke="midnightblue" d="M529.76,-75.82C521.18,-77.12 512.48,-78.44 504.05,-79.72"/>
<polygon fill="midnightblue" stroke="midnightblue" points="530.4,-79.27 539.76,-74.31 529.35,-72.35 530.4,-79.27"/>
</g>
<!-- Node12&#45;&gt;Node9 -->
<g id="edge14" class="edge">
<title>Node12&#45;&gt;Node9</title>
<path fill="none" stroke="midnightblue" d="M552.56,-34.28C548.29,-35.99 544.06,-37.74 540,-39.5 515.15,-50.27 487.65,-64.09 467.71,-74.46"/>
<polygon fill="midnightblue" stroke="midnightblue" points="553.88,-37.52 561.92,-30.62 551.33,-31 553.88,-37.52"/>
</g>
</g>
</svg>
