<?xml version="1.0" encoding="UTF-8" standalone="no"?>
<!DOCTYPE svg PUBLIC "-//W3C//DTD SVG 1.1//EN"
 "http://www.w3.org/Graphics/SVG/1.1/DTD/svg11.dtd">
<!-- Generated by graphviz version 3.0.0 (20221109.1736)
 -->
<!-- Title: Graphical Class Hierarchy Pages: 1 -->
<svg width="369pt" height="127pt"
 viewBox="0.00 0.00 369.00 127.00" xmlns="http://www.w3.org/2000/svg" xmlns:xlink="http://www.w3.org/1999/xlink">
<g id="graph0" class="graph" transform="scale(1 1) rotate(0) translate(4 123)">
<title>Graphical Class Hierarchy</title>
<!-- Node0 -->
<g id="node1" class="node">
<title>Node0</title>
<g id="a_node1"><a xlink:href="classshrapnel_1_1parameters_1_1AudioParametersBase.html" target="_top" xlink:title=" ">
<polygon fill="none" stroke="black" points="0,-88.5 0,-118.5 119,-118.5 119,-88.5 0,-88.5"/>
<text text-anchor="start" x="8" y="-106.5" font-family="Helvetica,sans-Serif" font-size="10.00">shrapnel::parameters</text>
<text text-anchor="middle" x="59.5" y="-95.5" font-family="Helvetica,sans-Serif" font-size="10.00">::AudioParametersBase</text>
</a>
</g>
</g>
<!-- Node1 -->
<g id="node2" class="node">
<title>Node1</title>
<g id="a_node2"><a xlink:href="classshrapnel_1_1parameters_1_1AudioParameters.html" target="_top" xlink:title=" ">
<polygon fill="none" stroke="black" points="163.5,-74 163.5,-115 352.5,-115 352.5,-74 163.5,-74"/>
<text text-anchor="start" x="171.5" y="-103" font-family="Helvetica,sans-Serif" font-size="10.00">shrapnel::parameters</text>
<text text-anchor="start" x="171.5" y="-92" font-family="Helvetica,sans-Serif" font-size="10.00">::AudioParameters&lt; MAX</text>
<text text-anchor="middle" x="258" y="-81" font-family="Helvetica,sans-Serif" font-size="10.00">_PARAMETERS, MAX_OBSERVERS &gt;</text>
</a>
</g>
</g>
<!-- Node0&#45;&gt;Node1 -->
<g id="edge1" class="edge">
<title>Node0&#45;&gt;Node1</title>
<path fill="none" stroke="midnightblue" d="M129.5,-100.34C140.44,-99.84 151.92,-99.31 163.32,-98.79"/>
<polygon fill="midnightblue" stroke="midnightblue" points="129.02,-96.86 119.19,-100.81 129.34,-103.85 129.02,-96.86"/>
</g>
<!-- Node4 -->
<g id="node3" class="node">
<title>Node4</title>
<g id="a_node3"><a xlink:href="classshrapnel_1_1persistence_1_1Crud.html" target="_top" xlink:title=" ">
<polygon fill="none" stroke="black" points="5.5,-0.5 5.5,-30.5 113.5,-30.5 113.5,-0.5 5.5,-0.5"/>
<text text-anchor="start" x="13.5" y="-18.5" font-family="Helvetica,sans-Serif" font-size="10.00">shrapnel::persistence</text>
<text text-anchor="middle" x="59.5" y="-7.5" font-family="Helvetica,sans-Serif" font-size="10.00">::Crud&lt; Mapping &gt;</text>
</a>
</g>
</g>
<!-- Node3 -->
<g id="node4" class="node">
<title>Node3</title>
<g id="a_node4"><a xlink:href="classshrapnel_1_1midi_1_1MappingManager.html" target="_top" xlink:title=" ">
<polygon fill="none" stroke="black" points="155,-17.5 155,-47.5 361,-47.5 361,-17.5 155,-17.5"/>
<text text-anchor="start" x="163" y="-35.5" font-family="Helvetica,sans-Serif" font-size="10.00">shrapnel::midi::MappingManager</text>
<text text-anchor="middle" x="258" y="-24.5" font-family="Helvetica,sans-Serif" font-size="10.00">&lt; MAX_MAPPINGS, MAX_OBSERVERS &gt;</text>
</a>
</g>
</g>
<!-- Node4&#45;&gt;Node3 -->
<g id="edge2" class="edge">
<title>Node4&#45;&gt;Node3</title>
<path fill="none" stroke="midnightblue" d="M123.85,-20.98C133.83,-21.84 144.35,-22.75 154.94,-23.67"/>
<polygon fill="midnightblue" stroke="midnightblue" points="123.94,-17.48 113.68,-20.1 123.34,-24.45 123.94,-17.48"/>
</g>
<!-- Node2 -->
<g id="node5" class="node">
<title>Node2</title>
<g id="a_node5"><a xlink:title=" ">
<polygon fill="none" stroke="#bfbfbf" points="20,-50 20,-69 99,-69 99,-50 20,-50"/>
<text text-anchor="middle" x="59.5" y="-57" font-family="Helvetica,sans-Serif" font-size="10.00">etl::observable</text>
</a>
</g>
</g>
<!-- Node2&#45;&gt;Node1 -->
<g id="edge4" class="edge">
<title>Node2&#45;&gt;Node1</title>
<path fill="none" stroke="midnightblue" d="M109.21,-68.18C125.65,-71.1 144.6,-74.48 163.32,-77.81"/>
<polygon fill="midnightblue" stroke="midnightblue" points="109.78,-64.72 99.32,-66.41 108.55,-71.61 109.78,-64.72"/>
</g>
<!-- Node2&#45;&gt;Node3 -->
<g id="edge3" class="edge">
<title>Node2&#45;&gt;Node3</title>
<path fill="none" stroke="midnightblue" d="M109.53,-52.76C123.37,-50.86 138.96,-48.72 154.69,-46.56"/>
<polygon fill="midnightblue" stroke="midnightblue" points="108.75,-49.34 99.32,-54.17 109.71,-56.27 108.75,-49.34"/>
</g>
</g>
</svg>
