<?xml version="1.0" encoding="UTF-8" standalone="no"?>
<!DOCTYPE svg PUBLIC "-//W3C//DTD SVG 1.1//EN"
 "http://www.w3.org/Graphics/SVG/1.1/DTD/svg11.dtd">
<!-- Generated by graphviz version 3.0.0 (20221109.1736)
 -->
<!-- Title: Graphical Class Hierarchy Pages: 1 -->
<svg width="357pt" height="127pt"
 viewBox="0.00 0.00 357.00 127.00" xmlns="http://www.w3.org/2000/svg" xmlns:xlink="http://www.w3.org/1999/xlink">
<g id="graph0" class="graph" transform="scale(1 1) rotate(0) translate(4 123)">
<title>Graphical Class Hierarchy</title>
<!-- Node0 -->
<g id="node1" class="node">
<title>Node0</title>
<g id="a_node1"><a xlink:href="classshrapnel_1_1parameters_1_1AudioParametersBase.html" target="_top" xlink:title=" ">
<polygon fill="none" stroke="black" points="0,-88.5 0,-118.5 119,-118.5 119,-88.5 0,-88.5"/>
<text text-anchor="start" x="8" y="-106.5" font-family="Helvetica,sans-Serif" font-size="10.00">shrapnel::parameters</text>
<text text-anchor="middle" x="59.5" y="-95.5" font-family="Helvetica,sans-Serif" font-size="10.00">::AudioParametersBase</text>
</a>
</g>
</g>
<!-- Node1 -->
<g id="node2" class="node">
<title>Node1</title>
<g id="a_node2"><a xlink:href="classshrapnel_1_1parameters_1_1AudioParameters.html" target="_top" xlink:title=" ">
<polygon fill="none" stroke="black" points="157.5,-76 157.5,-117 346.5,-117 346.5,-76 157.5,-76"/>
<text text-anchor="start" x="165.5" y="-105" font-family="Helvetica,sans-Serif" font-size="10.00">shrapnel::parameters</text>
<text text-anchor="start" x="165.5" y="-94" font-family="Helvetica,sans-Serif" font-size="10.00">::AudioParameters&lt; MAX</text>
<text text-anchor="middle" x="252" y="-83" font-family="Helvetica,sans-Serif" font-size="10.00">_PARAMETERS, MAX_OBSERVERS &gt;</text>
</a>
</g>
</g>
<!-- Node0&#45;&gt;Node1 -->
<g id="edge1" class="edge">
<title>Node0&#45;&gt;Node1</title>
<path fill="none" stroke="midnightblue" d="M129.35,-100.97C138.49,-100.63 147.97,-100.29 157.44,-99.94"/>
<polygon fill="midnightblue" stroke="midnightblue" points="129.08,-97.48 119.21,-101.34 129.33,-104.47 129.08,-97.48"/>
</g>
<!-- Node4 -->
<g id="node3" class="node">
<title>Node4</title>
<g id="a_node3"><a xlink:href="classshrapnel_1_1persistence_1_1Crud.html" target="_top" xlink:title=" ">
<polygon fill="none" stroke="black" points="5.5,-0.5 5.5,-30.5 113.5,-30.5 113.5,-0.5 5.5,-0.5"/>
<text text-anchor="start" x="13.5" y="-18.5" font-family="Helvetica,sans-Serif" font-size="10.00">shrapnel::persistence</text>
<text text-anchor="middle" x="59.5" y="-7.5" font-family="Helvetica,sans-Serif" font-size="10.00">::Crud&lt; Mapping &gt;</text>
</a>
</g>
</g>
<!-- Node3 -->
<g id="node4" class="node">
<title>Node3</title>
<g id="a_node4"><a xlink:href="classshrapnel_1_1midi_1_1MappingManager.html" target="_top" xlink:title=" ">
<polygon fill="none" stroke="black" points="155,-9 155,-50 349,-50 349,-9 155,-9"/>
<text text-anchor="start" x="163" y="-38" font-family="Helvetica,sans-Serif" font-size="10.00">shrapnel::midi::MappingManager</text>
<text text-anchor="start" x="163" y="-27" font-family="Helvetica,sans-Serif" font-size="10.00">&lt; AudioParametersT, MAX_MAPPINGS,</text>
<text text-anchor="middle" x="252" y="-16" font-family="Helvetica,sans-Serif" font-size="10.00"> MAX_OBSERVERS &gt;</text>
</a>
</g>
</g>
<!-- Node4&#45;&gt;Node3 -->
<g id="edge2" class="edge">
<title>Node4&#45;&gt;Node3</title>
<path fill="none" stroke="midnightblue" d="M123.76,-20.15C133.75,-20.88 144.28,-21.66 154.81,-22.43"/>
<polygon fill="midnightblue" stroke="midnightblue" points="123.79,-16.64 113.56,-19.4 123.28,-23.62 123.79,-16.64"/>
</g>
<!-- Node2 -->
<g id="node5" class="node">
<title>Node2</title>
<g id="a_node5"><a xlink:title=" ">
<polygon fill="none" stroke="#bfbfbf" points="20,-50 20,-69 99,-69 99,-50 20,-50"/>
<text text-anchor="middle" x="59.5" y="-57" font-family="Helvetica,sans-Serif" font-size="10.00">etl::observable</text>
</a>
</g>
</g>
<!-- Node2&#45;&gt;Node1 -->
<g id="edge4" class="edge">
<title>Node2&#45;&gt;Node1</title>
<path fill="none" stroke="midnightblue" d="M108.96,-68.91C123.78,-71.79 140.61,-75.06 157.37,-78.32"/>
<polygon fill="midnightblue" stroke="midnightblue" points="109.53,-65.46 99.05,-66.99 108.2,-72.33 109.53,-65.46"/>
</g>
<!-- Node2&#45;&gt;Node3 -->
<g id="edge3" class="edge">
<title>Node2&#45;&gt;Node3</title>
<path fill="none" stroke="midnightblue" d="M108.98,-51.87C123.09,-49.64 139.03,-47.13 154.99,-44.62"/>
<polygon fill="midnightblue" stroke="midnightblue" points="108.38,-48.42 99.05,-53.43 109.47,-55.33 108.38,-48.42"/>
</g>
</g>
</svg>
