<?xml version="1.0" encoding="UTF-8" standalone="no"?>
<!DOCTYPE svg PUBLIC "-//W3C//DTD SVG 1.1//EN"
 "http://www.w3.org/Graphics/SVG/1.1/DTD/svg11.dtd">
<!-- Generated by graphviz version 3.0.0 (20221109.1736)
 -->
<!-- Title: Graphical Class Hierarchy Pages: 1 -->
<svg width="357pt" height="110pt"
 viewBox="0.00 0.00 357.00 110.00" xmlns="http://www.w3.org/2000/svg" xmlns:xlink="http://www.w3.org/1999/xlink">
<g id="graph0" class="graph" transform="scale(1 1) rotate(0) translate(4 106)">
<title>Graphical Class Hierarchy</title>
<!-- Node0 -->
<g id="node1" class="node">
<title>Node0</title>
<g id="a_node1"><a xlink:href="classshrapnel_1_1parameters_1_1AudioParametersBase.html" target="_top" xlink:title=" ">
<polygon fill="none" stroke="black" points="0,-66 0,-96 119,-96 119,-66 0,-66"/>
<text text-anchor="start" x="8" y="-84" font-family="Helvetica,sans-Serif" font-size="10.00">shrapnel::parameters</text>
<text text-anchor="middle" x="59.5" y="-73" font-family="Helvetica,sans-Serif" font-size="10.00">::AudioParametersBase</text>
</a>
</g>
</g>
<!-- Node1 -->
<g id="node2" class="node">
<title>Node1</title>
<g id="a_node2"><a xlink:href="classshrapnel_1_1parameters_1_1AudioParameters.html" target="_top" xlink:title=" ">
<polygon fill="none" stroke="black" points="157.5,-60.5 157.5,-101.5 346.5,-101.5 346.5,-60.5 157.5,-60.5"/>
<text text-anchor="start" x="165.5" y="-89.5" font-family="Helvetica,sans-Serif" font-size="10.00">shrapnel::parameters</text>
<text text-anchor="start" x="165.5" y="-78.5" font-family="Helvetica,sans-Serif" font-size="10.00">::AudioParameters&lt; MAX</text>
<text text-anchor="middle" x="252" y="-67.5" font-family="Helvetica,sans-Serif" font-size="10.00">_PARAMETERS, MAX_OBSERVERS &gt;</text>
</a>
</g>
</g>
<!-- Node0&#45;&gt;Node1 -->
<g id="edge1" class="edge">
<title>Node0&#45;&gt;Node1</title>
<path fill="none" stroke="midnightblue" d="M129.35,-81C138.49,-81 147.97,-81 157.44,-81"/>
<polygon fill="midnightblue" stroke="midnightblue" points="129.21,-77.5 119.21,-81 129.21,-84.5 129.21,-77.5"/>
</g>
<!-- Node2 -->
<g id="node3" class="node">
<title>Node2</title>
<g id="a_node3"><a xlink:title=" ">
<polygon fill="none" stroke="#bfbfbf" points="20,-19.5 20,-38.5 99,-38.5 99,-19.5 20,-19.5"/>
<text text-anchor="middle" x="59.5" y="-26.5" font-family="Helvetica,sans-Serif" font-size="10.00">etl::observable</text>
</a>
</g>
</g>
<!-- Node2&#45;&gt;Node1 -->
<g id="edge3" class="edge">
<title>Node2&#45;&gt;Node1</title>
<path fill="none" stroke="midnightblue" d="M105.33,-41.24C126.29,-46.96 151.83,-53.93 175.63,-60.43"/>
<polygon fill="midnightblue" stroke="midnightblue" points="106.01,-37.79 95.44,-38.54 104.17,-44.55 106.01,-37.79"/>
</g>
<!-- Node3 -->
<g id="node4" class="node">
<title>Node3</title>
<g id="a_node4"><a xlink:href="classshrapnel_1_1midi_1_1MappingManager.html" target="_top" xlink:title=" ">
<polygon fill="none" stroke="black" points="155,-0.5 155,-41.5 349,-41.5 349,-0.5 155,-0.5"/>
<text text-anchor="start" x="163" y="-29.5" font-family="Helvetica,sans-Serif" font-size="10.00">shrapnel::midi::MappingManager</text>
<text text-anchor="start" x="163" y="-18.5" font-family="Helvetica,sans-Serif" font-size="10.00">&lt; AudioParametersT, MAX_MAPPINGS,</text>
<text text-anchor="middle" x="252" y="-7.5" font-family="Helvetica,sans-Serif" font-size="10.00"> MAX_OBSERVERS &gt;</text>
</a>
</g>
</g>
<!-- Node2&#45;&gt;Node3 -->
<g id="edge2" class="edge">
<title>Node2&#45;&gt;Node3</title>
<path fill="none" stroke="midnightblue" d="M109.39,-26.95C123.4,-26.36 139.18,-25.7 154.99,-25.03"/>
<polygon fill="midnightblue" stroke="midnightblue" points="108.89,-23.46 99.05,-27.38 109.19,-30.46 108.89,-23.46"/>
</g>
</g>
</svg>
