<?xml version="1.0" encoding="UTF-8" standalone="no"?>
<!DOCTYPE svg PUBLIC "-//W3C//DTD SVG 1.1//EN"
 "http://www.w3.org/Graphics/SVG/1.1/DTD/svg11.dtd">
<!-- Generated by graphviz version 3.0.0 (20221109.1736)
 -->
<!-- Title: Graphical Class Hierarchy Pages: 1 -->
<svg width="352pt" height="78pt"
 viewBox="0.00 0.00 352.00 77.50" xmlns="http://www.w3.org/2000/svg" xmlns:xlink="http://www.w3.org/1999/xlink">
<g id="graph0" class="graph" transform="scale(1 1) rotate(0) translate(4 73.5)">
<title>Graphical Class Hierarchy</title>
<!-- Node0 -->
<g id="node1" class="node">
<title>Node0</title>
<g id="a_node1"><a xlink:href="classshrapnel_1_1parameters_1_1AudioParametersBase.html" target="_top" xlink:title=" ">
<polygon fill="none" stroke="black" points="0,-39 0,-69 119,-69 119,-39 0,-39"/>
<text text-anchor="start" x="8" y="-57" font-family="Helvetica,sans-Serif" font-size="10.00">shrapnel::parameters</text>
<text text-anchor="middle" x="59.5" y="-46" font-family="Helvetica,sans-Serif" font-size="10.00">::AudioParametersBase</text>
</a>
</g>
</g>
<!-- Node1 -->
<g id="node2" class="node">
<title>Node1</title>
<g id="a_node2"><a xlink:href="classshrapnel_1_1parameters_1_1AudioParameters.html" target="_top" xlink:title=" ">
<polygon fill="none" stroke="black" points="155,-11.5 155,-52.5 344,-52.5 344,-11.5 155,-11.5"/>
<text text-anchor="start" x="163" y="-40.5" font-family="Helvetica,sans-Serif" font-size="10.00">shrapnel::parameters</text>
<text text-anchor="start" x="163" y="-29.5" font-family="Helvetica,sans-Serif" font-size="10.00">::AudioParameters&lt; MAX</text>
<text text-anchor="middle" x="249.5" y="-18.5" font-family="Helvetica,sans-Serif" font-size="10.00">_PARAMETERS, MAX_OBSERVERS &gt;</text>
</a>
</g>
</g>
<!-- Node0&#45;&gt;Node1 -->
<g id="edge1" class="edge">
<title>Node0&#45;&gt;Node1</title>
<path fill="none" stroke="midnightblue" d="M129.2,-45.96C137.52,-44.99 146.13,-43.98 154.74,-42.97"/>
<polygon fill="midnightblue" stroke="midnightblue" points="128.74,-42.49 119.21,-47.13 129.55,-49.44 128.74,-42.49"/>
</g>
<!-- Node2 -->
<g id="node3" class="node">
<title>Node2</title>
<g id="a_node3"><a xlink:title=" ">
<polygon fill="none" stroke="#bfbfbf" points="20,-0.5 20,-19.5 99,-19.5 99,-0.5 20,-0.5"/>
<text text-anchor="middle" x="59.5" y="-7.5" font-family="Helvetica,sans-Serif" font-size="10.00">etl::observable</text>
</a>
</g>
</g>
<!-- Node2&#45;&gt;Node1 -->
<g id="edge2" class="edge">
<title>Node2&#45;&gt;Node1</title>
<path fill="none" stroke="midnightblue" d="M109.74,-15.76C123.67,-17.39 139.3,-19.22 154.92,-21.05"/>
<polygon fill="midnightblue" stroke="midnightblue" points="109.79,-12.24 99.45,-14.56 108.98,-19.2 109.79,-12.24"/>
</g>
</g>
</svg>
