<?xml version="1.0" encoding="UTF-8" standalone="no"?>
<!DOCTYPE svg PUBLIC "-//W3C//DTD SVG 1.1//EN"
 "http://www.w3.org/Graphics/SVG/1.1/DTD/svg11.dtd">
<!-- Generated by graphviz version 3.0.0 (20221109.1736)
 -->
<!-- Title: shrapnel::presets::serialise_parameters Pages: 1 -->
<svg width="280pt" height="116pt"
 viewBox="0.00 0.00 280.00 115.50" xmlns="http://www.w3.org/2000/svg" xmlns:xlink="http://www.w3.org/1999/xlink">
<g id="graph0" class="graph" transform="scale(1 1) rotate(0) translate(4 111.5)">
<title>shrapnel::presets::serialise_parameters</title>
<!-- Node1 -->
<g id="node1" class="node">
<title>Node1</title>
<g id="a_node1"><a xlink:title=" ">
<polygon fill="#bfbfbf" stroke="black" points="0,-33 0,-63 107,-63 107,-33 0,-33"/>
<text text-anchor="start" x="8" y="-51" font-family="Helvetica,sans-Serif" font-size="10.00">shrapnel::presets::</text>
<text text-anchor="middle" x="53.5" y="-40" font-family="Helvetica,sans-Serif" font-size="10.00">serialise_parameters</text>
</a>
</g>
</g>
<!-- Node2 -->
<g id="node2" class="node">
<title>Node2</title>
<g id="a_node2"><a xlink:href="presets_8pb-c_8c.html#a0018faacf6d3974887f4912ddcd0236e" target="_top" xlink:title=" ">
<polygon fill="none" stroke="black" points="156,-77 156,-107 259,-107 259,-77 156,-77"/>
<text text-anchor="start" x="164" y="-95" font-family="Helvetica,sans-Serif" font-size="10.00">preset_parameters_</text>
<text text-anchor="middle" x="207.5" y="-84" font-family="Helvetica,sans-Serif" font-size="10.00">_get_packed_size</text>
</a>
</g>
</g>
<!-- Node1&#45;&gt;Node2 -->
<g id="edge1" class="edge">
<title>Node1&#45;&gt;Node2</title>
<path fill="none" stroke="midnightblue" d="M106.38,-63.02C119.13,-66.71 132.89,-70.69 146,-74.49"/>
<polygon fill="midnightblue" stroke="midnightblue" points="145.3,-77.93 155.88,-77.35 147.25,-71.2 145.3,-77.93"/>
</g>
<!-- Node3 -->
<g id="node3" class="node">
<title>Node3</title>
<g id="a_node3"><a xlink:href="presets_8pb-c_8c.html#a75256e2eec13936afbe06336df46ed00" target="_top" xlink:title=" ">
<polygon fill="none" stroke="black" points="147,-38.5 147,-57.5 268,-57.5 268,-38.5 147,-38.5"/>
<text text-anchor="middle" x="207.5" y="-45.5" font-family="Helvetica,sans-Serif" font-size="10.00">preset_parameters__init</text>
</a>
</g>
</g>
<!-- Node1&#45;&gt;Node3 -->
<g id="edge2" class="edge">
<title>Node1&#45;&gt;Node3</title>
<path fill="none" stroke="midnightblue" d="M107.24,-48C116.72,-48 126.73,-48 136.61,-48"/>
<polygon fill="midnightblue" stroke="midnightblue" points="136.83,-51.5 146.83,-48 136.83,-44.5 136.83,-51.5"/>
</g>
<!-- Node4 -->
<g id="node4" class="node">
<title>Node4</title>
<g id="a_node4"><a xlink:href="presets_8pb-c_8c.html#a2af1e4adea114d51ee4e42528c81d931" target="_top" xlink:title=" ">
<polygon fill="none" stroke="black" points="143,-0.5 143,-19.5 272,-19.5 272,-0.5 143,-0.5"/>
<text text-anchor="middle" x="207.5" y="-7.5" font-family="Helvetica,sans-Serif" font-size="10.00">preset_parameters__pack</text>
</a>
</g>
</g>
<!-- Node1&#45;&gt;Node4 -->
<g id="edge3" class="edge">
<title>Node1&#45;&gt;Node4</title>
<path fill="none" stroke="midnightblue" d="M107.24,-34.82C123.85,-30.66 142.11,-26.1 158.39,-22.03"/>
<polygon fill="midnightblue" stroke="midnightblue" points="159.38,-25.39 168.23,-19.57 157.68,-18.6 159.38,-25.39"/>
</g>
</g>
</svg>
