<?xml version="1.0" encoding="UTF-8" standalone="no"?>
<!DOCTYPE svg PUBLIC "-//W3C//DTD SVG 1.1//EN"
 "http://www.w3.org/Graphics/SVG/1.1/DTD/svg11.dtd">
<!-- Generated by graphviz version 3.0.0 (20221109.1736)
 -->
<!-- Title: shrapnel::app_main Pages: 1 -->
<svg width="989pt" height="684pt"
 viewBox="0.00 0.00 989.00 683.50" xmlns="http://www.w3.org/2000/svg" xmlns:xlink="http://www.w3.org/1999/xlink">
<g id="graph0" class="graph" transform="scale(1 1) rotate(0) translate(4 679.5)">
<title>shrapnel::app_main</title>
<!-- Node1 -->
<g id="node1" class="node">
<title>Node1</title>
<g id="a_node1"><a xlink:title=" ">
<polygon fill="#bfbfbf" stroke="black" points="0,-328 0,-347 100,-347 100,-328 0,-328"/>
<text text-anchor="middle" x="50" y="-335" font-family="Helvetica,sans-Serif" font-size="10.00">shrapnel::app_main</text>
</a>
</g>
</g>
<!-- Node2 -->
<g id="node2" class="node">
<title>Node2</title>
<g id="a_node2"><a xlink:href="main_8cpp.html#a1a66099a9e1054494d0704363a5c8666" target="_top" xlink:title=" ">
<polygon fill="none" stroke="black" points="136,-656 136,-675 273,-675 273,-656 136,-656"/>
<text text-anchor="middle" x="204.5" y="-663" font-family="Helvetica,sans-Serif" font-size="10.00">audio_event_send_callback</text>
</a>
</g>
</g>
<!-- Node1&#45;&gt;Node2 -->
<g id="edge1" class="edge">
<title>Node1&#45;&gt;Node2</title>
<path fill="none" stroke="midnightblue" d="M50.51,-347.19C48.95,-389.34 48.53,-558.51 136,-646.5 137.45,-647.96 139,-649.3 140.63,-650.55"/>
<polygon fill="midnightblue" stroke="midnightblue" points="139.05,-653.69 149.4,-655.97 142.73,-647.73 139.05,-653.69"/>
</g>
<!-- Node5 -->
<g id="node5" class="node">
<title>Node5</title>
<g id="a_node5"><a xlink:href="namespaceshrapnel.html#a4bf0b1d7c4fef2839a56059a237d1da6" target="_top" xlink:title=" ">
<polygon fill="none" stroke="black" points="140,-618 140,-637 269,-637 269,-618 140,-618"/>
<text text-anchor="middle" x="204.5" y="-625" font-family="Helvetica,sans-Serif" font-size="10.00">shrapnel::connect_handler</text>
</a>
</g>
</g>
<!-- Node1&#45;&gt;Node5 -->
<g id="edge4" class="edge">
<title>Node1&#45;&gt;Node5</title>
<path fill="none" stroke="midnightblue" d="M50.95,-347.05C51.27,-385.78 57.81,-532.59 136,-608.5 137.63,-610.08 139.39,-611.54 141.23,-612.87"/>
<polygon fill="midnightblue" stroke="midnightblue" points="139.48,-615.9 149.87,-617.99 143.05,-609.88 139.48,-615.9"/>
</g>
<!-- Node6 -->
<g id="node6" class="node">
<title>Node6</title>
<g id="a_node6"><a xlink:href="namespaceshrapnel.html#ae3cbca1e45f686a5790d51825e2754a2" target="_top" xlink:title=" ">
<polygon fill="none" stroke="black" points="152,-568.5 152,-598.5 257,-598.5 257,-568.5 152,-568.5"/>
<text text-anchor="start" x="160" y="-586.5" font-family="Helvetica,sans-Serif" font-size="10.00">shrapnel::disconnect</text>
<text text-anchor="middle" x="204.5" y="-575.5" font-family="Helvetica,sans-Serif" font-size="10.00">_handler</text>
</a>
</g>
</g>
<!-- Node1&#45;&gt;Node6 -->
<g id="edge5" class="edge">
<title>Node1&#45;&gt;Node6</title>
<path fill="none" stroke="midnightblue" d="M51.95,-347.43C55.74,-381.67 72.82,-496.11 136,-558.5 138.13,-560.6 140.44,-562.52 142.9,-564.29"/>
<polygon fill="midnightblue" stroke="midnightblue" points="141.34,-567.44 151.69,-569.7 145.01,-561.48 141.34,-567.44"/>
</g>
<!-- Node7 -->
<g id="node7" class="node">
<title>Node7</title>
<g id="a_node7"><a xlink:href="namespaceshrapnel.html#abcae6f4d21df0182843da1ec10660604" target="_top" xlink:title=" ">
<polygon fill="none" stroke="black" points="152,-530 152,-549 257,-549 257,-530 152,-530"/>
<text text-anchor="middle" x="204.5" y="-537" font-family="Helvetica,sans-Serif" font-size="10.00">shrapnel::do_nothing</text>
</a>
</g>
</g>
<!-- Node1&#45;&gt;Node7 -->
<g id="edge6" class="edge">
<title>Node1&#45;&gt;Node7</title>
<path fill="none" stroke="midnightblue" d="M52.58,-347.16C58.07,-377.57 79.18,-472.14 136,-520.5 138.03,-522.23 140.2,-523.8 142.48,-525.22"/>
<polygon fill="midnightblue" stroke="midnightblue" points="141.24,-528.52 151.72,-530.06 144.48,-522.32 141.24,-528.52"/>
</g>
<!-- Node8 -->
<g id="node8" class="node">
<title>Node8</title>
<g id="a_node8"><a xlink:href="namespaceshrapnel.html#a9f01b77156c5fc53346d256b9735e6f8" target="_top" xlink:title=" ">
<polygon fill="none" stroke="black" points="151,-480.5 151,-510.5 258,-510.5 258,-480.5 151,-480.5"/>
<text text-anchor="start" x="159" y="-498.5" font-family="Helvetica,sans-Serif" font-size="10.00">shrapnel::failed_alloc</text>
<text text-anchor="middle" x="204.5" y="-487.5" font-family="Helvetica,sans-Serif" font-size="10.00">_callback</text>
</a>
</g>
</g>
<!-- Node1&#45;&gt;Node8 -->
<g id="edge7" class="edge">
<title>Node1&#45;&gt;Node8</title>
<path fill="none" stroke="midnightblue" d="M54.57,-347.03C64.07,-371.17 92.26,-435.25 136,-470.5 138.23,-472.3 140.61,-473.98 143.09,-475.55"/>
<polygon fill="midnightblue" stroke="midnightblue" points="141.39,-478.6 151.82,-480.43 144.81,-472.5 141.39,-478.6"/>
</g>
<!-- Node9 -->
<g id="node9" class="node">
<title>Node9</title>
<g id="a_node9"><a xlink:href="namespaceshrapnel_1_1midi.html#afd9cfe553455ee74095653576a11d835" target="_top" xlink:title=" ">
<polygon fill="none" stroke="black" points="143,-442 143,-461 266,-461 266,-442 143,-442"/>
<text text-anchor="middle" x="204.5" y="-449" font-family="Helvetica,sans-Serif" font-size="10.00">shrapnel::midi::from_json</text>
</a>
</g>
</g>
<!-- Node1&#45;&gt;Node9 -->
<g id="edge8" class="edge">
<title>Node1&#45;&gt;Node9</title>
<path fill="none" stroke="midnightblue" d="M56.94,-347.22C69.23,-366.5 99.38,-409.66 136,-432.5 139.39,-434.61 143.02,-436.5 146.77,-438.18"/>
<polygon fill="midnightblue" stroke="midnightblue" points="145.7,-441.52 156.28,-441.94 148.27,-435.01 145.7,-441.52"/>
</g>
<!-- Node10 -->
<g id="node10" class="node">
<title>Node10</title>
<g id="a_node10"><a xlink:href="namespaceshrapnel.html#a2b47dde02734c93bbdabfd97cb23dd2a" target="_top" xlink:title=" ">
<polygon fill="none" stroke="black" points="154.5,-404 154.5,-423 254.5,-423 254.5,-404 154.5,-404"/>
<text text-anchor="middle" x="204.5" y="-411" font-family="Helvetica,sans-Serif" font-size="10.00">shrapnel::i2c_setup</text>
</a>
</g>
</g>
<!-- Node1&#45;&gt;Node10 -->
<g id="edge9" class="edge">
<title>Node1&#45;&gt;Node10</title>
<path fill="none" stroke="midnightblue" d="M62.67,-347.09C78.42,-359.62 107.77,-381.47 136,-394.5 141.04,-396.83 146.43,-398.93 151.88,-400.81"/>
<polygon fill="midnightblue" stroke="midnightblue" points="151.11,-404.24 161.71,-403.96 153.25,-397.58 151.11,-404.24"/>
</g>
<!-- Node11 -->
<g id="node11" class="node">
<title>Node11</title>
<g id="a_node11"><a xlink:href="profiling_8cpp.html#a419c836fb596d360dbc40e678127eb90" target="_top" xlink:title=" ">
<polygon fill="none" stroke="black" points="158.5,-366 158.5,-385 250.5,-385 250.5,-366 158.5,-366"/>
<text text-anchor="middle" x="204.5" y="-373" font-family="Helvetica,sans-Serif" font-size="10.00">i2s_profiling_task</text>
</a>
</g>
</g>
<!-- Node1&#45;&gt;Node11 -->
<g id="edge10" class="edge">
<title>Node1&#45;&gt;Node11</title>
<path fill="none" stroke="midnightblue" d="M89.48,-347.09C109.52,-352.08 134.2,-358.23 155.48,-363.53"/>
<polygon fill="midnightblue" stroke="midnightblue" points="154.74,-366.96 165.29,-365.98 156.44,-360.17 154.74,-366.96"/>
</g>
<!-- Node14 -->
<g id="node14" class="node">
<title>Node14</title>
<g id="a_node14"><a xlink:href="i2s_8cpp.html#ab949ae727fd1608d465238ba29ab2dab" target="_top" xlink:title=" ">
<polygon fill="none" stroke="black" points="175,-328 175,-347 234,-347 234,-328 175,-328"/>
<text text-anchor="middle" x="204.5" y="-335" font-family="Helvetica,sans-Serif" font-size="10.00">i2s_setup</text>
</a>
</g>
</g>
<!-- Node1&#45;&gt;Node14 -->
<g id="edge13" class="edge">
<title>Node1&#45;&gt;Node14</title>
<path fill="none" stroke="midnightblue" d="M100.09,-337.5C121.05,-337.5 145.16,-337.5 164.83,-337.5"/>
<polygon fill="midnightblue" stroke="midnightblue" points="164.96,-341 174.96,-337.5 164.96,-334 164.96,-341"/>
</g>
<!-- Node39 -->
<g id="node39" class="node">
<title>Node39</title>
<g id="a_node39"><a xlink:href="i2s_8cpp.html#a7bd2643748a0d4058522967eecfb1dc1" target="_top" xlink:title=" ">
<polygon fill="none" stroke="black" points="166,-290 166,-309 243,-309 243,-290 166,-290"/>
<text text-anchor="middle" x="204.5" y="-297" font-family="Helvetica,sans-Serif" font-size="10.00">log_i2s_event</text>
</a>
</g>
</g>
<!-- Node1&#45;&gt;Node39 -->
<g id="edge43" class="edge">
<title>Node1&#45;&gt;Node39</title>
<path fill="none" stroke="midnightblue" d="M89.48,-327.91C109.67,-322.88 134.58,-316.67 155.96,-311.35"/>
<polygon fill="midnightblue" stroke="midnightblue" points="156.96,-314.7 165.82,-308.89 155.27,-307.91 156.96,-314.7"/>
</g>
<!-- Node40 -->
<g id="node40" class="node">
<title>Node40</title>
<g id="a_node40"><a xlink:href="namespaceshrapnel.html#a9c85fa6a77cfb97394c46cf0ebe10298" target="_top" xlink:title=" ">
<polygon fill="none" stroke="black" points="152,-240.5 152,-270.5 257,-270.5 257,-240.5 152,-240.5"/>
<text text-anchor="start" x="160" y="-258.5" font-family="Helvetica,sans-Serif" font-size="10.00">shrapnel::nvs_debug</text>
<text text-anchor="middle" x="204.5" y="-247.5" font-family="Helvetica,sans-Serif" font-size="10.00">_print</text>
</a>
</g>
</g>
<!-- Node1&#45;&gt;Node40 -->
<g id="edge44" class="edge">
<title>Node1&#45;&gt;Node40</title>
<path fill="none" stroke="midnightblue" d="M63.38,-327.82C79.44,-315.61 108.63,-294.5 136,-280.5 140.05,-278.43 144.32,-276.44 148.65,-274.55"/>
<polygon fill="midnightblue" stroke="midnightblue" points="150.31,-277.66 158.2,-270.59 147.63,-271.19 150.31,-277.66"/>
</g>
<!-- Node41 -->
<g id="node41" class="node">
<title>Node41</title>
<g id="a_node41"><a xlink:href="pcm3060_8c.html#ae4f3fcba29da4e434a2fb51e429c156b" target="_top" xlink:title="Initialise the driver.">
<polygon fill="none" stroke="black" points="167.5,-202 167.5,-221 241.5,-221 241.5,-202 167.5,-202"/>
<text text-anchor="middle" x="204.5" y="-209" font-family="Helvetica,sans-Serif" font-size="10.00">pcm3060_init</text>
</a>
</g>
</g>
<!-- Node1&#45;&gt;Node41 -->
<g id="edge45" class="edge">
<title>Node1&#45;&gt;Node41</title>
<path fill="none" stroke="midnightblue" d="M55.92,-327.84C67.13,-306.8 96.69,-256.65 136,-230.5 142.56,-226.14 150.11,-222.77 157.74,-220.17"/>
<polygon fill="midnightblue" stroke="midnightblue" points="158.8,-223.5 167.37,-217.27 156.78,-216.8 158.8,-223.5"/>
</g>
<!-- Node42 -->
<g id="node42" class="node">
<title>Node42</title>
<g id="a_node42"><a xlink:href="pcm3060_8c.html#a4b08ec86eb0407470554c4e5c5759521" target="_top" xlink:title="perform power up sequence">
<polygon fill="none" stroke="black" points="152.5,-164 152.5,-183 256.5,-183 256.5,-164 152.5,-164"/>
<text text-anchor="middle" x="204.5" y="-171" font-family="Helvetica,sans-Serif" font-size="10.00">pcm3060_power_up</text>
</a>
</g>
</g>
<!-- Node1&#45;&gt;Node42 -->
<g id="edge46" class="edge">
<title>Node1&#45;&gt;Node42</title>
<path fill="none" stroke="midnightblue" d="M53.9,-327.65C62.12,-301.44 88.19,-229.41 136,-192.5 138.35,-190.69 140.86,-189.05 143.49,-187.56"/>
<polygon fill="midnightblue" stroke="midnightblue" points="145.28,-190.59 152.77,-183.1 142.24,-184.28 145.28,-190.59"/>
</g>
<!-- Node46 -->
<g id="node46" class="node">
<title>Node46</title>
<g id="a_node46"><a xlink:href="namespaceshrapnel.html#a62ed101f04b8c40f7fdc427e6b169353" target="_top" xlink:title=" ">
<polygon fill="none" stroke="black" points="151,-126 151,-145 258,-145 258,-126 151,-126"/>
<text text-anchor="middle" x="204.5" y="-133" font-family="Helvetica,sans-Serif" font-size="10.00">shrapnel::start_mdns</text>
</a>
</g>
</g>
<!-- Node1&#45;&gt;Node46 -->
<g id="edge50" class="edge">
<title>Node1&#45;&gt;Node46</title>
<path fill="none" stroke="midnightblue" d="M52.58,-327.84C58.07,-297.43 79.18,-202.86 136,-154.5 137.99,-152.81 140.12,-151.27 142.35,-149.86"/>
<polygon fill="midnightblue" stroke="midnightblue" points="144.17,-152.86 151.38,-145.09 140.9,-146.67 144.17,-152.86"/>
</g>
<!-- Node47 -->
<g id="node47" class="node">
<title>Node47</title>
<g id="a_node47"><a xlink:href="namespaceshrapnel.html#a7ab448c59a74266fc5aaded062ed1961" target="_top" xlink:title=" ">
<polygon fill="none" stroke="black" points="140.5,-88 140.5,-107 268.5,-107 268.5,-88 140.5,-88"/>
<text text-anchor="middle" x="204.5" y="-95" font-family="Helvetica,sans-Serif" font-size="10.00">shrapnel::start_webserver</text>
</a>
</g>
</g>
<!-- Node1&#45;&gt;Node47 -->
<g id="edge51" class="edge">
<title>Node1&#45;&gt;Node47</title>
<path fill="none" stroke="midnightblue" d="M51.73,-327.86C54.84,-293.6 70.07,-176.58 136,-116.5 137.72,-114.93 139.56,-113.5 141.48,-112.18"/>
<polygon fill="midnightblue" stroke="midnightblue" points="143.47,-115.08 150.45,-107.11 140.02,-108.98 143.47,-115.08"/>
</g>
<!-- Node48 -->
<g id="node48" class="node">
<title>Node48</title>
<g id="a_node48"><a xlink:href="namespaceshrapnel.html#ac11c58ef0962c52aa2cbcb5885d6261a" target="_top" xlink:title=" ">
<polygon fill="none" stroke="black" points="141,-50 141,-69 268,-69 268,-50 141,-50"/>
<text text-anchor="middle" x="204.5" y="-57" font-family="Helvetica,sans-Serif" font-size="10.00">shrapnel::stop_webserver</text>
</a>
</g>
</g>
<!-- Node1&#45;&gt;Node48 -->
<g id="edge52" class="edge">
<title>Node1&#45;&gt;Node48</title>
<path fill="none" stroke="midnightblue" d="M51.11,-327.85C52.08,-290.04 60.82,-150.53 136,-78.5 137.64,-76.93 139.41,-75.48 141.26,-74.15"/>
<polygon fill="midnightblue" stroke="midnightblue" points="143.07,-77.15 149.92,-69.06 139.52,-71.11 143.07,-77.15"/>
</g>
<!-- Node49 -->
<g id="node49" class="node">
<title>Node49</title>
<g id="a_node49"><a xlink:href="namespaceshrapnel.html#ad3636f58faa95196bef6352b331ed3da" target="_top" xlink:title=" ">
<polygon fill="none" stroke="black" points="156,-0.5 156,-30.5 253,-30.5 253,-0.5 156,-0.5"/>
<text text-anchor="start" x="164" y="-18.5" font-family="Helvetica,sans-Serif" font-size="10.00">shrapnel::wifi_start</text>
<text text-anchor="middle" x="204.5" y="-7.5" font-family="Helvetica,sans-Serif" font-size="10.00">_handler</text>
</a>
</g>
</g>
<!-- Node1&#45;&gt;Node49 -->
<g id="edge53" class="edge">
<title>Node1&#45;&gt;Node49</title>
<path fill="none" stroke="midnightblue" d="M50.82,-327.8C50.58,-287.04 55.07,-127.83 136,-40.5 139.14,-37.11 142.79,-34.18 146.72,-31.64"/>
<polygon fill="midnightblue" stroke="midnightblue" points="148.64,-34.58 155.72,-26.69 145.27,-28.44 148.64,-34.58"/>
</g>
<!-- Node3 -->
<g id="node3" class="node">
<title>Node3</title>
<g id="a_node3"><a xlink:href="namespaceshrapnel.html#a9df539517dd9158cb2b42a9d9e948a73" target="_top" xlink:title=" ">
<polygon fill="none" stroke="black" points="309,-656 309,-675 440,-675 440,-656 309,-656"/>
<text text-anchor="middle" x="374.5" y="-663" font-family="Helvetica,sans-Serif" font-size="10.00">shrapnel::websocket_send</text>
</a>
</g>
</g>
<!-- Node2&#45;&gt;Node3 -->
<g id="edge2" class="edge">
<title>Node2&#45;&gt;Node3</title>
<path fill="none" stroke="midnightblue" d="M273.35,-665.5C281.7,-665.5 290.27,-665.5 298.72,-665.5"/>
<polygon fill="midnightblue" stroke="midnightblue" points="298.94,-669 308.94,-665.5 298.94,-662 298.94,-669"/>
</g>
<!-- Node4 -->
<g id="node4" class="node">
<title>Node4</title>
<g id="a_node4"><a xlink:href="namespaceshrapnel_1_1midi.html#a3ce92c675faa537c28f3f68743f0bf16" target="_top" xlink:title=" ">
<polygon fill="none" stroke="black" points="476,-656 476,-675 588,-675 588,-656 476,-656"/>
<text text-anchor="middle" x="532" y="-663" font-family="Helvetica,sans-Serif" font-size="10.00">shrapnel::midi::to_json</text>
</a>
</g>
</g>
<!-- Node3&#45;&gt;Node4 -->
<g id="edge3" class="edge">
<title>Node3&#45;&gt;Node4</title>
<path fill="none" stroke="midnightblue" d="M440.1,-665.5C448.52,-665.5 457.16,-665.5 465.59,-665.5"/>
<polygon fill="midnightblue" stroke="midnightblue" points="465.76,-669 475.76,-665.5 465.76,-662 465.76,-669"/>
</g>
<!-- Node12 -->
<g id="node12" class="node">
<title>Node12</title>
<g id="a_node12"><a xlink:href="profiling_8cpp.html#a96b462c18367729bd8d5e19d7d98a619" target="_top" xlink:title=" ">
<polygon fill="none" stroke="black" points="327,-404 327,-423 422,-423 422,-404 327,-404"/>
<text text-anchor="middle" x="374.5" y="-411" font-family="Helvetica,sans-Serif" font-size="10.00">cycles_to_percent</text>
</a>
</g>
</g>
<!-- Node11&#45;&gt;Node12 -->
<g id="edge11" class="edge">
<title>Node11&#45;&gt;Node12</title>
<path fill="none" stroke="midnightblue" d="M247.89,-385.09C270.26,-390.15 297.9,-396.4 321.55,-401.75"/>
<polygon fill="midnightblue" stroke="midnightblue" points="320.89,-405.19 331.41,-403.98 322.43,-398.36 320.89,-405.19"/>
</g>
<!-- Node13 -->
<g id="node13" class="node">
<title>Node13</title>
<g id="a_node13"><a xlink:href="profiling_8cpp.html#ab43df9ddabf19beb65958fe84cac89b5" target="_top" xlink:title=" ">
<polygon fill="none" stroke="black" points="337.5,-366 337.5,-385 411.5,-385 411.5,-366 337.5,-366"/>
<text text-anchor="middle" x="374.5" y="-373" font-family="Helvetica,sans-Serif" font-size="10.00">cycles_to_us</text>
</a>
</g>
</g>
<!-- Node11&#45;&gt;Node13 -->
<g id="edge12" class="edge">
<title>Node11&#45;&gt;Node13</title>
<path fill="none" stroke="midnightblue" d="M250.52,-375.5C274.23,-375.5 303.26,-375.5 327.16,-375.5"/>
<polygon fill="midnightblue" stroke="midnightblue" points="327.4,-379 337.4,-375.5 327.4,-372 327.4,-379"/>
</g>
<!-- Node15 -->
<g id="node15" class="node">
<title>Node15</title>
<g id="a_node15"><a xlink:href="i2s_8cpp.html#a4e37f563a34c1a559515cc40782caf07" target="_top" xlink:title=" ">
<polygon fill="none" stroke="black" points="321.5,-328 321.5,-347 427.5,-347 427.5,-328 321.5,-328"/>
<text text-anchor="middle" x="374.5" y="-335" font-family="Helvetica,sans-Serif" font-size="10.00">i2s_processing_task</text>
</a>
</g>
</g>
<!-- Node14&#45;&gt;Node15 -->
<g id="edge14" class="edge">
<title>Node14&#45;&gt;Node15</title>
<path fill="none" stroke="midnightblue" d="M234.38,-337.5C255.42,-337.5 284.71,-337.5 311,-337.5"/>
<polygon fill="midnightblue" stroke="midnightblue" points="311.28,-341 321.28,-337.5 311.28,-334 311.28,-341"/>
</g>
<!-- Node16 -->
<g id="node16" class="node">
<title>Node16</title>
<g id="a_node16"><a xlink:href="float__convert_8h.html#ae9b18f6b920e3401ec41278b57e6817b" target="_top" xlink:title=" ">
<polygon fill="none" stroke="black" points="643.5,-138 643.5,-157 717.5,-157 717.5,-138 643.5,-138"/>
<text text-anchor="middle" x="680.5" y="-145" font-family="Helvetica,sans-Serif" font-size="10.00">float_to_int32</text>
</a>
</g>
</g>
<!-- Node15&#45;&gt;Node16 -->
<g id="edge15" class="edge">
<title>Node15&#45;&gt;Node16</title>
<path fill="none" stroke="midnightblue" d="M397.05,-327.94C437.4,-309.39 525.85,-265.53 588,-211.5 607.33,-194.7 603.05,-181.23 624,-166.5 627.1,-164.32 630.47,-162.37 633.96,-160.64"/>
<polygon fill="midnightblue" stroke="midnightblue" points="635.65,-163.72 643.41,-156.52 632.85,-157.31 635.65,-163.72"/>
</g>
<!-- Node17 -->
<g id="node17" class="node">
<title>Node17</title>
<g id="a_node17"><a xlink:href="process_8cpp.html#a98369bdde76db63c92e6173d29c6dc78" target="_top" xlink:title=" ">
<polygon fill="none" stroke="black" points="497.5,-499 497.5,-518 566.5,-518 566.5,-499 497.5,-499"/>
<text text-anchor="middle" x="532" y="-506" font-family="Helvetica,sans-Serif" font-size="10.00">process_init</text>
</a>
</g>
</g>
<!-- Node15&#45;&gt;Node17 -->
<g id="edge16" class="edge">
<title>Node15&#45;&gt;Node17</title>
<path fill="none" stroke="midnightblue" d="M423.29,-347.11C429.26,-349.56 435.02,-352.64 440,-356.5 485.66,-391.86 513.3,-457.12 524.78,-489.4"/>
<polygon fill="midnightblue" stroke="midnightblue" points="521.52,-490.66 528.06,-498.99 528.14,-488.4 521.52,-490.66"/>
</g>
<!-- Node29 -->
<g id="node29" class="node">
<title>Node29</title>
<g id="a_node29"><a xlink:href="process_8cpp.html#a450bec865b55b9890f4050f1ab0dba5c" target="_top" xlink:title=" ">
<polygon fill="none" stroke="black" points="485.5,-328 485.5,-347 578.5,-347 578.5,-328 485.5,-328"/>
<text text-anchor="middle" x="532" y="-335" font-family="Helvetica,sans-Serif" font-size="10.00">process_samples</text>
</a>
</g>
</g>
<!-- Node15&#45;&gt;Node29 -->
<g id="edge28" class="edge">
<title>Node15&#45;&gt;Node29</title>
<path fill="none" stroke="midnightblue" d="M427.71,-337.5C443.06,-337.5 459.89,-337.5 475.44,-337.5"/>
<polygon fill="midnightblue" stroke="midnightblue" points="475.44,-341 485.44,-337.5 475.44,-334 475.44,-341"/>
</g>
<!-- Node18 -->
<g id="node18" class="node">
<title>Node18</title>
<g id="a_node18"><a xlink:href="noise__gate_8cpp.html#a949bfebe851dee44040d83bbd068dad1" target="_top" xlink:title="Initialise the effect.">
<polygon fill="none" stroke="black" points="654,-556 654,-575 707,-575 707,-556 654,-556"/>
<text text-anchor="middle" x="680.5" y="-563" font-family="Helvetica,sans-Serif" font-size="10.00">gate_init</text>
</a>
</g>
</g>
<!-- Node17&#45;&gt;Node18 -->
<g id="edge17" class="edge">
<title>Node17&#45;&gt;Node18</title>
<path fill="none" stroke="midnightblue" d="M554.9,-518.12C573.24,-526.06 600.15,-537.45 624,-546.5 630.53,-548.98 637.53,-551.49 644.3,-553.84"/>
<polygon fill="midnightblue" stroke="midnightblue" points="643.36,-557.22 653.96,-557.15 645.63,-550.6 643.36,-557.22"/>
</g>
<!-- Node20 -->
<g id="node20" class="node">
<title>Node20</title>
<g id="a_node20"><a xlink:href="noise__gate_8cpp.html#a4868a6f017c846668c1b09d32b833099" target="_top" xlink:title="Set the attack time in milliseconds.">
<polygon fill="none" stroke="black" points="637.5,-518 637.5,-537 723.5,-537 723.5,-518 637.5,-518"/>
<text text-anchor="middle" x="680.5" y="-525" font-family="Helvetica,sans-Serif" font-size="10.00">gate_set_attack</text>
</a>
</g>
</g>
<!-- Node17&#45;&gt;Node20 -->
<g id="edge19" class="edge">
<title>Node17&#45;&gt;Node20</title>
<path fill="none" stroke="midnightblue" d="M566.61,-512.86C584.6,-515.19 607.17,-518.12 627.38,-520.74"/>
<polygon fill="midnightblue" stroke="midnightblue" points="627.02,-524.22 637.39,-522.04 627.92,-517.28 627.02,-524.22"/>
</g>
<!-- Node21 -->
<g id="node21" class="node">
<title>Node21</title>
<g id="a_node21"><a xlink:href="noise__gate_8cpp.html#a184d915d5eb18d4743c6e3008bb47e62" target="_top" xlink:title="Set the buffer size in number of samples.">
<polygon fill="none" stroke="black" points="627.5,-632 627.5,-651 733.5,-651 733.5,-632 627.5,-632"/>
<text text-anchor="middle" x="680.5" y="-639" font-family="Helvetica,sans-Serif" font-size="10.00">gate_set_buffer_size</text>
</a>
</g>
</g>
<!-- Node17&#45;&gt;Node21 -->
<g id="edge20" class="edge">
<title>Node17&#45;&gt;Node21</title>
<path fill="none" stroke="midnightblue" d="M538.21,-518.29C550.34,-540.16 582.59,-593.34 624,-622.5 626.71,-624.41 629.62,-626.13 632.64,-627.7"/>
<polygon fill="midnightblue" stroke="midnightblue" points="631.4,-630.98 641.96,-631.92 634.29,-624.6 631.4,-630.98"/>
</g>
<!-- Node22 -->
<g id="node22" class="node">
<title>Node22</title>
<g id="a_node22"><a xlink:href="noise__gate_8cpp.html#a4fccad713cee272e388c9c45fc97037e" target="_top" xlink:title="Set the hold time in milliseconds.">
<polygon fill="none" stroke="black" points="642,-480 642,-499 719,-499 719,-480 642,-480"/>
<text text-anchor="middle" x="680.5" y="-487" font-family="Helvetica,sans-Serif" font-size="10.00">gate_set_hold</text>
</a>
</g>
</g>
<!-- Node17&#45;&gt;Node22 -->
<g id="edge21" class="edge">
<title>Node17&#45;&gt;Node22</title>
<path fill="none" stroke="midnightblue" d="M566.61,-504.14C585.92,-501.64 610.49,-498.45 631.78,-495.69"/>
<polygon fill="midnightblue" stroke="midnightblue" points="632.46,-499.13 641.92,-494.37 631.56,-492.19 632.46,-499.13"/>
</g>
<!-- Node23 -->
<g id="node23" class="node">
<title>Node23</title>
<g id="a_node23"><a xlink:href="noise__gate_8cpp.html#abe525a07b8cb6f0557740cc4100428a9" target="_top" xlink:title="Set the release time in milliseconds.">
<polygon fill="none" stroke="black" points="635,-442 635,-461 726,-461 726,-442 635,-442"/>
<text text-anchor="middle" x="680.5" y="-449" font-family="Helvetica,sans-Serif" font-size="10.00">gate_set_release</text>
</a>
</g>
</g>
<!-- Node17&#45;&gt;Node23 -->
<g id="edge22" class="edge">
<title>Node17&#45;&gt;Node23</title>
<path fill="none" stroke="midnightblue" d="M554.9,-498.88C573.24,-490.94 600.15,-479.55 624,-470.5 629.49,-468.42 635.32,-466.31 641.06,-464.29"/>
<polygon fill="midnightblue" stroke="midnightblue" points="642.26,-467.58 650.57,-461 639.97,-460.97 642.26,-467.58"/>
</g>
<!-- Node24 -->
<g id="node24" class="node">
<title>Node24</title>
<g id="a_node24"><a xlink:href="noise__gate_8cpp.html#a2691256497a1cec4e14434f48eccfb56" target="_top" xlink:title="Set the sample rate in Hz.">
<polygon fill="none" stroke="black" points="624,-594 624,-613 737,-613 737,-594 624,-594"/>
<text text-anchor="middle" x="680.5" y="-601" font-family="Helvetica,sans-Serif" font-size="10.00">gate_set_sample_rate</text>
</a>
</g>
</g>
<!-- Node17&#45;&gt;Node24 -->
<g id="edge23" class="edge">
<title>Node17&#45;&gt;Node24</title>
<path fill="none" stroke="midnightblue" d="M542.21,-518.23C557.72,-534.11 590.64,-565.72 624,-584.5 627.69,-586.58 631.65,-588.49 635.7,-590.22"/>
<polygon fill="midnightblue" stroke="midnightblue" points="634.6,-593.55 645.19,-593.95 637.16,-587.04 634.6,-593.55"/>
</g>
<!-- Node27 -->
<g id="node27" class="node">
<title>Node27</title>
<g id="a_node27"><a xlink:href="noise__gate_8cpp.html#a82e62ed410acc03c8179d8245de13e12" target="_top" xlink:title="Set the threshold and hysteresis value in dBFS.">
<polygon fill="none" stroke="black" points="631,-404 631,-423 730,-423 730,-404 631,-404"/>
<text text-anchor="middle" x="680.5" y="-411" font-family="Helvetica,sans-Serif" font-size="10.00">gate_set_threshold</text>
</a>
</g>
</g>
<!-- Node17&#45;&gt;Node27 -->
<g id="edge26" class="edge">
<title>Node17&#45;&gt;Node27</title>
<path fill="none" stroke="midnightblue" d="M542.21,-498.77C557.72,-482.89 590.64,-451.28 624,-432.5 627.69,-430.42 631.65,-428.51 635.7,-426.78"/>
<polygon fill="midnightblue" stroke="midnightblue" points="637.16,-429.96 645.19,-423.05 634.6,-423.45 637.16,-429.96"/>
</g>
<!-- Node19 -->
<g id="node19" class="node">
<title>Node19</title>
<g id="a_node19"><a xlink:href="noise__gate_8cpp.html#a5d3ba76b4666ac1820b498aaf04ea22e" target="_top" xlink:title="Reset the state.">
<polygon fill="none" stroke="black" points="796,-550 796,-569 858,-569 858,-550 796,-550"/>
<text text-anchor="middle" x="827" y="-557" font-family="Helvetica,sans-Serif" font-size="10.00">gate_reset</text>
</a>
</g>
</g>
<!-- Node18&#45;&gt;Node19 -->
<g id="edge18" class="edge">
<title>Node18&#45;&gt;Node19</title>
<path fill="none" stroke="midnightblue" d="M707,-564.44C728.79,-563.54 760.52,-562.22 785.74,-561.17"/>
<polygon fill="midnightblue" stroke="midnightblue" points="785.9,-564.67 795.75,-560.76 785.61,-557.67 785.9,-564.67"/>
</g>
<!-- Node25 -->
<g id="node25" class="node">
<title>Node25</title>
<g id="a_node25"><a xlink:href="abstract__dsp__esp32_8c.html#ab721c839889c1267077f4cb3304b655d" target="_top" xlink:title=" ">
<polygon fill="none" stroke="black" points="773.5,-637.5 773.5,-667.5 880.5,-667.5 880.5,-637.5 773.5,-637.5"/>
<text text-anchor="start" x="781.5" y="-655.5" font-family="Helvetica,sans-Serif" font-size="10.00">dspal_biquad_design</text>
<text text-anchor="middle" x="827" y="-644.5" font-family="Helvetica,sans-Serif" font-size="10.00">_lowpass</text>
</a>
</g>
</g>
<!-- Node24&#45;&gt;Node25 -->
<g id="edge24" class="edge">
<title>Node24&#45;&gt;Node25</title>
<path fill="none" stroke="midnightblue" d="M709.7,-613.06C727.44,-619.08 750.9,-627.03 772.1,-634.22"/>
<polygon fill="midnightblue" stroke="midnightblue" points="771.06,-637.57 781.66,-637.46 773.31,-630.94 771.06,-637.57"/>
</g>
<!-- Node26 -->
<g id="node26" class="node">
<title>Node26</title>
<g id="a_node26"><a xlink:href="classshrapnel_1_1dsp_1_1IirFilter.html#aa09e7c1ab99d85c0fdd1c98c80636550" target="_top" xlink:title=" ">
<polygon fill="none" stroke="black" points="773,-588.5 773,-618.5 881,-618.5 881,-588.5 773,-588.5"/>
<text text-anchor="start" x="781" y="-606.5" font-family="Helvetica,sans-Serif" font-size="10.00">shrapnel::dsp::IirFilter</text>
<text text-anchor="middle" x="827" y="-595.5" font-family="Helvetica,sans-Serif" font-size="10.00">::set_coefficients</text>
</a>
</g>
</g>
<!-- Node24&#45;&gt;Node26 -->
<g id="edge25" class="edge">
<title>Node24&#45;&gt;Node26</title>
<path fill="none" stroke="midnightblue" d="M737.37,-603.5C745.61,-603.5 754.15,-603.5 762.54,-603.5"/>
<polygon fill="midnightblue" stroke="midnightblue" points="762.65,-607 772.65,-603.5 762.65,-600 762.65,-607"/>
</g>
<!-- Node28 -->
<g id="node28" class="node">
<title>Node28</title>
<g id="a_node28"><a xlink:href="noise__gate_8cpp.html#afb2354391bb81545d92334434552ab4b" target="_top" xlink:title=" ">
<polygon fill="none" stroke="black" points="794.5,-404 794.5,-423 859.5,-423 859.5,-404 794.5,-404"/>
<text text-anchor="middle" x="827" y="-411" font-family="Helvetica,sans-Serif" font-size="10.00">db_to_ratio</text>
</a>
</g>
</g>
<!-- Node27&#45;&gt;Node28 -->
<g id="edge27" class="edge">
<title>Node27&#45;&gt;Node28</title>
<path fill="none" stroke="midnightblue" d="M730.02,-413.5C747.54,-413.5 767.15,-413.5 784.05,-413.5"/>
<polygon fill="midnightblue" stroke="midnightblue" points="784.19,-417 794.19,-413.5 784.19,-410 784.19,-417"/>
</g>
<!-- Node29&#45;&gt;Node16 -->
<g id="edge30" class="edge">
<title>Node29&#45;&gt;Node16</title>
<path fill="none" stroke="midnightblue" d="M542.77,-327.71C554.83,-315.17 575.29,-292.32 588,-269.5 611.6,-227.13 589.6,-200.68 624,-166.5 627.01,-163.51 630.5,-160.99 634.25,-158.87"/>
<polygon fill="midnightblue" stroke="midnightblue" points="635.78,-162.02 643.34,-154.6 632.8,-155.69 635.78,-162.02"/>
</g>
<!-- Node29&#45;&gt;Node20 -->
<g id="edge36" class="edge">
<title>Node29&#45;&gt;Node20</title>
<path fill="none" stroke="midnightblue" d="M535.44,-347.23C543.19,-376.15 569.99,-462.47 624,-508.5 626,-510.21 628.16,-511.76 630.43,-513.18"/>
<polygon fill="midnightblue" stroke="midnightblue" points="629.13,-516.44 639.61,-517.99 632.38,-510.24 629.13,-516.44"/>
</g>
<!-- Node29&#45;&gt;Node22 -->
<g id="edge37" class="edge">
<title>Node29&#45;&gt;Node22</title>
<path fill="none" stroke="midnightblue" d="M536.96,-347.1C547.46,-371.38 578.35,-435.78 624,-470.5 626.63,-472.5 629.49,-474.31 632.48,-475.92"/>
<polygon fill="midnightblue" stroke="midnightblue" points="631.17,-479.18 641.72,-480.25 634.14,-472.84 631.17,-479.18"/>
</g>
<!-- Node29&#45;&gt;Node23 -->
<g id="edge38" class="edge">
<title>Node29&#45;&gt;Node23</title>
<path fill="none" stroke="midnightblue" d="M539.64,-347.03C553.31,-365.96 586.47,-408.53 624,-432.5 627.15,-434.51 630.53,-436.33 634.02,-437.98"/>
<polygon fill="midnightblue" stroke="midnightblue" points="632.83,-441.28 643.4,-441.95 635.56,-434.83 632.83,-441.28"/>
</g>
<!-- Node29&#45;&gt;Node27 -->
<g id="edge39" class="edge">
<title>Node29&#45;&gt;Node27</title>
<path fill="none" stroke="midnightblue" d="M546.02,-347C563.2,-359.23 594.72,-380.55 624,-394.5 628.42,-396.61 633.14,-398.59 637.89,-400.43"/>
<polygon fill="midnightblue" stroke="midnightblue" points="637,-403.83 647.59,-403.98 639.4,-397.26 637,-403.83"/>
</g>
<!-- Node30 -->
<g id="node30" class="node">
<title>Node30</title>
<g id="a_node30"><a xlink:href="process_8cpp.html#a9785ac35cd7c86538882d5311fd66bf1" target="_top" xlink:title=" ">
<polygon fill="none" stroke="black" points="638,-290 638,-309 723,-309 723,-290 638,-290"/>
<text text-anchor="middle" x="680.5" y="-297" font-family="Helvetica,sans-Serif" font-size="10.00">decibel_to_ratio</text>
</a>
</g>
</g>
<!-- Node29&#45;&gt;Node30 -->
<g id="edge29" class="edge">
<title>Node29&#45;&gt;Node30</title>
<path fill="none" stroke="midnightblue" d="M569.97,-327.91C589.13,-322.94 612.71,-316.82 633.09,-311.54"/>
<polygon fill="midnightblue" stroke="midnightblue" points="634,-314.92 642.8,-309.02 632.24,-308.14 634,-314.92"/>
</g>
<!-- Node31 -->
<g id="node31" class="node">
<title>Node31</title>
<g id="a_node31"><a xlink:href="noise__gate_8cpp.html#a129b18f80393706faa5a453417153a51" target="_top" xlink:title="Analyse the audio.">
<polygon fill="none" stroke="black" points="643.5,-252 643.5,-271 717.5,-271 717.5,-252 643.5,-252"/>
<text text-anchor="middle" x="680.5" y="-259" font-family="Helvetica,sans-Serif" font-size="10.00">gate_analyse</text>
</a>
</g>
</g>
<!-- Node29&#45;&gt;Node31 -->
<g id="edge31" class="edge">
<title>Node29&#45;&gt;Node31</title>
<path fill="none" stroke="midnightblue" d="M546.02,-328C563.2,-315.77 594.72,-294.45 624,-280.5 628.42,-278.39 633.14,-276.41 637.89,-274.57"/>
<polygon fill="midnightblue" stroke="midnightblue" points="639.4,-277.74 647.59,-271.02 637,-271.17 639.4,-277.74"/>
</g>
<!-- Node34 -->
<g id="node34" class="node">
<title>Node34</title>
<g id="a_node34"><a xlink:href="noise__gate_8cpp.html#a3a59d391339a038f91650058680b00d6" target="_top" xlink:title="Apply the precalculated gain to the audio.">
<polygon fill="none" stroke="black" points="643,-214 643,-233 718,-233 718,-214 643,-214"/>
<text text-anchor="middle" x="680.5" y="-221" font-family="Helvetica,sans-Serif" font-size="10.00">gate_process</text>
</a>
</g>
</g>
<!-- Node29&#45;&gt;Node34 -->
<g id="edge34" class="edge">
<title>Node29&#45;&gt;Node34</title>
<path fill="none" stroke="midnightblue" d="M539.64,-327.97C553.31,-309.04 586.47,-266.47 624,-242.5 627.15,-240.49 630.53,-238.67 634.02,-237.02"/>
<polygon fill="midnightblue" stroke="midnightblue" points="635.56,-240.17 643.4,-233.05 632.83,-233.72 635.56,-240.17"/>
</g>
<!-- Node36 -->
<g id="node36" class="node">
<title>Node36</title>
<g id="a_node36"><a xlink:href="profiling_8cpp.html#a3171d2be3fbf00e49982243e9869735a" target="_top" xlink:title=" ">
<polygon fill="none" stroke="black" points="627.5,-176 627.5,-195 733.5,-195 733.5,-176 627.5,-176"/>
<text text-anchor="middle" x="680.5" y="-183" font-family="Helvetica,sans-Serif" font-size="10.00">profiling_mark_stage</text>
</a>
</g>
</g>
<!-- Node29&#45;&gt;Node36 -->
<g id="edge40" class="edge">
<title>Node29&#45;&gt;Node36</title>
<path fill="none" stroke="midnightblue" d="M541.77,-327.78C553.13,-314.95 573.24,-291.41 588,-269.5 606.45,-242.11 598.69,-225.71 624,-204.5 626.02,-202.81 628.19,-201.27 630.47,-199.86"/>
<polygon fill="midnightblue" stroke="midnightblue" points="632.41,-202.8 639.67,-195.08 629.18,-196.59 632.41,-202.8"/>
</g>
<!-- Node37 -->
<g id="node37" class="node">
<title>Node37</title>
<g id="a_node37"><a xlink:href="profiling_8cpp.html#ac05fdc10ded37340f2ab202bbc184d20" target="_top" xlink:title=" ">
<polygon fill="none" stroke="black" points="643.5,-366 643.5,-385 717.5,-385 717.5,-366 643.5,-366"/>
<text text-anchor="middle" x="680.5" y="-373" font-family="Helvetica,sans-Serif" font-size="10.00">profiling_start</text>
</a>
</g>
</g>
<!-- Node29&#45;&gt;Node37 -->
<g id="edge41" class="edge">
<title>Node29&#45;&gt;Node37</title>
<path fill="none" stroke="midnightblue" d="M569.97,-347.09C589.27,-352.1 613.07,-358.27 633.55,-363.58"/>
<polygon fill="midnightblue" stroke="midnightblue" points="632.75,-366.99 643.3,-366.11 634.5,-360.21 632.75,-366.99"/>
</g>
<!-- Node38 -->
<g id="node38" class="node">
<title>Node38</title>
<g id="a_node38"><a xlink:href="profiling_8cpp.html#a9f4516d77db32a65ee99933c6c9d3802" target="_top" xlink:title=" ">
<polygon fill="none" stroke="black" points="643.5,-328 643.5,-347 717.5,-347 717.5,-328 643.5,-328"/>
<text text-anchor="middle" x="680.5" y="-335" font-family="Helvetica,sans-Serif" font-size="10.00">profiling_stop</text>
</a>
</g>
</g>
<!-- Node29&#45;&gt;Node38 -->
<g id="edge42" class="edge">
<title>Node29&#45;&gt;Node38</title>
<path fill="none" stroke="midnightblue" d="M578.55,-337.5C595.8,-337.5 615.46,-337.5 632.81,-337.5"/>
<polygon fill="midnightblue" stroke="midnightblue" points="633.27,-341 643.27,-337.5 633.27,-334 633.27,-341"/>
</g>
<!-- Node32 -->
<g id="node32" class="node">
<title>Node32</title>
<g id="a_node32"><a xlink:href="classshrapnel_1_1dsp_1_1IirFilter.html#a53cb5a72d2a310cd4b35d4329af682f0" target="_top" xlink:title=" ">
<polygon fill="none" stroke="black" points="773,-249.5 773,-279.5 881,-279.5 881,-249.5 773,-249.5"/>
<text text-anchor="start" x="781" y="-267.5" font-family="Helvetica,sans-Serif" font-size="10.00">shrapnel::dsp::IirFilter</text>
<text text-anchor="middle" x="827" y="-256.5" font-family="Helvetica,sans-Serif" font-size="10.00">::process</text>
</a>
</g>
</g>
<!-- Node31&#45;&gt;Node32 -->
<g id="edge32" class="edge">
<title>Node31&#45;&gt;Node32</title>
<path fill="none" stroke="midnightblue" d="M717.59,-262.25C731.31,-262.53 747.36,-262.87 762.85,-263.19"/>
<polygon fill="midnightblue" stroke="midnightblue" points="762.85,-266.69 772.92,-263.4 762.99,-259.69 762.85,-266.69"/>
</g>
<!-- Node33 -->
<g id="node33" class="node">
<title>Node33</title>
<g id="a_node33"><a xlink:href="iir__universal_8c.html#a738b77e8a79f0c754dba3af19fbd4e30" target="_top" xlink:title=" ">
<polygon fill="none" stroke="black" points="917,-255 917,-274 981,-274 981,-255 917,-255"/>
<text text-anchor="middle" x="949" y="-262" font-family="Helvetica,sans-Serif" font-size="10.00">iir_process</text>
</a>
</g>
</g>
<!-- Node32&#45;&gt;Node33 -->
<g id="edge33" class="edge">
<title>Node32&#45;&gt;Node33</title>
<path fill="none" stroke="midnightblue" d="M881.33,-264.5C889.87,-264.5 898.59,-264.5 906.79,-264.5"/>
<polygon fill="midnightblue" stroke="midnightblue" points="906.85,-268 916.85,-264.5 906.85,-261 906.85,-268"/>
</g>
<!-- Node35 -->
<g id="node35" class="node">
<title>Node35</title>
<g id="a_node35"><a xlink:href="abstract__dsp__esp32_8c.html#a52d208742d325a0cdb7225bd9fe0e902" target="_top" xlink:title=" ">
<polygon fill="none" stroke="black" points="788,-211 788,-230 866,-230 866,-211 788,-211"/>
<text text-anchor="middle" x="827" y="-218" font-family="Helvetica,sans-Serif" font-size="10.00">dspal_multiply</text>
</a>
</g>
</g>
<!-- Node34&#45;&gt;Node35 -->
<g id="edge35" class="edge">
<title>Node34&#45;&gt;Node35</title>
<path fill="none" stroke="midnightblue" d="M718.34,-222.74C736.41,-222.36 758.41,-221.9 777.81,-221.5"/>
<polygon fill="midnightblue" stroke="midnightblue" points="778.04,-225 787.97,-221.29 777.9,-218 778.04,-225"/>
</g>
<!-- Node43 -->
<g id="node43" class="node">
<title>Node43</title>
<g id="a_node43"><a xlink:href="pcm3060_8c.html#aea1e9d4122342b16a072fc515ed9c4a2" target="_top" xlink:title=" ">
<polygon fill="none" stroke="black" points="344,-183 344,-202 405,-202 405,-183 344,-183"/>
<text text-anchor="middle" x="374.5" y="-190" font-family="Helvetica,sans-Serif" font-size="10.00">_i2c_write</text>
</a>
</g>
</g>
<!-- Node42&#45;&gt;Node43 -->
<g id="edge47" class="edge">
<title>Node42&#45;&gt;Node43</title>
<path fill="none" stroke="midnightblue" d="M256.82,-179.3C281.59,-182.11 310.85,-185.41 333.87,-188.02"/>
<polygon fill="midnightblue" stroke="midnightblue" points="333.64,-191.51 343.97,-189.16 334.43,-184.56 333.64,-191.51"/>
</g>
<!-- Node45 -->
<g id="node45" class="node">
<title>Node45</title>
<g id="a_node45"><a xlink:href="pcm3060_8c.html#a7a286e614c8a6c8e30f9408395cbd4cc" target="_top" xlink:title=" ">
<polygon fill="none" stroke="black" points="343.5,-145 343.5,-164 405.5,-164 405.5,-145 343.5,-145"/>
<text text-anchor="middle" x="374.5" y="-152" font-family="Helvetica,sans-Serif" font-size="10.00">_initialised</text>
</a>
</g>
</g>
<!-- Node42&#45;&gt;Node45 -->
<g id="edge49" class="edge">
<title>Node42&#45;&gt;Node45</title>
<path fill="none" stroke="midnightblue" d="M256.82,-167.7C281.42,-164.91 310.45,-161.63 333.4,-159.03"/>
<polygon fill="midnightblue" stroke="midnightblue" points="333.94,-162.5 343.48,-157.89 333.15,-155.54 333.94,-162.5"/>
</g>
<!-- Node44 -->
<g id="node44" class="node">
<title>Node44</title>
<g id="a_node44"><a xlink:href="i2c_8c.html#a45e8e37789f0b27a7fe24b58795787f7" target="_top" xlink:title=" ">
<polygon fill="none" stroke="black" points="492.5,-183 492.5,-202 571.5,-202 571.5,-183 492.5,-183"/>
<text text-anchor="middle" x="532" y="-190" font-family="Helvetica,sans-Serif" font-size="10.00">i2c_write_byte</text>
</a>
</g>
</g>
<!-- Node43&#45;&gt;Node44 -->
<g id="edge48" class="edge">
<title>Node43&#45;&gt;Node44</title>
<path fill="none" stroke="midnightblue" d="M405.11,-192.5C426.88,-192.5 456.94,-192.5 482.22,-192.5"/>
<polygon fill="midnightblue" stroke="midnightblue" points="482.37,-196 492.37,-192.5 482.37,-189 482.37,-196"/>
</g>
</g>
</svg>
