<?xml version="1.0" encoding="UTF-8" standalone="no"?>
<!DOCTYPE svg PUBLIC "-//W3C//DTD SVG 1.1//EN"
 "http://www.w3.org/Graphics/SVG/1.1/DTD/svg11.dtd">
<!-- Generated by graphviz version 3.0.0 (20221109.1736)
 -->
<!-- Title: shrapnel::midi::from_json Pages: 1 -->
<svg width="333pt" height="186pt"
 viewBox="0.00 0.00 333.00 186.00" xmlns="http://www.w3.org/2000/svg" xmlns:xlink="http://www.w3.org/1999/xlink">
<g id="graph0" class="graph" transform="scale(1 1) rotate(0) translate(4 182)">
<title>shrapnel::midi::from_json</title>
<!-- Node1 -->
<g id="node1" class="node">
<title>Node1</title>
<g id="a_node1"><a xlink:title="Convert the message into a object representing it.">
<polygon fill="#bfbfbf" stroke="black" points="0,-79 0,-98 123,-98 123,-79 0,-79"/>
<text text-anchor="middle" x="61.5" y="-86" font-family="Helvetica,sans-Serif" font-size="10.00">shrapnel::midi::from_json</text>
</a>
</g>
</g>
<!-- Node2 -->
<g id="node2" class="node">
<title>Node2</title>
<g id="a_node2"><a xlink:href="namespaceshrapnel_1_1midi.html#ab312cca91e576cb523ac926b9584c6ca" target="_top" xlink:title=" ">
<polygon fill="none" stroke="black" points="159,-147.5 159,-177.5 325,-177.5 325,-147.5 159,-147.5"/>
<text text-anchor="start" x="167" y="-165.5" font-family="Helvetica,sans-Serif" font-size="10.00">shrapnel::midi::get</text>
<text text-anchor="middle" x="242" y="-154.5" font-family="Helvetica,sans-Serif" font-size="10.00">_message_type&lt; CreateRequest &gt;</text>
</a>
</g>
</g>
<!-- Node1&#45;&gt;Node2 -->
<g id="edge1" class="edge">
<title>Node1&#45;&gt;Node2</title>
<path fill="none" stroke="midnightblue" d="M78.78,-98.18C97.6,-109.07 129.75,-126.77 159,-138.5 163.99,-140.5 169.21,-142.42 174.5,-144.23"/>
<polygon fill="midnightblue" stroke="midnightblue" points="173.46,-147.57 184.05,-147.38 175.65,-140.93 173.46,-147.57"/>
</g>
<!-- Node3 -->
<g id="node3" class="node">
<title>Node3</title>
<g id="a_node3"><a xlink:href="namespaceshrapnel_1_1midi.html#a06c1584d6468a990a968f1112b6ffdd3" target="_top" xlink:title=" ">
<polygon fill="none" stroke="black" points="165.5,-98.5 165.5,-128.5 318.5,-128.5 318.5,-98.5 165.5,-98.5"/>
<text text-anchor="start" x="173.5" y="-116.5" font-family="Helvetica,sans-Serif" font-size="10.00">shrapnel::midi::get</text>
<text text-anchor="middle" x="242" y="-105.5" font-family="Helvetica,sans-Serif" font-size="10.00">_message_type&lt; GetRequest &gt;</text>
</a>
</g>
</g>
<!-- Node1&#45;&gt;Node3 -->
<g id="edge2" class="edge">
<title>Node1&#45;&gt;Node3</title>
<path fill="none" stroke="midnightblue" d="M123.43,-97.03C133.61,-98.46 144.34,-99.96 155,-101.46"/>
<polygon fill="midnightblue" stroke="midnightblue" points="154.8,-104.96 165.19,-102.88 155.77,-98.03 154.8,-104.96"/>
</g>
<!-- Node4 -->
<g id="node4" class="node">
<title>Node4</title>
<g id="a_node4"><a xlink:href="namespaceshrapnel_1_1midi.html#a9e8ec3d7f4c54acbbe15790df0f404f3" target="_top" xlink:title=" ">
<polygon fill="none" stroke="black" points="173.5,-49.5 173.5,-79.5 310.5,-79.5 310.5,-49.5 173.5,-49.5"/>
<text text-anchor="start" x="181.5" y="-67.5" font-family="Helvetica,sans-Serif" font-size="10.00">shrapnel::midi::get</text>
<text text-anchor="middle" x="242" y="-56.5" font-family="Helvetica,sans-Serif" font-size="10.00">_message_type&lt; Remove &gt;</text>
</a>
</g>
</g>
<!-- Node1&#45;&gt;Node4 -->
<g id="edge3" class="edge">
<title>Node1&#45;&gt;Node4</title>
<path fill="none" stroke="midnightblue" d="M123.43,-80.31C136.23,-78.59 149.89,-76.75 163.21,-74.96"/>
<polygon fill="midnightblue" stroke="midnightblue" points="163.86,-78.4 173.3,-73.6 162.93,-71.47 163.86,-78.4"/>
</g>
<!-- Node5 -->
<g id="node5" class="node">
<title>Node5</title>
<g id="a_node5"><a xlink:href="namespaceshrapnel_1_1midi.html#af9d09aa6f84d609de12d075760f890f6" target="_top" xlink:title=" ">
<polygon fill="none" stroke="black" points="175.5,-0.5 175.5,-30.5 308.5,-30.5 308.5,-0.5 175.5,-0.5"/>
<text text-anchor="start" x="183.5" y="-18.5" font-family="Helvetica,sans-Serif" font-size="10.00">shrapnel::midi::get</text>
<text text-anchor="middle" x="242" y="-7.5" font-family="Helvetica,sans-Serif" font-size="10.00">_message_type&lt; Update &gt;</text>
</a>
</g>
</g>
<!-- Node1&#45;&gt;Node5 -->
<g id="edge4" class="edge">
<title>Node1&#45;&gt;Node5</title>
<path fill="none" stroke="midnightblue" d="M79.54,-78.94C98.52,-68.56 130.31,-51.92 159,-40.5 164.9,-38.15 171.11,-35.89 177.36,-33.76"/>
<polygon fill="midnightblue" stroke="midnightblue" points="178.79,-36.97 187.18,-30.51 176.59,-30.33 178.79,-36.97"/>
</g>
</g>
</svg>
