<?xml version="1.0" encoding="UTF-8" standalone="no"?>
<!DOCTYPE svg PUBLIC "-//W3C//DTD SVG 1.1//EN"
 "http://www.w3.org/Graphics/SVG/1.1/DTD/svg11.dtd">
<!-- Generated by graphviz version 3.0.0 (20221109.1736)
 -->
<!-- Title: shrapnel::selected_preset::from_json Pages: 1 -->
<svg width="252pt" height="110pt"
 viewBox="0.00 0.00 252.00 110.00" xmlns="http://www.w3.org/2000/svg" xmlns:xlink="http://www.w3.org/1999/xlink">
<g id="graph0" class="graph" transform="scale(1 1) rotate(0) translate(4 106)">
<title>shrapnel::selected_preset::from_json</title>
<!-- Node1 -->
<g id="node1" class="node">
<title>Node1</title>
<g id="a_node1"><a xlink:title=" ">
<polygon fill="#bfbfbf" stroke="black" points="0,-36 0,-66 96,-66 96,-36 0,-36"/>
<text text-anchor="start" x="8" y="-54" font-family="Helvetica,sans-Serif" font-size="10.00">shrapnel::selected</text>
<text text-anchor="middle" x="48" y="-43" font-family="Helvetica,sans-Serif" font-size="10.00">_preset::from_json</text>
</a>
</g>
</g>
<!-- Node2 -->
<g id="node2" class="node">
<title>Node2</title>
<g id="a_node2"><a xlink:href="namespaceshrapnel_1_1selected__preset.html#adaab4357281620800dfccda783374f92" target="_top" xlink:title=" ">
<polygon fill="none" stroke="black" points="132,-60.5 132,-101.5 244,-101.5 244,-60.5 132,-60.5"/>
<text text-anchor="start" x="140" y="-89.5" font-family="Helvetica,sans-Serif" font-size="10.00">shrapnel::selected</text>
<text text-anchor="start" x="140" y="-78.5" font-family="Helvetica,sans-Serif" font-size="10.00">_preset::get_message</text>
<text text-anchor="middle" x="188" y="-67.5" font-family="Helvetica,sans-Serif" font-size="10.00">_type&lt; Read &gt;</text>
</a>
</g>
</g>
<!-- Node1&#45;&gt;Node2 -->
<g id="edge1" class="edge">
<title>Node1&#45;&gt;Node2</title>
<path fill="none" stroke="midnightblue" d="M96.11,-61.24C104.3,-63.02 112.95,-64.9 121.53,-66.77"/>
<polygon fill="midnightblue" stroke="midnightblue" points="121.02,-70.24 131.54,-68.94 122.51,-63.4 121.02,-70.24"/>
</g>
<!-- Node3 -->
<g id="node3" class="node">
<title>Node3</title>
<g id="a_node3"><a xlink:href="namespaceshrapnel_1_1selected__preset.html#af33e7c021eeaaceceedf2a48b61b95f3" target="_top" xlink:title=" ">
<polygon fill="none" stroke="black" points="132,-0.5 132,-41.5 244,-41.5 244,-0.5 132,-0.5"/>
<text text-anchor="start" x="140" y="-29.5" font-family="Helvetica,sans-Serif" font-size="10.00">shrapnel::selected</text>
<text text-anchor="start" x="140" y="-18.5" font-family="Helvetica,sans-Serif" font-size="10.00">_preset::get_message</text>
<text text-anchor="middle" x="188" y="-7.5" font-family="Helvetica,sans-Serif" font-size="10.00">_type&lt; Write &gt;</text>
</a>
</g>
</g>
<!-- Node1&#45;&gt;Node3 -->
<g id="edge2" class="edge">
<title>Node1&#45;&gt;Node3</title>
<path fill="none" stroke="midnightblue" d="M96.11,-40.76C104.3,-38.98 112.95,-37.1 121.53,-35.23"/>
<polygon fill="midnightblue" stroke="midnightblue" points="122.51,-38.6 131.54,-33.06 121.02,-31.76 122.51,-38.6"/>
</g>
</g>
</svg>
