<?xml version="1.0" encoding="UTF-8" standalone="no"?>
<!DOCTYPE svg PUBLIC "-//W3C//DTD SVG 1.1//EN"
 "http://www.w3.org/Graphics/SVG/1.1/DTD/svg11.dtd">
<!-- Generated by graphviz version 3.0.0 (20221109.1736)
 -->
<!-- Title: shrapnel::presets::serialise_preset Pages: 1 -->
<svg width="266pt" height="142pt"
 viewBox="0.00 0.00 266.00 142.00" xmlns="http://www.w3.org/2000/svg" xmlns:xlink="http://www.w3.org/1999/xlink">
<g id="graph0" class="graph" transform="scale(1 1) rotate(0) translate(4 138)">
<title>shrapnel::presets::serialise_preset</title>
<!-- Node1 -->
<g id="node1" class="node">
<title>Node1</title>
<g id="a_node1"><a xlink:title=" ">
<polygon fill="#bfbfbf" stroke="black" points="0,-52 0,-82 95,-82 95,-52 0,-52"/>
<text text-anchor="start" x="8" y="-70" font-family="Helvetica,sans-Serif" font-size="10.00">shrapnel::presets::</text>
<text text-anchor="middle" x="47.5" y="-59" font-family="Helvetica,sans-Serif" font-size="10.00">serialise_preset</text>
</a>
</g>
</g>
<!-- Node2 -->
<g id="node2" class="node">
<title>Node2</title>
<g id="a_node2"><a xlink:href="presets_8pb-c_8c.html#a2d9875e8583d3fa295fa213d8129db32" target="_top" xlink:title=" ">
<polygon fill="none" stroke="black" points="131,-114.5 131,-133.5 258,-133.5 258,-114.5 131,-114.5"/>
<text text-anchor="middle" x="194.5" y="-121.5" font-family="Helvetica,sans-Serif" font-size="10.00">preset__get_packed_size</text>
</a>
</g>
</g>
<!-- Node1&#45;&gt;Node2 -->
<g id="edge1" class="edge">
<title>Node1&#45;&gt;Node2</title>
<path fill="none" stroke="midnightblue" d="M78.64,-82.08C94.08,-89.5 113.31,-98.27 131,-105 136.91,-107.25 143.22,-109.42 149.46,-111.44"/>
<polygon fill="midnightblue" stroke="midnightblue" points="148.57,-114.83 159.16,-114.48 150.66,-108.15 148.57,-114.83"/>
</g>
<!-- Node3 -->
<g id="node3" class="node">
<title>Node3</title>
<g id="a_node3"><a xlink:href="presets_8pb-c_8c.html#aca350cbb416198c2101b705696cffc96" target="_top" xlink:title=" ">
<polygon fill="none" stroke="black" points="161,-76.5 161,-95.5 228,-95.5 228,-76.5 161,-76.5"/>
<text text-anchor="middle" x="194.5" y="-83.5" font-family="Helvetica,sans-Serif" font-size="10.00">preset__init</text>
</a>
</g>
</g>
<!-- Node1&#45;&gt;Node3 -->
<g id="edge2" class="edge">
<title>Node1&#45;&gt;Node3</title>
<path fill="none" stroke="midnightblue" d="M95.18,-73.12C113.03,-75.46 133.29,-78.11 150.76,-80.4"/>
<polygon fill="midnightblue" stroke="midnightblue" points="150.32,-83.87 160.69,-81.7 151.22,-76.93 150.32,-83.87"/>
</g>
<!-- Node4 -->
<g id="node4" class="node">
<title>Node4</title>
<g id="a_node4"><a xlink:href="presets_8pb-c_8c.html#a81eccd11d94b993eaf549e7147bdac8b" target="_top" xlink:title=" ">
<polygon fill="none" stroke="black" points="157,-38.5 157,-57.5 232,-57.5 232,-38.5 157,-38.5"/>
<text text-anchor="middle" x="194.5" y="-45.5" font-family="Helvetica,sans-Serif" font-size="10.00">preset__pack</text>
</a>
</g>
</g>
<!-- Node1&#45;&gt;Node4 -->
<g id="edge3" class="edge">
<title>Node1&#45;&gt;Node4</title>
<path fill="none" stroke="midnightblue" d="M95.18,-60.88C111.63,-58.73 130.13,-56.3 146.6,-54.15"/>
<polygon fill="midnightblue" stroke="midnightblue" points="147.1,-57.61 156.56,-52.84 146.19,-50.67 147.1,-57.61"/>
</g>
<!-- Node5 -->
<g id="node5" class="node">
<title>Node5</title>
<g id="a_node5"><a xlink:href="presets_8pb-c_8c.html#a75256e2eec13936afbe06336df46ed00" target="_top" xlink:title=" ">
<polygon fill="none" stroke="black" points="134,-0.5 134,-19.5 255,-19.5 255,-0.5 134,-0.5"/>
<text text-anchor="middle" x="194.5" y="-7.5" font-family="Helvetica,sans-Serif" font-size="10.00">preset_parameters__init</text>
</a>
</g>
</g>
<!-- Node1&#45;&gt;Node5 -->
<g id="edge4" class="edge">
<title>Node1&#45;&gt;Node5</title>
<path fill="none" stroke="midnightblue" d="M78.64,-51.92C94.08,-44.5 113.31,-35.73 131,-29 136.91,-26.75 143.22,-24.58 149.46,-22.56"/>
<polygon fill="midnightblue" stroke="midnightblue" points="150.66,-25.85 159.16,-19.52 148.57,-19.17 150.66,-25.85"/>
</g>
</g>
</svg>
