<?xml version="1.0" encoding="UTF-8" standalone="no"?>
<!DOCTYPE svg PUBLIC "-//W3C//DTD SVG 1.1//EN"
 "http://www.w3.org/Graphics/SVG/1.1/DTD/svg11.dtd">
<!-- Generated by graphviz version 3.0.0 (20221109.1736)
 -->
<!-- Title: shrapnel::websocket_send Pages: 1 -->
<svg width="712pt" height="78pt"
 viewBox="0.00 0.00 712.00 77.50" xmlns="http://www.w3.org/2000/svg" xmlns:xlink="http://www.w3.org/1999/xlink">
<g id="graph0" class="graph" transform="scale(1 1) rotate(0) translate(4 73.5)">
<title>shrapnel::websocket_send</title>
<!-- Node1 -->
<g id="node1" class="node">
<title>Node1</title>
<g id="a_node1"><a xlink:title=" ">
<polygon fill="#bfbfbf" stroke="black" points="573,-28 573,-47 704,-47 704,-28 573,-28"/>
<text text-anchor="middle" x="638.5" y="-35" font-family="Helvetica,sans-Serif" font-size="10.00">shrapnel::websocket_send</text>
</a>
</g>
</g>
<!-- Node2 -->
<g id="node2" class="node">
<title>Node2</title>
<g id="a_node2"><a xlink:href="main_8cpp.html#a956bb48f7ee4a35a535c8858a66596d5" target="_top" xlink:title="Called when an event is triggered.">
<polygon fill="none" stroke="black" points="400,-28 400,-47 537,-47 537,-28 400,-28"/>
<text text-anchor="middle" x="468.5" y="-35" font-family="Helvetica,sans-Serif" font-size="10.00">audio_event_send_callback</text>
</a>
</g>
</g>
<!-- Node1&#45;&gt;Node2 -->
<g id="edge1" class="edge">
<title>Node1&#45;&gt;Node2</title>
<path fill="none" stroke="midnightblue" d="M562.35,-37.5C553.93,-37.5 545.38,-37.5 537.06,-37.5"/>
<polygon fill="midnightblue" stroke="midnightblue" points="562.55,-41 572.55,-37.5 562.55,-34 562.55,-41"/>
</g>
<!-- Node3 -->
<g id="node3" class="node">
<title>Node3</title>
<g id="a_node3"><a xlink:href="audio__events_8c.html#aaa06bd91aeddc4e4adc054b5a8ab8e92" target="_top" xlink:title=" ">
<polygon fill="none" stroke="black" points="265,-50 265,-69 358,-69 358,-50 265,-50"/>
<text text-anchor="middle" x="311.5" y="-57" font-family="Helvetica,sans-Serif" font-size="10.00">audio_event_task</text>
</a>
</g>
</g>
<!-- Node2&#45;&gt;Node3 -->
<g id="edge2" class="edge">
<title>Node2&#45;&gt;Node3</title>
<path fill="none" stroke="midnightblue" d="M390.35,-48.45C379.36,-50.01 368.37,-51.57 358.24,-53.01"/>
<polygon fill="midnightblue" stroke="midnightblue" points="391.01,-51.89 400.42,-47.02 390.02,-44.96 391.01,-51.89"/>
</g>
<!-- Node6 -->
<g id="node6" class="node">
<title>Node6</title>
<g id="a_node6"><a xlink:href="classshrapnel_1_1EventSend.html#a24668f434ef9ca992c9933f72078a555" target="_top" xlink:title=" ">
<polygon fill="none" stroke="black" points="259,-0.5 259,-30.5 364,-30.5 364,-0.5 259,-0.5"/>
<text text-anchor="start" x="267" y="-18.5" font-family="Helvetica,sans-Serif" font-size="10.00">shrapnel::EventSend</text>
<text text-anchor="middle" x="311.5" y="-7.5" font-family="Helvetica,sans-Serif" font-size="10.00">::send</text>
</a>
</g>
</g>
<!-- Node2&#45;&gt;Node6 -->
<g id="edge5" class="edge">
<title>Node2&#45;&gt;Node6</title>
<path fill="none" stroke="midnightblue" d="M390.43,-26.56C381.56,-25.3 372.68,-24.04 364.26,-22.85"/>
<polygon fill="midnightblue" stroke="midnightblue" points="390.02,-30.04 400.42,-27.98 391.01,-23.11 390.02,-30.04"/>
</g>
<!-- Node4 -->
<g id="node4" class="node">
<title>Node4</title>
<g id="a_node4"><a xlink:href="audio__events_8c.html#a3bc13f0f225db0bb8a8b61358e6a4461" target="_top" xlink:title=" ">
<polygon fill="none" stroke="black" points="136,-50 136,-69 223,-69 223,-50 136,-50"/>
<text text-anchor="middle" x="179.5" y="-57" font-family="Helvetica,sans-Serif" font-size="10.00">audio_event_init</text>
</a>
</g>
</g>
<!-- Node3&#45;&gt;Node4 -->
<g id="edge3" class="edge">
<title>Node3&#45;&gt;Node4</title>
<path fill="none" stroke="midnightblue" d="M254.39,-59.5C243.98,-59.5 233.25,-59.5 223.31,-59.5"/>
<polygon fill="midnightblue" stroke="midnightblue" points="254.67,-63 264.67,-59.5 254.67,-56 254.67,-63"/>
</g>
<!-- Node5 -->
<g id="node5" class="node">
<title>Node5</title>
<g id="a_node5"><a xlink:href="namespaceshrapnel.html#a9f09f4ea750643310af9143a53735b7d" target="_top" xlink:title=" ">
<polygon fill="none" stroke="black" points="0,-50 0,-69 100,-69 100,-50 0,-50"/>
<text text-anchor="middle" x="50" y="-57" font-family="Helvetica,sans-Serif" font-size="10.00">shrapnel::app_main</text>
</a>
</g>
</g>
<!-- Node4&#45;&gt;Node5 -->
<g id="edge4" class="edge">
<title>Node4&#45;&gt;Node5</title>
<path fill="none" stroke="midnightblue" d="M125.57,-59.5C117.13,-59.5 108.43,-59.5 100.08,-59.5"/>
<polygon fill="midnightblue" stroke="midnightblue" points="125.69,-63 135.69,-59.5 125.69,-56 125.69,-63"/>
</g>
</g>
</svg>
