<?xml version="1.0" encoding="UTF-8" standalone="no"?>
<!DOCTYPE svg PUBLIC "-//W3C//DTD SVG 1.1//EN"
 "http://www.w3.org/Graphics/SVG/1.1/DTD/svg11.dtd">
<!-- Generated by graphviz version 3.0.0 (20221109.1736)
 -->
<!-- Title: shrapnel::presets::from_json Pages: 1 -->
<svg width="290pt" height="284pt"
 viewBox="0.00 0.00 290.00 284.00" xmlns="http://www.w3.org/2000/svg" xmlns:xlink="http://www.w3.org/1999/xlink">
<g id="graph0" class="graph" transform="scale(1 1) rotate(0) translate(4 280)">
<title>shrapnel::presets::from_json</title>
<!-- Node1 -->
<g id="node1" class="node">
<title>Node1</title>
<g id="a_node1"><a xlink:title=" ">
<polygon fill="#bfbfbf" stroke="black" points="0,-122.5 0,-152.5 95,-152.5 95,-122.5 0,-122.5"/>
<text text-anchor="start" x="8" y="-140.5" font-family="Helvetica,sans-Serif" font-size="10.00">shrapnel::presets::</text>
<text text-anchor="middle" x="47.5" y="-129.5" font-family="Helvetica,sans-Serif" font-size="10.00">from_json</text>
</a>
</g>
</g>
<!-- Node2 -->
<g id="node2" class="node">
<title>Node2</title>
<g id="a_node2"><a xlink:href="namespaceshrapnel_1_1presets.html#a2d40b6d627d199eeaba942455c1e7623" target="_top" xlink:title=" ">
<polygon fill="none" stroke="black" points="135,-245.5 135,-275.5 278,-275.5 278,-245.5 135,-245.5"/>
<text text-anchor="start" x="143" y="-263.5" font-family="Helvetica,sans-Serif" font-size="10.00">shrapnel::presets::</text>
<text text-anchor="middle" x="206.5" y="-252.5" font-family="Helvetica,sans-Serif" font-size="10.00">get_message_type&lt; Create &gt;</text>
</a>
</g>
</g>
<!-- Node1&#45;&gt;Node2 -->
<g id="edge1" class="edge">
<title>Node1&#45;&gt;Node2</title>
<path fill="none" stroke="midnightblue" d="M57.17,-152.54C70.4,-174.18 97.62,-213.97 131,-236.5 133.38,-238.1 135.87,-239.61 138.43,-241.01"/>
<polygon fill="midnightblue" stroke="midnightblue" points="136.91,-244.16 147.43,-245.44 140,-237.88 136.91,-244.16"/>
</g>
<!-- Node3 -->
<g id="node3" class="node">
<title>Node3</title>
<g id="a_node3"><a xlink:href="namespaceshrapnel_1_1presets.html#ad8112c5e509842e1dbe604f76750d1ee" target="_top" xlink:title=" ">
<polygon fill="none" stroke="black" points="135,-196.5 135,-226.5 278,-226.5 278,-196.5 135,-196.5"/>
<text text-anchor="start" x="143" y="-214.5" font-family="Helvetica,sans-Serif" font-size="10.00">shrapnel::presets::</text>
<text text-anchor="middle" x="206.5" y="-203.5" font-family="Helvetica,sans-Serif" font-size="10.00">get_message_type&lt; Delete &gt;</text>
</a>
</g>
</g>
<!-- Node1&#45;&gt;Node3 -->
<g id="edge2" class="edge">
<title>Node1&#45;&gt;Node3</title>
<path fill="none" stroke="midnightblue" d="M70.14,-152.54C86.35,-163.32 109.37,-177.62 131,-187.5 135.07,-189.36 139.33,-191.14 143.66,-192.83"/>
<polygon fill="midnightblue" stroke="midnightblue" points="142.62,-196.17 153.21,-196.37 145.05,-189.61 142.62,-196.17"/>
</g>
<!-- Node4 -->
<g id="node4" class="node">
<title>Node4</title>
<g id="a_node4"><a xlink:href="namespaceshrapnel_1_1presets.html#ac8a8c3a1b0e1591b9bb8cd7e9dc30e04" target="_top" xlink:title=" ">
<polygon fill="none" stroke="black" points="131,-147.5 131,-177.5 282,-177.5 282,-147.5 131,-147.5"/>
<text text-anchor="start" x="139" y="-165.5" font-family="Helvetica,sans-Serif" font-size="10.00">shrapnel::presets::</text>
<text text-anchor="middle" x="206.5" y="-154.5" font-family="Helvetica,sans-Serif" font-size="10.00">get_message_type&lt; Initialise &gt;</text>
</a>
</g>
</g>
<!-- Node1&#45;&gt;Node4 -->
<g id="edge3" class="edge">
<title>Node1&#45;&gt;Node4</title>
<path fill="none" stroke="midnightblue" d="M95.18,-144.93C103.32,-146.23 112.02,-147.61 120.81,-149.02"/>
<polygon fill="midnightblue" stroke="midnightblue" points="120.34,-152.48 130.77,-150.6 121.44,-145.57 120.34,-152.48"/>
</g>
<!-- Node5 -->
<g id="node5" class="node">
<title>Node5</title>
<g id="a_node5"><a xlink:href="namespaceshrapnel_1_1presets.html#ae3c18b8cfbeb783598a43c3cb2f9fe54" target="_top" xlink:title=" ">
<polygon fill="none" stroke="black" points="133.5,-98.5 133.5,-128.5 279.5,-128.5 279.5,-98.5 133.5,-98.5"/>
<text text-anchor="start" x="141.5" y="-116.5" font-family="Helvetica,sans-Serif" font-size="10.00">shrapnel::presets::</text>
<text text-anchor="middle" x="206.5" y="-105.5" font-family="Helvetica,sans-Serif" font-size="10.00">get_message_type&lt; Update &gt;</text>
</a>
</g>
</g>
<!-- Node1&#45;&gt;Node5 -->
<g id="edge4" class="edge">
<title>Node1&#45;&gt;Node5</title>
<path fill="none" stroke="midnightblue" d="M95.18,-130.36C104.1,-129 113.69,-127.54 123.34,-126.06"/>
<polygon fill="midnightblue" stroke="midnightblue" points="124.05,-129.49 133.41,-124.52 122.99,-122.57 124.05,-129.49"/>
</g>
<!-- Node6 -->
<g id="node6" class="node">
<title>Node6</title>
<g id="a_node6"><a xlink:href="presets_8pb-c_8c.html#ab1779b6426920a2374767bd2612e000b" target="_top" xlink:title=" ">
<polygon fill="none" stroke="black" points="155,-49.5 155,-79.5 258,-79.5 258,-49.5 155,-49.5"/>
<text text-anchor="start" x="163" y="-67.5" font-family="Helvetica,sans-Serif" font-size="10.00">preset_parameters_</text>
<text text-anchor="middle" x="206.5" y="-56.5" font-family="Helvetica,sans-Serif" font-size="10.00">_free_unpacked</text>
</a>
</g>
</g>
<!-- Node1&#45;&gt;Node6 -->
<g id="edge5" class="edge">
<title>Node1&#45;&gt;Node6</title>
<path fill="none" stroke="midnightblue" d="M71.65,-122.32C87.82,-112.15 110.17,-98.94 131,-89.5 135.97,-87.25 141.21,-85.09 146.5,-83.05"/>
<polygon fill="midnightblue" stroke="midnightblue" points="147.9,-86.27 156.06,-79.51 145.47,-79.7 147.9,-86.27"/>
</g>
<!-- Node7 -->
<g id="node7" class="node">
<title>Node7</title>
<g id="a_node7"><a xlink:href="presets_8pb-c_8c.html#a8caf360c1a2f9ad0df5c9cb6f028a9de" target="_top" xlink:title=" ">
<polygon fill="none" stroke="black" points="155,-0.5 155,-30.5 258,-30.5 258,-0.5 155,-0.5"/>
<text text-anchor="start" x="163" y="-18.5" font-family="Helvetica,sans-Serif" font-size="10.00">preset_parameters_</text>
<text text-anchor="middle" x="206.5" y="-7.5" font-family="Helvetica,sans-Serif" font-size="10.00">_unpack</text>
</a>
</g>
</g>
<!-- Node1&#45;&gt;Node7 -->
<g id="edge6" class="edge">
<title>Node1&#45;&gt;Node7</title>
<path fill="none" stroke="midnightblue" d="M57.51,-122.47C70.95,-101.26 98.23,-62.68 131,-40.5 135.52,-37.44 140.45,-34.73 145.54,-32.33"/>
<polygon fill="midnightblue" stroke="midnightblue" points="147.03,-35.5 154.84,-28.34 144.27,-29.06 147.03,-35.5"/>
</g>
</g>
</svg>
