<?xml version="1.0" encoding="UTF-8" standalone="no"?>
<!DOCTYPE svg PUBLIC "-//W3C//DTD SVG 1.1//EN"
 "http://www.w3.org/Graphics/SVG/1.1/DTD/svg11.dtd">
<!-- Generated by graphviz version 3.0.0 (20221109.1736)
 -->
<!-- Title: shrapnel::app_main Pages: 1 -->
<svg width="596pt" height="794pt"
 viewBox="0.00 0.00 596.00 793.50" xmlns="http://www.w3.org/2000/svg" xmlns:xlink="http://www.w3.org/1999/xlink">
<g id="graph0" class="graph" transform="scale(1 1) rotate(0) translate(4 789.5)">
<title>shrapnel::app_main</title>
<!-- Node1 -->
<g id="node1" class="node">
<title>Node1</title>
<g id="a_node1"><a xlink:title=" ">
<polygon fill="#bfbfbf" stroke="black" points="0,-372 0,-391 100,-391 100,-372 0,-372"/>
<text text-anchor="middle" x="50" y="-379" font-family="Helvetica,sans-Serif" font-size="10.00">shrapnel::app_main</text>
</a>
</g>
</g>
<!-- Node2 -->
<g id="node2" class="node">
<title>Node2</title>
<g id="a_node2"><a xlink:href="main_8cpp.html#a1a66099a9e1054494d0704363a5c8666" target="_top" xlink:title=" ">
<polygon fill="none" stroke="black" points="136,-766 136,-785 273,-785 273,-766 136,-766"/>
<text text-anchor="middle" x="204.5" y="-773" font-family="Helvetica,sans-Serif" font-size="10.00">audio_event_send_callback</text>
</a>
</g>
</g>
<!-- Node1&#45;&gt;Node2 -->
<g id="edge1" class="edge">
<title>Node1&#45;&gt;Node2</title>
<path fill="none" stroke="midnightblue" d="M51.88,-391.28C56.88,-444.74 83.36,-701.08 136,-756.5 137.38,-757.96 138.87,-759.3 140.44,-760.55"/>
<polygon fill="midnightblue" stroke="midnightblue" points="138.58,-763.52 148.89,-765.98 142.37,-757.63 138.58,-763.52"/>
</g>
<!-- Node5 -->
<g id="node5" class="node">
<title>Node5</title>
<g id="a_node5"><a xlink:href="namespaceshrapnel.html#a4bf0b1d7c4fef2839a56059a237d1da6" target="_top" xlink:title=" ">
<polygon fill="none" stroke="black" points="140,-728 140,-747 269,-747 269,-728 140,-728"/>
<text text-anchor="middle" x="204.5" y="-735" font-family="Helvetica,sans-Serif" font-size="10.00">shrapnel::connect_handler</text>
</a>
</g>
</g>
<!-- Node1&#45;&gt;Node5 -->
<g id="edge4" class="edge">
<title>Node1&#45;&gt;Node5</title>
<path fill="none" stroke="midnightblue" d="M52.15,-391.27C58.21,-441.41 88.13,-669.31 136,-718.5 137.4,-719.94 138.9,-721.27 140.48,-722.51"/>
<polygon fill="midnightblue" stroke="midnightblue" points="138.66,-725.5 148.98,-727.89 142.41,-719.58 138.66,-725.5"/>
</g>
<!-- Node6 -->
<g id="node6" class="node">
<title>Node6</title>
<g id="a_node6"><a xlink:href="namespaceshrapnel.html#ae3cbca1e45f686a5790d51825e2754a2" target="_top" xlink:title=" ">
<polygon fill="none" stroke="black" points="152,-678.5 152,-708.5 257,-708.5 257,-678.5 152,-678.5"/>
<text text-anchor="start" x="160" y="-696.5" font-family="Helvetica,sans-Serif" font-size="10.00">shrapnel::disconnect</text>
<text text-anchor="middle" x="204.5" y="-685.5" font-family="Helvetica,sans-Serif" font-size="10.00">_handler</text>
</a>
</g>
</g>
<!-- Node1&#45;&gt;Node6 -->
<g id="edge5" class="edge">
<title>Node1&#45;&gt;Node6</title>
<path fill="none" stroke="midnightblue" d="M50.93,-391.15C51.17,-430.99 57.37,-584.44 136,-668.5 138.08,-670.72 140.38,-672.75 142.83,-674.6"/>
<polygon fill="midnightblue" stroke="midnightblue" points="141.36,-677.81 151.68,-680.22 145.11,-671.9 141.36,-677.81"/>
</g>
<!-- Node7 -->
<g id="node7" class="node">
<title>Node7</title>
<g id="a_node7"><a xlink:href="namespaceshrapnel.html#abcae6f4d21df0182843da1ec10660604" target="_top" xlink:title=" ">
<polygon fill="none" stroke="black" points="152,-640 152,-659 257,-659 257,-640 152,-640"/>
<text text-anchor="middle" x="204.5" y="-647" font-family="Helvetica,sans-Serif" font-size="10.00">shrapnel::do_nothing</text>
</a>
</g>
</g>
<!-- Node1&#45;&gt;Node7 -->
<g id="edge6" class="edge">
<title>Node1&#45;&gt;Node7</title>
<path fill="none" stroke="midnightblue" d="M51.25,-391.04C52.75,-427.78 63.19,-561.56 136,-630.5 138.15,-632.54 140.51,-634.36 143.01,-635.99"/>
<polygon fill="midnightblue" stroke="midnightblue" points="141.52,-639.17 151.98,-640.83 144.84,-633 141.52,-639.17"/>
</g>
<!-- Node8 -->
<g id="node8" class="node">
<title>Node8</title>
<g id="a_node8"><a xlink:href="namespaceshrapnel.html#a9f01b77156c5fc53346d256b9735e6f8" target="_top" xlink:title=" ">
<polygon fill="none" stroke="black" points="151,-590.5 151,-620.5 258,-620.5 258,-590.5 151,-590.5"/>
<text text-anchor="start" x="159" y="-608.5" font-family="Helvetica,sans-Serif" font-size="10.00">shrapnel::failed_alloc</text>
<text text-anchor="middle" x="204.5" y="-597.5" font-family="Helvetica,sans-Serif" font-size="10.00">_callback</text>
</a>
</g>
</g>
<!-- Node1&#45;&gt;Node8 -->
<g id="edge7" class="edge">
<title>Node1&#45;&gt;Node8</title>
<path fill="none" stroke="midnightblue" d="M52.41,-391.33C57.5,-423.25 77.78,-525.06 136,-580.5 137.9,-582.31 139.94,-583.99 142.09,-585.55"/>
<polygon fill="midnightblue" stroke="midnightblue" points="140.49,-588.68 150.83,-591 144.2,-582.74 140.49,-588.68"/>
</g>
<!-- Node9 -->
<g id="node9" class="node">
<title>Node9</title>
<g id="a_node9"><a xlink:href="namespaceshrapnel_1_1midi.html#afd9cfe553455ee74095653576a11d835" target="_top" xlink:title=" ">
<polygon fill="none" stroke="black" points="143,-552 143,-571 266,-571 266,-552 143,-552"/>
<text text-anchor="middle" x="204.5" y="-559" font-family="Helvetica,sans-Serif" font-size="10.00">shrapnel::midi::from_json</text>
</a>
</g>
</g>
<!-- Node1&#45;&gt;Node9 -->
<g id="edge8" class="edge">
<title>Node1&#45;&gt;Node9</title>
<path fill="none" stroke="midnightblue" d="M53.25,-391.19C60.25,-419.17 84.38,-500.78 136,-542.5 138.26,-544.33 140.69,-545.98 143.24,-547.48"/>
<polygon fill="midnightblue" stroke="midnightblue" points="141.75,-550.64 152.26,-551.97 144.87,-544.38 141.75,-550.64"/>
</g>
<!-- Node10 -->
<g id="node10" class="node">
<title>Node10</title>
<g id="a_node10"><a xlink:href="namespaceshrapnel.html#a2b47dde02734c93bbdabfd97cb23dd2a" target="_top" xlink:title=" ">
<polygon fill="none" stroke="black" points="154.5,-514 154.5,-533 254.5,-533 254.5,-514 154.5,-514"/>
<text text-anchor="middle" x="204.5" y="-521" font-family="Helvetica,sans-Serif" font-size="10.00">shrapnel::i2c_setup</text>
</a>
</g>
</g>
<!-- Node1&#45;&gt;Node10 -->
<g id="edge9" class="edge">
<title>Node1&#45;&gt;Node10</title>
<path fill="none" stroke="midnightblue" d="M54.91,-391.19C64.8,-414.48 93.12,-473.87 136,-504.5 138.86,-506.54 141.93,-508.37 145.14,-510"/>
<polygon fill="midnightblue" stroke="midnightblue" points="143.87,-513.26 154.43,-514.09 146.69,-506.86 143.87,-513.26"/>
</g>
<!-- Node11 -->
<g id="node11" class="node">
<title>Node11</title>
<g id="a_node11"><a xlink:href="namespaceshrapnel_1_1audio.html#a53d05b5ded7bb39aff7189392d0566c9" target="_top" xlink:title=" ">
<polygon fill="none" stroke="black" points="155.5,-464.5 155.5,-494.5 253.5,-494.5 253.5,-464.5 155.5,-464.5"/>
<text text-anchor="start" x="163.5" y="-482.5" font-family="Helvetica,sans-Serif" font-size="10.00">shrapnel::audio::i2s</text>
<text text-anchor="middle" x="204.5" y="-471.5" font-family="Helvetica,sans-Serif" font-size="10.00">_setup</text>
</a>
</g>
</g>
<!-- Node1&#45;&gt;Node11 -->
<g id="edge10" class="edge">
<title>Node1&#45;&gt;Node11</title>
<path fill="none" stroke="midnightblue" d="M60.01,-391.46C74.61,-407.05 104.92,-437.33 136,-455.5 139.19,-457.37 142.56,-459.12 146.01,-460.77"/>
<polygon fill="midnightblue" stroke="midnightblue" points="144.73,-464.03 155.29,-464.88 147.56,-457.63 144.73,-464.03"/>
</g>
<!-- Node14 -->
<g id="node14" class="node">
<title>Node14</title>
<g id="a_node14"><a xlink:href="namespaceshrapnel_1_1audio.html#a5e4994d9de1b430ad5473efe241521aa" target="_top" xlink:title=" ">
<polygon fill="none" stroke="black" points="155.5,-415.5 155.5,-445.5 253.5,-445.5 253.5,-415.5 155.5,-415.5"/>
<text text-anchor="start" x="163.5" y="-433.5" font-family="Helvetica,sans-Serif" font-size="10.00">shrapnel::audio::log</text>
<text text-anchor="middle" x="204.5" y="-422.5" font-family="Helvetica,sans-Serif" font-size="10.00">_i2s_event</text>
</a>
</g>
</g>
<!-- Node1&#45;&gt;Node14 -->
<g id="edge13" class="edge">
<title>Node1&#45;&gt;Node14</title>
<path fill="none" stroke="midnightblue" d="M80.77,-391.06C99.57,-397.11 124.47,-405.11 146.92,-412.32"/>
<polygon fill="midnightblue" stroke="midnightblue" points="146.11,-415.74 156.7,-415.46 148.25,-409.07 146.11,-415.74"/>
</g>
<!-- Node15 -->
<g id="node15" class="node">
<title>Node15</title>
<g id="a_node15"><a xlink:href="namespaceshrapnel.html#a9c85fa6a77cfb97394c46cf0ebe10298" target="_top" xlink:title=" ">
<polygon fill="none" stroke="black" points="152,-366.5 152,-396.5 257,-396.5 257,-366.5 152,-366.5"/>
<text text-anchor="start" x="160" y="-384.5" font-family="Helvetica,sans-Serif" font-size="10.00">shrapnel::nvs_debug</text>
<text text-anchor="middle" x="204.5" y="-373.5" font-family="Helvetica,sans-Serif" font-size="10.00">_print</text>
</a>
</g>
</g>
<!-- Node1&#45;&gt;Node15 -->
<g id="edge14" class="edge">
<title>Node1&#45;&gt;Node15</title>
<path fill="none" stroke="midnightblue" d="M100.09,-381.5C113.27,-381.5 127.7,-381.5 141.49,-381.5"/>
<polygon fill="midnightblue" stroke="midnightblue" points="141.87,-385 151.87,-381.5 141.87,-378 141.87,-385"/>
</g>
<!-- Node16 -->
<g id="node16" class="node">
<title>Node16</title>
<g id="a_node16"><a xlink:href="pcm3060_8c.html#ae4f3fcba29da4e434a2fb51e429c156b" target="_top" xlink:title="Initialise the driver.">
<polygon fill="none" stroke="black" points="167.5,-328 167.5,-347 241.5,-347 241.5,-328 167.5,-328"/>
<text text-anchor="middle" x="204.5" y="-335" font-family="Helvetica,sans-Serif" font-size="10.00">pcm3060_init</text>
</a>
</g>
</g>
<!-- Node1&#45;&gt;Node16 -->
<g id="edge15" class="edge">
<title>Node1&#45;&gt;Node16</title>
<path fill="none" stroke="midnightblue" d="M84.09,-371.95C106.57,-365.47 136.52,-356.83 160.8,-349.82"/>
<polygon fill="midnightblue" stroke="midnightblue" points="161.84,-353.16 170.47,-347.03 159.9,-346.44 161.84,-353.16"/>
</g>
<!-- Node17 -->
<g id="node17" class="node">
<title>Node17</title>
<g id="a_node17"><a xlink:href="pcm3060_8c.html#a4b08ec86eb0407470554c4e5c5759521" target="_top" xlink:title="perform power up sequence">
<polygon fill="none" stroke="black" points="152.5,-290 152.5,-309 256.5,-309 256.5,-290 152.5,-290"/>
<text text-anchor="middle" x="204.5" y="-297" font-family="Helvetica,sans-Serif" font-size="10.00">pcm3060_power_up</text>
</a>
</g>
</g>
<!-- Node1&#45;&gt;Node17 -->
<g id="edge16" class="edge">
<title>Node1&#45;&gt;Node17</title>
<path fill="none" stroke="midnightblue" d="M61.18,-371.99C76.35,-358.29 106.32,-333.06 136,-318.5 140.66,-316.21 145.64,-314.16 150.71,-312.33"/>
<polygon fill="midnightblue" stroke="midnightblue" points="152.11,-315.55 160.5,-309.07 149.9,-308.91 152.11,-315.55"/>
</g>
<!-- Node21 -->
<g id="node21" class="node">
<title>Node21</title>
<g id="a_node21"><a xlink:href="desktop_2profiling_8c.html#a58ceeae747d300e67b1ecf70a9b24526" target="_top" xlink:title=" ">
<polygon fill="none" stroke="black" points="170.5,-252 170.5,-271 238.5,-271 238.5,-252 170.5,-252"/>
<text text-anchor="middle" x="204.5" y="-259" font-family="Helvetica,sans-Serif" font-size="10.00">profiling_init</text>
</a>
</g>
</g>
<!-- Node1&#45;&gt;Node21 -->
<g id="edge20" class="edge">
<title>Node1&#45;&gt;Node21</title>
<path fill="none" stroke="midnightblue" d="M56.42,-371.78C68.18,-351.59 98.06,-304.97 136,-280.5 143.35,-275.76 151.9,-272.18 160.39,-269.49"/>
<polygon fill="midnightblue" stroke="midnightblue" points="161.57,-272.79 170.25,-266.72 159.68,-266.05 161.57,-272.79"/>
</g>
<!-- Node22 -->
<g id="node22" class="node">
<title>Node22</title>
<g id="a_node22"><a xlink:href="desktop_2profiling_8c.html#aa8ff71a343036a362fc1953d5572d0ce" target="_top" xlink:title=" ">
<polygon fill="none" stroke="black" points="167.5,-214 167.5,-233 241.5,-233 241.5,-214 167.5,-214"/>
<text text-anchor="middle" x="204.5" y="-221" font-family="Helvetica,sans-Serif" font-size="10.00">profiling_task</text>
</a>
</g>
</g>
<!-- Node1&#45;&gt;Node22 -->
<g id="edge21" class="edge">
<title>Node1&#45;&gt;Node22</title>
<path fill="none" stroke="midnightblue" d="M54.14,-371.69C62.82,-346.25 89.55,-277.68 136,-242.5 142.35,-237.69 149.85,-234.1 157.52,-231.42"/>
<polygon fill="midnightblue" stroke="midnightblue" points="158.67,-234.73 167.23,-228.49 156.64,-228.03 158.67,-234.73"/>
</g>
<!-- Node23 -->
<g id="node23" class="node">
<title>Node23</title>
<g id="a_node23"><a xlink:href="classshrapnel_1_1os_1_1Timer.html#a5ff1b2e05dc1558fb40ef551fc00d6a9" target="_top" xlink:title=" ">
<polygon fill="none" stroke="black" points="155.5,-164.5 155.5,-194.5 253.5,-194.5 253.5,-164.5 155.5,-164.5"/>
<text text-anchor="start" x="163.5" y="-182.5" font-family="Helvetica,sans-Serif" font-size="10.00">shrapnel::os::Timer</text>
<text text-anchor="middle" x="204.5" y="-171.5" font-family="Helvetica,sans-Serif" font-size="10.00">::start</text>
</a>
</g>
</g>
<!-- Node1&#45;&gt;Node23 -->
<g id="edge22" class="edge">
<title>Node1&#45;&gt;Node23</title>
<path fill="none" stroke="midnightblue" d="M52.94,-371.92C59.34,-342.62 82.58,-253.17 136,-204.5 139.17,-201.61 142.7,-199.05 146.44,-196.78"/>
<polygon fill="midnightblue" stroke="midnightblue" points="148.29,-199.76 155.48,-191.98 145.01,-193.58 148.29,-199.76"/>
</g>
<!-- Node24 -->
<g id="node24" class="node">
<title>Node24</title>
<g id="a_node24"><a xlink:href="namespaceshrapnel.html#a62ed101f04b8c40f7fdc427e6b169353" target="_top" xlink:title=" ">
<polygon fill="none" stroke="black" points="151,-126 151,-145 258,-145 258,-126 151,-126"/>
<text text-anchor="middle" x="204.5" y="-133" font-family="Helvetica,sans-Serif" font-size="10.00">shrapnel::start_mdns</text>
</a>
</g>
</g>
<!-- Node1&#45;&gt;Node24 -->
<g id="edge23" class="edge">
<title>Node1&#45;&gt;Node24</title>
<path fill="none" stroke="midnightblue" d="M51.64,-371.6C54.44,-336.44 68.78,-216.31 136,-154.5 137.75,-152.89 139.62,-151.42 141.59,-150.07"/>
<polygon fill="midnightblue" stroke="midnightblue" points="143.75,-152.87 150.75,-144.91 140.32,-146.77 143.75,-152.87"/>
</g>
<!-- Node25 -->
<g id="node25" class="node">
<title>Node25</title>
<g id="a_node25"><a xlink:href="namespaceshrapnel.html#a7ab448c59a74266fc5aaded062ed1961" target="_top" xlink:title=" ">
<polygon fill="none" stroke="black" points="140.5,-88 140.5,-107 268.5,-107 268.5,-88 140.5,-88"/>
<text text-anchor="middle" x="204.5" y="-95" font-family="Helvetica,sans-Serif" font-size="10.00">shrapnel::start_webserver</text>
</a>
</g>
</g>
<!-- Node1&#45;&gt;Node25 -->
<g id="edge24" class="edge">
<title>Node1&#45;&gt;Node25</title>
<path fill="none" stroke="midnightblue" d="M51.03,-371.89C51.67,-333.61 59.32,-190.46 136,-116.5 137.64,-114.92 139.4,-113.47 141.25,-112.14"/>
<polygon fill="midnightblue" stroke="midnightblue" points="143.06,-115.13 149.89,-107.03 139.5,-109.11 143.06,-115.13"/>
</g>
<!-- Node26 -->
<g id="node26" class="node">
<title>Node26</title>
<g id="a_node26"><a xlink:href="namespaceshrapnel.html#ac11c58ef0962c52aa2cbcb5885d6261a" target="_top" xlink:title=" ">
<polygon fill="none" stroke="black" points="141,-50 141,-69 268,-69 268,-50 141,-50"/>
<text text-anchor="middle" x="204.5" y="-57" font-family="Helvetica,sans-Serif" font-size="10.00">shrapnel::stop_webserver</text>
</a>
</g>
</g>
<!-- Node1&#45;&gt;Node26 -->
<g id="edge25" class="edge">
<title>Node1&#45;&gt;Node26</title>
<path fill="none" stroke="midnightblue" d="M50.58,-371.99C49.3,-330.64 49.89,-164.69 136,-78.5 137.45,-77.05 139.01,-75.7 140.64,-74.46"/>
<polygon fill="midnightblue" stroke="midnightblue" points="142.74,-77.28 149.42,-69.05 139.07,-71.32 142.74,-77.28"/>
</g>
<!-- Node27 -->
<g id="node27" class="node">
<title>Node27</title>
<g id="a_node27"><a xlink:href="namespaceshrapnel.html#ad3636f58faa95196bef6352b331ed3da" target="_top" xlink:title=" ">
<polygon fill="none" stroke="black" points="156,-0.5 156,-30.5 253,-30.5 253,-0.5 156,-0.5"/>
<text text-anchor="start" x="164" y="-18.5" font-family="Helvetica,sans-Serif" font-size="10.00">shrapnel::wifi_start</text>
<text text-anchor="middle" x="204.5" y="-7.5" font-family="Helvetica,sans-Serif" font-size="10.00">_handler</text>
</a>
</g>
</g>
<!-- Node1&#45;&gt;Node27 -->
<g id="edge26" class="edge">
<title>Node1&#45;&gt;Node27</title>
<path fill="none" stroke="midnightblue" d="M52.2,-371.68C58.57,-321.31 89.71,-92.21 136,-40.5 139.22,-36.91 143,-33.83 147.1,-31.19"/>
<polygon fill="midnightblue" stroke="midnightblue" points="148.8,-34.25 155.89,-26.38 145.44,-28.11 148.8,-34.25"/>
</g>
<!-- Node3 -->
<g id="node3" class="node">
<title>Node3</title>
<g id="a_node3"><a xlink:href="namespaceshrapnel.html#a9df539517dd9158cb2b42a9d9e948a73" target="_top" xlink:title=" ">
<polygon fill="none" stroke="black" points="309,-766 309,-785 440,-785 440,-766 309,-766"/>
<text text-anchor="middle" x="374.5" y="-773" font-family="Helvetica,sans-Serif" font-size="10.00">shrapnel::websocket_send</text>
</a>
</g>
</g>
<!-- Node2&#45;&gt;Node3 -->
<g id="edge2" class="edge">
<title>Node2&#45;&gt;Node3</title>
<path fill="none" stroke="midnightblue" d="M273.35,-775.5C281.7,-775.5 290.27,-775.5 298.72,-775.5"/>
<polygon fill="midnightblue" stroke="midnightblue" points="298.94,-779 308.94,-775.5 298.94,-772 298.94,-779"/>
</g>
<!-- Node4 -->
<g id="node4" class="node">
<title>Node4</title>
<g id="a_node4"><a xlink:href="namespaceshrapnel_1_1midi.html#a3ce92c675faa537c28f3f68743f0bf16" target="_top" xlink:title=" ">
<polygon fill="none" stroke="black" points="476,-766 476,-785 588,-785 588,-766 476,-766"/>
<text text-anchor="middle" x="532" y="-773" font-family="Helvetica,sans-Serif" font-size="10.00">shrapnel::midi::to_json</text>
</a>
</g>
</g>
<!-- Node3&#45;&gt;Node4 -->
<g id="edge3" class="edge">
<title>Node3&#45;&gt;Node4</title>
<path fill="none" stroke="midnightblue" d="M440.1,-775.5C448.52,-775.5 457.16,-775.5 465.59,-775.5"/>
<polygon fill="midnightblue" stroke="midnightblue" points="465.76,-779 475.76,-775.5 465.76,-772 465.76,-779"/>
</g>
<!-- Node12 -->
<g id="node12" class="node">
<title>Node12</title>
<g id="a_node12"><a xlink:href="namespaceshrapnel_1_1audio.html#af73614d414adf5014704433913ee11db" target="_top" xlink:title=" ">
<polygon fill="none" stroke="black" points="325.5,-464.5 325.5,-494.5 423.5,-494.5 423.5,-464.5 325.5,-464.5"/>
<text text-anchor="start" x="333.5" y="-482.5" font-family="Helvetica,sans-Serif" font-size="10.00">shrapnel::audio::i2s</text>
<text text-anchor="middle" x="374.5" y="-471.5" font-family="Helvetica,sans-Serif" font-size="10.00">_processing_task</text>
</a>
</g>
</g>
<!-- Node11&#45;&gt;Node12 -->
<g id="edge11" class="edge">
<title>Node11&#45;&gt;Node12</title>
<path fill="none" stroke="midnightblue" d="M253.64,-479.5C272.8,-479.5 295.02,-479.5 315.08,-479.5"/>
<polygon fill="midnightblue" stroke="midnightblue" points="315.35,-483 325.35,-479.5 315.35,-476 315.35,-483"/>
</g>
<!-- Node13 -->
<g id="node13" class="node">
<title>Node13</title>
<g id="a_node13"><a xlink:href="float__convert_8h.html#ae9b18f6b920e3401ec41278b57e6817b" target="_top" xlink:title=" ">
<polygon fill="none" stroke="black" points="495,-470 495,-489 569,-489 569,-470 495,-470"/>
<text text-anchor="middle" x="532" y="-477" font-family="Helvetica,sans-Serif" font-size="10.00">float_to_int32</text>
</a>
</g>
</g>
<!-- Node12&#45;&gt;Node13 -->
<g id="edge12" class="edge">
<title>Node12&#45;&gt;Node13</title>
<path fill="none" stroke="midnightblue" d="M423.85,-479.5C443.11,-479.5 465.19,-479.5 484.28,-479.5"/>
<polygon fill="midnightblue" stroke="midnightblue" points="484.54,-483 494.54,-479.5 484.54,-476 484.54,-483"/>
</g>
<!-- Node18 -->
<g id="node18" class="node">
<title>Node18</title>
<g id="a_node18"><a xlink:href="pcm3060_8c.html#aea1e9d4122342b16a072fc515ed9c4a2" target="_top" xlink:title=" ">
<polygon fill="none" stroke="black" points="344,-309 344,-328 405,-328 405,-309 344,-309"/>
<text text-anchor="middle" x="374.5" y="-316" font-family="Helvetica,sans-Serif" font-size="10.00">_i2c_write</text>
</a>
</g>
</g>
<!-- Node17&#45;&gt;Node18 -->
<g id="edge17" class="edge">
<title>Node17&#45;&gt;Node18</title>
<path fill="none" stroke="midnightblue" d="M256.82,-305.3C281.59,-308.11 310.85,-311.41 333.87,-314.02"/>
<polygon fill="midnightblue" stroke="midnightblue" points="333.64,-317.51 343.97,-315.16 334.43,-310.56 333.64,-317.51"/>
</g>
<!-- Node20 -->
<g id="node20" class="node">
<title>Node20</title>
<g id="a_node20"><a xlink:href="pcm3060_8c.html#a7a286e614c8a6c8e30f9408395cbd4cc" target="_top" xlink:title=" ">
<polygon fill="none" stroke="black" points="343.5,-271 343.5,-290 405.5,-290 405.5,-271 343.5,-271"/>
<text text-anchor="middle" x="374.5" y="-278" font-family="Helvetica,sans-Serif" font-size="10.00">_initialised</text>
</a>
</g>
</g>
<!-- Node17&#45;&gt;Node20 -->
<g id="edge19" class="edge">
<title>Node17&#45;&gt;Node20</title>
<path fill="none" stroke="midnightblue" d="M256.82,-293.7C281.42,-290.91 310.45,-287.63 333.4,-285.03"/>
<polygon fill="midnightblue" stroke="midnightblue" points="333.94,-288.5 343.48,-283.89 333.15,-281.54 333.94,-288.5"/>
</g>
<!-- Node19 -->
<g id="node19" class="node">
<title>Node19</title>
<g id="a_node19"><a xlink:href="i2c_8c.html#a45e8e37789f0b27a7fe24b58795787f7" target="_top" xlink:title=" ">
<polygon fill="none" stroke="black" points="492.5,-309 492.5,-328 571.5,-328 571.5,-309 492.5,-309"/>
<text text-anchor="middle" x="532" y="-316" font-family="Helvetica,sans-Serif" font-size="10.00">i2c_write_byte</text>
</a>
</g>
</g>
<!-- Node18&#45;&gt;Node19 -->
<g id="edge18" class="edge">
<title>Node18&#45;&gt;Node19</title>
<path fill="none" stroke="midnightblue" d="M405.11,-318.5C426.88,-318.5 456.94,-318.5 482.22,-318.5"/>
<polygon fill="midnightblue" stroke="midnightblue" points="482.37,-322 492.37,-318.5 482.37,-315 482.37,-322"/>
</g>
</g>
</svg>
