<?xml version="1.0" encoding="UTF-8" standalone="no"?>
<!DOCTYPE svg PUBLIC "-//W3C//DTD SVG 1.1//EN"
 "http://www.w3.org/Graphics/SVG/1.1/DTD/svg11.dtd">
<!-- Generated by graphviz version 3.0.0 (20221109.1736)
 -->
<!-- Title: shrapnel::app_main Pages: 1 -->
<svg width="1021pt" height="620pt"
 viewBox="0.00 0.00 1021.00 620.00" xmlns="http://www.w3.org/2000/svg" xmlns:xlink="http://www.w3.org/1999/xlink">
<g id="graph0" class="graph" transform="scale(1 1) rotate(0) translate(4 616)">
<title>shrapnel::app_main</title>
<!-- Node1 -->
<g id="node1" class="node">
<title>Node1</title>
<g id="a_node1"><a xlink:title=" ">
<polygon fill="#bfbfbf" stroke="black" points="0,-256.5 0,-275.5 100,-275.5 100,-256.5 0,-256.5"/>
<text text-anchor="middle" x="50" y="-263.5" font-family="Helvetica,sans-Serif" font-size="10.00">shrapnel::app_main</text>
</a>
</g>
</g>
<!-- Node2 -->
<g id="node2" class="node">
<title>Node2</title>
<g id="a_node2"><a xlink:href="audio__events_8c.html#a3bc13f0f225db0bb8a8b61358e6a4461" target="_top" xlink:title=" ">
<polygon fill="none" stroke="black" points="157,-555.5 157,-574.5 244,-574.5 244,-555.5 157,-555.5"/>
<text text-anchor="middle" x="200.5" y="-562.5" font-family="Helvetica,sans-Serif" font-size="10.00">audio_event_init</text>
</a>
</g>
</g>
<!-- Node1&#45;&gt;Node2 -->
<g id="edge1" class="edge">
<title>Node1&#45;&gt;Node2</title>
<path fill="none" stroke="midnightblue" d="M52.94,-275.56C59.96,-308.71 86.32,-420.95 136,-500 147.68,-518.58 165.42,-536.17 179.18,-548.35"/>
<polygon fill="midnightblue" stroke="midnightblue" points="177.28,-551.33 187.15,-555.19 181.85,-546.02 177.28,-551.33"/>
</g>
<!-- Node6 -->
<g id="node6" class="node">
<title>Node6</title>
<g id="a_node6"><a xlink:href="namespaceshrapnel.html#a4bf0b1d7c4fef2839a56059a237d1da6" target="_top" xlink:title=" ">
<polygon fill="none" stroke="black" points="136,-471.5 136,-490.5 265,-490.5 265,-471.5 136,-471.5"/>
<text text-anchor="middle" x="200.5" y="-478.5" font-family="Helvetica,sans-Serif" font-size="10.00">shrapnel::connect_handler</text>
</a>
</g>
</g>
<!-- Node1&#45;&gt;Node6 -->
<g id="edge5" class="edge">
<title>Node1&#45;&gt;Node6</title>
<path fill="none" stroke="midnightblue" d="M52.32,-275.84C57.13,-307.74 76.65,-409.3 136,-462 137.92,-463.7 139.99,-465.26 142.16,-466.67"/>
<polygon fill="midnightblue" stroke="midnightblue" points="140.54,-469.77 151,-471.46 143.87,-463.62 140.54,-469.77"/>
</g>
<!-- Node8 -->
<g id="node8" class="node">
<title>Node8</title>
<g id="a_node8"><a xlink:href="classshrapnel_1_1parameters_1_1AudioParameters.html#a1e342efdc1f73f922880c296fa9cd241" target="_top" xlink:title=" ">
<polygon fill="none" stroke="black" points="136.5,-411.5 136.5,-452.5 264.5,-452.5 264.5,-411.5 136.5,-411.5"/>
<text text-anchor="start" x="144.5" y="-440.5" font-family="Helvetica,sans-Serif" font-size="10.00">shrapnel::parameters</text>
<text text-anchor="start" x="144.5" y="-429.5" font-family="Helvetica,sans-Serif" font-size="10.00">::AudioParameters::create</text>
<text text-anchor="middle" x="200.5" y="-418.5" font-family="Helvetica,sans-Serif" font-size="10.00">_and_add_parameter</text>
</a>
</g>
</g>
<!-- Node1&#45;&gt;Node8 -->
<g id="edge7" class="edge">
<title>Node1&#45;&gt;Node8</title>
<path fill="none" stroke="midnightblue" d="M54.65,-275.63C64.33,-300.04 92.93,-365.08 136,-403 136.97,-403.86 137.97,-404.69 139,-405.51"/>
<polygon fill="midnightblue" stroke="midnightblue" points="137.11,-408.45 147.3,-411.35 141.14,-402.73 137.11,-408.45"/>
</g>
<!-- Node9 -->
<g id="node9" class="node">
<title>Node9</title>
<g id="a_node9"><a xlink:href="namespaceshrapnel.html#ae3cbca1e45f686a5790d51825e2754a2" target="_top" xlink:title=" ">
<polygon fill="none" stroke="black" points="148,-363 148,-393 253,-393 253,-363 148,-363"/>
<text text-anchor="start" x="156" y="-381" font-family="Helvetica,sans-Serif" font-size="10.00">shrapnel::disconnect</text>
<text text-anchor="middle" x="200.5" y="-370" font-family="Helvetica,sans-Serif" font-size="10.00">_handler</text>
</a>
</g>
</g>
<!-- Node1&#45;&gt;Node9 -->
<g id="edge8" class="edge">
<title>Node1&#45;&gt;Node9</title>
<path fill="none" stroke="midnightblue" d="M57.89,-275.55C71.15,-293.29 101.93,-331.58 136,-354 138.4,-355.58 140.92,-357.08 143.51,-358.49"/>
<polygon fill="midnightblue" stroke="midnightblue" points="142.04,-361.67 152.55,-362.99 145.15,-355.4 142.04,-361.67"/>
</g>
<!-- Node11 -->
<g id="node11" class="node">
<title>Node11</title>
<g id="a_node11"><a xlink:href="namespaceshrapnel.html#a9f01b77156c5fc53346d256b9735e6f8" target="_top" xlink:title=" ">
<polygon fill="none" stroke="black" points="147,-314 147,-344 254,-344 254,-314 147,-314"/>
<text text-anchor="start" x="155" y="-332" font-family="Helvetica,sans-Serif" font-size="10.00">shrapnel::failed_alloc</text>
<text text-anchor="middle" x="200.5" y="-321" font-family="Helvetica,sans-Serif" font-size="10.00">_callback</text>
</a>
</g>
</g>
<!-- Node1&#45;&gt;Node11 -->
<g id="edge10" class="edge">
<title>Node1&#45;&gt;Node11</title>
<path fill="none" stroke="midnightblue" d="M71.84,-275.64C88.98,-283.48 113.94,-294.73 136,-304 140.79,-306.01 145.81,-308.07 150.83,-310.1"/>
<polygon fill="midnightblue" stroke="midnightblue" points="149.85,-313.48 160.43,-313.94 152.45,-306.98 149.85,-313.48"/>
</g>
<!-- Node12 -->
<g id="node12" class="node">
<title>Node12</title>
<g id="a_node12"><a xlink:href="namespaceshrapnel.html#a2b47dde02734c93bbdabfd97cb23dd2a" target="_top" xlink:title=" ">
<polygon fill="none" stroke="black" points="150.5,-275.5 150.5,-294.5 250.5,-294.5 250.5,-275.5 150.5,-275.5"/>
<text text-anchor="middle" x="200.5" y="-282.5" font-family="Helvetica,sans-Serif" font-size="10.00">shrapnel::i2c_setup</text>
</a>
</g>
</g>
<!-- Node1&#45;&gt;Node12 -->
<g id="edge11" class="edge">
<title>Node1&#45;&gt;Node12</title>
<path fill="none" stroke="midnightblue" d="M100.04,-272.27C112.89,-273.92 126.9,-275.71 140.23,-277.42"/>
<polygon fill="midnightblue" stroke="midnightblue" points="139.9,-280.9 150.26,-278.7 140.79,-273.96 139.9,-280.9"/>
</g>
<!-- Node13 -->
<g id="node13" class="node">
<title>Node13</title>
<g id="a_node13"><a xlink:href="profiling_8cpp.html#a419c836fb596d360dbc40e678127eb90" target="_top" xlink:title=" ">
<polygon fill="none" stroke="black" points="154.5,-237.5 154.5,-256.5 246.5,-256.5 246.5,-237.5 154.5,-237.5"/>
<text text-anchor="middle" x="200.5" y="-244.5" font-family="Helvetica,sans-Serif" font-size="10.00">i2s_profiling_task</text>
</a>
</g>
</g>
<!-- Node1&#45;&gt;Node13 -->
<g id="edge12" class="edge">
<title>Node1&#45;&gt;Node13</title>
<path fill="none" stroke="midnightblue" d="M100.04,-259.73C114.04,-257.93 129.4,-255.97 143.78,-254.13"/>
<polygon fill="midnightblue" stroke="midnightblue" points="144.56,-257.56 154.03,-252.82 143.67,-250.61 144.56,-257.56"/>
</g>
<!-- Node16 -->
<g id="node16" class="node">
<title>Node16</title>
<g id="a_node16"><a xlink:href="i2s_8cpp.html#a445c7079217d08d4767549802dade8a0" target="_top" xlink:title=" ">
<polygon fill="none" stroke="black" points="171,-199.5 171,-218.5 230,-218.5 230,-199.5 171,-199.5"/>
<text text-anchor="middle" x="200.5" y="-206.5" font-family="Helvetica,sans-Serif" font-size="10.00">i2s_setup</text>
</a>
</g>
</g>
<!-- Node1&#45;&gt;Node16 -->
<g id="edge15" class="edge">
<title>Node1&#45;&gt;Node16</title>
<path fill="none" stroke="midnightblue" d="M70.62,-256.35C87.66,-248.19 113.12,-236.5 136,-228 143.98,-225.04 152.64,-222.2 160.93,-219.67"/>
<polygon fill="midnightblue" stroke="midnightblue" points="162.2,-222.94 170.79,-216.73 160.21,-216.23 162.2,-222.94"/>
</g>
<!-- Node43 -->
<g id="node43" class="node">
<title>Node43</title>
<g id="a_node43"><a xlink:href="pcm3060_8c.html#ae4f3fcba29da4e434a2fb51e429c156b" target="_top" xlink:title="Initialise the driver.">
<polygon fill="none" stroke="black" points="163.5,-161.5 163.5,-180.5 237.5,-180.5 237.5,-161.5 163.5,-161.5"/>
<text text-anchor="middle" x="200.5" y="-168.5" font-family="Helvetica,sans-Serif" font-size="10.00">pcm3060_init</text>
</a>
</g>
</g>
<!-- Node1&#45;&gt;Node43 -->
<g id="edge47" class="edge">
<title>Node1&#45;&gt;Node43</title>
<path fill="none" stroke="midnightblue" d="M59.16,-256.35C73.23,-240.3 103.7,-208.08 136,-190 141.54,-186.9 147.63,-184.26 153.79,-182.02"/>
<polygon fill="midnightblue" stroke="midnightblue" points="155.06,-185.28 163.45,-178.81 152.85,-178.64 155.06,-185.28"/>
</g>
<!-- Node44 -->
<g id="node44" class="node">
<title>Node44</title>
<g id="a_node44"><a xlink:href="pcm3060_8c.html#a4b08ec86eb0407470554c4e5c5759521" target="_top" xlink:title="perform power up sequence">
<polygon fill="none" stroke="black" points="148.5,-123.5 148.5,-142.5 252.5,-142.5 252.5,-123.5 148.5,-123.5"/>
<text text-anchor="middle" x="200.5" y="-130.5" font-family="Helvetica,sans-Serif" font-size="10.00">pcm3060_power_up</text>
</a>
</g>
</g>
<!-- Node1&#45;&gt;Node44 -->
<g id="edge48" class="edge">
<title>Node1&#45;&gt;Node44</title>
<path fill="none" stroke="midnightblue" d="M55.45,-256.41C66.13,-234.5 95.34,-180.44 136,-152 138.87,-149.99 141.95,-148.2 145.16,-146.58"/>
<polygon fill="midnightblue" stroke="midnightblue" points="146.69,-149.74 154.45,-142.52 143.88,-143.32 146.69,-149.74"/>
</g>
<!-- Node48 -->
<g id="node48" class="node">
<title>Node48</title>
<g id="a_node48"><a xlink:href="namespaceshrapnel.html#a62ed101f04b8c40f7fdc427e6b169353" target="_top" xlink:title=" ">
<polygon fill="none" stroke="black" points="147,-85.5 147,-104.5 254,-104.5 254,-85.5 147,-85.5"/>
<text text-anchor="middle" x="200.5" y="-92.5" font-family="Helvetica,sans-Serif" font-size="10.00">shrapnel::start_mdns</text>
</a>
</g>
</g>
<!-- Node1&#45;&gt;Node48 -->
<g id="edge52" class="edge">
<title>Node1&#45;&gt;Node48</title>
<path fill="none" stroke="midnightblue" d="M53.67,-256.12C61.49,-229.1 86.93,-153.34 136,-114 138.27,-112.18 140.72,-110.53 143.28,-109.04"/>
<polygon fill="midnightblue" stroke="midnightblue" points="144.93,-112.13 152.34,-104.56 141.82,-105.85 144.93,-112.13"/>
</g>
<!-- Node49 -->
<g id="node49" class="node">
<title>Node49</title>
<g id="a_node49"><a xlink:href="namespaceshrapnel.html#ad3636f58faa95196bef6352b331ed3da" target="_top" xlink:title=" ">
<polygon fill="none" stroke="black" points="152,-36 152,-66 249,-66 249,-36 152,-36"/>
<text text-anchor="start" x="160" y="-54" font-family="Helvetica,sans-Serif" font-size="10.00">shrapnel::wifi_start</text>
<text text-anchor="middle" x="200.5" y="-43" font-family="Helvetica,sans-Serif" font-size="10.00">_handler</text>
</a>
</g>
</g>
<!-- Node1&#45;&gt;Node49 -->
<g id="edge53" class="edge">
<title>Node1&#45;&gt;Node49</title>
<path fill="none" stroke="midnightblue" d="M52.68,-256.22C58.46,-225.39 80.35,-129.17 136,-76 138.17,-73.93 140.53,-72.02 143.02,-70.27"/>
<polygon fill="midnightblue" stroke="midnightblue" points="145.18,-73.05 151.92,-64.88 141.56,-67.06 145.18,-73.05"/>
</g>
<!-- Node3 -->
<g id="node3" class="node">
<title>Node3</title>
<g id="a_node3"><a xlink:href="audio__events_8c.html#aaa06bd91aeddc4e4adc054b5a8ab8e92" target="_top" xlink:title=" ">
<polygon fill="none" stroke="black" points="318.5,-578.5 318.5,-597.5 411.5,-597.5 411.5,-578.5 318.5,-578.5"/>
<text text-anchor="middle" x="365" y="-585.5" font-family="Helvetica,sans-Serif" font-size="10.00">audio_event_task</text>
</a>
</g>
</g>
<!-- Node2&#45;&gt;Node3 -->
<g id="edge2" class="edge">
<title>Node2&#45;&gt;Node3</title>
<path fill="none" stroke="midnightblue" d="M244.19,-571.04C263.83,-573.82 287.38,-577.16 308.38,-580.13"/>
<polygon fill="midnightblue" stroke="midnightblue" points="308.07,-583.62 318.46,-581.55 309.05,-576.69 308.07,-583.62"/>
</g>
<!-- Node4 -->
<g id="node4" class="node">
<title>Node4</title>
<g id="a_node4"><a xlink:href="main_8cpp.html#a956bb48f7ee4a35a535c8858a66596d5" target="_top" xlink:title="Called when an event is triggered.">
<polygon fill="none" stroke="black" points="465,-589.5 465,-608.5 602,-608.5 602,-589.5 465,-589.5"/>
<text text-anchor="middle" x="533.5" y="-596.5" font-family="Helvetica,sans-Serif" font-size="10.00">audio_event_send_callback</text>
</a>
</g>
</g>
<!-- Node3&#45;&gt;Node4 -->
<g id="edge3" class="edge">
<title>Node3&#45;&gt;Node4</title>
<path fill="none" stroke="midnightblue" d="M411.94,-591.03C425.23,-591.91 440.13,-592.9 454.79,-593.87"/>
<polygon fill="midnightblue" stroke="midnightblue" points="454.68,-597.37 464.89,-594.53 455.14,-590.38 454.68,-597.37"/>
</g>
<!-- Node5 -->
<g id="node5" class="node">
<title>Node5</title>
<g id="a_node5"><a xlink:href="namespaceshrapnel.html#a9df539517dd9158cb2b42a9d9e948a73" target="_top" xlink:title=" ">
<polygon fill="none" stroke="black" points="638,-592.5 638,-611.5 769,-611.5 769,-592.5 638,-592.5"/>
<text text-anchor="middle" x="703.5" y="-599.5" font-family="Helvetica,sans-Serif" font-size="10.00">shrapnel::websocket_send</text>
</a>
</g>
</g>
<!-- Node4&#45;&gt;Node5 -->
<g id="edge4" class="edge">
<title>Node4&#45;&gt;Node5</title>
<path fill="none" stroke="midnightblue" d="M602.35,-600.21C610.7,-600.36 619.27,-600.51 627.72,-600.66"/>
<polygon fill="midnightblue" stroke="midnightblue" points="627.88,-604.17 637.94,-600.85 628,-597.17 627.88,-604.17"/>
</g>
<!-- Node7 -->
<g id="node7" class="node">
<title>Node7</title>
<g id="a_node7"><a xlink:href="namespaceshrapnel.html#a7ab448c59a74266fc5aaded062ed1961" target="_top" xlink:title=" ">
<polygon fill="none" stroke="black" points="301,-471.5 301,-490.5 429,-490.5 429,-471.5 301,-471.5"/>
<text text-anchor="middle" x="365" y="-478.5" font-family="Helvetica,sans-Serif" font-size="10.00">shrapnel::start_webserver</text>
</a>
</g>
</g>
<!-- Node6&#45;&gt;Node7 -->
<g id="edge6" class="edge">
<title>Node6&#45;&gt;Node7</title>
<path fill="none" stroke="midnightblue" d="M265.26,-481C273.6,-481 282.2,-481 290.69,-481"/>
<polygon fill="midnightblue" stroke="midnightblue" points="290.96,-484.5 300.96,-481 290.96,-477.5 290.96,-484.5"/>
</g>
<!-- Node10 -->
<g id="node10" class="node">
<title>Node10</title>
<g id="a_node10"><a xlink:href="namespaceshrapnel.html#ac11c58ef0962c52aa2cbcb5885d6261a" target="_top" xlink:title=" ">
<polygon fill="none" stroke="black" points="301.5,-368.5 301.5,-387.5 428.5,-387.5 428.5,-368.5 301.5,-368.5"/>
<text text-anchor="middle" x="365" y="-375.5" font-family="Helvetica,sans-Serif" font-size="10.00">shrapnel::stop_webserver</text>
</a>
</g>
</g>
<!-- Node9&#45;&gt;Node10 -->
<g id="edge9" class="edge">
<title>Node9&#45;&gt;Node10</title>
<path fill="none" stroke="midnightblue" d="M253.36,-378C265.38,-378 278.39,-378 291.13,-378"/>
<polygon fill="midnightblue" stroke="midnightblue" points="291.26,-381.5 301.26,-378 291.26,-374.5 291.26,-381.5"/>
</g>
<!-- Node14 -->
<g id="node14" class="node">
<title>Node14</title>
<g id="a_node14"><a xlink:href="profiling_8cpp.html#a96b462c18367729bd8d5e19d7d98a619" target="_top" xlink:title=" ">
<polygon fill="none" stroke="black" points="317.5,-237.5 317.5,-256.5 412.5,-256.5 412.5,-237.5 317.5,-237.5"/>
<text text-anchor="middle" x="365" y="-244.5" font-family="Helvetica,sans-Serif" font-size="10.00">cycles_to_percent</text>
</a>
</g>
</g>
<!-- Node13&#45;&gt;Node14 -->
<g id="edge13" class="edge">
<title>Node13&#45;&gt;Node14</title>
<path fill="none" stroke="midnightblue" d="M246.77,-247C265.48,-247 287.38,-247 307.16,-247"/>
<polygon fill="midnightblue" stroke="midnightblue" points="307.28,-250.5 317.28,-247 307.28,-243.5 307.28,-250.5"/>
</g>
<!-- Node15 -->
<g id="node15" class="node">
<title>Node15</title>
<g id="a_node15"><a xlink:href="profiling_8cpp.html#ab43df9ddabf19beb65958fe84cac89b5" target="_top" xlink:title=" ">
<polygon fill="none" stroke="black" points="328,-275.5 328,-294.5 402,-294.5 402,-275.5 328,-275.5"/>
<text text-anchor="middle" x="365" y="-282.5" font-family="Helvetica,sans-Serif" font-size="10.00">cycles_to_us</text>
</a>
</g>
</g>
<!-- Node13&#45;&gt;Node15 -->
<g id="edge14" class="edge">
<title>Node13&#45;&gt;Node15</title>
<path fill="none" stroke="midnightblue" d="M242.51,-256.59C265.54,-261.98 294.35,-268.71 318.13,-274.27"/>
<polygon fill="midnightblue" stroke="midnightblue" points="317.45,-277.71 327.99,-276.58 319.05,-270.89 317.45,-277.71"/>
</g>
<!-- Node17 -->
<g id="node17" class="node">
<title>Node17</title>
<g id="a_node17"><a xlink:href="i2s_8cpp.html#a0826d7a742c16e16a62704cc59fd4ba2" target="_top" xlink:title=" ">
<polygon fill="none" stroke="black" points="332.5,-161.5 332.5,-180.5 397.5,-180.5 397.5,-161.5 332.5,-161.5"/>
<text text-anchor="middle" x="365" y="-168.5" font-family="Helvetica,sans-Serif" font-size="10.00">event_task</text>
</a>
</g>
</g>
<!-- Node16&#45;&gt;Node17 -->
<g id="edge16" class="edge">
<title>Node16&#45;&gt;Node17</title>
<path fill="none" stroke="midnightblue" d="M230.18,-202.29C255.77,-196.31 293.56,-187.47 322.46,-180.71"/>
<polygon fill="midnightblue" stroke="midnightblue" points="323.33,-184.1 332.28,-178.42 321.74,-177.29 323.33,-184.1"/>
</g>
<!-- Node18 -->
<g id="node18" class="node">
<title>Node18</title>
<g id="a_node18"><a xlink:href="i2s_8cpp.html#a4e37f563a34c1a559515cc40782caf07" target="_top" xlink:title=" ">
<polygon fill="none" stroke="black" points="312,-199.5 312,-218.5 418,-218.5 418,-199.5 312,-199.5"/>
<text text-anchor="middle" x="365" y="-206.5" font-family="Helvetica,sans-Serif" font-size="10.00">i2s_processing_task</text>
</a>
</g>
</g>
<!-- Node16&#45;&gt;Node18 -->
<g id="edge17" class="edge">
<title>Node16&#45;&gt;Node18</title>
<path fill="none" stroke="midnightblue" d="M230.18,-209C250.04,-209 277.24,-209 301.94,-209"/>
<polygon fill="midnightblue" stroke="midnightblue" points="301.98,-212.5 311.98,-209 301.98,-205.5 301.98,-212.5"/>
</g>
<!-- Node19 -->
<g id="node19" class="node">
<title>Node19</title>
<g id="a_node19"><a xlink:href="float__convert_8h.html#ae9b18f6b920e3401ec41278b57e6817b" target="_top" xlink:title=" ">
<polygon fill="none" stroke="black" points="666.5,-0.5 666.5,-19.5 740.5,-19.5 740.5,-0.5 666.5,-0.5"/>
<text text-anchor="middle" x="703.5" y="-7.5" font-family="Helvetica,sans-Serif" font-size="10.00">float_to_int32</text>
</a>
</g>
</g>
<!-- Node18&#45;&gt;Node19 -->
<g id="edge18" class="edge">
<title>Node18&#45;&gt;Node19</title>
<path fill="none" stroke="midnightblue" d="M400.25,-199.49C409.65,-196.66 419.78,-193.4 429,-190 507.79,-160.93 543.01,-173.78 602,-114 630.82,-84.8 607.38,-56.31 638,-29 643.27,-24.3 649.65,-20.76 656.32,-18.1"/>
<polygon fill="midnightblue" stroke="midnightblue" points="657.83,-21.28 666.2,-14.78 655.61,-14.64 657.83,-21.28"/>
</g>
<!-- Node20 -->
<g id="node20" class="node">
<title>Node20</title>
<g id="a_node20"><a xlink:href="process_8cpp.html#a159f752dbd8aa42d765e604910814129" target="_top" xlink:title=" ">
<polygon fill="none" stroke="black" points="499,-380.5 499,-399.5 568,-399.5 568,-380.5 499,-380.5"/>
<text text-anchor="middle" x="533.5" y="-387.5" font-family="Helvetica,sans-Serif" font-size="10.00">process_init</text>
</a>
</g>
</g>
<!-- Node18&#45;&gt;Node20 -->
<g id="edge19" class="edge">
<title>Node18&#45;&gt;Node20</title>
<path fill="none" stroke="midnightblue" d="M411.93,-218.6C418.01,-221.06 423.9,-224.14 429,-228 479.44,-266.15 511.92,-336.58 525.39,-370.6"/>
<polygon fill="midnightblue" stroke="midnightblue" points="522.25,-372.2 529.09,-380.28 528.78,-369.69 522.25,-372.2"/>
</g>
<!-- Node33 -->
<g id="node33" class="node">
<title>Node33</title>
<g id="a_node33"><a xlink:href="process_8cpp.html#a450bec865b55b9890f4050f1ab0dba5c" target="_top" xlink:title=" ">
<polygon fill="none" stroke="black" points="487,-193.5 487,-212.5 580,-212.5 580,-193.5 487,-193.5"/>
<text text-anchor="middle" x="533.5" y="-200.5" font-family="Helvetica,sans-Serif" font-size="10.00">process_samples</text>
</a>
</g>
</g>
<!-- Node18&#45;&gt;Node33 -->
<g id="edge32" class="edge">
<title>Node18&#45;&gt;Node33</title>
<path fill="none" stroke="midnightblue" d="M418.22,-207.12C436.81,-206.45 457.81,-205.69 476.69,-205.01"/>
<polygon fill="midnightblue" stroke="midnightblue" points="477.06,-208.5 486.93,-204.64 476.81,-201.5 477.06,-208.5"/>
</g>
<!-- Node21 -->
<g id="node21" class="node">
<title>Node21</title>
<g id="a_node21"><a xlink:href="noise__gate_8cpp.html#a949bfebe851dee44040d83bbd068dad1" target="_top" xlink:title="Initialise the effect.">
<polygon fill="none" stroke="black" points="677,-554.5 677,-573.5 730,-573.5 730,-554.5 677,-554.5"/>
<text text-anchor="middle" x="703.5" y="-561.5" font-family="Helvetica,sans-Serif" font-size="10.00">gate_init</text>
</a>
</g>
</g>
<!-- Node20&#45;&gt;Node21 -->
<g id="edge20" class="edge">
<title>Node20&#45;&gt;Node21</title>
<path fill="none" stroke="midnightblue" d="M538.18,-399.7C549.01,-426.97 583.53,-504.93 638,-545 646.46,-551.23 656.95,-555.42 666.99,-558.25"/>
<polygon fill="midnightblue" stroke="midnightblue" points="666.24,-561.67 676.78,-560.64 667.9,-554.87 666.24,-561.67"/>
</g>
<!-- Node23 -->
<g id="node23" class="node">
<title>Node23</title>
<g id="a_node23"><a xlink:href="noise__gate_8cpp.html#a4868a6f017c846668c1b09d32b833099" target="_top" xlink:title="Set the attack time in milliseconds.">
<polygon fill="none" stroke="black" points="660.5,-304.5 660.5,-323.5 746.5,-323.5 746.5,-304.5 660.5,-304.5"/>
<text text-anchor="middle" x="703.5" y="-311.5" font-family="Helvetica,sans-Serif" font-size="10.00">gate_set_attack</text>
</a>
</g>
</g>
<!-- Node20&#45;&gt;Node23 -->
<g id="edge22" class="edge">
<title>Node20&#45;&gt;Node23</title>
<path fill="none" stroke="midnightblue" d="M549.41,-380.43C569.08,-368.13 605.05,-346.73 638,-333 643.45,-330.73 649.27,-328.61 655.1,-326.68"/>
<polygon fill="midnightblue" stroke="midnightblue" points="656.36,-329.95 664.84,-323.6 654.25,-323.27 656.36,-329.95"/>
</g>
<!-- Node24 -->
<g id="node24" class="node">
<title>Node24</title>
<g id="a_node24"><a xlink:href="noise__gate_8cpp.html#a184d915d5eb18d4743c6e3008bb47e62" target="_top" xlink:title="Set the buffer size in number of samples.">
<polygon fill="none" stroke="black" points="650.5,-516.5 650.5,-535.5 756.5,-535.5 756.5,-516.5 650.5,-516.5"/>
<text text-anchor="middle" x="703.5" y="-523.5" font-family="Helvetica,sans-Serif" font-size="10.00">gate_set_buffer_size</text>
</a>
</g>
</g>
<!-- Node20&#45;&gt;Node24 -->
<g id="edge23" class="edge">
<title>Node20&#45;&gt;Node24</title>
<path fill="none" stroke="midnightblue" d="M540.41,-399.83C554.43,-422.3 592.01,-477.74 638,-507 641.34,-509.12 644.93,-511.02 648.64,-512.71"/>
<polygon fill="midnightblue" stroke="midnightblue" points="647.46,-516.01 658.04,-516.5 650.07,-509.51 647.46,-516.01"/>
</g>
<!-- Node25 -->
<g id="node25" class="node">
<title>Node25</title>
<g id="a_node25"><a xlink:href="noise__gate_8cpp.html#a4fccad713cee272e388c9c45fc97037e" target="_top" xlink:title="Set the hold time in milliseconds.">
<polygon fill="none" stroke="black" points="665,-266.5 665,-285.5 742,-285.5 742,-266.5 665,-266.5"/>
<text text-anchor="middle" x="703.5" y="-273.5" font-family="Helvetica,sans-Serif" font-size="10.00">gate_set_hold</text>
</a>
</g>
</g>
<!-- Node20&#45;&gt;Node25 -->
<g id="edge24" class="edge">
<title>Node20&#45;&gt;Node25</title>
<path fill="none" stroke="midnightblue" d="M542.28,-380.38C558.22,-361.28 596.6,-318.41 638,-295 643.27,-292.02 649.06,-289.47 654.93,-287.29"/>
<polygon fill="midnightblue" stroke="midnightblue" points="656.46,-290.47 664.83,-283.97 654.23,-283.83 656.46,-290.47"/>
</g>
<!-- Node26 -->
<g id="node26" class="node">
<title>Node26</title>
<g id="a_node26"><a xlink:href="noise__gate_8cpp.html#abe525a07b8cb6f0557740cc4100428a9" target="_top" xlink:title="Set the release time in milliseconds.">
<polygon fill="none" stroke="black" points="658,-380.5 658,-399.5 749,-399.5 749,-380.5 658,-380.5"/>
<text text-anchor="middle" x="703.5" y="-387.5" font-family="Helvetica,sans-Serif" font-size="10.00">gate_set_release</text>
</a>
</g>
</g>
<!-- Node20&#45;&gt;Node26 -->
<g id="edge25" class="edge">
<title>Node20&#45;&gt;Node26</title>
<path fill="none" stroke="midnightblue" d="M568.09,-390C590.83,-390 621.39,-390 647.63,-390"/>
<polygon fill="midnightblue" stroke="midnightblue" points="647.82,-393.5 657.82,-390 647.82,-386.5 647.82,-393.5"/>
</g>
<!-- Node27 -->
<g id="node27" class="node">
<title>Node27</title>
<g id="a_node27"><a xlink:href="noise__gate_8cpp.html#a2691256497a1cec4e14434f48eccfb56" target="_top" xlink:title="Set the sample rate in Hz.">
<polygon fill="none" stroke="black" points="647,-478.5 647,-497.5 760,-497.5 760,-478.5 647,-478.5"/>
<text text-anchor="middle" x="703.5" y="-485.5" font-family="Helvetica,sans-Serif" font-size="10.00">gate_set_sample_rate</text>
</a>
</g>
</g>
<!-- Node20&#45;&gt;Node27 -->
<g id="edge26" class="edge">
<title>Node20&#45;&gt;Node27</title>
<path fill="none" stroke="midnightblue" d="M544.51,-399.69C562.05,-416.19 600.1,-449.78 638,-469 642.5,-471.28 647.33,-473.34 652.24,-475.18"/>
<polygon fill="midnightblue" stroke="midnightblue" points="651.12,-478.49 661.71,-478.45 653.4,-471.88 651.12,-478.49"/>
</g>
<!-- Node30 -->
<g id="node30" class="node">
<title>Node30</title>
<g id="a_node30"><a xlink:href="noise__gate_8cpp.html#a82e62ed410acc03c8179d8245de13e12" target="_top" xlink:title="Set the threshold and hysteresis value in dBFS.">
<polygon fill="none" stroke="black" points="654,-342.5 654,-361.5 753,-361.5 753,-342.5 654,-342.5"/>
<text text-anchor="middle" x="703.5" y="-349.5" font-family="Helvetica,sans-Serif" font-size="10.00">gate_set_threshold</text>
</a>
</g>
</g>
<!-- Node20&#45;&gt;Node30 -->
<g id="edge29" class="edge">
<title>Node20&#45;&gt;Node30</title>
<path fill="none" stroke="midnightblue" d="M568.09,-382.4C591.61,-377.08 623.5,-369.87 650.31,-363.8"/>
<polygon fill="midnightblue" stroke="midnightblue" points="651.33,-367.16 660.31,-361.54 649.78,-360.34 651.33,-367.16"/>
</g>
<!-- Node32 -->
<g id="node32" class="node">
<title>Node32</title>
<g id="a_node32"><a xlink:href="classshrapnel_1_1parameters_1_1AudioParameters.html#a6350b5ab5bf4fe890bdab1e8a103d100" target="_top" xlink:title="Get denormalised value of parameter.">
<polygon fill="none" stroke="black" points="646.5,-418.5 646.5,-459.5 760.5,-459.5 760.5,-418.5 646.5,-418.5"/>
<text text-anchor="start" x="654.5" y="-447.5" font-family="Helvetica,sans-Serif" font-size="10.00">shrapnel::parameters</text>
<text text-anchor="start" x="654.5" y="-436.5" font-family="Helvetica,sans-Serif" font-size="10.00">::AudioParameters::get</text>
<text text-anchor="middle" x="703.5" y="-425.5" font-family="Helvetica,sans-Serif" font-size="10.00">_raw_parameter</text>
</a>
</g>
</g>
<!-- Node20&#45;&gt;Node32 -->
<g id="edge31" class="edge">
<title>Node20&#45;&gt;Node32</title>
<path fill="none" stroke="midnightblue" d="M567.29,-399.56C587.01,-405.32 612.83,-412.85 636.61,-419.78"/>
<polygon fill="midnightblue" stroke="midnightblue" points="635.72,-423.17 646.3,-422.61 637.68,-416.45 635.72,-423.17"/>
</g>
<!-- Node22 -->
<g id="node22" class="node">
<title>Node22</title>
<g id="a_node22"><a xlink:href="noise__gate_8cpp.html#a5d3ba76b4666ac1820b498aaf04ea22e" target="_top" xlink:title="Reset the state.">
<polygon fill="none" stroke="black" points="828,-554.5 828,-573.5 890,-573.5 890,-554.5 828,-554.5"/>
<text text-anchor="middle" x="859" y="-561.5" font-family="Helvetica,sans-Serif" font-size="10.00">gate_reset</text>
</a>
</g>
</g>
<!-- Node21&#45;&gt;Node22 -->
<g id="edge21" class="edge">
<title>Node21&#45;&gt;Node22</title>
<path fill="none" stroke="midnightblue" d="M730.19,-564C754.03,-564 789.9,-564 817.57,-564"/>
<polygon fill="midnightblue" stroke="midnightblue" points="817.74,-567.5 827.74,-564 817.74,-560.5 817.74,-567.5"/>
</g>
<!-- Node28 -->
<g id="node28" class="node">
<title>Node28</title>
<g id="a_node28"><a xlink:href="abstract__dsp__esp32_8c.html#ab721c839889c1267077f4cb3304b655d" target="_top" xlink:title=" ">
<polygon fill="none" stroke="black" points="805.5,-489 805.5,-519 912.5,-519 912.5,-489 805.5,-489"/>
<text text-anchor="start" x="813.5" y="-507" font-family="Helvetica,sans-Serif" font-size="10.00">dspal_biquad_design</text>
<text text-anchor="middle" x="859" y="-496" font-family="Helvetica,sans-Serif" font-size="10.00">_lowpass</text>
</a>
</g>
</g>
<!-- Node27&#45;&gt;Node28 -->
<g id="edge27" class="edge">
<title>Node27&#45;&gt;Node28</title>
<path fill="none" stroke="midnightblue" d="M760.35,-493.82C771.69,-495 783.68,-496.25 795.24,-497.46"/>
<polygon fill="midnightblue" stroke="midnightblue" points="794.95,-500.95 805.26,-498.5 795.68,-493.98 794.95,-500.95"/>
</g>
<!-- Node29 -->
<g id="node29" class="node">
<title>Node29</title>
<g id="a_node29"><a xlink:href="classshrapnel_1_1dsp_1_1IirFilter.html#aa09e7c1ab99d85c0fdd1c98c80636550" target="_top" xlink:title=" ">
<polygon fill="none" stroke="black" points="805,-440 805,-470 913,-470 913,-440 805,-440"/>
<text text-anchor="start" x="813" y="-458" font-family="Helvetica,sans-Serif" font-size="10.00">shrapnel::dsp::IirFilter</text>
<text text-anchor="middle" x="859" y="-447" font-family="Helvetica,sans-Serif" font-size="10.00">::set_coefficients</text>
</a>
</g>
</g>
<!-- Node27&#45;&gt;Node29 -->
<g id="edge28" class="edge">
<title>Node27&#45;&gt;Node29</title>
<path fill="none" stroke="midnightblue" d="M748.9,-478.46C763.21,-475.38 779.35,-471.91 794.75,-468.6"/>
<polygon fill="midnightblue" stroke="midnightblue" points="795.69,-471.98 804.73,-466.45 794.22,-465.13 795.69,-471.98"/>
</g>
<!-- Node31 -->
<g id="node31" class="node">
<title>Node31</title>
<g id="a_node31"><a xlink:href="noise__gate_8cpp.html#afb2354391bb81545d92334434552ab4b" target="_top" xlink:title=" ">
<polygon fill="none" stroke="black" points="826.5,-342.5 826.5,-361.5 891.5,-361.5 891.5,-342.5 826.5,-342.5"/>
<text text-anchor="middle" x="859" y="-349.5" font-family="Helvetica,sans-Serif" font-size="10.00">db_to_ratio</text>
</a>
</g>
</g>
<!-- Node30&#45;&gt;Node31 -->
<g id="edge30" class="edge">
<title>Node30&#45;&gt;Node31</title>
<path fill="none" stroke="midnightblue" d="M753.07,-352C773.32,-352 796.61,-352 816.1,-352"/>
<polygon fill="midnightblue" stroke="midnightblue" points="816.19,-355.5 826.19,-352 816.19,-348.5 816.19,-355.5"/>
</g>
<!-- Node33&#45;&gt;Node19 -->
<g id="edge34" class="edge">
<title>Node33&#45;&gt;Node19</title>
<path fill="none" stroke="midnightblue" d="M563.05,-193.47C576.68,-187.56 592.13,-178.64 602,-166 640.76,-116.39 594.14,-74.17 638,-29 643.14,-23.7 649.68,-19.86 656.61,-17.08"/>
<polygon fill="midnightblue" stroke="midnightblue" points="657.82,-20.37 666.21,-13.92 655.62,-13.73 657.82,-20.37"/>
</g>
<!-- Node33&#45;&gt;Node23 -->
<g id="edge40" class="edge">
<title>Node33&#45;&gt;Node23</title>
<path fill="none" stroke="midnightblue" d="M542.6,-212.59C558.81,-231.21 597.22,-272.37 638,-295 642.01,-297.23 646.31,-299.22 650.72,-300.99"/>
<polygon fill="midnightblue" stroke="midnightblue" points="649.87,-304.41 660.47,-304.54 652.27,-297.83 649.87,-304.41"/>
</g>
<!-- Node33&#45;&gt;Node25 -->
<g id="edge41" class="edge">
<title>Node33&#45;&gt;Node25</title>
<path fill="none" stroke="midnightblue" d="M550.52,-212.62C570.48,-224.29 605.86,-244.03 638,-257 643.75,-259.32 649.9,-261.5 656.03,-263.49"/>
<polygon fill="midnightblue" stroke="midnightblue" points="654.99,-266.84 665.58,-266.46 657.07,-260.15 654.99,-266.84"/>
</g>
<!-- Node33&#45;&gt;Node26 -->
<g id="edge42" class="edge">
<title>Node33&#45;&gt;Node26</title>
<path fill="none" stroke="midnightblue" d="M537.65,-212.68C547.5,-241.44 580.57,-327.11 638,-371 641.2,-373.44 644.7,-375.57 648.37,-377.43"/>
<polygon fill="midnightblue" stroke="midnightblue" points="647.19,-380.73 657.76,-381.5 649.98,-374.31 647.19,-380.73"/>
</g>
<!-- Node33&#45;&gt;Node30 -->
<g id="edge43" class="edge">
<title>Node33&#45;&gt;Node30</title>
<path fill="none" stroke="midnightblue" d="M539.53,-212.84C552.44,-237.1 589.18,-300.14 638,-333 640.95,-334.98 644.1,-336.76 647.38,-338.36"/>
<polygon fill="midnightblue" stroke="midnightblue" points="646.28,-341.7 656.85,-342.39 649.02,-335.26 646.28,-341.7"/>
</g>
<!-- Node34 -->
<g id="node34" class="node">
<title>Node34</title>
<g id="a_node34"><a xlink:href="process_8cpp.html#a9785ac35cd7c86538882d5311fd66bf1" target="_top" xlink:title=" ">
<polygon fill="none" stroke="black" points="661,-76.5 661,-95.5 746,-95.5 746,-76.5 661,-76.5"/>
<text text-anchor="middle" x="703.5" y="-83.5" font-family="Helvetica,sans-Serif" font-size="10.00">decibel_to_ratio</text>
</a>
</g>
</g>
<!-- Node33&#45;&gt;Node34 -->
<g id="edge33" class="edge">
<title>Node33&#45;&gt;Node34</title>
<path fill="none" stroke="midnightblue" d="M559.04,-193.43C572.84,-187.15 589.71,-177.9 602,-166 624.61,-144.1 613.17,-124.35 638,-105 642.04,-101.85 646.59,-99.22 651.36,-97.03"/>
<polygon fill="midnightblue" stroke="midnightblue" points="652.7,-100.26 660.71,-93.33 650.12,-93.75 652.7,-100.26"/>
</g>
<!-- Node35 -->
<g id="node35" class="node">
<title>Node35</title>
<g id="a_node35"><a xlink:href="noise__gate_8cpp.html#a129b18f80393706faa5a453417153a51" target="_top" xlink:title="Analyse the audio.">
<polygon fill="none" stroke="black" points="666.5,-38.5 666.5,-57.5 740.5,-57.5 740.5,-38.5 666.5,-38.5"/>
<text text-anchor="middle" x="703.5" y="-45.5" font-family="Helvetica,sans-Serif" font-size="10.00">gate_analyse</text>
</a>
</g>
</g>
<!-- Node33&#45;&gt;Node35 -->
<g id="edge35" class="edge">
<title>Node33&#45;&gt;Node35</title>
<path fill="none" stroke="midnightblue" d="M561.9,-193.37C575.56,-187.36 591.38,-178.37 602,-166 632.49,-130.47 603.88,-99.06 638,-67 643.32,-62 649.9,-58.31 656.79,-55.58"/>
<polygon fill="midnightblue" stroke="midnightblue" points="657.91,-58.9 666.3,-52.44 655.71,-52.26 657.91,-58.9"/>
</g>
<!-- Node38 -->
<g id="node38" class="node">
<title>Node38</title>
<g id="a_node38"><a xlink:href="noise__gate_8cpp.html#a3a59d391339a038f91650058680b00d6" target="_top" xlink:title="Apply the precalculated gain to the audio.">
<polygon fill="none" stroke="black" points="666,-228.5 666,-247.5 741,-247.5 741,-228.5 666,-228.5"/>
<text text-anchor="middle" x="703.5" y="-235.5" font-family="Helvetica,sans-Serif" font-size="10.00">gate_process</text>
</a>
</g>
</g>
<!-- Node33&#45;&gt;Node38 -->
<g id="edge38" class="edge">
<title>Node33&#45;&gt;Node38</title>
<path fill="none" stroke="midnightblue" d="M580.41,-212.56C603.85,-217.45 632.31,-223.38 655.86,-228.28"/>
<polygon fill="midnightblue" stroke="midnightblue" points="655.45,-231.77 665.96,-230.39 656.88,-224.92 655.45,-231.77"/>
</g>
<!-- Node40 -->
<g id="node40" class="node">
<title>Node40</title>
<g id="a_node40"><a xlink:href="profiling_8cpp.html#a3171d2be3fbf00e49982243e9869735a" target="_top" xlink:title=" ">
<polygon fill="none" stroke="black" points="650.5,-190.5 650.5,-209.5 756.5,-209.5 756.5,-190.5 650.5,-190.5"/>
<text text-anchor="middle" x="703.5" y="-197.5" font-family="Helvetica,sans-Serif" font-size="10.00">profiling_mark_stage</text>
</a>
</g>
</g>
<!-- Node33&#45;&gt;Node40 -->
<g id="edge44" class="edge">
<title>Node33&#45;&gt;Node40</title>
<path fill="none" stroke="midnightblue" d="M580.41,-202.18C598.86,-201.85 620.41,-201.47 640.24,-201.11"/>
<polygon fill="midnightblue" stroke="midnightblue" points="640.49,-204.61 650.42,-200.93 640.36,-197.61 640.49,-204.61"/>
</g>
<!-- Node41 -->
<g id="node41" class="node">
<title>Node41</title>
<g id="a_node41"><a xlink:href="profiling_8cpp.html#ac05fdc10ded37340f2ab202bbc184d20" target="_top" xlink:title=" ">
<polygon fill="none" stroke="black" points="666.5,-152.5 666.5,-171.5 740.5,-171.5 740.5,-152.5 666.5,-152.5"/>
<text text-anchor="middle" x="703.5" y="-159.5" font-family="Helvetica,sans-Serif" font-size="10.00">profiling_start</text>
</a>
</g>
</g>
<!-- Node33&#45;&gt;Node41 -->
<g id="edge45" class="edge">
<title>Node33&#45;&gt;Node41</title>
<path fill="none" stroke="midnightblue" d="M573.46,-193.49C598.2,-187.46 630.32,-179.62 656.33,-173.27"/>
<polygon fill="midnightblue" stroke="midnightblue" points="657.45,-176.6 666.33,-170.83 655.79,-169.8 657.45,-176.6"/>
</g>
<!-- Node42 -->
<g id="node42" class="node">
<title>Node42</title>
<g id="a_node42"><a xlink:href="profiling_8cpp.html#a9f4516d77db32a65ee99933c6c9d3802" target="_top" xlink:title=" ">
<polygon fill="none" stroke="black" points="666.5,-114.5 666.5,-133.5 740.5,-133.5 740.5,-114.5 666.5,-114.5"/>
<text text-anchor="middle" x="703.5" y="-121.5" font-family="Helvetica,sans-Serif" font-size="10.00">profiling_stop</text>
</a>
</g>
</g>
<!-- Node33&#45;&gt;Node42 -->
<g id="edge46" class="edge">
<title>Node33&#45;&gt;Node42</title>
<path fill="none" stroke="midnightblue" d="M552.73,-193.43C566.42,-186.15 585.56,-175.74 602,-166 618.33,-156.32 620.72,-150.87 638,-143 643.86,-140.33 650.18,-137.93 656.5,-135.81"/>
<polygon fill="midnightblue" stroke="midnightblue" points="657.88,-139.04 666.36,-132.7 655.77,-132.37 657.88,-139.04"/>
</g>
<!-- Node36 -->
<g id="node36" class="node">
<title>Node36</title>
<g id="a_node36"><a xlink:href="classshrapnel_1_1dsp_1_1IirFilter.html#a53cb5a72d2a310cd4b35d4329af682f0" target="_top" xlink:title=" ">
<polygon fill="none" stroke="black" points="805,-33 805,-63 913,-63 913,-33 805,-33"/>
<text text-anchor="start" x="813" y="-51" font-family="Helvetica,sans-Serif" font-size="10.00">shrapnel::dsp::IirFilter</text>
<text text-anchor="middle" x="859" y="-40" font-family="Helvetica,sans-Serif" font-size="10.00">::process</text>
</a>
</g>
</g>
<!-- Node35&#45;&gt;Node36 -->
<g id="edge36" class="edge">
<title>Node35&#45;&gt;Node36</title>
<path fill="none" stroke="midnightblue" d="M740.88,-48C756.96,-48 776.35,-48 794.68,-48"/>
<polygon fill="midnightblue" stroke="midnightblue" points="794.73,-51.5 804.73,-48 794.73,-44.5 794.73,-51.5"/>
</g>
<!-- Node37 -->
<g id="node37" class="node">
<title>Node37</title>
<g id="a_node37"><a xlink:href="iir__universal_8c.html#a738b77e8a79f0c754dba3af19fbd4e30" target="_top" xlink:title=" ">
<polygon fill="none" stroke="black" points="949,-38.5 949,-57.5 1013,-57.5 1013,-38.5 949,-38.5"/>
<text text-anchor="middle" x="981" y="-45.5" font-family="Helvetica,sans-Serif" font-size="10.00">iir_process</text>
</a>
</g>
</g>
<!-- Node36&#45;&gt;Node37 -->
<g id="edge37" class="edge">
<title>Node36&#45;&gt;Node37</title>
<path fill="none" stroke="midnightblue" d="M913.33,-48C921.87,-48 930.59,-48 938.79,-48"/>
<polygon fill="midnightblue" stroke="midnightblue" points="938.85,-51.5 948.85,-48 938.85,-44.5 938.85,-51.5"/>
</g>
<!-- Node39 -->
<g id="node39" class="node">
<title>Node39</title>
<g id="a_node39"><a xlink:href="abstract__dsp__esp32_8c.html#a52d208742d325a0cdb7225bd9fe0e902" target="_top" xlink:title=" ">
<polygon fill="none" stroke="black" points="820,-228.5 820,-247.5 898,-247.5 898,-228.5 820,-228.5"/>
<text text-anchor="middle" x="859" y="-235.5" font-family="Helvetica,sans-Serif" font-size="10.00">dspal_multiply</text>
</a>
</g>
</g>
<!-- Node38&#45;&gt;Node39 -->
<g id="edge39" class="edge">
<title>Node38&#45;&gt;Node39</title>
<path fill="none" stroke="midnightblue" d="M741.27,-238C761.79,-238 787.6,-238 809.73,-238"/>
<polygon fill="midnightblue" stroke="midnightblue" points="809.93,-241.5 819.93,-238 809.93,-234.5 809.93,-241.5"/>
</g>
<!-- Node45 -->
<g id="node45" class="node">
<title>Node45</title>
<g id="a_node45"><a xlink:href="pcm3060_8c.html#aea1e9d4122342b16a072fc515ed9c4a2" target="_top" xlink:title=" ">
<polygon fill="none" stroke="black" points="334.5,-85.5 334.5,-104.5 395.5,-104.5 395.5,-85.5 334.5,-85.5"/>
<text text-anchor="middle" x="365" y="-92.5" font-family="Helvetica,sans-Serif" font-size="10.00">_i2c_write</text>
</a>
</g>
</g>
<!-- Node44&#45;&gt;Node45 -->
<g id="edge49" class="edge">
<title>Node44&#45;&gt;Node45</title>
<path fill="none" stroke="midnightblue" d="M242.51,-123.41C267.63,-117.54 299.62,-110.06 324.46,-104.25"/>
<polygon fill="midnightblue" stroke="midnightblue" points="325.35,-107.63 334.29,-101.95 323.76,-100.82 325.35,-107.63"/>
</g>
<!-- Node47 -->
<g id="node47" class="node">
<title>Node47</title>
<g id="a_node47"><a xlink:href="pcm3060_8c.html#a7a286e614c8a6c8e30f9408395cbd4cc" target="_top" xlink:title=" ">
<polygon fill="none" stroke="black" points="334,-123.5 334,-142.5 396,-142.5 396,-123.5 334,-123.5"/>
<text text-anchor="middle" x="365" y="-130.5" font-family="Helvetica,sans-Serif" font-size="10.00">_initialised</text>
</a>
</g>
</g>
<!-- Node44&#45;&gt;Node47 -->
<g id="edge51" class="edge">
<title>Node44&#45;&gt;Node47</title>
<path fill="none" stroke="midnightblue" d="M252.92,-133C275.77,-133 302.28,-133 323.67,-133"/>
<polygon fill="midnightblue" stroke="midnightblue" points="323.72,-136.5 333.72,-133 323.72,-129.5 323.72,-136.5"/>
</g>
<!-- Node46 -->
<g id="node46" class="node">
<title>Node46</title>
<g id="a_node46"><a xlink:href="i2c_8c.html#a45e8e37789f0b27a7fe24b58795787f7" target="_top" xlink:title=" ">
<polygon fill="none" stroke="black" points="494,-85.5 494,-104.5 573,-104.5 573,-85.5 494,-85.5"/>
<text text-anchor="middle" x="533.5" y="-92.5" font-family="Helvetica,sans-Serif" font-size="10.00">i2c_write_byte</text>
</a>
</g>
</g>
<!-- Node45&#45;&gt;Node46 -->
<g id="edge50" class="edge">
<title>Node45&#45;&gt;Node46</title>
<path fill="none" stroke="midnightblue" d="M395.77,-95C420.18,-95 455.22,-95 483.72,-95"/>
<polygon fill="midnightblue" stroke="midnightblue" points="483.89,-98.5 493.89,-95 483.89,-91.5 483.89,-98.5"/>
</g>
</g>
</svg>
