<?xml version="1.0" encoding="UTF-8" standalone="no"?>
<!DOCTYPE svg PUBLIC "-//W3C//DTD SVG 1.1//EN"
 "http://www.w3.org/Graphics/SVG/1.1/DTD/svg11.dtd">
<!-- Generated by graphviz version 3.0.0 (20221109.1736)
 -->
<!-- Title: shrapnel::app_main Pages: 1 -->
<svg width="522pt" height="591pt"
 viewBox="0.00 0.00 522.00 590.50" xmlns="http://www.w3.org/2000/svg" xmlns:xlink="http://www.w3.org/1999/xlink">
<g id="graph0" class="graph" transform="scale(1 1) rotate(0) translate(4 586.5)">
<title>shrapnel::app_main</title>
<!-- Node1 -->
<g id="node1" class="node">
<title>Node1</title>
<g id="a_node1"><a xlink:title=" ">
<polygon fill="#bfbfbf" stroke="black" points="0,-270 0,-289 100,-289 100,-270 0,-270"/>
<text text-anchor="middle" x="50" y="-277" font-family="Helvetica,sans-Serif" font-size="10.00">shrapnel::app_main</text>
</a>
</g>
</g>
<!-- Node2 -->
<g id="node2" class="node">
<title>Node2</title>
<g id="a_node2"><a xlink:href="namespaceshrapnel.html#a4bf0b1d7c4fef2839a56059a237d1da6" target="_top" xlink:title=" ">
<polygon fill="none" stroke="black" points="136,-563 136,-582 265,-582 265,-563 136,-563"/>
<text text-anchor="middle" x="200.5" y="-570" font-family="Helvetica,sans-Serif" font-size="10.00">shrapnel::connect_handler</text>
</a>
</g>
</g>
<!-- Node1&#45;&gt;Node2 -->
<g id="edge1" class="edge">
<title>Node1&#45;&gt;Node2</title>
<path fill="none" stroke="midnightblue" d="M50.95,-289.12C51.26,-328.13 57.78,-476.06 136,-553.5 137.47,-554.96 139.05,-556.3 140.71,-557.55"/>
<polygon fill="midnightblue" stroke="midnightblue" points="139.27,-560.76 149.63,-562.95 142.89,-554.78 139.27,-560.76"/>
</g>
<!-- Node3 -->
<g id="node3" class="node">
<title>Node3</title>
<g id="a_node3"><a xlink:href="debug_8cpp.html#a17e92714f3dc502fe3bae30fd4201a57" target="_top" xlink:title=" ">
<polygon fill="none" stroke="black" points="143.5,-525 143.5,-544 257.5,-544 257.5,-525 143.5,-525"/>
<text text-anchor="middle" x="200.5" y="-532" font-family="Helvetica,sans-Serif" font-size="10.00">debug_dump_task_list</text>
</a>
</g>
</g>
<!-- Node1&#45;&gt;Node3 -->
<g id="edge2" class="edge">
<title>Node1&#45;&gt;Node3</title>
<path fill="none" stroke="midnightblue" d="M51.5,-289.24C53.89,-324.99 67.05,-450.24 136,-515.5 137.66,-517.07 139.45,-518.52 141.34,-519.84"/>
<polygon fill="midnightblue" stroke="midnightblue" points="139.71,-522.95 150.12,-524.92 143.22,-516.89 139.71,-522.95"/>
</g>
<!-- Node4 -->
<g id="node4" class="node">
<title>Node4</title>
<g id="a_node4"><a xlink:href="namespaceshrapnel.html#ae3cbca1e45f686a5790d51825e2754a2" target="_top" xlink:title=" ">
<polygon fill="none" stroke="black" points="148,-475.5 148,-505.5 253,-505.5 253,-475.5 148,-475.5"/>
<text text-anchor="start" x="156" y="-493.5" font-family="Helvetica,sans-Serif" font-size="10.00">shrapnel::disconnect</text>
<text text-anchor="middle" x="200.5" y="-482.5" font-family="Helvetica,sans-Serif" font-size="10.00">_handler</text>
</a>
</g>
</g>
<!-- Node1&#45;&gt;Node4 -->
<g id="edge3" class="edge">
<title>Node1&#45;&gt;Node4</title>
<path fill="none" stroke="midnightblue" d="M52.7,-289.16C58.53,-319.6 80.56,-414.57 136,-466.5 137.27,-467.69 138.61,-468.82 140,-469.9"/>
<polygon fill="midnightblue" stroke="midnightblue" points="138.18,-472.9 148.45,-475.5 142.05,-467.06 138.18,-472.9"/>
</g>
<!-- Node5 -->
<g id="node5" class="node">
<title>Node5</title>
<g id="a_node5"><a xlink:href="namespaceshrapnel.html#a9f01b77156c5fc53346d256b9735e6f8" target="_top" xlink:title=" ">
<polygon fill="none" stroke="black" points="147,-426.5 147,-456.5 254,-456.5 254,-426.5 147,-426.5"/>
<text text-anchor="start" x="155" y="-444.5" font-family="Helvetica,sans-Serif" font-size="10.00">shrapnel::failed_alloc</text>
<text text-anchor="middle" x="200.5" y="-433.5" font-family="Helvetica,sans-Serif" font-size="10.00">_callback</text>
</a>
</g>
</g>
<!-- Node1&#45;&gt;Node5 -->
<g id="edge4" class="edge">
<title>Node1&#45;&gt;Node5</title>
<path fill="none" stroke="midnightblue" d="M54.53,-289.27C63.94,-314 91.94,-379.74 136,-416.5 137.99,-418.16 140.1,-419.72 142.31,-421.18"/>
<polygon fill="midnightblue" stroke="midnightblue" points="140.76,-424.33 151.16,-426.36 144.29,-418.29 140.76,-424.33"/>
</g>
<!-- Node6 -->
<g id="node6" class="node">
<title>Node6</title>
<g id="a_node6"><a xlink:href="namespaceshrapnel.html#a2b47dde02734c93bbdabfd97cb23dd2a" target="_top" xlink:title=" ">
<polygon fill="none" stroke="black" points="150.5,-388 150.5,-407 250.5,-407 250.5,-388 150.5,-388"/>
<text text-anchor="middle" x="200.5" y="-395" font-family="Helvetica,sans-Serif" font-size="10.00">shrapnel::i2c_setup</text>
</a>
</g>
</g>
<!-- Node1&#45;&gt;Node6 -->
<g id="edge5" class="edge">
<title>Node1&#45;&gt;Node6</title>
<path fill="none" stroke="midnightblue" d="M56.68,-289.28C68.72,-309.13 98.76,-354.31 136,-378.5 139.18,-380.56 142.59,-382.41 146.12,-384.07"/>
<polygon fill="midnightblue" stroke="midnightblue" points="145.1,-387.43 155.68,-388 147.76,-380.96 145.1,-387.43"/>
</g>
<!-- Node7 -->
<g id="node7" class="node">
<title>Node7</title>
<g id="a_node7"><a xlink:href="namespaceshrapnel_1_1audio.html#a53d05b5ded7bb39aff7189392d0566c9" target="_top" xlink:title=" ">
<polygon fill="none" stroke="black" points="151.5,-338.5 151.5,-368.5 249.5,-368.5 249.5,-338.5 151.5,-338.5"/>
<text text-anchor="start" x="159.5" y="-356.5" font-family="Helvetica,sans-Serif" font-size="10.00">shrapnel::audio::i2s</text>
<text text-anchor="middle" x="200.5" y="-345.5" font-family="Helvetica,sans-Serif" font-size="10.00">_setup</text>
</a>
</g>
</g>
<!-- Node1&#45;&gt;Node7 -->
<g id="edge6" class="edge">
<title>Node1&#45;&gt;Node7</title>
<path fill="none" stroke="midnightblue" d="M65.63,-289.14C82.24,-299.85 110.37,-317.23 136,-329.5 139.6,-331.23 143.37,-332.92 147.18,-334.55"/>
<polygon fill="midnightblue" stroke="midnightblue" points="146.14,-337.9 156.72,-338.48 148.81,-331.43 146.14,-337.9"/>
</g>
<!-- Node10 -->
<g id="node10" class="node">
<title>Node10</title>
<g id="a_node10"><a xlink:href="namespaceshrapnel_1_1audio.html#a5e4994d9de1b430ad5473efe241521aa" target="_top" xlink:title=" ">
<polygon fill="none" stroke="black" points="151.5,-289.5 151.5,-319.5 249.5,-319.5 249.5,-289.5 151.5,-289.5"/>
<text text-anchor="start" x="159.5" y="-307.5" font-family="Helvetica,sans-Serif" font-size="10.00">shrapnel::audio::log</text>
<text text-anchor="middle" x="200.5" y="-296.5" font-family="Helvetica,sans-Serif" font-size="10.00">_i2s_event</text>
</a>
</g>
</g>
<!-- Node1&#45;&gt;Node10 -->
<g id="edge9" class="edge">
<title>Node1&#45;&gt;Node10</title>
<path fill="none" stroke="midnightblue" d="M100.04,-287.76C113.16,-289.97 127.48,-292.38 141.07,-294.66"/>
<polygon fill="midnightblue" stroke="midnightblue" points="140.83,-298.17 151.27,-296.38 141.99,-291.27 140.83,-298.17"/>
</g>
<!-- Node11 -->
<g id="node11" class="node">
<title>Node11</title>
<g id="a_node11"><a xlink:href="namespaceshrapnel.html#a9c85fa6a77cfb97394c46cf0ebe10298" target="_top" xlink:title=" ">
<polygon fill="none" stroke="black" points="148,-240.5 148,-270.5 253,-270.5 253,-240.5 148,-240.5"/>
<text text-anchor="start" x="156" y="-258.5" font-family="Helvetica,sans-Serif" font-size="10.00">shrapnel::nvs_debug</text>
<text text-anchor="middle" x="200.5" y="-247.5" font-family="Helvetica,sans-Serif" font-size="10.00">_print</text>
</a>
</g>
</g>
<!-- Node1&#45;&gt;Node11 -->
<g id="edge10" class="edge">
<title>Node1&#45;&gt;Node11</title>
<path fill="none" stroke="midnightblue" d="M100.04,-271.57C112.17,-269.61 125.32,-267.49 137.96,-265.45"/>
<polygon fill="midnightblue" stroke="midnightblue" points="138.65,-268.88 147.97,-263.83 137.54,-261.97 138.65,-268.88"/>
</g>
<!-- Node12 -->
<g id="node12" class="node">
<title>Node12</title>
<g id="a_node12"><a xlink:href="pcm3060_8c.html#ae4f3fcba29da4e434a2fb51e429c156b" target="_top" xlink:title="Initialise the driver.">
<polygon fill="none" stroke="black" points="163.5,-202 163.5,-221 237.5,-221 237.5,-202 163.5,-202"/>
<text text-anchor="middle" x="200.5" y="-209" font-family="Helvetica,sans-Serif" font-size="10.00">pcm3060_init</text>
</a>
</g>
</g>
<!-- Node1&#45;&gt;Node12 -->
<g id="edge11" class="edge">
<title>Node1&#45;&gt;Node12</title>
<path fill="none" stroke="midnightblue" d="M65.86,-269.84C82.45,-259.36 110.35,-242.64 136,-231.5 141.98,-228.9 148.42,-226.48 154.81,-224.28"/>
<polygon fill="midnightblue" stroke="midnightblue" points="156.34,-227.46 164.75,-221.01 154.15,-220.81 156.34,-227.46"/>
</g>
<!-- Node13 -->
<g id="node13" class="node">
<title>Node13</title>
<g id="a_node13"><a xlink:href="pcm3060_8c.html#a4b08ec86eb0407470554c4e5c5759521" target="_top" xlink:title="perform power up sequence">
<polygon fill="none" stroke="black" points="148.5,-164 148.5,-183 252.5,-183 252.5,-164 148.5,-164"/>
<text text-anchor="middle" x="200.5" y="-171" font-family="Helvetica,sans-Serif" font-size="10.00">pcm3060_power_up</text>
</a>
</g>
</g>
<!-- Node1&#45;&gt;Node13 -->
<g id="edge12" class="edge">
<title>Node1&#45;&gt;Node13</title>
<path fill="none" stroke="midnightblue" d="M57.78,-269.84C70.84,-251.93 101.31,-213.48 136,-192.5 139.45,-190.42 143.14,-188.55 146.94,-186.87"/>
<polygon fill="midnightblue" stroke="midnightblue" points="148.53,-190.01 156.56,-183.1 145.97,-183.49 148.53,-190.01"/>
</g>
<!-- Node17 -->
<g id="node17" class="node">
<title>Node17</title>
<g id="a_node17"><a xlink:href="desktop_2profiling_8c.html#a58ceeae747d300e67b1ecf70a9b24526" target="_top" xlink:title=" ">
<polygon fill="none" stroke="black" points="166.5,-126 166.5,-145 234.5,-145 234.5,-126 166.5,-126"/>
<text text-anchor="middle" x="200.5" y="-133" font-family="Helvetica,sans-Serif" font-size="10.00">profiling_init</text>
</a>
</g>
</g>
<!-- Node1&#45;&gt;Node17 -->
<g id="edge16" class="edge">
<title>Node1&#45;&gt;Node17</title>
<path fill="none" stroke="midnightblue" d="M54.89,-269.69C64.76,-246.13 93.02,-185.98 136,-154.5 142.06,-150.06 149.17,-146.65 156.38,-144.03"/>
<polygon fill="midnightblue" stroke="midnightblue" points="157.73,-147.28 166.21,-140.93 155.62,-140.6 157.73,-147.28"/>
</g>
<!-- Node18 -->
<g id="node18" class="node">
<title>Node18</title>
<g id="a_node18"><a xlink:href="desktop_2profiling_8c.html#aa8ff71a343036a362fc1953d5572d0ce" target="_top" xlink:title=" ">
<polygon fill="none" stroke="black" points="163.5,-88 163.5,-107 237.5,-107 237.5,-88 163.5,-88"/>
<text text-anchor="middle" x="200.5" y="-95" font-family="Helvetica,sans-Serif" font-size="10.00">profiling_task</text>
</a>
</g>
</g>
<!-- Node1&#45;&gt;Node18 -->
<g id="edge17" class="edge">
<title>Node1&#45;&gt;Node18</title>
<path fill="none" stroke="midnightblue" d="M53.24,-269.74C60.23,-241.52 84.33,-159.18 136,-116.5 141.25,-112.17 147.46,-108.82 153.9,-106.24"/>
<polygon fill="midnightblue" stroke="midnightblue" points="155.11,-109.53 163.44,-102.98 152.84,-102.9 155.11,-109.53"/>
</g>
<!-- Node19 -->
<g id="node19" class="node">
<title>Node19</title>
<g id="a_node19"><a xlink:href="namespaceshrapnel.html#a62ed101f04b8c40f7fdc427e6b169353" target="_top" xlink:title=" ">
<polygon fill="none" stroke="black" points="147,-50 147,-69 254,-69 254,-50 147,-50"/>
<text text-anchor="middle" x="200.5" y="-57" font-family="Helvetica,sans-Serif" font-size="10.00">shrapnel::start_mdns</text>
</a>
</g>
</g>
<!-- Node1&#45;&gt;Node19 -->
<g id="edge18" class="edge">
<title>Node1&#45;&gt;Node19</title>
<path fill="none" stroke="midnightblue" d="M52.17,-269.87C56.62,-237.69 75.34,-132.87 136,-78.5 137.91,-76.79 139.97,-75.23 142.14,-73.81"/>
<polygon fill="midnightblue" stroke="midnightblue" points="143.86,-76.86 150.96,-69 140.51,-70.71 143.86,-76.86"/>
</g>
<!-- Node20 -->
<g id="node20" class="node">
<title>Node20</title>
<g id="a_node20"><a xlink:href="namespaceshrapnel.html#ad3636f58faa95196bef6352b331ed3da" target="_top" xlink:title=" ">
<polygon fill="none" stroke="black" points="152,-0.5 152,-30.5 249,-30.5 249,-0.5 152,-0.5"/>
<text text-anchor="start" x="160" y="-18.5" font-family="Helvetica,sans-Serif" font-size="10.00">shrapnel::wifi_start</text>
<text text-anchor="middle" x="200.5" y="-7.5" font-family="Helvetica,sans-Serif" font-size="10.00">_handler</text>
</a>
</g>
</g>
<!-- Node1&#45;&gt;Node20 -->
<g id="edge19" class="edge">
<title>Node1&#45;&gt;Node20</title>
<path fill="none" stroke="midnightblue" d="M51.65,-269.83C54.55,-234.3 69.26,-109.51 136,-40.5 138.12,-38.3 140.46,-36.3 142.95,-34.46"/>
<polygon fill="midnightblue" stroke="midnightblue" points="145.28,-37.14 151.91,-28.87 141.58,-31.2 145.28,-37.14"/>
</g>
<!-- Node8 -->
<g id="node8" class="node">
<title>Node8</title>
<g id="a_node8"><a xlink:href="namespaceshrapnel_1_1audio.html#af73614d414adf5014704433913ee11db" target="_top" xlink:title=" ">
<polygon fill="none" stroke="black" points="301,-338.5 301,-368.5 399,-368.5 399,-338.5 301,-338.5"/>
<text text-anchor="start" x="309" y="-356.5" font-family="Helvetica,sans-Serif" font-size="10.00">shrapnel::audio::i2s</text>
<text text-anchor="middle" x="350" y="-345.5" font-family="Helvetica,sans-Serif" font-size="10.00">_processing_task</text>
</a>
</g>
</g>
<!-- Node7&#45;&gt;Node8 -->
<g id="edge7" class="edge">
<title>Node7&#45;&gt;Node8</title>
<path fill="none" stroke="midnightblue" d="M249.8,-353.5C262.85,-353.5 277.12,-353.5 290.66,-353.5"/>
<polygon fill="midnightblue" stroke="midnightblue" points="290.85,-357 300.85,-353.5 290.85,-350 290.85,-357"/>
</g>
<!-- Node9 -->
<g id="node9" class="node">
<title>Node9</title>
<g id="a_node9"><a xlink:href="float__convert_8h.html#ae9b18f6b920e3401ec41278b57e6817b" target="_top" xlink:title=" ">
<polygon fill="none" stroke="black" points="437.5,-344 437.5,-363 511.5,-363 511.5,-344 437.5,-344"/>
<text text-anchor="middle" x="474.5" y="-351" font-family="Helvetica,sans-Serif" font-size="10.00">float_to_int32</text>
</a>
</g>
</g>
<!-- Node8&#45;&gt;Node9 -->
<g id="edge8" class="edge">
<title>Node8&#45;&gt;Node9</title>
<path fill="none" stroke="midnightblue" d="M399.06,-353.5C408.32,-353.5 417.99,-353.5 427.19,-353.5"/>
<polygon fill="midnightblue" stroke="midnightblue" points="427.32,-357 437.32,-353.5 427.32,-350 427.32,-357"/>
</g>
<!-- Node14 -->
<g id="node14" class="node">
<title>Node14</title>
<g id="a_node14"><a xlink:href="pcm3060_8c.html#aea1e9d4122342b16a072fc515ed9c4a2" target="_top" xlink:title=" ">
<polygon fill="none" stroke="black" points="319.5,-183 319.5,-202 380.5,-202 380.5,-183 319.5,-183"/>
<text text-anchor="middle" x="350" y="-190" font-family="Helvetica,sans-Serif" font-size="10.00">_i2c_write</text>
</a>
</g>
</g>
<!-- Node13&#45;&gt;Node14 -->
<g id="edge13" class="edge">
<title>Node13&#45;&gt;Node14</title>
<path fill="none" stroke="midnightblue" d="M252.67,-180.09C271.14,-182.47 291.7,-185.12 309.06,-187.36"/>
<polygon fill="midnightblue" stroke="midnightblue" points="309.05,-190.88 319.41,-188.69 309.94,-183.94 309.05,-190.88"/>
</g>
<!-- Node16 -->
<g id="node16" class="node">
<title>Node16</title>
<g id="a_node16"><a xlink:href="pcm3060_8c.html#a7a286e614c8a6c8e30f9408395cbd4cc" target="_top" xlink:title=" ">
<polygon fill="none" stroke="black" points="319,-145 319,-164 381,-164 381,-145 319,-145"/>
<text text-anchor="middle" x="350" y="-152" font-family="Helvetica,sans-Serif" font-size="10.00">_initialised</text>
</a>
</g>
</g>
<!-- Node13&#45;&gt;Node16 -->
<g id="edge15" class="edge">
<title>Node13&#45;&gt;Node16</title>
<path fill="none" stroke="midnightblue" d="M252.67,-166.91C271,-164.55 291.39,-161.92 308.67,-159.69"/>
<polygon fill="midnightblue" stroke="midnightblue" points="309.52,-163.12 318.99,-158.37 308.62,-156.17 309.52,-163.12"/>
</g>
<!-- Node15 -->
<g id="node15" class="node">
<title>Node15</title>
<g id="a_node15"><a xlink:href="i2c_8c.html#a45e8e37789f0b27a7fe24b58795787f7" target="_top" xlink:title=" ">
<polygon fill="none" stroke="black" points="435,-183 435,-202 514,-202 514,-183 435,-183"/>
<text text-anchor="middle" x="474.5" y="-190" font-family="Helvetica,sans-Serif" font-size="10.00">i2c_write_byte</text>
</a>
</g>
</g>
<!-- Node14&#45;&gt;Node15 -->
<g id="edge14" class="edge">
<title>Node14&#45;&gt;Node15</title>
<path fill="none" stroke="midnightblue" d="M380.65,-192.5C393.89,-192.5 409.83,-192.5 424.74,-192.5"/>
<polygon fill="midnightblue" stroke="midnightblue" points="424.85,-196 434.85,-192.5 424.85,-189 424.85,-196"/>
</g>
</g>
</svg>
