<?xml version="1.0" encoding="UTF-8" standalone="no"?>
<!DOCTYPE svg PUBLIC "-//W3C//DTD SVG 1.1//EN"
 "http://www.w3.org/Graphics/SVG/1.1/DTD/svg11.dtd">
<!-- Generated by graphviz version 3.0.0 (20221109.1736)
 -->
<!-- Title: shrapnel::presets::deserialise_preset Pages: 1 -->
<svg width="257pt" height="66pt"
 viewBox="0.00 0.00 257.00 66.00" xmlns="http://www.w3.org/2000/svg" xmlns:xlink="http://www.w3.org/1999/xlink">
<g id="graph0" class="graph" transform="scale(1 1) rotate(0) translate(4 62)">
<title>shrapnel::presets::deserialise_preset</title>
<!-- Node1 -->
<g id="node1" class="node">
<title>Node1</title>
<g id="a_node1"><a xlink:title=" ">
<polygon fill="#bfbfbf" stroke="black" points="0,-14 0,-44 95,-44 95,-14 0,-14"/>
<text text-anchor="start" x="8" y="-32" font-family="Helvetica,sans-Serif" font-size="10.00">shrapnel::presets::</text>
<text text-anchor="middle" x="47.5" y="-21" font-family="Helvetica,sans-Serif" font-size="10.00">deserialise_preset</text>
</a>
</g>
</g>
<!-- Node2 -->
<g id="node2" class="node">
<title>Node2</title>
<g id="a_node2"><a xlink:href="presets_8pb-c_8c.html#a0eeddbe8391292d777b7bff96628c65b" target="_top" xlink:title=" ">
<polygon fill="none" stroke="black" points="131,-38.5 131,-57.5 249,-57.5 249,-38.5 131,-38.5"/>
<text text-anchor="middle" x="190" y="-45.5" font-family="Helvetica,sans-Serif" font-size="10.00">preset__free_unpacked</text>
</a>
</g>
</g>
<!-- Node1&#45;&gt;Node2 -->
<g id="edge1" class="edge">
<title>Node1&#45;&gt;Node2</title>
<path fill="none" stroke="midnightblue" d="M95.28,-35.33C103.43,-36.43 112.05,-37.59 120.64,-38.76"/>
<polygon fill="midnightblue" stroke="midnightblue" points="120.29,-42.24 130.67,-40.11 121.23,-35.3 120.29,-42.24"/>
</g>
<!-- Node3 -->
<g id="node3" class="node">
<title>Node3</title>
<g id="a_node3"><a xlink:href="presets_8pb-c_8c.html#afd9fb9b75e63f658e3fa41069bbbead3" target="_top" xlink:title=" ">
<polygon fill="none" stroke="black" points="147,-0.5 147,-19.5 233,-19.5 233,-0.5 147,-0.5"/>
<text text-anchor="middle" x="190" y="-7.5" font-family="Helvetica,sans-Serif" font-size="10.00">preset__unpack</text>
</a>
</g>
</g>
<!-- Node1&#45;&gt;Node3 -->
<g id="edge2" class="edge">
<title>Node1&#45;&gt;Node3</title>
<path fill="none" stroke="midnightblue" d="M95.28,-22.67C108.52,-20.88 123,-18.93 136.54,-17.09"/>
<polygon fill="midnightblue" stroke="midnightblue" points="137.24,-20.53 146.68,-15.72 136.3,-13.59 137.24,-20.53"/>
</g>
</g>
</svg>
