<?xml version="1.0" encoding="UTF-8" standalone="no"?>
<!DOCTYPE svg PUBLIC "-//W3C//DTD SVG 1.1//EN"
 "http://www.w3.org/Graphics/SVG/1.1/DTD/svg11.dtd">
<!-- Generated by graphviz version 3.0.0 (20221109.1736)
 -->
<!-- Title: shrapnel::midi::to_json Pages: 1 -->
<svg width="630pt" height="127pt"
 viewBox="0.00 0.00 630.00 126.50" xmlns="http://www.w3.org/2000/svg" xmlns:xlink="http://www.w3.org/1999/xlink">
<g id="graph0" class="graph" transform="scale(1 1) rotate(0) translate(4 122.5)">
<title>shrapnel::midi::to_json</title>
<!-- Node1 -->
<g id="node1" class="node">
<title>Node1</title>
<g id="a_node1"><a xlink:title=" ">
<polygon fill="#bfbfbf" stroke="black" points="510,-55 510,-74 622,-74 622,-55 510,-55"/>
<text text-anchor="middle" x="566" y="-62" font-family="Helvetica,sans-Serif" font-size="10.00">shrapnel::midi::to_json</text>
</a>
</g>
</g>
<!-- Node2 -->
<g id="node2" class="node">
<title>Node2</title>
<g id="a_node2"><a xlink:href="namespaceshrapnel.html#a9df539517dd9158cb2b42a9d9e948a73" target="_top" xlink:title=" ">
<polygon fill="none" stroke="black" points="343,-55 343,-74 474,-74 474,-55 343,-55"/>
<text text-anchor="middle" x="408.5" y="-62" font-family="Helvetica,sans-Serif" font-size="10.00">shrapnel::websocket_send</text>
</a>
</g>
</g>
<!-- Node1&#45;&gt;Node2 -->
<g id="edge1" class="edge">
<title>Node1&#45;&gt;Node2</title>
<path fill="none" stroke="midnightblue" d="M499.59,-64.5C491.17,-64.5 482.55,-64.5 474.14,-64.5"/>
<polygon fill="midnightblue" stroke="midnightblue" points="499.74,-68 509.74,-64.5 499.74,-61 499.74,-68"/>
</g>
<!-- Node3 -->
<g id="node3" class="node">
<title>Node3</title>
<g id="a_node3"><a xlink:href="main_8cpp.html#a1a66099a9e1054494d0704363a5c8666" target="_top" xlink:title=" ">
<polygon fill="none" stroke="black" points="170,-55 170,-74 307,-74 307,-55 170,-55"/>
<text text-anchor="middle" x="238.5" y="-62" font-family="Helvetica,sans-Serif" font-size="10.00">audio_event_send_callback</text>
</a>
</g>
</g>
<!-- Node2&#45;&gt;Node3 -->
<g id="edge2" class="edge">
<title>Node2&#45;&gt;Node3</title>
<path fill="none" stroke="midnightblue" d="M332.35,-64.5C323.93,-64.5 315.38,-64.5 307.06,-64.5"/>
<polygon fill="midnightblue" stroke="midnightblue" points="332.55,-68 342.55,-64.5 332.55,-61 332.55,-68"/>
</g>
<!-- Node4 -->
<g id="node4" class="node">
<title>Node4</title>
<g id="a_node4"><a xlink:href="namespaceshrapnel.html#a9f09f4ea750643310af9143a53735b7d" target="_top" xlink:title=" ">
<polygon fill="none" stroke="black" points="17,-99 17,-118 117,-118 117,-99 17,-99"/>
<text text-anchor="middle" x="67" y="-106" font-family="Helvetica,sans-Serif" font-size="10.00">shrapnel::app_main</text>
</a>
</g>
</g>
<!-- Node3&#45;&gt;Node4 -->
<g id="edge3" class="edge">
<title>Node3&#45;&gt;Node4</title>
<path fill="none" stroke="midnightblue" d="M191.03,-76.56C163.85,-83.62 130.01,-92.4 104.71,-98.97"/>
<polygon fill="midnightblue" stroke="midnightblue" points="191.92,-79.95 200.72,-74.05 190.16,-73.17 191.92,-79.95"/>
</g>
<!-- Node5 -->
<g id="node5" class="node">
<title>Node5</title>
<g id="a_node5"><a xlink:href="classshrapnel_1_1EventSend.html#a217c3cc44e378465c057d93695c03f05" target="_top" xlink:title=" ">
<polygon fill="none" stroke="black" points="14.5,-49.5 14.5,-79.5 119.5,-79.5 119.5,-49.5 14.5,-49.5"/>
<text text-anchor="start" x="22.5" y="-67.5" font-family="Helvetica,sans-Serif" font-size="10.00">shrapnel::EventSend</text>
<text text-anchor="middle" x="67" y="-56.5" font-family="Helvetica,sans-Serif" font-size="10.00">::send</text>
</a>
</g>
</g>
<!-- Node3&#45;&gt;Node5 -->
<g id="edge4" class="edge">
<title>Node3&#45;&gt;Node5</title>
<path fill="none" stroke="midnightblue" d="M159.29,-64.5C145.8,-64.5 132.09,-64.5 119.54,-64.5"/>
<polygon fill="midnightblue" stroke="midnightblue" points="159.53,-68 169.53,-64.5 159.53,-61 159.53,-68"/>
</g>
<!-- Node6 -->
<g id="node6" class="node">
<title>Node6</title>
<g id="a_node6"><a xlink:href="classshrapnel_1_1ParameterUpdateNotifier.html#a967cc4697c8d692d1c91d8295d8c1012" target="_top" xlink:title=" ">
<polygon fill="none" stroke="black" points="0,-0.5 0,-30.5 134,-30.5 134,-0.5 0,-0.5"/>
<text text-anchor="start" x="8" y="-18.5" font-family="Helvetica,sans-Serif" font-size="10.00">shrapnel::ParameterUpdate</text>
<text text-anchor="middle" x="67" y="-7.5" font-family="Helvetica,sans-Serif" font-size="10.00">Notifier::update</text>
</a>
</g>
</g>
<!-- Node3&#45;&gt;Node6 -->
<g id="edge5" class="edge">
<title>Node3&#45;&gt;Node6</title>
<path fill="none" stroke="midnightblue" d="M194.72,-52.13C172.03,-45.57 143.96,-37.46 120.02,-30.54"/>
<polygon fill="midnightblue" stroke="midnightblue" points="193.84,-55.52 204.42,-54.94 195.78,-48.8 193.84,-55.52"/>
</g>
</g>
</svg>
