<?xml version="1.0" encoding="UTF-8" standalone="no"?>
<!DOCTYPE svg PUBLIC "-//W3C//DTD SVG 1.1//EN"
 "http://www.w3.org/Graphics/SVG/1.1/DTD/svg11.dtd">
<!-- Generated by graphviz version 3.0.0 (20221109.1736)
 -->
<!-- Title: shrapnel::app_main Pages: 1 -->
<svg width="989pt" height="734pt"
 viewBox="0.00 0.00 989.00 733.50" xmlns="http://www.w3.org/2000/svg" xmlns:xlink="http://www.w3.org/1999/xlink">
<g id="graph0" class="graph" transform="scale(1 1) rotate(0) translate(4 729.5)">
<title>shrapnel::app_main</title>
<!-- Node1 -->
<g id="node1" class="node">
<title>Node1</title>
<g id="a_node1"><a xlink:title=" ">
<polygon fill="#bfbfbf" stroke="black" points="0,-359 0,-378 100,-378 100,-359 0,-359"/>
<text text-anchor="middle" x="50" y="-366" font-family="Helvetica,sans-Serif" font-size="10.00">shrapnel::app_main</text>
</a>
</g>
</g>
<!-- Node2 -->
<g id="node2" class="node">
<title>Node2</title>
<g id="a_node2"><a xlink:href="main_8cpp.html#a1a66099a9e1054494d0704363a5c8666" target="_top" xlink:title=" ">
<polygon fill="none" stroke="black" points="136,-706 136,-725 273,-725 273,-706 136,-706"/>
<text text-anchor="middle" x="204.5" y="-713" font-family="Helvetica,sans-Serif" font-size="10.00">audio_event_send_callback</text>
</a>
</g>
</g>
<!-- Node1&#45;&gt;Node2 -->
<g id="edge1" class="edge">
<title>Node1&#45;&gt;Node2</title>
<path fill="none" stroke="midnightblue" d="M52.19,-378.01C58.45,-426.82 89.18,-648.69 136,-696.5 137.41,-697.94 138.91,-699.26 140.5,-700.49"/>
<polygon fill="midnightblue" stroke="midnightblue" points="138.68,-703.49 149.01,-705.86 142.42,-697.57 138.68,-703.49"/>
</g>
<!-- Node5 -->
<g id="node5" class="node">
<title>Node5</title>
<g id="a_node5"><a xlink:href="namespaceshrapnel.html#a4bf0b1d7c4fef2839a56059a237d1da6" target="_top" xlink:title=" ">
<polygon fill="none" stroke="black" points="140,-668 140,-687 269,-687 269,-668 140,-668"/>
<text text-anchor="middle" x="204.5" y="-675" font-family="Helvetica,sans-Serif" font-size="10.00">shrapnel::connect_handler</text>
</a>
</g>
</g>
<!-- Node1&#45;&gt;Node5 -->
<g id="edge4" class="edge">
<title>Node1&#45;&gt;Node5</title>
<path fill="none" stroke="midnightblue" d="M50.72,-378.15C50.09,-418.66 53.2,-576.58 136,-658.5 137.46,-659.94 139.02,-661.28 140.66,-662.52"/>
<polygon fill="midnightblue" stroke="midnightblue" points="139.11,-665.67 149.46,-667.91 142.76,-659.7 139.11,-665.67"/>
</g>
<!-- Node6 -->
<g id="node6" class="node">
<title>Node6</title>
<g id="a_node6"><a xlink:href="namespaceshrapnel.html#ae3cbca1e45f686a5790d51825e2754a2" target="_top" xlink:title=" ">
<polygon fill="none" stroke="black" points="152,-618.5 152,-648.5 257,-648.5 257,-618.5 152,-618.5"/>
<text text-anchor="start" x="160" y="-636.5" font-family="Helvetica,sans-Serif" font-size="10.00">shrapnel::disconnect</text>
<text text-anchor="middle" x="204.5" y="-625.5" font-family="Helvetica,sans-Serif" font-size="10.00">_handler</text>
</a>
</g>
</g>
<!-- Node1&#45;&gt;Node6 -->
<g id="edge5" class="edge">
<title>Node1&#45;&gt;Node6</title>
<path fill="none" stroke="midnightblue" d="M51.59,-378.26C54.28,-414.09 68.35,-539.88 136,-608.5 138.14,-610.67 140.48,-612.65 142.97,-614.46"/>
<polygon fill="midnightblue" stroke="midnightblue" points="141.57,-617.71 151.91,-619.99 145.25,-611.76 141.57,-617.71"/>
</g>
<!-- Node7 -->
<g id="node7" class="node">
<title>Node7</title>
<g id="a_node7"><a xlink:href="namespaceshrapnel.html#abcae6f4d21df0182843da1ec10660604" target="_top" xlink:title=" ">
<polygon fill="none" stroke="black" points="152,-580 152,-599 257,-599 257,-580 152,-580"/>
<text text-anchor="middle" x="204.5" y="-587" font-family="Helvetica,sans-Serif" font-size="10.00">shrapnel::do_nothing</text>
</a>
</g>
</g>
<!-- Node1&#45;&gt;Node7 -->
<g id="edge6" class="edge">
<title>Node1&#45;&gt;Node7</title>
<path fill="none" stroke="midnightblue" d="M52.12,-378.22C56.41,-410.68 74.69,-516.35 136,-570.5 138.18,-572.43 140.54,-574.16 143.04,-575.72"/>
<polygon fill="midnightblue" stroke="midnightblue" points="141.44,-578.83 151.92,-580.37 144.69,-572.63 141.44,-578.83"/>
</g>
<!-- Node8 -->
<g id="node8" class="node">
<title>Node8</title>
<g id="a_node8"><a xlink:href="namespaceshrapnel.html#a9f01b77156c5fc53346d256b9735e6f8" target="_top" xlink:title=" ">
<polygon fill="none" stroke="black" points="151,-530.5 151,-560.5 258,-560.5 258,-530.5 151,-530.5"/>
<text text-anchor="start" x="159" y="-548.5" font-family="Helvetica,sans-Serif" font-size="10.00">shrapnel::failed_alloc</text>
<text text-anchor="middle" x="204.5" y="-537.5" font-family="Helvetica,sans-Serif" font-size="10.00">_callback</text>
</a>
</g>
</g>
<!-- Node1&#45;&gt;Node8 -->
<g id="edge7" class="edge">
<title>Node1&#45;&gt;Node8</title>
<path fill="none" stroke="midnightblue" d="M53.8,-378.21C61.97,-404.82 88.22,-479.61 136,-520.5 137.95,-522.17 140.03,-523.73 142.19,-525.2"/>
<polygon fill="midnightblue" stroke="midnightblue" points="140.52,-528.28 150.91,-530.35 144.09,-522.25 140.52,-528.28"/>
</g>
<!-- Node9 -->
<g id="node9" class="node">
<title>Node9</title>
<g id="a_node9"><a xlink:href="namespaceshrapnel_1_1midi.html#afd9cfe553455ee74095653576a11d835" target="_top" xlink:title=" ">
<polygon fill="none" stroke="black" points="143,-492 143,-511 266,-511 266,-492 143,-492"/>
<text text-anchor="middle" x="204.5" y="-499" font-family="Helvetica,sans-Serif" font-size="10.00">shrapnel::midi::from_json</text>
</a>
</g>
</g>
<!-- Node1&#45;&gt;Node9 -->
<g id="edge8" class="edge">
<title>Node1&#45;&gt;Node9</title>
<path fill="none" stroke="midnightblue" d="M55.42,-378.13C66.03,-400.14 95.11,-454.39 136,-482.5 138.9,-484.49 142,-486.28 145.22,-487.87"/>
<polygon fill="midnightblue" stroke="midnightblue" points="144,-491.16 154.56,-491.9 146.77,-484.73 144,-491.16"/>
</g>
<!-- Node10 -->
<g id="node10" class="node">
<title>Node10</title>
<g id="a_node10"><a xlink:href="namespaceshrapnel.html#a2b47dde02734c93bbdabfd97cb23dd2a" target="_top" xlink:title=" ">
<polygon fill="none" stroke="black" points="154.5,-454 154.5,-473 254.5,-473 254.5,-454 154.5,-454"/>
<text text-anchor="middle" x="204.5" y="-461" font-family="Helvetica,sans-Serif" font-size="10.00">shrapnel::i2c_setup</text>
</a>
</g>
</g>
<!-- Node1&#45;&gt;Node10 -->
<g id="edge9" class="edge">
<title>Node1&#45;&gt;Node10</title>
<path fill="none" stroke="midnightblue" d="M59.12,-378.21C73.15,-394.35 103.55,-426.69 136,-444.5 140.01,-446.7 144.3,-448.67 148.69,-450.42"/>
<polygon fill="midnightblue" stroke="midnightblue" points="147.84,-453.83 158.43,-453.91 150.2,-447.24 147.84,-453.83"/>
</g>
<!-- Node11 -->
<g id="node11" class="node">
<title>Node11</title>
<g id="a_node11"><a xlink:href="profiling_8cpp.html#a419c836fb596d360dbc40e678127eb90" target="_top" xlink:title=" ">
<polygon fill="none" stroke="black" points="158.5,-416 158.5,-435 250.5,-435 250.5,-416 158.5,-416"/>
<text text-anchor="middle" x="204.5" y="-423" font-family="Helvetica,sans-Serif" font-size="10.00">i2s_profiling_task</text>
</a>
</g>
</g>
<!-- Node1&#45;&gt;Node11 -->
<g id="edge10" class="edge">
<title>Node1&#45;&gt;Node11</title>
<path fill="none" stroke="midnightblue" d="M70.25,-378.08C87.26,-386.31 112.9,-398.14 136,-406.5 142.38,-408.81 149.19,-411.02 155.93,-413.05"/>
<polygon fill="midnightblue" stroke="midnightblue" points="155.12,-416.46 165.7,-415.91 157.09,-409.75 155.12,-416.46"/>
</g>
<!-- Node14 -->
<g id="node14" class="node">
<title>Node14</title>
<g id="a_node14"><a xlink:href="i2s_8cpp.html#ab949ae727fd1608d465238ba29ab2dab" target="_top" xlink:title=" ">
<polygon fill="none" stroke="black" points="175,-378 175,-397 234,-397 234,-378 175,-378"/>
<text text-anchor="middle" x="204.5" y="-385" font-family="Helvetica,sans-Serif" font-size="10.00">i2s_setup</text>
</a>
</g>
</g>
<!-- Node1&#45;&gt;Node14 -->
<g id="edge13" class="edge">
<title>Node1&#45;&gt;Node14</title>
<path fill="none" stroke="midnightblue" d="M100.09,-374.62C121.05,-377.23 145.16,-380.23 164.83,-382.68"/>
<polygon fill="midnightblue" stroke="midnightblue" points="164.6,-386.18 174.96,-383.94 165.47,-379.23 164.6,-386.18"/>
</g>
<!-- Node39 -->
<g id="node39" class="node">
<title>Node39</title>
<g id="a_node39"><a xlink:href="i2s_8cpp.html#a7bd2643748a0d4058522967eecfb1dc1" target="_top" xlink:title=" ">
<polygon fill="none" stroke="black" points="166,-340 166,-359 243,-359 243,-340 166,-340"/>
<text text-anchor="middle" x="204.5" y="-347" font-family="Helvetica,sans-Serif" font-size="10.00">log_i2s_event</text>
</a>
</g>
</g>
<!-- Node1&#45;&gt;Node39 -->
<g id="edge43" class="edge">
<title>Node1&#45;&gt;Node39</title>
<path fill="none" stroke="midnightblue" d="M100.09,-362.38C117.85,-360.17 137.87,-357.68 155.53,-355.48"/>
<polygon fill="midnightblue" stroke="midnightblue" points="156.14,-358.93 165.63,-354.22 155.27,-351.98 156.14,-358.93"/>
</g>
<!-- Node40 -->
<g id="node40" class="node">
<title>Node40</title>
<g id="a_node40"><a xlink:href="namespaceshrapnel.html#a9c85fa6a77cfb97394c46cf0ebe10298" target="_top" xlink:title=" ">
<polygon fill="none" stroke="black" points="152,-290.5 152,-320.5 257,-320.5 257,-290.5 152,-290.5"/>
<text text-anchor="start" x="160" y="-308.5" font-family="Helvetica,sans-Serif" font-size="10.00">shrapnel::nvs_debug</text>
<text text-anchor="middle" x="204.5" y="-297.5" font-family="Helvetica,sans-Serif" font-size="10.00">_print</text>
</a>
</g>
</g>
<!-- Node1&#45;&gt;Node40 -->
<g id="edge44" class="edge">
<title>Node1&#45;&gt;Node40</title>
<path fill="none" stroke="midnightblue" d="M71.45,-358.9C88.56,-350.98 113.7,-339.6 136,-330.5 141.13,-328.4 146.52,-326.28 151.91,-324.21"/>
<polygon fill="midnightblue" stroke="midnightblue" points="153.46,-327.37 161.57,-320.54 150.97,-320.82 153.46,-327.37"/>
</g>
<!-- Node41 -->
<g id="node41" class="node">
<title>Node41</title>
<g id="a_node41"><a xlink:href="pcm3060_8c.html#ae4f3fcba29da4e434a2fb51e429c156b" target="_top" xlink:title="Initialise the driver.">
<polygon fill="none" stroke="black" points="167.5,-252 167.5,-271 241.5,-271 241.5,-252 167.5,-252"/>
<text text-anchor="middle" x="204.5" y="-259" font-family="Helvetica,sans-Serif" font-size="10.00">pcm3060_init</text>
</a>
</g>
</g>
<!-- Node1&#45;&gt;Node41 -->
<g id="edge45" class="edge">
<title>Node1&#45;&gt;Node41</title>
<path fill="none" stroke="midnightblue" d="M57.52,-358.95C70.37,-340.87 100.81,-301.53 136,-280.5 142.61,-276.55 150.08,-273.39 157.58,-270.87"/>
<polygon fill="midnightblue" stroke="midnightblue" points="158.81,-274.16 167.38,-267.92 156.79,-267.45 158.81,-274.16"/>
</g>
<!-- Node42 -->
<g id="node42" class="node">
<title>Node42</title>
<g id="a_node42"><a xlink:href="pcm3060_8c.html#a4b08ec86eb0407470554c4e5c5759521" target="_top" xlink:title="perform power up sequence">
<polygon fill="none" stroke="black" points="152.5,-214 152.5,-233 256.5,-233 256.5,-214 152.5,-214"/>
<text text-anchor="middle" x="204.5" y="-221" font-family="Helvetica,sans-Serif" font-size="10.00">pcm3060_power_up</text>
</a>
</g>
</g>
<!-- Node1&#45;&gt;Node42 -->
<g id="edge46" class="edge">
<title>Node1&#45;&gt;Node42</title>
<path fill="none" stroke="midnightblue" d="M54.7,-358.92C64.3,-335.32 92.37,-274.03 136,-242.5 138.66,-240.57 141.52,-238.84 144.49,-237.29"/>
<polygon fill="midnightblue" stroke="midnightblue" points="146.02,-240.44 153.7,-233.13 143.14,-234.06 146.02,-240.44"/>
</g>
<!-- Node46 -->
<g id="node46" class="node">
<title>Node46</title>
<g id="a_node46"><a xlink:href="classshrapnel_1_1os_1_1Timer.html#a5ff1b2e05dc1558fb40ef551fc00d6a9" target="_top" xlink:title=" ">
<polygon fill="none" stroke="black" points="155.5,-164.5 155.5,-194.5 253.5,-194.5 253.5,-164.5 155.5,-164.5"/>
<text text-anchor="start" x="163.5" y="-182.5" font-family="Helvetica,sans-Serif" font-size="10.00">shrapnel::os::Timer</text>
<text text-anchor="middle" x="204.5" y="-171.5" font-family="Helvetica,sans-Serif" font-size="10.00">::start</text>
</a>
</g>
</g>
<!-- Node1&#45;&gt;Node46 -->
<g id="edge50" class="edge">
<title>Node1&#45;&gt;Node46</title>
<path fill="none" stroke="midnightblue" d="M53.36,-358.84C60.67,-330.88 85.53,-249.09 136,-204.5 139.16,-201.71 142.66,-199.22 146.36,-197"/>
<polygon fill="midnightblue" stroke="midnightblue" points="148.06,-200.06 155.27,-192.29 144.79,-193.87 148.06,-200.06"/>
</g>
<!-- Node47 -->
<g id="node47" class="node">
<title>Node47</title>
<g id="a_node47"><a xlink:href="namespaceshrapnel.html#a62ed101f04b8c40f7fdc427e6b169353" target="_top" xlink:title=" ">
<polygon fill="none" stroke="black" points="151,-126 151,-145 258,-145 258,-126 151,-126"/>
<text text-anchor="middle" x="204.5" y="-133" font-family="Helvetica,sans-Serif" font-size="10.00">shrapnel::start_mdns</text>
</a>
</g>
</g>
<!-- Node1&#45;&gt;Node47 -->
<g id="edge51" class="edge">
<title>Node1&#45;&gt;Node47</title>
<path fill="none" stroke="midnightblue" d="M51.88,-358.69C55.44,-324.92 71.86,-212.31 136,-154.5 137.76,-152.91 139.65,-151.45 141.63,-150.12"/>
<polygon fill="midnightblue" stroke="midnightblue" points="143.79,-152.92 150.83,-145 140.39,-146.8 143.79,-152.92"/>
</g>
<!-- Node48 -->
<g id="node48" class="node">
<title>Node48</title>
<g id="a_node48"><a xlink:href="namespaceshrapnel.html#a7ab448c59a74266fc5aaded062ed1961" target="_top" xlink:title=" ">
<polygon fill="none" stroke="black" points="140.5,-88 140.5,-107 268.5,-107 268.5,-88 140.5,-88"/>
<text text-anchor="middle" x="204.5" y="-95" font-family="Helvetica,sans-Serif" font-size="10.00">shrapnel::start_webserver</text>
</a>
</g>
</g>
<!-- Node1&#45;&gt;Node48 -->
<g id="edge52" class="edge">
<title>Node1&#45;&gt;Node48</title>
<path fill="none" stroke="midnightblue" d="M51.21,-358.85C52.56,-321.67 62.54,-186.31 136,-116.5 137.65,-114.93 139.42,-113.49 141.28,-112.17"/>
<polygon fill="midnightblue" stroke="midnightblue" points="143.09,-115.17 149.95,-107.09 139.55,-109.13 143.09,-115.17"/>
</g>
<!-- Node49 -->
<g id="node49" class="node">
<title>Node49</title>
<g id="a_node49"><a xlink:href="namespaceshrapnel.html#ac11c58ef0962c52aa2cbcb5885d6261a" target="_top" xlink:title=" ">
<polygon fill="none" stroke="black" points="141,-50 141,-69 268,-69 268,-50 141,-50"/>
<text text-anchor="middle" x="204.5" y="-57" font-family="Helvetica,sans-Serif" font-size="10.00">shrapnel::stop_webserver</text>
</a>
</g>
</g>
<!-- Node1&#45;&gt;Node49 -->
<g id="edge53" class="edge">
<title>Node1&#45;&gt;Node49</title>
<path fill="none" stroke="midnightblue" d="M50.72,-358.85C50.09,-318.34 53.2,-160.42 136,-78.5 137.46,-77.06 139.02,-75.72 140.66,-74.48"/>
<polygon fill="midnightblue" stroke="midnightblue" points="142.76,-77.3 149.46,-69.09 139.11,-71.33 142.76,-77.3"/>
</g>
<!-- Node50 -->
<g id="node50" class="node">
<title>Node50</title>
<g id="a_node50"><a xlink:href="namespaceshrapnel.html#ad3636f58faa95196bef6352b331ed3da" target="_top" xlink:title=" ">
<polygon fill="none" stroke="black" points="156,-0.5 156,-30.5 253,-30.5 253,-0.5 156,-0.5"/>
<text text-anchor="start" x="164" y="-18.5" font-family="Helvetica,sans-Serif" font-size="10.00">shrapnel::wifi_start</text>
<text text-anchor="middle" x="204.5" y="-7.5" font-family="Helvetica,sans-Serif" font-size="10.00">_handler</text>
</a>
</g>
</g>
<!-- Node1&#45;&gt;Node50 -->
<g id="edge54" class="edge">
<title>Node1&#45;&gt;Node50</title>
<path fill="none" stroke="midnightblue" d="M50.51,-358.99C48.84,-316.07 47.65,-138.27 136,-40.5 139.23,-36.92 143.03,-33.85 147.14,-31.22"/>
<polygon fill="midnightblue" stroke="midnightblue" points="148.84,-34.28 155.94,-26.42 145.49,-28.14 148.84,-34.28"/>
</g>
<!-- Node3 -->
<g id="node3" class="node">
<title>Node3</title>
<g id="a_node3"><a xlink:href="namespaceshrapnel.html#a9df539517dd9158cb2b42a9d9e948a73" target="_top" xlink:title=" ">
<polygon fill="none" stroke="black" points="309,-706 309,-725 440,-725 440,-706 309,-706"/>
<text text-anchor="middle" x="374.5" y="-713" font-family="Helvetica,sans-Serif" font-size="10.00">shrapnel::websocket_send</text>
</a>
</g>
</g>
<!-- Node2&#45;&gt;Node3 -->
<g id="edge2" class="edge">
<title>Node2&#45;&gt;Node3</title>
<path fill="none" stroke="midnightblue" d="M273.35,-715.5C281.7,-715.5 290.27,-715.5 298.72,-715.5"/>
<polygon fill="midnightblue" stroke="midnightblue" points="298.94,-719 308.94,-715.5 298.94,-712 298.94,-719"/>
</g>
<!-- Node4 -->
<g id="node4" class="node">
<title>Node4</title>
<g id="a_node4"><a xlink:href="namespaceshrapnel_1_1midi.html#a3ce92c675faa537c28f3f68743f0bf16" target="_top" xlink:title=" ">
<polygon fill="none" stroke="black" points="476,-706 476,-725 588,-725 588,-706 476,-706"/>
<text text-anchor="middle" x="532" y="-713" font-family="Helvetica,sans-Serif" font-size="10.00">shrapnel::midi::to_json</text>
</a>
</g>
</g>
<!-- Node3&#45;&gt;Node4 -->
<g id="edge3" class="edge">
<title>Node3&#45;&gt;Node4</title>
<path fill="none" stroke="midnightblue" d="M440.1,-715.5C448.52,-715.5 457.16,-715.5 465.59,-715.5"/>
<polygon fill="midnightblue" stroke="midnightblue" points="465.76,-719 475.76,-715.5 465.76,-712 465.76,-719"/>
</g>
<!-- Node12 -->
<g id="node12" class="node">
<title>Node12</title>
<g id="a_node12"><a xlink:href="profiling_8cpp.html#a96b462c18367729bd8d5e19d7d98a619" target="_top" xlink:title=" ">
<polygon fill="none" stroke="black" points="327,-454 327,-473 422,-473 422,-454 327,-454"/>
<text text-anchor="middle" x="374.5" y="-461" font-family="Helvetica,sans-Serif" font-size="10.00">cycles_to_percent</text>
</a>
</g>
</g>
<!-- Node11&#45;&gt;Node12 -->
<g id="edge11" class="edge">
<title>Node11&#45;&gt;Node12</title>
<path fill="none" stroke="midnightblue" d="M247.89,-435.09C270.26,-440.15 297.9,-446.4 321.55,-451.75"/>
<polygon fill="midnightblue" stroke="midnightblue" points="320.89,-455.19 331.41,-453.98 322.43,-448.36 320.89,-455.19"/>
</g>
<!-- Node13 -->
<g id="node13" class="node">
<title>Node13</title>
<g id="a_node13"><a xlink:href="profiling_8cpp.html#ab43df9ddabf19beb65958fe84cac89b5" target="_top" xlink:title=" ">
<polygon fill="none" stroke="black" points="337.5,-416 337.5,-435 411.5,-435 411.5,-416 337.5,-416"/>
<text text-anchor="middle" x="374.5" y="-423" font-family="Helvetica,sans-Serif" font-size="10.00">cycles_to_us</text>
</a>
</g>
</g>
<!-- Node11&#45;&gt;Node13 -->
<g id="edge12" class="edge">
<title>Node11&#45;&gt;Node13</title>
<path fill="none" stroke="midnightblue" d="M250.52,-425.5C274.23,-425.5 303.26,-425.5 327.16,-425.5"/>
<polygon fill="midnightblue" stroke="midnightblue" points="327.4,-429 337.4,-425.5 327.4,-422 327.4,-429"/>
</g>
<!-- Node15 -->
<g id="node15" class="node">
<title>Node15</title>
<g id="a_node15"><a xlink:href="i2s_8cpp.html#a4e37f563a34c1a559515cc40782caf07" target="_top" xlink:title=" ">
<polygon fill="none" stroke="black" points="321.5,-378 321.5,-397 427.5,-397 427.5,-378 321.5,-378"/>
<text text-anchor="middle" x="374.5" y="-385" font-family="Helvetica,sans-Serif" font-size="10.00">i2s_processing_task</text>
</a>
</g>
</g>
<!-- Node14&#45;&gt;Node15 -->
<g id="edge14" class="edge">
<title>Node14&#45;&gt;Node15</title>
<path fill="none" stroke="midnightblue" d="M234.38,-387.5C255.42,-387.5 284.71,-387.5 311,-387.5"/>
<polygon fill="midnightblue" stroke="midnightblue" points="311.28,-391 321.28,-387.5 311.28,-384 311.28,-391"/>
</g>
<!-- Node16 -->
<g id="node16" class="node">
<title>Node16</title>
<g id="a_node16"><a xlink:href="float__convert_8h.html#ae9b18f6b920e3401ec41278b57e6817b" target="_top" xlink:title=" ">
<polygon fill="none" stroke="black" points="643.5,-188 643.5,-207 717.5,-207 717.5,-188 643.5,-188"/>
<text text-anchor="middle" x="680.5" y="-195" font-family="Helvetica,sans-Serif" font-size="10.00">float_to_int32</text>
</a>
</g>
</g>
<!-- Node15&#45;&gt;Node16 -->
<g id="edge15" class="edge">
<title>Node15&#45;&gt;Node16</title>
<path fill="none" stroke="midnightblue" d="M397.05,-377.94C437.4,-359.39 525.85,-315.53 588,-261.5 607.33,-244.7 603.05,-231.23 624,-216.5 627.1,-214.32 630.47,-212.37 633.96,-210.64"/>
<polygon fill="midnightblue" stroke="midnightblue" points="635.65,-213.72 643.41,-206.52 632.85,-207.31 635.65,-213.72"/>
</g>
<!-- Node17 -->
<g id="node17" class="node">
<title>Node17</title>
<g id="a_node17"><a xlink:href="process_8cpp.html#a98369bdde76db63c92e6173d29c6dc78" target="_top" xlink:title=" ">
<polygon fill="none" stroke="black" points="497.5,-549 497.5,-568 566.5,-568 566.5,-549 497.5,-549"/>
<text text-anchor="middle" x="532" y="-556" font-family="Helvetica,sans-Serif" font-size="10.00">process_init</text>
</a>
</g>
</g>
<!-- Node15&#45;&gt;Node17 -->
<g id="edge16" class="edge">
<title>Node15&#45;&gt;Node17</title>
<path fill="none" stroke="midnightblue" d="M423.29,-397.11C429.26,-399.56 435.02,-402.64 440,-406.5 485.66,-441.86 513.3,-507.12 524.78,-539.4"/>
<polygon fill="midnightblue" stroke="midnightblue" points="521.52,-540.66 528.06,-548.99 528.14,-538.4 521.52,-540.66"/>
</g>
<!-- Node29 -->
<g id="node29" class="node">
<title>Node29</title>
<g id="a_node29"><a xlink:href="process_8cpp.html#a450bec865b55b9890f4050f1ab0dba5c" target="_top" xlink:title=" ">
<polygon fill="none" stroke="black" points="485.5,-378 485.5,-397 578.5,-397 578.5,-378 485.5,-378"/>
<text text-anchor="middle" x="532" y="-385" font-family="Helvetica,sans-Serif" font-size="10.00">process_samples</text>
</a>
</g>
</g>
<!-- Node15&#45;&gt;Node29 -->
<g id="edge28" class="edge">
<title>Node15&#45;&gt;Node29</title>
<path fill="none" stroke="midnightblue" d="M427.71,-387.5C443.06,-387.5 459.89,-387.5 475.44,-387.5"/>
<polygon fill="midnightblue" stroke="midnightblue" points="475.44,-391 485.44,-387.5 475.44,-384 475.44,-391"/>
</g>
<!-- Node18 -->
<g id="node18" class="node">
<title>Node18</title>
<g id="a_node18"><a xlink:href="noise__gate_8cpp.html#a949bfebe851dee44040d83bbd068dad1" target="_top" xlink:title="Initialise the effect.">
<polygon fill="none" stroke="black" points="654,-606 654,-625 707,-625 707,-606 654,-606"/>
<text text-anchor="middle" x="680.5" y="-613" font-family="Helvetica,sans-Serif" font-size="10.00">gate_init</text>
</a>
</g>
</g>
<!-- Node17&#45;&gt;Node18 -->
<g id="edge17" class="edge">
<title>Node17&#45;&gt;Node18</title>
<path fill="none" stroke="midnightblue" d="M554.9,-568.12C573.24,-576.06 600.15,-587.45 624,-596.5 630.53,-598.98 637.53,-601.49 644.3,-603.84"/>
<polygon fill="midnightblue" stroke="midnightblue" points="643.36,-607.22 653.96,-607.15 645.63,-600.6 643.36,-607.22"/>
</g>
<!-- Node20 -->
<g id="node20" class="node">
<title>Node20</title>
<g id="a_node20"><a xlink:href="noise__gate_8cpp.html#a4868a6f017c846668c1b09d32b833099" target="_top" xlink:title="Set the attack time in milliseconds.">
<polygon fill="none" stroke="black" points="637.5,-568 637.5,-587 723.5,-587 723.5,-568 637.5,-568"/>
<text text-anchor="middle" x="680.5" y="-575" font-family="Helvetica,sans-Serif" font-size="10.00">gate_set_attack</text>
</a>
</g>
</g>
<!-- Node17&#45;&gt;Node20 -->
<g id="edge19" class="edge">
<title>Node17&#45;&gt;Node20</title>
<path fill="none" stroke="midnightblue" d="M566.61,-562.86C584.6,-565.19 607.17,-568.12 627.38,-570.74"/>
<polygon fill="midnightblue" stroke="midnightblue" points="627.02,-574.22 637.39,-572.04 627.92,-567.28 627.02,-574.22"/>
</g>
<!-- Node21 -->
<g id="node21" class="node">
<title>Node21</title>
<g id="a_node21"><a xlink:href="noise__gate_8cpp.html#a184d915d5eb18d4743c6e3008bb47e62" target="_top" xlink:title="Set the buffer size in number of samples.">
<polygon fill="none" stroke="black" points="627.5,-682 627.5,-701 733.5,-701 733.5,-682 627.5,-682"/>
<text text-anchor="middle" x="680.5" y="-689" font-family="Helvetica,sans-Serif" font-size="10.00">gate_set_buffer_size</text>
</a>
</g>
</g>
<!-- Node17&#45;&gt;Node21 -->
<g id="edge20" class="edge">
<title>Node17&#45;&gt;Node21</title>
<path fill="none" stroke="midnightblue" d="M538.21,-568.29C550.34,-590.16 582.59,-643.34 624,-672.5 626.71,-674.41 629.62,-676.13 632.64,-677.7"/>
<polygon fill="midnightblue" stroke="midnightblue" points="631.4,-680.98 641.96,-681.92 634.29,-674.6 631.4,-680.98"/>
</g>
<!-- Node22 -->
<g id="node22" class="node">
<title>Node22</title>
<g id="a_node22"><a xlink:href="noise__gate_8cpp.html#a4fccad713cee272e388c9c45fc97037e" target="_top" xlink:title="Set the hold time in milliseconds.">
<polygon fill="none" stroke="black" points="642,-530 642,-549 719,-549 719,-530 642,-530"/>
<text text-anchor="middle" x="680.5" y="-537" font-family="Helvetica,sans-Serif" font-size="10.00">gate_set_hold</text>
</a>
</g>
</g>
<!-- Node17&#45;&gt;Node22 -->
<g id="edge21" class="edge">
<title>Node17&#45;&gt;Node22</title>
<path fill="none" stroke="midnightblue" d="M566.61,-554.14C585.92,-551.64 610.49,-548.45 631.78,-545.69"/>
<polygon fill="midnightblue" stroke="midnightblue" points="632.46,-549.13 641.92,-544.37 631.56,-542.19 632.46,-549.13"/>
</g>
<!-- Node23 -->
<g id="node23" class="node">
<title>Node23</title>
<g id="a_node23"><a xlink:href="noise__gate_8cpp.html#abe525a07b8cb6f0557740cc4100428a9" target="_top" xlink:title="Set the release time in milliseconds.">
<polygon fill="none" stroke="black" points="635,-492 635,-511 726,-511 726,-492 635,-492"/>
<text text-anchor="middle" x="680.5" y="-499" font-family="Helvetica,sans-Serif" font-size="10.00">gate_set_release</text>
</a>
</g>
</g>
<!-- Node17&#45;&gt;Node23 -->
<g id="edge22" class="edge">
<title>Node17&#45;&gt;Node23</title>
<path fill="none" stroke="midnightblue" d="M554.9,-548.88C573.24,-540.94 600.15,-529.55 624,-520.5 629.49,-518.42 635.32,-516.31 641.06,-514.29"/>
<polygon fill="midnightblue" stroke="midnightblue" points="642.26,-517.58 650.57,-511 639.97,-510.97 642.26,-517.58"/>
</g>
<!-- Node24 -->
<g id="node24" class="node">
<title>Node24</title>
<g id="a_node24"><a xlink:href="noise__gate_8cpp.html#a2691256497a1cec4e14434f48eccfb56" target="_top" xlink:title="Set the sample rate in Hz.">
<polygon fill="none" stroke="black" points="624,-644 624,-663 737,-663 737,-644 624,-644"/>
<text text-anchor="middle" x="680.5" y="-651" font-family="Helvetica,sans-Serif" font-size="10.00">gate_set_sample_rate</text>
</a>
</g>
</g>
<!-- Node17&#45;&gt;Node24 -->
<g id="edge23" class="edge">
<title>Node17&#45;&gt;Node24</title>
<path fill="none" stroke="midnightblue" d="M542.21,-568.23C557.72,-584.11 590.64,-615.72 624,-634.5 627.69,-636.58 631.65,-638.49 635.7,-640.22"/>
<polygon fill="midnightblue" stroke="midnightblue" points="634.6,-643.55 645.19,-643.95 637.16,-637.04 634.6,-643.55"/>
</g>
<!-- Node27 -->
<g id="node27" class="node">
<title>Node27</title>
<g id="a_node27"><a xlink:href="noise__gate_8cpp.html#a82e62ed410acc03c8179d8245de13e12" target="_top" xlink:title="Set the threshold and hysteresis value in dBFS.">
<polygon fill="none" stroke="black" points="631,-454 631,-473 730,-473 730,-454 631,-454"/>
<text text-anchor="middle" x="680.5" y="-461" font-family="Helvetica,sans-Serif" font-size="10.00">gate_set_threshold</text>
</a>
</g>
</g>
<!-- Node17&#45;&gt;Node27 -->
<g id="edge26" class="edge">
<title>Node17&#45;&gt;Node27</title>
<path fill="none" stroke="midnightblue" d="M542.21,-548.77C557.72,-532.89 590.64,-501.28 624,-482.5 627.69,-480.42 631.65,-478.51 635.7,-476.78"/>
<polygon fill="midnightblue" stroke="midnightblue" points="637.16,-479.96 645.19,-473.05 634.6,-473.45 637.16,-479.96"/>
</g>
<!-- Node19 -->
<g id="node19" class="node">
<title>Node19</title>
<g id="a_node19"><a xlink:href="noise__gate_8cpp.html#a5d3ba76b4666ac1820b498aaf04ea22e" target="_top" xlink:title="Reset the state.">
<polygon fill="none" stroke="black" points="796,-600 796,-619 858,-619 858,-600 796,-600"/>
<text text-anchor="middle" x="827" y="-607" font-family="Helvetica,sans-Serif" font-size="10.00">gate_reset</text>
</a>
</g>
</g>
<!-- Node18&#45;&gt;Node19 -->
<g id="edge18" class="edge">
<title>Node18&#45;&gt;Node19</title>
<path fill="none" stroke="midnightblue" d="M707,-614.44C728.79,-613.54 760.52,-612.22 785.74,-611.17"/>
<polygon fill="midnightblue" stroke="midnightblue" points="785.9,-614.67 795.75,-610.76 785.61,-607.67 785.9,-614.67"/>
</g>
<!-- Node25 -->
<g id="node25" class="node">
<title>Node25</title>
<g id="a_node25"><a xlink:href="abstract__dsp__esp32_8c.html#ab721c839889c1267077f4cb3304b655d" target="_top" xlink:title=" ">
<polygon fill="none" stroke="black" points="773.5,-687.5 773.5,-717.5 880.5,-717.5 880.5,-687.5 773.5,-687.5"/>
<text text-anchor="start" x="781.5" y="-705.5" font-family="Helvetica,sans-Serif" font-size="10.00">dspal_biquad_design</text>
<text text-anchor="middle" x="827" y="-694.5" font-family="Helvetica,sans-Serif" font-size="10.00">_lowpass</text>
</a>
</g>
</g>
<!-- Node24&#45;&gt;Node25 -->
<g id="edge24" class="edge">
<title>Node24&#45;&gt;Node25</title>
<path fill="none" stroke="midnightblue" d="M709.7,-663.06C727.44,-669.08 750.9,-677.03 772.1,-684.22"/>
<polygon fill="midnightblue" stroke="midnightblue" points="771.06,-687.57 781.66,-687.46 773.31,-680.94 771.06,-687.57"/>
</g>
<!-- Node26 -->
<g id="node26" class="node">
<title>Node26</title>
<g id="a_node26"><a xlink:href="classshrapnel_1_1dsp_1_1IirFilter.html#aa09e7c1ab99d85c0fdd1c98c80636550" target="_top" xlink:title=" ">
<polygon fill="none" stroke="black" points="773,-638.5 773,-668.5 881,-668.5 881,-638.5 773,-638.5"/>
<text text-anchor="start" x="781" y="-656.5" font-family="Helvetica,sans-Serif" font-size="10.00">shrapnel::dsp::IirFilter</text>
<text text-anchor="middle" x="827" y="-645.5" font-family="Helvetica,sans-Serif" font-size="10.00">::set_coefficients</text>
</a>
</g>
</g>
<!-- Node24&#45;&gt;Node26 -->
<g id="edge25" class="edge">
<title>Node24&#45;&gt;Node26</title>
<path fill="none" stroke="midnightblue" d="M737.37,-653.5C745.61,-653.5 754.15,-653.5 762.54,-653.5"/>
<polygon fill="midnightblue" stroke="midnightblue" points="762.65,-657 772.65,-653.5 762.65,-650 762.65,-657"/>
</g>
<!-- Node28 -->
<g id="node28" class="node">
<title>Node28</title>
<g id="a_node28"><a xlink:href="noise__gate_8cpp.html#afb2354391bb81545d92334434552ab4b" target="_top" xlink:title=" ">
<polygon fill="none" stroke="black" points="794.5,-454 794.5,-473 859.5,-473 859.5,-454 794.5,-454"/>
<text text-anchor="middle" x="827" y="-461" font-family="Helvetica,sans-Serif" font-size="10.00">db_to_ratio</text>
</a>
</g>
</g>
<!-- Node27&#45;&gt;Node28 -->
<g id="edge27" class="edge">
<title>Node27&#45;&gt;Node28</title>
<path fill="none" stroke="midnightblue" d="M730.02,-463.5C747.54,-463.5 767.15,-463.5 784.05,-463.5"/>
<polygon fill="midnightblue" stroke="midnightblue" points="784.19,-467 794.19,-463.5 784.19,-460 784.19,-467"/>
</g>
<!-- Node29&#45;&gt;Node16 -->
<g id="edge30" class="edge">
<title>Node29&#45;&gt;Node16</title>
<path fill="none" stroke="midnightblue" d="M542.77,-377.71C554.83,-365.17 575.29,-342.32 588,-319.5 611.6,-277.13 589.6,-250.68 624,-216.5 627.01,-213.51 630.5,-210.99 634.25,-208.87"/>
<polygon fill="midnightblue" stroke="midnightblue" points="635.78,-212.02 643.34,-204.6 632.8,-205.69 635.78,-212.02"/>
</g>
<!-- Node29&#45;&gt;Node20 -->
<g id="edge36" class="edge">
<title>Node29&#45;&gt;Node20</title>
<path fill="none" stroke="midnightblue" d="M535.44,-397.23C543.19,-426.15 569.99,-512.47 624,-558.5 626,-560.21 628.16,-561.76 630.43,-563.18"/>
<polygon fill="midnightblue" stroke="midnightblue" points="629.13,-566.44 639.61,-567.99 632.38,-560.24 629.13,-566.44"/>
</g>
<!-- Node29&#45;&gt;Node22 -->
<g id="edge37" class="edge">
<title>Node29&#45;&gt;Node22</title>
<path fill="none" stroke="midnightblue" d="M536.96,-397.1C547.46,-421.38 578.35,-485.78 624,-520.5 626.63,-522.5 629.49,-524.31 632.48,-525.92"/>
<polygon fill="midnightblue" stroke="midnightblue" points="631.17,-529.18 641.72,-530.25 634.14,-522.84 631.17,-529.18"/>
</g>
<!-- Node29&#45;&gt;Node23 -->
<g id="edge38" class="edge">
<title>Node29&#45;&gt;Node23</title>
<path fill="none" stroke="midnightblue" d="M539.64,-397.03C553.31,-415.96 586.47,-458.53 624,-482.5 627.15,-484.51 630.53,-486.33 634.02,-487.98"/>
<polygon fill="midnightblue" stroke="midnightblue" points="632.83,-491.28 643.4,-491.95 635.56,-484.83 632.83,-491.28"/>
</g>
<!-- Node29&#45;&gt;Node27 -->
<g id="edge39" class="edge">
<title>Node29&#45;&gt;Node27</title>
<path fill="none" stroke="midnightblue" d="M546.02,-397C563.2,-409.23 594.72,-430.55 624,-444.5 628.42,-446.61 633.14,-448.59 637.89,-450.43"/>
<polygon fill="midnightblue" stroke="midnightblue" points="637,-453.83 647.59,-453.98 639.4,-447.26 637,-453.83"/>
</g>
<!-- Node30 -->
<g id="node30" class="node">
<title>Node30</title>
<g id="a_node30"><a xlink:href="process_8cpp.html#a9785ac35cd7c86538882d5311fd66bf1" target="_top" xlink:title=" ">
<polygon fill="none" stroke="black" points="638,-340 638,-359 723,-359 723,-340 638,-340"/>
<text text-anchor="middle" x="680.5" y="-347" font-family="Helvetica,sans-Serif" font-size="10.00">decibel_to_ratio</text>
</a>
</g>
</g>
<!-- Node29&#45;&gt;Node30 -->
<g id="edge29" class="edge">
<title>Node29&#45;&gt;Node30</title>
<path fill="none" stroke="midnightblue" d="M569.97,-377.91C589.13,-372.94 612.71,-366.82 633.09,-361.54"/>
<polygon fill="midnightblue" stroke="midnightblue" points="634,-364.92 642.8,-359.02 632.24,-358.14 634,-364.92"/>
</g>
<!-- Node31 -->
<g id="node31" class="node">
<title>Node31</title>
<g id="a_node31"><a xlink:href="noise__gate_8cpp.html#a129b18f80393706faa5a453417153a51" target="_top" xlink:title="Analyse the audio.">
<polygon fill="none" stroke="black" points="643.5,-302 643.5,-321 717.5,-321 717.5,-302 643.5,-302"/>
<text text-anchor="middle" x="680.5" y="-309" font-family="Helvetica,sans-Serif" font-size="10.00">gate_analyse</text>
</a>
</g>
</g>
<!-- Node29&#45;&gt;Node31 -->
<g id="edge31" class="edge">
<title>Node29&#45;&gt;Node31</title>
<path fill="none" stroke="midnightblue" d="M546.02,-378C563.2,-365.77 594.72,-344.45 624,-330.5 628.42,-328.39 633.14,-326.41 637.89,-324.57"/>
<polygon fill="midnightblue" stroke="midnightblue" points="639.4,-327.74 647.59,-321.02 637,-321.17 639.4,-327.74"/>
</g>
<!-- Node34 -->
<g id="node34" class="node">
<title>Node34</title>
<g id="a_node34"><a xlink:href="noise__gate_8cpp.html#a3a59d391339a038f91650058680b00d6" target="_top" xlink:title="Apply the precalculated gain to the audio.">
<polygon fill="none" stroke="black" points="643,-264 643,-283 718,-283 718,-264 643,-264"/>
<text text-anchor="middle" x="680.5" y="-271" font-family="Helvetica,sans-Serif" font-size="10.00">gate_process</text>
</a>
</g>
</g>
<!-- Node29&#45;&gt;Node34 -->
<g id="edge34" class="edge">
<title>Node29&#45;&gt;Node34</title>
<path fill="none" stroke="midnightblue" d="M539.64,-377.97C553.31,-359.04 586.47,-316.47 624,-292.5 627.15,-290.49 630.53,-288.67 634.02,-287.02"/>
<polygon fill="midnightblue" stroke="midnightblue" points="635.56,-290.17 643.4,-283.05 632.83,-283.72 635.56,-290.17"/>
</g>
<!-- Node36 -->
<g id="node36" class="node">
<title>Node36</title>
<g id="a_node36"><a xlink:href="profiling_8cpp.html#a3171d2be3fbf00e49982243e9869735a" target="_top" xlink:title=" ">
<polygon fill="none" stroke="black" points="627.5,-226 627.5,-245 733.5,-245 733.5,-226 627.5,-226"/>
<text text-anchor="middle" x="680.5" y="-233" font-family="Helvetica,sans-Serif" font-size="10.00">profiling_mark_stage</text>
</a>
</g>
</g>
<!-- Node29&#45;&gt;Node36 -->
<g id="edge40" class="edge">
<title>Node29&#45;&gt;Node36</title>
<path fill="none" stroke="midnightblue" d="M541.77,-377.78C553.13,-364.95 573.24,-341.41 588,-319.5 606.45,-292.11 598.69,-275.71 624,-254.5 626.02,-252.81 628.19,-251.27 630.47,-249.86"/>
<polygon fill="midnightblue" stroke="midnightblue" points="632.41,-252.8 639.67,-245.08 629.18,-246.59 632.41,-252.8"/>
</g>
<!-- Node37 -->
<g id="node37" class="node">
<title>Node37</title>
<g id="a_node37"><a xlink:href="profiling_8cpp.html#ac05fdc10ded37340f2ab202bbc184d20" target="_top" xlink:title=" ">
<polygon fill="none" stroke="black" points="643.5,-416 643.5,-435 717.5,-435 717.5,-416 643.5,-416"/>
<text text-anchor="middle" x="680.5" y="-423" font-family="Helvetica,sans-Serif" font-size="10.00">profiling_start</text>
</a>
</g>
</g>
<!-- Node29&#45;&gt;Node37 -->
<g id="edge41" class="edge">
<title>Node29&#45;&gt;Node37</title>
<path fill="none" stroke="midnightblue" d="M569.97,-397.09C589.27,-402.1 613.07,-408.27 633.55,-413.58"/>
<polygon fill="midnightblue" stroke="midnightblue" points="632.75,-416.99 643.3,-416.11 634.5,-410.21 632.75,-416.99"/>
</g>
<!-- Node38 -->
<g id="node38" class="node">
<title>Node38</title>
<g id="a_node38"><a xlink:href="profiling_8cpp.html#a9f4516d77db32a65ee99933c6c9d3802" target="_top" xlink:title=" ">
<polygon fill="none" stroke="black" points="643.5,-378 643.5,-397 717.5,-397 717.5,-378 643.5,-378"/>
<text text-anchor="middle" x="680.5" y="-385" font-family="Helvetica,sans-Serif" font-size="10.00">profiling_stop</text>
</a>
</g>
</g>
<!-- Node29&#45;&gt;Node38 -->
<g id="edge42" class="edge">
<title>Node29&#45;&gt;Node38</title>
<path fill="none" stroke="midnightblue" d="M578.55,-387.5C595.8,-387.5 615.46,-387.5 632.81,-387.5"/>
<polygon fill="midnightblue" stroke="midnightblue" points="633.27,-391 643.27,-387.5 633.27,-384 633.27,-391"/>
</g>
<!-- Node32 -->
<g id="node32" class="node">
<title>Node32</title>
<g id="a_node32"><a xlink:href="classshrapnel_1_1dsp_1_1IirFilter.html#a53cb5a72d2a310cd4b35d4329af682f0" target="_top" xlink:title=" ">
<polygon fill="none" stroke="black" points="773,-299.5 773,-329.5 881,-329.5 881,-299.5 773,-299.5"/>
<text text-anchor="start" x="781" y="-317.5" font-family="Helvetica,sans-Serif" font-size="10.00">shrapnel::dsp::IirFilter</text>
<text text-anchor="middle" x="827" y="-306.5" font-family="Helvetica,sans-Serif" font-size="10.00">::process</text>
</a>
</g>
</g>
<!-- Node31&#45;&gt;Node32 -->
<g id="edge32" class="edge">
<title>Node31&#45;&gt;Node32</title>
<path fill="none" stroke="midnightblue" d="M717.59,-312.25C731.31,-312.53 747.36,-312.87 762.85,-313.19"/>
<polygon fill="midnightblue" stroke="midnightblue" points="762.85,-316.69 772.92,-313.4 762.99,-309.69 762.85,-316.69"/>
</g>
<!-- Node33 -->
<g id="node33" class="node">
<title>Node33</title>
<g id="a_node33"><a xlink:href="iir__universal_8c.html#a738b77e8a79f0c754dba3af19fbd4e30" target="_top" xlink:title=" ">
<polygon fill="none" stroke="black" points="917,-305 917,-324 981,-324 981,-305 917,-305"/>
<text text-anchor="middle" x="949" y="-312" font-family="Helvetica,sans-Serif" font-size="10.00">iir_process</text>
</a>
</g>
</g>
<!-- Node32&#45;&gt;Node33 -->
<g id="edge33" class="edge">
<title>Node32&#45;&gt;Node33</title>
<path fill="none" stroke="midnightblue" d="M881.33,-314.5C889.87,-314.5 898.59,-314.5 906.79,-314.5"/>
<polygon fill="midnightblue" stroke="midnightblue" points="906.85,-318 916.85,-314.5 906.85,-311 906.85,-318"/>
</g>
<!-- Node35 -->
<g id="node35" class="node">
<title>Node35</title>
<g id="a_node35"><a xlink:href="abstract__dsp__esp32_8c.html#a52d208742d325a0cdb7225bd9fe0e902" target="_top" xlink:title=" ">
<polygon fill="none" stroke="black" points="788,-261 788,-280 866,-280 866,-261 788,-261"/>
<text text-anchor="middle" x="827" y="-268" font-family="Helvetica,sans-Serif" font-size="10.00">dspal_multiply</text>
</a>
</g>
</g>
<!-- Node34&#45;&gt;Node35 -->
<g id="edge35" class="edge">
<title>Node34&#45;&gt;Node35</title>
<path fill="none" stroke="midnightblue" d="M718.34,-272.74C736.41,-272.36 758.41,-271.9 777.81,-271.5"/>
<polygon fill="midnightblue" stroke="midnightblue" points="778.04,-275 787.97,-271.29 777.9,-268 778.04,-275"/>
</g>
<!-- Node43 -->
<g id="node43" class="node">
<title>Node43</title>
<g id="a_node43"><a xlink:href="pcm3060_8c.html#aea1e9d4122342b16a072fc515ed9c4a2" target="_top" xlink:title=" ">
<polygon fill="none" stroke="black" points="344,-233 344,-252 405,-252 405,-233 344,-233"/>
<text text-anchor="middle" x="374.5" y="-240" font-family="Helvetica,sans-Serif" font-size="10.00">_i2c_write</text>
</a>
</g>
</g>
<!-- Node42&#45;&gt;Node43 -->
<g id="edge47" class="edge">
<title>Node42&#45;&gt;Node43</title>
<path fill="none" stroke="midnightblue" d="M256.82,-229.3C281.59,-232.11 310.85,-235.41 333.87,-238.02"/>
<polygon fill="midnightblue" stroke="midnightblue" points="333.64,-241.51 343.97,-239.16 334.43,-234.56 333.64,-241.51"/>
</g>
<!-- Node45 -->
<g id="node45" class="node">
<title>Node45</title>
<g id="a_node45"><a xlink:href="pcm3060_8c.html#a7a286e614c8a6c8e30f9408395cbd4cc" target="_top" xlink:title=" ">
<polygon fill="none" stroke="black" points="343.5,-195 343.5,-214 405.5,-214 405.5,-195 343.5,-195"/>
<text text-anchor="middle" x="374.5" y="-202" font-family="Helvetica,sans-Serif" font-size="10.00">_initialised</text>
</a>
</g>
</g>
<!-- Node42&#45;&gt;Node45 -->
<g id="edge49" class="edge">
<title>Node42&#45;&gt;Node45</title>
<path fill="none" stroke="midnightblue" d="M256.82,-217.7C281.42,-214.91 310.45,-211.63 333.4,-209.03"/>
<polygon fill="midnightblue" stroke="midnightblue" points="333.94,-212.5 343.48,-207.89 333.15,-205.54 333.94,-212.5"/>
</g>
<!-- Node44 -->
<g id="node44" class="node">
<title>Node44</title>
<g id="a_node44"><a xlink:href="i2c_8c.html#a45e8e37789f0b27a7fe24b58795787f7" target="_top" xlink:title=" ">
<polygon fill="none" stroke="black" points="492.5,-233 492.5,-252 571.5,-252 571.5,-233 492.5,-233"/>
<text text-anchor="middle" x="532" y="-240" font-family="Helvetica,sans-Serif" font-size="10.00">i2c_write_byte</text>
</a>
</g>
</g>
<!-- Node43&#45;&gt;Node44 -->
<g id="edge48" class="edge">
<title>Node43&#45;&gt;Node44</title>
<path fill="none" stroke="midnightblue" d="M405.11,-242.5C426.88,-242.5 456.94,-242.5 482.22,-242.5"/>
<polygon fill="midnightblue" stroke="midnightblue" points="482.37,-246 492.37,-242.5 482.37,-239 482.37,-246"/>
</g>
</g>
</svg>
