<?xml version="1.0" encoding="UTF-8" standalone="no"?>
<!DOCTYPE svg PUBLIC "-//W3C//DTD SVG 1.1//EN"
 "http://www.w3.org/Graphics/SVG/1.1/DTD/svg11.dtd">
<!-- Generated by graphviz version 3.0.0 (20221109.1736)
 -->
<!-- Title: shrapnel::app_main Pages: 1 -->
<svg width="989pt" height="608pt"
 viewBox="0.00 0.00 989.00 607.50" xmlns="http://www.w3.org/2000/svg" xmlns:xlink="http://www.w3.org/1999/xlink">
<g id="graph0" class="graph" transform="scale(1 1) rotate(0) translate(4 603.5)">
<title>shrapnel::app_main</title>
<!-- Node1 -->
<g id="node1" class="node">
<title>Node1</title>
<g id="a_node1"><a xlink:title=" ">
<polygon fill="#bfbfbf" stroke="black" points="0,-290 0,-309 100,-309 100,-290 0,-290"/>
<text text-anchor="middle" x="50" y="-297" font-family="Helvetica,sans-Serif" font-size="10.00">shrapnel::app_main</text>
</a>
</g>
</g>
<!-- Node2 -->
<g id="node2" class="node">
<title>Node2</title>
<g id="a_node2"><a xlink:href="main_8cpp.html#a1a66099a9e1054494d0704363a5c8666" target="_top" xlink:title=" ">
<polygon fill="none" stroke="black" points="136,-580 136,-599 273,-599 273,-580 136,-580"/>
<text text-anchor="middle" x="204.5" y="-587" font-family="Helvetica,sans-Serif" font-size="10.00">audio_event_send_callback</text>
</a>
</g>
</g>
<!-- Node1&#45;&gt;Node2 -->
<g id="edge1" class="edge">
<title>Node1&#45;&gt;Node2</title>
<path fill="none" stroke="midnightblue" d="M50.95,-309.05C51.27,-347.78 57.81,-494.59 136,-570.5 137.63,-572.08 139.39,-573.54 141.23,-574.87"/>
<polygon fill="midnightblue" stroke="midnightblue" points="139.48,-577.9 149.87,-579.99 143.05,-571.88 139.48,-577.9"/>
</g>
<!-- Node5 -->
<g id="node5" class="node">
<title>Node5</title>
<g id="a_node5"><a xlink:href="namespaceshrapnel.html#a4bf0b1d7c4fef2839a56059a237d1da6" target="_top" xlink:title=" ">
<polygon fill="none" stroke="black" points="140,-542 140,-561 269,-561 269,-542 140,-542"/>
<text text-anchor="middle" x="204.5" y="-549" font-family="Helvetica,sans-Serif" font-size="10.00">shrapnel::connect_handler</text>
</a>
</g>
</g>
<!-- Node1&#45;&gt;Node5 -->
<g id="edge4" class="edge">
<title>Node1&#45;&gt;Node5</title>
<path fill="none" stroke="midnightblue" d="M51.51,-309.16C53.93,-344.59 67.17,-468.67 136,-532.5 137.7,-534.08 139.53,-535.53 141.45,-536.86"/>
<polygon fill="midnightblue" stroke="midnightblue" points="139.96,-540.04 150.38,-541.97 143.43,-533.96 139.96,-540.04"/>
</g>
<!-- Node7 -->
<g id="node7" class="node">
<title>Node7</title>
<g id="a_node7"><a xlink:href="namespaceshrapnel.html#ae3cbca1e45f686a5790d51825e2754a2" target="_top" xlink:title=" ">
<polygon fill="none" stroke="black" points="152,-492.5 152,-522.5 257,-522.5 257,-492.5 152,-492.5"/>
<text text-anchor="start" x="160" y="-510.5" font-family="Helvetica,sans-Serif" font-size="10.00">shrapnel::disconnect</text>
<text text-anchor="middle" x="204.5" y="-499.5" font-family="Helvetica,sans-Serif" font-size="10.00">_handler</text>
</a>
</g>
</g>
<!-- Node1&#45;&gt;Node7 -->
<g id="edge6" class="edge">
<title>Node1&#45;&gt;Node7</title>
<path fill="none" stroke="midnightblue" d="M52.83,-309.4C58.95,-339.69 81.43,-432.13 136,-482.5 138.2,-484.53 140.57,-486.39 143.07,-488.11"/>
<polygon fill="midnightblue" stroke="midnightblue" points="141.59,-491.3 151.98,-493.4 145.17,-485.28 141.59,-491.3"/>
</g>
<!-- Node9 -->
<g id="node9" class="node">
<title>Node9</title>
<g id="a_node9"><a xlink:href="namespaceshrapnel.html#abcae6f4d21df0182843da1ec10660604" target="_top" xlink:title=" ">
<polygon fill="none" stroke="black" points="152,-454 152,-473 257,-473 257,-454 152,-454"/>
<text text-anchor="middle" x="204.5" y="-461" font-family="Helvetica,sans-Serif" font-size="10.00">shrapnel::do_nothing</text>
</a>
</g>
</g>
<!-- Node1&#45;&gt;Node9 -->
<g id="edge8" class="edge">
<title>Node1&#45;&gt;Node9</title>
<path fill="none" stroke="midnightblue" d="M53.9,-309.35C62.12,-335.56 88.19,-407.59 136,-444.5 138.35,-446.31 140.86,-447.95 143.49,-449.44"/>
<polygon fill="midnightblue" stroke="midnightblue" points="142.24,-452.72 152.77,-453.9 145.28,-446.41 142.24,-452.72"/>
</g>
<!-- Node10 -->
<g id="node10" class="node">
<title>Node10</title>
<g id="a_node10"><a xlink:href="namespaceshrapnel.html#a9f01b77156c5fc53346d256b9735e6f8" target="_top" xlink:title=" ">
<polygon fill="none" stroke="black" points="151,-404.5 151,-434.5 258,-434.5 258,-404.5 151,-404.5"/>
<text text-anchor="start" x="159" y="-422.5" font-family="Helvetica,sans-Serif" font-size="10.00">shrapnel::failed_alloc</text>
<text text-anchor="middle" x="204.5" y="-411.5" font-family="Helvetica,sans-Serif" font-size="10.00">_callback</text>
</a>
</g>
</g>
<!-- Node1&#45;&gt;Node10 -->
<g id="edge9" class="edge">
<title>Node1&#45;&gt;Node10</title>
<path fill="none" stroke="midnightblue" d="M57.3,-309.27C70,-328.24 100.51,-370.34 136,-394.5 138.88,-396.46 141.93,-398.29 145.08,-399.99"/>
<polygon fill="midnightblue" stroke="midnightblue" points="143.64,-403.19 154.16,-404.46 146.74,-396.91 143.64,-403.19"/>
</g>
<!-- Node11 -->
<g id="node11" class="node">
<title>Node11</title>
<g id="a_node11"><a xlink:href="namespaceshrapnel_1_1midi.html#afd9cfe553455ee74095653576a11d835" target="_top" xlink:title=" ">
<polygon fill="none" stroke="black" points="143,-366 143,-385 266,-385 266,-366 143,-366"/>
<text text-anchor="middle" x="204.5" y="-373" font-family="Helvetica,sans-Serif" font-size="10.00">shrapnel::midi::from_json</text>
</a>
</g>
</g>
<!-- Node1&#45;&gt;Node11 -->
<g id="edge10" class="edge">
<title>Node1&#45;&gt;Node11</title>
<path fill="none" stroke="midnightblue" d="M62.67,-309.09C78.42,-321.62 107.77,-343.47 136,-356.5 141.04,-358.83 146.43,-360.93 151.88,-362.81"/>
<polygon fill="midnightblue" stroke="midnightblue" points="151.11,-366.24 161.71,-365.96 153.25,-359.58 151.11,-366.24"/>
</g>
<!-- Node12 -->
<g id="node12" class="node">
<title>Node12</title>
<g id="a_node12"><a xlink:href="namespaceshrapnel.html#a2b47dde02734c93bbdabfd97cb23dd2a" target="_top" xlink:title=" ">
<polygon fill="none" stroke="black" points="154.5,-328 154.5,-347 254.5,-347 254.5,-328 154.5,-328"/>
<text text-anchor="middle" x="204.5" y="-335" font-family="Helvetica,sans-Serif" font-size="10.00">shrapnel::i2c_setup</text>
</a>
</g>
</g>
<!-- Node1&#45;&gt;Node12 -->
<g id="edge11" class="edge">
<title>Node1&#45;&gt;Node12</title>
<path fill="none" stroke="midnightblue" d="M89.48,-309.09C109.52,-314.08 134.2,-320.23 155.48,-325.53"/>
<polygon fill="midnightblue" stroke="midnightblue" points="154.74,-328.96 165.29,-327.98 156.44,-322.17 154.74,-328.96"/>
</g>
<!-- Node13 -->
<g id="node13" class="node">
<title>Node13</title>
<g id="a_node13"><a xlink:href="profiling_8cpp.html#a419c836fb596d360dbc40e678127eb90" target="_top" xlink:title=" ">
<polygon fill="none" stroke="black" points="158.5,-290 158.5,-309 250.5,-309 250.5,-290 158.5,-290"/>
<text text-anchor="middle" x="204.5" y="-297" font-family="Helvetica,sans-Serif" font-size="10.00">i2s_profiling_task</text>
</a>
</g>
</g>
<!-- Node1&#45;&gt;Node13 -->
<g id="edge12" class="edge">
<title>Node1&#45;&gt;Node13</title>
<path fill="none" stroke="midnightblue" d="M100.09,-299.5C115.45,-299.5 132.5,-299.5 148.25,-299.5"/>
<polygon fill="midnightblue" stroke="midnightblue" points="148.38,-303 158.38,-299.5 148.38,-296 148.38,-303"/>
</g>
<!-- Node16 -->
<g id="node16" class="node">
<title>Node16</title>
<g id="a_node16"><a xlink:href="i2s_8cpp.html#ab949ae727fd1608d465238ba29ab2dab" target="_top" xlink:title=" ">
<polygon fill="none" stroke="black" points="175,-252 175,-271 234,-271 234,-252 175,-252"/>
<text text-anchor="middle" x="204.5" y="-259" font-family="Helvetica,sans-Serif" font-size="10.00">i2s_setup</text>
</a>
</g>
</g>
<!-- Node1&#45;&gt;Node16 -->
<g id="edge15" class="edge">
<title>Node1&#45;&gt;Node16</title>
<path fill="none" stroke="midnightblue" d="M89.48,-289.91C112.54,-284.17 141.76,-276.88 164.85,-271.13"/>
<polygon fill="midnightblue" stroke="midnightblue" points="165.8,-274.5 174.66,-268.69 164.11,-267.71 165.8,-274.5"/>
</g>
<!-- Node41 -->
<g id="node41" class="node">
<title>Node41</title>
<g id="a_node41"><a xlink:href="i2s_8cpp.html#a7bd2643748a0d4058522967eecfb1dc1" target="_top" xlink:title=" ">
<polygon fill="none" stroke="black" points="166,-214 166,-233 243,-233 243,-214 166,-214"/>
<text text-anchor="middle" x="204.5" y="-221" font-family="Helvetica,sans-Serif" font-size="10.00">log_i2s_event</text>
</a>
</g>
</g>
<!-- Node1&#45;&gt;Node41 -->
<g id="edge45" class="edge">
<title>Node1&#45;&gt;Node41</title>
<path fill="none" stroke="midnightblue" d="M62.67,-289.91C78.42,-277.38 107.77,-255.53 136,-242.5 142.31,-239.59 149.17,-237.03 156.01,-234.81"/>
<polygon fill="midnightblue" stroke="midnightblue" points="157.4,-238.04 165.96,-231.8 155.37,-231.34 157.4,-238.04"/>
</g>
<!-- Node42 -->
<g id="node42" class="node">
<title>Node42</title>
<g id="a_node42"><a xlink:href="namespaceshrapnel.html#a9c85fa6a77cfb97394c46cf0ebe10298" target="_top" xlink:title=" ">
<polygon fill="none" stroke="black" points="152,-164.5 152,-194.5 257,-194.5 257,-164.5 152,-164.5"/>
<text text-anchor="start" x="160" y="-182.5" font-family="Helvetica,sans-Serif" font-size="10.00">shrapnel::nvs_debug</text>
<text text-anchor="middle" x="204.5" y="-171.5" font-family="Helvetica,sans-Serif" font-size="10.00">_print</text>
</a>
</g>
</g>
<!-- Node1&#45;&gt;Node42 -->
<g id="edge46" class="edge">
<title>Node1&#45;&gt;Node42</title>
<path fill="none" stroke="midnightblue" d="M57.3,-289.73C70,-270.76 100.51,-228.66 136,-204.5 138.88,-202.54 141.93,-200.71 145.08,-199.01"/>
<polygon fill="midnightblue" stroke="midnightblue" points="146.74,-202.09 154.16,-194.54 143.64,-195.81 146.74,-202.09"/>
</g>
<!-- Node43 -->
<g id="node43" class="node">
<title>Node43</title>
<g id="a_node43"><a xlink:href="pcm3060_8c.html#ae4f3fcba29da4e434a2fb51e429c156b" target="_top" xlink:title="Initialise the driver.">
<polygon fill="none" stroke="black" points="167.5,-126 167.5,-145 241.5,-145 241.5,-126 167.5,-126"/>
<text text-anchor="middle" x="204.5" y="-133" font-family="Helvetica,sans-Serif" font-size="10.00">pcm3060_init</text>
</a>
</g>
</g>
<!-- Node1&#45;&gt;Node43 -->
<g id="edge47" class="edge">
<title>Node1&#45;&gt;Node43</title>
<path fill="none" stroke="midnightblue" d="M53.9,-289.65C62.12,-263.44 88.19,-191.41 136,-154.5 142.3,-149.63 149.79,-146.02 157.44,-143.32"/>
<polygon fill="midnightblue" stroke="midnightblue" points="158.59,-146.63 167.15,-140.38 156.57,-139.93 158.59,-146.63"/>
</g>
<!-- Node44 -->
<g id="node44" class="node">
<title>Node44</title>
<g id="a_node44"><a xlink:href="pcm3060_8c.html#a4b08ec86eb0407470554c4e5c5759521" target="_top" xlink:title="perform power up sequence">
<polygon fill="none" stroke="black" points="152.5,-88 152.5,-107 256.5,-107 256.5,-88 152.5,-88"/>
<text text-anchor="middle" x="204.5" y="-95" font-family="Helvetica,sans-Serif" font-size="10.00">pcm3060_power_up</text>
</a>
</g>
</g>
<!-- Node1&#45;&gt;Node44 -->
<g id="edge48" class="edge">
<title>Node1&#45;&gt;Node44</title>
<path fill="none" stroke="midnightblue" d="M52.58,-289.84C58.07,-259.43 79.18,-164.86 136,-116.5 138.26,-114.58 140.7,-112.85 143.27,-111.29"/>
<polygon fill="midnightblue" stroke="midnightblue" points="145.08,-114.3 152.41,-106.65 141.91,-108.06 145.08,-114.3"/>
</g>
<!-- Node48 -->
<g id="node48" class="node">
<title>Node48</title>
<g id="a_node48"><a xlink:href="namespaceshrapnel.html#a62ed101f04b8c40f7fdc427e6b169353" target="_top" xlink:title=" ">
<polygon fill="none" stroke="black" points="151,-50 151,-69 258,-69 258,-50 151,-50"/>
<text text-anchor="middle" x="204.5" y="-57" font-family="Helvetica,sans-Serif" font-size="10.00">shrapnel::start_mdns</text>
</a>
</g>
</g>
<!-- Node1&#45;&gt;Node48 -->
<g id="edge52" class="edge">
<title>Node1&#45;&gt;Node48</title>
<path fill="none" stroke="midnightblue" d="M51.73,-289.86C54.84,-255.6 70.07,-138.58 136,-78.5 137.75,-76.9 139.63,-75.44 141.61,-74.09"/>
<polygon fill="midnightblue" stroke="midnightblue" points="143.77,-76.89 150.78,-68.95 140.35,-70.79 143.77,-76.89"/>
</g>
<!-- Node49 -->
<g id="node49" class="node">
<title>Node49</title>
<g id="a_node49"><a xlink:href="namespaceshrapnel.html#ad3636f58faa95196bef6352b331ed3da" target="_top" xlink:title=" ">
<polygon fill="none" stroke="black" points="156,-0.5 156,-30.5 253,-30.5 253,-0.5 156,-0.5"/>
<text text-anchor="start" x="164" y="-18.5" font-family="Helvetica,sans-Serif" font-size="10.00">shrapnel::wifi_start</text>
<text text-anchor="middle" x="204.5" y="-7.5" font-family="Helvetica,sans-Serif" font-size="10.00">_handler</text>
</a>
</g>
</g>
<!-- Node1&#45;&gt;Node49 -->
<g id="edge53" class="edge">
<title>Node1&#45;&gt;Node49</title>
<path fill="none" stroke="midnightblue" d="M51.3,-289.77C52.96,-252.25 63.94,-115.32 136,-40.5 139.21,-37.17 142.9,-34.28 146.86,-31.77"/>
<polygon fill="midnightblue" stroke="midnightblue" points="148.78,-34.71 155.91,-26.87 145.45,-28.56 148.78,-34.71"/>
</g>
<!-- Node3 -->
<g id="node3" class="node">
<title>Node3</title>
<g id="a_node3"><a xlink:href="namespaceshrapnel.html#a9df539517dd9158cb2b42a9d9e948a73" target="_top" xlink:title=" ">
<polygon fill="none" stroke="black" points="309,-580 309,-599 440,-599 440,-580 309,-580"/>
<text text-anchor="middle" x="374.5" y="-587" font-family="Helvetica,sans-Serif" font-size="10.00">shrapnel::websocket_send</text>
</a>
</g>
</g>
<!-- Node2&#45;&gt;Node3 -->
<g id="edge2" class="edge">
<title>Node2&#45;&gt;Node3</title>
<path fill="none" stroke="midnightblue" d="M273.35,-589.5C281.7,-589.5 290.27,-589.5 298.72,-589.5"/>
<polygon fill="midnightblue" stroke="midnightblue" points="298.94,-593 308.94,-589.5 298.94,-586 298.94,-593"/>
</g>
<!-- Node4 -->
<g id="node4" class="node">
<title>Node4</title>
<g id="a_node4"><a xlink:href="namespaceshrapnel_1_1midi.html#a3ce92c675faa537c28f3f68743f0bf16" target="_top" xlink:title=" ">
<polygon fill="none" stroke="black" points="476,-580 476,-599 588,-599 588,-580 476,-580"/>
<text text-anchor="middle" x="532" y="-587" font-family="Helvetica,sans-Serif" font-size="10.00">shrapnel::midi::to_json</text>
</a>
</g>
</g>
<!-- Node3&#45;&gt;Node4 -->
<g id="edge3" class="edge">
<title>Node3&#45;&gt;Node4</title>
<path fill="none" stroke="midnightblue" d="M440.1,-589.5C448.52,-589.5 457.16,-589.5 465.59,-589.5"/>
<polygon fill="midnightblue" stroke="midnightblue" points="465.76,-593 475.76,-589.5 465.76,-586 465.76,-593"/>
</g>
<!-- Node6 -->
<g id="node6" class="node">
<title>Node6</title>
<g id="a_node6"><a xlink:href="namespaceshrapnel.html#a7ab448c59a74266fc5aaded062ed1961" target="_top" xlink:title=" ">
<polygon fill="none" stroke="black" points="310.5,-542 310.5,-561 438.5,-561 438.5,-542 310.5,-542"/>
<text text-anchor="middle" x="374.5" y="-549" font-family="Helvetica,sans-Serif" font-size="10.00">shrapnel::start_webserver</text>
</a>
</g>
</g>
<!-- Node5&#45;&gt;Node6 -->
<g id="edge5" class="edge">
<title>Node5&#45;&gt;Node6</title>
<path fill="none" stroke="midnightblue" d="M269.01,-551.5C279.19,-551.5 289.79,-551.5 300.17,-551.5"/>
<polygon fill="midnightblue" stroke="midnightblue" points="300.45,-555 310.45,-551.5 300.45,-548 300.45,-555"/>
</g>
<!-- Node8 -->
<g id="node8" class="node">
<title>Node8</title>
<g id="a_node8"><a xlink:href="namespaceshrapnel.html#ac11c58ef0962c52aa2cbcb5885d6261a" target="_top" xlink:title=" ">
<polygon fill="none" stroke="black" points="311,-498 311,-517 438,-517 438,-498 311,-498"/>
<text text-anchor="middle" x="374.5" y="-505" font-family="Helvetica,sans-Serif" font-size="10.00">shrapnel::stop_webserver</text>
</a>
</g>
</g>
<!-- Node7&#45;&gt;Node8 -->
<g id="edge7" class="edge">
<title>Node7&#45;&gt;Node8</title>
<path fill="none" stroke="midnightblue" d="M257.28,-507.5C271.06,-507.5 286.21,-507.5 300.89,-507.5"/>
<polygon fill="midnightblue" stroke="midnightblue" points="300.96,-511 310.96,-507.5 300.96,-504 300.96,-511"/>
</g>
<!-- Node14 -->
<g id="node14" class="node">
<title>Node14</title>
<g id="a_node14"><a xlink:href="profiling_8cpp.html#a96b462c18367729bd8d5e19d7d98a619" target="_top" xlink:title=" ">
<polygon fill="none" stroke="black" points="327,-328 327,-347 422,-347 422,-328 327,-328"/>
<text text-anchor="middle" x="374.5" y="-335" font-family="Helvetica,sans-Serif" font-size="10.00">cycles_to_percent</text>
</a>
</g>
</g>
<!-- Node13&#45;&gt;Node14 -->
<g id="edge13" class="edge">
<title>Node13&#45;&gt;Node14</title>
<path fill="none" stroke="midnightblue" d="M247.89,-309.09C270.26,-314.15 297.9,-320.4 321.55,-325.75"/>
<polygon fill="midnightblue" stroke="midnightblue" points="320.89,-329.19 331.41,-327.98 322.43,-322.36 320.89,-329.19"/>
</g>
<!-- Node15 -->
<g id="node15" class="node">
<title>Node15</title>
<g id="a_node15"><a xlink:href="profiling_8cpp.html#ab43df9ddabf19beb65958fe84cac89b5" target="_top" xlink:title=" ">
<polygon fill="none" stroke="black" points="337.5,-290 337.5,-309 411.5,-309 411.5,-290 337.5,-290"/>
<text text-anchor="middle" x="374.5" y="-297" font-family="Helvetica,sans-Serif" font-size="10.00">cycles_to_us</text>
</a>
</g>
</g>
<!-- Node13&#45;&gt;Node15 -->
<g id="edge14" class="edge">
<title>Node13&#45;&gt;Node15</title>
<path fill="none" stroke="midnightblue" d="M250.52,-299.5C274.23,-299.5 303.26,-299.5 327.16,-299.5"/>
<polygon fill="midnightblue" stroke="midnightblue" points="327.4,-303 337.4,-299.5 327.4,-296 327.4,-303"/>
</g>
<!-- Node17 -->
<g id="node17" class="node">
<title>Node17</title>
<g id="a_node17"><a xlink:href="i2s_8cpp.html#a4e37f563a34c1a559515cc40782caf07" target="_top" xlink:title=" ">
<polygon fill="none" stroke="black" points="321.5,-252 321.5,-271 427.5,-271 427.5,-252 321.5,-252"/>
<text text-anchor="middle" x="374.5" y="-259" font-family="Helvetica,sans-Serif" font-size="10.00">i2s_processing_task</text>
</a>
</g>
</g>
<!-- Node16&#45;&gt;Node17 -->
<g id="edge16" class="edge">
<title>Node16&#45;&gt;Node17</title>
<path fill="none" stroke="midnightblue" d="M234.38,-261.5C255.42,-261.5 284.71,-261.5 311,-261.5"/>
<polygon fill="midnightblue" stroke="midnightblue" points="311.28,-265 321.28,-261.5 311.28,-258 311.28,-265"/>
</g>
<!-- Node18 -->
<g id="node18" class="node">
<title>Node18</title>
<g id="a_node18"><a xlink:href="float__convert_8h.html#ae9b18f6b920e3401ec41278b57e6817b" target="_top" xlink:title=" ">
<polygon fill="none" stroke="black" points="643.5,-62 643.5,-81 717.5,-81 717.5,-62 643.5,-62"/>
<text text-anchor="middle" x="680.5" y="-69" font-family="Helvetica,sans-Serif" font-size="10.00">float_to_int32</text>
</a>
</g>
</g>
<!-- Node17&#45;&gt;Node18 -->
<g id="edge17" class="edge">
<title>Node17&#45;&gt;Node18</title>
<path fill="none" stroke="midnightblue" d="M397.05,-251.94C437.4,-233.39 525.85,-189.53 588,-135.5 607.33,-118.7 603.05,-105.23 624,-90.5 627.1,-88.32 630.47,-86.37 633.96,-84.64"/>
<polygon fill="midnightblue" stroke="midnightblue" points="635.65,-87.72 643.41,-80.52 632.85,-81.31 635.65,-87.72"/>
</g>
<!-- Node19 -->
<g id="node19" class="node">
<title>Node19</title>
<g id="a_node19"><a xlink:href="process_8cpp.html#a98369bdde76db63c92e6173d29c6dc78" target="_top" xlink:title=" ">
<polygon fill="none" stroke="black" points="497.5,-423 497.5,-442 566.5,-442 566.5,-423 497.5,-423"/>
<text text-anchor="middle" x="532" y="-430" font-family="Helvetica,sans-Serif" font-size="10.00">process_init</text>
</a>
</g>
</g>
<!-- Node17&#45;&gt;Node19 -->
<g id="edge18" class="edge">
<title>Node17&#45;&gt;Node19</title>
<path fill="none" stroke="midnightblue" d="M423.29,-271.11C429.26,-273.56 435.02,-276.64 440,-280.5 485.66,-315.86 513.3,-381.12 524.78,-413.4"/>
<polygon fill="midnightblue" stroke="midnightblue" points="521.52,-414.66 528.06,-422.99 528.14,-412.4 521.52,-414.66"/>
</g>
<!-- Node31 -->
<g id="node31" class="node">
<title>Node31</title>
<g id="a_node31"><a xlink:href="process_8cpp.html#a450bec865b55b9890f4050f1ab0dba5c" target="_top" xlink:title=" ">
<polygon fill="none" stroke="black" points="485.5,-252 485.5,-271 578.5,-271 578.5,-252 485.5,-252"/>
<text text-anchor="middle" x="532" y="-259" font-family="Helvetica,sans-Serif" font-size="10.00">process_samples</text>
</a>
</g>
</g>
<!-- Node17&#45;&gt;Node31 -->
<g id="edge30" class="edge">
<title>Node17&#45;&gt;Node31</title>
<path fill="none" stroke="midnightblue" d="M427.71,-261.5C443.06,-261.5 459.89,-261.5 475.44,-261.5"/>
<polygon fill="midnightblue" stroke="midnightblue" points="475.44,-265 485.44,-261.5 475.44,-258 475.44,-265"/>
</g>
<!-- Node20 -->
<g id="node20" class="node">
<title>Node20</title>
<g id="a_node20"><a xlink:href="noise__gate_8cpp.html#a949bfebe851dee44040d83bbd068dad1" target="_top" xlink:title="Initialise the effect.">
<polygon fill="none" stroke="black" points="654,-480 654,-499 707,-499 707,-480 654,-480"/>
<text text-anchor="middle" x="680.5" y="-487" font-family="Helvetica,sans-Serif" font-size="10.00">gate_init</text>
</a>
</g>
</g>
<!-- Node19&#45;&gt;Node20 -->
<g id="edge19" class="edge">
<title>Node19&#45;&gt;Node20</title>
<path fill="none" stroke="midnightblue" d="M554.9,-442.12C573.24,-450.06 600.15,-461.45 624,-470.5 630.53,-472.98 637.53,-475.49 644.3,-477.84"/>
<polygon fill="midnightblue" stroke="midnightblue" points="643.36,-481.22 653.96,-481.15 645.63,-474.6 643.36,-481.22"/>
</g>
<!-- Node22 -->
<g id="node22" class="node">
<title>Node22</title>
<g id="a_node22"><a xlink:href="noise__gate_8cpp.html#a4868a6f017c846668c1b09d32b833099" target="_top" xlink:title="Set the attack time in milliseconds.">
<polygon fill="none" stroke="black" points="637.5,-442 637.5,-461 723.5,-461 723.5,-442 637.5,-442"/>
<text text-anchor="middle" x="680.5" y="-449" font-family="Helvetica,sans-Serif" font-size="10.00">gate_set_attack</text>
</a>
</g>
</g>
<!-- Node19&#45;&gt;Node22 -->
<g id="edge21" class="edge">
<title>Node19&#45;&gt;Node22</title>
<path fill="none" stroke="midnightblue" d="M566.61,-436.86C584.6,-439.19 607.17,-442.12 627.38,-444.74"/>
<polygon fill="midnightblue" stroke="midnightblue" points="627.02,-448.22 637.39,-446.04 627.92,-441.28 627.02,-448.22"/>
</g>
<!-- Node23 -->
<g id="node23" class="node">
<title>Node23</title>
<g id="a_node23"><a xlink:href="noise__gate_8cpp.html#a184d915d5eb18d4743c6e3008bb47e62" target="_top" xlink:title="Set the buffer size in number of samples.">
<polygon fill="none" stroke="black" points="627.5,-556 627.5,-575 733.5,-575 733.5,-556 627.5,-556"/>
<text text-anchor="middle" x="680.5" y="-563" font-family="Helvetica,sans-Serif" font-size="10.00">gate_set_buffer_size</text>
</a>
</g>
</g>
<!-- Node19&#45;&gt;Node23 -->
<g id="edge22" class="edge">
<title>Node19&#45;&gt;Node23</title>
<path fill="none" stroke="midnightblue" d="M538.21,-442.29C550.34,-464.16 582.59,-517.34 624,-546.5 626.71,-548.41 629.62,-550.13 632.64,-551.7"/>
<polygon fill="midnightblue" stroke="midnightblue" points="631.4,-554.98 641.96,-555.92 634.29,-548.6 631.4,-554.98"/>
</g>
<!-- Node24 -->
<g id="node24" class="node">
<title>Node24</title>
<g id="a_node24"><a xlink:href="noise__gate_8cpp.html#a4fccad713cee272e388c9c45fc97037e" target="_top" xlink:title="Set the hold time in milliseconds.">
<polygon fill="none" stroke="black" points="642,-404 642,-423 719,-423 719,-404 642,-404"/>
<text text-anchor="middle" x="680.5" y="-411" font-family="Helvetica,sans-Serif" font-size="10.00">gate_set_hold</text>
</a>
</g>
</g>
<!-- Node19&#45;&gt;Node24 -->
<g id="edge23" class="edge">
<title>Node19&#45;&gt;Node24</title>
<path fill="none" stroke="midnightblue" d="M566.61,-428.14C585.92,-425.64 610.49,-422.45 631.78,-419.69"/>
<polygon fill="midnightblue" stroke="midnightblue" points="632.46,-423.13 641.92,-418.37 631.56,-416.19 632.46,-423.13"/>
</g>
<!-- Node25 -->
<g id="node25" class="node">
<title>Node25</title>
<g id="a_node25"><a xlink:href="noise__gate_8cpp.html#abe525a07b8cb6f0557740cc4100428a9" target="_top" xlink:title="Set the release time in milliseconds.">
<polygon fill="none" stroke="black" points="635,-366 635,-385 726,-385 726,-366 635,-366"/>
<text text-anchor="middle" x="680.5" y="-373" font-family="Helvetica,sans-Serif" font-size="10.00">gate_set_release</text>
</a>
</g>
</g>
<!-- Node19&#45;&gt;Node25 -->
<g id="edge24" class="edge">
<title>Node19&#45;&gt;Node25</title>
<path fill="none" stroke="midnightblue" d="M554.9,-422.88C573.24,-414.94 600.15,-403.55 624,-394.5 629.49,-392.42 635.32,-390.31 641.06,-388.29"/>
<polygon fill="midnightblue" stroke="midnightblue" points="642.26,-391.58 650.57,-385 639.97,-384.97 642.26,-391.58"/>
</g>
<!-- Node26 -->
<g id="node26" class="node">
<title>Node26</title>
<g id="a_node26"><a xlink:href="noise__gate_8cpp.html#a2691256497a1cec4e14434f48eccfb56" target="_top" xlink:title="Set the sample rate in Hz.">
<polygon fill="none" stroke="black" points="624,-518 624,-537 737,-537 737,-518 624,-518"/>
<text text-anchor="middle" x="680.5" y="-525" font-family="Helvetica,sans-Serif" font-size="10.00">gate_set_sample_rate</text>
</a>
</g>
</g>
<!-- Node19&#45;&gt;Node26 -->
<g id="edge25" class="edge">
<title>Node19&#45;&gt;Node26</title>
<path fill="none" stroke="midnightblue" d="M542.21,-442.23C557.72,-458.11 590.64,-489.72 624,-508.5 627.69,-510.58 631.65,-512.49 635.7,-514.22"/>
<polygon fill="midnightblue" stroke="midnightblue" points="634.6,-517.55 645.19,-517.95 637.16,-511.04 634.6,-517.55"/>
</g>
<!-- Node29 -->
<g id="node29" class="node">
<title>Node29</title>
<g id="a_node29"><a xlink:href="noise__gate_8cpp.html#a82e62ed410acc03c8179d8245de13e12" target="_top" xlink:title="Set the threshold and hysteresis value in dBFS.">
<polygon fill="none" stroke="black" points="631,-328 631,-347 730,-347 730,-328 631,-328"/>
<text text-anchor="middle" x="680.5" y="-335" font-family="Helvetica,sans-Serif" font-size="10.00">gate_set_threshold</text>
</a>
</g>
</g>
<!-- Node19&#45;&gt;Node29 -->
<g id="edge28" class="edge">
<title>Node19&#45;&gt;Node29</title>
<path fill="none" stroke="midnightblue" d="M542.21,-422.77C557.72,-406.89 590.64,-375.28 624,-356.5 627.69,-354.42 631.65,-352.51 635.7,-350.78"/>
<polygon fill="midnightblue" stroke="midnightblue" points="637.16,-353.96 645.19,-347.05 634.6,-347.45 637.16,-353.96"/>
</g>
<!-- Node21 -->
<g id="node21" class="node">
<title>Node21</title>
<g id="a_node21"><a xlink:href="noise__gate_8cpp.html#a5d3ba76b4666ac1820b498aaf04ea22e" target="_top" xlink:title="Reset the state.">
<polygon fill="none" stroke="black" points="796,-474 796,-493 858,-493 858,-474 796,-474"/>
<text text-anchor="middle" x="827" y="-481" font-family="Helvetica,sans-Serif" font-size="10.00">gate_reset</text>
</a>
</g>
</g>
<!-- Node20&#45;&gt;Node21 -->
<g id="edge20" class="edge">
<title>Node20&#45;&gt;Node21</title>
<path fill="none" stroke="midnightblue" d="M707,-488.44C728.79,-487.54 760.52,-486.22 785.74,-485.17"/>
<polygon fill="midnightblue" stroke="midnightblue" points="785.9,-488.67 795.75,-484.76 785.61,-481.67 785.9,-488.67"/>
</g>
<!-- Node27 -->
<g id="node27" class="node">
<title>Node27</title>
<g id="a_node27"><a xlink:href="abstract__dsp__esp32_8c.html#ab721c839889c1267077f4cb3304b655d" target="_top" xlink:title=" ">
<polygon fill="none" stroke="black" points="773.5,-561.5 773.5,-591.5 880.5,-591.5 880.5,-561.5 773.5,-561.5"/>
<text text-anchor="start" x="781.5" y="-579.5" font-family="Helvetica,sans-Serif" font-size="10.00">dspal_biquad_design</text>
<text text-anchor="middle" x="827" y="-568.5" font-family="Helvetica,sans-Serif" font-size="10.00">_lowpass</text>
</a>
</g>
</g>
<!-- Node26&#45;&gt;Node27 -->
<g id="edge26" class="edge">
<title>Node26&#45;&gt;Node27</title>
<path fill="none" stroke="midnightblue" d="M709.7,-537.06C727.44,-543.08 750.9,-551.03 772.1,-558.22"/>
<polygon fill="midnightblue" stroke="midnightblue" points="771.06,-561.57 781.66,-561.46 773.31,-554.94 771.06,-561.57"/>
</g>
<!-- Node28 -->
<g id="node28" class="node">
<title>Node28</title>
<g id="a_node28"><a xlink:href="classshrapnel_1_1dsp_1_1IirFilter.html#aa09e7c1ab99d85c0fdd1c98c80636550" target="_top" xlink:title=" ">
<polygon fill="none" stroke="black" points="773,-512.5 773,-542.5 881,-542.5 881,-512.5 773,-512.5"/>
<text text-anchor="start" x="781" y="-530.5" font-family="Helvetica,sans-Serif" font-size="10.00">shrapnel::dsp::IirFilter</text>
<text text-anchor="middle" x="827" y="-519.5" font-family="Helvetica,sans-Serif" font-size="10.00">::set_coefficients</text>
</a>
</g>
</g>
<!-- Node26&#45;&gt;Node28 -->
<g id="edge27" class="edge">
<title>Node26&#45;&gt;Node28</title>
<path fill="none" stroke="midnightblue" d="M737.37,-527.5C745.61,-527.5 754.15,-527.5 762.54,-527.5"/>
<polygon fill="midnightblue" stroke="midnightblue" points="762.65,-531 772.65,-527.5 762.65,-524 762.65,-531"/>
</g>
<!-- Node30 -->
<g id="node30" class="node">
<title>Node30</title>
<g id="a_node30"><a xlink:href="noise__gate_8cpp.html#afb2354391bb81545d92334434552ab4b" target="_top" xlink:title=" ">
<polygon fill="none" stroke="black" points="794.5,-328 794.5,-347 859.5,-347 859.5,-328 794.5,-328"/>
<text text-anchor="middle" x="827" y="-335" font-family="Helvetica,sans-Serif" font-size="10.00">db_to_ratio</text>
</a>
</g>
</g>
<!-- Node29&#45;&gt;Node30 -->
<g id="edge29" class="edge">
<title>Node29&#45;&gt;Node30</title>
<path fill="none" stroke="midnightblue" d="M730.02,-337.5C747.54,-337.5 767.15,-337.5 784.05,-337.5"/>
<polygon fill="midnightblue" stroke="midnightblue" points="784.19,-341 794.19,-337.5 784.19,-334 784.19,-341"/>
</g>
<!-- Node31&#45;&gt;Node18 -->
<g id="edge32" class="edge">
<title>Node31&#45;&gt;Node18</title>
<path fill="none" stroke="midnightblue" d="M542.77,-251.71C554.83,-239.17 575.29,-216.32 588,-193.5 611.6,-151.13 589.6,-124.68 624,-90.5 627.01,-87.51 630.5,-84.99 634.25,-82.87"/>
<polygon fill="midnightblue" stroke="midnightblue" points="635.78,-86.02 643.34,-78.6 632.8,-79.69 635.78,-86.02"/>
</g>
<!-- Node31&#45;&gt;Node22 -->
<g id="edge38" class="edge">
<title>Node31&#45;&gt;Node22</title>
<path fill="none" stroke="midnightblue" d="M535.44,-271.23C543.19,-300.15 569.99,-386.47 624,-432.5 626,-434.21 628.16,-435.76 630.43,-437.18"/>
<polygon fill="midnightblue" stroke="midnightblue" points="629.13,-440.44 639.61,-441.99 632.38,-434.24 629.13,-440.44"/>
</g>
<!-- Node31&#45;&gt;Node24 -->
<g id="edge39" class="edge">
<title>Node31&#45;&gt;Node24</title>
<path fill="none" stroke="midnightblue" d="M536.96,-271.1C547.46,-295.38 578.35,-359.78 624,-394.5 626.63,-396.5 629.49,-398.31 632.48,-399.92"/>
<polygon fill="midnightblue" stroke="midnightblue" points="631.17,-403.18 641.72,-404.25 634.14,-396.84 631.17,-403.18"/>
</g>
<!-- Node31&#45;&gt;Node25 -->
<g id="edge40" class="edge">
<title>Node31&#45;&gt;Node25</title>
<path fill="none" stroke="midnightblue" d="M539.64,-271.03C553.31,-289.96 586.47,-332.53 624,-356.5 627.15,-358.51 630.53,-360.33 634.02,-361.98"/>
<polygon fill="midnightblue" stroke="midnightblue" points="632.83,-365.28 643.4,-365.95 635.56,-358.83 632.83,-365.28"/>
</g>
<!-- Node31&#45;&gt;Node29 -->
<g id="edge41" class="edge">
<title>Node31&#45;&gt;Node29</title>
<path fill="none" stroke="midnightblue" d="M546.02,-271C563.2,-283.23 594.72,-304.55 624,-318.5 628.42,-320.61 633.14,-322.59 637.89,-324.43"/>
<polygon fill="midnightblue" stroke="midnightblue" points="637,-327.83 647.59,-327.98 639.4,-321.26 637,-327.83"/>
</g>
<!-- Node32 -->
<g id="node32" class="node">
<title>Node32</title>
<g id="a_node32"><a xlink:href="process_8cpp.html#a9785ac35cd7c86538882d5311fd66bf1" target="_top" xlink:title=" ">
<polygon fill="none" stroke="black" points="638,-214 638,-233 723,-233 723,-214 638,-214"/>
<text text-anchor="middle" x="680.5" y="-221" font-family="Helvetica,sans-Serif" font-size="10.00">decibel_to_ratio</text>
</a>
</g>
</g>
<!-- Node31&#45;&gt;Node32 -->
<g id="edge31" class="edge">
<title>Node31&#45;&gt;Node32</title>
<path fill="none" stroke="midnightblue" d="M569.97,-251.91C589.13,-246.94 612.71,-240.82 633.09,-235.54"/>
<polygon fill="midnightblue" stroke="midnightblue" points="634,-238.92 642.8,-233.02 632.24,-232.14 634,-238.92"/>
</g>
<!-- Node33 -->
<g id="node33" class="node">
<title>Node33</title>
<g id="a_node33"><a xlink:href="noise__gate_8cpp.html#a129b18f80393706faa5a453417153a51" target="_top" xlink:title="Analyse the audio.">
<polygon fill="none" stroke="black" points="643.5,-176 643.5,-195 717.5,-195 717.5,-176 643.5,-176"/>
<text text-anchor="middle" x="680.5" y="-183" font-family="Helvetica,sans-Serif" font-size="10.00">gate_analyse</text>
</a>
</g>
</g>
<!-- Node31&#45;&gt;Node33 -->
<g id="edge33" class="edge">
<title>Node31&#45;&gt;Node33</title>
<path fill="none" stroke="midnightblue" d="M546.02,-252C563.2,-239.77 594.72,-218.45 624,-204.5 628.42,-202.39 633.14,-200.41 637.89,-198.57"/>
<polygon fill="midnightblue" stroke="midnightblue" points="639.4,-201.74 647.59,-195.02 637,-195.17 639.4,-201.74"/>
</g>
<!-- Node36 -->
<g id="node36" class="node">
<title>Node36</title>
<g id="a_node36"><a xlink:href="noise__gate_8cpp.html#a3a59d391339a038f91650058680b00d6" target="_top" xlink:title="Apply the precalculated gain to the audio.">
<polygon fill="none" stroke="black" points="643,-138 643,-157 718,-157 718,-138 643,-138"/>
<text text-anchor="middle" x="680.5" y="-145" font-family="Helvetica,sans-Serif" font-size="10.00">gate_process</text>
</a>
</g>
</g>
<!-- Node31&#45;&gt;Node36 -->
<g id="edge36" class="edge">
<title>Node31&#45;&gt;Node36</title>
<path fill="none" stroke="midnightblue" d="M539.64,-251.97C553.31,-233.04 586.47,-190.47 624,-166.5 627.15,-164.49 630.53,-162.67 634.02,-161.02"/>
<polygon fill="midnightblue" stroke="midnightblue" points="635.56,-164.17 643.4,-157.05 632.83,-157.72 635.56,-164.17"/>
</g>
<!-- Node38 -->
<g id="node38" class="node">
<title>Node38</title>
<g id="a_node38"><a xlink:href="profiling_8cpp.html#a3171d2be3fbf00e49982243e9869735a" target="_top" xlink:title=" ">
<polygon fill="none" stroke="black" points="627.5,-100 627.5,-119 733.5,-119 733.5,-100 627.5,-100"/>
<text text-anchor="middle" x="680.5" y="-107" font-family="Helvetica,sans-Serif" font-size="10.00">profiling_mark_stage</text>
</a>
</g>
</g>
<!-- Node31&#45;&gt;Node38 -->
<g id="edge42" class="edge">
<title>Node31&#45;&gt;Node38</title>
<path fill="none" stroke="midnightblue" d="M541.77,-251.78C553.13,-238.95 573.24,-215.41 588,-193.5 606.45,-166.11 598.69,-149.71 624,-128.5 626.02,-126.81 628.19,-125.27 630.47,-123.86"/>
<polygon fill="midnightblue" stroke="midnightblue" points="632.41,-126.8 639.67,-119.08 629.18,-120.59 632.41,-126.8"/>
</g>
<!-- Node39 -->
<g id="node39" class="node">
<title>Node39</title>
<g id="a_node39"><a xlink:href="profiling_8cpp.html#ac05fdc10ded37340f2ab202bbc184d20" target="_top" xlink:title=" ">
<polygon fill="none" stroke="black" points="643.5,-290 643.5,-309 717.5,-309 717.5,-290 643.5,-290"/>
<text text-anchor="middle" x="680.5" y="-297" font-family="Helvetica,sans-Serif" font-size="10.00">profiling_start</text>
</a>
</g>
</g>
<!-- Node31&#45;&gt;Node39 -->
<g id="edge43" class="edge">
<title>Node31&#45;&gt;Node39</title>
<path fill="none" stroke="midnightblue" d="M569.97,-271.09C589.27,-276.1 613.07,-282.27 633.55,-287.58"/>
<polygon fill="midnightblue" stroke="midnightblue" points="632.75,-290.99 643.3,-290.11 634.5,-284.21 632.75,-290.99"/>
</g>
<!-- Node40 -->
<g id="node40" class="node">
<title>Node40</title>
<g id="a_node40"><a xlink:href="profiling_8cpp.html#a9f4516d77db32a65ee99933c6c9d3802" target="_top" xlink:title=" ">
<polygon fill="none" stroke="black" points="643.5,-252 643.5,-271 717.5,-271 717.5,-252 643.5,-252"/>
<text text-anchor="middle" x="680.5" y="-259" font-family="Helvetica,sans-Serif" font-size="10.00">profiling_stop</text>
</a>
</g>
</g>
<!-- Node31&#45;&gt;Node40 -->
<g id="edge44" class="edge">
<title>Node31&#45;&gt;Node40</title>
<path fill="none" stroke="midnightblue" d="M578.55,-261.5C595.8,-261.5 615.46,-261.5 632.81,-261.5"/>
<polygon fill="midnightblue" stroke="midnightblue" points="633.27,-265 643.27,-261.5 633.27,-258 633.27,-265"/>
</g>
<!-- Node34 -->
<g id="node34" class="node">
<title>Node34</title>
<g id="a_node34"><a xlink:href="classshrapnel_1_1dsp_1_1IirFilter.html#a53cb5a72d2a310cd4b35d4329af682f0" target="_top" xlink:title=" ">
<polygon fill="none" stroke="black" points="773,-173.5 773,-203.5 881,-203.5 881,-173.5 773,-173.5"/>
<text text-anchor="start" x="781" y="-191.5" font-family="Helvetica,sans-Serif" font-size="10.00">shrapnel::dsp::IirFilter</text>
<text text-anchor="middle" x="827" y="-180.5" font-family="Helvetica,sans-Serif" font-size="10.00">::process</text>
</a>
</g>
</g>
<!-- Node33&#45;&gt;Node34 -->
<g id="edge34" class="edge">
<title>Node33&#45;&gt;Node34</title>
<path fill="none" stroke="midnightblue" d="M717.59,-186.25C731.31,-186.53 747.36,-186.87 762.85,-187.19"/>
<polygon fill="midnightblue" stroke="midnightblue" points="762.85,-190.69 772.92,-187.4 762.99,-183.69 762.85,-190.69"/>
</g>
<!-- Node35 -->
<g id="node35" class="node">
<title>Node35</title>
<g id="a_node35"><a xlink:href="iir__universal_8c.html#a738b77e8a79f0c754dba3af19fbd4e30" target="_top" xlink:title=" ">
<polygon fill="none" stroke="black" points="917,-179 917,-198 981,-198 981,-179 917,-179"/>
<text text-anchor="middle" x="949" y="-186" font-family="Helvetica,sans-Serif" font-size="10.00">iir_process</text>
</a>
</g>
</g>
<!-- Node34&#45;&gt;Node35 -->
<g id="edge35" class="edge">
<title>Node34&#45;&gt;Node35</title>
<path fill="none" stroke="midnightblue" d="M881.33,-188.5C889.87,-188.5 898.59,-188.5 906.79,-188.5"/>
<polygon fill="midnightblue" stroke="midnightblue" points="906.85,-192 916.85,-188.5 906.85,-185 906.85,-192"/>
</g>
<!-- Node37 -->
<g id="node37" class="node">
<title>Node37</title>
<g id="a_node37"><a xlink:href="abstract__dsp__esp32_8c.html#a52d208742d325a0cdb7225bd9fe0e902" target="_top" xlink:title=" ">
<polygon fill="none" stroke="black" points="788,-135 788,-154 866,-154 866,-135 788,-135"/>
<text text-anchor="middle" x="827" y="-142" font-family="Helvetica,sans-Serif" font-size="10.00">dspal_multiply</text>
</a>
</g>
</g>
<!-- Node36&#45;&gt;Node37 -->
<g id="edge37" class="edge">
<title>Node36&#45;&gt;Node37</title>
<path fill="none" stroke="midnightblue" d="M718.34,-146.74C736.41,-146.36 758.41,-145.9 777.81,-145.5"/>
<polygon fill="midnightblue" stroke="midnightblue" points="778.04,-149 787.97,-145.29 777.9,-142 778.04,-149"/>
</g>
<!-- Node45 -->
<g id="node45" class="node">
<title>Node45</title>
<g id="a_node45"><a xlink:href="pcm3060_8c.html#aea1e9d4122342b16a072fc515ed9c4a2" target="_top" xlink:title=" ">
<polygon fill="none" stroke="black" points="344,-107 344,-126 405,-126 405,-107 344,-107"/>
<text text-anchor="middle" x="374.5" y="-114" font-family="Helvetica,sans-Serif" font-size="10.00">_i2c_write</text>
</a>
</g>
</g>
<!-- Node44&#45;&gt;Node45 -->
<g id="edge49" class="edge">
<title>Node44&#45;&gt;Node45</title>
<path fill="none" stroke="midnightblue" d="M256.82,-103.3C281.59,-106.11 310.85,-109.41 333.87,-112.02"/>
<polygon fill="midnightblue" stroke="midnightblue" points="333.64,-115.51 343.97,-113.16 334.43,-108.56 333.64,-115.51"/>
</g>
<!-- Node47 -->
<g id="node47" class="node">
<title>Node47</title>
<g id="a_node47"><a xlink:href="pcm3060_8c.html#a7a286e614c8a6c8e30f9408395cbd4cc" target="_top" xlink:title=" ">
<polygon fill="none" stroke="black" points="343.5,-69 343.5,-88 405.5,-88 405.5,-69 343.5,-69"/>
<text text-anchor="middle" x="374.5" y="-76" font-family="Helvetica,sans-Serif" font-size="10.00">_initialised</text>
</a>
</g>
</g>
<!-- Node44&#45;&gt;Node47 -->
<g id="edge51" class="edge">
<title>Node44&#45;&gt;Node47</title>
<path fill="none" stroke="midnightblue" d="M256.82,-91.7C281.42,-88.91 310.45,-85.63 333.4,-83.03"/>
<polygon fill="midnightblue" stroke="midnightblue" points="333.94,-86.5 343.48,-81.89 333.15,-79.54 333.94,-86.5"/>
</g>
<!-- Node46 -->
<g id="node46" class="node">
<title>Node46</title>
<g id="a_node46"><a xlink:href="i2c_8c.html#a45e8e37789f0b27a7fe24b58795787f7" target="_top" xlink:title=" ">
<polygon fill="none" stroke="black" points="492.5,-107 492.5,-126 571.5,-126 571.5,-107 492.5,-107"/>
<text text-anchor="middle" x="532" y="-114" font-family="Helvetica,sans-Serif" font-size="10.00">i2c_write_byte</text>
</a>
</g>
</g>
<!-- Node45&#45;&gt;Node46 -->
<g id="edge50" class="edge">
<title>Node45&#45;&gt;Node46</title>
<path fill="none" stroke="midnightblue" d="M405.11,-116.5C426.88,-116.5 456.94,-116.5 482.22,-116.5"/>
<polygon fill="midnightblue" stroke="midnightblue" points="482.37,-120 492.37,-116.5 482.37,-113 482.37,-120"/>
</g>
</g>
</svg>
