<?xml version="1.0" encoding="UTF-8" standalone="no"?>
<!DOCTYPE svg PUBLIC "-//W3C//DTD SVG 1.1//EN"
 "http://www.w3.org/Graphics/SVG/1.1/DTD/svg11.dtd">
<!-- Generated by graphviz version 3.0.0 (20221109.1736)
 -->
<!-- Title: shrapnel::api::to_bytes Pages: 1 -->
<svg width="268pt" height="66pt"
 viewBox="0.00 0.00 268.00 66.00" xmlns="http://www.w3.org/2000/svg" xmlns:xlink="http://www.w3.org/1999/xlink">
<g id="graph0" class="graph" transform="scale(1 1) rotate(0) translate(4 62)">
<title>shrapnel::api::to_bytes</title>
<!-- Node1 -->
<g id="node1" class="node">
<title>Node1</title>
<g id="a_node1"><a xlink:title=" ">
<polygon fill="#bfbfbf" stroke="black" points="0,-19.5 0,-38.5 112,-38.5 112,-19.5 0,-19.5"/>
<text text-anchor="middle" x="56" y="-26.5" font-family="Helvetica,sans-Serif" font-size="10.00">shrapnel::api::to_bytes</text>
</a>
</g>
</g>
<!-- Node2 -->
<g id="node2" class="node">
<title>Node2</title>
<g id="a_node2"><a xlink:href="namespaceshrapnel_1_1api.html#a4eb6fa3c5ed2f9fe0bce8d80e4479a32" target="_top" xlink:title="Convert a message to bytes to be sent over the network to the frontend.">
<polygon fill="none" stroke="black" points="148,-38.5 148,-57.5 260,-57.5 260,-38.5 148,-38.5"/>
<text text-anchor="middle" x="204" y="-45.5" font-family="Helvetica,sans-Serif" font-size="10.00">shrapnel::api::to_bytes</text>
</a>
</g>
</g>
<!-- Node1&#45;&gt;Node2 -->
<g id="edge1" class="edge">
<title>Node1&#45;&gt;Node2</title>
<path fill="none" stroke="midnightblue" d="M112.2,-36.18C120.55,-37.27 129.24,-38.4 137.79,-39.51"/>
<polygon fill="midnightblue" stroke="midnightblue" points="137.36,-42.99 147.73,-40.81 138.26,-36.05 137.36,-42.99"/>
</g>
<!-- Node3 -->
<g id="node3" class="node">
<title>Node3</title>
<g id="a_node3"><a xlink:href="namespaceshrapnel_1_1api.html#a8fc768e74a62eb09f96ae1ca9f18199b" target="_top" xlink:title="Convert a message to proto struct.">
<polygon fill="none" stroke="black" points="149,-0.5 149,-19.5 259,-19.5 259,-0.5 149,-0.5"/>
<text text-anchor="middle" x="204" y="-7.5" font-family="Helvetica,sans-Serif" font-size="10.00">shrapnel::api::to_proto</text>
</a>
</g>
</g>
<!-- Node1&#45;&gt;Node3 -->
<g id="edge2" class="edge">
<title>Node1&#45;&gt;Node3</title>
<path fill="none" stroke="midnightblue" d="M112.2,-21.82C120.79,-20.7 129.73,-19.54 138.5,-18.39"/>
<polygon fill="midnightblue" stroke="midnightblue" points="139.23,-21.83 148.69,-17.07 138.33,-14.89 139.23,-21.83"/>
</g>
</g>
</svg>
