<?xml version="1.0" encoding="UTF-8" standalone="no"?>
<!DOCTYPE svg PUBLIC "-//W3C//DTD SVG 1.1//EN"
 "http://www.w3.org/Graphics/SVG/1.1/DTD/svg11.dtd">
<!-- Generated by graphviz version 3.0.0 (20221109.1736)
 -->
<!-- Title: shrapnel::api::to_bytes Pages: 1 -->
<svg width="311pt" height="225pt"
 viewBox="0.00 0.00 311.00 225.00" xmlns="http://www.w3.org/2000/svg" xmlns:xlink="http://www.w3.org/1999/xlink">
<g id="graph0" class="graph" transform="scale(1 1) rotate(0) translate(4 221)">
<title>shrapnel::api::to_bytes</title>
<!-- Node1 -->
<g id="node1" class="node">
<title>Node1</title>
<g id="a_node1"><a xlink:title="Convert a message to bytes to be sent over the network to the frontend.">
<polygon fill="#bfbfbf" stroke="black" points="191,-99 191,-118 303,-118 303,-99 191,-99"/>
<text text-anchor="middle" x="247" y="-106" font-family="Helvetica,sans-Serif" font-size="10.00">shrapnel::api::to_bytes</text>
</a>
</g>
</g>
<!-- Node2 -->
<g id="node2" class="node">
<title>Node2</title>
<g id="a_node2"><a xlink:href="classshrapnel_1_1midi_1_1MappingManager.html#a1e3f4c1de3c5194b08c39d8999cddad5" target="_top" xlink:title=" ">
<polygon fill="none" stroke="black" points="0,-186.5 0,-216.5 155,-216.5 155,-186.5 0,-186.5"/>
<text text-anchor="start" x="8" y="-204.5" font-family="Helvetica,sans-Serif" font-size="10.00">shrapnel::midi::MappingManager</text>
<text text-anchor="middle" x="77.5" y="-193.5" font-family="Helvetica,sans-Serif" font-size="10.00">::create</text>
</a>
</g>
</g>
<!-- Node1&#45;&gt;Node2 -->
<g id="edge1" class="edge">
<title>Node1&#45;&gt;Node2</title>
<path fill="none" stroke="midnightblue" d="M228.2,-124.99C210.72,-140.43 182.71,-163.2 155,-177.5 148.57,-180.82 141.59,-183.78 134.56,-186.39"/>
<polygon fill="midnightblue" stroke="midnightblue" points="230.8,-127.36 235.89,-118.07 226.11,-122.16 230.8,-127.36"/>
</g>
<!-- Node3 -->
<g id="node3" class="node">
<title>Node3</title>
<g id="a_node3"><a xlink:href="classshrapnel_1_1presets_1_1PresetsManager.html#a61ecad878277bcfb1af7b6ee08b6b43e" target="_top" xlink:title=" ">
<polygon fill="none" stroke="black" points="18,-137.5 18,-167.5 137,-167.5 137,-137.5 18,-137.5"/>
<text text-anchor="start" x="26" y="-155.5" font-family="Helvetica,sans-Serif" font-size="10.00">shrapnel::presets::</text>
<text text-anchor="middle" x="77.5" y="-144.5" font-family="Helvetica,sans-Serif" font-size="10.00">PresetsManager::create</text>
</a>
</g>
</g>
<!-- Node1&#45;&gt;Node3 -->
<g id="edge2" class="edge">
<title>Node1&#45;&gt;Node3</title>
<path fill="none" stroke="midnightblue" d="M199.95,-120.6C180.14,-125.8 156.77,-131.94 135.85,-137.43"/>
<polygon fill="midnightblue" stroke="midnightblue" points="200.87,-123.97 209.65,-118.05 199.09,-117.2 200.87,-123.97"/>
</g>
<!-- Node4 -->
<g id="node4" class="node">
<title>Node4</title>
<g id="a_node4"><a xlink:href="namespaceshrapnel_1_1api.html#abb2daa1d7735e5b18dae9a8b2cfeb9fc" target="_top" xlink:title=" ">
<polygon fill="none" stroke="black" points="21.5,-99 21.5,-118 133.5,-118 133.5,-99 21.5,-99"/>
<text text-anchor="middle" x="77.5" y="-106" font-family="Helvetica,sans-Serif" font-size="10.00">shrapnel::api::to_bytes</text>
</a>
</g>
</g>
<!-- Node1&#45;&gt;Node4 -->
<g id="edge3" class="edge">
<title>Node1&#45;&gt;Node4</title>
<path fill="none" stroke="midnightblue" d="M180.65,-108.5C165.15,-108.5 148.76,-108.5 133.75,-108.5"/>
<polygon fill="midnightblue" stroke="midnightblue" points="180.69,-112 190.69,-108.5 180.69,-105 180.69,-112"/>
</g>
<!-- Node5 -->
<g id="node5" class="node">
<title>Node5</title>
<g id="a_node5"><a xlink:href="classshrapnel_1_1presets_1_1PresetsManager.html#ab1499051b1b135575f8f7b012e663af9" target="_top" xlink:title=" ">
<polygon fill="none" stroke="black" points="16.5,-49.5 16.5,-79.5 138.5,-79.5 138.5,-49.5 16.5,-49.5"/>
<text text-anchor="start" x="24.5" y="-67.5" font-family="Helvetica,sans-Serif" font-size="10.00">shrapnel::presets::</text>
<text text-anchor="middle" x="77.5" y="-56.5" font-family="Helvetica,sans-Serif" font-size="10.00">PresetsManager::update</text>
</a>
</g>
</g>
<!-- Node1&#45;&gt;Node5 -->
<g id="edge4" class="edge">
<title>Node1&#45;&gt;Node5</title>
<path fill="none" stroke="midnightblue" d="M199.95,-96.4C180.14,-91.2 156.77,-85.06 135.85,-79.57"/>
<polygon fill="midnightblue" stroke="midnightblue" points="199.09,-99.8 209.65,-98.95 200.87,-93.03 199.09,-99.8"/>
</g>
<!-- Node6 -->
<g id="node6" class="node">
<title>Node6</title>
<g id="a_node6"><a xlink:href="classshrapnel_1_1midi_1_1MappingManager.html#ae0aabb4f522eff53de7ae16a6ec39d45" target="_top" xlink:title=" ">
<polygon fill="none" stroke="black" points="0,-0.5 0,-30.5 155,-30.5 155,-0.5 0,-0.5"/>
<text text-anchor="start" x="8" y="-18.5" font-family="Helvetica,sans-Serif" font-size="10.00">shrapnel::midi::MappingManager</text>
<text text-anchor="middle" x="77.5" y="-7.5" font-family="Helvetica,sans-Serif" font-size="10.00">::update</text>
</a>
</g>
</g>
<!-- Node1&#45;&gt;Node6 -->
<g id="edge5" class="edge">
<title>Node1&#45;&gt;Node6</title>
<path fill="none" stroke="midnightblue" d="M227.83,-92.09C210.27,-76.94 182.38,-54.71 155,-40.5 147.81,-36.77 139.95,-33.44 132.09,-30.53"/>
<polygon fill="midnightblue" stroke="midnightblue" points="225.75,-94.92 235.57,-98.88 230.37,-89.66 225.75,-94.92"/>
</g>
</g>
</svg>
