<?xml version="1.0" encoding="UTF-8" standalone="no"?>
<!DOCTYPE svg PUBLIC "-//W3C//DTD SVG 1.1//EN"
 "http://www.w3.org/Graphics/SVG/1.1/DTD/svg11.dtd">
<!-- Generated by graphviz version 3.0.0 (20221109.1736)
 -->
<!-- Title: shrapnel::presets::to_json Pages: 1 -->
<svg width="411pt" height="116pt"
 viewBox="0.00 0.00 411.00 115.50" xmlns="http://www.w3.org/2000/svg" xmlns:xlink="http://www.w3.org/1999/xlink">
<g id="graph0" class="graph" transform="scale(1 1) rotate(0) translate(4 111.5)">
<title>shrapnel::presets::to_json</title>
<!-- Node1 -->
<g id="node1" class="node">
<title>Node1</title>
<g id="a_node1"><a xlink:title=" ">
<polygon fill="#bfbfbf" stroke="black" points="0,-33 0,-63 95,-63 95,-33 0,-33"/>
<text text-anchor="start" x="8" y="-51" font-family="Helvetica,sans-Serif" font-size="10.00">shrapnel::presets::</text>
<text text-anchor="middle" x="47.5" y="-40" font-family="Helvetica,sans-Serif" font-size="10.00">to_json</text>
</a>
</g>
</g>
<!-- Node2 -->
<g id="node2" class="node">
<title>Node2</title>
<g id="a_node2"><a xlink:href="namespaceshrapnel_1_1presets.html#af5f4053bc3e25171c15a07e1b46f439c" target="_top" xlink:title=" ">
<polygon fill="none" stroke="black" points="131,-33 131,-63 238,-63 238,-33 131,-33"/>
<text text-anchor="start" x="139" y="-51" font-family="Helvetica,sans-Serif" font-size="10.00">shrapnel::presets::</text>
<text text-anchor="middle" x="184.5" y="-40" font-family="Helvetica,sans-Serif" font-size="10.00">serialise_parameters</text>
</a>
</g>
</g>
<!-- Node1&#45;&gt;Node2 -->
<g id="edge1" class="edge">
<title>Node1&#45;&gt;Node2</title>
<path fill="none" stroke="midnightblue" d="M95.34,-48C103.46,-48 112.02,-48 120.49,-48"/>
<polygon fill="midnightblue" stroke="midnightblue" points="120.74,-51.5 130.74,-48 120.74,-44.5 120.74,-51.5"/>
</g>
<!-- Node3 -->
<g id="node3" class="node">
<title>Node3</title>
<g id="a_node3"><a xlink:href="presets_8pb-c_8c.html#a0018faacf6d3974887f4912ddcd0236e" target="_top" xlink:title=" ">
<polygon fill="none" stroke="black" points="287,-77 287,-107 390,-107 390,-77 287,-77"/>
<text text-anchor="start" x="295" y="-95" font-family="Helvetica,sans-Serif" font-size="10.00">preset_parameters_</text>
<text text-anchor="middle" x="338.5" y="-84" font-family="Helvetica,sans-Serif" font-size="10.00">_get_packed_size</text>
</a>
</g>
</g>
<!-- Node2&#45;&gt;Node3 -->
<g id="edge2" class="edge">
<title>Node2&#45;&gt;Node3</title>
<path fill="none" stroke="midnightblue" d="M237.38,-63.02C250.13,-66.71 263.89,-70.69 277,-74.49"/>
<polygon fill="midnightblue" stroke="midnightblue" points="276.3,-77.93 286.88,-77.35 278.25,-71.2 276.3,-77.93"/>
</g>
<!-- Node4 -->
<g id="node4" class="node">
<title>Node4</title>
<g id="a_node4"><a xlink:href="presets_8pb-c_8c.html#a75256e2eec13936afbe06336df46ed00" target="_top" xlink:title=" ">
<polygon fill="none" stroke="black" points="278,-38.5 278,-57.5 399,-57.5 399,-38.5 278,-38.5"/>
<text text-anchor="middle" x="338.5" y="-45.5" font-family="Helvetica,sans-Serif" font-size="10.00">preset_parameters__init</text>
</a>
</g>
</g>
<!-- Node2&#45;&gt;Node4 -->
<g id="edge3" class="edge">
<title>Node2&#45;&gt;Node4</title>
<path fill="none" stroke="midnightblue" d="M238.24,-48C247.72,-48 257.73,-48 267.61,-48"/>
<polygon fill="midnightblue" stroke="midnightblue" points="267.83,-51.5 277.83,-48 267.83,-44.5 267.83,-51.5"/>
</g>
<!-- Node5 -->
<g id="node5" class="node">
<title>Node5</title>
<g id="a_node5"><a xlink:href="presets_8pb-c_8c.html#a2af1e4adea114d51ee4e42528c81d931" target="_top" xlink:title=" ">
<polygon fill="none" stroke="black" points="274,-0.5 274,-19.5 403,-19.5 403,-0.5 274,-0.5"/>
<text text-anchor="middle" x="338.5" y="-7.5" font-family="Helvetica,sans-Serif" font-size="10.00">preset_parameters__pack</text>
</a>
</g>
</g>
<!-- Node2&#45;&gt;Node5 -->
<g id="edge4" class="edge">
<title>Node2&#45;&gt;Node5</title>
<path fill="none" stroke="midnightblue" d="M238.24,-34.82C254.85,-30.66 273.11,-26.1 289.39,-22.03"/>
<polygon fill="midnightblue" stroke="midnightblue" points="290.38,-25.39 299.23,-19.57 288.68,-18.6 290.38,-25.39"/>
</g>
</g>
</svg>
