<?xml version="1.0" encoding="UTF-8" standalone="no"?>
<!DOCTYPE svg PUBLIC "-//W3C//DTD SVG 1.1//EN"
 "http://www.w3.org/Graphics/SVG/1.1/DTD/svg11.dtd">
<!-- Generated by graphviz version 3.0.0 (20221109.1736)
 -->
<!-- Title: shrapnel::app_main Pages: 1 -->
<svg width="984pt" height="550pt"
 viewBox="0.00 0.00 984.00 550.00" xmlns="http://www.w3.org/2000/svg" xmlns:xlink="http://www.w3.org/1999/xlink">
<g id="graph0" class="graph" transform="scale(1 1) rotate(0) translate(4 546)">
<title>shrapnel::app_main</title>
<!-- Node1 -->
<g id="node1" class="node">
<title>Node1</title>
<g id="a_node1"><a xlink:title=" ">
<polygon fill="#bfbfbf" stroke="black" points="0,-240 0,-259 100,-259 100,-240 0,-240"/>
<text text-anchor="middle" x="50" y="-247" font-family="Helvetica,sans-Serif" font-size="10.00">shrapnel::app_main</text>
</a>
</g>
</g>
<!-- Node2 -->
<g id="node2" class="node">
<title>Node2</title>
<g id="a_node2"><a xlink:href="audio__events_8c.html#a3bc13f0f225db0bb8a8b61358e6a4461" target="_top" xlink:title=" ">
<polygon fill="none" stroke="black" points="161,-491 161,-510 248,-510 248,-491 161,-491"/>
<text text-anchor="middle" x="204.5" y="-498" font-family="Helvetica,sans-Serif" font-size="10.00">audio_event_init</text>
</a>
</g>
</g>
<!-- Node1&#45;&gt;Node2 -->
<g id="edge1" class="edge">
<title>Node1&#45;&gt;Node2</title>
<path fill="none" stroke="midnightblue" d="M51.53,-259.12C53.99,-294.4 67.39,-417.96 136,-481.5 140.41,-485.58 145.62,-488.79 151.17,-491.32"/>
<polygon fill="midnightblue" stroke="midnightblue" points="150.14,-494.68 160.73,-494.96 152.63,-488.14 150.14,-494.68"/>
</g>
<!-- Node3 -->
<g id="node3" class="node">
<title>Node3</title>
<g id="a_node3"><a xlink:href="main_8cpp.html#a1a66099a9e1054494d0704363a5c8666" target="_top" xlink:title=" ">
<polygon fill="none" stroke="black" points="136,-453 136,-472 273,-472 273,-453 136,-453"/>
<text text-anchor="middle" x="204.5" y="-460" font-family="Helvetica,sans-Serif" font-size="10.00">audio_event_send_callback</text>
</a>
</g>
</g>
<!-- Node1&#45;&gt;Node3 -->
<g id="edge2" class="edge">
<title>Node1&#45;&gt;Node3</title>
<path fill="none" stroke="midnightblue" d="M52.32,-259.28C57.12,-290.98 76.64,-391.84 136,-443.5 137.79,-445.06 139.7,-446.49 141.7,-447.8"/>
<polygon fill="midnightblue" stroke="midnightblue" points="140.5,-451.14 150.96,-452.85 143.85,-444.99 140.5,-451.14"/>
</g>
<!-- Node6 -->
<g id="node6" class="node">
<title>Node6</title>
<g id="a_node6"><a xlink:href="namespaceshrapnel.html#a4bf0b1d7c4fef2839a56059a237d1da6" target="_top" xlink:title=" ">
<polygon fill="none" stroke="black" points="140,-415 140,-434 269,-434 269,-415 140,-415"/>
<text text-anchor="middle" x="204.5" y="-422" font-family="Helvetica,sans-Serif" font-size="10.00">shrapnel::connect_handler</text>
</a>
</g>
</g>
<!-- Node1&#45;&gt;Node6 -->
<g id="edge5" class="edge">
<title>Node1&#45;&gt;Node6</title>
<path fill="none" stroke="midnightblue" d="M53.45,-259.28C60.84,-286.77 85.6,-365.31 136,-405.5 138.28,-407.31 140.71,-408.96 143.27,-410.44"/>
<polygon fill="midnightblue" stroke="midnightblue" points="141.79,-413.62 152.31,-414.91 144.89,-407.34 141.79,-413.62"/>
</g>
<!-- Node8 -->
<g id="node8" class="node">
<title>Node8</title>
<g id="a_node8"><a xlink:href="namespaceshrapnel.html#ae3cbca1e45f686a5790d51825e2754a2" target="_top" xlink:title=" ">
<polygon fill="none" stroke="black" points="152,-365.5 152,-395.5 257,-395.5 257,-365.5 152,-365.5"/>
<text text-anchor="start" x="160" y="-383.5" font-family="Helvetica,sans-Serif" font-size="10.00">shrapnel::disconnect</text>
<text text-anchor="middle" x="204.5" y="-372.5" font-family="Helvetica,sans-Serif" font-size="10.00">_handler</text>
</a>
</g>
</g>
<!-- Node1&#45;&gt;Node8 -->
<g id="edge7" class="edge">
<title>Node1&#45;&gt;Node8</title>
<path fill="none" stroke="midnightblue" d="M56.23,-259.28C67.84,-280.11 97.78,-329.19 136,-356.5 138.12,-358.02 140.36,-359.45 142.66,-360.8"/>
<polygon fill="midnightblue" stroke="midnightblue" points="141.36,-364.07 151.85,-365.59 144.6,-357.86 141.36,-364.07"/>
</g>
<!-- Node10 -->
<g id="node10" class="node">
<title>Node10</title>
<g id="a_node10"><a xlink:href="namespaceshrapnel.html#a9f01b77156c5fc53346d256b9735e6f8" target="_top" xlink:title=" ">
<polygon fill="none" stroke="black" points="151,-316.5 151,-346.5 258,-346.5 258,-316.5 151,-316.5"/>
<text text-anchor="start" x="159" y="-334.5" font-family="Helvetica,sans-Serif" font-size="10.00">shrapnel::failed_alloc</text>
<text text-anchor="middle" x="204.5" y="-323.5" font-family="Helvetica,sans-Serif" font-size="10.00">_callback</text>
</a>
</g>
</g>
<!-- Node1&#45;&gt;Node10 -->
<g id="edge9" class="edge">
<title>Node1&#45;&gt;Node10</title>
<path fill="none" stroke="midnightblue" d="M63.38,-259.18C79.44,-271.39 108.63,-292.5 136,-306.5 140.05,-308.57 144.32,-310.56 148.65,-312.45"/>
<polygon fill="midnightblue" stroke="midnightblue" points="147.63,-315.81 158.2,-316.41 150.31,-309.34 147.63,-315.81"/>
</g>
<!-- Node11 -->
<g id="node11" class="node">
<title>Node11</title>
<g id="a_node11"><a xlink:href="namespaceshrapnel.html#a2b47dde02734c93bbdabfd97cb23dd2a" target="_top" xlink:title=" ">
<polygon fill="none" stroke="black" points="154.5,-278 154.5,-297 254.5,-297 254.5,-278 154.5,-278"/>
<text text-anchor="middle" x="204.5" y="-285" font-family="Helvetica,sans-Serif" font-size="10.00">shrapnel::i2c_setup</text>
</a>
</g>
</g>
<!-- Node1&#45;&gt;Node11 -->
<g id="edge10" class="edge">
<title>Node1&#45;&gt;Node11</title>
<path fill="none" stroke="midnightblue" d="M89.48,-259.09C109.52,-264.08 134.2,-270.23 155.48,-275.53"/>
<polygon fill="midnightblue" stroke="midnightblue" points="154.74,-278.96 165.29,-277.98 156.44,-272.17 154.74,-278.96"/>
</g>
<!-- Node12 -->
<g id="node12" class="node">
<title>Node12</title>
<g id="a_node12"><a xlink:href="profiling_8cpp.html#a419c836fb596d360dbc40e678127eb90" target="_top" xlink:title=" ">
<polygon fill="none" stroke="black" points="158.5,-240 158.5,-259 250.5,-259 250.5,-240 158.5,-240"/>
<text text-anchor="middle" x="204.5" y="-247" font-family="Helvetica,sans-Serif" font-size="10.00">i2s_profiling_task</text>
</a>
</g>
</g>
<!-- Node1&#45;&gt;Node12 -->
<g id="edge11" class="edge">
<title>Node1&#45;&gt;Node12</title>
<path fill="none" stroke="midnightblue" d="M100.09,-249.5C115.45,-249.5 132.5,-249.5 148.25,-249.5"/>
<polygon fill="midnightblue" stroke="midnightblue" points="148.38,-253 158.38,-249.5 148.38,-246 148.38,-253"/>
</g>
<!-- Node15 -->
<g id="node15" class="node">
<title>Node15</title>
<g id="a_node15"><a xlink:href="i2s_8cpp.html#a445c7079217d08d4767549802dade8a0" target="_top" xlink:title=" ">
<polygon fill="none" stroke="black" points="175,-202 175,-221 234,-221 234,-202 175,-202"/>
<text text-anchor="middle" x="204.5" y="-209" font-family="Helvetica,sans-Serif" font-size="10.00">i2s_setup</text>
</a>
</g>
</g>
<!-- Node1&#45;&gt;Node15 -->
<g id="edge14" class="edge">
<title>Node1&#45;&gt;Node15</title>
<path fill="none" stroke="midnightblue" d="M89.48,-239.91C112.54,-234.17 141.76,-226.88 164.85,-221.13"/>
<polygon fill="midnightblue" stroke="midnightblue" points="165.8,-224.5 174.66,-218.69 164.11,-217.71 165.8,-224.5"/>
</g>
<!-- Node40 -->
<g id="node40" class="node">
<title>Node40</title>
<g id="a_node40"><a xlink:href="i2s_8cpp.html#a7bd2643748a0d4058522967eecfb1dc1" target="_top" xlink:title=" ">
<polygon fill="none" stroke="black" points="166,-164 166,-183 243,-183 243,-164 166,-164"/>
<text text-anchor="middle" x="204.5" y="-171" font-family="Helvetica,sans-Serif" font-size="10.00">log_i2s_event</text>
</a>
</g>
</g>
<!-- Node1&#45;&gt;Node40 -->
<g id="edge44" class="edge">
<title>Node1&#45;&gt;Node40</title>
<path fill="none" stroke="midnightblue" d="M62.67,-239.91C78.42,-227.38 107.77,-205.53 136,-192.5 142.31,-189.59 149.17,-187.03 156.01,-184.81"/>
<polygon fill="midnightblue" stroke="midnightblue" points="157.4,-188.04 165.96,-181.8 155.37,-181.34 157.4,-188.04"/>
</g>
<!-- Node41 -->
<g id="node41" class="node">
<title>Node41</title>
<g id="a_node41"><a xlink:href="pcm3060_8c.html#ae4f3fcba29da4e434a2fb51e429c156b" target="_top" xlink:title="Initialise the driver.">
<polygon fill="none" stroke="black" points="167.5,-126 167.5,-145 241.5,-145 241.5,-126 167.5,-126"/>
<text text-anchor="middle" x="204.5" y="-133" font-family="Helvetica,sans-Serif" font-size="10.00">pcm3060_init</text>
</a>
</g>
</g>
<!-- Node1&#45;&gt;Node41 -->
<g id="edge45" class="edge">
<title>Node1&#45;&gt;Node41</title>
<path fill="none" stroke="midnightblue" d="M56.94,-239.78C69.23,-220.5 99.38,-177.34 136,-154.5 142.54,-150.42 149.96,-147.2 157.45,-144.66"/>
<polygon fill="midnightblue" stroke="midnightblue" points="158.68,-147.94 167.24,-141.7 156.65,-141.24 158.68,-147.94"/>
</g>
<!-- Node42 -->
<g id="node42" class="node">
<title>Node42</title>
<g id="a_node42"><a xlink:href="pcm3060_8c.html#a4b08ec86eb0407470554c4e5c5759521" target="_top" xlink:title="perform power up sequence">
<polygon fill="none" stroke="black" points="152.5,-88 152.5,-107 256.5,-107 256.5,-88 152.5,-88"/>
<text text-anchor="middle" x="204.5" y="-95" font-family="Helvetica,sans-Serif" font-size="10.00">pcm3060_power_up</text>
</a>
</g>
</g>
<!-- Node1&#45;&gt;Node42 -->
<g id="edge46" class="edge">
<title>Node1&#45;&gt;Node42</title>
<path fill="none" stroke="midnightblue" d="M54.4,-239.75C63.52,-215.12 90.88,-149.97 136,-116.5 138.64,-114.54 141.47,-112.78 144.43,-111.21"/>
<polygon fill="midnightblue" stroke="midnightblue" points="145.97,-114.35 153.61,-107 143.06,-107.99 145.97,-114.35"/>
</g>
<!-- Node46 -->
<g id="node46" class="node">
<title>Node46</title>
<g id="a_node46"><a xlink:href="namespaceshrapnel.html#a62ed101f04b8c40f7fdc427e6b169353" target="_top" xlink:title=" ">
<polygon fill="none" stroke="black" points="151,-50 151,-69 258,-69 258,-50 151,-50"/>
<text text-anchor="middle" x="204.5" y="-57" font-family="Helvetica,sans-Serif" font-size="10.00">shrapnel::start_mdns</text>
</a>
</g>
</g>
<!-- Node1&#45;&gt;Node46 -->
<g id="edge50" class="edge">
<title>Node1&#45;&gt;Node46</title>
<path fill="none" stroke="midnightblue" d="M52.96,-239.64C59.32,-210.36 82.14,-123.13 136,-78.5 138.05,-76.8 140.24,-75.25 142.54,-73.84"/>
<polygon fill="midnightblue" stroke="midnightblue" points="144.54,-76.75 151.82,-69.06 141.33,-70.53 144.54,-76.75"/>
</g>
<!-- Node47 -->
<g id="node47" class="node">
<title>Node47</title>
<g id="a_node47"><a xlink:href="namespaceshrapnel.html#ad3636f58faa95196bef6352b331ed3da" target="_top" xlink:title=" ">
<polygon fill="none" stroke="black" points="156,-0.5 156,-30.5 253,-30.5 253,-0.5 156,-0.5"/>
<text text-anchor="start" x="164" y="-18.5" font-family="Helvetica,sans-Serif" font-size="10.00">shrapnel::wifi_start</text>
<text text-anchor="middle" x="204.5" y="-7.5" font-family="Helvetica,sans-Serif" font-size="10.00">_handler</text>
</a>
</g>
</g>
<!-- Node1&#45;&gt;Node47 -->
<g id="edge51" class="edge">
<title>Node1&#45;&gt;Node47</title>
<path fill="none" stroke="midnightblue" d="M52.19,-239.64C56.67,-206.69 75.52,-99.1 136,-40.5 139.27,-37.33 142.97,-34.56 146.92,-32.14"/>
<polygon fill="midnightblue" stroke="midnightblue" points="148.71,-35.15 155.89,-27.36 145.42,-28.97 148.71,-35.15"/>
</g>
<!-- Node4 -->
<g id="node4" class="node">
<title>Node4</title>
<g id="a_node4"><a xlink:href="namespaceshrapnel.html#a9df539517dd9158cb2b42a9d9e948a73" target="_top" xlink:title=" ">
<polygon fill="none" stroke="black" points="309,-453 309,-472 440,-472 440,-453 309,-453"/>
<text text-anchor="middle" x="374.5" y="-460" font-family="Helvetica,sans-Serif" font-size="10.00">shrapnel::websocket_send</text>
</a>
</g>
</g>
<!-- Node3&#45;&gt;Node4 -->
<g id="edge3" class="edge">
<title>Node3&#45;&gt;Node4</title>
<path fill="none" stroke="midnightblue" d="M273.35,-462.5C281.7,-462.5 290.27,-462.5 298.72,-462.5"/>
<polygon fill="midnightblue" stroke="midnightblue" points="298.94,-466 308.94,-462.5 298.94,-459 298.94,-466"/>
</g>
<!-- Node5 -->
<g id="node5" class="node">
<title>Node5</title>
<g id="a_node5"><a xlink:href="namespaceshrapnel_1_1parameters.html#a0ff1082ab40d6c3373edf233727e5a90" target="_top" xlink:title=" ">
<polygon fill="none" stroke="black" points="476,-447.5 476,-477.5 583,-477.5 583,-447.5 476,-447.5"/>
<text text-anchor="start" x="484" y="-465.5" font-family="Helvetica,sans-Serif" font-size="10.00">shrapnel::parameters</text>
<text text-anchor="middle" x="529.5" y="-454.5" font-family="Helvetica,sans-Serif" font-size="10.00">::to_json</text>
</a>
</g>
</g>
<!-- Node4&#45;&gt;Node5 -->
<g id="edge4" class="edge">
<title>Node4&#45;&gt;Node5</title>
<path fill="none" stroke="midnightblue" d="M440.39,-462.5C448.63,-462.5 457.06,-462.5 465.28,-462.5"/>
<polygon fill="midnightblue" stroke="midnightblue" points="465.55,-466 475.55,-462.5 465.55,-459 465.55,-466"/>
</g>
<!-- Node7 -->
<g id="node7" class="node">
<title>Node7</title>
<g id="a_node7"><a xlink:href="namespaceshrapnel.html#a7ab448c59a74266fc5aaded062ed1961" target="_top" xlink:title=" ">
<polygon fill="none" stroke="black" points="310.5,-415 310.5,-434 438.5,-434 438.5,-415 310.5,-415"/>
<text text-anchor="middle" x="374.5" y="-422" font-family="Helvetica,sans-Serif" font-size="10.00">shrapnel::start_webserver</text>
</a>
</g>
</g>
<!-- Node6&#45;&gt;Node7 -->
<g id="edge6" class="edge">
<title>Node6&#45;&gt;Node7</title>
<path fill="none" stroke="midnightblue" d="M269.01,-424.5C279.19,-424.5 289.79,-424.5 300.17,-424.5"/>
<polygon fill="midnightblue" stroke="midnightblue" points="300.45,-428 310.45,-424.5 300.45,-421 300.45,-428"/>
</g>
<!-- Node9 -->
<g id="node9" class="node">
<title>Node9</title>
<g id="a_node9"><a xlink:href="namespaceshrapnel.html#ac11c58ef0962c52aa2cbcb5885d6261a" target="_top" xlink:title=" ">
<polygon fill="none" stroke="black" points="311,-371 311,-390 438,-390 438,-371 311,-371"/>
<text text-anchor="middle" x="374.5" y="-378" font-family="Helvetica,sans-Serif" font-size="10.00">shrapnel::stop_webserver</text>
</a>
</g>
</g>
<!-- Node8&#45;&gt;Node9 -->
<g id="edge8" class="edge">
<title>Node8&#45;&gt;Node9</title>
<path fill="none" stroke="midnightblue" d="M257.28,-380.5C271.06,-380.5 286.21,-380.5 300.89,-380.5"/>
<polygon fill="midnightblue" stroke="midnightblue" points="300.96,-384 310.96,-380.5 300.96,-377 300.96,-384"/>
</g>
<!-- Node13 -->
<g id="node13" class="node">
<title>Node13</title>
<g id="a_node13"><a xlink:href="profiling_8cpp.html#a96b462c18367729bd8d5e19d7d98a619" target="_top" xlink:title=" ">
<polygon fill="none" stroke="black" points="327,-278 327,-297 422,-297 422,-278 327,-278"/>
<text text-anchor="middle" x="374.5" y="-285" font-family="Helvetica,sans-Serif" font-size="10.00">cycles_to_percent</text>
</a>
</g>
</g>
<!-- Node12&#45;&gt;Node13 -->
<g id="edge12" class="edge">
<title>Node12&#45;&gt;Node13</title>
<path fill="none" stroke="midnightblue" d="M247.89,-259.09C270.26,-264.15 297.9,-270.4 321.55,-275.75"/>
<polygon fill="midnightblue" stroke="midnightblue" points="320.89,-279.19 331.41,-277.98 322.43,-272.36 320.89,-279.19"/>
</g>
<!-- Node14 -->
<g id="node14" class="node">
<title>Node14</title>
<g id="a_node14"><a xlink:href="profiling_8cpp.html#ab43df9ddabf19beb65958fe84cac89b5" target="_top" xlink:title=" ">
<polygon fill="none" stroke="black" points="337.5,-240 337.5,-259 411.5,-259 411.5,-240 337.5,-240"/>
<text text-anchor="middle" x="374.5" y="-247" font-family="Helvetica,sans-Serif" font-size="10.00">cycles_to_us</text>
</a>
</g>
</g>
<!-- Node12&#45;&gt;Node14 -->
<g id="edge13" class="edge">
<title>Node12&#45;&gt;Node14</title>
<path fill="none" stroke="midnightblue" d="M250.52,-249.5C274.23,-249.5 303.26,-249.5 327.16,-249.5"/>
<polygon fill="midnightblue" stroke="midnightblue" points="327.4,-253 337.4,-249.5 327.4,-246 327.4,-253"/>
</g>
<!-- Node16 -->
<g id="node16" class="node">
<title>Node16</title>
<g id="a_node16"><a xlink:href="i2s_8cpp.html#a4e37f563a34c1a559515cc40782caf07" target="_top" xlink:title=" ">
<polygon fill="none" stroke="black" points="321.5,-202 321.5,-221 427.5,-221 427.5,-202 321.5,-202"/>
<text text-anchor="middle" x="374.5" y="-209" font-family="Helvetica,sans-Serif" font-size="10.00">i2s_processing_task</text>
</a>
</g>
</g>
<!-- Node15&#45;&gt;Node16 -->
<g id="edge15" class="edge">
<title>Node15&#45;&gt;Node16</title>
<path fill="none" stroke="midnightblue" d="M234.38,-211.5C255.42,-211.5 284.71,-211.5 311,-211.5"/>
<polygon fill="midnightblue" stroke="midnightblue" points="311.28,-215 321.28,-211.5 311.28,-208 311.28,-215"/>
</g>
<!-- Node17 -->
<g id="node17" class="node">
<title>Node17</title>
<g id="a_node17"><a xlink:href="float__convert_8h.html#ae9b18f6b920e3401ec41278b57e6817b" target="_top" xlink:title=" ">
<polygon fill="none" stroke="black" points="638.5,-12 638.5,-31 712.5,-31 712.5,-12 638.5,-12"/>
<text text-anchor="middle" x="675.5" y="-19" font-family="Helvetica,sans-Serif" font-size="10.00">float_to_int32</text>
</a>
</g>
</g>
<!-- Node16&#45;&gt;Node17 -->
<g id="edge16" class="edge">
<title>Node16&#45;&gt;Node17</title>
<path fill="none" stroke="midnightblue" d="M425.98,-202C472.21,-190.91 539.82,-168.35 583,-125.5 612.12,-96.6 588.98,-68.47 619,-40.5 621.97,-37.73 625.37,-35.36 628.99,-33.33"/>
<polygon fill="midnightblue" stroke="midnightblue" points="630.73,-36.38 638.3,-28.98 627.76,-30.04 630.73,-36.38"/>
</g>
<!-- Node18 -->
<g id="node18" class="node">
<title>Node18</title>
<g id="a_node18"><a xlink:href="process_8cpp.html#a159f752dbd8aa42d765e604910814129" target="_top" xlink:title=" ">
<polygon fill="none" stroke="black" points="495,-373 495,-392 564,-392 564,-373 495,-373"/>
<text text-anchor="middle" x="529.5" y="-380" font-family="Helvetica,sans-Serif" font-size="10.00">process_init</text>
</a>
</g>
</g>
<!-- Node16&#45;&gt;Node18 -->
<g id="edge17" class="edge">
<title>Node16&#45;&gt;Node18</title>
<path fill="none" stroke="midnightblue" d="M423.34,-221.05C429.3,-223.52 435.04,-226.61 440,-230.5 485.12,-265.88 511.66,-331.14 522.61,-363.41"/>
<polygon fill="midnightblue" stroke="midnightblue" points="519.3,-364.57 525.72,-372.99 525.96,-362.4 519.3,-364.57"/>
</g>
<!-- Node30 -->
<g id="node30" class="node">
<title>Node30</title>
<g id="a_node30"><a xlink:href="process_8cpp.html#a450bec865b55b9890f4050f1ab0dba5c" target="_top" xlink:title=" ">
<polygon fill="none" stroke="black" points="483,-202 483,-221 576,-221 576,-202 483,-202"/>
<text text-anchor="middle" x="529.5" y="-209" font-family="Helvetica,sans-Serif" font-size="10.00">process_samples</text>
</a>
</g>
</g>
<!-- Node16&#45;&gt;Node30 -->
<g id="edge29" class="edge">
<title>Node16&#45;&gt;Node30</title>
<path fill="none" stroke="midnightblue" d="M427.73,-211.5C442.15,-211.5 457.85,-211.5 472.47,-211.5"/>
<polygon fill="midnightblue" stroke="midnightblue" points="472.9,-215 482.9,-211.5 472.9,-208 472.9,-215"/>
</g>
<!-- Node19 -->
<g id="node19" class="node">
<title>Node19</title>
<g id="a_node19"><a xlink:href="noise__gate_8cpp.html#a949bfebe851dee44040d83bbd068dad1" target="_top" xlink:title="Initialise the effect.">
<polygon fill="none" stroke="black" points="649,-430 649,-449 702,-449 702,-430 649,-430"/>
<text text-anchor="middle" x="675.5" y="-437" font-family="Helvetica,sans-Serif" font-size="10.00">gate_init</text>
</a>
</g>
</g>
<!-- Node18&#45;&gt;Node19 -->
<g id="edge18" class="edge">
<title>Node18&#45;&gt;Node19</title>
<path fill="none" stroke="midnightblue" d="M551.42,-392.01C569.23,-399.99 595.59,-411.48 619,-420.5 625.51,-423.01 632.52,-425.54 639.28,-427.89"/>
<polygon fill="midnightblue" stroke="midnightblue" points="638.34,-431.27 648.93,-431.2 640.61,-424.65 638.34,-431.27"/>
</g>
<!-- Node21 -->
<g id="node21" class="node">
<title>Node21</title>
<g id="a_node21"><a xlink:href="noise__gate_8cpp.html#a4868a6f017c846668c1b09d32b833099" target="_top" xlink:title="Set the attack time in milliseconds.">
<polygon fill="none" stroke="black" points="632.5,-392 632.5,-411 718.5,-411 718.5,-392 632.5,-392"/>
<text text-anchor="middle" x="675.5" y="-399" font-family="Helvetica,sans-Serif" font-size="10.00">gate_set_attack</text>
</a>
</g>
</g>
<!-- Node18&#45;&gt;Node21 -->
<g id="edge20" class="edge">
<title>Node18&#45;&gt;Node21</title>
<path fill="none" stroke="midnightblue" d="M564.26,-386.95C581.61,-389.24 603.12,-392.08 622.52,-394.64"/>
<polygon fill="midnightblue" stroke="midnightblue" points="622.07,-398.11 632.45,-395.95 622.99,-391.17 622.07,-398.11"/>
</g>
<!-- Node22 -->
<g id="node22" class="node">
<title>Node22</title>
<g id="a_node22"><a xlink:href="noise__gate_8cpp.html#a184d915d5eb18d4743c6e3008bb47e62" target="_top" xlink:title="Set the buffer size in number of samples.">
<polygon fill="none" stroke="black" points="622.5,-506 622.5,-525 728.5,-525 728.5,-506 622.5,-506"/>
<text text-anchor="middle" x="675.5" y="-513" font-family="Helvetica,sans-Serif" font-size="10.00">gate_set_buffer_size</text>
</a>
</g>
</g>
<!-- Node18&#45;&gt;Node22 -->
<g id="edge21" class="edge">
<title>Node18&#45;&gt;Node22</title>
<path fill="none" stroke="midnightblue" d="M540.81,-392.28C551.89,-403.05 569.7,-421.16 583,-438.5 601.47,-462.57 595.27,-477.6 619,-496.5 621.28,-498.31 623.74,-499.96 626.31,-501.45"/>
<polygon fill="midnightblue" stroke="midnightblue" points="624.9,-504.66 635.41,-505.96 628,-498.38 624.9,-504.66"/>
</g>
<!-- Node23 -->
<g id="node23" class="node">
<title>Node23</title>
<g id="a_node23"><a xlink:href="noise__gate_8cpp.html#a4fccad713cee272e388c9c45fc97037e" target="_top" xlink:title="Set the hold time in milliseconds.">
<polygon fill="none" stroke="black" points="637,-354 637,-373 714,-373 714,-354 637,-354"/>
<text text-anchor="middle" x="675.5" y="-361" font-family="Helvetica,sans-Serif" font-size="10.00">gate_set_hold</text>
</a>
</g>
</g>
<!-- Node18&#45;&gt;Node23 -->
<g id="edge22" class="edge">
<title>Node18&#45;&gt;Node23</title>
<path fill="none" stroke="midnightblue" d="M564.26,-378.05C582.89,-375.59 606.34,-372.49 626.81,-369.79"/>
<polygon fill="midnightblue" stroke="midnightblue" points="627.44,-373.24 636.9,-368.46 626.52,-366.3 627.44,-373.24"/>
</g>
<!-- Node24 -->
<g id="node24" class="node">
<title>Node24</title>
<g id="a_node24"><a xlink:href="noise__gate_8cpp.html#abe525a07b8cb6f0557740cc4100428a9" target="_top" xlink:title="Set the release time in milliseconds.">
<polygon fill="none" stroke="black" points="630,-316 630,-335 721,-335 721,-316 630,-316"/>
<text text-anchor="middle" x="675.5" y="-323" font-family="Helvetica,sans-Serif" font-size="10.00">gate_set_release</text>
</a>
</g>
</g>
<!-- Node18&#45;&gt;Node24 -->
<g id="edge23" class="edge">
<title>Node18&#45;&gt;Node24</title>
<path fill="none" stroke="midnightblue" d="M551.42,-372.99C569.23,-365.01 595.59,-353.52 619,-344.5 624.29,-342.46 629.9,-340.42 635.44,-338.46"/>
<polygon fill="midnightblue" stroke="midnightblue" points="636.96,-341.63 645.26,-335.05 634.66,-335.02 636.96,-341.63"/>
</g>
<!-- Node25 -->
<g id="node25" class="node">
<title>Node25</title>
<g id="a_node25"><a xlink:href="noise__gate_8cpp.html#a2691256497a1cec4e14434f48eccfb56" target="_top" xlink:title="Set the sample rate in Hz.">
<polygon fill="none" stroke="black" points="619,-468 619,-487 732,-487 732,-468 619,-468"/>
<text text-anchor="middle" x="675.5" y="-475" font-family="Helvetica,sans-Serif" font-size="10.00">gate_set_sample_rate</text>
</a>
</g>
</g>
<!-- Node18&#45;&gt;Node25 -->
<g id="edge24" class="edge">
<title>Node18&#45;&gt;Node25</title>
<path fill="none" stroke="midnightblue" d="M539.4,-392.24C554.4,-408.15 586.3,-439.79 619,-458.5 622.63,-460.58 626.52,-462.48 630.5,-464.2"/>
<polygon fill="midnightblue" stroke="midnightblue" points="629.27,-467.48 639.86,-467.91 631.85,-460.97 629.27,-467.48"/>
</g>
<!-- Node28 -->
<g id="node28" class="node">
<title>Node28</title>
<g id="a_node28"><a xlink:href="noise__gate_8cpp.html#a82e62ed410acc03c8179d8245de13e12" target="_top" xlink:title="Set the threshold and hysteresis value in dBFS.">
<polygon fill="none" stroke="black" points="626,-278 626,-297 725,-297 725,-278 626,-278"/>
<text text-anchor="middle" x="675.5" y="-285" font-family="Helvetica,sans-Serif" font-size="10.00">gate_set_threshold</text>
</a>
</g>
</g>
<!-- Node18&#45;&gt;Node28 -->
<g id="edge27" class="edge">
<title>Node18&#45;&gt;Node28</title>
<path fill="none" stroke="midnightblue" d="M539.4,-372.76C554.4,-356.85 586.3,-325.21 619,-306.5 622.63,-304.42 626.52,-302.52 630.5,-300.8"/>
<polygon fill="midnightblue" stroke="midnightblue" points="631.85,-304.03 639.86,-297.09 629.27,-297.52 631.85,-304.03"/>
</g>
<!-- Node20 -->
<g id="node20" class="node">
<title>Node20</title>
<g id="a_node20"><a xlink:href="noise__gate_8cpp.html#a5d3ba76b4666ac1820b498aaf04ea22e" target="_top" xlink:title="Reset the state.">
<polygon fill="none" stroke="black" points="791,-424 791,-443 853,-443 853,-424 791,-424"/>
<text text-anchor="middle" x="822" y="-431" font-family="Helvetica,sans-Serif" font-size="10.00">gate_reset</text>
</a>
</g>
</g>
<!-- Node19&#45;&gt;Node20 -->
<g id="edge19" class="edge">
<title>Node19&#45;&gt;Node20</title>
<path fill="none" stroke="midnightblue" d="M702,-438.44C723.79,-437.54 755.52,-436.22 780.74,-435.17"/>
<polygon fill="midnightblue" stroke="midnightblue" points="780.9,-438.67 790.75,-434.76 780.61,-431.67 780.9,-438.67"/>
</g>
<!-- Node26 -->
<g id="node26" class="node">
<title>Node26</title>
<g id="a_node26"><a xlink:href="abstract__dsp__esp32_8c.html#ab721c839889c1267077f4cb3304b655d" target="_top" xlink:title=" ">
<polygon fill="none" stroke="black" points="768.5,-511.5 768.5,-541.5 875.5,-541.5 875.5,-511.5 768.5,-511.5"/>
<text text-anchor="start" x="776.5" y="-529.5" font-family="Helvetica,sans-Serif" font-size="10.00">dspal_biquad_design</text>
<text text-anchor="middle" x="822" y="-518.5" font-family="Helvetica,sans-Serif" font-size="10.00">_lowpass</text>
</a>
</g>
</g>
<!-- Node25&#45;&gt;Node26 -->
<g id="edge25" class="edge">
<title>Node25&#45;&gt;Node26</title>
<path fill="none" stroke="midnightblue" d="M704.7,-487.06C722.44,-493.08 745.9,-501.03 767.1,-508.22"/>
<polygon fill="midnightblue" stroke="midnightblue" points="766.06,-511.57 776.66,-511.46 768.31,-504.94 766.06,-511.57"/>
</g>
<!-- Node27 -->
<g id="node27" class="node">
<title>Node27</title>
<g id="a_node27"><a xlink:href="classshrapnel_1_1dsp_1_1IirFilter.html#aa09e7c1ab99d85c0fdd1c98c80636550" target="_top" xlink:title=" ">
<polygon fill="none" stroke="black" points="768,-462.5 768,-492.5 876,-492.5 876,-462.5 768,-462.5"/>
<text text-anchor="start" x="776" y="-480.5" font-family="Helvetica,sans-Serif" font-size="10.00">shrapnel::dsp::IirFilter</text>
<text text-anchor="middle" x="822" y="-469.5" font-family="Helvetica,sans-Serif" font-size="10.00">::set_coefficients</text>
</a>
</g>
</g>
<!-- Node25&#45;&gt;Node27 -->
<g id="edge26" class="edge">
<title>Node25&#45;&gt;Node27</title>
<path fill="none" stroke="midnightblue" d="M732.37,-477.5C740.61,-477.5 749.15,-477.5 757.54,-477.5"/>
<polygon fill="midnightblue" stroke="midnightblue" points="757.65,-481 767.65,-477.5 757.65,-474 757.65,-481"/>
</g>
<!-- Node29 -->
<g id="node29" class="node">
<title>Node29</title>
<g id="a_node29"><a xlink:href="noise__gate_8cpp.html#afb2354391bb81545d92334434552ab4b" target="_top" xlink:title=" ">
<polygon fill="none" stroke="black" points="789.5,-278 789.5,-297 854.5,-297 854.5,-278 789.5,-278"/>
<text text-anchor="middle" x="822" y="-285" font-family="Helvetica,sans-Serif" font-size="10.00">db_to_ratio</text>
</a>
</g>
</g>
<!-- Node28&#45;&gt;Node29 -->
<g id="edge28" class="edge">
<title>Node28&#45;&gt;Node29</title>
<path fill="none" stroke="midnightblue" d="M725.02,-287.5C742.54,-287.5 762.15,-287.5 779.05,-287.5"/>
<polygon fill="midnightblue" stroke="midnightblue" points="779.19,-291 789.19,-287.5 779.19,-284 779.19,-291"/>
</g>
<!-- Node30&#45;&gt;Node17 -->
<g id="edge31" class="edge">
<title>Node30&#45;&gt;Node17</title>
<path fill="none" stroke="midnightblue" d="M547.01,-201.84C558.69,-194.2 573.84,-182.5 583,-168.5 615.35,-119.05 578.39,-83.43 619,-40.5 621.95,-37.38 625.44,-34.77 629.2,-32.59"/>
<polygon fill="midnightblue" stroke="midnightblue" points="630.84,-35.69 638.37,-28.24 627.84,-29.36 630.84,-35.69"/>
</g>
<!-- Node30&#45;&gt;Node21 -->
<g id="edge37" class="edge">
<title>Node30&#45;&gt;Node21</title>
<path fill="none" stroke="midnightblue" d="M532.79,-221.22C540.1,-250.14 565.58,-336.44 619,-382.5 620.96,-384.19 623.07,-385.73 625.29,-387.13"/>
<polygon fill="midnightblue" stroke="midnightblue" points="623.81,-390.31 634.28,-391.91 627.09,-384.12 623.81,-390.31"/>
</g>
<!-- Node30&#45;&gt;Node23 -->
<g id="edge38" class="edge">
<title>Node30&#45;&gt;Node23</title>
<path fill="none" stroke="midnightblue" d="M534.28,-221.1C544.31,-245.38 573.97,-309.79 619,-344.5 621.74,-346.62 624.74,-348.51 627.87,-350.19"/>
<polygon fill="midnightblue" stroke="midnightblue" points="626.42,-353.37 636.96,-354.42 629.37,-347.03 626.42,-353.37"/>
</g>
<!-- Node30&#45;&gt;Node24 -->
<g id="edge39" class="edge">
<title>Node30&#45;&gt;Node24</title>
<path fill="none" stroke="midnightblue" d="M536.9,-221.04C550.08,-239.98 582.12,-282.58 619,-306.5 622.09,-308.5 625.41,-310.32 628.83,-311.96"/>
<polygon fill="midnightblue" stroke="midnightblue" points="627.5,-315.19 638.07,-315.91 630.25,-308.76 627.5,-315.19"/>
</g>
<!-- Node30&#45;&gt;Node28 -->
<g id="edge40" class="edge">
<title>Node30&#45;&gt;Node28</title>
<path fill="none" stroke="midnightblue" d="M543.11,-221.03C559.78,-233.29 590.38,-254.64 619,-268.5 623.35,-270.61 628,-272.59 632.69,-274.42"/>
<polygon fill="midnightblue" stroke="midnightblue" points="631.68,-277.77 642.27,-277.94 634.09,-271.2 631.68,-277.77"/>
</g>
<!-- Node31 -->
<g id="node31" class="node">
<title>Node31</title>
<g id="a_node31"><a xlink:href="process_8cpp.html#a9785ac35cd7c86538882d5311fd66bf1" target="_top" xlink:title=" ">
<polygon fill="none" stroke="black" points="633,-164 633,-183 718,-183 718,-164 633,-164"/>
<text text-anchor="middle" x="675.5" y="-171" font-family="Helvetica,sans-Serif" font-size="10.00">decibel_to_ratio</text>
</a>
</g>
</g>
<!-- Node30&#45;&gt;Node31 -->
<g id="edge30" class="edge">
<title>Node30&#45;&gt;Node31</title>
<path fill="none" stroke="midnightblue" d="M566.84,-201.91C585.58,-196.96 608.64,-190.88 628.61,-185.61"/>
<polygon fill="midnightblue" stroke="midnightblue" points="629.65,-188.96 638.42,-183.02 627.86,-182.19 629.65,-188.96"/>
</g>
<!-- Node32 -->
<g id="node32" class="node">
<title>Node32</title>
<g id="a_node32"><a xlink:href="noise__gate_8cpp.html#a129b18f80393706faa5a453417153a51" target="_top" xlink:title="Analyse the audio.">
<polygon fill="none" stroke="black" points="638.5,-126 638.5,-145 712.5,-145 712.5,-126 638.5,-126"/>
<text text-anchor="middle" x="675.5" y="-133" font-family="Helvetica,sans-Serif" font-size="10.00">gate_analyse</text>
</a>
</g>
</g>
<!-- Node30&#45;&gt;Node32 -->
<g id="edge32" class="edge">
<title>Node30&#45;&gt;Node32</title>
<path fill="none" stroke="midnightblue" d="M543.11,-201.97C559.78,-189.71 590.38,-168.36 619,-154.5 623.35,-152.39 628,-150.41 632.69,-148.58"/>
<polygon fill="midnightblue" stroke="midnightblue" points="634.09,-151.8 642.27,-145.06 631.68,-145.23 634.09,-151.8"/>
</g>
<!-- Node35 -->
<g id="node35" class="node">
<title>Node35</title>
<g id="a_node35"><a xlink:href="noise__gate_8cpp.html#a3a59d391339a038f91650058680b00d6" target="_top" xlink:title="Apply the precalculated gain to the audio.">
<polygon fill="none" stroke="black" points="638,-88 638,-107 713,-107 713,-88 638,-88"/>
<text text-anchor="middle" x="675.5" y="-95" font-family="Helvetica,sans-Serif" font-size="10.00">gate_process</text>
</a>
</g>
</g>
<!-- Node30&#45;&gt;Node35 -->
<g id="edge35" class="edge">
<title>Node30&#45;&gt;Node35</title>
<path fill="none" stroke="midnightblue" d="M544.34,-201.84C555.48,-193.69 571.18,-181.32 583,-168.5 602.06,-147.84 596.58,-133.46 619,-116.5 621.98,-114.25 625.24,-112.25 628.65,-110.48"/>
<polygon fill="midnightblue" stroke="midnightblue" points="630.21,-113.62 637.89,-106.32 627.34,-107.23 630.21,-113.62"/>
</g>
<!-- Node37 -->
<g id="node37" class="node">
<title>Node37</title>
<g id="a_node37"><a xlink:href="profiling_8cpp.html#a3171d2be3fbf00e49982243e9869735a" target="_top" xlink:title=" ">
<polygon fill="none" stroke="black" points="622.5,-50 622.5,-69 728.5,-69 728.5,-50 622.5,-50"/>
<text text-anchor="middle" x="675.5" y="-57" font-family="Helvetica,sans-Serif" font-size="10.00">profiling_mark_stage</text>
</a>
</g>
</g>
<!-- Node30&#45;&gt;Node37 -->
<g id="edge41" class="edge">
<title>Node30&#45;&gt;Node37</title>
<path fill="none" stroke="midnightblue" d="M546.09,-201.87C557.61,-194.08 572.97,-182.18 583,-168.5 608.47,-133.75 587.77,-108.18 619,-78.5 620.65,-76.93 622.43,-75.49 624.32,-74.17"/>
<polygon fill="midnightblue" stroke="midnightblue" points="626.18,-77.14 633.09,-69.11 622.68,-71.08 626.18,-77.14"/>
</g>
<!-- Node38 -->
<g id="node38" class="node">
<title>Node38</title>
<g id="a_node38"><a xlink:href="profiling_8cpp.html#ac05fdc10ded37340f2ab202bbc184d20" target="_top" xlink:title=" ">
<polygon fill="none" stroke="black" points="638.5,-240 638.5,-259 712.5,-259 712.5,-240 638.5,-240"/>
<text text-anchor="middle" x="675.5" y="-247" font-family="Helvetica,sans-Serif" font-size="10.00">profiling_start</text>
</a>
</g>
</g>
<!-- Node30&#45;&gt;Node38 -->
<g id="edge42" class="edge">
<title>Node30&#45;&gt;Node38</title>
<path fill="none" stroke="midnightblue" d="M566.84,-221.09C585.58,-226.04 608.64,-232.12 628.61,-237.39"/>
<polygon fill="midnightblue" stroke="midnightblue" points="627.86,-240.81 638.42,-239.98 629.65,-234.04 627.86,-240.81"/>
</g>
<!-- Node39 -->
<g id="node39" class="node">
<title>Node39</title>
<g id="a_node39"><a xlink:href="profiling_8cpp.html#a9f4516d77db32a65ee99933c6c9d3802" target="_top" xlink:title=" ">
<polygon fill="none" stroke="black" points="638.5,-202 638.5,-221 712.5,-221 712.5,-202 638.5,-202"/>
<text text-anchor="middle" x="675.5" y="-209" font-family="Helvetica,sans-Serif" font-size="10.00">profiling_stop</text>
</a>
</g>
</g>
<!-- Node30&#45;&gt;Node39 -->
<g id="edge43" class="edge">
<title>Node30&#45;&gt;Node39</title>
<path fill="none" stroke="midnightblue" d="M576.06,-211.5C592.71,-211.5 611.55,-211.5 628.26,-211.5"/>
<polygon fill="midnightblue" stroke="midnightblue" points="628.35,-215 638.35,-211.5 628.35,-208 628.35,-215"/>
</g>
<!-- Node33 -->
<g id="node33" class="node">
<title>Node33</title>
<g id="a_node33"><a xlink:href="classshrapnel_1_1dsp_1_1IirFilter.html#a53cb5a72d2a310cd4b35d4329af682f0" target="_top" xlink:title=" ">
<polygon fill="none" stroke="black" points="768,-123.5 768,-153.5 876,-153.5 876,-123.5 768,-123.5"/>
<text text-anchor="start" x="776" y="-141.5" font-family="Helvetica,sans-Serif" font-size="10.00">shrapnel::dsp::IirFilter</text>
<text text-anchor="middle" x="822" y="-130.5" font-family="Helvetica,sans-Serif" font-size="10.00">::process</text>
</a>
</g>
</g>
<!-- Node32&#45;&gt;Node33 -->
<g id="edge33" class="edge">
<title>Node32&#45;&gt;Node33</title>
<path fill="none" stroke="midnightblue" d="M712.59,-136.25C726.31,-136.53 742.36,-136.87 757.85,-137.19"/>
<polygon fill="midnightblue" stroke="midnightblue" points="757.85,-140.69 767.92,-137.4 757.99,-133.69 757.85,-140.69"/>
</g>
<!-- Node34 -->
<g id="node34" class="node">
<title>Node34</title>
<g id="a_node34"><a xlink:href="iir__universal_8c.html#a738b77e8a79f0c754dba3af19fbd4e30" target="_top" xlink:title=" ">
<polygon fill="none" stroke="black" points="912,-129 912,-148 976,-148 976,-129 912,-129"/>
<text text-anchor="middle" x="944" y="-136" font-family="Helvetica,sans-Serif" font-size="10.00">iir_process</text>
</a>
</g>
</g>
<!-- Node33&#45;&gt;Node34 -->
<g id="edge34" class="edge">
<title>Node33&#45;&gt;Node34</title>
<path fill="none" stroke="midnightblue" d="M876.33,-138.5C884.87,-138.5 893.59,-138.5 901.79,-138.5"/>
<polygon fill="midnightblue" stroke="midnightblue" points="901.85,-142 911.85,-138.5 901.85,-135 901.85,-142"/>
</g>
<!-- Node36 -->
<g id="node36" class="node">
<title>Node36</title>
<g id="a_node36"><a xlink:href="abstract__dsp__esp32_8c.html#a52d208742d325a0cdb7225bd9fe0e902" target="_top" xlink:title=" ">
<polygon fill="none" stroke="black" points="783,-85 783,-104 861,-104 861,-85 783,-85"/>
<text text-anchor="middle" x="822" y="-92" font-family="Helvetica,sans-Serif" font-size="10.00">dspal_multiply</text>
</a>
</g>
</g>
<!-- Node35&#45;&gt;Node36 -->
<g id="edge36" class="edge">
<title>Node35&#45;&gt;Node36</title>
<path fill="none" stroke="midnightblue" d="M713.34,-96.74C731.41,-96.36 753.41,-95.9 772.81,-95.5"/>
<polygon fill="midnightblue" stroke="midnightblue" points="773.04,-99 782.97,-95.29 772.9,-92 773.04,-99"/>
</g>
<!-- Node43 -->
<g id="node43" class="node">
<title>Node43</title>
<g id="a_node43"><a xlink:href="pcm3060_8c.html#aea1e9d4122342b16a072fc515ed9c4a2" target="_top" xlink:title=" ">
<polygon fill="none" stroke="black" points="344,-97 344,-116 405,-116 405,-97 344,-97"/>
<text text-anchor="middle" x="374.5" y="-104" font-family="Helvetica,sans-Serif" font-size="10.00">_i2c_write</text>
</a>
</g>
</g>
<!-- Node42&#45;&gt;Node43 -->
<g id="edge47" class="edge">
<title>Node42&#45;&gt;Node43</title>
<path fill="none" stroke="midnightblue" d="M256.82,-100.25C281.59,-101.58 310.85,-103.14 333.87,-104.38"/>
<polygon fill="midnightblue" stroke="midnightblue" points="333.8,-107.88 343.97,-104.92 334.17,-100.89 333.8,-107.88"/>
</g>
<!-- Node45 -->
<g id="node45" class="node">
<title>Node45</title>
<g id="a_node45"><a xlink:href="pcm3060_8c.html#a7a286e614c8a6c8e30f9408395cbd4cc" target="_top" xlink:title=" ">
<polygon fill="none" stroke="black" points="343.5,-59 343.5,-78 405.5,-78 405.5,-59 343.5,-59"/>
<text text-anchor="middle" x="374.5" y="-66" font-family="Helvetica,sans-Serif" font-size="10.00">_initialised</text>
</a>
</g>
</g>
<!-- Node42&#45;&gt;Node45 -->
<g id="edge49" class="edge">
<title>Node42&#45;&gt;Node45</title>
<path fill="none" stroke="midnightblue" d="M256.82,-88.64C281.42,-84.39 310.45,-79.38 333.4,-75.42"/>
<polygon fill="midnightblue" stroke="midnightblue" points="334.22,-78.83 343.48,-73.68 333.03,-71.93 334.22,-78.83"/>
</g>
<!-- Node44 -->
<g id="node44" class="node">
<title>Node44</title>
<g id="a_node44"><a xlink:href="i2c_8c.html#a45e8e37789f0b27a7fe24b58795787f7" target="_top" xlink:title=" ">
<polygon fill="none" stroke="black" points="490,-97 490,-116 569,-116 569,-97 490,-97"/>
<text text-anchor="middle" x="529.5" y="-104" font-family="Helvetica,sans-Serif" font-size="10.00">i2c_write_byte</text>
</a>
</g>
</g>
<!-- Node43&#45;&gt;Node44 -->
<g id="edge48" class="edge">
<title>Node43&#45;&gt;Node44</title>
<path fill="none" stroke="midnightblue" d="M405.36,-106.5C426.52,-106.5 455.36,-106.5 479.82,-106.5"/>
<polygon fill="midnightblue" stroke="midnightblue" points="480,-110 490,-106.5 480,-103 480,-110"/>
</g>
</g>
</svg>
