<?xml version="1.0" encoding="UTF-8" standalone="no"?>
<!DOCTYPE svg PUBLIC "-//W3C//DTD SVG 1.1//EN"
 "http://www.w3.org/Graphics/SVG/1.1/DTD/svg11.dtd">
<!-- Generated by graphviz version 3.0.0 (20221109.1736)
 -->
<!-- Title: gate_set_sample_rate Pages: 1 -->
<svg width="265pt" height="88pt"
 viewBox="0.00 0.00 265.00 88.00" xmlns="http://www.w3.org/2000/svg" xmlns:xlink="http://www.w3.org/1999/xlink">
<g id="graph0" class="graph" transform="scale(1 1) rotate(0) translate(4 84)">
<title>gate_set_sample_rate</title>
<!-- Node1 -->
<g id="node1" class="node">
<title>Node1</title>
<g id="a_node1"><a xlink:title="Set the sample rate in Hz.">
<polygon fill="#bfbfbf" stroke="black" points="0,-30 0,-49 113,-49 113,-30 0,-30"/>
<text text-anchor="middle" x="56.5" y="-37" font-family="Helvetica,sans-Serif" font-size="10.00">gate_set_sample_rate</text>
</a>
</g>
</g>
<!-- Node2 -->
<g id="node2" class="node">
<title>Node2</title>
<g id="a_node2"><a xlink:href="abstract__dsp__esp32_8c.html#ab721c839889c1267077f4cb3304b655d" target="_top" xlink:title=" ">
<polygon fill="none" stroke="black" points="149.5,-49.5 149.5,-79.5 256.5,-79.5 256.5,-49.5 149.5,-49.5"/>
<text text-anchor="start" x="157.5" y="-67.5" font-family="Helvetica,sans-Serif" font-size="10.00">dspal_biquad_design</text>
<text text-anchor="middle" x="203" y="-56.5" font-family="Helvetica,sans-Serif" font-size="10.00">_lowpass</text>
</a>
</g>
</g>
<!-- Node1&#45;&gt;Node2 -->
<g id="edge1" class="edge">
<title>Node1&#45;&gt;Node2</title>
<path fill="none" stroke="midnightblue" d="M112.54,-49.02C121.35,-50.55 130.52,-52.13 139.49,-53.68"/>
<polygon fill="midnightblue" stroke="midnightblue" points="139.04,-57.16 149.49,-55.42 140.24,-50.26 139.04,-57.16"/>
</g>
<!-- Node3 -->
<g id="node3" class="node">
<title>Node3</title>
<g id="a_node3"><a xlink:href="classshrapnel_1_1dsp_1_1IirFilter.html#aa09e7c1ab99d85c0fdd1c98c80636550" target="_top" xlink:title=" ">
<polygon fill="none" stroke="black" points="149,-0.5 149,-30.5 257,-30.5 257,-0.5 149,-0.5"/>
<text text-anchor="start" x="157" y="-18.5" font-family="Helvetica,sans-Serif" font-size="10.00">shrapnel::dsp::IirFilter</text>
<text text-anchor="middle" x="203" y="-7.5" font-family="Helvetica,sans-Serif" font-size="10.00">::set_coefficients</text>
</a>
</g>
</g>
<!-- Node1&#45;&gt;Node3 -->
<g id="edge2" class="edge">
<title>Node1&#45;&gt;Node3</title>
<path fill="none" stroke="midnightblue" d="M113.37,-30.22C121.61,-28.85 130.15,-27.43 138.54,-26.04"/>
<polygon fill="midnightblue" stroke="midnightblue" points="139.36,-29.45 148.65,-24.36 138.22,-22.55 139.36,-29.45"/>
</g>
</g>
</svg>
