<?xml version="1.0" encoding="UTF-8" standalone="no"?>
<!DOCTYPE svg PUBLIC "-//W3C//DTD SVG 1.1//EN"
 "http://www.w3.org/Graphics/SVG/1.1/DTD/svg11.dtd">
<!-- Generated by graphviz version 3.0.0 (20221109.1736)
 -->
<!-- Title: gate_reset Pages: 1 -->
<svg width="637pt" height="28pt"
 viewBox="0.00 0.00 637.00 28.00" xmlns="http://www.w3.org/2000/svg" xmlns:xlink="http://www.w3.org/1999/xlink">
<g id="graph0" class="graph" transform="scale(1 1) rotate(0) translate(4 24)">
<title>gate_reset</title>
<!-- Node1 -->
<g id="node1" class="node">
<title>Node1</title>
<g id="a_node1"><a xlink:title="Reset the state.">
<polygon fill="#bfbfbf" stroke="black" points="567,-0.5 567,-19.5 629,-19.5 629,-0.5 567,-0.5"/>
<text text-anchor="middle" x="598" y="-7.5" font-family="Helvetica,sans-Serif" font-size="10.00">gate_reset</text>
</a>
</g>
</g>
<!-- Node2 -->
<g id="node2" class="node">
<title>Node2</title>
<g id="a_node2"><a xlink:href="noise__gate_8cpp.html#a949bfebe851dee44040d83bbd068dad1" target="_top" xlink:title="Initialise the effect.">
<polygon fill="none" stroke="black" points="478,-0.5 478,-19.5 531,-19.5 531,-0.5 478,-0.5"/>
<text text-anchor="middle" x="504.5" y="-7.5" font-family="Helvetica,sans-Serif" font-size="10.00">gate_init</text>
</a>
</g>
</g>
<!-- Node1&#45;&gt;Node2 -->
<g id="edge1" class="edge">
<title>Node1&#45;&gt;Node2</title>
<path fill="none" stroke="midnightblue" d="M556.76,-10C548.04,-10 539.06,-10 531.09,-10"/>
<polygon fill="midnightblue" stroke="midnightblue" points="556.79,-13.5 566.79,-10 556.79,-6.5 556.79,-13.5"/>
</g>
<!-- Node3 -->
<g id="node3" class="node">
<title>Node3</title>
<g id="a_node3"><a xlink:href="process_8cpp.html#a98369bdde76db63c92e6173d29c6dc78" target="_top" xlink:title=" ">
<polygon fill="none" stroke="black" points="373,-0.5 373,-19.5 442,-19.5 442,-0.5 373,-0.5"/>
<text text-anchor="middle" x="407.5" y="-7.5" font-family="Helvetica,sans-Serif" font-size="10.00">process_init</text>
</a>
</g>
</g>
<!-- Node2&#45;&gt;Node3 -->
<g id="edge2" class="edge">
<title>Node2&#45;&gt;Node3</title>
<path fill="none" stroke="midnightblue" d="M467.43,-10C459.17,-10 450.43,-10 442.28,-10"/>
<polygon fill="midnightblue" stroke="midnightblue" points="467.54,-13.5 477.54,-10 467.54,-6.5 467.54,-13.5"/>
</g>
<!-- Node4 -->
<g id="node4" class="node">
<title>Node4</title>
<g id="a_node4"><a xlink:href="i2s_8cpp.html#a4e37f563a34c1a559515cc40782caf07" target="_top" xlink:title=" ">
<polygon fill="none" stroke="black" points="231,-0.5 231,-19.5 337,-19.5 337,-0.5 231,-0.5"/>
<text text-anchor="middle" x="284" y="-7.5" font-family="Helvetica,sans-Serif" font-size="10.00">i2s_processing_task</text>
</a>
</g>
</g>
<!-- Node3&#45;&gt;Node4 -->
<g id="edge3" class="edge">
<title>Node3&#45;&gt;Node4</title>
<path fill="none" stroke="midnightblue" d="M362.74,-10C354.42,-10 345.64,-10 337.1,-10"/>
<polygon fill="midnightblue" stroke="midnightblue" points="362.98,-13.5 372.98,-10 362.98,-6.5 362.98,-13.5"/>
</g>
<!-- Node5 -->
<g id="node5" class="node">
<title>Node5</title>
<g id="a_node5"><a xlink:href="i2s_8cpp.html#ab949ae727fd1608d465238ba29ab2dab" target="_top" xlink:title=" ">
<polygon fill="none" stroke="black" points="136,-0.5 136,-19.5 195,-19.5 195,-0.5 136,-0.5"/>
<text text-anchor="middle" x="165.5" y="-7.5" font-family="Helvetica,sans-Serif" font-size="10.00">i2s_setup</text>
</a>
</g>
</g>
<!-- Node4&#45;&gt;Node5 -->
<g id="edge4" class="edge">
<title>Node4&#45;&gt;Node5</title>
<path fill="none" stroke="midnightblue" d="M220.81,-10C211.89,-10 203.1,-10 195.27,-10"/>
<polygon fill="midnightblue" stroke="midnightblue" points="220.88,-13.5 230.88,-10 220.88,-6.5 220.88,-13.5"/>
</g>
<!-- Node6 -->
<g id="node6" class="node">
<title>Node6</title>
<g id="a_node6"><a xlink:href="namespaceshrapnel.html#a9f09f4ea750643310af9143a53735b7d" target="_top" xlink:title=" ">
<polygon fill="none" stroke="black" points="0,-0.5 0,-19.5 100,-19.5 100,-0.5 0,-0.5"/>
<text text-anchor="middle" x="50" y="-7.5" font-family="Helvetica,sans-Serif" font-size="10.00">shrapnel::app_main</text>
</a>
</g>
</g>
<!-- Node5&#45;&gt;Node6 -->
<g id="edge5" class="edge">
<title>Node5&#45;&gt;Node6</title>
<path fill="none" stroke="midnightblue" d="M125.85,-10C117.66,-10 108.91,-10 100.39,-10"/>
<polygon fill="midnightblue" stroke="midnightblue" points="125.86,-13.5 135.86,-10 125.86,-6.5 125.86,-13.5"/>
</g>
</g>
</svg>
