<?xml version="1.0" encoding="UTF-8" standalone="no"?>
<!DOCTYPE svg PUBLIC "-//W3C//DTD SVG 1.1//EN"
 "http://www.w3.org/Graphics/SVG/1.1/DTD/svg11.dtd">
<!-- Generated by graphviz version 3.0.0 (20221109.1736)
 -->
<!-- Title: gate_set_threshold Pages: 1 -->
<svg width="609pt" height="66pt"
 viewBox="0.00 0.00 609.00 66.00" xmlns="http://www.w3.org/2000/svg" xmlns:xlink="http://www.w3.org/1999/xlink">
<g id="graph0" class="graph" transform="scale(1 1) rotate(0) translate(4 62)">
<title>gate_set_threshold</title>
<!-- Node1 -->
<g id="node1" class="node">
<title>Node1</title>
<g id="a_node1"><a xlink:title="Set the threshold and hysteresis value in dBFS.">
<polygon fill="#bfbfbf" stroke="black" points="502,-19.5 502,-38.5 601,-38.5 601,-19.5 502,-19.5"/>
<text text-anchor="middle" x="551.5" y="-26.5" font-family="Helvetica,sans-Serif" font-size="10.00">gate_set_threshold</text>
</a>
</g>
</g>
<!-- Node2 -->
<g id="node2" class="node">
<title>Node2</title>
<g id="a_node2"><a xlink:href="process_8cpp.html#a98369bdde76db63c92e6173d29c6dc78" target="_top" xlink:title=" ">
<polygon fill="none" stroke="black" points="385,-38.5 385,-57.5 454,-57.5 454,-38.5 385,-38.5"/>
<text text-anchor="middle" x="419.5" y="-45.5" font-family="Helvetica,sans-Serif" font-size="10.00">process_init</text>
</a>
</g>
</g>
<!-- Node1&#45;&gt;Node2 -->
<g id="edge1" class="edge">
<title>Node1&#45;&gt;Node2</title>
<path fill="none" stroke="midnightblue" d="M491.55,-37.62C478.73,-39.49 465.59,-41.41 454.16,-43.08"/>
<polygon fill="midnightblue" stroke="midnightblue" points="492.33,-41.04 501.72,-36.13 491.32,-34.11 492.33,-41.04"/>
</g>
<!-- Node6 -->
<g id="node6" class="node">
<title>Node6</title>
<g id="a_node6"><a xlink:href="process_8cpp.html#a450bec865b55b9890f4050f1ab0dba5c" target="_top" xlink:title=" ">
<polygon fill="none" stroke="black" points="373,-0.5 373,-19.5 466,-19.5 466,-0.5 373,-0.5"/>
<text text-anchor="middle" x="419.5" y="-7.5" font-family="Helvetica,sans-Serif" font-size="10.00">process_samples</text>
</a>
</g>
</g>
<!-- Node1&#45;&gt;Node6 -->
<g id="edge5" class="edge">
<title>Node1&#45;&gt;Node6</title>
<path fill="none" stroke="midnightblue" d="M491.73,-20.41C483.14,-19.15 474.39,-17.88 466.11,-16.67"/>
<polygon fill="midnightblue" stroke="midnightblue" points="491.32,-23.89 501.72,-21.87 492.33,-16.96 491.32,-23.89"/>
</g>
<!-- Node3 -->
<g id="node3" class="node">
<title>Node3</title>
<g id="a_node3"><a xlink:href="i2s_8cpp.html#a4e37f563a34c1a559515cc40782caf07" target="_top" xlink:title=" ">
<polygon fill="none" stroke="black" points="231,-19.5 231,-38.5 337,-38.5 337,-19.5 231,-19.5"/>
<text text-anchor="middle" x="284" y="-26.5" font-family="Helvetica,sans-Serif" font-size="10.00">i2s_processing_task</text>
</a>
</g>
</g>
<!-- Node2&#45;&gt;Node3 -->
<g id="edge2" class="edge">
<title>Node2&#45;&gt;Node3</title>
<path fill="none" stroke="midnightblue" d="M374.61,-41.75C362.63,-40.05 349.53,-38.18 337.13,-36.42"/>
<polygon fill="midnightblue" stroke="midnightblue" points="374.42,-45.26 384.81,-43.21 375.41,-38.33 374.42,-45.26"/>
</g>
<!-- Node4 -->
<g id="node4" class="node">
<title>Node4</title>
<g id="a_node4"><a xlink:href="i2s_8cpp.html#ab949ae727fd1608d465238ba29ab2dab" target="_top" xlink:title=" ">
<polygon fill="none" stroke="black" points="136,-19.5 136,-38.5 195,-38.5 195,-19.5 136,-19.5"/>
<text text-anchor="middle" x="165.5" y="-26.5" font-family="Helvetica,sans-Serif" font-size="10.00">i2s_setup</text>
</a>
</g>
</g>
<!-- Node3&#45;&gt;Node4 -->
<g id="edge3" class="edge">
<title>Node3&#45;&gt;Node4</title>
<path fill="none" stroke="midnightblue" d="M220.81,-29C211.89,-29 203.1,-29 195.27,-29"/>
<polygon fill="midnightblue" stroke="midnightblue" points="220.88,-32.5 230.88,-29 220.88,-25.5 220.88,-32.5"/>
</g>
<!-- Node5 -->
<g id="node5" class="node">
<title>Node5</title>
<g id="a_node5"><a xlink:href="namespaceshrapnel.html#a9f09f4ea750643310af9143a53735b7d" target="_top" xlink:title=" ">
<polygon fill="none" stroke="black" points="0,-19.5 0,-38.5 100,-38.5 100,-19.5 0,-19.5"/>
<text text-anchor="middle" x="50" y="-26.5" font-family="Helvetica,sans-Serif" font-size="10.00">shrapnel::app_main</text>
</a>
</g>
</g>
<!-- Node4&#45;&gt;Node5 -->
<g id="edge4" class="edge">
<title>Node4&#45;&gt;Node5</title>
<path fill="none" stroke="midnightblue" d="M125.85,-29C117.66,-29 108.91,-29 100.39,-29"/>
<polygon fill="midnightblue" stroke="midnightblue" points="125.86,-32.5 135.86,-29 125.86,-25.5 125.86,-32.5"/>
</g>
<!-- Node6&#45;&gt;Node3 -->
<g id="edge6" class="edge">
<title>Node6&#45;&gt;Node3</title>
<path fill="none" stroke="midnightblue" d="M362.78,-17.93C354.32,-19.13 345.63,-20.37 337.25,-21.56"/>
<polygon fill="midnightblue" stroke="midnightblue" points="363.52,-21.36 372.93,-16.49 362.54,-14.43 363.52,-21.36"/>
</g>
</g>
</svg>
