<?xml version="1.0" encoding="UTF-8" standalone="no"?>
<!DOCTYPE svg PUBLIC "-//W3C//DTD SVG 1.1//EN"
 "http://www.w3.org/Graphics/SVG/1.1/DTD/svg11.dtd">
<!-- Generated by graphviz version 3.0.0 (20221109.1736)
 -->
<!-- Title: gate_analyse Pages: 1 -->
<svg width="326pt" height="39pt"
 viewBox="0.00 0.00 326.00 39.00" xmlns="http://www.w3.org/2000/svg" xmlns:xlink="http://www.w3.org/1999/xlink">
<g id="graph0" class="graph" transform="scale(1 1) rotate(0) translate(4 35)">
<title>gate_analyse</title>
<!-- Node1 -->
<g id="node1" class="node">
<title>Node1</title>
<g id="a_node1"><a xlink:title="Analyse the audio.">
<polygon fill="#bfbfbf" stroke="black" points="0,-6 0,-25 74,-25 74,-6 0,-6"/>
<text text-anchor="middle" x="37" y="-13" font-family="Helvetica,sans-Serif" font-size="10.00">gate_analyse</text>
</a>
</g>
</g>
<!-- Node2 -->
<g id="node2" class="node">
<title>Node2</title>
<g id="a_node2"><a xlink:href="classshrapnel_1_1dsp_1_1IirFilter.html#a53cb5a72d2a310cd4b35d4329af682f0" target="_top" xlink:title=" ">
<polygon fill="none" stroke="black" points="110,-0.5 110,-30.5 218,-30.5 218,-0.5 110,-0.5"/>
<text text-anchor="start" x="118" y="-18.5" font-family="Helvetica,sans-Serif" font-size="10.00">shrapnel::dsp::IirFilter</text>
<text text-anchor="middle" x="164" y="-7.5" font-family="Helvetica,sans-Serif" font-size="10.00">::process</text>
</a>
</g>
</g>
<!-- Node1&#45;&gt;Node2 -->
<g id="edge1" class="edge">
<title>Node1&#45;&gt;Node2</title>
<path fill="none" stroke="midnightblue" d="M74.16,-15.5C82.14,-15.5 90.82,-15.5 99.53,-15.5"/>
<polygon fill="midnightblue" stroke="midnightblue" points="99.72,-19 109.72,-15.5 99.72,-12 99.72,-19"/>
</g>
<!-- Node3 -->
<g id="node3" class="node">
<title>Node3</title>
<g id="a_node3"><a xlink:href="iir__universal_8c.html#a738b77e8a79f0c754dba3af19fbd4e30" target="_top" xlink:title=" ">
<polygon fill="none" stroke="black" points="254,-6 254,-25 318,-25 318,-6 254,-6"/>
<text text-anchor="middle" x="286" y="-13" font-family="Helvetica,sans-Serif" font-size="10.00">iir_process</text>
</a>
</g>
</g>
<!-- Node2&#45;&gt;Node3 -->
<g id="edge2" class="edge">
<title>Node2&#45;&gt;Node3</title>
<path fill="none" stroke="midnightblue" d="M218.33,-15.5C226.87,-15.5 235.59,-15.5 243.79,-15.5"/>
<polygon fill="midnightblue" stroke="midnightblue" points="243.85,-19 253.85,-15.5 243.85,-12 243.85,-19"/>
</g>
</g>
</svg>
