<?xml version="1.0" encoding="UTF-8" standalone="no"?>
<!DOCTYPE svg PUBLIC "-//W3C//DTD SVG 1.1//EN"
 "http://www.w3.org/Graphics/SVG/1.1/DTD/svg11.dtd">
<!-- Generated by graphviz version 3.0.0 (20221109.1736)
 -->
<!-- Title: pcm3060_power_down Pages: 1 -->
<svg width="337pt" height="66pt"
 viewBox="0.00 0.00 337.00 66.00" xmlns="http://www.w3.org/2000/svg" xmlns:xlink="http://www.w3.org/1999/xlink">
<g id="graph0" class="graph" transform="scale(1 1) rotate(0) translate(4 62)">
<title>pcm3060_power_down</title>
<!-- Node1 -->
<g id="node1" class="node">
<title>Node1</title>
<g id="a_node1"><a xlink:title="perform power down sequence">
<polygon fill="#bfbfbf" stroke="black" points="0,-19.5 0,-38.5 116,-38.5 116,-19.5 0,-19.5"/>
<text text-anchor="middle" x="58" y="-26.5" font-family="Helvetica,sans-Serif" font-size="10.00">pcm3060_power_down</text>
</a>
</g>
</g>
<!-- Node2 -->
<g id="node2" class="node">
<title>Node2</title>
<g id="a_node2"><a xlink:href="pcm3060_8c.html#aea1e9d4122342b16a072fc515ed9c4a2" target="_top" xlink:title=" ">
<polygon fill="none" stroke="black" points="152.5,-38.5 152.5,-57.5 213.5,-57.5 213.5,-38.5 152.5,-38.5"/>
<text text-anchor="middle" x="183" y="-45.5" font-family="Helvetica,sans-Serif" font-size="10.00">_i2c_write</text>
</a>
</g>
</g>
<!-- Node1&#45;&gt;Node2 -->
<g id="edge1" class="edge">
<title>Node1&#45;&gt;Node2</title>
<path fill="none" stroke="midnightblue" d="M116.18,-37.83C125.1,-39.21 134.14,-40.61 142.55,-41.91"/>
<polygon fill="midnightblue" stroke="midnightblue" points="142.02,-45.37 152.44,-43.43 143.09,-38.45 142.02,-45.37"/>
</g>
<!-- Node4 -->
<g id="node4" class="node">
<title>Node4</title>
<g id="a_node4"><a xlink:href="pcm3060_8c.html#a7a286e614c8a6c8e30f9408395cbd4cc" target="_top" xlink:title=" ">
<polygon fill="none" stroke="black" points="152,-0.5 152,-19.5 214,-19.5 214,-0.5 152,-0.5"/>
<text text-anchor="middle" x="183" y="-7.5" font-family="Helvetica,sans-Serif" font-size="10.00">_initialised</text>
</a>
</g>
</g>
<!-- Node1&#45;&gt;Node4 -->
<g id="edge3" class="edge">
<title>Node1&#45;&gt;Node4</title>
<path fill="none" stroke="midnightblue" d="M116.18,-20.17C124.82,-18.83 133.58,-17.48 141.77,-16.21"/>
<polygon fill="midnightblue" stroke="midnightblue" points="142.43,-19.65 151.78,-14.67 141.37,-12.74 142.43,-19.65"/>
</g>
<!-- Node3 -->
<g id="node3" class="node">
<title>Node3</title>
<g id="a_node3"><a xlink:href="i2c_8c.html#a45e8e37789f0b27a7fe24b58795787f7" target="_top" xlink:title=" ">
<polygon fill="none" stroke="black" points="250,-38.5 250,-57.5 329,-57.5 329,-38.5 250,-38.5"/>
<text text-anchor="middle" x="289.5" y="-45.5" font-family="Helvetica,sans-Serif" font-size="10.00">i2c_write_byte</text>
</a>
</g>
</g>
<!-- Node2&#45;&gt;Node3 -->
<g id="edge2" class="edge">
<title>Node2&#45;&gt;Node3</title>
<path fill="none" stroke="midnightblue" d="M213.67,-48C221.73,-48 230.69,-48 239.52,-48"/>
<polygon fill="midnightblue" stroke="midnightblue" points="239.77,-51.5 249.77,-48 239.77,-44.5 239.77,-51.5"/>
</g>
</g>
</svg>
