<?xml version="1.0" encoding="UTF-8" standalone="no"?>
<!DOCTYPE svg PUBLIC "-//W3C//DTD SVG 1.1//EN"
 "http://www.w3.org/Graphics/SVG/1.1/DTD/svg11.dtd">
<!-- Generated by graphviz version 3.0.0 (20221109.1736)
 -->
<!-- Title: pcm3060_power_up Pages: 1 -->
<svg width="325pt" height="66pt"
 viewBox="0.00 0.00 325.00 66.00" xmlns="http://www.w3.org/2000/svg" xmlns:xlink="http://www.w3.org/1999/xlink">
<g id="graph0" class="graph" transform="scale(1 1) rotate(0) translate(4 62)">
<title>pcm3060_power_up</title>
<!-- Node1 -->
<g id="node1" class="node">
<title>Node1</title>
<g id="a_node1"><a xlink:title="perform power up sequence">
<polygon fill="#bfbfbf" stroke="black" points="0,-19.5 0,-38.5 104,-38.5 104,-19.5 0,-19.5"/>
<text text-anchor="middle" x="52" y="-26.5" font-family="Helvetica,sans-Serif" font-size="10.00">pcm3060_power_up</text>
</a>
</g>
</g>
<!-- Node2 -->
<g id="node2" class="node">
<title>Node2</title>
<g id="a_node2"><a xlink:href="pcm3060_8c.html#aea1e9d4122342b16a072fc515ed9c4a2" target="_top" xlink:title=" ">
<polygon fill="none" stroke="black" points="140.5,-38.5 140.5,-57.5 201.5,-57.5 201.5,-38.5 140.5,-38.5"/>
<text text-anchor="middle" x="171" y="-45.5" font-family="Helvetica,sans-Serif" font-size="10.00">_i2c_write</text>
</a>
</g>
</g>
<!-- Node1&#45;&gt;Node2 -->
<g id="edge1" class="edge">
<title>Node1&#45;&gt;Node2</title>
<path fill="none" stroke="midnightblue" d="M104.32,-37.33C112.95,-38.74 121.8,-40.17 130.09,-41.52"/>
<polygon fill="midnightblue" stroke="midnightblue" points="129.8,-45.02 140.23,-43.17 130.93,-38.11 129.8,-45.02"/>
</g>
<!-- Node4 -->
<g id="node4" class="node">
<title>Node4</title>
<g id="a_node4"><a xlink:href="pcm3060_8c.html#a7a286e614c8a6c8e30f9408395cbd4cc" target="_top" xlink:title=" ">
<polygon fill="none" stroke="black" points="140,-0.5 140,-19.5 202,-19.5 202,-0.5 140,-0.5"/>
<text text-anchor="middle" x="171" y="-7.5" font-family="Helvetica,sans-Serif" font-size="10.00">_initialised</text>
</a>
</g>
</g>
<!-- Node1&#45;&gt;Node4 -->
<g id="edge3" class="edge">
<title>Node1&#45;&gt;Node4</title>
<path fill="none" stroke="midnightblue" d="M104.32,-20.67C112.87,-19.28 121.62,-17.86 129.84,-16.52"/>
<polygon fill="midnightblue" stroke="midnightblue" points="130.6,-19.94 139.91,-14.89 129.47,-13.04 130.6,-19.94"/>
</g>
<!-- Node3 -->
<g id="node3" class="node">
<title>Node3</title>
<g id="a_node3"><a xlink:href="i2c_8c.html#a45e8e37789f0b27a7fe24b58795787f7" target="_top" xlink:title=" ">
<polygon fill="none" stroke="black" points="238,-38.5 238,-57.5 317,-57.5 317,-38.5 238,-38.5"/>
<text text-anchor="middle" x="277.5" y="-45.5" font-family="Helvetica,sans-Serif" font-size="10.00">i2c_write_byte</text>
</a>
</g>
</g>
<!-- Node2&#45;&gt;Node3 -->
<g id="edge2" class="edge">
<title>Node2&#45;&gt;Node3</title>
<path fill="none" stroke="midnightblue" d="M201.67,-48C209.73,-48 218.69,-48 227.52,-48"/>
<polygon fill="midnightblue" stroke="midnightblue" points="227.77,-51.5 237.77,-48 227.77,-44.5 227.77,-51.5"/>
</g>
</g>
</svg>
