<?xml version="1.0" encoding="UTF-8" standalone="no"?>
<!DOCTYPE svg PUBLIC "-//W3C//DTD SVG 1.1//EN"
 "http://www.w3.org/Graphics/SVG/1.1/DTD/svg11.dtd">
<!-- Generated by graphviz version 3.0.0 (20221109.1736)
 -->
<!-- Title: preset__get_packed_size Pages: 1 -->
<svg width="424pt" height="88pt"
 viewBox="0.00 0.00 424.00 88.00" xmlns="http://www.w3.org/2000/svg" xmlns:xlink="http://www.w3.org/1999/xlink">
<g id="graph0" class="graph" transform="scale(1 1) rotate(0) translate(4 84)">
<title>preset__get_packed_size</title>
<!-- Node1 -->
<g id="node1" class="node">
<title>Node1</title>
<g id="a_node1"><a xlink:title=" ">
<polygon fill="#bfbfbf" stroke="black" points="289,-30 289,-49 416,-49 416,-30 289,-30"/>
<text text-anchor="middle" x="352.5" y="-37" font-family="Helvetica,sans-Serif" font-size="10.00">preset__get_packed_size</text>
</a>
</g>
</g>
<!-- Node2 -->
<g id="node2" class="node">
<title>Node2</title>
<g id="a_node2"><a xlink:href="namespaceshrapnel_1_1presets.html#a73471fb6ac9316c4a5030700ce39bc54" target="_top" xlink:title=" ">
<polygon fill="none" stroke="black" points="158,-24.5 158,-54.5 253,-54.5 253,-24.5 158,-24.5"/>
<text text-anchor="start" x="166" y="-42.5" font-family="Helvetica,sans-Serif" font-size="10.00">shrapnel::presets::</text>
<text text-anchor="middle" x="205.5" y="-31.5" font-family="Helvetica,sans-Serif" font-size="10.00">serialise_preset</text>
</a>
</g>
</g>
<!-- Node1&#45;&gt;Node2 -->
<g id="edge1" class="edge">
<title>Node1&#45;&gt;Node2</title>
<path fill="none" stroke="midnightblue" d="M278.61,-39.5C269.96,-39.5 261.32,-39.5 253.17,-39.5"/>
<polygon fill="midnightblue" stroke="midnightblue" points="278.74,-43 288.74,-39.5 278.74,-36 278.74,-43"/>
</g>
<!-- Node3 -->
<g id="node3" class="node">
<title>Node3</title>
<g id="a_node3"><a xlink:href="classshrapnel_1_1presets_1_1PresetsManager.html#aa8624140d2d08100473d5f264e5b92a7" target="_top" xlink:title=" ">
<polygon fill="none" stroke="black" points="1.5,-49.5 1.5,-79.5 120.5,-79.5 120.5,-49.5 1.5,-49.5"/>
<text text-anchor="start" x="9.5" y="-67.5" font-family="Helvetica,sans-Serif" font-size="10.00">shrapnel::presets::</text>
<text text-anchor="middle" x="61" y="-56.5" font-family="Helvetica,sans-Serif" font-size="10.00">PresetsManager::create</text>
</a>
</g>
</g>
<!-- Node2&#45;&gt;Node3 -->
<g id="edge2" class="edge">
<title>Node2&#45;&gt;Node3</title>
<path fill="none" stroke="midnightblue" d="M147.92,-49.43C138.98,-50.99 129.72,-52.62 120.74,-54.2"/>
<polygon fill="midnightblue" stroke="midnightblue" points="148.6,-52.86 157.84,-47.69 147.39,-45.97 148.6,-52.86"/>
</g>
<!-- Node4 -->
<g id="node4" class="node">
<title>Node4</title>
<g id="a_node4"><a xlink:href="classshrapnel_1_1presets_1_1PresetsManager.html#a88f27a1651b0ff568df83d6db76a0d88" target="_top" xlink:title=" ">
<polygon fill="none" stroke="black" points="0,-0.5 0,-30.5 122,-30.5 122,-0.5 0,-0.5"/>
<text text-anchor="start" x="8" y="-18.5" font-family="Helvetica,sans-Serif" font-size="10.00">shrapnel::presets::</text>
<text text-anchor="middle" x="61" y="-7.5" font-family="Helvetica,sans-Serif" font-size="10.00">PresetsManager::update</text>
</a>
</g>
</g>
<!-- Node2&#45;&gt;Node4 -->
<g id="edge3" class="edge">
<title>Node2&#45;&gt;Node4</title>
<path fill="none" stroke="midnightblue" d="M147.71,-29.93C139.26,-28.51 130.52,-27.04 122.01,-25.61"/>
<polygon fill="midnightblue" stroke="midnightblue" points="147.4,-33.43 157.84,-31.64 148.56,-26.53 147.4,-33.43"/>
</g>
</g>
</svg>
