<?xml version="1.0" encoding="UTF-8" standalone="no"?>
<!DOCTYPE svg PUBLIC "-//W3C//DTD SVG 1.1//EN"
 "http://www.w3.org/Graphics/SVG/1.1/DTD/svg11.dtd">
<!-- Generated by graphviz version 3.0.0 (20221109.1736)
 -->
<!-- Title: preset_parameters__init Pages: 1 -->
<svg width="430pt" height="137pt"
 viewBox="0.00 0.00 430.00 137.00" xmlns="http://www.w3.org/2000/svg" xmlns:xlink="http://www.w3.org/1999/xlink">
<g id="graph0" class="graph" transform="scale(1 1) rotate(0) translate(4 133)">
<title>preset_parameters__init</title>
<!-- Node1 -->
<g id="node1" class="node">
<title>Node1</title>
<g id="a_node1"><a xlink:title=" ">
<polygon fill="#bfbfbf" stroke="black" points="301,-79 301,-98 422,-98 422,-79 301,-79"/>
<text text-anchor="middle" x="361.5" y="-86" font-family="Helvetica,sans-Serif" font-size="10.00">preset_parameters__init</text>
</a>
</g>
</g>
<!-- Node2 -->
<g id="node2" class="node">
<title>Node2</title>
<g id="a_node2"><a xlink:href="namespaceshrapnel_1_1presets.html#af5f4053bc3e25171c15a07e1b46f439c" target="_top" xlink:title=" ">
<polygon fill="none" stroke="black" points="158,-98.5 158,-128.5 265,-128.5 265,-98.5 158,-98.5"/>
<text text-anchor="start" x="166" y="-116.5" font-family="Helvetica,sans-Serif" font-size="10.00">shrapnel::presets::</text>
<text text-anchor="middle" x="211.5" y="-105.5" font-family="Helvetica,sans-Serif" font-size="10.00">serialise_parameters</text>
</a>
</g>
</g>
<!-- Node1&#45;&gt;Node2 -->
<g id="edge1" class="edge">
<title>Node1&#45;&gt;Node2</title>
<path fill="none" stroke="midnightblue" d="M294.15,-99.71C284.49,-101.34 274.65,-103 265.31,-104.58"/>
<polygon fill="midnightblue" stroke="midnightblue" points="294.85,-103.14 304.13,-98.02 293.68,-96.24 294.85,-103.14"/>
</g>
<!-- Node4 -->
<g id="node4" class="node">
<title>Node4</title>
<g id="a_node4"><a xlink:href="namespaceshrapnel_1_1presets.html#a73471fb6ac9316c4a5030700ce39bc54" target="_top" xlink:title=" ">
<polygon fill="none" stroke="black" points="164,-49.5 164,-79.5 259,-79.5 259,-49.5 164,-49.5"/>
<text text-anchor="start" x="172" y="-67.5" font-family="Helvetica,sans-Serif" font-size="10.00">shrapnel::presets::</text>
<text text-anchor="middle" x="211.5" y="-56.5" font-family="Helvetica,sans-Serif" font-size="10.00">serialise_preset</text>
</a>
</g>
</g>
<!-- Node1&#45;&gt;Node4 -->
<g id="edge3" class="edge">
<title>Node1&#45;&gt;Node4</title>
<path fill="none" stroke="midnightblue" d="M291.62,-77.33C280.7,-75.56 269.63,-73.76 259.37,-72.1"/>
<polygon fill="midnightblue" stroke="midnightblue" points="291.15,-80.8 301.58,-78.95 292.27,-73.89 291.15,-80.8"/>
</g>
<!-- Node3 -->
<g id="node3" class="node">
<title>Node3</title>
<g id="a_node3"><a xlink:href="namespaceshrapnel_1_1presets.html#a6033439bd2e5a77b5081b7e50c46c85f" target="_top" xlink:title=" ">
<polygon fill="none" stroke="black" points="13.5,-98.5 13.5,-128.5 108.5,-128.5 108.5,-98.5 13.5,-98.5"/>
<text text-anchor="start" x="21.5" y="-116.5" font-family="Helvetica,sans-Serif" font-size="10.00">shrapnel::presets::</text>
<text text-anchor="middle" x="61" y="-105.5" font-family="Helvetica,sans-Serif" font-size="10.00">to_json</text>
</a>
</g>
</g>
<!-- Node2&#45;&gt;Node3 -->
<g id="edge2" class="edge">
<title>Node2&#45;&gt;Node3</title>
<path fill="none" stroke="midnightblue" d="M147.43,-113.5C134.44,-113.5 120.97,-113.5 108.68,-113.5"/>
<polygon fill="midnightblue" stroke="midnightblue" points="147.73,-117 157.73,-113.5 147.73,-110 147.73,-117"/>
</g>
<!-- Node5 -->
<g id="node5" class="node">
<title>Node5</title>
<g id="a_node5"><a xlink:href="classshrapnel_1_1presets_1_1PresetsManager.html#aa8624140d2d08100473d5f264e5b92a7" target="_top" xlink:title=" ">
<polygon fill="none" stroke="black" points="1.5,-49.5 1.5,-79.5 120.5,-79.5 120.5,-49.5 1.5,-49.5"/>
<text text-anchor="start" x="9.5" y="-67.5" font-family="Helvetica,sans-Serif" font-size="10.00">shrapnel::presets::</text>
<text text-anchor="middle" x="61" y="-56.5" font-family="Helvetica,sans-Serif" font-size="10.00">PresetsManager::create</text>
</a>
</g>
</g>
<!-- Node4&#45;&gt;Node5 -->
<g id="edge4" class="edge">
<title>Node4&#45;&gt;Node5</title>
<path fill="none" stroke="midnightblue" d="M153.75,-64.5C142.93,-64.5 131.59,-64.5 120.72,-64.5"/>
<polygon fill="midnightblue" stroke="midnightblue" points="153.92,-68 163.92,-64.5 153.92,-61 153.92,-68"/>
</g>
<!-- Node6 -->
<g id="node6" class="node">
<title>Node6</title>
<g id="a_node6"><a xlink:href="classshrapnel_1_1presets_1_1PresetsManager.html#a88f27a1651b0ff568df83d6db76a0d88" target="_top" xlink:title=" ">
<polygon fill="none" stroke="black" points="0,-0.5 0,-30.5 122,-30.5 122,-0.5 0,-0.5"/>
<text text-anchor="start" x="8" y="-18.5" font-family="Helvetica,sans-Serif" font-size="10.00">shrapnel::presets::</text>
<text text-anchor="middle" x="61" y="-7.5" font-family="Helvetica,sans-Serif" font-size="10.00">PresetsManager::update</text>
</a>
</g>
</g>
<!-- Node4&#45;&gt;Node6 -->
<g id="edge5" class="edge">
<title>Node4&#45;&gt;Node6</title>
<path fill="none" stroke="midnightblue" d="M155.16,-46.24C139.5,-41.07 122.64,-35.51 107.62,-30.55"/>
<polygon fill="midnightblue" stroke="midnightblue" points="154.14,-49.59 164.73,-49.4 156.33,-42.94 154.14,-49.59"/>
</g>
</g>
</svg>
