<?xml version="1.0" encoding="UTF-8" standalone="no"?>
<!DOCTYPE svg PUBLIC "-//W3C//DTD SVG 1.1//EN"
 "http://www.w3.org/Graphics/SVG/1.1/DTD/svg11.dtd">
<!-- Generated by graphviz version 3.0.0 (20221109.1736)
 -->
<!-- Title: process_init Pages: 1 -->
<svg width="371pt" height="316pt"
 viewBox="0.00 0.00 371.00 316.00" xmlns="http://www.w3.org/2000/svg" xmlns:xlink="http://www.w3.org/1999/xlink">
<g id="graph0" class="graph" transform="scale(1 1) rotate(0) translate(4 312)">
<title>process_init</title>
<!-- Node1 -->
<g id="node1" class="node">
<title>Node1</title>
<g id="a_node1"><a xlink:title=" ">
<polygon fill="#bfbfbf" stroke="black" points="0,-155.5 0,-174.5 69,-174.5 69,-155.5 0,-155.5"/>
<text text-anchor="middle" x="34.5" y="-162.5" font-family="Helvetica,sans-Serif" font-size="10.00">process_init</text>
</a>
</g>
</g>
<!-- Node2 -->
<g id="node2" class="node">
<title>Node2</title>
<g id="a_node2"><a xlink:href="noise__gate_8cpp.html#a949bfebe851dee44040d83bbd068dad1" target="_top" xlink:title="Initialise the effect.">
<polygon fill="none" stroke="black" points="135.5,-288.5 135.5,-307.5 188.5,-307.5 188.5,-288.5 135.5,-288.5"/>
<text text-anchor="middle" x="162" y="-295.5" font-family="Helvetica,sans-Serif" font-size="10.00">gate_init</text>
</a>
</g>
</g>
<!-- Node1&#45;&gt;Node2 -->
<g id="edge1" class="edge">
<title>Node1&#45;&gt;Node2</title>
<path fill="none" stroke="midnightblue" d="M38.83,-174.82C46.75,-196.74 68.81,-250.02 105,-279 111.01,-283.81 118.29,-287.43 125.6,-290.15"/>
<polygon fill="midnightblue" stroke="midnightblue" points="124.86,-293.59 135.45,-293.32 127.01,-286.92 124.86,-293.59"/>
</g>
<!-- Node4 -->
<g id="node4" class="node">
<title>Node4</title>
<g id="a_node4"><a xlink:href="noise__gate_8cpp.html#a4868a6f017c846668c1b09d32b833099" target="_top" xlink:title="Set the attack time in milliseconds.">
<polygon fill="none" stroke="black" points="119,-250.5 119,-269.5 205,-269.5 205,-250.5 119,-250.5"/>
<text text-anchor="middle" x="162" y="-257.5" font-family="Helvetica,sans-Serif" font-size="10.00">gate_set_attack</text>
</a>
</g>
</g>
<!-- Node1&#45;&gt;Node4 -->
<g id="edge3" class="edge">
<title>Node1&#45;&gt;Node4</title>
<path fill="none" stroke="midnightblue" d="M41.82,-174.6C52.83,-190.59 77.01,-222.72 105,-241 108.11,-243.03 111.45,-244.86 114.9,-246.52"/>
<polygon fill="midnightblue" stroke="midnightblue" points="113.64,-249.78 124.21,-250.49 116.39,-243.34 113.64,-249.78"/>
</g>
<!-- Node5 -->
<g id="node5" class="node">
<title>Node5</title>
<g id="a_node5"><a xlink:href="noise__gate_8cpp.html#a184d915d5eb18d4743c6e3008bb47e62" target="_top" xlink:title="Set the buffer size in number of samples.">
<polygon fill="none" stroke="black" points="109,-212.5 109,-231.5 215,-231.5 215,-212.5 109,-212.5"/>
<text text-anchor="middle" x="162" y="-219.5" font-family="Helvetica,sans-Serif" font-size="10.00">gate_set_buffer_size</text>
</a>
</g>
</g>
<!-- Node1&#45;&gt;Node5 -->
<g id="edge4" class="edge">
<title>Node1&#45;&gt;Node5</title>
<path fill="none" stroke="midnightblue" d="M51.11,-174.56C64.95,-182.78 85.86,-194.6 105,-203 109.81,-205.11 114.94,-207.14 120.06,-209.03"/>
<polygon fill="midnightblue" stroke="midnightblue" points="119.23,-212.45 129.82,-212.49 121.57,-205.85 119.23,-212.45"/>
</g>
<!-- Node6 -->
<g id="node6" class="node">
<title>Node6</title>
<g id="a_node6"><a xlink:href="noise__gate_8cpp.html#a4fccad713cee272e388c9c45fc97037e" target="_top" xlink:title="Set the hold time in milliseconds.">
<polygon fill="none" stroke="black" points="123.5,-174.5 123.5,-193.5 200.5,-193.5 200.5,-174.5 123.5,-174.5"/>
<text text-anchor="middle" x="162" y="-181.5" font-family="Helvetica,sans-Serif" font-size="10.00">gate_set_hold</text>
</a>
</g>
</g>
<!-- Node1&#45;&gt;Node6 -->
<g id="edge5" class="edge">
<title>Node1&#45;&gt;Node6</title>
<path fill="none" stroke="midnightblue" d="M69.13,-170.09C82.7,-172.15 98.6,-174.55 113.33,-176.78"/>
<polygon fill="midnightblue" stroke="midnightblue" points="112.88,-180.25 123.29,-178.29 113.93,-173.33 112.88,-180.25"/>
</g>
<!-- Node7 -->
<g id="node7" class="node">
<title>Node7</title>
<g id="a_node7"><a xlink:href="noise__gate_8cpp.html#abe525a07b8cb6f0557740cc4100428a9" target="_top" xlink:title="Set the release time in milliseconds.">
<polygon fill="none" stroke="black" points="116.5,-136.5 116.5,-155.5 207.5,-155.5 207.5,-136.5 116.5,-136.5"/>
<text text-anchor="middle" x="162" y="-143.5" font-family="Helvetica,sans-Serif" font-size="10.00">gate_set_release</text>
</a>
</g>
</g>
<!-- Node1&#45;&gt;Node7 -->
<g id="edge6" class="edge">
<title>Node1&#45;&gt;Node7</title>
<path fill="none" stroke="midnightblue" d="M69.13,-159.91C80.59,-158.17 93.71,-156.19 106.38,-154.27"/>
<polygon fill="midnightblue" stroke="midnightblue" points="107.05,-157.71 116.41,-152.75 106,-150.79 107.05,-157.71"/>
</g>
<!-- Node8 -->
<g id="node8" class="node">
<title>Node8</title>
<g id="a_node8"><a xlink:href="noise__gate_8cpp.html#a2691256497a1cec4e14434f48eccfb56" target="_top" xlink:title="Set the sample rate in Hz.">
<polygon fill="none" stroke="black" points="105.5,-98.5 105.5,-117.5 218.5,-117.5 218.5,-98.5 105.5,-98.5"/>
<text text-anchor="middle" x="162" y="-105.5" font-family="Helvetica,sans-Serif" font-size="10.00">gate_set_sample_rate</text>
</a>
</g>
</g>
<!-- Node1&#45;&gt;Node8 -->
<g id="edge7" class="edge">
<title>Node1&#45;&gt;Node8</title>
<path fill="none" stroke="midnightblue" d="M51.11,-155.44C64.95,-147.22 85.86,-135.4 105,-127 109.81,-124.89 114.94,-122.86 120.06,-120.97"/>
<polygon fill="midnightblue" stroke="midnightblue" points="121.57,-124.15 129.82,-117.51 119.23,-117.55 121.57,-124.15"/>
</g>
<!-- Node11 -->
<g id="node11" class="node">
<title>Node11</title>
<g id="a_node11"><a xlink:href="noise__gate_8cpp.html#a82e62ed410acc03c8179d8245de13e12" target="_top" xlink:title="Set the threshold and hysteresis value in dBFS.">
<polygon fill="none" stroke="black" points="112.5,-60.5 112.5,-79.5 211.5,-79.5 211.5,-60.5 112.5,-60.5"/>
<text text-anchor="middle" x="162" y="-67.5" font-family="Helvetica,sans-Serif" font-size="10.00">gate_set_threshold</text>
</a>
</g>
</g>
<!-- Node1&#45;&gt;Node11 -->
<g id="edge10" class="edge">
<title>Node1&#45;&gt;Node11</title>
<path fill="none" stroke="midnightblue" d="M41.82,-155.4C52.83,-139.41 77.01,-107.28 105,-89 108.11,-86.97 111.45,-85.14 114.9,-83.48"/>
<polygon fill="midnightblue" stroke="midnightblue" points="116.39,-86.66 124.21,-79.51 113.64,-80.22 116.39,-86.66"/>
</g>
<!-- Node13 -->
<g id="node13" class="node">
<title>Node13</title>
<g id="a_node13"><a xlink:href="classshrapnel_1_1parameters_1_1AudioParameters.html#a6350b5ab5bf4fe890bdab1e8a103d100" target="_top" xlink:title="Get denormalised value of parameter.">
<polygon fill="none" stroke="black" points="105,-0.5 105,-41.5 219,-41.5 219,-0.5 105,-0.5"/>
<text text-anchor="start" x="113" y="-29.5" font-family="Helvetica,sans-Serif" font-size="10.00">shrapnel::parameters</text>
<text text-anchor="start" x="113" y="-18.5" font-family="Helvetica,sans-Serif" font-size="10.00">::AudioParameters::get</text>
<text text-anchor="middle" x="162" y="-7.5" font-family="Helvetica,sans-Serif" font-size="10.00">_raw_parameter</text>
</a>
</g>
</g>
<!-- Node1&#45;&gt;Node13 -->
<g id="edge12" class="edge">
<title>Node1&#45;&gt;Node13</title>
<path fill="none" stroke="midnightblue" d="M39.32,-155.28C48.08,-134 71.49,-82.7 105,-51 106.24,-49.83 107.53,-48.69 108.87,-47.58"/>
<polygon fill="midnightblue" stroke="midnightblue" points="110.99,-50.37 116.93,-41.59 106.82,-44.75 110.99,-50.37"/>
</g>
<!-- Node3 -->
<g id="node3" class="node">
<title>Node3</title>
<g id="a_node3"><a xlink:href="noise__gate_8cpp.html#a5d3ba76b4666ac1820b498aaf04ea22e" target="_top" xlink:title="Reset the state.">
<polygon fill="none" stroke="black" points="278,-288.5 278,-307.5 340,-307.5 340,-288.5 278,-288.5"/>
<text text-anchor="middle" x="309" y="-295.5" font-family="Helvetica,sans-Serif" font-size="10.00">gate_reset</text>
</a>
</g>
</g>
<!-- Node2&#45;&gt;Node3 -->
<g id="edge2" class="edge">
<title>Node2&#45;&gt;Node3</title>
<path fill="none" stroke="midnightblue" d="M188.59,-298C210.53,-298 242.51,-298 267.85,-298"/>
<polygon fill="midnightblue" stroke="midnightblue" points="267.9,-301.5 277.9,-298 267.9,-294.5 267.9,-301.5"/>
</g>
<!-- Node9 -->
<g id="node9" class="node">
<title>Node9</title>
<g id="a_node9"><a xlink:href="abstract__dsp__esp32_8c.html#ab721c839889c1267077f4cb3304b655d" target="_top" xlink:title=" ">
<polygon fill="none" stroke="black" points="255.5,-142 255.5,-172 362.5,-172 362.5,-142 255.5,-142"/>
<text text-anchor="start" x="263.5" y="-160" font-family="Helvetica,sans-Serif" font-size="10.00">dspal_biquad_design</text>
<text text-anchor="middle" x="309" y="-149" font-family="Helvetica,sans-Serif" font-size="10.00">_lowpass</text>
</a>
</g>
</g>
<!-- Node8&#45;&gt;Node9 -->
<g id="edge8" class="edge">
<title>Node8&#45;&gt;Node9</title>
<path fill="none" stroke="midnightblue" d="M191.3,-117.56C209.1,-123.58 232.64,-131.53 253.92,-138.72"/>
<polygon fill="midnightblue" stroke="midnightblue" points="252.91,-142.08 263.5,-141.96 255.15,-135.45 252.91,-142.08"/>
</g>
<!-- Node10 -->
<g id="node10" class="node">
<title>Node10</title>
<g id="a_node10"><a xlink:href="classshrapnel_1_1dsp_1_1IirFilter.html#aa09e7c1ab99d85c0fdd1c98c80636550" target="_top" xlink:title=" ">
<polygon fill="none" stroke="black" points="255,-93 255,-123 363,-123 363,-93 255,-93"/>
<text text-anchor="start" x="263" y="-111" font-family="Helvetica,sans-Serif" font-size="10.00">shrapnel::dsp::IirFilter</text>
<text text-anchor="middle" x="309" y="-100" font-family="Helvetica,sans-Serif" font-size="10.00">::set_coefficients</text>
</a>
</g>
</g>
<!-- Node8&#45;&gt;Node10 -->
<g id="edge9" class="edge">
<title>Node8&#45;&gt;Node10</title>
<path fill="none" stroke="midnightblue" d="M218.65,-108C227.14,-108 235.96,-108 244.61,-108"/>
<polygon fill="midnightblue" stroke="midnightblue" points="244.65,-111.5 254.65,-108 244.65,-104.5 244.65,-111.5"/>
</g>
<!-- Node12 -->
<g id="node12" class="node">
<title>Node12</title>
<g id="a_node12"><a xlink:href="noise__gate_8cpp.html#afb2354391bb81545d92334434552ab4b" target="_top" xlink:title=" ">
<polygon fill="none" stroke="black" points="276.5,-54.5 276.5,-73.5 341.5,-73.5 341.5,-54.5 276.5,-54.5"/>
<text text-anchor="middle" x="309" y="-61.5" font-family="Helvetica,sans-Serif" font-size="10.00">db_to_ratio</text>
</a>
</g>
</g>
<!-- Node11&#45;&gt;Node12 -->
<g id="edge11" class="edge">
<title>Node11&#45;&gt;Node12</title>
<path fill="none" stroke="midnightblue" d="M211.69,-67.99C229.26,-67.26 248.94,-66.44 265.91,-65.74"/>
<polygon fill="midnightblue" stroke="midnightblue" points="266.23,-69.23 276.08,-65.32 265.94,-62.24 266.23,-69.23"/>
</g>
</g>
</svg>
