<?xml version="1.0" encoding="UTF-8" standalone="no"?>
<!DOCTYPE svg PUBLIC "-//W3C//DTD SVG 1.1//EN"
 "http://www.w3.org/Graphics/SVG/1.1/DTD/svg11.dtd">
<!-- Generated by graphviz version 3.0.0 (20221109.1736)
 -->
<!-- Title: process_samples Pages: 1 -->
<svg width="487pt" height="408pt"
 viewBox="0.00 0.00 487.00 408.00" xmlns="http://www.w3.org/2000/svg" xmlns:xlink="http://www.w3.org/1999/xlink">
<g id="graph0" class="graph" transform="scale(1 1) rotate(0) translate(4 404)">
<title>process_samples</title>
<!-- Node1 -->
<g id="node1" class="node">
<title>Node1</title>
<g id="a_node1"><a xlink:title=" ">
<polygon fill="#bfbfbf" stroke="black" points="0,-190.5 0,-209.5 93,-209.5 93,-190.5 0,-190.5"/>
<text text-anchor="middle" x="46.5" y="-197.5" font-family="Helvetica,sans-Serif" font-size="10.00">process_samples</text>
</a>
</g>
</g>
<!-- Node2 -->
<g id="node2" class="node">
<title>Node2</title>
<g id="a_node2"><a xlink:href="process_8cpp.html#a9785ac35cd7c86538882d5311fd66bf1" target="_top" xlink:title=" ">
<polygon fill="none" stroke="black" points="139.5,-380.5 139.5,-399.5 224.5,-399.5 224.5,-380.5 139.5,-380.5"/>
<text text-anchor="middle" x="182" y="-387.5" font-family="Helvetica,sans-Serif" font-size="10.00">decibel_to_ratio</text>
</a>
</g>
</g>
<!-- Node1&#45;&gt;Node2 -->
<g id="edge1" class="edge">
<title>Node1&#45;&gt;Node2</title>
<path fill="none" stroke="midnightblue" d="M49.41,-209.67C55.59,-238.42 77.67,-324.3 129,-371 130.73,-372.58 132.61,-374.03 134.58,-375.36"/>
<polygon fill="midnightblue" stroke="midnightblue" points="133.29,-378.65 143.73,-380.47 136.71,-372.53 133.29,-378.65"/>
</g>
<!-- Node3 -->
<g id="node3" class="node">
<title>Node3</title>
<g id="a_node3"><a xlink:href="float__convert_8h.html#ae9b18f6b920e3401ec41278b57e6817b" target="_top" xlink:title=" ">
<polygon fill="none" stroke="black" points="145,-342.5 145,-361.5 219,-361.5 219,-342.5 145,-342.5"/>
<text text-anchor="middle" x="182" y="-349.5" font-family="Helvetica,sans-Serif" font-size="10.00">float_to_int32</text>
</a>
</g>
</g>
<!-- Node1&#45;&gt;Node3 -->
<g id="edge2" class="edge">
<title>Node1&#45;&gt;Node3</title>
<path fill="none" stroke="midnightblue" d="M50.8,-209.55C59.62,-233.71 86.03,-297.85 129,-333 131.05,-334.68 133.26,-336.21 135.58,-337.62"/>
<polygon fill="midnightblue" stroke="midnightblue" points="134.4,-340.95 144.89,-342.42 137.61,-334.73 134.4,-340.95"/>
</g>
<!-- Node4 -->
<g id="node4" class="node">
<title>Node4</title>
<g id="a_node4"><a xlink:href="noise__gate_8cpp.html#a129b18f80393706faa5a453417153a51" target="_top" xlink:title="Analyse the audio.">
<polygon fill="none" stroke="black" points="145,-304.5 145,-323.5 219,-323.5 219,-304.5 145,-304.5"/>
<text text-anchor="middle" x="182" y="-311.5" font-family="Helvetica,sans-Serif" font-size="10.00">gate_analyse</text>
</a>
</g>
</g>
<!-- Node1&#45;&gt;Node4 -->
<g id="edge3" class="edge">
<title>Node1&#45;&gt;Node4</title>
<path fill="none" stroke="midnightblue" d="M53.43,-209.79C65.41,-228.81 94.35,-270.99 129,-295 131.73,-296.89 134.66,-298.61 137.7,-300.18"/>
<polygon fill="midnightblue" stroke="midnightblue" points="136.47,-303.47 147.02,-304.44 139.38,-297.1 136.47,-303.47"/>
</g>
<!-- Node7 -->
<g id="node7" class="node">
<title>Node7</title>
<g id="a_node7"><a xlink:href="noise__gate_8cpp.html#a3a59d391339a038f91650058680b00d6" target="_top" xlink:title="Apply the precalculated gain to the audio.">
<polygon fill="none" stroke="black" points="144.5,-266.5 144.5,-285.5 219.5,-285.5 219.5,-266.5 144.5,-266.5"/>
<text text-anchor="middle" x="182" y="-273.5" font-family="Helvetica,sans-Serif" font-size="10.00">gate_process</text>
</a>
</g>
</g>
<!-- Node1&#45;&gt;Node7 -->
<g id="edge6" class="edge">
<title>Node1&#45;&gt;Node7</title>
<path fill="none" stroke="midnightblue" d="M59.03,-209.53C74.28,-221.77 102.36,-243.12 129,-257 132.94,-259.05 137.16,-260.99 141.42,-262.77"/>
<polygon fill="midnightblue" stroke="midnightblue" points="140.14,-266.03 150.73,-266.44 142.71,-259.52 140.14,-266.03"/>
</g>
<!-- Node9 -->
<g id="node9" class="node">
<title>Node9</title>
<g id="a_node9"><a xlink:href="noise__gate_8cpp.html#a4868a6f017c846668c1b09d32b833099" target="_top" xlink:title="Set the attack time in milliseconds.">
<polygon fill="none" stroke="black" points="139,-228.5 139,-247.5 225,-247.5 225,-228.5 139,-228.5"/>
<text text-anchor="middle" x="182" y="-235.5" font-family="Helvetica,sans-Serif" font-size="10.00">gate_set_attack</text>
</a>
</g>
</g>
<!-- Node1&#45;&gt;Node9 -->
<g id="edge8" class="edge">
<title>Node1&#45;&gt;Node9</title>
<path fill="none" stroke="midnightblue" d="M81.19,-209.59C98.26,-214.45 119.2,-220.41 137.48,-225.61"/>
<polygon fill="midnightblue" stroke="midnightblue" points="136.75,-229.04 147.32,-228.41 138.66,-222.31 136.75,-229.04"/>
</g>
<!-- Node10 -->
<g id="node10" class="node">
<title>Node10</title>
<g id="a_node10"><a xlink:href="noise__gate_8cpp.html#a4fccad713cee272e388c9c45fc97037e" target="_top" xlink:title="Set the hold time in milliseconds.">
<polygon fill="none" stroke="black" points="143.5,-190.5 143.5,-209.5 220.5,-209.5 220.5,-190.5 143.5,-190.5"/>
<text text-anchor="middle" x="182" y="-197.5" font-family="Helvetica,sans-Serif" font-size="10.00">gate_set_hold</text>
</a>
</g>
</g>
<!-- Node1&#45;&gt;Node10 -->
<g id="edge9" class="edge">
<title>Node1&#45;&gt;Node10</title>
<path fill="none" stroke="midnightblue" d="M93.07,-200C105.94,-200 119.99,-200 133,-200"/>
<polygon fill="midnightblue" stroke="midnightblue" points="133.17,-203.5 143.17,-200 133.17,-196.5 133.17,-203.5"/>
</g>
<!-- Node11 -->
<g id="node11" class="node">
<title>Node11</title>
<g id="a_node11"><a xlink:href="noise__gate_8cpp.html#abe525a07b8cb6f0557740cc4100428a9" target="_top" xlink:title="Set the release time in milliseconds.">
<polygon fill="none" stroke="black" points="136.5,-152.5 136.5,-171.5 227.5,-171.5 227.5,-152.5 136.5,-152.5"/>
<text text-anchor="middle" x="182" y="-159.5" font-family="Helvetica,sans-Serif" font-size="10.00">gate_set_release</text>
</a>
</g>
</g>
<!-- Node1&#45;&gt;Node11 -->
<g id="edge10" class="edge">
<title>Node1&#45;&gt;Node11</title>
<path fill="none" stroke="midnightblue" d="M81.19,-190.41C98.26,-185.55 119.2,-179.59 137.48,-174.39"/>
<polygon fill="midnightblue" stroke="midnightblue" points="138.66,-177.69 147.32,-171.59 136.75,-170.96 138.66,-177.69"/>
</g>
<!-- Node12 -->
<g id="node12" class="node">
<title>Node12</title>
<g id="a_node12"><a xlink:href="noise__gate_8cpp.html#a82e62ed410acc03c8179d8245de13e12" target="_top" xlink:title="Set the threshold and hysteresis value in dBFS.">
<polygon fill="none" stroke="black" points="132.5,-114.5 132.5,-133.5 231.5,-133.5 231.5,-114.5 132.5,-114.5"/>
<text text-anchor="middle" x="182" y="-121.5" font-family="Helvetica,sans-Serif" font-size="10.00">gate_set_threshold</text>
</a>
</g>
</g>
<!-- Node1&#45;&gt;Node12 -->
<g id="edge11" class="edge">
<title>Node1&#45;&gt;Node12</title>
<path fill="none" stroke="midnightblue" d="M59.03,-190.47C74.28,-178.23 102.36,-156.88 129,-143 132.94,-140.95 137.16,-139.01 141.42,-137.23"/>
<polygon fill="midnightblue" stroke="midnightblue" points="142.71,-140.48 150.73,-133.56 140.14,-133.97 142.71,-140.48"/>
</g>
<!-- Node14 -->
<g id="node14" class="node">
<title>Node14</title>
<g id="a_node14"><a xlink:href="profiling_8cpp.html#a3171d2be3fbf00e49982243e9869735a" target="_top" xlink:title=" ">
<polygon fill="none" stroke="black" points="129,-76.5 129,-95.5 235,-95.5 235,-76.5 129,-76.5"/>
<text text-anchor="middle" x="182" y="-83.5" font-family="Helvetica,sans-Serif" font-size="10.00">profiling_mark_stage</text>
</a>
</g>
</g>
<!-- Node1&#45;&gt;Node14 -->
<g id="edge13" class="edge">
<title>Node1&#45;&gt;Node14</title>
<path fill="none" stroke="midnightblue" d="M53.43,-190.21C65.41,-171.19 94.35,-129.01 129,-105 131.73,-103.11 134.66,-101.39 137.7,-99.82"/>
<polygon fill="midnightblue" stroke="midnightblue" points="139.38,-102.9 147.02,-95.56 136.47,-96.53 139.38,-102.9"/>
</g>
<!-- Node15 -->
<g id="node15" class="node">
<title>Node15</title>
<g id="a_node15"><a xlink:href="profiling_8cpp.html#ac05fdc10ded37340f2ab202bbc184d20" target="_top" xlink:title=" ">
<polygon fill="none" stroke="black" points="145,-38.5 145,-57.5 219,-57.5 219,-38.5 145,-38.5"/>
<text text-anchor="middle" x="182" y="-45.5" font-family="Helvetica,sans-Serif" font-size="10.00">profiling_start</text>
</a>
</g>
</g>
<!-- Node1&#45;&gt;Node15 -->
<g id="edge14" class="edge">
<title>Node1&#45;&gt;Node15</title>
<path fill="none" stroke="midnightblue" d="M50.8,-190.45C59.62,-166.29 86.03,-102.15 129,-67 131.05,-65.32 133.26,-63.79 135.58,-62.38"/>
<polygon fill="midnightblue" stroke="midnightblue" points="137.61,-65.27 144.89,-57.58 134.4,-59.05 137.61,-65.27"/>
</g>
<!-- Node16 -->
<g id="node16" class="node">
<title>Node16</title>
<g id="a_node16"><a xlink:href="profiling_8cpp.html#a9f4516d77db32a65ee99933c6c9d3802" target="_top" xlink:title=" ">
<polygon fill="none" stroke="black" points="145,-0.5 145,-19.5 219,-19.5 219,-0.5 145,-0.5"/>
<text text-anchor="middle" x="182" y="-7.5" font-family="Helvetica,sans-Serif" font-size="10.00">profiling_stop</text>
</a>
</g>
</g>
<!-- Node1&#45;&gt;Node16 -->
<g id="edge15" class="edge">
<title>Node1&#45;&gt;Node16</title>
<path fill="none" stroke="midnightblue" d="M49.41,-190.33C55.59,-161.58 77.67,-75.7 129,-29 131.13,-27.06 133.48,-25.31 135.96,-23.74"/>
<polygon fill="midnightblue" stroke="midnightblue" points="137.61,-26.83 144.8,-19.05 134.33,-20.65 137.61,-26.83"/>
</g>
<!-- Node5 -->
<g id="node5" class="node">
<title>Node5</title>
<g id="a_node5"><a xlink:href="classshrapnel_1_1dsp_1_1IirFilter.html#a53cb5a72d2a310cd4b35d4329af682f0" target="_top" xlink:title=" ">
<polygon fill="none" stroke="black" points="271,-302 271,-332 379,-332 379,-302 271,-302"/>
<text text-anchor="start" x="279" y="-320" font-family="Helvetica,sans-Serif" font-size="10.00">shrapnel::dsp::IirFilter</text>
<text text-anchor="middle" x="325" y="-309" font-family="Helvetica,sans-Serif" font-size="10.00">::process</text>
</a>
</g>
</g>
<!-- Node4&#45;&gt;Node5 -->
<g id="edge4" class="edge">
<title>Node4&#45;&gt;Node5</title>
<path fill="none" stroke="midnightblue" d="M219.31,-314.77C231.92,-315.04 246.45,-315.35 260.59,-315.65"/>
<polygon fill="midnightblue" stroke="midnightblue" points="260.72,-319.15 270.79,-315.87 260.87,-312.16 260.72,-319.15"/>
</g>
<!-- Node6 -->
<g id="node6" class="node">
<title>Node6</title>
<g id="a_node6"><a xlink:href="iir__universal_8c.html#a738b77e8a79f0c754dba3af19fbd4e30" target="_top" xlink:title=" ">
<polygon fill="none" stroke="black" points="415,-307.5 415,-326.5 479,-326.5 479,-307.5 415,-307.5"/>
<text text-anchor="middle" x="447" y="-314.5" font-family="Helvetica,sans-Serif" font-size="10.00">iir_process</text>
</a>
</g>
</g>
<!-- Node5&#45;&gt;Node6 -->
<g id="edge5" class="edge">
<title>Node5&#45;&gt;Node6</title>
<path fill="none" stroke="midnightblue" d="M379.33,-317C387.87,-317 396.59,-317 404.79,-317"/>
<polygon fill="midnightblue" stroke="midnightblue" points="404.85,-320.5 414.85,-317 404.85,-313.5 404.85,-320.5"/>
</g>
<!-- Node8 -->
<g id="node8" class="node">
<title>Node8</title>
<g id="a_node8"><a xlink:href="abstract__dsp__esp32_8c.html#a52d208742d325a0cdb7225bd9fe0e902" target="_top" xlink:title=" ">
<polygon fill="none" stroke="black" points="286,-263.5 286,-282.5 364,-282.5 364,-263.5 286,-263.5"/>
<text text-anchor="middle" x="325" y="-270.5" font-family="Helvetica,sans-Serif" font-size="10.00">dspal_multiply</text>
</a>
</g>
</g>
<!-- Node7&#45;&gt;Node8 -->
<g id="edge7" class="edge">
<title>Node7&#45;&gt;Node8</title>
<path fill="none" stroke="midnightblue" d="M219.68,-275.22C236.67,-274.86 257.1,-274.42 275.36,-274.03"/>
<polygon fill="midnightblue" stroke="midnightblue" points="275.61,-277.53 285.54,-273.82 275.46,-270.53 275.61,-277.53"/>
</g>
<!-- Node13 -->
<g id="node13" class="node">
<title>Node13</title>
<g id="a_node13"><a xlink:href="noise__gate_8cpp.html#afb2354391bb81545d92334434552ab4b" target="_top" xlink:title=" ">
<polygon fill="none" stroke="black" points="292.5,-114.5 292.5,-133.5 357.5,-133.5 357.5,-114.5 292.5,-114.5"/>
<text text-anchor="middle" x="325" y="-121.5" font-family="Helvetica,sans-Serif" font-size="10.00">db_to_ratio</text>
</a>
</g>
</g>
<!-- Node12&#45;&gt;Node13 -->
<g id="edge12" class="edge">
<title>Node12&#45;&gt;Node13</title>
<path fill="none" stroke="midnightblue" d="M231.52,-124C247.99,-124 266.24,-124 282.14,-124"/>
<polygon fill="midnightblue" stroke="midnightblue" points="282.21,-127.5 292.21,-124 282.21,-120.5 282.21,-127.5"/>
</g>
</g>
</svg>
