<?xml version="1.0" encoding="UTF-8" standalone="no"?>
<!DOCTYPE svg PUBLIC "-//W3C//DTD SVG 1.1//EN"
 "http://www.w3.org/Graphics/SVG/1.1/DTD/svg11.dtd">
<!-- Generated by graphviz version 3.0.0 (20221109.1736)
 -->
<!-- Title: process_init Pages: 1 -->
<svg width="370pt" height="262pt"
 viewBox="0.00 0.00 370.00 262.00" xmlns="http://www.w3.org/2000/svg" xmlns:xlink="http://www.w3.org/1999/xlink">
<g id="graph0" class="graph" transform="scale(1 1) rotate(0) translate(4 258)">
<title>process_init</title>
<!-- Node1 -->
<g id="node1" class="node">
<title>Node1</title>
<g id="a_node1"><a xlink:title=" ">
<polygon fill="#bfbfbf" stroke="black" points="0,-120.5 0,-139.5 69,-139.5 69,-120.5 0,-120.5"/>
<text text-anchor="middle" x="34.5" y="-127.5" font-family="Helvetica,sans-Serif" font-size="10.00">process_init</text>
</a>
</g>
</g>
<!-- Node2 -->
<g id="node2" class="node">
<title>Node2</title>
<g id="a_node2"><a xlink:href="noise__gate_8cpp.html#a949bfebe851dee44040d83bbd068dad1" target="_top" xlink:title="Initialise the effect.">
<polygon fill="none" stroke="black" points="135,-234.5 135,-253.5 188,-253.5 188,-234.5 135,-234.5"/>
<text text-anchor="middle" x="161.5" y="-241.5" font-family="Helvetica,sans-Serif" font-size="10.00">gate_init</text>
</a>
</g>
</g>
<!-- Node1&#45;&gt;Node2 -->
<g id="edge1" class="edge">
<title>Node1&#45;&gt;Node2</title>
<path fill="none" stroke="midnightblue" d="M39.99,-139.59C49.38,-158.62 72.91,-201.38 105,-225 111.03,-229.44 118.18,-232.9 125.31,-235.57"/>
<polygon fill="midnightblue" stroke="midnightblue" points="124.31,-238.93 134.9,-238.75 126.51,-232.28 124.31,-238.93"/>
</g>
<!-- Node4 -->
<g id="node4" class="node">
<title>Node4</title>
<g id="a_node4"><a xlink:href="noise__gate_8cpp.html#a4868a6f017c846668c1b09d32b833099" target="_top" xlink:title="Set the attack time in milliseconds.">
<polygon fill="none" stroke="black" points="118.5,-196.5 118.5,-215.5 204.5,-215.5 204.5,-196.5 118.5,-196.5"/>
<text text-anchor="middle" x="161.5" y="-203.5" font-family="Helvetica,sans-Serif" font-size="10.00">gate_set_attack</text>
</a>
</g>
</g>
<!-- Node1&#45;&gt;Node4 -->
<g id="edge3" class="edge">
<title>Node1&#45;&gt;Node4</title>
<path fill="none" stroke="midnightblue" d="M45.02,-139.73C57.7,-152.2 81.28,-173.78 105,-187 108.7,-189.06 112.67,-190.96 116.72,-192.68"/>
<polygon fill="midnightblue" stroke="midnightblue" points="115.63,-196.02 126.21,-196.41 118.18,-189.5 115.63,-196.02"/>
</g>
<!-- Node5 -->
<g id="node5" class="node">
<title>Node5</title>
<g id="a_node5"><a xlink:href="noise__gate_8cpp.html#a184d915d5eb18d4743c6e3008bb47e62" target="_top" xlink:title="Set the buffer size in number of samples.">
<polygon fill="none" stroke="black" points="108.5,-158.5 108.5,-177.5 214.5,-177.5 214.5,-158.5 108.5,-158.5"/>
<text text-anchor="middle" x="161.5" y="-165.5" font-family="Helvetica,sans-Serif" font-size="10.00">gate_set_buffer_size</text>
</a>
</g>
</g>
<!-- Node1&#45;&gt;Node5 -->
<g id="edge4" class="edge">
<title>Node1&#45;&gt;Node5</title>
<path fill="none" stroke="midnightblue" d="M67.04,-139.59C82.88,-144.4 102.27,-150.3 119.28,-155.47"/>
<polygon fill="midnightblue" stroke="midnightblue" points="118.38,-158.85 128.97,-158.41 120.42,-152.16 118.38,-158.85"/>
</g>
<!-- Node6 -->
<g id="node6" class="node">
<title>Node6</title>
<g id="a_node6"><a xlink:href="noise__gate_8cpp.html#a4fccad713cee272e388c9c45fc97037e" target="_top" xlink:title="Set the hold time in milliseconds.">
<polygon fill="none" stroke="black" points="123,-120.5 123,-139.5 200,-139.5 200,-120.5 123,-120.5"/>
<text text-anchor="middle" x="161.5" y="-127.5" font-family="Helvetica,sans-Serif" font-size="10.00">gate_set_hold</text>
</a>
</g>
</g>
<!-- Node1&#45;&gt;Node6 -->
<g id="edge5" class="edge">
<title>Node1&#45;&gt;Node6</title>
<path fill="none" stroke="midnightblue" d="M69.33,-130C82.59,-130 98.06,-130 112.44,-130"/>
<polygon fill="midnightblue" stroke="midnightblue" points="112.68,-133.5 122.68,-130 112.68,-126.5 112.68,-133.5"/>
</g>
<!-- Node7 -->
<g id="node7" class="node">
<title>Node7</title>
<g id="a_node7"><a xlink:href="noise__gate_8cpp.html#abe525a07b8cb6f0557740cc4100428a9" target="_top" xlink:title="Set the release time in milliseconds.">
<polygon fill="none" stroke="black" points="116,-82.5 116,-101.5 207,-101.5 207,-82.5 116,-82.5"/>
<text text-anchor="middle" x="161.5" y="-89.5" font-family="Helvetica,sans-Serif" font-size="10.00">gate_set_release</text>
</a>
</g>
</g>
<!-- Node1&#45;&gt;Node7 -->
<g id="edge6" class="edge">
<title>Node1&#45;&gt;Node7</title>
<path fill="none" stroke="midnightblue" d="M67.04,-120.41C82.88,-115.6 102.27,-109.7 119.28,-104.53"/>
<polygon fill="midnightblue" stroke="midnightblue" points="120.42,-107.84 128.97,-101.59 118.38,-101.15 120.42,-107.84"/>
</g>
<!-- Node8 -->
<g id="node8" class="node">
<title>Node8</title>
<g id="a_node8"><a xlink:href="noise__gate_8cpp.html#a2691256497a1cec4e14434f48eccfb56" target="_top" xlink:title="Set the sample rate in Hz.">
<polygon fill="none" stroke="black" points="105,-44.5 105,-63.5 218,-63.5 218,-44.5 105,-44.5"/>
<text text-anchor="middle" x="161.5" y="-51.5" font-family="Helvetica,sans-Serif" font-size="10.00">gate_set_sample_rate</text>
</a>
</g>
</g>
<!-- Node1&#45;&gt;Node8 -->
<g id="edge7" class="edge">
<title>Node1&#45;&gt;Node8</title>
<path fill="none" stroke="midnightblue" d="M45.02,-120.27C57.7,-107.8 81.28,-86.22 105,-73 108.7,-70.94 112.67,-69.04 116.72,-67.32"/>
<polygon fill="midnightblue" stroke="midnightblue" points="118.18,-70.5 126.21,-63.59 115.63,-63.98 118.18,-70.5"/>
</g>
<!-- Node11 -->
<g id="node11" class="node">
<title>Node11</title>
<g id="a_node11"><a xlink:href="noise__gate_8cpp.html#a82e62ed410acc03c8179d8245de13e12" target="_top" xlink:title="Set the threshold and hysteresis value in dBFS.">
<polygon fill="none" stroke="black" points="112,-3.5 112,-22.5 211,-22.5 211,-3.5 112,-3.5"/>
<text text-anchor="middle" x="161.5" y="-10.5" font-family="Helvetica,sans-Serif" font-size="10.00">gate_set_threshold</text>
</a>
</g>
</g>
<!-- Node1&#45;&gt;Node11 -->
<g id="edge10" class="edge">
<title>Node1&#45;&gt;Node11</title>
<path fill="none" stroke="midnightblue" d="M40.24,-120.25C49.9,-101.3 73.64,-59.25 105,-35 109.05,-31.87 113.6,-29.13 118.3,-26.74"/>
<polygon fill="midnightblue" stroke="midnightblue" points="119.8,-29.91 127.46,-22.59 116.91,-23.53 119.8,-29.91"/>
</g>
<!-- Node3 -->
<g id="node3" class="node">
<title>Node3</title>
<g id="a_node3"><a xlink:href="noise__gate_8cpp.html#a5d3ba76b4666ac1820b498aaf04ea22e" target="_top" xlink:title="Reset the state.">
<polygon fill="none" stroke="black" points="277,-234.5 277,-253.5 339,-253.5 339,-234.5 277,-234.5"/>
<text text-anchor="middle" x="308" y="-241.5" font-family="Helvetica,sans-Serif" font-size="10.00">gate_reset</text>
</a>
</g>
</g>
<!-- Node2&#45;&gt;Node3 -->
<g id="edge2" class="edge">
<title>Node2&#45;&gt;Node3</title>
<path fill="none" stroke="midnightblue" d="M188,-244C209.79,-244 241.52,-244 266.74,-244"/>
<polygon fill="midnightblue" stroke="midnightblue" points="266.75,-247.5 276.75,-244 266.75,-240.5 266.75,-247.5"/>
</g>
<!-- Node9 -->
<g id="node9" class="node">
<title>Node9</title>
<g id="a_node9"><a xlink:href="abstract__dsp__esp32_8c.html#ab721c839889c1267077f4cb3304b655d" target="_top" xlink:title=" ">
<polygon fill="none" stroke="black" points="254.5,-88 254.5,-118 361.5,-118 361.5,-88 254.5,-88"/>
<text text-anchor="start" x="262.5" y="-106" font-family="Helvetica,sans-Serif" font-size="10.00">dspal_biquad_design</text>
<text text-anchor="middle" x="308" y="-95" font-family="Helvetica,sans-Serif" font-size="10.00">_lowpass</text>
</a>
</g>
</g>
<!-- Node8&#45;&gt;Node9 -->
<g id="edge8" class="edge">
<title>Node8&#45;&gt;Node9</title>
<path fill="none" stroke="midnightblue" d="M190.7,-63.56C208.44,-69.58 231.9,-77.53 253.1,-84.72"/>
<polygon fill="midnightblue" stroke="midnightblue" points="252.06,-88.07 262.66,-87.96 254.31,-81.44 252.06,-88.07"/>
</g>
<!-- Node10 -->
<g id="node10" class="node">
<title>Node10</title>
<g id="a_node10"><a xlink:href="classshrapnel_1_1dsp_1_1IirFilter.html#aa09e7c1ab99d85c0fdd1c98c80636550" target="_top" xlink:title=" ">
<polygon fill="none" stroke="black" points="254,-39 254,-69 362,-69 362,-39 254,-39"/>
<text text-anchor="start" x="262" y="-57" font-family="Helvetica,sans-Serif" font-size="10.00">shrapnel::dsp::IirFilter</text>
<text text-anchor="middle" x="308" y="-46" font-family="Helvetica,sans-Serif" font-size="10.00">::set_coefficients</text>
</a>
</g>
</g>
<!-- Node8&#45;&gt;Node10 -->
<g id="edge9" class="edge">
<title>Node8&#45;&gt;Node10</title>
<path fill="none" stroke="midnightblue" d="M218.37,-54C226.61,-54 235.15,-54 243.54,-54"/>
<polygon fill="midnightblue" stroke="midnightblue" points="243.65,-57.5 253.65,-54 243.65,-50.5 243.65,-57.5"/>
</g>
<!-- Node12 -->
<g id="node12" class="node">
<title>Node12</title>
<g id="a_node12"><a xlink:href="noise__gate_8cpp.html#afb2354391bb81545d92334434552ab4b" target="_top" xlink:title=" ">
<polygon fill="none" stroke="black" points="275.5,-0.5 275.5,-19.5 340.5,-19.5 340.5,-0.5 275.5,-0.5"/>
<text text-anchor="middle" x="308" y="-7.5" font-family="Helvetica,sans-Serif" font-size="10.00">db_to_ratio</text>
</a>
</g>
</g>
<!-- Node11&#45;&gt;Node12 -->
<g id="edge11" class="edge">
<title>Node11&#45;&gt;Node12</title>
<path fill="none" stroke="midnightblue" d="M211.02,-11.99C228.54,-11.63 248.15,-11.22 265.05,-10.87"/>
<polygon fill="midnightblue" stroke="midnightblue" points="265.26,-14.37 275.19,-10.66 265.12,-7.37 265.26,-14.37"/>
</g>
</g>
</svg>
