<?xml version="1.0" encoding="UTF-8" standalone="no"?>
<!DOCTYPE svg PUBLIC "-//W3C//DTD SVG 1.1//EN"
 "http://www.w3.org/Graphics/SVG/1.1/DTD/svg11.dtd">
<!-- Generated by graphviz version 3.0.0 (20221109.1736)
 -->
<!-- Title: profiling_mark_stage Pages: 1 -->
<svg width="672pt" height="127pt"
 viewBox="0.00 0.00 672.00 126.50" xmlns="http://www.w3.org/2000/svg" xmlns:xlink="http://www.w3.org/1999/xlink">
<g id="graph0" class="graph" transform="scale(1 1) rotate(0) translate(4 122.5)">
<title>profiling_mark_stage</title>
<!-- Node1 -->
<g id="node1" class="node">
<title>Node1</title>
<g id="a_node1"><a xlink:title=" ">
<polygon fill="#bfbfbf" stroke="black" points="558,-44.5 558,-63.5 664,-63.5 664,-44.5 558,-44.5"/>
<text text-anchor="middle" x="611" y="-51.5" font-family="Helvetica,sans-Serif" font-size="10.00">profiling_mark_stage</text>
</a>
</g>
</g>
<!-- Node2 -->
<g id="node2" class="node">
<title>Node2</title>
<g id="a_node2"><a xlink:href="classshrapnel_1_1dsp_1_1FastConvolution.html#a6493ff01fa4ad9d2d0be60122a70ecd9" target="_top" xlink:title="Process samples.">
<polygon fill="none" stroke="black" points="373,-88 373,-118 522,-118 522,-88 373,-88"/>
<text text-anchor="start" x="381" y="-106" font-family="Helvetica,sans-Serif" font-size="10.00">shrapnel::dsp::FastConvolution</text>
<text text-anchor="middle" x="447.5" y="-95" font-family="Helvetica,sans-Serif" font-size="10.00">::process</text>
</a>
</g>
</g>
<!-- Node1&#45;&gt;Node2 -->
<g id="edge1" class="edge">
<title>Node1&#45;&gt;Node2</title>
<path fill="none" stroke="midnightblue" d="M568.66,-66.54C547.14,-73.07 520.67,-81.1 498.06,-87.96"/>
<polygon fill="midnightblue" stroke="midnightblue" points="569.92,-69.82 578.48,-63.56 567.89,-63.12 569.92,-69.82"/>
</g>
<!-- Node3 -->
<g id="node3" class="node">
<title>Node3</title>
<g id="a_node3"><a xlink:href="classshrapnel_1_1dsp_1_1FastFir.html#aea9dcd6520d894549f0c928f575b16f0" target="_top" xlink:title="Filter samples.">
<polygon fill="none" stroke="black" points="393,-39 393,-69 502,-69 502,-39 393,-39"/>
<text text-anchor="start" x="401" y="-57" font-family="Helvetica,sans-Serif" font-size="10.00">shrapnel::dsp::FastFir</text>
<text text-anchor="middle" x="447.5" y="-46" font-family="Helvetica,sans-Serif" font-size="10.00">::process</text>
</a>
</g>
</g>
<!-- Node1&#45;&gt;Node3 -->
<g id="edge2" class="edge">
<title>Node1&#45;&gt;Node3</title>
<path fill="none" stroke="midnightblue" d="M547.37,-54C532.41,-54 516.57,-54 502.06,-54"/>
<polygon fill="midnightblue" stroke="midnightblue" points="547.57,-57.5 557.57,-54 547.57,-50.5 547.57,-57.5"/>
</g>
<!-- Node4 -->
<g id="node4" class="node">
<title>Node4</title>
<g id="a_node4"><a xlink:href="process_8cpp.html#a450bec865b55b9890f4050f1ab0dba5c" target="_top" xlink:title=" ">
<polygon fill="none" stroke="black" points="401,-0.5 401,-19.5 494,-19.5 494,-0.5 401,-0.5"/>
<text text-anchor="middle" x="447.5" y="-7.5" font-family="Helvetica,sans-Serif" font-size="10.00">process_samples</text>
</a>
</g>
</g>
<!-- Node1&#45;&gt;Node4 -->
<g id="edge3" class="edge">
<title>Node1&#45;&gt;Node4</title>
<path fill="none" stroke="midnightblue" d="M565.11,-41.75C551.29,-37.98 536.02,-33.82 522,-30 509.5,-26.59 495.79,-22.86 483.64,-19.56"/>
<polygon fill="midnightblue" stroke="midnightblue" points="564.32,-45.16 574.89,-44.42 566.16,-38.41 564.32,-45.16"/>
</g>
<!-- Node5 -->
<g id="node5" class="node">
<title>Node5</title>
<g id="a_node5"><a xlink:href="i2s_8cpp.html#a4e37f563a34c1a559515cc40782caf07" target="_top" xlink:title=" ">
<polygon fill="none" stroke="black" points="231,-0.5 231,-19.5 337,-19.5 337,-0.5 231,-0.5"/>
<text text-anchor="middle" x="284" y="-7.5" font-family="Helvetica,sans-Serif" font-size="10.00">i2s_processing_task</text>
</a>
</g>
</g>
<!-- Node4&#45;&gt;Node5 -->
<g id="edge4" class="edge">
<title>Node4&#45;&gt;Node5</title>
<path fill="none" stroke="midnightblue" d="M390.18,-10C372.98,-10 354.14,-10 337.23,-10"/>
<polygon fill="midnightblue" stroke="midnightblue" points="390.65,-13.5 400.65,-10 390.65,-6.5 390.65,-13.5"/>
</g>
<!-- Node6 -->
<g id="node6" class="node">
<title>Node6</title>
<g id="a_node6"><a xlink:href="i2s_8cpp.html#a445c7079217d08d4767549802dade8a0" target="_top" xlink:title=" ">
<polygon fill="none" stroke="black" points="136,-0.5 136,-19.5 195,-19.5 195,-0.5 136,-0.5"/>
<text text-anchor="middle" x="165.5" y="-7.5" font-family="Helvetica,sans-Serif" font-size="10.00">i2s_setup</text>
</a>
</g>
</g>
<!-- Node5&#45;&gt;Node6 -->
<g id="edge5" class="edge">
<title>Node5&#45;&gt;Node6</title>
<path fill="none" stroke="midnightblue" d="M220.81,-10C211.89,-10 203.1,-10 195.27,-10"/>
<polygon fill="midnightblue" stroke="midnightblue" points="220.88,-13.5 230.88,-10 220.88,-6.5 220.88,-13.5"/>
</g>
<!-- Node7 -->
<g id="node7" class="node">
<title>Node7</title>
<g id="a_node7"><a xlink:href="namespaceshrapnel.html#a9f09f4ea750643310af9143a53735b7d" target="_top" xlink:title=" ">
<polygon fill="none" stroke="black" points="0,-0.5 0,-19.5 100,-19.5 100,-0.5 0,-0.5"/>
<text text-anchor="middle" x="50" y="-7.5" font-family="Helvetica,sans-Serif" font-size="10.00">shrapnel::app_main</text>
</a>
</g>
</g>
<!-- Node6&#45;&gt;Node7 -->
<g id="edge6" class="edge">
<title>Node6&#45;&gt;Node7</title>
<path fill="none" stroke="midnightblue" d="M125.85,-10C117.66,-10 108.91,-10 100.39,-10"/>
<polygon fill="midnightblue" stroke="midnightblue" points="125.86,-13.5 135.86,-10 125.86,-6.5 125.86,-13.5"/>
</g>
</g>
</svg>
