<?xml version="1.0" encoding="UTF-8" standalone="no"?>
<!DOCTYPE svg PUBLIC "-//W3C//DTD SVG 1.1//EN"
 "http://www.w3.org/Graphics/SVG/1.1/DTD/svg11.dtd">
<!-- Generated by graphviz version 3.0.0 (20221109.1736)
 -->
<!-- Title: profiling_mark_stage Pages: 1 -->
<svg width="299pt" height="137pt"
 viewBox="0.00 0.00 299.00 137.00" xmlns="http://www.w3.org/2000/svg" xmlns:xlink="http://www.w3.org/1999/xlink">
<g id="graph0" class="graph" transform="scale(1 1) rotate(0) translate(4 133)">
<title>profiling_mark_stage</title>
<!-- Node1 -->
<g id="node1" class="node">
<title>Node1</title>
<g id="a_node1"><a xlink:title=" ">
<polygon fill="#bfbfbf" stroke="black" points="185,-55 185,-74 291,-74 291,-55 185,-55"/>
<text text-anchor="middle" x="238" y="-62" font-family="Helvetica,sans-Serif" font-size="10.00">profiling_mark_stage</text>
</a>
</g>
</g>
<!-- Node2 -->
<g id="node2" class="node">
<title>Node2</title>
<g id="a_node2"><a xlink:href="classshrapnel_1_1dsp_1_1FastConvolution.html#a6493ff01fa4ad9d2d0be60122a70ecd9" target="_top" xlink:title="Process samples.">
<polygon fill="none" stroke="black" points="0,-98.5 0,-128.5 149,-128.5 149,-98.5 0,-98.5"/>
<text text-anchor="start" x="8" y="-116.5" font-family="Helvetica,sans-Serif" font-size="10.00">shrapnel::dsp::FastConvolution</text>
<text text-anchor="middle" x="74.5" y="-105.5" font-family="Helvetica,sans-Serif" font-size="10.00">::process</text>
</a>
</g>
</g>
<!-- Node1&#45;&gt;Node2 -->
<g id="edge1" class="edge">
<title>Node1&#45;&gt;Node2</title>
<path fill="none" stroke="midnightblue" d="M195.66,-77.04C174.14,-83.57 147.67,-91.6 125.06,-98.46"/>
<polygon fill="midnightblue" stroke="midnightblue" points="196.92,-80.32 205.48,-74.06 194.89,-73.62 196.92,-80.32"/>
</g>
<!-- Node3 -->
<g id="node3" class="node">
<title>Node3</title>
<g id="a_node3"><a xlink:href="classshrapnel_1_1AudioProcessor.html#a58ee6267bed11fd14aaf9a44627554e7" target="_top" xlink:title=" ">
<polygon fill="none" stroke="black" points="11,-49.5 11,-79.5 138,-79.5 138,-49.5 11,-49.5"/>
<text text-anchor="start" x="19" y="-67.5" font-family="Helvetica,sans-Serif" font-size="10.00">shrapnel::AudioProcessor</text>
<text text-anchor="middle" x="74.5" y="-56.5" font-family="Helvetica,sans-Serif" font-size="10.00">::process</text>
</a>
</g>
</g>
<!-- Node1&#45;&gt;Node3 -->
<g id="edge2" class="edge">
<title>Node1&#45;&gt;Node3</title>
<path fill="none" stroke="midnightblue" d="M174.29,-64.5C162.4,-64.5 149.97,-64.5 138.09,-64.5"/>
<polygon fill="midnightblue" stroke="midnightblue" points="174.57,-68 184.57,-64.5 174.57,-61 174.57,-68"/>
</g>
<!-- Node4 -->
<g id="node4" class="node">
<title>Node4</title>
<g id="a_node4"><a xlink:href="classshrapnel_1_1dsp_1_1FastFir.html#af94cf1e105499af836926db798b89530" target="_top" xlink:title="Filter samples.">
<polygon fill="none" stroke="black" points="20,-0.5 20,-30.5 129,-30.5 129,-0.5 20,-0.5"/>
<text text-anchor="start" x="28" y="-18.5" font-family="Helvetica,sans-Serif" font-size="10.00">shrapnel::dsp::FastFir</text>
<text text-anchor="middle" x="74.5" y="-7.5" font-family="Helvetica,sans-Serif" font-size="10.00">::process</text>
</a>
</g>
</g>
<!-- Node1&#45;&gt;Node4 -->
<g id="edge3" class="edge">
<title>Node1&#45;&gt;Node4</title>
<path fill="none" stroke="midnightblue" d="M195.66,-51.96C174.14,-45.43 147.67,-37.4 125.06,-30.54"/>
<polygon fill="midnightblue" stroke="midnightblue" points="194.89,-55.38 205.48,-54.94 196.92,-48.68 194.89,-55.38"/>
</g>
</g>
</svg>
