<?xml version="1.0" encoding="UTF-8" standalone="no"?>
<!DOCTYPE svg PUBLIC "-//W3C//DTD SVG 1.1//EN"
 "http://www.w3.org/Graphics/SVG/1.1/DTD/svg11.dtd">
<!-- Generated by graphviz version 3.0.0 (20221109.1736)
 -->
<!-- Title: i2s_profiling_task Pages: 1 -->
<svg width="231pt" height="66pt"
 viewBox="0.00 0.00 231.00 66.00" xmlns="http://www.w3.org/2000/svg" xmlns:xlink="http://www.w3.org/1999/xlink">
<g id="graph0" class="graph" transform="scale(1 1) rotate(0) translate(4 62)">
<title>i2s_profiling_task</title>
<!-- Node1 -->
<g id="node1" class="node">
<title>Node1</title>
<g id="a_node1"><a xlink:title=" ">
<polygon fill="#bfbfbf" stroke="black" points="0,-19.5 0,-38.5 92,-38.5 92,-19.5 0,-19.5"/>
<text text-anchor="middle" x="46" y="-26.5" font-family="Helvetica,sans-Serif" font-size="10.00">i2s_profiling_task</text>
</a>
</g>
</g>
<!-- Node2 -->
<g id="node2" class="node">
<title>Node2</title>
<g id="a_node2"><a xlink:href="profiling_8cpp.html#a96b462c18367729bd8d5e19d7d98a619" target="_top" xlink:title=" ">
<polygon fill="none" stroke="black" points="128,-38.5 128,-57.5 223,-57.5 223,-38.5 128,-38.5"/>
<text text-anchor="middle" x="175.5" y="-45.5" font-family="Helvetica,sans-Serif" font-size="10.00">cycles_to_percent</text>
</a>
</g>
</g>
<!-- Node1&#45;&gt;Node2 -->
<g id="edge1" class="edge">
<title>Node1&#45;&gt;Node2</title>
<path fill="none" stroke="midnightblue" d="M92.31,-35.75C100.45,-36.97 109.03,-38.24 117.46,-39.5"/>
<polygon fill="midnightblue" stroke="midnightblue" points="117.21,-43 127.61,-41.01 118.24,-36.08 117.21,-43"/>
</g>
<!-- Node3 -->
<g id="node3" class="node">
<title>Node3</title>
<g id="a_node3"><a xlink:href="profiling_8cpp.html#ab43df9ddabf19beb65958fe84cac89b5" target="_top" xlink:title=" ">
<polygon fill="none" stroke="black" points="138.5,-0.5 138.5,-19.5 212.5,-19.5 212.5,-0.5 138.5,-0.5"/>
<text text-anchor="middle" x="175.5" y="-7.5" font-family="Helvetica,sans-Serif" font-size="10.00">cycles_to_us</text>
</a>
</g>
</g>
<!-- Node1&#45;&gt;Node3 -->
<g id="edge2" class="edge">
<title>Node1&#45;&gt;Node3</title>
<path fill="none" stroke="midnightblue" d="M92.31,-22.25C103.94,-20.52 116.46,-18.65 128.14,-16.91"/>
<polygon fill="midnightblue" stroke="midnightblue" points="128.76,-20.35 138.14,-15.42 127.73,-13.43 128.76,-20.35"/>
</g>
</g>
</svg>
